<?xml version="1.0" encoding="UTF-8" standalone="no"?>
<svg
   xmlns:dc="http://purl.org/dc/elements/1.1/"
   xmlns:cc="http://creativecommons.org/ns#"
   xmlns:rdf="http://www.w3.org/1999/02/22-rdf-syntax-ns#"
   xmlns:svg="http://www.w3.org/2000/svg"
   xmlns="http://www.w3.org/2000/svg"
   xmlns:sodipodi="http://sodipodi.sourceforge.net/DTD/sodipodi-0.dtd"
   xmlns:inkscape="http://www.inkscape.org/namespaces/inkscape"
   id="svg17"
   viewBox="0 0 54 32"
   version="1.1"
   sodipodi:docname="configure.svg"
   inkscape:version="1.0.1 (3bc2e813f5, 2020-09-07)">
  <sodipodi:namedview
     pagecolor="#ffffff"
     bordercolor="#666666"
     borderopacity="1"
     objecttolerance="10"
     gridtolerance="10"
     guidetolerance="10"
     inkscape:pageopacity="0"
     inkscape:pageshadow="2"
     inkscape:window-width="1920"
     inkscape:window-height="1031"
     id="namedview12"
     showgrid="false"
     inkscape:zoom="21.388889"
     inkscape:cx="27"
     inkscape:cy="16"
     inkscape:window-x="0"
     inkscape:window-y="24"
     inkscape:window-maximized="1"
     inkscape:current-layer="22-22-configure" />
  <metadata
     id="metadata19">
    <rdf:RDF>
      <cc:Work
         rdf:about="">
        <dc:format>image/svg+xml</dc:format>
        <dc:type
           rdf:resource="http://purl.org/dc/dcmitype/StillImage" />
        <dc:title />
      </cc:Work>
    </rdf:RDF>
  </metadata>
  <defs
     id="defs5">
    <style
       type="text/css"
       id="current-color-scheme"> .ColorScheme-Text { color:#363636; } </style>
  </defs>
  <g
     id="22-22-configure">
    <path
       id="path9"
       fill="none"
       d="m0 10v22h22v-22h-22z" />
    <path
       id="path128"
       d="m 6.6228588,13.875427 c -2.1339837,0 -3.8519561,1.614212 -3.8519561,3.619309 0,2.005097 1.7179724,3.619308 3.8519561,3.619308 h 9.6298892 c 2.133984,0 3.851957,-1.614211 3.851957,-3.619308 0,-2.005097 -1.717973,-3.619309 -3.851957,-3.619309 z m 0,0.904828 h 9.6298892 c 1.600488,0 2.888966,1.210659 2.888966,2.714481 0,1.503823 -1.288478,2.71448 -2.888966,2.71448 H 6.6228588 c -1.6004879,0 -2.8889672,-1.210657 -2.8889672,-2.71448 0,-1.503822 1.2884793,-2.714481 2.8889672,-2.714481 z"
       style="fill:#363636;fill-opacity:1;stroke-width:0.933454" />
    <path
       id="path130"
       d="m 6.6228588,22.018872 c -2.1339837,0 -3.8519561,1.61421 -3.8519561,3.619308 0,2.005095 1.7179724,3.619308 3.8519561,3.619308 h 9.6298892 c 2.133984,0 3.851957,-1.614213 3.851957,-3.619308 0,-2.005098 -1.717973,-3.619308 -3.851957,-3.619308 z m 9.5828962,1.809654 a 1.9259782,1.8096543 0 0 1 0.04702,0 1.9259782,1.8096543 0 0 1 1.925978,1.809654 1.9259782,1.8096543 0 0 1 -1.925978,1.809655 1.9259782,1.8096543 0 0 1 -1.925978,-1.809655 1.9259782,1.8096543 0 0 1 1.878984,-1.809654 z"
       style="fill:#363636;fill-opacity:1;stroke-width:0.933454" />
    <ellipse
       id="circle132"
       cy="17.493864"
       cx="6.6230383"
       style="fill:#363636;fill-opacity:1;stroke-width:3.4671"
       rx="1.9259781"
       ry="1.8096545" />
  </g>
  <g
     id="configure">
    <path
       id="path12"
       fill="currentColor"
       class="ColorScheme-Text"
       d="m 37.55697,6.7175217 c -0.644353,0 -1.163077,0.502255 -1.163077,1.1260277 v 2.2308766 c -0.62515,0.175361 -1.227396,0.419737 -1.794864,0.72832 L 32.96487,9.218831 c -0.455621,-0.4411067 -1.189534,-0.4411067 -1.645192,0 l -1.645191,1.592786 c -0.45562,0.441105 -0.45562,1.15164 0,1.592783 l 1.628737,1.576855 c -0.314706,0.551637 -0.56283,1.136526 -0.739504,1.743032 h -2.311662 c -0.644352,0 -1.163077,0.502217 -1.163077,1.126026 v 2.252147 c 0,0.623845 0.518762,1.126028 1.163077,1.126028 h 2.306147 c 0.181131,0.605235 0.433547,1.188297 0.752283,1.73769 l -1.636029,1.583914 c -0.45562,0.441106 -0.45562,1.149922 0,1.590975 l 1.645191,1.592784 c 0.455621,0.441108 1.189534,0.441108 1.645191,0 l 1.628737,-1.576855 c 0.569703,0.30529 1.173828,0.546108 1.80038,0.717714 v 2.236216 c 0,0.623809 0.518762,1.126028 1.163077,1.126028 h 2.326246 c 0.644353,0 1.163077,-0.502256 1.163077,-1.126028 v -2.232687 c 0.62515,-0.175362 1.227395,-0.419738 1.794864,-0.728319 l 1.63603,1.583913 c 0.455619,0.441107 1.187663,0.441107 1.643321,0 l 1.64519,-1.592783 c 0.45562,-0.441107 0.45562,-1.149923 0,-1.590975 l -1.628736,-1.576856 c 0.315463,-0.552117 0.564214,-1.137522 0.741326,-1.74475 h 2.309793 c 0.644352,0 1.163076,-0.502218 1.163076,-1.126027 v -2.252147 c 0,-0.623844 -0.518762,-1.126027 -1.163076,-1.126027 H 46.881999 C 46.700867,15.119031 46.448452,14.53597 46.129716,13.986577 l 1.636028,-1.582104 c 0.455621,-0.441107 0.455621,-1.151642 0,-1.592785 L 46.120553,9.2189034 c -0.455619,-0.4411067 -1.187664,-0.4411067 -1.64332,0 L 42.848496,10.795758 C 42.278129,10.49095 41.673452,10.250729 41.046339,10.079811 V 7.8435947 c 0,-0.6238091 -0.518762,-1.1260277 -1.163076,-1.1260277 z m 1.163076,6.5283543 c 2.698607,-1.84e-4 4.886399,2.117829 4.886212,4.730564 1.89e-4,2.612646 -2.187512,4.730748 -4.886212,4.730566 -2.698607,1.84e-4 -4.886399,-2.11783 -4.886212,-4.730566 -1.89e-4,-2.612645 2.187512,-4.730746 4.886212,-4.730564 z"
       style="stroke-width:0.919865" />
    <path
       id="path14"
       fill="none"
       d="m22 0v32h32v-32h-32z" />
  </g>
</svg>
