<?xml version="1.0" encoding="UTF-8" standalone="no"?>
<svg
   xmlns:dc="http://purl.org/dc/elements/1.1/"
   xmlns:cc="http://creativecommons.org/ns#"
   xmlns:rdf="http://www.w3.org/1999/02/22-rdf-syntax-ns#"
   xmlns:svg="http://www.w3.org/2000/svg"
   xmlns="http://www.w3.org/2000/svg"
   id="svg213"
   version="1.1"
   height="154"
   width="242">
  <metadata
     id="metadata217">
    <rdf:RDF>
      <cc:Work
         rdf:about="">
        <dc:format>image/svg+xml</dc:format>
        <dc:type
           rdf:resource="http://purl.org/dc/dcmitype/StillImage" />
        <dc:title></dc:title>
      </cc:Work>
    </rdf:RDF>
  </metadata>
  <defs
     id="defs3">
    <style
       type="text/css"
       id="current-color-scheme">.ColorScheme-Text { color:#363636; }</style>
  </defs>
  <g
     id="fcitx-pinyin">
    <path
       id="path5"
       fill="currentColor"
       d="m6 3c-1.662 0-3 1.338-3 3v10c0 1.662 1.338 3 3 3h10c1.662 0 3-1.338 3-3v-10c0-1.662-1.338-3-3-3zm4.9004 1.7012 1.5 2-0.39844 0.29883h1.9961l-0.39844-0.29883 1.5-2 0.80078 0.59961-1.2754 1.6992h2.375v1h-2v3h2v1h-2v5h-1v-5h-2.041c-0.096 1.119-0.47678 2.0286-0.92578 2.8066-0.621 1.075-1.6914 2.0586-1.6914 2.0586l-0.68359-0.72852s1.0128-0.97008 1.5098-1.8301c0.402-0.695 0.70497-1.4116 0.79297-2.3066h-1.9609v-0.94141l-1 0.5v5.4414h-3v-1h2v-3.9395l-1.7773 0.88672-0.44531-0.89453 2.2227-1.1113v-2.9414h-2v-1h2v-2h1v2h1v1h-1v2.4395l0.77734-0.38672 0.44531 0.89453-0.10547 0.052734h1.8828v-3h-1v-1h1.375l-1.2754-1.6992zm1.0996 3.2988v3h2v-3z"
       class="ColorScheme-Text" />
    <path
       id="path7"
       fill="none"
       d="m0 0h22v22h-22z" />
  </g>
  <g
     id="fcitx-shuangpin">
    <path
       id="path10"
       fill="currentColor"
       d="m50 3c-1.662 0-3 1.338-3 3v10c0 1.662 1.338 3 3 3h10c1.662 0 3-1.338 3-3v-10c0-1.662-1.338-3-3-3h-10zm-1 2h5.5488l-0.050781 0.54883s-0.32761 3.5209-1.2246 6.1289c0.6511 0.97991 1.2642 1.9846 1.8379 3.0117l-0.86914 0.49024c-0.53902-0.954-0.98488-1.689-1.4219-2.375-1.395 3.125-3.3652 4.4883-3.3652 4.4883l-0.55664-0.83203s1.9707-1.3133 3.2637-4.6562c-0.766-1.106-1.6347-2.2202-3.0527-3.9902l0.78125-0.62695c1.181 1.475 1.974 2.4921 2.668 3.4551 0.552-1.906 0.79814-3.9996 0.86914-4.6426h-4.4277v-1zm6 0h6v0.5c0 2.147-0.83303 4.9682-1.707 6.9082-0.111 0.246-0.24219 0.46536-0.36719 0.69336 0.624 1.083 1.4598 2.1135 2.8438 3.2305l-0.62695 0.7793c-1.282-1.034-2.1467-2.0405-2.8027-3.0645-1.394 1.987-3.1035 3.0371-3.1035 3.0371l-0.51758-0.85547s1.7804-1.1006 3.0684-3.1426c-0.337-0.649-0.62072-1.3072-0.88672-1.9922-0.75795-1.957-1.2085-4.5018-1.3105-5.0938h-0.58984v-1zm1.6074 1c0.14 0.765 0.56855 3.0334 1.2266 4.7324 0.16738 0.43214 0.34714 0.85943 0.53906 1.2812l0.007812-0.015625c0.75703-1.68 1.434-4.145 1.543-5.998h-3.3164z"
       class="ColorScheme-Text" />
    <path
       id="path12"
       fill="none"
       d="m44 0h22v22h-22z" />
  </g>
  <g
     id="fcitx-wubi">
    <path
       id="path15"
       fill="currentColor"
       d="m160 3c-1.662 0-3 1.338-3 3v10c0 1.662 1.338 3 3 3h10c1.662 0 3-1.338 3-3v-10c0-1.662-1.338-3-3-3h-10zm0 3h9v1h-4.0977l-0.66601 3h3.7637v5h2v1h-10v-1h2.0996l0.88867-4h-1.9883v-1h2.2109l0.66601-3h-3.877v-1zm4.0137 5-0.89062 4h3.877v-4h-2.9863z"
       class="ColorScheme-Text" />
    <path
       id="path17"
       fill="none"
       d="m154 0h22v22h-22z" />
  </g>
  <g
     id="fcitx-googlepinyin">
    <path
       id="path20"
       fill="currentColor"
       d="m6 47.002c-1.662 0-3 1.338-3 3v10c0 1.662 1.338 3 3 3h10c1.662 0 3-1.338 3-3v-10c0-1.662-1.338-3-3-3h-10zm5.0078 2.5c1.2953 1.74e-4 2.5487 0.45811 3.5391 1.293l-1.291 1.5293c-1.3385-1.1366-3.3132-1.1006-4.6094 0.083984-1.3038 1.177-1.5296 3.1396-0.52734 4.582 1 1.45 2.9007 1.9289 4.4707 1.1289 0.8479-0.43334 1.4796-1.1972 1.7461-2.1113h-3.3359v-2h3.3438l-0.001953-0.007812h2.0566c0.434 2.355-0.70844 4.7834-2.8984 5.9004-2.4559 1.2473-5.4557 0.49008-7.0254-1.7734-1.5619-2.2691-1.2092-5.3429 0.82617-7.1992 0.98671-0.89547 2.2654-1.4015 3.5977-1.4238 0.03645-0.00103 0.072915-0.001649 0.10937-0.001953z"
       class="ColorScheme-Text" />
    <path
       id="path22"
       fill="none"
       d="m0 44h22v22h-22z" />
  </g>
  <g
     id="fcitx-sunpinyin">
    <path
       id="path25"
       fill="currentColor"
       d="m33 45.514c-0.256 0-0.511 0.099-0.707 0.295l-2.191 2.191h-3.102c-0.554 0-1 0.446-1 1v3.1l-2.193 2.193a0.998 0.998 0 0 0 0 1.414l2.193 2.193v3.1c0 0.554 0.446 1 1 1h3.1l2.193 2.193a0.998 0.998 0 0 0 1.414 0l2.193-2.193h3.1c0.554 0 1-0.446 1-1v-3.102l2.191-2.191a0.998 0.998 0 0 0 0-1.414l-2.191-2.191v-3.102c0-0.554-0.446-1-1-1h-3.102l-2.191-2.191a0.998 0.998 0 0 0-0.707-0.295zm-0.1 3.186 1.5 2-0.398 0.299h1.996l-0.398-0.299 1.5-2 0.8 0.6-1.275 1.7h2.375v1h-2v3h2v1h-2v5h-1v-5h-2.041c-0.096 1.119-0.477 2.03-0.926 2.807-0.62 1.075-1.691 2.058-1.691 2.058l-0.684-0.728s1.013-0.97 1.51-1.83c0.401-0.695 0.704-1.412 0.793-2.307h-1.961v-0.941l-1 0.5v5.441h-3v-1h2v-3.941l-1.777 0.888-0.446-0.894 2.223-1.113v-2.94h-2v-1h2v-2h1v2h1v1h-1v2.441l0.777-0.388 0.446 0.894-0.106 0.053h1.883v-3h-1v-1h1.375l-1.275-1.7 0.8-0.599zm1.1 3.3v3h2v-3z"
       class="ColorScheme-Text" />
    <path
       id="path27"
       fill="none"
       d="m22 44h22v22h-22z" />
  </g>
  <g
     transform="translate(0 -38)"
     id="fcitx-emoji">
    <path
       id="path30"
       fill="none"
       d="M0 170h22v22H0z" />
    <path
       id="path32"
       fill="currentColor"
       d="M3.223 150.053l-.446.894 4 2 .446-.894-4-2zm15.554 0l-4 2 .446.894 4-2-.446-.894zM4 153a1 1 0 0 0-1 1 1 1 0 0 0 1 1 1 1 0 0 0 1-1 1 1 0 0 0-1-1zm14 0a1 1 0 0 0-1 1 1 1 0 0 0 1 1 1 1 0 0 0 1-1 1 1 0 0 0-1-1zm-9.9 1.7c-.81 1.08-1.235 2.288-1.16 3.335.037.524.21 1.022.568 1.39.358.37.888.575 1.492.575.961 0 1.639-.68 2-1.457.361.776 1.039 1.457 2 1.457.604 0 1.134-.205 1.492-.574.359-.37.531-.867.569-1.39.074-1.048-.35-2.257-1.16-3.337l-.801.602c.69.92 1.015 1.961.964 2.664-.025.351-.133.603-.29.765-.158.163-.378.27-.774.27-.528 0-.84-.307-1.107-.895-.268-.587-.393-1.41-.393-2.105h-1c0 .694-.125 1.518-.393 2.105-.267.588-.58.895-1.107.895-.396 0-.616-.107-.773-.27-.158-.162-.266-.414-.291-.765-.05-.703.274-1.744.964-2.664l-.8-.602z"
       transform="translate(0 26)"
       class="ColorScheme-Text" />
  </g>
  <g
     id="fcitx-erbi">
    <path
       id="path35"
       fill="currentColor"
       d="m138 3c-1.662 0-3 1.338-3 3v10c0 1.662 1.338 3 3 3h10c1.662 0 3-1.338 3-3v-10c0-1.662-1.338-3-3-3h-10zm0 4h10v1h-10v-1zm-1 7h12v1h-12v-1z"
       class="ColorScheme-Text" />
    <path
       id="path37"
       fill="none"
       d="m132 0h22v22h-22z" />
  </g>
  <g
     id="fcitx-ziranma">
    <path
       id="path40"
       fill="currentColor"
       d="m204 3c-1.662 0-3 1.338-3 3v10c0 1.662 1.338 3 3 3h10c1.662 0 3-1.338 3-3v-10c0-1.662-1.338-3-3-3h-10zm3.6797 1.6152 0.64062 0.76953-1.9375 1.6152h7.6172v10h-10v-10h0.81836l2.8613-2.3848zm-2.6797 3.3848v2h6v1h-6v2h6v1h-6v2h8v-8h-8z"
       class="ColorScheme-Text" />
    <path
       id="path42"
       fill="none"
       d="m198 0h22v22h-22z" />
  </g>
  <g
     id="fcitx-quanpin">
    <path
       id="path45"
       fill="currentColor"
       d="m28 3c-1.662 0-3 1.338-3 3v10c0 1.662 1.338 3 3 3h10c1.662 0 3-1.338 3-3v-10c0-1.662-1.338-3-3-3h-10zm4.5098 1.9023 0.98047 0.19531c-0.00999 0.049996-0.033875 0.096484-0.046875 0.14648 1.877 2.289 5.7324 3.7871 5.7324 3.7871l-0.35156 0.9375s-0.80822-0.32089-1.8242-0.83789v0.86914h-3.5v2h2.5v1h-2.5v3h4.5v1h-10v-1h4.5v-3h-2.5v-1h2.5v-2h-3.5v-0.82422c-1.03 0.501-1.8301 0.79492-1.8301 0.79492l-0.33984-0.94141s1.3413-0.48934 2.7363-1.2773c1.396-0.789 2.7574-1.9196 2.9434-2.8496zm0.49023 1.3301c-0.668 0.996-1.8454 1.7716-2.9414 2.3906-0.247 0.14-0.4837 0.25595-0.7207 0.37695h7.3965c-1.191-0.63-2.6184-1.5526-3.7344-2.7676z"
       class="ColorScheme-Text" />
    <path
       id="path47"
       fill="none"
       d="m22 0h22v22h-22z" />
  </g>
  <g
     id="fcitx-cangjie">
    <path
       id="path50"
       fill="currentColor"
       d="m226 3c-1.662 0-3 1.338-3 3v10c0 1.662 1.338 3 3 3h10c1.662 0 3-1.338 3-3v-10c0-1.662-1.338-3-3-3h-10zm4.584 1.7227h0.83204c1.844 2.765 5.6465 3.2812 5.6465 3.2812l-0.125 0.99219c0-1e-7 -0.8335-0.12316-1.9375-0.53516v4.5391h-7.0547c-0.04124 0.33966-0.11515 0.67454-0.2207 1h7.2754v3h-8v-1.377c-0.022 0.04-0.04441 0.086-0.06641 0.125-0.52103 0.91105-1.043 1.5645-1.043 1.5645l-0.78124-0.625c-1e-5 0 0.47703-0.59555 0.95703-1.4355 0.48-0.839 0.93359-1.919 0.93359-2.752v-4.0391c-1.104 0.411-1.9375 0.53516-1.9375 0.53516l-0.125-0.99219s3.8025-0.51625 5.6465-3.2812zm0.41602 0.98047c-0.859 1.07-1.9336 1.7989-2.9336 2.2969h2.5312l-0.875-0.58398 0.55468-0.83203 1.5 1-0.27734 0.41602h2.4336c-1.001-0.498-2.0746-1.2269-2.9336-2.2969zm-3 3.2969v1h5v1h-5v1h6v-3h-6zm0 6v1h6v-1h-6z"
       class="ColorScheme-Text" />
    <path
       id="path52"
       fill="none"
       d="m220 0h22v22h-22z" />
  </g>
  <g
     id="fcitx-bopomofo">
    <path
       id="path55"
       fill="currentColor"
       d="m72 3c-1.662 0-3 1.338-3 3v10c0 1.662 1.338 3 3 3h10c1.662 0 3-1.338 3-3v-10c0-1.662-1.338-3-3-3h-10zm5.3008 1.5996 2 1.5-0.60156 0.80078-2-1.5 0.60156-0.80078zm-5.9473 0.046875 2 2-0.70703 0.70703-2-2 0.70703-0.70703zm2.6465 2.3535h9v1h-4v3h3v1h-3v4h4v1h-9v-1h4v-4h-3v-1h3v-3h-4v-1zm-2.6465 0.64648 2 2-0.70703 0.70703-2-2 0.70703-0.70703zm1.1719 3.1953 0.94922 0.31641-2 6-0.94922-0.31641 2-6z"
       class="ColorScheme-Text" />
    <path
       id="path57"
       fill="none"
       d="m66 0h22v22h-22z" />
  </g>
  <g
     id="fcitx-chewing">
    <path
       id="path60"
       fill="currentColor"
       d="m94 3c-1.662 0-3 1.338-3 3v10c0 1.662 1.338 3 3 3h10c1.662 0 3-1.338 3-3v-10c0-1.662-1.338-3-3-3h-10zm-1 2h6v1h-2v3h2l-0.40039-0.30078c0-1e-7 1.4004-1.9492 1.4004-3.6992h1c0 0.709-0.16481 1.389-0.38281 2h1.3828v-2h1v2h2v1h-2v2h2v1h-5v-1h2v-2h-1.8027c-0.398 0.79002-0.79688 1.3008-0.79688 1.3008l-0.40039-0.30078v8h-6v-8h1v-3h-1v-1zm2 1v3h1v-3h-1zm0 4v3h-1v1h3v1h-3v1h4v-6h-1v3h-1v-3h-1zm5 2h5v5h-5v-5zm1 1v3h3v-3h-3z"
       class="ColorScheme-Text" />
    <path
       id="path62"
       fill="none"
       d="m88 0h22v22h-22z" />
  </g>
  <g
     id="fcitx-rime">
    <path
       id="path65"
       fill="currentColor"
       d="m116 3c-1.662 0-3 1.338-3 3v10c0 1.662 1.338 3 3 3h10c1.662 0 3-1.338 3-3v-10c0-1.662-1.338-3-3-3h-10zm4 2h1v6.9824c1.811-0.082 2.7207-0.60619 3.2617-1.4922 0.59-0.965 0.73828-2.5102 0.73828-4.4902h1c0 2.02-0.10172 3.7248-0.88672 5.0098-0.726 1.189-2.0633 1.8747-4.1133 1.9707v3.0195h5v1h-11v-1h5v-3.0195c-2.05-0.096-3.3873-0.7817-4.1133-1.9707-0.785-1.285-0.88672-2.9898-0.88672-5.0098h1c0 1.98 0.14828 3.5252 0.73828 4.4902 0.542 0.88601 1.4507 1.4112 3.2617 1.4922v-6.9824z"
       class="ColorScheme-Text" />
    <path
       id="path67"
       fill="none"
       d="m110 0h22v22h-22z" />
  </g>
  <g
     transform="translate(0 -60)"
     id="fcitx-unikey">
    <path
       id="path70"
       fill="none"
       d="M0 170h22v22H0z" />
    <path
       id="path72"
       fill="currentColor"
       d="M4 126v8h3v7h8v-7h3v-8h-7zm1 1h6v6H5zm7 0h5v6h-5zm-6 1v1.5c0 .806.123 1.423.484 1.875.362.452.933.625 1.516.625s1.154-.173 1.516-.625c.361-.452.484-1.07.484-1.875V128H9v1.5c0 .694-.127 1.077-.266 1.25-.138.173-.317.25-.734.25s-.596-.077-.734-.25c-.139-.173-.266-.556-.266-1.25V128zm8 0v4h1v-4zm-6 6h6v6H8zm2 1H9v4h1v-2.498L12 139h1v-4h-1v2.498z"
       transform="translate(0 48)"
       class="ColorScheme-Text" />
  </g>
  <g
     id="fcitx-anthy"><path
   id="path75"
   fill="none"
   d="m0 66h22v22h-22z" />
<path
   id="path77"
   fill="currentColor"
   d="m11 69c-1.099 0-2 0.901-2 2v2e-3c1e-3 0.609 0.333 1.122 0.795 1.496-0.145 0.976-0.373 2.233-0.77 3.256-0.211 0.546-0.467 1.014-0.734 1.316s-0.507 0.43-0.791 0.43c-0.298 0-0.54-0.111-0.793-0.348-0.253-0.236-0.495-0.6-0.701-1.037-0.38-0.804-0.608-1.815-0.762-2.644 0.44-0.375 0.756-0.88 0.756-1.471 0-1.099-0.901-2-2-2s-2 0.901-2 2c1e-3 0.821 0.564 1.455 1.299 1.758l1.781 10.242h11.84l1.781-10.24c0.736-0.303 1.3-0.938 1.299-1.76 0-1.099-0.901-2-2-2s-2 0.901-2 2c0 0.592 0.316 1.096 0.756 1.47-0.154 0.83-0.382 1.841-0.762 2.645-0.206 0.436-0.448 0.801-0.701 1.037-0.254 0.237-0.495 0.348-0.793 0.348-0.284 0-0.524-0.128-0.791-0.43-0.267-0.301-0.523-0.77-0.734-1.316-0.397-1.022-0.625-2.278-0.77-3.254 0.462-0.374 0.795-0.89 0.795-1.5 0-1.099-0.901-2-2-2zm0 1c0.558 0 1 0.442 1 1 0 0.384-0.218 0.73-0.563 0.898l-0.326 0.159-0.222-2e-3 -0.326-0.159c-0.34326-0.16677-0.56168-0.51437-0.563-0.896v-2e-3c-0.00337-0.55335 0.44666-1.0025 1-0.998zm-7 1c0.558 0 1 0.442 1 1 6.06e-4 0.37382-0.20836 0.71643-0.541 0.887l-0.293 0.152-0.328-0.055c-0.48378-0.07645-0.83956-0.49422-0.838-0.984 0-0.558 0.442-1 1-1zm14 0c0.558 0 1 0.442 1 1 0 0.493-0.35 0.907-0.838 0.986l-0.326 0.055-0.295-0.154c-0.33264-0.17057-0.54161-0.51318-0.541-0.887 0-0.558 0.442-1 1-1z"
   class="ColorScheme-Text" />
fill=&quot;currentColor&quot;/&gt;
 </g>
  <g
     id="fcitx-libkkc">
    <path
       id="path80"
       fill="currentColor"
       d="m28 69c-1.662 0-3 1.338-3 3v10c0 1.662 1.338 3 3 3h10c1.662 0 3-1.338 3-3v-10c0-1.662-1.338-3-3-3h-10zm-1 4h1v4.293l2.293-2.293h0.70703v-2h1v4.293l2.293-2.293h1.4141l-3 3 3 3h-1.4141l-2.293-2.293v2.293h-1.707l-2.293-2.293v2.293h-1v-8zm10 2c0.58298 0 1.1095 0.15448 1.4785 0.52148 0.367 0.369 0.52148 0.89552 0.52148 1.4785h-1c0-0.417-0.095516-0.63948-0.22852-0.77148-0.131-0.133-0.35448-0.22852-0.77148-0.22852s-0.63948 0.095516-0.77148 0.22852c-0.133 0.131-0.22852 0.35448-0.22852 0.77148v2c0 0.417 0.095516 0.64048 0.22852 0.77148 0.131 0.133 0.35448 0.22852 0.77148 0.22852s0.63948-0.095516 0.77148-0.22852c0.133-0.131 0.22852-0.35448 0.22852-0.77148h1c0 0.58298-0.15448 1.1105-0.52148 1.4785-0.369 0.367-0.89554 0.52148-1.4785 0.52148s-1.1105-0.15448-1.4785-0.52148c-0.367-0.369-0.52148-0.89552-0.52148-1.4785v-2c0-0.58298 0.15448-1.1105 0.52148-1.4785 0.369-0.367 0.89552-0.52148 1.4785-0.52148zm-6 0.70703-2.293 2.293 2.293 2.293v-4.5859z"
       class="ColorScheme-Text" />
    <path
       id="path82"
       fill="none"
       d="m22 66h22v22h-22z" />
  </g>
  <g
     id="fcitx-libskk">
    <path
       id="path85"
       fill="currentColor"
       d="m50 69c-1.662 0-3 1.338-3 3v10c0 1.662 1.338 3 3 3h10c1.662 0 3-1.338 3-3v-10c0-1.662-1.338-3-3-3h-10zm3 4h1v4.293l2.293-2.293h0.70703v-2h1v4.293l2.293-2.293h1.4141l-3 3 3 3h-1.4141l-2.293-2.293v2.293h-1.707l-2.293-2.293v2.293h-1v-2c0 0.58298-0.15448 1.1105-0.52148 1.4785-0.369 0.367-0.89554 0.52148-1.4785 0.52148s-1.1105-0.15448-1.4785-0.52148c-0.367-0.369-0.52148-0.89552-0.52148-1.4785h1c0 0.417 0.095516 0.64048 0.22852 0.77148 0.131 0.133 0.35448 0.22852 0.77148 0.22852s0.63948-0.095516 0.77148-0.22852c0.133-0.131 0.22852-0.35448 0.22852-0.77148s-0.095516-0.63948-0.22852-0.77148c-0.131-0.133-0.35448-0.22852-0.77148-0.22852-0.58298 0-1.1105-0.15448-1.4785-0.52148-0.367-0.369-0.52148-0.89554-0.52148-1.4785s0.15448-1.1105 0.52148-1.4785c0.369-0.367 0.89554-0.52148 1.4785-0.52148s1.1095 0.15448 1.4785 0.52148c0.367 0.369 0.52148 0.89552 0.52148 1.4785v-3zm0 3h-1c0-0.417-0.095516-0.63948-0.22852-0.77148-0.131-0.133-0.35448-0.22852-0.77148-0.22852s-0.63948 0.095516-0.77148 0.22852c-0.133 0.131-0.22852 0.35448-0.22852 0.77148s0.095516 0.64048 0.22852 0.77148c0.131 0.133 0.35448 0.22852 0.77148 0.22852 0.58298 0 1.1095 0.15448 1.4785 0.52148 0.367 0.369 0.52148 0.89552 0.52148 1.4785v-3zm4-0.29297-2.293 2.293 2.293 2.293v-4.5859z"
       class="ColorScheme-Text" />
    <path
       id="path87"
       fill="none"
       d="m44.021 66.021h22v22h-22z" />
  </g>
  <g
     id="fcitx-hangul">
    <path
       id="path90"
       fill="currentColor"
       d="m6 91c-1.662 0-3 1.338-3 3v10c0 1.662 1.338 3 3 3h10c1.662 0 3-1.338 3-3v-10c0-1.662-1.338-3-3-3h-10zm2 2h2v1h-2v-1zm6 1h1v3h2v1h-2v4h-1v-8zm-8 1h6v1h-6v-1zm3 2c1.597 0 3 1.058 3 2.5s-1.403 2.5-3 2.5-3-1.058-3-2.5 1.403-2.5 3-2.5zm0 1c-1.165 0-2 0.733-2 1.5s0.835 1.5 2 1.5 2-0.733 2-1.5-0.835-1.5-2-1.5zm-1 5h1v1h7v1h-8v-2z"
       class="ColorScheme-Text" />
    <path
       id="path92"
       fill="none"
       d="m0 88h22v22h-22z" />
  </g>
  <circle
     id="circle95"
     fill="currentColor"
     r="0"
     cy="99"
     cx="143"
     class="ColorScheme-Text" />
  <g
     transform="translate(154 -82)"
     id="fcitx-fullwidth-inactive">
    <path
       id="path97"
       fill="none"
       d="M0 170h22v22H0z" />
    <path
       id="path99"
       fill="currentColor"
       d="M167.566 91.432A8 8 0 0 1 168 94a8 8 0 0 1-8 8 8 8 0 0 1-2.566-.432A8 8 0 0 0 165 107a8 8 0 0 0 8-8 8 8 0 0 0-5.434-7.568z"
       transform="translate(-154 82)"
       class="ColorScheme-Text" />
  </g>
  <g
     transform="translate(154 -60)"
     id="fcitx-punc-inactive">
    <path
       id="path102"
       fill="none"
       d="M0 170h22v22H0z" />
    <circle
       id="circle104"
       fill="currentColor"
       r="1.5"
       cy="180.5"
       cx="7.5"
       class="ColorScheme-Text" />
    <path
       id="path106"
       fill="currentColor"
       d="M14.5 179a1.5 1.5 0 0 0-1.5 1.5 1.5 1.5 0 0 0 1.5 1.5 1.5 1.5 0 0 0 .047-.002c-.533.94-1.348 1.602-1.348 1.602l.602.8s1.967-1.426 2.162-3.572A1.5 1.5 0 0 0 16 180.5a1.5 1.5 0 0 0-1.5-1.5z"
       class="ColorScheme-Text" />
  </g>
  <g
     transform="translate(132 -60)"
     id="fcitx-punc-active">
    <path
       id="path109"
       fill="currentColor"
       d="M7.5 178a2.508 2.508 0 0 0-2.5 2.5c0 1.375 1.125 2.5 2.5 2.5s2.5-1.125 2.5-2.5-1.125-2.5-2.5-2.5zm0 1c.834 0 1.5.666 1.5 1.5s-.666 1.5-1.5 1.5-1.5-.666-1.5-1.5.666-1.5 1.5-1.5z"
       class="ColorScheme-Text" />
    <path
       id="path111"
       fill="none"
       d="M0 170h22v22H0z" />
    <path
       id="path113"
       fill="currentColor"
       d="M212.5 96a2.508 2.508 0 0 0-2.5 2.5c0 1.375 1.125 2.5 2.5 2.5.365 0 .71-.084 1.023-.227a3.874 3.874 0 0 1-1.306 1.502c-.895.616-1.78.729-1.78.729l.125.992s1.116-.137 2.221-.896c1.105-.76 2.217-2.202 2.217-4.6 0-1.375-1.125-2.5-2.5-2.5zm0 1c.834 0 1.5.666 1.5 1.5s-.666 1.5-1.5 1.5-1.5-.666-1.5-1.5.666-1.5 1.5-1.5z"
       transform="translate(-198 82)"
       class="ColorScheme-Text" />
  </g>
  <g
     transform="translate(132 -38)"
     id="fcitx-chttrans-inactive">
    <path
       id="path116"
       fill="none"
       d="M0 170h22v22H0z" />
    <path
       id="path118"
       fill="currentColor"
       d="M138.81 113.406c-.507 1.367-1.347 2.598-2.519 3.692l.996.761c.195-.039.742-.722 1.64-2.05h.762c.43.625.801 1.27 1.114 1.933l1.172-.644-.938-1.29h2.05v-1.113h-3.632l.469-.937-1.113-.352zm6.036 0c-.47 1.328-1.27 2.54-2.403 3.633l.996.762c.665-.625 1.172-1.29 1.524-1.992h.996c.43.586.8 1.21 1.113 1.875l1.055-.645c-.273-.43-.566-.84-.879-1.23h2.461v-1.114h-4.16c.156-.312.293-.625.41-.937l-1.113-.352zm-5.45 4.102l-.996.586c.547.547.957 1.094 1.23 1.64l1.114-.586a7.528 7.528 0 0 0-1.348-1.64zm1.993.527v.996h6.386v6.035c0 .547-.136.82-.41.82-.39 0-.898-.019-1.523-.058l.293 1.113c.547.04 1.015.059 1.406.059.469 0 .82-.137 1.055-.41.234-.274.351-.664.351-1.172v-7.383h-7.558zm-3.985 1.582V127h1.172v-7.383h-1.172zm2.871.645v5.039h5.391v-5.04h-5.39zm1.114.996h3.164v.996h-3.164v-.996zm0 1.933h3.164v1.114h-3.164v-1.114zM135 128v1h16v-1h-16z"
       transform="translate(-132 60)"
       class="ColorScheme-Text" />
  </g>
  <g
     transform="translate(154 -38)"
     id="fcitx-chttrans-active">
    <path
       id="path121"
       fill="none"
       d="M0 170h22v22H0z" />
    <path
       id="path123"
       fill="currentColor"
       d="M160.02 113.465c-.313.703-.899 1.387-1.758 2.05l.82.645c.39-.273.762-.644 1.113-1.113h5.45v-.879h-4.864c.04-.117.098-.254.176-.41l-.937-.293zm7.148 0a9.114 9.114 0 0 1-1.875 3.34l.703.761.586-.703a6.784 6.784 0 0 0 1.23 1.524c-.625.508-1.367.957-2.226 1.347l.82.88a14.66 14.66 0 0 0 2.227-1.466 14.006 14.006 0 0 0 2.344 1.465l.761-.937c-.937-.39-1.738-.82-2.402-1.29a6.443 6.443 0 0 0 1.406-2.519h.82v-.996h-3.867l.47-1.113-.997-.293zm-7.266 2.285l-.351 1.7h-1.172v.937h.996l-.352 1.758h4.395v.351h.996l.059-.351H165v-.88h-.469l.117-.878h.938v-.938h-.82l.234-1.699h-5.098zm7.325.117h2.402c-.195.664-.547 1.29-1.055 1.875a10.674 10.674 0 0 1-1.406-1.758c.04-.039.059-.078.059-.117zm-6.446.703h.762c.195.235.39.528.586.88h-1.524l.176-.88zm1.7 0h1.464l-.117.88h-.762l-.586-.88zm-1.993 1.817h.762c.195.234.41.527.645.879h-1.583l.176-.88zm1.758 0h1.465l-.176.879h-.762a6.542 6.542 0 0 0-.527-.88zm5.684 1.933c-1.25.742-2.11 1.153-2.578 1.23-.704.118-1.954.196-3.75.235a8.109 8.109 0 0 0 1.875-.879l-.762-.527c-.781.547-1.758.976-2.93 1.289l.117.82c1.172 0 2.364-.039 3.575-.117-1.25.469-2.774.879-4.57 1.23l.175.938c1.758 0 3.535-.059 5.332-.176v1.23c0 .313-.117.47-.351.47-.43 0-.86-.06-1.29-.176l.176 1.054c.352.079.723.118 1.114.118.625 0 1.035-.098 1.23-.293.195-.196.293-.528.293-.996v-1.524a69.146 69.146 0 0 0 3.984-.469c.313.313.586.645.82.996l1.114-.527a14.92 14.92 0 0 0-2.813-2.578l-1.054.469c.43.273.82.586 1.172.937-1.563.313-3.965.528-7.207.645 2.617-.586 5.039-1.504 7.265-2.754l-.937-.645zm-.88 4.278l-.468.937c1.29.313 2.578.742 3.867 1.29l.469-.997c-1.211-.469-2.5-.879-3.867-1.23zm-4.687.117c-1.133.469-2.383.84-3.75 1.113l.703.996c1.485-.39 2.754-.898 3.809-1.523l-.762-.586zM157 128v1h16v-1h-16z"
       transform="translate(-154 60)"
       class="ColorScheme-Text" />
  </g>
  <g
     id="fcitx-remind-active"><path
   id="path126"
   fill="currentColor"
   d="m209 91c-1.1196 0-2.1645 0.31337-3.0625 0.84961a3.5 3.5 0 0 1 0.0625 0.65039 3.5 3.5 0 0 1-2.9004 3.4492c-0.0608 0.34195-0.09961 0.69165-0.09961 1.0508-4.2e-4 0.01902 2e-4 0.037691 0.00195 0.056641 0.014 2.321 0.85914 3.5095 1.6191 4.3945 0.764 0.893 1.3789 1.4418 1.3789 3.0488v2.5h2v1h2v-1h2v-2.5c0-1.607 0.63462-2.304 1.3906-3.25 0.75-0.936 1.5885-2.1035 1.6055-4.1875 3e-3 -0.02056 0.00391-0.04177 0.00391-0.0625 0-3.308-2.692-6-6-6zm-1.8535 6.1465h0.70704l1.1465 1.1465 1.1465-1.1465h0.70704l1.5 1.5-0.70704 0.70703-1.1465-1.1465-1.1465 1.1465h-0.70704l-1.1465-1.1465-1.1465 1.1465-0.70704-0.70703 1.5-1.5z"
   class="ColorScheme-Text" />
fill=&quot;currentColor&quot;/&gt;
  <path
   id="path128"
   fill="none"
   d="m198 88h22v22h-22z" />
<circle
   id="circle130"
   fill="#42d15b"
   ry="2.5"
   rx="2.5"
   cy="92.5"
   cx="202.5" />
</g>
  <g
     id="fcitx-handwriting-active"><path
   id="path133"
   fill="currentColor"
   d="m213.14 112.57-3.272 12.207 1.07 3.739 2.795-2.703 3.27-12.207-0.482-0.131zm0.707 1.223 1.931 0.518-0.26 0.968-1.931-0.52zm-11.522 5.66c-0.21558 7e-3 -0.4306 0.0257-0.644 0.057-0.66133 0.0907-0.52533 1.0827 0.136 0.992 0.42-0.058 0.71-0.056 0.872-0.03 0.16 0.027 0.164 0.058 0.152 0.042-0.012-0.017 6e-3 -0.01-6e-3 0.092-0.0266 0.15379-0.0685 0.30454-0.125 0.45-0.134 0.374-0.351 0.824-0.41 1.327-0.03 0.251-0.015 0.54 0.133 0.806 0.147 0.268 0.42 0.468 0.738 0.575 0.153 0.05 0.213 0.04 0.309 0.045 0.095 4e-3 0.2 5e-3 0.316 5e-3 0.231 0 0.504-3e-3 0.758 4e-3 0.032 1e-3 0.047 6e-3 0.078 8e-3 -0.09 0.056-0.146 0.098-0.252 0.158-0.533 0.301-1.218 0.645-1.781 1.022-0.282 0.188-0.536 0.383-0.737 0.621-0.2 0.238-0.37 0.576-0.287 0.95 0.083 0.372 0.37 0.631 0.73 0.825 0.361 0.195 0.834 0.352 1.481 0.498 1.051 0.238 2.36 0.169 3.543 0.221s2.169 0.26 2.553 0.703c0.43478 0.53533 1.224-0.15134 0.754-0.656-0.756-0.871-2.016-0.992-3.262-1.047s-2.55-0.01-3.367-0.195c-0.596-0.135-1-0.28-1.227-0.403-0.227-0.122-0.235-0.195-0.228-0.162s-0.019 0.023 0.076-0.09c0.15702-0.16564 0.33405-0.3111 0.527-0.433 0.482-0.322 1.152-0.663 1.717-0.982 0.26187-0.14135 0.51319-0.30144 0.752-0.479 0.214-0.166 0.466-0.33 0.477-0.752 6e-3 -0.246-0.165-0.47-0.305-0.564-0.12064-0.0787-0.2555-0.13305-0.397-0.16-0.26932-0.0542-0.54328-0.082-0.818-0.083-0.282-8e-3 -0.562-4e-3 -0.783-4e-3 -0.11 0-0.206 0-0.272-3e-3 -0.0215-1e-3 -0.0429-4e-3 -0.064-8e-3 0.012 4e-3 0.013 7e-3 0.027 0.011-0.05-0.016-0.047-0.015-0.027-0.011-0.114-0.043-0.142-0.077-0.154-0.098-0.013-0.023-0.03-0.08-0.016-0.205 0.03-0.25 0.206-0.675 0.36-1.105 0.076-0.216 0.148-0.436 0.175-0.678 0.028-0.242 6e-3 -0.535-0.176-0.787-0.181-0.252-0.478-0.39-0.798-0.444-0.17458-0.0275-0.35136-0.0385-0.528-0.033z"
   class="ColorScheme-Text" />
fill=&quot;currentColor&quot;/&gt;
  <path
   id="path135"
   fill="none"
   d="m198 110h22v22h-22z" />
<path
   id="path137"
   fill="none"
   d="m198 110h22v22h-22z" />
<circle
   id="circle139"
   fill="#42d15b"
   ry="2.5"
   rx="2.5"
   cy="114.5"
   cx="202.5" />
</g>
  <g
     transform="translate(22)"
     id="fcitx-handwriting-inactive"><path
   id="path142"
   fill="currentColor"
   d="m235.14 112.57-3.272 12.207 1.07 3.739 2.795-2.703 3.27-12.207-0.482-0.131zm0.707 1.223 1.931 0.518-0.26 0.968-1.931-0.52zm-11.522 5.66c-0.21558 7e-3 -0.4306 0.0257-0.644 0.057-0.66267 0.0767-0.54767 1.0707 0.115 0.994 7e-3 -5.2e-4 0.014-1e-3 0.021-2e-3 0.42-0.058 0.71-0.056 0.872-0.03 0.16 0.027 0.164 0.058 0.152 0.042-0.012-0.017 6e-3 -0.01-6e-3 0.092-0.0266 0.15379-0.0685 0.30454-0.125 0.45-0.134 0.374-0.351 0.824-0.41 1.327-0.03 0.251-0.015 0.54 0.133 0.806 0.147 0.268 0.42 0.468 0.738 0.575 0.153 0.05 0.213 0.04 0.309 0.045 0.095 4e-3 0.2 5e-3 0.316 5e-3 0.231 0 0.504-3e-3 0.758 4e-3 0.032 1e-3 0.047 6e-3 0.078 8e-3 -0.09 0.056-0.146 0.098-0.252 0.158-0.533 0.301-1.218 0.645-1.781 1.022-0.282 0.188-0.536 0.383-0.737 0.621-0.2 0.238-0.37 0.576-0.287 0.95 0.083 0.372 0.37 0.631 0.73 0.825 0.361 0.195 0.834 0.352 1.481 0.498 1.051 0.238 2.36 0.169 3.543 0.221s2.169 0.26 2.553 0.703c0.43478 0.53533 1.224-0.15134 0.754-0.656-0.756-0.871-2.016-0.992-3.262-1.047s-2.55-0.01-3.367-0.195c-0.596-0.135-1-0.28-1.227-0.403-0.227-0.122-0.235-0.195-0.228-0.162s-0.019 0.023 0.076-0.09c0.15702-0.16564 0.33405-0.3111 0.527-0.433 0.482-0.322 1.152-0.663 1.717-0.982 0.26187-0.14135 0.51319-0.30144 0.752-0.479 0.214-0.166 0.466-0.33 0.477-0.752 6e-3 -0.246-0.165-0.47-0.305-0.564-0.12064-0.0787-0.2555-0.13305-0.397-0.16-0.26932-0.0542-0.54328-0.082-0.818-0.083-0.282-8e-3 -0.562-4e-3 -0.783-4e-3 -0.11 0-0.206 0-0.272-3e-3 -0.0215-1e-3 -0.0429-4e-3 -0.064-8e-3 0.012 4e-3 0.013 7e-3 0.027 0.011-0.05-0.016-0.047-0.015-0.027-0.011-0.114-0.043-0.142-0.077-0.154-0.098-0.013-0.023-0.03-0.08-0.016-0.205 0.03-0.25 0.206-0.675 0.36-1.105 0.076-0.216 0.148-0.436 0.175-0.678 0.028-0.242 6e-3 -0.535-0.176-0.787-0.181-0.252-0.478-0.39-0.798-0.444-0.17458-0.0275-0.35136-0.0385-0.528-0.033z"
   transform="translate(-22)"
   class="ColorScheme-Text" />
fill=&quot;currentColor&quot;/&gt;
  <path
   id="path144"
   fill="none"
   d="m198 110h22v22h-22z" />
<path
   id="path146"
   fill="none"
   d="m198 110h22v22h-22z" />
</g>
  <g
     transform="translate(132 79.838)"
     id="fcitx">
    <path
       id="path149"
       fill="none"
       d="m0-22h22v22h-22z" />
    <path
       id="path151"
       fill="currentColor"
       d="m9.57-19c-0.937-0.017-1.837 0.536-2.184 1.438-0.414 1.077-0.296 2.244-0.279 3.368 6e-3 0.364-0.092 0.696-0.24 1.009a3.431 3.431 0 0 1-0.21 0.223c-0.736 0.813-2.565 2.95-1.983 5.14-0.146 0.064-0.317 0.072-0.503 0.093-0.219 0.026-0.463 0.082-0.657 0.312-0.173 0.2-0.199 0.474-0.219 0.732-0.02 0.259-0.035 0.506-0.125 0.659-0.263 0.408-0.352 0.709-0.293 0.955 0.06 0.246 0.266 0.4 0.515 0.519 0.497 0.238 1.217 0.381 1.71 0.824h1e-3c0.525 0.465 1.106 0.724 1.614 0.728 0.423 3e-3 0.796-0.187 1.01-0.571 0.19 0.034 0.387 0.03 0.587-0.027a4.355 4.355 0 0 1 2.08-0.06c0.413 0.086 0.826 0.054 1.218-0.065 0.167 0.316 0.45 0.53 0.793 0.623 0.496 0.133 1.11 0.025 1.697-0.333h1e-3c0.57-0.354 1.3-0.323 1.827-0.437 0.264-0.057 0.495-0.161 0.59-0.396s0.05-0.556-0.148-1.038c-0.067-0.167-0.04-0.416-0.011-0.678 0.028-0.262 0.055-0.543-0.08-0.777-0.148-0.268-0.379-0.372-0.59-0.442-0.212-0.07-0.406-0.115-0.548-0.253-0.156-0.16-0.309-0.375-0.503-0.546l-5e-3 -5e-3c-8e-3 -0.3-0.057-0.609-0.137-0.917 0.426-0.566 0.858-1.2 1.179-1.818h3e-3l0.24-0.034-0.063-0.3 0.038-0.03 0.786-1.478c0.43 0.022 0.9-0.187 1.176-0.686a25.336 25.336 0 0 1 1.283-2.058c-1.886 0.269-3.349 0.242-3.43 1.686-8e-3 0.164 0.017 0.31 0.066 0.44l-1.087 1.274-0.01 0.042-0.334 0.053 0.1 0.236c-0.24 0.282-0.472 0.595-0.69 0.918-0.055-0.097-0.11-0.193-0.167-0.286-0.318-0.648-0.731-1.248-1.137-1.842-0.487-0.716-0.575-1.59-0.583-2.462-0.016-1.813-0.21-3.693-2.298-3.733zm0.895 2.267c0.165-0.01 0.334 0.074 0.461 0.251 0.127 0.178 0.21 0.514 0.21 0.706 2e-3 0.261-0.092 0.523-0.198 0.714a0.692 0.692 0 0 1-0.096 0.13l-0.262-0.152-0.06-0.035a0.326 0.594 8.727 0 0 0.227-0.475 0.326 0.594 8.727 0 0-0.262-0.63 0.326 0.594 8.727 0 0-0.386 0.547 0.326 0.594 8.727 0 0 2e-3 0.293 0.98 0.98 0 0 0-0.179-0.058l-0.057-0.01a1.439 1.439 0 0 1-0.04-0.25c-0.014-0.26 0.039-0.427 0.145-0.618s0.33-0.403 0.495-0.413zm-2.14 0.161a0.93 0.707 82.237 0 1 0.03 1e-3 0.93 0.707 82.237 0 1 0.72 0.806 0.93 0.707 82.237 0 1-0.053 0.57 2.028 2.028 0 0 0-0.117 0.092 1.173 1.173 0 0 1-0.26 0.16 0.553 0.348 80.266 0 0 0.16-0.593 0.553 0.348 80.266 0 0-0.384-0.473 0.553 0.348 80.266 0 0-0.295 0.623 0.553 0.348 80.266 0 0 0.477 0.464c-0.07 0.036-0.15 0.077-0.254 0.14-0.024 0.013-0.045 0.028-0.066 0.043a0.93 0.707 82.237 0 1-0.601-0.786 0.93 0.707 82.237 0 1 0.644-1.047zm1.384 1.208a0.811 0.811 0 0 1 0.192 0.018c0.24 0.052 0.413 0.202 0.52 0.283 0.02 0.015 0.046 0.028 0.11 0.065l0.3 0.173a0.292 0.292 0 0 1 0.152 0.322c-0.023 0.139-0.13 0.308-0.342 0.468h-1e-3c-0.13 0.104-0.213 0.23-0.313 0.336a0.712 0.712 0 0 1-0.418 0.23 0.976 0.976 0 0 1-0.594-0.078c-0.168-0.072-0.314-0.167-0.472-0.198-0.325-0.06-0.572-0.233-0.666-0.417a0.353 0.353 0 0 1-0.04-0.214c0.06 0.01 0.138 0.042 0.23 0.088 0.11 0.056 0.24 0.132 0.383 0.206 0.284 0.15 0.618 0.297 0.96 0.28 0.34-0.017 0.603-0.192 0.791-0.36 0.094-0.085 0.17-0.168 0.228-0.229 0.029-0.03 0.054-0.056 0.072-0.072 0.02-0.016 0.034-0.02 0.028-0.02l-4e-3 -0.074c-0.031 1e-3 -0.05 0.018-0.072 0.038-0.023 0.02-0.048 0.046-0.078 0.077-0.058 0.062-0.132 0.143-0.223 0.224-0.181 0.163-0.428 0.326-0.746 0.342s-0.641-0.124-0.922-0.271c-0.14-0.074-0.27-0.149-0.384-0.206a0.94 0.94 0 0 0-0.243-0.094 0.52 0.52 0 0 1 0.241-0.25h2e-3c0.286-0.172 0.416-0.198 0.57-0.33 0.289-0.247 0.534-0.332 0.74-0.337zm1.262 1.133c0.036 0.087 0.067 0.18 0.088 0.285 0.188 0.98 0.396 1.585 1.344 3.2 0.098 0.247 0.172 0.423 0.256 0.628a3.772 3.772 0 0 0-0.392-1.185c-0.58-1.225-2e-3 -0.47 0.258 0.077 0.19 0.355 0.414 0.966 0.548 1.65a23.216 23.216 0 0 0-0.963 1.876 0.743 0.743 0 0 0-0.127 0.405c2e-3 0.087 0.031 0.17 0.077 0.242-0.516 0.38-0.54 1.126 2e-3 1.396-0.055 0.078-0.107 0.153-0.16 0.233a5.01 5.01 0 0 0-0.216 0.355c-1.139 0.809-2.958 0.912-4.309-0.557-0.127-0.276-0.243-0.539-0.286-0.741v-1e-3c-0.098-0.482-0.2-0.926-0.35-1.285a2.491 2.491 0 0 0-0.08-0.17c0.106-0.25 0.158-0.511 0.139-0.67-0.072-0.423-0.384-0.509-1.086-0.348-0.596 0.144-0.957 0.428-0.808 0.858-0.027 0.023-0.054 0.043-0.08 0.064-0.198-0.504 0.21-0.837 0.896-1.006-0.1-0.931 0.444-1.876 0.962-2.491 0.015 0.02-0.022 0.13-0.155 0.402-0.294 0.504-0.582 1.325-0.45 2.022 0.098-0.013 0.191-0.023 0.272-0.023 0.047-0.506 0.172-0.983 0.386-1.367 0.409-0.87 1.462-2.337 1.492-3.554 0.141 0.136 0.349 0.242 0.596 0.288 0.13 0.026 0.275 0.116 0.452 0.192 0.177 0.075 0.389 0.134 0.65 0.085a0.827 0.827 0 0 0 0.472-0.26c0.108-0.114 0.188-0.235 0.302-0.325 0.118-0.09 0.207-0.182 0.27-0.275zm5.077 1.411a0.994 0.994 0 0 0 0.182 0.12l-0.69 1.299-0.163 0.128c-0.054-0.028-0.109-0.052-0.164-0.094-0.073-0.055-0.093-0.104-0.15-0.167l0.043-0.182zm-1.33 1.62a2.1 2.1 0 0 0 0.486 0.366c-0.882 1.622-2.581 3.44-2.596 3.456-0.104 0.09-0.17 0.073-0.172 0.075v-2e-3c0-0.021 0.01-0.082 0.067-0.171l0.01-0.015 7e-3 -0.016s1.037-2.277 2.198-3.693zm-0.422 2.54m-9.307 0.857c0.238 0.421 0.753 0.772 1.163 0.595 0.158-0.067 0.294-0.217 0.4-0.396l0.012 0.025c0.14 0.336 0.242 0.77 0.339 1.25 0.08 0.371 0.326 0.822 0.521 1.269 0.195 0.446 0.329 0.88 0.231 1.172v2e-3c-0.153 0.491-0.493 0.698-0.936 0.695-0.444-3e-3 -0.99-0.239-1.49-0.68-0.545-0.489-1.298-0.635-1.755-0.853-0.228-0.11-0.37-0.226-0.41-0.392-0.041-0.167 0.017-0.42 0.268-0.81l1e-3 -2e-3v-1e-3c0.128-0.216 0.133-0.488 0.153-0.741 0.02-0.254 0.052-0.484 0.173-0.623 0.155-0.185 0.328-0.222 0.534-0.246 0.207-0.024 0.443-0.025 0.66-0.162l2e-3 -1e-3c0.047-0.032 0.09-0.066 0.134-0.101zm9.642 0.06c0.125 0.134 0.245 0.29 0.376 0.424h1e-3l1e-3 2e-3c0.188 0.182 0.422 0.232 0.621 0.297 0.2 0.066 0.366 0.138 0.485 0.354v1e-3h1e-3c0.095 0.165 0.083 0.404 0.055 0.662-0.028 0.259-0.072 0.532 0.024 0.77 0.19 0.464 0.21 0.74 0.148 0.895-0.063 0.155-0.213 0.23-0.453 0.282-0.481 0.103-1.254 0.066-1.888 0.46-0.551 0.336-1.116 0.427-1.548 0.311-0.431-0.116-0.736-0.427-0.8-0.944v-2e-3c-0.047-0.312 0.15-0.699 0.406-1.087 0.06-0.092 0.124-0.18 0.187-0.271 0.264 0.065 0.62 0.04 1.071-0.131 0.896-0.513 1.264-1.234 1.313-2.023zm-1.187 0.116m-0.318 0.357-0.198 0.215z"
       class="ColorScheme-Text" />
  </g>
  <g
     id="fcitx-kbd">
    <path
       id="path154"
       style="paint-order:stroke markers fill"
       fill="currentColor"
       d="m163 62c-1.108 0-2 0.892-2 2v10c0 1.108 0.892 2 2 2h12c1.108 0 2-0.892 2-2v-10c0-1.108-0.892-2-2-2zm3 2c1.1045 0 2 0.8955 2 2v1h2v-1c0-1.1045 0.89537-2 2-2 1.1045 0 2 0.8955 2 2s-0.8955 2-2 2h-1v2h1c1.1045 2.5e-4 2 0.8955 2 2s-0.8955 2-2 2-2-0.8955-2-2v-1h-2v1c0 1.1045-0.89537 2-2 2-1.1045 0-2-0.8955-2-2s0.8955-2 2-2h1v-2h-1c-1.1045 0-2-0.8955-2-2s0.8955-2 2-2zm0 1c-0.55225 0-1 0.44775-1 1 0 0.55213 0.44775 1 1 1h1v-1c0-0.55225-0.44775-1-1-1zm6 0c-0.55225 0-1 0.44775-1 1v1h1c0.55225 0 1-0.44775 1-1s-0.44775-1-1-1zm-4 3v2h2v-2zm-2 3c-0.55225 0-1 0.44775-1 1s0.44775 1 1 1 1-0.44775 1-1v-1zm5 0v1c0 0.55225 0.44775 1 1 1s1-0.44775 1-1-0.44775-1-1-1z"
       class="ColorScheme-Text" />
    <path
       id="path156"
       fill="none"
       d="m158 58h22v22h-22z" />
  </g>
  <g
     transform="translate(22)"
     id="fcitx-remind-inactive"><path
   id="path159"
   fill="currentColor"
   d="m209 91c-3.308 0-6 2.692-6 6-4.2e-4 0.01902 2e-4 0.03769 2e-3 0.05664 0.014 2.321 0.85914 3.5095 1.6191 4.3945 0.764 0.893 1.3789 1.4418 1.3789 3.0488v2.5h2v1h2v-1h2v-2.5c0-1.607 0.63462-2.304 1.3906-3.25 0.75-0.936 1.5885-2.1035 1.6055-4.1875 0.00295-0.020559 0.00386-0.041769 0.00386-0.062499 0-3.308-2.692-6-6-6zm-1.8535 6.1465h0.70704l1.1465 1.1465 1.1465-1.1465h0.70704l1.5 1.5-0.70704 0.70703-1.1465-1.1465-1.1465 1.1465h-0.70704l-1.1465-1.1465-1.1465 1.1465-0.70704-0.70703z"
   class="ColorScheme-Text" />
fill=&quot;currentColor&quot;/&gt;
  <path
   id="path161"
   fill="none"
   d="m198 88h22v22h-22z" />
</g>
  <g
     id="fcitx-vk-active">
    <path
       id="path164"
       fill="none"
       d="m185 58h22v22h-22z" />
    <path
       id="path166"
       style="paint-order:stroke markers fill"
       fill="currentColor"
       d="m190 62c-1.108 0-2 0.892-2 2v10c0 1.108 0.892 2 2 2h10.35a3.4968 3.4968 0 0 1-0.34375-1.5039 3.4968 3.4968 0 0 1 0.10352-0.83203c-0.31735 0.2118-0.69925 0.33594-1.1094 0.33594-1.1045 0-2-0.8955-2-2v-1h-2v1c0 1.1045-0.89537 2-2 2-1.1045 0-2-0.8955-2-2s0.8955-2 2-2h1v-2h-1c-1.1045 0-2-0.8955-2-2s0.8955-2 2-2 2 0.8955 2 2v1h2v-1c0-1.1045 0.89537-2 2-2 1.1045 0 2 0.8955 2 2s-0.8955 2-2 2h-1v2h1c1.1045 2.5e-4 2 0.8955 2 2 0 0.020766-0.00523 0.039934-0.00586 0.060547a3.4968 3.4968 0 0 1 2.5098-1.0605 3.4968 3.4968 0 0 1 0.49609 0.039062v-7.0391c0-1.108-0.892-2-2-2h-12zm3 3c-0.55225 0-1 0.44775-1 1 0 0.55213 0.44775 1 1 1h1v-1c0-0.55225-0.44775-1-1-1zm6 0c-0.55225 0-1 0.44775-1 1v1h1c0.55225 0 1-0.44775 1-1s-0.44775-1-1-1zm-4 3v2h2v-2h-2zm-2 3c-0.55225 0-1 0.44775-1 1s0.44775 1 1 1 1-0.44775 1-1v-1h-1zm5 0v1c0 0.55225 0.44775 1 1 1s1-0.44775 1-1-0.44775-1-1-1h-1z"
       class="ColorScheme-Text" />
    <path
       id="path168"
       fill="#42d15b"
       d="m203.5 72a2.5 2.5 0 0 0-2.5 2.5 2.5 2.5 0 0 0 2.5 2.5 2.5 2.5 0 0 0 2.5-2.5 2.5 2.5 0 0 0-2.5-2.5z"
       class="ColorScheme-PositiveText" />
  </g>
  <g
     transform="translate(59)"
     id="fcitx-vk-inactive">
    <path
       id="path171"
       style="paint-order:stroke markers fill"
       opacity=".35"
       fill="currentColor"
       d="m163 62c-1.108 0-2 0.892-2 2v10c0 1.108 0.892 2 2 2h12c1.108 0 2-0.892 2-2v-10c0-1.108-0.892-2-2-2zm3 2c1.1045 0 2 0.8955 2 2v1h2v-1c0-1.1045 0.89537-2 2-2 1.1045 0 2 0.8955 2 2s-0.8955 2-2 2h-1v2h1c1.1045 2.5e-4 2 0.8955 2 2s-0.8955 2-2 2-2-0.8955-2-2v-1h-2v1c0 1.1045-0.89537 2-2 2-1.1045 0-2-0.8955-2-2s0.8955-2 2-2h1v-2h-1c-1.1045 0-2-0.8955-2-2s0.8955-2 2-2zm0 1c-0.55225 0-1 0.44775-1 1 0 0.55213 0.44775 1 1 1h1v-1c0-0.55225-0.44775-1-1-1zm6 0c-0.55225 0-1 0.44775-1 1v1h1c0.55225 0 1-0.44775 1-1s-0.44775-1-1-1zm-4 3v2h2v-2zm-2 3c-0.55225 0-1 0.44775-1 1s0.44775 1 1 1 1-0.44775 1-1v-1zm5 0v1c0 0.55225 0.44775 1 1 1s1-0.44775 1-1-0.44775-1-1-1z"
       class="ColorScheme-Text" />
    <path
       id="path173"
       fill="none"
       d="m158 58h22v22h-22z" />
  </g>
  <g
     transform="translate(0,22)"
     id="fcitx-pinyin-libpinyin">
    <path
       id="path176"
       fill="currentColor"
       d="m6 3c-1.662 0-3 1.338-3 3v10c0 1.662 1.338 3 3 3h10c1.662 0 3-1.338 3-3v-10c0-1.662-1.338-3-3-3zm4.9004 1.7012 1.5 2-0.39844 0.29883h1.9961l-0.39844-0.29883 1.5-2 0.80078 0.59961-1.2754 1.6992h2.375v1h-2v3h2v1h-2v5h-1v-5h-2.041c-0.096 1.119-0.47678 2.0286-0.92578 2.8066-0.621 1.075-1.6914 2.0586-1.6914 2.0586l-0.68359-0.72852s1.0128-0.97008 1.5098-1.8301c0.402-0.695 0.70497-1.4116 0.79297-2.3066h-1.9609v-0.94141l-1 0.5v5.4414h-3v-1h2v-3.9395l-1.7773 0.88672-0.44531-0.89453 2.2227-1.1113v-2.9414h-2v-1h2v-2h1v2h1v1h-1v2.4395l0.77734-0.38672 0.44531 0.89453-0.10547 0.052734h1.8828v-3h-1v-1h1.375l-1.2754-1.6992zm1.0996 3.2988v3h2v-3z"
       class="ColorScheme-Text" />
    <path
       id="path178"
       fill="none"
       d="m0 0h22v22h-22z" />
  </g>
  <g
     transform="translate(0 22.195)"
     id="fcitx-shuangpin-libpinyin">
    <path
       id="path181"
       fill="currentColor"
       d="m50 3c-1.662 0-3 1.338-3 3v10c0 1.662 1.338 3 3 3h10c1.662 0 3-1.338 3-3v-10c0-1.662-1.338-3-3-3zm-1 2h5.5488l-0.05078 0.54883s-0.32761 3.5209-1.2246 6.1289c0.6511 0.97991 1.2642 1.9846 1.8379 3.0117l-0.86914 0.49024c-0.53902-0.954-0.98488-1.689-1.4219-2.375-1.395 3.125-3.3652 4.4883-3.3652 4.4883l-0.55664-0.83203s1.9707-1.3133 3.2637-4.6562c-0.766-1.106-1.6347-2.2202-3.0527-3.9902l0.78125-0.62695c1.181 1.475 1.974 2.4921 2.668 3.4551 0.552-1.906 0.79814-3.9996 0.86914-4.6426h-4.4277zm6 0h6v0.5c0 2.147-0.83303 4.9682-1.707 6.9082-0.111 0.246-0.24219 0.46536-0.36719 0.69336 0.624 1.083 1.4598 2.1135 2.8438 3.2305l-0.62695 0.7793c-1.282-1.034-2.1467-2.0405-2.8027-3.0645-1.394 1.987-3.1035 3.0371-3.1035 3.0371l-0.51758-0.85547s1.7804-1.1006 3.0684-3.1426c-0.337-0.649-0.62072-1.3072-0.88672-1.9922-0.75795-1.957-1.2085-4.5018-1.3105-5.0938h-0.58984zm1.6074 1c0.14 0.765 0.56855 3.0334 1.2266 4.7324 0.16738 0.43214 0.34714 0.85943 0.53906 1.2812l0.0078-0.01563c0.75704-1.68 1.434-4.145 1.543-5.998z"
       class="ColorScheme-Text" />
    <path
       id="path183"
       fill="none"
       d="m44 0h22v22h-22z" />
  </g>
  <g
     transform="translate(0 22.195)"
     id="fcitx-quanpin-libpinyin">
    <path
       id="path186"
       fill="currentColor"
       d="m28 3c-1.662 0-3 1.338-3 3v10c0 1.662 1.338 3 3 3h10c1.662 0 3-1.338 3-3v-10c0-1.662-1.338-3-3-3zm4.5098 1.9023 0.98047 0.19531c-0.01 0.049996-0.03388 0.096484-0.04687 0.14648 1.877 2.289 5.7324 3.7871 5.7324 3.7871l-0.35156 0.9375s-0.80822-0.32089-1.8242-0.83789v0.86914h-3.5v2h2.5v1h-2.5v3h4.5v1h-10v-1h4.5v-3h-2.5v-1h2.5v-2h-3.5v-0.82422c-1.03 0.501-1.8301 0.79492-1.8301 0.79492l-0.33984-0.94141s1.3413-0.48934 2.7363-1.2773c1.396-0.789 2.7574-1.9196 2.9434-2.8496zm0.49023 1.3301c-0.668 0.996-1.8454 1.7716-2.9414 2.3906-0.247 0.14-0.4837 0.25595-0.7207 0.37695h7.3965c-1.191-0.63-2.6184-1.5526-3.7344-2.7676z"
       class="ColorScheme-Text" />
    <path
       id="path188"
       fill="none"
       d="m22 0h22v22h-22z" />
  </g>
  <g
     transform="translate(0 22.195)"
     id="fcitx-bopomofo-libpinyin">
    <path
       id="path191"
       fill="currentColor"
       d="m72 3c-1.662 0-3 1.338-3 3v10c0 1.662 1.338 3 3 3h10c1.662 0 3-1.338 3-3v-10c0-1.662-1.338-3-3-3zm5.3008 1.5996 2 1.5-0.60156 0.80078-2-1.5zm-5.9473 0.046875 2 2-0.70703 0.70703-2-2zm2.6465 2.3535h9v1h-4v3h3v1h-3v4h4v1h-9v-1h4v-4h-3v-1h3v-3h-4zm-2.6465 0.64648 2 2-0.70703 0.70703-2-2zm1.1719 3.1953 0.94922 0.31641-2 6-0.94922-0.31641z"
       class="ColorScheme-Text" />
    <path
       id="path193"
       fill="none"
       d="m66 0h22v22h-22z" />
  </g>
  <g
     transform="translate(0 22.195)"
     id="fcitx-chewing-libpinyin">
    <path
       id="path196"
       fill="currentColor"
       d="m94 3c-1.662 0-3 1.338-3 3v10c0 1.662 1.338 3 3 3h10c1.662 0 3-1.338 3-3v-10c0-1.662-1.338-3-3-3zm-1 2h6v1h-2v3h2l-0.40039-0.30078c0-1e-7 1.4004-1.9492 1.4004-3.6992h1c0 0.709-0.16481 1.389-0.38281 2h1.3828v-2h1v2h2v1h-2v2h2v1h-5v-1h2v-2h-1.8027c-0.398 0.79002-0.79688 1.3008-0.79688 1.3008l-0.40039-0.30078v8h-6v-8h1v-3h-1zm2 1v3h1v-3zm0 4v3h-1v1h3v1h-3v1h4v-6h-1v3h-1v-3zm5 2h5v5h-5zm1 1v3h3v-3z"
       class="ColorScheme-Text" />
    <path
       id="path198"
       fill="none"
       d="m88 0h22v22h-22z" />
  </g>
  <g
     transform="translate(132 -82)"
     id="fcitx-fullwidth-active">
    <rect
       id="rect201"
       fill="none"
       height="22"
       width="22"
       y="170"
       x="-2.471e-9" />
    <ellipse
       id="ellipse203"
       fill="currentColor"
       ry="8"
       rx="8"
       cy="181"
       cx="11"
       class="ColorScheme-Text" />
  </g>
  <g
     id="fcitx-wbpy">
    <path
       id="path206"
       fill="currentColor"
       d="m182 3c-1.662 0-3 1.338-3 3v10c0 1.662 1.338 3 3 3h7v-3h-7v-1h2.0996l0.88867-4h-1.9883v-1h2.2109l0.66601-3h-3.877v-1h9v1h-4.0977l-0.66601 3h3.7637v1.2754c0.295-0.1711 0.63307-0.27539 1-0.27539h4v-5c0-1.662-1.338-3-3-3h-10zm4.0137 8-0.89062 4h3.877v-4h-2.9863z"
       class="ColorScheme-Text" />
    <path
       id="path208"
       fill="none"
       d="m176 0h22v22h-22z" />
    <path
       id="path210"
       stroke-width="1.732"
       stroke-linejoin="round"
       opacity=".5"
       fill="currentColor"
       d="m191 12c-0.554 0-1 0.446-1 1v6c0 0.554 0.446 1 1 1h4c0.554 0 1-0.446 1-1v-6c0-0.554-0.446-1-1-1h-4zm0 0.95703h0.5c0.75 0 1.5317-0.016799 2.2207 0.21289 0.3445 0.11483 0.67639 0.30519 0.91602 0.61328 0.23962 0.30809 0.36328 0.7155 0.36328 1.1738s-0.12366 0.86574-0.36328 1.1738c-0.23963 0.30809-0.57152 0.49845-0.91602 0.61328-0.53383 0.17794-1.1334 0.15946-1.7207 0.16406v2.0488h-1v-6zm1 1.043v1.9141c0.52807-0.0121 1.0828-0.012 1.4043-0.11914 0.218-0.0727 0.35486-0.16356 0.44336-0.27734 0.0885-0.11379 0.15234-0.26888 0.15234-0.56055s-0.0638-0.44676-0.15234-0.56055c-0.0885-0.11378-0.22536-0.20467-0.44336-0.27734-0.32152-0.10717-0.87623-0.10704-1.4043-0.11914z"
       class="ColorScheme-Text" />
  </g>
</svg>
