<svg xmlns="http://www.w3.org/2000/svg" width="32" height="32" version="1.1">
 <g id="22-22-input-mouse-battery" transform="translate(224,-22)">
  <rect  style="opacity:0.001" width="22" height="22" x="0" y="0" ry="0"/>
  <path  style="opacity:1;fill:#232627" d="M 11.5,3 C 8.453,3 6,5.676 6,9 v 4 c 0,3.324 2.453,6 5.5,6 3.047,0 5.5,-2.676 5.5,-6 V 9 C 17,5.676 14.547,3 11.5,3 Z M 11,4.046875 V 8 H 7.0507812 C 7.2828369,5.9136345 8.916344,4.2793076 11,4.046875 Z m 1,0 C 14.083656,4.2793076 15.717163,5.9136345 15.949219,8 H 12 Z M 7,9 h 9 v 4.5 C 16,15.993 13.993,18 11.5,18 9.007,18 7,15.993 7,13.5 Z m 5,1 -2.5,4 H 11 v 3 l 2.5,-4 H 12 Z"/>
 </g>
 <g id="22-22-input-num-on" transform="translate(32,-22)">
  <rect  style="opacity:0.001" width="22" height="22" x="0" y="0"/>
  <path  style="opacity:1;fill:#232627" d="M 5.5,3 C 4.115,3 3,4.115 3,5.5 v 9 2 C 3,17.885 4.115,19 5.5,19 h 11 c 1.385,0 2.5,-1.115 2.5,-2.5 v -2 -9 C 19,4.115 17.885,3 16.5,3 Z m 0,1 h 11 C 17.348297,4 18,4.6517028 18,5.5 V 16.492188 C 17.581836,16.80699 17.066048,17 16.5,17 H 5.5 C 4.9339516,17 4.4181638,16.80699 4,16.492188 V 5.5 C 4,4.6517028 4.6517028,4 5.5,4 Z M 11,7 v 1 h -1 v 1 h 1 v 3 h -1 v 1 h 1 1 1 V 12 H 12 V 7 Z"/>
 </g>
 <g id="22-22-input-caps-on" transform="translate(0,-22)">
  <rect  style="opacity:0.001" width="22" height="22" x="0" y="0"/>
  <path  style="opacity:1;fill:#232627" d="M 5.5,3 C 4.115,3 3,4.115 3,5.5 v 9 2 C 3,17.885 4.115,19 5.5,19 h 11 c 1.385,0 2.5,-1.115 2.5,-2.5 v -2 -9 C 19,4.115 17.885,3 16.5,3 Z m 0,1 h 11 C 17.348297,4 18,4.6517028 18,5.5 V 16.492188 C 17.581836,16.80699 17.066048,17 16.5,17 H 5.5 C 4.9339516,17 4.4181638,16.80699 4,16.492188 V 5.5 C 4,4.6517028 4.6517028,4 5.5,4 Z M 9,7 v 1 2 1 2 h 1 v -2 h 2 v 2 h 1 V 11 10 8 7 h -1 -2 z m 1,1 h 2 v 2 h -2 z"/>
 </g>
 <g id="22-22-input-keyboard-battery" transform="translate(64,-22)">
  <rect  style="opacity:0.001" width="22" height="22" x="0" y="0"/>
  <path  style="opacity:1;fill:#232627" d="M 5.5,3 C 4.115,3 3,4.115 3,5.5 v 9 2 C 3,17.885 4.115,19 5.5,19 h 11 c 1.385,0 2.5,-1.115 2.5,-2.5 v -2 -9 C 19,4.115 17.885,3 16.5,3 Z m 0,1 h 11 C 17.348297,4 18,4.6517028 18,5.5 V 16.492188 C 17.581836,16.80699 17.066048,17 16.5,17 H 5.5 C 4.9339516,17 4.4181638,16.80699 4,16.492188 V 5.5 C 4,4.6517028 4.6517028,4 5.5,4 Z M 11,6 9,11 h 2 v 3 l 2,-5 h -2 z"/>
 </g>
 <g id="22-22-input-keyboard-brightness" transform="translate(96,-22)">
  <rect  style="opacity:0.001" width="22" height="22" x="0" y="0"/>
  <path  style="opacity:1;fill:#232627" d="M 5.5,3 C 4.115,3 3,4.115 3,5.5 v 9 2 C 3,17.885 4.115,19 5.5,19 h 11 c 1.385,0 2.5,-1.115 2.5,-2.5 v -2 -9 C 19,4.115 17.885,3 16.5,3 Z m 0,1 h 11 C 17.348297,4 18,4.6517028 18,5.5 V 16.492188 C 17.581836,16.80699 17.066048,17 16.5,17 H 5.5 C 4.9339516,17 4.4181638,16.80699 4,16.492188 V 5.5 C 4,4.6517028 4.6517028,4 5.5,4 Z M 11,7 a 3,3 0 0 0 -3,3 3,3 0 0 0 3,3 3,3 0 0 0 3,-3 3,3 0 0 0 -3,-3 z m 0,1 v 4 A 2,2 0 0 1 9,10 2,2 0 0 1 11,8 Z"/>
 </g>
 <g id="22-22-input-keyboard" transform="translate(128,-22)">
  <rect  style="opacity:0.001" width="22" height="22" x="0" y="0"/>
  <path  style="opacity:1;fill:#232627" d="M 5,5 C 3.892,5 3,5.892 3,7 v 8 c 0,1.108 0.892,2 2,2 h 11 c 1.108,0 2,-0.892 2,-2 V 7 C 18,5.892 17.108,5 16,5 Z m 0,1 h 11 c 0.571297,0 1,0.4287028 1,1 v 8 c 0,0.571297 -0.428703,1 -1,1 H 5 C 4.4287028,16 4,15.571297 4,15 V 7 C 4,6.4287028 4.4287028,6 5,6 Z M 5.5,7 C 5.223,7 5,7.223 5,7.5 v 1 C 5,8.777 5.223,9 5.5,9 h 1 C 6.777,9 7,8.777 7,8.5 v -1 C 7,7.223 6.777,7 6.5,7 Z m 3,0 C 8.223,7 8,7.223 8,7.5 v 1 C 8,8.777 8.223,9 8.5,9 h 1 C 9.777,9 10,8.777 10,8.5 v -1 C 10,7.223 9.777,7 9.5,7 Z m 3,0 C 11.223,7 11,7.223 11,7.5 v 1 C 11,8.777 11.223,9 11.5,9 h 1 C 12.777,9 13,8.777 13,8.5 v -1 C 13,7.223 12.777,7 12.5,7 Z m 3,0 C 14.223,7 14,7.223 14,7.5 v 1 C 14,8.777 14.223,9 14.5,9 h 1 C 15.777,9 16,8.777 16,8.5 v -1 C 16,7.223 15.777,7 15.5,7 Z m -9,3 C 5.223,10 5,10.223 5,10.5 v 1 C 5,11.777 5.223,12 5.5,12 h 1 C 6.777,12 7,11.777 7,11.5 v -1 C 7,10.223 6.777,10 6.5,10 Z m 3,0 C 8.223,10 8,10.223 8,10.5 v 1 C 8,11.777 8.223,12 8.5,12 h 1 C 9.777,12 10,11.777 10,11.5 v -1 C 10,10.223 9.777,10 9.5,10 Z m 3,0 C 11.223,10 11,10.223 11,10.5 v 1 c 0,0.277 0.223,0.5 0.5,0.5 h 1 c 0.277,0 0.5,-0.223 0.5,-0.5 v -1 C 13,10.223 12.777,10 12.5,10 Z m 3,0 C 14.223,10 14,10.223 14,10.5 v 1 c 0,0.277 0.223,0.5 0.5,0.5 h 1 c 0.277,0 0.5,-0.223 0.5,-0.5 v -1 C 16,10.223 15.777,10 15.5,10 Z m -9,3 C 5.223,13 5,13.223 5,13.5 v 1 C 5,14.777 5.223,15 5.5,15 h 1 C 6.777,15 7,14.777 7,14.5 v -1 C 7,13.223 6.777,13 6.5,13 Z m 3,0 C 8.223,13 8,13.223 8,13.5 v 1 C 8,14.777 8.223,15 8.5,15 h 1 2.5 0.5 c 0.277,0 0.5,-0.223 0.5,-0.5 v -1 C 13,13.223 12.777,13 12.5,13 H 12 9.5 Z m 6,0 C 14.223,13 14,13.223 14,13.5 v 1 c 0,0.277 0.223,0.5 0.5,0.5 h 1 c 0.277,0 0.5,-0.223 0.5,-0.5 v -1 C 16,13.223 15.777,13 15.5,13 Z"/>
 </g>
 <g id="22-22-input-keyboard-virtual-on" transform="translate(160,-22)">
  <rect  style="opacity:0.001" width="22" height="22" x="0" y="0"/>
  <path  style="opacity:1;fill:#232627" d="M 5,5 C 3.892,5 3,5.892 3,7 v 8 c 0,1.108 0.892,2 2,2 h 11 c 1.108,0 2,-0.892 2,-2 V 7 C 18,5.892 17.108,5 16,5 Z m 0,1 h 11 c 0.571297,0 1,0.4287028 1,1 v 8 c 0,0.571297 -0.428703,1 -1,1 H 5 C 4.4287028,16 4,15.571297 4,15 V 7 C 4,6.4287028 4.4287028,6 5,6 Z M 5.5,7 C 5.223,7 5,7.223 5,7.5 v 1 C 5,8.777 5.223,9 5.5,9 h 1 C 6.777,9 7,8.777 7,8.5 v -1 C 7,7.223 6.777,7 6.5,7 Z m 3,0 C 8.223,7 8,7.223 8,7.5 v 1 C 8,8.777 8.223,9 8.5,9 h 1 C 9.777,9 10,8.777 10,8.5 v -1 C 10,7.223 9.777,7 9.5,7 Z m 3,0 C 11.223,7 11,7.223 11,7.5 v 1 C 11,8.777 11.223,9 11.5,9 h 1 C 12.777,9 13,8.777 13,8.5 v -1 C 13,7.223 12.777,7 12.5,7 Z m 3,0 C 14.223,7 14,7.223 14,7.5 v 1 C 14,8.777 14.223,9 14.5,9 h 1 C 15.777,9 16,8.777 16,8.5 v -1 C 16,7.223 15.777,7 15.5,7 Z m -9,3 C 5.223,10 5,10.223 5,10.5 v 1 C 5,11.777 5.223,12 5.5,12 h 1 C 6.777,12 7,11.777 7,11.5 v -1 C 7,10.223 6.777,10 6.5,10 Z m 3,0 C 8.223,10 8,10.223 8,10.5 v 1 C 8,11.777 8.223,12 8.5,12 h 1 C 9.777,12 10,11.777 10,11.5 v -1 C 10,10.223 9.777,10 9.5,10 Z m 3,0 C 11.223,10 11,10.223 11,10.5 v 1 c 0,0.277 0.223,0.5 0.5,0.5 h 1 c 0.277,0 0.5,-0.223 0.5,-0.5 v -1 C 13,10.223 12.777,10 12.5,10 Z m 3,0 C 14.223,10 14,10.223 14,10.5 v 1 c 0,0.277 0.223,0.5 0.5,0.5 h 1 c 0.277,0 0.5,-0.223 0.5,-0.5 v -1 C 16,10.223 15.777,10 15.5,10 Z m -9,3 C 5.223,13 5,13.223 5,13.5 v 1 C 5,14.777 5.223,15 5.5,15 h 1 C 6.777,15 7,14.777 7,14.5 v -1 C 7,13.223 6.777,13 6.5,13 Z m 3,0 C 8.223,13 8,13.223 8,13.5 v 1 C 8,14.777 8.223,15 8.5,15 h 1 2.5 0.5 c 0.277,0 0.5,-0.223 0.5,-0.5 v -1 C 13,13.223 12.777,13 12.5,13 H 12 9.5 Z m 6,0 C 14.223,13 14,13.223 14,13.5 v 1 c 0,0.277 0.223,0.5 0.5,0.5 h 1 c 0.277,0 0.5,-0.223 0.5,-0.5 v -1 C 16,13.223 15.777,13 15.5,13 Z"/>
 </g>
 <g id="22-22-input-keyboard-virtual-off" transform="translate(192,-22)">
  <rect  style="opacity:0.001" width="22" height="22" x="0" y="0"/>
  <path  style="opacity:0.5;fill:#232627" d="M 5,5 C 3.892,5 3,5.892 3,7 v 8 c 0,1.108 0.892,2 2,2 h 11 c 1.108,0 2,-0.892 2,-2 V 7 C 18,5.892 17.108,5 16,5 Z m 0,1 h 11 c 0.571297,0 1,0.4287028 1,1 v 8 c 0,0.571297 -0.428703,1 -1,1 H 5 C 4.4287028,16 4,15.571297 4,15 V 7 C 4,6.4287028 4.4287028,6 5,6 Z M 5.5,7 C 5.223,7 5,7.223 5,7.5 v 1 C 5,8.777 5.223,9 5.5,9 h 1 C 6.777,9 7,8.777 7,8.5 v -1 C 7,7.223 6.777,7 6.5,7 Z m 3,0 C 8.223,7 8,7.223 8,7.5 v 1 C 8,8.777 8.223,9 8.5,9 h 1 C 9.777,9 10,8.777 10,8.5 v -1 C 10,7.223 9.777,7 9.5,7 Z m 3,0 C 11.223,7 11,7.223 11,7.5 v 1 C 11,8.777 11.223,9 11.5,9 h 1 C 12.777,9 13,8.777 13,8.5 v -1 C 13,7.223 12.777,7 12.5,7 Z m 3,0 C 14.223,7 14,7.223 14,7.5 v 1 C 14,8.777 14.223,9 14.5,9 h 1 C 15.777,9 16,8.777 16,8.5 v -1 C 16,7.223 15.777,7 15.5,7 Z m -9,3 C 5.223,10 5,10.223 5,10.5 v 1 C 5,11.777 5.223,12 5.5,12 h 1 C 6.777,12 7,11.777 7,11.5 v -1 C 7,10.223 6.777,10 6.5,10 Z m 3,0 C 8.223,10 8,10.223 8,10.5 v 1 C 8,11.777 8.223,12 8.5,12 h 1 C 9.777,12 10,11.777 10,11.5 v -1 C 10,10.223 9.777,10 9.5,10 Z m 3,0 C 11.223,10 11,10.223 11,10.5 v 1 c 0,0.277 0.223,0.5 0.5,0.5 h 1 c 0.277,0 0.5,-0.223 0.5,-0.5 v -1 C 13,10.223 12.777,10 12.5,10 Z m 3,0 C 14.223,10 14,10.223 14,10.5 v 1 c 0,0.277 0.223,0.5 0.5,0.5 h 1 c 0.277,0 0.5,-0.223 0.5,-0.5 v -1 C 16,10.223 15.777,10 15.5,10 Z m -9,3 C 5.223,13 5,13.223 5,13.5 v 1 C 5,14.777 5.223,15 5.5,15 h 1 C 6.777,15 7,14.777 7,14.5 v -1 C 7,13.223 6.777,13 6.5,13 Z m 3,0 C 8.223,13 8,13.223 8,13.5 v 1 C 8,14.777 8.223,15 8.5,15 h 1 2.5 0.5 c 0.277,0 0.5,-0.223 0.5,-0.5 v -1 C 13,13.223 12.777,13 12.5,13 H 12 9.5 Z m 6,0 C 14.223,13 14,13.223 14,13.5 v 1 c 0,0.277 0.223,0.5 0.5,0.5 h 1 c 0.277,0 0.5,-0.223 0.5,-0.5 v -1 C 16,13.223 15.777,13 15.5,13 Z"/>
 </g>
 <g id="input-num-on" transform="translate(32)">
  <rect  style="opacity:0.001" width="32" height="32" x="0" y="0"/>
  <path  style="opacity:1;fill:#232627" d="M 7.75,4 C 5.6725,4 4,5.6725 4,7.75 v 13.5 1 2 C 4,26.327499 5.6725,28 7.75,28 h 16.5 C 26.3275,28 28,26.327499 28,24.25 v -2 -1 -13.5 C 28,5.6725 26.3275,4 24.25,4 Z m 0,1 h 16.5 C 25.790797,5 27,6.2092024 27,7.75 v 13.5 3 c 0,0.218673 -0.02997,0.428053 -0.07617,0.630859 C 26.244409,25.571417 25.299773,26 24.25,26 H 7.75 C 6.7002267,26 5.7555892,25.571417 5.0761719,24.880859 5.0299693,24.678053 5,24.468673 5,24.25 v -3 -13.5 C 5,6.2092028 6.2092028,5 7.75,5 Z M 16,10 v 1 h -2 v 1 h 2 v 6 h -2 v 1 h 2 1 2 v -1 h -2 v -8 z"/>
 </g>
 <g id="input-caps-on">
  <rect  style="opacity:0.001" width="32" height="32" x="0" y="0"/>
  <path  style="opacity:1;fill:#232627" d="M 7.75,4 C 5.6725,4 4,5.6725 4,7.75 v 13.5 1 2 C 4,26.327499 5.6725,28 7.75,28 h 16.5 C 26.3275,28 28,26.327499 28,24.25 v -2 -1 -13.5 C 28,5.6725 26.3275,4 24.25,4 Z m 0,1 h 16.5 C 25.790797,5 27,6.2092024 27,7.75 v 13.5 3 c 0,0.218673 -0.02997,0.428053 -0.07617,0.630859 C 26.244411,25.571417 25.299773,26 24.25,26 H 7.75 C 6.7002267,26 5.7555892,25.571417 5.0761719,24.880859 5.0299693,24.678053 5,24.468673 5,24.25 v -3 -13.5 C 5,6.2092028 6.2092028,5 7.75,5 Z M 13,10 v 1 3 1 4 h 1 v -4 h 4 v 4 h 1 v -4 -1 -3 -1 h -1 -4 z m 1,1 h 4 v 3 h -4 z"/>
 </g>
 <g id="input-keyboard-battery" transform="translate(64)">
  <rect  style="opacity:0.001" width="32" height="32" x="0" y="0"/>
  <path  style="opacity:1;fill:#232627" d="M 7.75,4 C 5.6725,4 4,5.6725 4,7.75 v 13.5 1 2 C 4,26.327499 5.6725,28 7.75,28 h 16.5 C 26.3275,28 28,26.327499 28,24.25 v -2 -1 -13.5 C 28,5.6725 26.3275,4 24.25,4 Z m 0,1 h 16.5 C 25.790797,5 27,6.2092024 27,7.75 v 13.5 3 c 0,0.218673 -0.02997,0.428053 -0.07617,0.630859 C 26.244409,25.571417 25.299773,26 24.25,26 H 7.75 C 6.7002267,26 5.7555892,25.571417 5.0761719,24.880859 5.0299693,24.678053 5,24.468673 5,24.25 v -3 -13.5 C 5,6.2092028 6.2092028,5 7.75,5 Z M 16,8.5 13,16 h 3 v 4.5 L 19,13 h -3 z"/>
 </g>
 <g id="input-keyboard-brightness" transform="translate(96)">
  <rect  style="opacity:0.001" width="32" height="32" x="0" y="0"/>
  <path  style="opacity:1;fill:#232627" d="M 7.75,4 C 5.6725,4 4,5.6725 4,7.75 v 13.5 1 2 C 4,26.327499 5.6725,28 7.75,28 h 16.5 C 26.3275,28 28,26.327499 28,24.25 v -2 -1 -13.5 C 28,5.6725 26.3275,4 24.25,4 Z m 0,1 h 16.5 C 25.790797,5 27,6.2092024 27,7.75 v 13.5 3 c 0,0.218673 -0.02997,0.428053 -0.07617,0.630859 C 26.244409,25.571417 25.299773,26 24.25,26 H 7.75 C 6.7002267,26 5.7555892,25.571417 5.0761719,24.880859 5.0299693,24.678053 5,24.468673 5,24.25 v -3 -13.5 C 5,6.2092028 6.2092028,5 7.75,5 Z M 16,10 a 5,5 0 0 0 -5,5 5,5 0 0 0 5,5 5,5 0 0 0 5,-5 5,5 0 0 0 -5,-5 z m 0,1 c 0,0 2e-6,8 0,8 -2.209138,-1e-6 -4,-1.790862 -4,-4 0,-2.209138 1.790862,-3.999999 4,-4 z"/>
 </g>
 <g id="input-keyboard" transform="translate(128)">
  <rect  style="opacity:0.001" width="32" height="32" x="0" y="0"/>
  <path  style="opacity:1;fill:#232627" d="M 7.1992188,7 C 5.4264186,7 4,8.4116812 4,10.166016 V 21.833984 C 4,23.588319 5.4264185,25 7.1992188,25 H 24.800781 C 26.573581,25 28,23.588319 28,21.833984 V 10.166016 C 28,8.4116812 26.573581,7 24.800781,7 Z m 0,1 H 24.800781 C 26.042469,8 27,8.9540337 27,10.166016 V 21.833984 C 27,23.045967 26.042469,24 24.800781,24 H 7.1992188 C 5.9575305,24 5,23.045968 5,21.833984 V 10.166016 C 5,8.9540333 5.9575307,8 7.1992188,8 Z M 6.5,9 C 6.223,9 6,9.223001 6,9.5 v 1 C 6,10.776999 6.2230001,11 6.5,11 h 1 C 7.777,11 8,10.776999 8,10.5 v -1 C 8,9.223001 7.777,9 7.5,9 Z m 3,0 C 9.223,9 9,9.223001 9,9.5 v 1 C 9,10.776999 9.223,11 9.5,11 h 1 c 0.277,0 0.5,-0.223001 0.5,-0.5 v -1 C 11,9.223001 10.777,9 10.5,9 Z m 3,0 C 12.223,9 12,9.223001 12,9.5 v 1 c 0,0.276999 0.223,0.5 0.5,0.5 h 1 c 0.277,0 0.5,-0.223001 0.5,-0.5 v -1 C 14,9.223001 13.777,9 13.5,9 Z m 3,0 C 15.223,9 15,9.223001 15,9.5 v 1 c 0,0.276999 0.223,0.5 0.5,0.5 h 1 c 0.277,0 0.5,-0.223001 0.5,-0.5 v -1 C 17,9.223001 16.777,9 16.5,9 Z m 3,0 C 18.223,9 18,9.223001 18,9.5 v 1 c 0,0.276999 0.223,0.5 0.5,0.5 h 1 c 0.277,0 0.5,-0.223001 0.5,-0.5 v -1 C 20,9.223001 19.777,9 19.5,9 Z m 3,0 C 21.223,9 21,9.223001 21,9.5 v 1 c 0,0.276999 0.223,0.5 0.5,0.5 h 1 c 0.277,0 0.5,-0.223001 0.5,-0.5 v -1 C 23,9.223001 22.777,9 22.5,9 Z m 3,0 C 24.223,9 24,9.223001 24,9.5 v 1 c 0,0.276999 0.223,0.5 0.5,0.5 h 1 c 0.277,0 0.5,-0.223001 0.5,-0.5 v -1 C 26,9.223001 25.777,9 25.5,9 Z m -18,3 C 6.223,12 6,12.223001 6,12.5 v 1 C 6,13.776999 6.2230001,14 6.5,14 h 1 C 7.777,14 8,13.776999 8,13.5 v -1 C 8,12.223001 7.777,12 7.5,12 Z m 3,0 C 9.223,12 9,12.223001 9,12.5 v 1 C 9,13.776999 9.223,14 9.5,14 h 1 c 0.277,0 0.5,-0.223001 0.5,-0.5 v -1 C 11,12.223001 10.777,12 10.5,12 Z m 3,0 C 12.223,12 12,12.223001 12,12.5 v 1 c 0,0.276999 0.223,0.5 0.5,0.5 h 1 c 0.277,0 0.5,-0.223001 0.5,-0.5 v -1 C 14,12.223001 13.777,12 13.5,12 Z m 3,0 C 15.223,12 15,12.223001 15,12.5 v 1 c 0,0.276999 0.223,0.5 0.5,0.5 h 1 c 0.277,0 0.5,-0.223001 0.5,-0.5 v -1 C 17,12.223001 16.777,12 16.5,12 Z m 3,0 C 18.223,12 18,12.223001 18,12.5 v 1 c 0,0.276999 0.223,0.5 0.5,0.5 h 1 c 0.277,0 0.5,-0.223001 0.5,-0.5 v -1 C 20,12.223001 19.777,12 19.5,12 Z m 3,0 C 21.223,12 21,12.223001 21,12.5 v 1 c 0,0.276999 0.223,0.5 0.5,0.5 h 1 c 0.277,0 0.5,-0.223001 0.5,-0.5 v -1 C 23,12.223001 22.777,12 22.5,12 Z m 3,0 C 24.223,12 24,12.223001 24,12.5 v 1 c 0,0.276999 0.223,0.5 0.5,0.5 h 1 c 0.277,0 0.5,-0.223001 0.5,-0.5 v -1 C 26,12.223001 25.777,12 25.5,12 Z m -18,3 C 6.223,15 6,15.223001 6,15.5 v 1 C 6,16.776999 6.2230001,17 6.5,17 h 1 C 7.777,17 8,16.776999 8,16.5 v -1 C 8,15.223001 7.777,15 7.5,15 Z m 3,0 C 9.223,15 9,15.223001 9,15.5 v 1 C 9,16.776999 9.223,17 9.5,17 h 1 c 0.277,0 0.5,-0.223001 0.5,-0.5 v -1 C 11,15.223001 10.777,15 10.5,15 Z m 3,0 C 12.223,15 12,15.223001 12,15.5 v 1 c 0,0.276999 0.223,0.5 0.5,0.5 h 1 c 0.277,0 0.5,-0.223001 0.5,-0.5 v -1 C 14,15.223001 13.777,15 13.5,15 Z m 3,0 C 15.223,15 15,15.223001 15,15.5 v 1 c 0,0.276999 0.223,0.5 0.5,0.5 h 1 c 0.277,0 0.5,-0.223001 0.5,-0.5 v -1 C 17,15.223001 16.777,15 16.5,15 Z m 3,0 C 18.223,15 18,15.223001 18,15.5 v 1 c 0,0.276999 0.223,0.5 0.5,0.5 h 1 c 0.277,0 0.5,-0.223001 0.5,-0.5 v -1 C 20,15.223001 19.777,15 19.5,15 Z m 3,0 C 21.223,15 21,15.223001 21,15.5 v 1 c 0,0.276999 0.223,0.5 0.5,0.5 h 1 c 0.277,0 0.5,-0.223001 0.5,-0.5 v -1 C 23,15.223001 22.777,15 22.5,15 Z m 3.25,0 C 24.3345,15 24,15.223 24,15.5 V 18 H 21.5 C 21.223,18 21,18.223 21,18.5 v 1 c 0,0.277 0.223,0.5 0.5,0.5 h 2.25 1.5 0.25 c 0.277,0 0.5,-0.223 0.5,-0.5 v -1 -3 C 26,15.223 25.6655,15 25.25,15 Z M 6.5,18 C 6.223,18 6,18.223001 6,18.5 v 1 C 6,19.776999 6.2230001,20 6.5,20 h 1 C 7.777,20 8,19.776999 8,19.5 v -1 C 8,18.223001 7.777,18 7.5,18 Z m 3,0 C 9.223,18 9,18.223001 9,18.5 v 1 C 9,19.776999 9.223,20 9.5,20 h 1 c 0.277,0 0.5,-0.223001 0.5,-0.5 v -1 C 11,18.223001 10.777,18 10.5,18 Z m 3,0 C 12.223,18 12,18.223001 12,18.5 v 1 c 0,0.276999 0.223,0.5 0.5,0.5 h 1 c 0.277,0 0.5,-0.223001 0.5,-0.5 v -1 C 14,18.223001 13.777,18 13.5,18 Z m 3,0 C 15.223,18 15,18.223001 15,18.5 v 1 c 0,0.276999 0.223,0.5 0.5,0.5 h 1 c 0.277,0 0.5,-0.223001 0.5,-0.5 v -1 C 17,18.223001 16.777,18 16.5,18 Z m 3,0 C 18.223,18 18,18.223001 18,18.5 v 1 c 0,0.276999 0.223,0.5 0.5,0.5 h 1 c 0.277,0 0.5,-0.223001 0.5,-0.5 v -1 C 20,18.223001 19.777,18 19.5,18 Z m -12,3 C 6.223,21 6,21.223001 6,21.5 v 1 C 6,22.776999 6.2230001,23 6.5,23 h 1 C 7.777,23 8,22.776999 8,22.5 v -1 C 8,21.223001 7.777,21 7.5,21 Z m 3,0 C 9.223,21 9,21.223001 9,21.5 v 1 C 9,22.776999 9.223,23 9.5,23 h 1 c 0.277,0 0.5,-0.223001 0.5,-0.5 v -1 C 11,21.223001 10.777,21 10.5,21 Z m 3,0 C 12.223,21 12,21.223 12,21.5 v 1 c 0,0.277 0.223,0.5 0.5,0.5 h 7 c 0.277,0 0.5,-0.223 0.5,-0.5 v -1 C 20,21.223 19.777,21 19.5,21 Z m 9,0 C 21.223,21 21,21.223001 21,21.5 v 1 c 0,0.276999 0.223,0.5 0.5,0.5 h 1 c 0.277,0 0.5,-0.223001 0.5,-0.5 v -1 C 23,21.223001 22.777,21 22.5,21 Z m 3,0 C 24.223,21 24,21.223001 24,21.5 v 1 c 0,0.276999 0.223,0.5 0.5,0.5 h 1 c 0.277,0 0.5,-0.223001 0.5,-0.5 v -1 C 26,21.223001 25.777,21 25.5,21 Z"/>
 </g>
 <g id="input-keyboard-virtual-on" transform="translate(160)">
  <rect  style="opacity:0.001" width="32" height="32" x="0" y="0"/>
  <path  style="opacity:1;fill:#232627" d="M 7.1992188,7 C 5.4264186,7 4,8.4116812 4,10.166016 V 21.833984 C 4,23.588319 5.4264185,25 7.1992188,25 H 24.800781 C 26.573581,25 28,23.588319 28,21.833984 V 10.166016 C 28,8.4116812 26.573581,7 24.800781,7 Z m 0,1 H 24.800781 C 26.042469,8 27,8.9540337 27,10.166016 V 21.833984 C 27,23.045967 26.042469,24 24.800781,24 H 7.1992188 C 5.9575305,24 5,23.045968 5,21.833984 V 10.166016 C 5,8.9540333 5.9575307,8 7.1992188,8 Z M 6.5,9 C 6.223,9 6,9.223001 6,9.5 v 1 C 6,10.776999 6.2230001,11 6.5,11 h 1 C 7.777,11 8,10.776999 8,10.5 v -1 C 8,9.223001 7.777,9 7.5,9 Z m 3,0 C 9.223,9 9,9.223001 9,9.5 v 1 C 9,10.776999 9.223,11 9.5,11 h 1 c 0.277,0 0.5,-0.223001 0.5,-0.5 v -1 C 11,9.223001 10.777,9 10.5,9 Z m 3,0 C 12.223,9 12,9.223001 12,9.5 v 1 c 0,0.276999 0.223,0.5 0.5,0.5 h 1 c 0.277,0 0.5,-0.223001 0.5,-0.5 v -1 C 14,9.223001 13.777,9 13.5,9 Z m 3,0 C 15.223,9 15,9.223001 15,9.5 v 1 c 0,0.276999 0.223,0.5 0.5,0.5 h 1 c 0.277,0 0.5,-0.223001 0.5,-0.5 v -1 C 17,9.223001 16.777,9 16.5,9 Z m 3,0 C 18.223,9 18,9.223001 18,9.5 v 1 c 0,0.276999 0.223,0.5 0.5,0.5 h 1 c 0.277,0 0.5,-0.223001 0.5,-0.5 v -1 C 20,9.223001 19.777,9 19.5,9 Z m 3,0 C 21.223,9 21,9.223001 21,9.5 v 1 c 0,0.276999 0.223,0.5 0.5,0.5 h 1 c 0.277,0 0.5,-0.223001 0.5,-0.5 v -1 C 23,9.223001 22.777,9 22.5,9 Z m 3,0 C 24.223,9 24,9.223001 24,9.5 v 1 c 0,0.276999 0.223,0.5 0.5,0.5 h 1 c 0.277,0 0.5,-0.223001 0.5,-0.5 v -1 C 26,9.223001 25.777,9 25.5,9 Z m -18,3 C 6.223,12 6,12.223001 6,12.5 v 1 C 6,13.776999 6.2230001,14 6.5,14 h 1 C 7.777,14 8,13.776999 8,13.5 v -1 C 8,12.223001 7.777,12 7.5,12 Z m 3,0 C 9.223,12 9,12.223001 9,12.5 v 1 C 9,13.776999 9.223,14 9.5,14 h 1 c 0.277,0 0.5,-0.223001 0.5,-0.5 v -1 C 11,12.223001 10.777,12 10.5,12 Z m 3,0 C 12.223,12 12,12.223001 12,12.5 v 1 c 0,0.276999 0.223,0.5 0.5,0.5 h 1 c 0.277,0 0.5,-0.223001 0.5,-0.5 v -1 C 14,12.223001 13.777,12 13.5,12 Z m 3,0 C 15.223,12 15,12.223001 15,12.5 v 1 c 0,0.276999 0.223,0.5 0.5,0.5 h 1 c 0.277,0 0.5,-0.223001 0.5,-0.5 v -1 C 17,12.223001 16.777,12 16.5,12 Z m 3,0 C 18.223,12 18,12.223001 18,12.5 v 1 c 0,0.276999 0.223,0.5 0.5,0.5 h 1 c 0.277,0 0.5,-0.223001 0.5,-0.5 v -1 C 20,12.223001 19.777,12 19.5,12 Z m 3,0 C 21.223,12 21,12.223001 21,12.5 v 1 c 0,0.276999 0.223,0.5 0.5,0.5 h 1 c 0.277,0 0.5,-0.223001 0.5,-0.5 v -1 C 23,12.223001 22.777,12 22.5,12 Z m 3,0 C 24.223,12 24,12.223001 24,12.5 v 1 c 0,0.276999 0.223,0.5 0.5,0.5 h 1 c 0.277,0 0.5,-0.223001 0.5,-0.5 v -1 C 26,12.223001 25.777,12 25.5,12 Z m -18,3 C 6.223,15 6,15.223001 6,15.5 v 1 C 6,16.776999 6.2230001,17 6.5,17 h 1 C 7.777,17 8,16.776999 8,16.5 v -1 C 8,15.223001 7.777,15 7.5,15 Z m 3,0 C 9.223,15 9,15.223001 9,15.5 v 1 C 9,16.776999 9.223,17 9.5,17 h 1 c 0.277,0 0.5,-0.223001 0.5,-0.5 v -1 C 11,15.223001 10.777,15 10.5,15 Z m 3,0 C 12.223,15 12,15.223001 12,15.5 v 1 c 0,0.276999 0.223,0.5 0.5,0.5 h 1 c 0.277,0 0.5,-0.223001 0.5,-0.5 v -1 C 14,15.223001 13.777,15 13.5,15 Z m 3,0 C 15.223,15 15,15.223001 15,15.5 v 1 c 0,0.276999 0.223,0.5 0.5,0.5 h 1 c 0.277,0 0.5,-0.223001 0.5,-0.5 v -1 C 17,15.223001 16.777,15 16.5,15 Z m 3,0 C 18.223,15 18,15.223001 18,15.5 v 1 c 0,0.276999 0.223,0.5 0.5,0.5 h 1 c 0.277,0 0.5,-0.223001 0.5,-0.5 v -1 C 20,15.223001 19.777,15 19.5,15 Z m 3,0 C 21.223,15 21,15.223001 21,15.5 v 1 c 0,0.276999 0.223,0.5 0.5,0.5 h 1 c 0.277,0 0.5,-0.223001 0.5,-0.5 v -1 C 23,15.223001 22.777,15 22.5,15 Z m 3.25,0 C 24.3345,15 24,15.223 24,15.5 V 18 H 21.5 C 21.223,18 21,18.223 21,18.5 v 1 c 0,0.277 0.223,0.5 0.5,0.5 h 2.25 1.5 0.25 c 0.277,0 0.5,-0.223 0.5,-0.5 v -1 -3 C 26,15.223 25.6655,15 25.25,15 Z M 6.5,18 C 6.223,18 6,18.223001 6,18.5 v 1 C 6,19.776999 6.2230001,20 6.5,20 h 1 C 7.777,20 8,19.776999 8,19.5 v -1 C 8,18.223001 7.777,18 7.5,18 Z m 3,0 C 9.223,18 9,18.223001 9,18.5 v 1 C 9,19.776999 9.223,20 9.5,20 h 1 c 0.277,0 0.5,-0.223001 0.5,-0.5 v -1 C 11,18.223001 10.777,18 10.5,18 Z m 3,0 C 12.223,18 12,18.223001 12,18.5 v 1 c 0,0.276999 0.223,0.5 0.5,0.5 h 1 c 0.277,0 0.5,-0.223001 0.5,-0.5 v -1 C 14,18.223001 13.777,18 13.5,18 Z m 3,0 C 15.223,18 15,18.223001 15,18.5 v 1 c 0,0.276999 0.223,0.5 0.5,0.5 h 1 c 0.277,0 0.5,-0.223001 0.5,-0.5 v -1 C 17,18.223001 16.777,18 16.5,18 Z m 3,0 C 18.223,18 18,18.223001 18,18.5 v 1 c 0,0.276999 0.223,0.5 0.5,0.5 h 1 c 0.277,0 0.5,-0.223001 0.5,-0.5 v -1 C 20,18.223001 19.777,18 19.5,18 Z m -12,3 C 6.223,21 6,21.223001 6,21.5 v 1 C 6,22.776999 6.2230001,23 6.5,23 h 1 C 7.777,23 8,22.776999 8,22.5 v -1 C 8,21.223001 7.777,21 7.5,21 Z m 3,0 C 9.223,21 9,21.223001 9,21.5 v 1 C 9,22.776999 9.223,23 9.5,23 h 1 c 0.277,0 0.5,-0.223001 0.5,-0.5 v -1 C 11,21.223001 10.777,21 10.5,21 Z m 3,0 C 12.223,21 12,21.223 12,21.5 v 1 c 0,0.277 0.223,0.5 0.5,0.5 h 7 c 0.277,0 0.5,-0.223 0.5,-0.5 v -1 C 20,21.223 19.777,21 19.5,21 Z m 9,0 C 21.223,21 21,21.223001 21,21.5 v 1 c 0,0.276999 0.223,0.5 0.5,0.5 h 1 c 0.277,0 0.5,-0.223001 0.5,-0.5 v -1 C 23,21.223001 22.777,21 22.5,21 Z m 3,0 C 24.223,21 24,21.223001 24,21.5 v 1 c 0,0.276999 0.223,0.5 0.5,0.5 h 1 c 0.277,0 0.5,-0.223001 0.5,-0.5 v -1 C 26,21.223001 25.777,21 25.5,21 Z"/>
 </g>
 <g id="input-keyboard-virtual-off" transform="translate(192)">
  <rect  style="opacity:0.001" width="32" height="32" x="0" y="0"/>
  <path  style="opacity:0.5;fill:#232627" d="M 7.1992188,7 C 5.4264186,7 4,8.4116812 4,10.166016 V 21.833984 C 4,23.588319 5.4264185,25 7.1992188,25 H 24.800781 C 26.573581,25 28,23.588319 28,21.833984 V 10.166016 C 28,8.4116812 26.573581,7 24.800781,7 Z m 0,1 H 24.800781 C 26.042469,8 27,8.9540337 27,10.166016 V 21.833984 C 27,23.045967 26.042469,24 24.800781,24 H 7.1992188 C 5.9575305,24 5,23.045968 5,21.833984 V 10.166016 C 5,8.9540333 5.9575307,8 7.1992188,8 Z M 6.5,9 C 6.223,9 6,9.223001 6,9.5 v 1 C 6,10.776999 6.2230001,11 6.5,11 h 1 C 7.777,11 8,10.776999 8,10.5 v -1 C 8,9.223001 7.777,9 7.5,9 Z m 3,0 C 9.223,9 9,9.223001 9,9.5 v 1 C 9,10.776999 9.223,11 9.5,11 h 1 c 0.277,0 0.5,-0.223001 0.5,-0.5 v -1 C 11,9.223001 10.777,9 10.5,9 Z m 3,0 C 12.223,9 12,9.223001 12,9.5 v 1 c 0,0.276999 0.223,0.5 0.5,0.5 h 1 c 0.277,0 0.5,-0.223001 0.5,-0.5 v -1 C 14,9.223001 13.777,9 13.5,9 Z m 3,0 C 15.223,9 15,9.223001 15,9.5 v 1 c 0,0.276999 0.223,0.5 0.5,0.5 h 1 c 0.277,0 0.5,-0.223001 0.5,-0.5 v -1 C 17,9.223001 16.777,9 16.5,9 Z m 3,0 C 18.223,9 18,9.223001 18,9.5 v 1 c 0,0.276999 0.223,0.5 0.5,0.5 h 1 c 0.277,0 0.5,-0.223001 0.5,-0.5 v -1 C 20,9.223001 19.777,9 19.5,9 Z m 3,0 C 21.223,9 21,9.223001 21,9.5 v 1 c 0,0.276999 0.223,0.5 0.5,0.5 h 1 c 0.277,0 0.5,-0.223001 0.5,-0.5 v -1 C 23,9.223001 22.777,9 22.5,9 Z m 3,0 C 24.223,9 24,9.223001 24,9.5 v 1 c 0,0.276999 0.223,0.5 0.5,0.5 h 1 c 0.277,0 0.5,-0.223001 0.5,-0.5 v -1 C 26,9.223001 25.777,9 25.5,9 Z m -18,3 C 6.223,12 6,12.223001 6,12.5 v 1 C 6,13.776999 6.2230001,14 6.5,14 h 1 C 7.777,14 8,13.776999 8,13.5 v -1 C 8,12.223001 7.777,12 7.5,12 Z m 3,0 C 9.223,12 9,12.223001 9,12.5 v 1 C 9,13.776999 9.223,14 9.5,14 h 1 c 0.277,0 0.5,-0.223001 0.5,-0.5 v -1 C 11,12.223001 10.777,12 10.5,12 Z m 3,0 C 12.223,12 12,12.223001 12,12.5 v 1 c 0,0.276999 0.223,0.5 0.5,0.5 h 1 c 0.277,0 0.5,-0.223001 0.5,-0.5 v -1 C 14,12.223001 13.777,12 13.5,12 Z m 3,0 C 15.223,12 15,12.223001 15,12.5 v 1 c 0,0.276999 0.223,0.5 0.5,0.5 h 1 c 0.277,0 0.5,-0.223001 0.5,-0.5 v -1 C 17,12.223001 16.777,12 16.5,12 Z m 3,0 C 18.223,12 18,12.223001 18,12.5 v 1 c 0,0.276999 0.223,0.5 0.5,0.5 h 1 c 0.277,0 0.5,-0.223001 0.5,-0.5 v -1 C 20,12.223001 19.777,12 19.5,12 Z m 3,0 C 21.223,12 21,12.223001 21,12.5 v 1 c 0,0.276999 0.223,0.5 0.5,0.5 h 1 c 0.277,0 0.5,-0.223001 0.5,-0.5 v -1 C 23,12.223001 22.777,12 22.5,12 Z m 3,0 C 24.223,12 24,12.223001 24,12.5 v 1 c 0,0.276999 0.223,0.5 0.5,0.5 h 1 c 0.277,0 0.5,-0.223001 0.5,-0.5 v -1 C 26,12.223001 25.777,12 25.5,12 Z m -18,3 C 6.223,15 6,15.223001 6,15.5 v 1 C 6,16.776999 6.2230001,17 6.5,17 h 1 C 7.777,17 8,16.776999 8,16.5 v -1 C 8,15.223001 7.777,15 7.5,15 Z m 3,0 C 9.223,15 9,15.223001 9,15.5 v 1 C 9,16.776999 9.223,17 9.5,17 h 1 c 0.277,0 0.5,-0.223001 0.5,-0.5 v -1 C 11,15.223001 10.777,15 10.5,15 Z m 3,0 C 12.223,15 12,15.223001 12,15.5 v 1 c 0,0.276999 0.223,0.5 0.5,0.5 h 1 c 0.277,0 0.5,-0.223001 0.5,-0.5 v -1 C 14,15.223001 13.777,15 13.5,15 Z m 3,0 C 15.223,15 15,15.223001 15,15.5 v 1 c 0,0.276999 0.223,0.5 0.5,0.5 h 1 c 0.277,0 0.5,-0.223001 0.5,-0.5 v -1 C 17,15.223001 16.777,15 16.5,15 Z m 3,0 C 18.223,15 18,15.223001 18,15.5 v 1 c 0,0.276999 0.223,0.5 0.5,0.5 h 1 c 0.277,0 0.5,-0.223001 0.5,-0.5 v -1 C 20,15.223001 19.777,15 19.5,15 Z m 3,0 C 21.223,15 21,15.223001 21,15.5 v 1 c 0,0.276999 0.223,0.5 0.5,0.5 h 1 c 0.277,0 0.5,-0.223001 0.5,-0.5 v -1 C 23,15.223001 22.777,15 22.5,15 Z m 3.25,0 C 24.3345,15 24,15.223 24,15.5 V 18 H 21.5 C 21.223,18 21,18.223 21,18.5 v 1 c 0,0.277 0.223,0.5 0.5,0.5 h 2.25 1.5 0.25 c 0.277,0 0.5,-0.223 0.5,-0.5 v -1 -3 C 26,15.223 25.6655,15 25.25,15 Z M 6.5,18 C 6.223,18 6,18.223001 6,18.5 v 1 C 6,19.776999 6.2230001,20 6.5,20 h 1 C 7.777,20 8,19.776999 8,19.5 v -1 C 8,18.223001 7.777,18 7.5,18 Z m 3,0 C 9.223,18 9,18.223001 9,18.5 v 1 C 9,19.776999 9.223,20 9.5,20 h 1 c 0.277,0 0.5,-0.223001 0.5,-0.5 v -1 C 11,18.223001 10.777,18 10.5,18 Z m 3,0 C 12.223,18 12,18.223001 12,18.5 v 1 c 0,0.276999 0.223,0.5 0.5,0.5 h 1 c 0.277,0 0.5,-0.223001 0.5,-0.5 v -1 C 14,18.223001 13.777,18 13.5,18 Z m 3,0 C 15.223,18 15,18.223001 15,18.5 v 1 c 0,0.276999 0.223,0.5 0.5,0.5 h 1 c 0.277,0 0.5,-0.223001 0.5,-0.5 v -1 C 17,18.223001 16.777,18 16.5,18 Z m 3,0 C 18.223,18 18,18.223001 18,18.5 v 1 c 0,0.276999 0.223,0.5 0.5,0.5 h 1 c 0.277,0 0.5,-0.223001 0.5,-0.5 v -1 C 20,18.223001 19.777,18 19.5,18 Z m -12,3 C 6.223,21 6,21.223001 6,21.5 v 1 C 6,22.776999 6.2230001,23 6.5,23 h 1 C 7.777,23 8,22.776999 8,22.5 v -1 C 8,21.223001 7.777,21 7.5,21 Z m 3,0 C 9.223,21 9,21.223001 9,21.5 v 1 C 9,22.776999 9.223,23 9.5,23 h 1 c 0.277,0 0.5,-0.223001 0.5,-0.5 v -1 C 11,21.223001 10.777,21 10.5,21 Z m 3,0 C 12.223,21 12,21.223 12,21.5 v 1 c 0,0.277 0.223,0.5 0.5,0.5 h 7 c 0.277,0 0.5,-0.223 0.5,-0.5 v -1 C 20,21.223 19.777,21 19.5,21 Z m 9,0 C 21.223,21 21,21.223001 21,21.5 v 1 c 0,0.276999 0.223,0.5 0.5,0.5 h 1 c 0.277,0 0.5,-0.223001 0.5,-0.5 v -1 C 23,21.223001 22.777,21 22.5,21 Z m 3,0 C 24.223,21 24,21.223001 24,21.5 v 1 c 0,0.276999 0.223,0.5 0.5,0.5 h 1 c 0.277,0 0.5,-0.223001 0.5,-0.5 v -1 C 26,21.223001 25.777,21 25.5,21 Z"/>
 </g>
 <g id="input-mouse-battery" transform="translate(224)">
  <rect  style="opacity:0.001" width="32" height="32" x="0" y="0" ry="0"/>
  <path  style="opacity:1;fill:#232627" d="M 16.5,4 C 11.791001,4 8,8.0139991 8,13 v 6 c 0,4.986 3.791001,9 8.5,9 4.709,0 8.5,-4.014 8.5,-9 V 13 C 25,8.0139991 21.209,4 16.5,4 Z M 16,5.0273438 V 12 H 9.0625 C 9.4998278,8.1852358 12.40274,5.2774579 16,5.0273438 Z m 1,0 C 20.597261,5.277458 23.500172,8.1852359 23.9375,12 H 17 Z M 9,13 h 7 1 7 v 6 c 0,4.479114 -3.359273,8 -7.5,8 C 12.359274,27 9,23.479114 9,19 Z m 8,2 -3.5,6 H 16 v 4 l 3.5,-6 H 17 Z"/>
 </g>
</svg>
