<svg xmlns="http://www.w3.org/2000/svg" width="32" height="32" version="1.1">
 <g id="22-22-kalarm" transform="translate(0,-22)">
  <rect  style="opacity:0.001" width="22" height="22" x="0" y="0"/>
  <path  style="opacity:1;fill:#232627" d="m 11,3 a 1,1 0 0 0 -0.380859,0.076172 c -0.0055,0.00227 -0.01019,0.00545 -0.01563,0.00781 a 1,1 0 0 0 -0.308594,0.2070312 c -0.0013,0.00127 -0.0026,0.00263 -0.0039,0.00391 A 1,1 0 0 0 10.078125,3.6113281 1,1 0 0 0 10,4 1,1 0 0 0 10.002,4.070312 c 1.18e-4,0.00195 -1.31e-4,0.00391 0,0.00586 C 4.8506462,4.78101 7.3037909,11.091484 4.5175781,14.941406 4.0342448,15.573922 3,16 3,16.5 3,16.776142 3.2238576,17 3.5,17 H 4.5 8 11 11.002 13 14.087891 A 1.5,1.5 0 0 0 14,17.5 1.5,1.5 0 0 0 15.5,19 1.5,1.5 0 0 0 17,17.5 1.5,1.5 0 0 0 16.912109,17 h 0.589844 1 c 0.276142,0 0.5,-0.223858 0.5,-0.5 0,-0.5 -1.034195,-0.926078 -1.517578,-1.558594 C 14.698162,11.091484 17.151304,4.7810099 12,4.0761719 c 0.0018,-0.025357 0.0023,-0.050766 0.002,-0.076172 0,-0.00414 -0.0019,-0.0076 -0.002,-0.011719 A 1,1 0 0 0 11.92773,3.6269528 c -0.0047,-0.011527 -0.01055,-0.021894 -0.01563,-0.033203 a 1,1 0 0 0 -0.195312,-0.2910156 1,1 0 0 0 -0.0039,-0.00391 c -0.0039,-0.00398 -0.0077,-0.0078 -0.01172,-0.011719 A 1,1 0 0 0 11.39648,3.082027 1,1 0 0 0 11.39058,3.078117 c -0.0012,-4.888e-4 -0.0027,4.846e-4 -0.0039,0 A 1,1 0 0 0 11.001953,3 1,1 0 0 0 11,3 Z m 0,2 a 1,1 0 0 0 0.002,0 c 1.559515,0 2.246226,0.3806738 2.722656,0.9511719 0.476432,0.570498 0.756977,1.507444 0.955079,2.6953125 C 15.041842,10.818089 15.20223,13.778369 17.140625,16 H 15.5 13 11.001953 11 8 4.8613281 C 6.7997227,13.778369 6.9601066,10.818089 7.3222656,8.6464844 7.5203667,7.4586159 7.8009119,6.5216699 8.2773438,5.9511719 8.7537736,5.3806738 9.4404852,5 11,5 Z"/>
 </g>
 <g id="22-22-kalarm-disabled" transform="translate(32,-22)">
  <rect  style="opacity:0.001" width="22" height="22" x="0" y="0"/>
  <path  style="opacity:0.5;fill:#232627" d="m 11,3 a 1,1 0 0 0 -0.380859,0.076172 c -0.0055,0.00227 -0.01019,0.00545 -0.01563,0.00781 a 1,1 0 0 0 -0.308594,0.2070312 c -0.0013,0.00127 -0.0026,0.00263 -0.0039,0.00391 A 1,1 0 0 0 10.078125,3.6113281 1,1 0 0 0 10,4 1,1 0 0 0 10.002,4.070312 c 1.18e-4,0.00195 -1.31e-4,0.00391 0,0.00586 C 4.8506462,4.78101 7.3037909,11.091484 4.5175781,14.941406 4.0342448,15.573922 3,16 3,16.5 3,16.776142 3.2238576,17 3.5,17 H 4.5 8 11 11.002 13 14.087891 A 1.5,1.5 0 0 0 14,17.5 1.5,1.5 0 0 0 15.5,19 1.5,1.5 0 0 0 17,17.5 1.5,1.5 0 0 0 16.912109,17 h 0.589844 1 c 0.276142,0 0.5,-0.223858 0.5,-0.5 0,-0.5 -1.034195,-0.926078 -1.517578,-1.558594 C 14.698162,11.091484 17.151304,4.7810099 12,4.0761719 c 0.0018,-0.025357 0.0023,-0.050766 0.002,-0.076172 0,-0.00414 -0.0019,-0.0076 -0.002,-0.011719 A 1,1 0 0 0 11.92773,3.6269528 c -0.0047,-0.011527 -0.01055,-0.021894 -0.01563,-0.033203 a 1,1 0 0 0 -0.195312,-0.2910156 1,1 0 0 0 -0.0039,-0.00391 c -0.0039,-0.00398 -0.0077,-0.0078 -0.01172,-0.011719 A 1,1 0 0 0 11.39648,3.082027 1,1 0 0 0 11.39058,3.078117 c -0.0012,-4.888e-4 -0.0027,4.846e-4 -0.0039,0 A 1,1 0 0 0 11.001953,3 1,1 0 0 0 11,3 Z m 0,2 a 1,1 0 0 0 0.002,0 c 1.559515,0 2.246226,0.3806738 2.722656,0.9511719 0.476432,0.570498 0.756977,1.507444 0.955079,2.6953125 C 15.041842,10.818089 15.20223,13.778369 17.140625,16 H 15.5 13 11.001953 11 8 4.8613281 C 6.7997227,13.778369 6.9601066,10.818089 7.3222656,8.6464844 7.5203667,7.4586159 7.8009119,6.5216699 8.2773438,5.9511719 8.7537736,5.3806738 9.4404852,5 11,5 Z"/>
 </g>
 <g id="22-22-kalarm-partdisabled" transform="translate(64,-22)">
  <rect  style="opacity:0.001" width="22" height="22" x="0" y="0"/>
  <path  style="opacity:0.5;fill:#232627" d="m 11,3 a 1,1 0 0 0 -0.380859,0.076172 c -0.0055,0.00227 -0.01019,0.00545 -0.01563,0.00781 a 1,1 0 0 0 -0.308594,0.2070312 c -0.0013,0.00127 -0.0026,0.00263 -0.0039,0.00391 A 1,1 0 0 0 10.078125,3.6113281 1,1 0 0 0 10,4 1,1 0 0 0 10.002,4.070312 c 1.18e-4,0.00195 -1.31e-4,0.00391 0,0.00586 C 4.8506462,4.78101 7.3037909,11.091484 4.5175781,14.941406 4.0342448,15.573922 3,16 3,16.5 3,16.776142 3.2238576,17 3.5,17 H 4.5 8 11 11.002 13 14.087891 A 1.5,1.5 0 0 0 14,17.5 1.5,1.5 0 0 0 15.5,19 1.5,1.5 0 0 0 17,17.5 1.5,1.5 0 0 0 16.912109,17 h 0.589844 1 c 0.276142,0 0.5,-0.223858 0.5,-0.5 0,-0.5 -1.034195,-0.926078 -1.517578,-1.558594 C 14.698162,11.091484 17.151304,4.7810099 12,4.0761719 c 0.0018,-0.025357 0.0023,-0.050766 0.002,-0.076172 0,-0.00414 -0.0019,-0.0076 -0.002,-0.011719 A 1,1 0 0 0 11.92773,3.6269528 c -0.0047,-0.011527 -0.01055,-0.021894 -0.01563,-0.033203 a 1,1 0 0 0 -0.195312,-0.2910156 1,1 0 0 0 -0.0039,-0.00391 c -0.0039,-0.00398 -0.0077,-0.0078 -0.01172,-0.011719 A 1,1 0 0 0 11.39648,3.082027 1,1 0 0 0 11.39058,3.078117 c -0.0012,-4.888e-4 -0.0027,4.846e-4 -0.0039,0 A 1,1 0 0 0 11.001953,3 1,1 0 0 0 11,3 Z m 0,2 a 1,1 0 0 0 0.002,0 c 1.559515,0 2.246226,0.3806738 2.722656,0.9511719 0.476432,0.570498 0.756977,1.507444 0.955079,2.6953125 C 15.041842,10.818089 15.20223,13.778369 17.140625,16 H 15.5 13 11.001953 11 8 4.8613281 C 6.7997227,13.778369 6.9601066,10.818089 7.3222656,8.6464844 7.5203667,7.4586159 7.8009119,6.5216699 8.2773438,5.9511719 8.7537736,5.3806738 9.4404852,5 11,5 Z"/>
 </g>
 <g id="kalarm">
  <rect  style="opacity:0.001" width="32" height="32" x="0" y="0"/>
  <path  style="opacity:1;fill:#232627" d="M 16 4 C 14.99867 4 14.177554 4.7387632 14.03125 5.6992188 C 6.9359965 7.0787658 10.365283 16.260096 6.2753906 21.912109 C 5.5504801 22.860883 4 23.5 4 24.25 C 4 24.664212 4.3358376 25 4.75 25 L 6.25 25 L 11.5 25 L 15.998047 25 L 16.001953 25 L 18.998047 25 L 20.078125 25 C 20.031935 25.137803 20 25.295798 20 25.5 C 20 26.880712 21.119288 28 22.5 28 C 23.880712 28 25 26.880712 25 25.5 C 25 25.295798 24.968065 25.137803 24.921875 25 L 25.75 25 L 27.25 25 C 27.664163 25 28 24.664212 28 24.25 C 28 23.5 26.449594 22.860883 25.724609 21.912109 C 21.634714 16.260096 25.063948 7.0787709 17.96875 5.6992188 C 17.822446 4.7387632 17.00133 4 16 4 z M 15.935547 6.5 C 16.607415 6.50104 17.355469 6.6054688 17.355469 6.6054688 L 17.359375 6.6054688 L 17.363281 6.6054688 C 19.085651 6.8411646 19.984383 7.4602635 20.642578 8.3789062 C 21.300773 9.2975493 21.682317 10.611993 21.957031 12.167969 C 22.506459 15.279921 22.590864 19.287512 24.914062 22.498047 L 24.921875 22.509766 L 24.929688 22.519531 C 25.435212 23.181102 26.072603 23.597542 26.519531 23.945312 C 26.549131 23.968342 26.554271 23.97777 26.582031 24 L 25.75 24 L 18.998047 24 L 16.001953 24 L 15.998047 24 L 11.5 24 L 6.25 24 L 5.4179688 24 C 5.4457297 23.97777 5.4508736 23.968343 5.4804688 23.945312 C 5.9274116 23.597535 6.5648066 23.181145 7.0703125 22.519531 L 7.078125 22.509766 L 7.0859375 22.498047 C 9.4091411 19.28751 9.4935479 15.27992 10.042969 12.167969 C 10.317679 10.611993 10.699225 9.2975478 11.357422 8.3789062 C 12.015619 7.4602649 12.914332 6.8411636 14.636719 6.6054688 L 15.046875 6.5488281 L 15.050781 6.5488281 C 15.296844 6.5240722 15.624436 6.4995168 15.935547 6.5 z"/>
 </g>
 <g id="kalarm-disabled" transform="translate(32)">
  <rect  style="opacity:0.001" width="32" height="32" x="0" y="0"/>
  <path  style="opacity:0.5;fill:#232627" d="M 16,4 C 14.99867,4 14.177554,4.7387632 14.03125,5.6992188 6.9359965,7.0787658 10.365283,16.260096 6.2753906,21.912109 5.5504801,22.860883 4,23.5 4,24.25 4,24.664212 4.3358376,25 4.75,25 h 1.5 5.25 4.498047 0.0039 2.996094 1.080078 C 20.031935,25.137803 20,25.295798 20,25.5 c 0,1.380712 1.119288,2.5 2.5,2.5 1.380712,0 2.5,-1.119288 2.5,-2.5 0,-0.204202 -0.03194,-0.362197 -0.07813,-0.5 H 25.75 27.25 C 27.664163,25 28,24.664212 28,24.25 28,23.5 26.449594,22.860883 25.724609,21.912109 21.634714,16.260096 25.063948,7.0787709 17.96875,5.6992188 17.822446,4.7387632 17.00133,4 16,4 Z m -0.06445,2.5 c 0.671868,0.00104 1.419922,0.1054688 1.419922,0.1054688 h 0.0039 0.0039 c 1.72237,0.2356958 2.621102,0.8547947 3.279297,1.7734374 0.658195,0.9186431 1.039739,2.2330868 1.314453,3.7890628 0.549428,3.111952 0.633833,7.119543 2.957031,10.330078 l 0.0078,0.01172 0.0078,0.0098 c 0.505524,0.661571 1.142915,1.078011 1.589843,1.425781 0.0296,0.02303 0.03474,0.03246 0.0625,0.05469 H 25.75 18.998047 16.001953 15.998047 11.5 6.25 5.4179688 c 0.027761,-0.02223 0.032905,-0.03166 0.0625,-0.05469 0.4469428,-0.347777 1.0843378,-0.764167 1.5898437,-1.425781 l 0.00781,-0.0098 0.00781,-0.01172 C 9.4091411,19.28751 9.4935479,15.27992 10.042969,12.167969 c 0.27471,-1.555976 0.656256,-2.8704212 1.314453,-3.7890628 0.658197,-0.9186413 1.55691,-1.5377426 3.279297,-1.7734374 l 0.410156,-0.056641 h 0.0039 C 15.296844,6.5240722 15.624436,6.4995168 15.935547,6.5 Z"/>
 </g>
 <g id="kalarm-partdisabled" transform="translate(64)">
  <rect  style="opacity:0.001" width="32" height="32" x="0" y="0"/>
  <path  style="opacity:0.5;fill:#232627" d="M 16,4 C 14.99867,4 14.177554,4.7387632 14.03125,5.6992188 6.9359965,7.0787658 10.365283,16.260096 6.2753906,21.912109 5.5504801,22.860883 4,23.5 4,24.25 4,24.664212 4.3358376,25 4.75,25 h 1.5 5.25 4.498047 0.0039 2.996094 1.080078 C 20.031935,25.137803 20,25.295798 20,25.5 20,26.880712 21.119288,28 22.5,28 23.880712,28 25,26.880712 25,25.5 25,25.295798 24.96806,25.137803 24.92187,25 H 25.75 27.25 C 27.664163,25 28,24.664212 28,24.25 28,23.5 26.449594,22.860883 25.724609,21.912109 21.634714,16.260096 25.063948,7.0787709 17.96875,5.6992188 17.822446,4.7387632 17.00133,4 16,4 Z m -0.06445,2.5 c 0.671868,0.00104 1.419922,0.1054688 1.419922,0.1054688 h 0.0039 0.0039 c 1.72237,0.2356958 2.621102,0.8547947 3.279297,1.7734374 0.658195,0.9186431 1.039739,2.2330868 1.314453,3.7890628 0.549428,3.111952 0.633833,7.119543 2.957031,10.330078 l 0.0078,0.01172 0.0078,0.0098 c 0.505524,0.661571 1.142915,1.078011 1.589843,1.425781 0.0296,0.02303 0.03474,0.03246 0.0625,0.05469 H 25.75 18.998047 16.001953 15.998047 11.5 6.25 5.4179688 c 0.027761,-0.02223 0.032905,-0.03166 0.0625,-0.05469 0.4469428,-0.347777 1.0843378,-0.764167 1.5898437,-1.425781 l 0.00781,-0.0098 0.00781,-0.01172 C 9.4091411,19.28751 9.4935479,15.27992 10.042969,12.167969 c 0.27471,-1.555976 0.656256,-2.8704212 1.314453,-3.7890628 0.658197,-0.9186413 1.55691,-1.5377426 3.279297,-1.7734374 l 0.410156,-0.056641 h 0.0039 C 15.296844,6.5240722 15.624436,6.4995168 15.935547,6.5 Z"/>
 </g>
</svg>
