<svg xmlns="http://www.w3.org/2000/svg" width="32" height="32" version="1.1">
 <g id="22-22-kget" transform="translate(-294,-524.35999)">
  <rect  style="opacity:0.001" width="22" height="22" x="326" y="534.36"/>
  <path  style="opacity:1;fill:#232627" transform="translate(326,534.36218)" d="M 8.8300781,2 C 8.3568681,2.00005 8.00005,2.3972687 8,2.8867188 V 8 H 5.859375 C 5.082325,7.998 4.7035713,8.9844362 5.2695312,9.5351562 l 5.1406248,5.2226558 c 0.33045,0.323522 0.849238,0.323522 1.179688,0 L 16.730469,9.5351562 C 17.296429,8.9844364 16.917675,7.99822 16.140625,8 H 14 V 2.8867188 C 13.99995,2.3972687 13.643132,2.00005 13.169922,2 Z M 9,3 h 4 v 5 a 1.0001,1.0001 0 0 0 1,1 h 1.855469 L 11,13.931641 6.1445312,9 H 8 A 1.0001,1.0001 0 0 0 9,8 Z m 7.476562,9.990234 a 0.50005,0.50005 0 0 0 -0.3125,0.140625 L 11,17.824219 5.8359375,13.130859 a 0.50005,0.50005 0 0 0 -0.3652344,-0.134765 0.50005,0.50005 0 0 0 -0.3066406,0.875 L 9.7050781,18 H 5.5 a 0.50005,0.50005 0 1 0 0,1 H 10.982422 16.5 a 0.50005,0.50005 0 1 0 0,-1 h -4.205078 l 4.541016,-4.128906 a 0.50005,0.50005 0 0 0 -0.308594,-0.88086 0.50005,0.50005 0 0 0 -0.05078,0 z"/>
 </g>
 <g id="kget">
  <rect  style="opacity:0.001" width="32" height="32" x="0" y="0"/>
  <path  style="opacity:1;fill:#232627" d="M 13.226562 4 C 12.556407 4.0000693 12.000071 4.5488797 12 5.2265625 L 12 12 L 9.2207031 12 C 8.1202509 11.9973 7.5832575 13.370297 8.3847656 14.132812 L 15.666016 21.664062 C 16.133995 22.112005 16.866004 22.112005 17.333984 21.664062 L 24.615234 14.132812 C 25.416743 13.370298 24.87975 11.997536 23.779297 12 L 21 12 L 21 5.2265625 C 20.999929 4.5488797 20.543203 4.0000693 19.873047 4 L 13.226562 4 z M 13.226562 5 L 19.873047 5 C 19.996805 5.0000128 19.999976 4.9977794 20 5.2265625 L 20 13 L 23.78125 13 C 23.915105 12.9997 23.941061 13.04399 23.980469 13.144531 C 24.019879 13.245076 24.030344 13.310579 23.927734 13.408203 L 23.912109 13.423828 L 16.642578 20.941406 C 16.551748 21.028346 16.448249 21.028346 16.357422 20.941406 L 9.0878906 13.423828 L 9.0722656 13.408203 C 8.9696869 13.310615 8.9801134 13.245108 9.0195312 13.144531 C 9.0589493 13.043954 9.0850012 12.999672 9.21875 13 L 13 13 L 13 5.2265625 C 13.000014 5.0961539 13.102795 5.0000128 13.226562 5 z M 8.4609375 19.996094 A 0.50005 0.50005 0 0 0 8.1699219 20.876953 L 15.167969 27 L 8.5 27 A 0.50005 0.50005 0 1 0 8.5 28 L 16.490234 28 L 24.5 28 A 0.50005 0.50005 0 1 0 24.5 27 L 17.832031 27 L 24.830078 20.876953 A 0.50104396 0.50104396 0 0 0 24.169922 20.123047 L 16.5 26.835938 L 8.8300781 20.123047 A 0.50005 0.50005 0 0 0 8.4609375 19.996094 z"/>
 </g>
</svg>
