<svg xmlns="http://www.w3.org/2000/svg" width="32" height="32" version="1.1">
 <g id="22-22-kleopatra" transform="translate(32,10)">
  <rect  style="opacity:0.001" width="22" height="22" x="0" y="0"/>
  <path  style="opacity:1;fill:#232627" d="m 8.9981993,2.9999888 c -3.2205386,0 -6.7445211,2.05111 -6.7445211,2.05111 -0.5699133,0.33089 -0.080751,1.18186 0.4958345,0.86271 0,0 3.4723602,-1.92124 6.2486866,-1.92124 1.3603997,0 3.2151167,0.19522 5.0891367,0.81557 1.87402,0.62039 3.767345,1.26596 5.405377,1.26596 0.676383,0.0112 0.676383,-1.00268 0,-0.99258 -1.360399,0 -3.215116,-0.59324 -5.089136,-1.21363 -1.874021,-0.62036 -3.767345,-0.8679 -5.4053777,-0.8679 z m 0.4997385,4.06831 v 0.002 c -0.082846,9.9e-4 -0.165589,0.008 -0.247917,0.015 -0.00521,-3e-5 -0.010426,-3e-5 -0.015601,0 -4.1894806,0.16545 -7.1329896,4.0546902 -7.1329896,4.0546902 -0.1804661,0.23897 -0.1090296,0.581 0.1522641,0.72897 0,0 0.8078743,0.73901 2.7466109,1.32992 v 5.28612 c -0.00956,0.67115 1.0090391,0.67115 0.9994777,0 v -5.02055 c 0.6895931,0.16769 1.9236274,0.30237 2.7036649,0.37805 0.115782,0.13617 0.6423894,0.75045 1.4406522,1.54319 0.891371,0.88529 2.025452,1.90233 3.129225,2.45047 2.046369,1.0161 3.584895,1.39449 4.86074,1.02556 0.587015,-0.16994 1.042083,-0.39334 1.370377,-0.72896 0.328296,-0.33539 0.488026,-0.68731 0.488026,-1.13724 0,-0.53639 -0.271417,-1.00043 -0.63053,-1.35708 -0.359113,-0.35677 -0.828267,-0.62812 -1.368425,-0.62812 -1.125969,0.13055 -1.956783,0.71339 -1.998955,1.48887 -0.0075,0.52496 0.613972,0.63931 0.880568,0.34327 0.476871,-0.94505 1.605442,-0.67558 1.78015,-0.50207 0.213813,0.21234 0.337713,0.48991 0.337713,0.65529 0,0.2521 -0.05279,0.29151 -0.20497,0.44706 -0.152179,0.15569 -0.445526,0.32563 -0.935058,0.46722 -0.877249,0.2536 -2.183017,0.0112 -4.134558,-0.96157 -0.895181,-0.44459 -2.009926,-1.41252 -2.86764,-2.26435 -0.297845,-0.29562 -0.511018,-0.52931 -0.733992,-0.76967 4.135141,-0.0484 6.721087,-2.56418 9.534078,-3.49539 0.492074,-0.16469 0.435871,-0.8733202 -0.07613,-0.9596502 -2.958467,-0.48905 -4.388856,-0.98554 -5.643536,-1.48405 -1.19151,-0.47329 -2.284138,-0.85362 -4.1540783,-0.89177 -0.00846,-10e-4 -0.016923,-10e-4 -0.025385,-0.002 -0.00129,-1.2e-4 -0.00261,1.5e-4 -0.00389,0 -0.01171,-7.2e-4 -0.023421,-9.9e-4 -0.035131,-0.002 -0.071471,-0.008 -0.1430143,-0.0112 -0.2147312,-0.0112 z m 2.1473162,1.21745 c 0.604402,0.16131 1.392303,0.40314 1.915013,0.61072 1.000305,0.39732 2.425751,0.77842 4.441038,1.2184402 -2.5276,1.16271 -4.783979,2.81103 -8.0036283,2.81103 -3.2895984,0 -5.8512635,-1.24765 -6.6293469,-1.64787 0.3958824,-0.46883 2.1382756,-1.9609902 3.8944485,-2.8294702 -0.1723772,0.34252 -0.2625777,0.72015 -0.2635334,1.1031 0,1.3705202 1.1187034,2.3816502 2.4986937,2.3816502 1.3799904,0 2.4986944,-1.01113 2.4986944,-2.3816502 -5.35e-4,-0.44564 -0.121909,-0.88295 -0.351379,-1.26595 z"/>
 </g>
 <g id="kleopatra">
  <rect  style="opacity:0.001" width="32" height="32" x="0" y="0"/>
  <path  style="opacity:1;fill:#232627" d="M 13.119141 4 C 11.231315 3.9828439 8.8164271 4.7585249 6.8242188 5.5214844 C 4.8320104 6.2844438 3.2792969 7.0507813 3.2792969 7.0507812 A 0.50050713 0.50050713 0 0 0 3.7207031 7.9492188 C 3.7207031 7.9492188 5.2364662 7.2000249 7.1816406 6.4550781 C 9.1268151 5.7101313 11.517242 4.9855311 13.109375 5 C 16.756023 5.03314 19.276893 5.7397251 21.685547 6.4667969 C 24.094201 7.1938686 26.401642 7.9489945 29.492188 8 A 0.50006102 0.50006102 0 1 0 29.507812 7 C 26.571212 6.951535 24.396954 6.24097 21.974609 5.5097656 C 19.552265 4.7785612 16.891857 4.0342853 13.119141 4 z M 14.25 10 L 14.25 10.003906 C 14.125656 10.005306 14.002471 10.016934 13.878906 10.027344 C 13.871106 10.027301 13.863239 10.027301 13.855469 10.027344 C 7.5675065 10.273268 3.1503905 16.054687 3.1503906 16.054688 C 2.8795302 16.409882 2.9867321 16.916782 3.3789062 17.136719 C 4.909121 18.1764 6.2611725 18.873733 8 19.322266 L 8 27.5 A 0.50005 0.50005 0 1 0 9 27.5 L 9 19.535156 C 10.201373 19.762925 11.596944 19.902126 13.339844 19.960938 C 13.402553 20.035928 14.464392 21.304545 15.814453 22.609375 C 17.204791 23.953132 18.943051 25.490665 20.476562 26.302734 C 22.102003 27.163484 24.343417 28.283331 26.382812 27.841797 C 27.053224 27.696651 27.864885 27.454895 28.568359 27.050781 C 29.271834 26.646668 29.91491 26.034607 29.998047 25.162109 C 30.066947 24.439055 29.769997 23.739971 29.326172 23.173828 C 28.882346 22.607685 28.278153 22.15539 27.583984 22.009766 C 26.455578 21.773046 25.532831 22.403794 24.953125 23.013672 C 24.373419 23.62355 24.052734 24.277344 24.052734 24.277344 C 23.717601 24.886082 24.663572 25.357002 24.947266 24.722656 C 24.947266 24.722656 25.217111 24.187722 25.677734 23.703125 C 26.138358 23.218528 26.705924 22.849055 27.378906 22.990234 C 27.760745 23.070334 28.216496 23.379549 28.539062 23.791016 C 28.861631 24.202482 29.037344 24.696943 29.001953 25.068359 C 28.961283 25.495189 28.628705 25.862824 28.070312 26.183594 C 27.51192 26.504364 26.77517 26.732244 26.169922 26.863281 C 24.655064 27.191251 22.533673 26.261036 20.945312 25.419922 C 19.604312 24.709797 17.871828 23.207054 16.509766 21.890625 C 15.757581 21.163641 15.141946 20.496518 14.689453 19.988281 C 14.906953 19.991037 15.092861 19.998975 15.320312 20 C 21.782087 20.02913 24.61432 16.671435 29.490234 14.982422 C 30.228785 14.737632 30.143459 13.683006 29.375 13.554688 C 24.934655 12.82778 22.787439 12.090577 20.904297 11.349609 C 18.575173 10.590455 17.016891 10.209622 15.164062 10.066406 A 3.5 3.5 0 0 0 14.5 10 A 3.5 3.5 0 0 0 14.326172 10.005859 C 14.299429 10.004911 14.276922 10.000861 14.25 10 z M 11.738281 11.357422 A 3.5 3.5 0 0 0 11 13.5 A 3.5 3.5 0 0 0 14.5 17 A 3.5 3.5 0 0 0 18 13.5 A 3.5 3.5 0 0 0 17.324219 11.439453 C 18.552463 11.688558 19.832631 12.002785 20.539062 12.279297 C 22.315891 12.978432 24.566637 13.692978 28.453125 14.380859 C 26.262542 15.247592 24.392527 16.334885 22.558594 17.238281 C 20.503996 18.250073 18.381245 19.013781 15.324219 19 C 9.1044511 18.971964 7.0523977 18.364043 4.1699219 16.445312 C 4.4454308 16.103965 7.4168085 12.483747 11.738281 11.357422 z"/>
 </g>
</svg>
