<svg xmlns="http://www.w3.org/2000/svg" width="32" height="32" version="1.1">
 <g id="22-22-kruler" transform="translate(32.000001,10.000001)">
  <rect  style="opacity:0.001" width="22" height="22" x="0" y="0"/>
  <path  style="opacity:1;fill:#232627" d="M 4,4 C 2.338,4 1,5.338 1,7 v 4 4 c 0,1.662 1.338,3 3,3 H 21 V 17 H 4 C 2.8747028,17 2,16.125297 2,15 V 11 7 C 2,5.874703 2.8747028,5 4,5 H 21 V 4 Z M 7.984375,5.9863281 A 1.0001,1.0001 0 0 0 7,7 v 4 a 1.0001,1.0001 0 1 0 2,0 V 7 A 1.0001,1.0001 0 0 0 7.984375,5.9863281 Z m 7,0 A 1.0001,1.0001 0 0 0 14,7 v 4 a 1.0001,1.0001 0 1 0 2,0 V 7 A 1.0001,1.0001 0 0 0 14.984375,5.9863281 Z M 3.4921875,5.9921875 A 0.50005,0.50005 0 0 0 3,6.5 v 2 a 0.50005,0.50005 0 1 0 1,0 v -2 A 0.50005,0.50005 0 0 0 3.4921875,5.9921875 Z m 2,0 A 0.50005,0.50005 0 0 0 5,6.5 v 2 a 0.50005,0.50005 0 1 0 1,0 v -2 A 0.50005,0.50005 0 0 0 5.4921875,5.9921875 Z m 5.0000005,0 A 0.50005,0.50005 0 0 0 10,6.5 v 2 a 0.50005,0.50005 0 1 0 1,0 v -2 A 0.50005,0.50005 0 0 0 10.492188,5.9921875 Z m 2,0 A 0.50005,0.50005 0 0 0 12,6.5 v 2 a 0.50005,0.50005 0 1 0 1,0 v -2 A 0.50005,0.50005 0 0 0 12.492188,5.9921875 Z m 5,0 C 17.216043,5.9964964 16.995679,6.2238556 17,6.5 v 2 c -0.0096,0.6761613 1.009563,0.6761613 1,0 v -2 C 18.0044,6.2177337 17.774453,5.9877704 17.492188,5.9921875 Z m 2,0 C 19.216043,5.9964964 18.995679,6.2238556 19,6.5 v 2 c -0.0096,0.6761613 1.009563,0.6761613 1,0 v -2 C 20.0044,6.2177337 19.774453,5.9877704 19.492188,5.9921875 Z"/>
 </g>
 <g id="kruler">
  <rect  style="opacity:0.001" width="32" height="32" x="0" y="0"/>
  <path  style="opacity:1;fill:#232627" d="M 6.1992188 6 C 3.8724188 6 2 7.9108694 2 10.285156 L 2 16 L 2 21.714844 C 2 24.089128 3.8724188 26 6.1992188 26 L 31 26 L 31 25 L 6.1992188 25 C 4.4200748 25 3 23.563159 3 21.714844 L 3 16 L 3 10.285156 C 3 8.4368379 4.4200748 7 6.1992188 7 L 31 7 L 31 6 L 6.1992188 6 z M 5.4921875 8.9863281 A 0.50005 0.50005 0 0 0 5 9.4921875 L 5 12.492188 A 0.50005 0.50005 0 1 0 6 12.492188 L 6 9.4921875 A 0.50005 0.50005 0 0 0 5.4921875 8.9863281 z M 8.4921875 8.9863281 A 0.50005 0.50005 0 0 0 8 9.4921875 L 8 12.492188 A 0.50005 0.50005 0 1 0 9 12.492188 L 9 9.4921875 A 0.50005 0.50005 0 0 0 8.4921875 8.9863281 z M 11.984375 8.9863281 A 1.0001 1.0001 0 0 0 11 10 L 11 16 A 1.0001 1.0001 0 1 0 13 16 L 13 10 A 1.0001 1.0001 0 0 0 11.984375 8.9863281 z M 15.492188 8.9863281 A 0.50005 0.50005 0 0 0 15 9.4921875 L 15 12.492188 A 0.50005 0.50005 0 1 0 16 12.492188 L 16 9.4921875 A 0.50005 0.50005 0 0 0 15.492188 8.9863281 z M 18.492188 8.9863281 A 0.50005 0.50005 0 0 0 18 9.4921875 L 18 12.492188 A 0.50005 0.50005 0 1 0 19 12.492188 L 19 9.4921875 A 0.50005 0.50005 0 0 0 18.492188 8.9863281 z M 21.984375 8.9863281 A 1.0001 1.0001 0 0 0 21 10 L 21 16 A 1.0001 1.0001 0 1 0 23 16 L 23 10 A 1.0001 1.0001 0 0 0 21.984375 8.9863281 z M 25.492188 8.9863281 A 0.50005 0.50005 0 0 0 25 9.4921875 L 25 12.492188 A 0.50005 0.50005 0 1 0 26 12.492188 L 26 9.4921875 A 0.50005 0.50005 0 0 0 25.492188 8.9863281 z M 28.492188 8.9863281 A 0.50005 0.50005 0 0 0 28 9.4921875 L 28 12.492188 A 0.50005 0.50005 0 1 0 29 12.492188 L 29 9.4921875 A 0.50005 0.50005 0 0 0 28.492188 8.9863281 z"/>
 </g>
</svg>
