<?xml version="1.0" encoding="UTF-8" standalone="no"?>
<svg
   xmlns:dc="http://purl.org/dc/elements/1.1/"
   xmlns:cc="http://creativecommons.org/ns#"
   xmlns:rdf="http://www.w3.org/1999/02/22-rdf-syntax-ns#"
   xmlns:svg="http://www.w3.org/2000/svg"
   xmlns="http://www.w3.org/2000/svg"
   width="64"
   height="64"
   version="1.1"
   viewBox="0 0 64 64"
   id="svg275">
  <metadata
     id="metadata279">
    <rdf:RDF>
      <cc:Work
         rdf:about="">
        <dc:format>image/svg+xml</dc:format>
        <dc:type
           rdf:resource="http://purl.org/dc/dcmitype/StillImage" />
        <dc:title></dc:title>
      </cc:Work>
    </rdf:RDF>
  </metadata>
  <defs
     id="defs3">
    <style
       type="text/css"
       id="current-color-scheme">.ColorScheme-Text {
        color:#363636;
      }
      .ColorScheme-Background {
        color:#efefef;
      }
      .ColorScheme-Highlight {
        color:#3daee9;
      }
      .ColorScheme-ViewText {
        color:#363636;
      }
      .ColorScheme-ViewBackground {
        color:#fcfcfc;
      }
      .ColorScheme-ViewHover {
        color:#93cee9;
      }
      .ColorScheme-ViewFocus{
        color:#3daee9;
      }
      .ColorScheme-ButtonText {
        color:#363636;
      }
      .ColorScheme-ButtonBackground {
        color:#ffffff;
      }
      .ColorScheme-ButtonHover {
        color:#93cee9;
      }
      .ColorScheme-ButtonFocus{
        color:#3daee9;
      }</style>
  </defs>
  <g
     transform="translate(0 -988.36)"
     id="g273">
    <g
       id="32-32-osd-duplicate"
       transform="translate(384 507.36)">
      <rect
         width="32"
         height="32"
         fill="none"
         id="rect5" />
      <path
         class="ColorScheme-Text"
         transform="translate(-112,-32)"
         d="m125 36v9h1v-8h15v12h-9v1h10v-14h-17zm-11 10v14h17v-14h-17zm1 1h15v12h-15v-12z"
         fill="currentColor"
         id="path7" />
      <path
         class="ColorScheme-Highlight"
         transform="translate(-112,-32)"
         d="m128 39v6h1v-3h9v4h-6v1h7v-8h-11zm7 1h1v1h-1v-1zm2 0h1v1h-1v-1zm-20 9v8h11v-8h-11zm7 1h1v1h-1v-1zm2 0h1v1h-1v-1zm-8 2h9v4h-9v-4z"
         fill="currentColor"
         id="path9" />
    </g>
    <g
       id="48-48-osd-duplicate"
       transform="translate(336 491.36)">
      <rect
         width="48"
         height="48"
         fill="none"
         id="rect12" />
      <path
         class="ColorScheme-Text"
         transform="translate(-64,-16)"
         d="m80 21v14h1v-12.998l28-2e-3v16h-12v1 5 1h1 4v-1h-4v-5h12v-18h-30zm-14 15v18h12v5h-4v1h9 1 4v-1h-4v-5h12v-18h-30zm29 1v16h-13-1-14v-15.998l28-0.001953zm-16 17h4v5h-4v-5z"
         fill="currentColor"
         id="path14" />
      <path
         class="ColorScheme-Highlight"
         transform="translate(-64,-16)"
         d="m87 24v11h1v-6h2v6h1v-6h11v6h-5v1h6v-12h-16zm10 1h1v1h-1v-1zm2 0h1v1h-1v-1zm2 0h1v1h-1v-1zm-13 2h14v1h-14v-1zm-15 12v12h16v-12h-16zm10 1h1v1h-1v-1zm2 0h1v1h-1v-1zm2 0h1v1h-1v-1zm-13 2h14v1h-14v-1zm0 2h2v6h-2v-6zm3 0h11v6h-11v-6z"
         fill="currentColor"
         fill-rule="evenodd"
         id="path16" />
    </g>
    <g
       id="osd-duplicate"
       transform="translate(272 475.36)">
      <rect
         width="64"
         height="64"
         fill="none"
         id="rect19" />
      <path
         class="ColorScheme-Text"
         d="m26 11v14h1v-12.998l32-2e-3v18h-20v1h20v1h-13-1-6v1h1v4h-1v1h6 1 4v-1h-4v-4h14v-22h-34zm-22 15v22h14v4h-4v1h9 1 4v-1h-4v-4h14v-22h-34zm33 1v18h-32v-17.998l32-0.001953zm4 6h4v4h-4v-4zm-36 13h32v1h-13-1-18v-1zm14 2h4v4h-4v-4z"
         fill="currentColor"
         id="path21" />
      <path
         class="ColorScheme-Highlight"
         d="m35 15v10h1v-5h2v5h1v-5h11v6h-11v1h12v-12h-16zm10 1h1v1h-1v-1zm2 0h1v1h-1v-1zm2 0h1v1h-1v-1zm-13 2h14v1h-14v-1zm-23 12v12h16v-12h-16zm10 1h1v1h-1v-1zm2 0h1v1h-1v-1zm2 0h1v1h-1v-1zm-13 2h14v1h-14v-1zm0 2h2v6h-2v-6zm3 0h11v6h-11v-6z"
         fill="currentColor"
         fill-rule="evenodd"
         id="path23" />
    </g>
    <g
       id="128-128-osd-duplicate"
       transform="translate(416 517.36)">
      <rect
         x="-272"
         y="-106"
         width="128"
         height="128"
         fill="none"
         id="rect26" />
      <path
         class="ColorScheme-Text"
         d="m-221-85v33h1v-32h68v41h-41v1h2v8h-2v1h20v-1h-8v-8h30v-42.998l-70-2e-3zm2 2v31h1v-30h64v36h-39v1h40v-38h-66zm-46 33v43h30v8h-8v1h26v-1h-8v-8h30v-42.998l-70-2e-3zm1 1h68v41h-68v-41zm1 1v38h66v-38h-66zm1 1h64v36h-64v-36zm72 5h8v8h-8v-8zm-44 35h8v8h-8v-8z"
         fill="currentColor"
         id="path28" />
      <path
         class="ColorScheme-Highlight"
         d="m-202-76v24h32v-24h-32zm21 2c0.5523 0 1 0.4477 1 1 0 0.5522-0.4477 1-1 1s-1-0.4478-1-1c0-0.5523 0.4477-1 1-1zm4 0c0.5523 0 1 0.4477 1 1 0 0.5522-0.4477 1-1 1s-1-0.4478-1-1c0-0.5523 0.4477-1 1-1zm4 0c0.5523 0 1 0.4477 1 1 0 0.5522-0.4477 1-1 1s-1-0.4478-1-1c0-0.5523 0.4477-1 1-1zm-28 4h30v1h-30v-1zm0 2h4v15h-4v-15zm5 0h25v15h-25v-15zm-50 27v24h32v-24h-32zm21 2c0.5523 0 1 0.4477 1 1 0 0.5522-0.4477 1-1 1s-1-0.4478-1-1c0-0.5523 0.4477-1 1-1zm4 0c0.5523 0 1 0.4477 1 1 0 0.5522-0.4477 1-1 1s-1-0.4478-1-1c0-0.5523 0.4477-1 1-1zm4 0c0.5523 0 1 0.4477 1 1 0 0.5522-0.4477 1-1 1s-1-0.4478-1-1c0-0.5523 0.4477-1 1-1zm-28 4h30v1h-30v-1zm0 2h4v15h-4v-15zm5 0h25v15h-25v-15z"
         fill="currentColor"
         fill-rule="evenodd"
         id="path30" />
    </g>
    <g
       id="32-32-osd-rotate-ccw"
       transform="translate(384 635.36)">
      <rect
         width="32"
         height="32"
         fill="none"
         id="rect33" />
      <path
         class="ColorScheme-Text"
         d="m2 22v-18l28 3e-5v18l-11-1e-4v5.0001h4v1h-14v-1h4v-5.0001h-11zm16 0h-4v5.0001h4v-5.0001zm11-17h-26v16h26v-16z"
         fill="currentColor"
         id="path35" />
      <path
         class="ColorScheme-Highlight"
         transform="translate(-112 -32)"
         d="m121 39v4 2h1 1 1 3v-2h-2.4453c0.69291-1.1906 1.9685-2 3.4453-2 2.2091 0 4 1.7909 4 4s-1.7909 4-4 4v2c3.3137 0 6-2.6863 6-6 0-3.3137-2.6863-6-6-6-2.0883 0-3.9254 1.0671-5 2.6855v-2.6855h-2z"
         fill="currentColor"
         fill-rule="evenodd"
         id="path37" />
    </g>
    <g
       id="48-48-osd-rotate-ccw"
       transform="translate(336 619.36)">
      <rect
         width="48"
         height="48"
         fill="none"
         id="rect40" />
      <path
         class="ColorScheme-Text"
         transform="translate(-64 -16)"
         d="m66 23v28h18v5h-3v1h14v-1h-3v-5h18v-28h-44zm43 1v26h-42v-25.998l42-0.001953zm-41 1v24h40v-24h-40zm1 1h38v22h-38v-22zm16 25h6v5h-6v-5z"
         fill="currentColor"
         id="path42" />
      <path
         class="ColorScheme-Highlight"
         d="m16 21h-1v-2-5h2v3.124c1.3647-2.4594 3.988-4.124 7-4.124 4.4183 0 8 3.5817 8 8s-3.5817 8-8 8v-2c3.3137 0 6-2.6863 6-6s-2.6863-6-6-6c-2.6124 0-4.8349 1.6696-5.6586 4h3.6586v2h-4-2z"
         fill="currentColor"
         fill-rule="evenodd"
         id="path44" />
    </g>
    <g
       id="osd-rotate-ccw"
       transform="translate(272 603.36)">
      <rect
         width="64"
         height="64"
         fill="none"
         id="rect47" />
      <path
         class="ColorScheme-Text"
         d="m59 11h-54v34h54v-34zm-54-1h-1v1 34 1h1 23v7h-7v1h7 1 6 1 7v-1h-7v-7h23 1v-1-34-1h-1-54zm24 43v-7h6v7h-6zm-22-40h50v29h-50v-29zm-1-1h1 50 1v1 29 1h-1-50-1v-1-29-1z"
         fill="currentColor"
         fill-rule="evenodd"
         id="path49" />
      <path
         class="ColorScheme-Highlight"
         d="m22.346 19c-2.1491 2.3092-3.3456 5.3455-3.3496 8.5 5e-3 1.3154 0.21689 2.6219 0.62891 3.8711l-3.6289 3.6289s6.1526 1 9.3516 1l-1.8496-1.7266c-1.6085-1.891-2.4949-4.2908-2.502-6.7734 5e-3 -3.3682 1.6257-6.5296 4.3574-8.5h-3.0078zm15.299 0 1.8496 1.7266c1.6085 1.891 2.4949 4.2908 2.502 6.7734-5e-3 3.3682-1.6257 6.5296-4.3574 8.5h3.0078c2.1491-2.3092 3.3456-5.3455 3.3496-8.5-5e-3 -1.3154-0.2169-2.6219-0.62891-3.8711l3.6289-3.6289s-6.1526-1-9.3516-1zm-7.918 1.4316-3.9414 10.27 7.4688 2.8672 3.9414-10.27-7.4688-2.8672zm0.57422 1.293 0.93359 0.35742-0.35742 0.93359-0.93164-0.35938 0.35547-0.93164zm1.8691 0.71484 3.7344 1.4355-3.2246 8.4004-3.7363-1.4316 3.2266-8.4043zm-2.584 1.1523 0.93164 0.35742-0.35742 0.93359-0.93359-0.35742 0.35938-0.93359z"
         fill="currentColor"
         id="path51" />
    </g>
    <g
       id="128-128-osd-rotate-ccw"
       transform="translate(144 539.36)">
      <rect
         width="128"
         height="128"
         fill="none"
         id="rect54" />
      <path
         class="ColorScheme-Text"
         transform="translate(128,64)"
         d="m-121-44c-1.6569 0-3 1.3431-3 3v66c0 1.6569 1.3431 3 3 3h49v13h-13c-0.5523 0-1 0.448-1 1v1c0 0.552 0.4477 1 1 1h42c0.5523 0 1-0.448 1-1v-1c0-0.552-0.4477-1-1-1h-13v-13h49c1.657 0 3-1.3431 3-3v-66c0-1.6569-1.343-3-3-3h-114zm0 1h114c1.105 0 2 0.8954 2 2v66c0 1.1046-0.895 2-2 2h-114c-1.1046 0-2-0.8954-2-2v-66c0-1.1046 0.89542-2 2-2zm0 2v64h114v-64h-114zm1 1h112v62h-112v-62zm49 68h14v13h-14v-13zm-14 14h42v1h-42v-1z"
         fill="currentColor"
         id="path56" />
      <path
         class="ColorScheme-Highlight"
         transform="translate(128,64)"
         d="m-80.955-33c-7.5416 5.2295-12.042 13.823-12.045 23 0.0199 6.8039 2.5166 13.368 7.0234 18.465-1.1584 2.2498-3.0234 4.5352-3.0234 4.5352h11.914c-8.5489-4.4883-13.907-13.344-13.914-23 6e-3 -9.6538 5.3603-18.51 13.906-23h-3.8613zm28.041 0c8.5489 4.4883 13.907 13.344 13.914 23-6e-3 9.6538-5.3603 18.51-13.906 23h3.8613c7.5416-5.2295 12.042-13.823 12.045-23-0.0199-6.8039-2.5166-13.368-7.0234-18.465 1.1584-2.2498 3.0234-4.5352 3.0234-4.5352h-11.914zm-17.555 3.7617-11.469 29.875 22.406 8.6016 11.469-29.875-22.406-8.6016zm1.6914 2.877c0.12975-0.0045 0.26367 0.01497 0.39258 0.06445 0.51562 0.19792 0.77218 0.77749 0.57422 1.293-0.19792 0.51562-0.77548 0.77209-1.291 0.57422-0.51562-0.19792-0.7741-0.7754-0.57617-1.291 0.14844-0.38671 0.51114-0.62726 0.90039-0.64062zm3.5508 0.20703 0.93359 0.35938-10.75 28.008-0.93359-0.35938 10.75-28.008zm1.8672 0.7168 14.004 5.377-8.959 23.34-14.004-5.377 8.959-23.34zm-6.8516 2.8105c0.12991-0.0044 0.26367 0.01693 0.39258 0.06641 0.51553 0.19788 0.7741 0.7754 0.57617 1.291-0.19792 0.51562-0.77735 0.77214-1.293 0.57422s-0.7741-0.7754-0.57617-1.291c0.14841-0.38665 0.51065-0.62752 0.90039-0.64062zm-1.4336 3.7344c0.12966-0.0043 0.26367 0.01693 0.39258 0.06641 0.51553 0.19788 0.7741 0.7754 0.57617 1.291-0.19798 0.5157-0.77744 0.77209-1.293 0.57422-0.51562-0.19793-0.77214-0.7754-0.57422-1.291 0.14844-0.38671 0.50946-0.62774 0.89844-0.64062zm-1.0332 17.729 14.006 5.377-1.4336 3.7324-14.004-5.375 1.4316-3.7344z"
         fill="currentColor"
         fill-rule="evenodd"
         id="path58" />
    </g>
    <g
       id="32-32-osd-rotate-cw"
       transform="translate(384 763.36)">
      <rect
         width="32"
         height="32"
         fill="none"
         id="rect61" />
      <path
         class="ColorScheme-Text"
         d="m2 22v-18l28 3e-5v18l-11-1e-4v5.0001h4v1h-14v-1h4v-5.0001h-11zm16 0h-4v5.0001h4v-5.0001zm11-17h-26v16h26v-16z"
         fill="currentColor"
         fill-rule="evenodd"
         id="path63" />
      <path
         class="ColorScheme-Highlight"
         transform="translate(-112 -32)"
         d="m128 39c-3.3137 0-6 2.6863-6 6 0 3.3137 2.6863 6 6 6v-2c-2.2091 0-4-1.7909-4-4s1.7909-4 4-4c1.4768 0 2.7524 0.8094 3.4453 2h-2.4453v2h3 1 1 1v-2-4h-2v2.6855c-1.0746-1.6184-2.9117-2.6855-5-2.6855z"
         fill="currentColor"
         fill-rule="evenodd"
         id="path65" />
    </g>
    <g
       id="48-48-osd-rotate-cw"
       transform="translate(336 747.36)">
      <rect
         width="48"
         height="48"
         fill="none"
         id="rect68" />
      <path
         class="ColorScheme-Text"
         transform="translate(-64 -16)"
         d="m66 23v28h18v5h-3v1h14v-1h-3v-5h18v-28h-44zm43 1v26h-42v-25.998l42-0.001953zm-41 1v24h40v-24h-40zm1 1h38v22h-38v-22zm16 25h6v5h-6v-5z"
         fill="currentColor"
         id="path70" />
      <path
         class="ColorScheme-Highlight"
         d="m32 21h1v-2-5h-2v3.124c-1.3647-2.4594-3.988-4.124-7-4.124-4.4183 0-8 3.5817-8 8s3.5817 8 8 8v-2c-3.3137 0-6-2.6863-6-6s2.6863-6 6-6c2.6124 0 4.8349 1.6696 5.6586 4h-3.6586v2h4 2z"
         fill="currentColor"
         fill-rule="evenodd"
         id="path72" />
    </g>
    <g
       id="64-64osd-rotate-cw"
       transform="translate(272 731.36)">
      <rect
         width="64"
         height="64"
         fill="none"
         id="rect75" />
      <path
         class="ColorScheme-Text"
         d="m59 11h-54v34h54v-34zm-54-1h-1v1 34 1h1 23v7h-7v1h7 1 6 1 7v-1h-7v-7h23 1v-1-34-1h-1-54zm24 43v-7h6v7h-6zm-22-40h50v29h-50v-29zm-1-1h1 50 1v1 29 1h-1-50-1v-1-29-1z"
         fill="currentColor"
         fill-rule="evenodd"
         id="path77" />
      <path
         class="ColorScheme-Highlight"
         d="m25.348 19c-3.199 0-9.3516 1-9.3516 1l3.6289 3.6289c-0.41202 1.2492-0.62391 2.5557-0.62891 3.8711 4e-3 3.1545 1.2005 6.1908 3.3496 8.5h3.0078c-2.7317-1.9704-4.3524-5.1318-4.3574-8.5 7e-3 -2.4826 0.89149-4.8824 2.5-6.7734l1.8516-1.7266zm12.291 0c2.7317 1.9704 4.3524 5.1318 4.3574 8.5-7e-3 2.4826-0.89344 4.8824-2.502 6.7734l-1.8496 1.7266c3.199 0 9.3516-1 9.3516-1l-3.6309-3.6289c0.41202-1.2492 0.62586-2.5557 0.63086-3.8711-4e-3 -3.1545-1.2005-6.1908-3.3496-8.5h-3.0078zm-4.375 1.4316-7.4688 2.8672 3.9414 10.27 7.4688-2.8672-3.9414-10.27zm-2.4434 2.0078 3.2266 8.4043-3.7363 1.4316-3.2246-8.4004 3.7344-1.4355zm4.0176 4.8867 0.35938 0.93359-0.93555 0.35742-0.35742-0.93359 0.93359-0.35742zm0.7168 1.8652 0.35937 0.93359-0.93359 0.35938-0.35938-0.93359 0.93359-0.35938z"
         fill="currentColor"
         id="path79" />
    </g>
    <g
       id="128-128-osd-rotate-cw"
       transform="translate(144 667.36)">
      <rect
         width="128"
         height="129"
         fill="none"
         id="rect82" />
      <path
         class="ColorScheme-Highlight"
         transform="translate(128,64)"
         d="m-89-34s1.8651 2.2853 3.0234 4.5352c-4.5068 5.0972-7.0035 11.661-7.0234 18.465 0.0031 9.1774 4.5033 17.771 12.045 23h3.8613c-8.5459-4.4904-13.9-13.346-13.906-23 0.0075-9.6555 5.3651-18.512 13.914-23h-11.914zm36.094 0c8.5459 4.4905 13.9 13.346 13.906 23-0.0075 9.6556-5.3651 18.512-13.914 23h11.914s-1.8651-2.2853-3.0234-4.5352c4.5068-5.0972 7.0035-11.661 7.0234-18.465-0.0031-9.1773-4.5033-17.77-12.045-23h-3.8613zm-6.625 3.7617-22.406 8.6016 11.469 29.875 22.406-8.6016-11.469-29.875zm-5.2422 3.084 10.75 28.008-0.93359 0.35937-10.75-28.008 0.93359-0.35938zm-1.8672 0.7168 1.4336 3.7344-14.006 5.375-1.4316-3.7324 14.004-5.377zm1.791 4.668 8.959 23.34-14.004 5.375-8.959-23.338 14.004-5.377zm10.076 11.213c0.38898 0.01289 0.75195 0.25392 0.90039 0.64063 0.19793 0.51562-0.0586 1.0931-0.57422 1.291-0.51562 0.19793-1.095-0.058602-1.293-0.57422-0.19793-0.51562 0.06056-1.0931 0.57617-1.291 0.1289-0.04948 0.26097-0.0707 0.39062-0.06641zm1.4336 3.7324c0.38925 0.013363 0.75195 0.25587 0.90039 0.64258 0.19788 0.51553-0.05851 1.095-0.57422 1.293-0.51553 0.19788-1.0931-0.060559-1.291-0.57617-0.19792-0.51562 0.05869-1.0951 0.57422-1.293 0.1289-0.049481 0.26088-0.070861 0.39062-0.066406zm1.4336 3.7363c0.38973 0.013088 0.75195 0.25391 0.90039 0.64062 0.19793 0.51562-0.0586 1.095-0.57422 1.293-0.51548 0.19796-1.095-0.060555-1.293-0.57617-0.19793-0.51562 0.06056-1.095 0.57617-1.293 0.1289-0.049481 0.26072-0.068816 0.39062-0.064453z"
         fill="currentColor"
         fill-rule="evenodd"
         id="path84" />
      <path
         class="ColorScheme-Text"
         transform="translate(128,64)"
         d="m-121-44c-1.6569 0-3 1.3431-3 3v66c0 1.6569 1.3431 3 3 3h49v13h-13c-0.5523 0-1 0.448-1 1v1c0 0.552 0.4477 1 1 1h42c0.5523 0 1-0.448 1-1v-1c0-0.552-0.4477-1-1-1h-13v-13h49c1.657 0 3-1.3431 3-3v-66c0-1.6569-1.343-3-3-3h-114zm0 1h114c1.105 0 2 0.8954 2 2v66c0 1.1046-0.895 2-2 2h-114c-1.1046 0-2-0.8954-2-2v-66c0-1.1046 0.89542-2 2-2zm0 2v64h114v-64h-114zm1 1h112v62h-112v-62zm49 68h14v13h-14v-13zm-14 14h42v1h-42v-1z"
         fill="currentColor"
         id="path86" />
    </g>
    <g
       id="32-32-osd-rotate-flip"
       transform="translate(384 891.36)">
      <rect
         width="32"
         height="32"
         fill="none"
         id="rect89" />
      <path
         class="ColorScheme-Text"
         d="m2 22v-18l28 3e-5v18l-11-1e-4v5.0001h4v1h-14v-1h4v-5.0001h-11zm16 0h-4v5.0001h4v-5.0001zm11-17h-26v16h26v-16z"
         fill="currentColor"
         fill-rule="evenodd"
         id="path91" />
      <path
         class="ColorScheme-Highlight"
         d="m16 7-4 4.0001h3v3.9999h-3l4 4 4-4h-3v-3.9999h3l-4-4.0001z"
         fill="currentColor"
         id="path93" />
    </g>
    <g
       id="48-48-osd-rotate-flip"
       transform="translate(336 875.36)">
      <rect
         width="48"
         height="48"
         fill="none"
         id="rect96" />
      <path
         class="ColorScheme-Text"
         transform="translate(-64 -16)"
         d="m66 23v28h18v5h-3v1h14v-1h-3v-5h18v-28h-44zm43 1v26h-42v-25.998l42-0.001953zm-41 1v24h40v-24h-40zm1 1h38v22h-38v-22zm16 25h6v5h-6v-5z"
         fill="currentColor"
         fill-rule="evenodd"
         id="path98" />
      <path
         class="ColorScheme-Highlight"
         d="m24 13-4 4.9999h3v6h-3l4 5 4-5h-3v-6h3l-4-4.9999z"
         fill="currentColor"
         id="path100" />
    </g>
    <g
       id="osd-rotate-flip"
       transform="translate(272 859.36)">
      <rect
         width="64"
         height="64"
         fill="none"
         id="rect103" />
      <path
         class="ColorScheme-Text"
         d="m59 11h-54v34h54v-34zm-54-1h-1v1 34 1h1 23v7h-7v1h7 1 6 1 7v-1h-7v-7h23 1v-1-34-1h-1-54zm24 43v-7h6v7h-6zm-22-40h50v29h-50v-29zm-1-1h1 50 1v1 29 1h-1-50-1v-1-29-1z"
         fill="currentColor"
         fill-rule="evenodd"
         id="path105" />
      <path
         class="ColorScheme-Highlight"
         d="m32 15-4 7h3v11h-3l4 7 4-7h-3v-11h3l-4-7z"
         fill="currentColor"
         id="path107" />
    </g>
    <g
       id="128-128-osd-rotate-flip"
       transform="translate(144 795.36)">
      <rect
         width="128"
         height="128"
         fill="none"
         id="rect110" />
      <path
         class="ColorScheme-Text"
         transform="translate(128,64)"
         d="m-121-44c-1.6569 0-3 1.3431-3 3v66c0 1.6569 1.3431 3 3 3h49v13h-13c-0.5523 0-1 0.448-1 1v1c0 0.552 0.4477 1 1 1h42c0.5523 0 1-0.448 1-1v-1c0-0.552-0.4477-1-1-1h-13v-13h49c1.657 0 3-1.3431 3-3v-66c0-1.6569-1.343-3-3-3h-114zm0 1h114c1.105 0 2 0.8954 2 2v66c0 1.1046-0.895 2-2 2h-114c-1.1046 0-2-0.8954-2-2v-66c0-1.1046 0.89542-2 2-2zm0 2v64h114v-64h-114zm1 1h112v62h-112v-62zm49 68h14v13h-14v-13zm-14 14h42v1h-42v-1z"
         fill="currentColor"
         id="path112" />
      <path
         class="ColorScheme-Highlight"
         d="m64.5 30-6.9231 12h1.7308l4.1827-6v34l-4.7596-7h-1.7308l7.5 13 7.5-13h-1.7308l-4.7596 7v-34l4.1827 6h1.7308l-6.9231-12z"
         fill="currentColor"
         id="path114" />
    </g>
    <g
       id="32-32-osd-rotate-normal"
       transform="translate(384 1019.4)">
      <rect
         width="32"
         height="32"
         fill="none"
         id="rect117" />
      <path
         class="ColorScheme-Text"
         d="m2 22v-18l28 3e-5v18l-11-1e-4v5.0001h4v1h-14v-1h4v-5.0001h-11zm16 0h-4v5.0001h4v-5.0001zm11-17h-26v16h26v-16z"
         fill="currentColor"
         fill-rule="evenodd"
         id="path119" />
      <path
         class="ColorScheme-Highlight"
         transform="translate(-112,-32)"
         d="m120 39v8h11v-8h-11zm7 1h1v1h-1v-1zm2 0h1v1h-1v-1zm-8 2h9v4h-9v-4zm11 1v1h1v1h-1v1h3v4h-9v-2h-1v3h11v-8h-4zm2 1h1v1h-1v-1z"
         fill="currentColor"
         id="path121" />
    </g>
    <g
       id="48-48-osd-rotate-normal"
       transform="translate(336 1003.4)">
      <rect
         width="48"
         height="48"
         fill="none"
         id="rect124" />
      <path
         class="ColorScheme-Text"
         transform="translate(-64,-16)"
         d="m66 23v28h18v5h-3v1h14v-1h-3v-5h18v-28h-44zm43 1v26h-42v-25.998l42-0.001953zm-41 1v24h40v-24h-40zm1 1h38v22h-38v-22zm16 25h6v5h-6v-5z"
         fill="currentColor"
         fill-rule="evenodd"
         id="path126" />
      <path
         class="ColorScheme-Highlight"
         transform="translate(-64,-16)"
         d="m77 28v12h16v-12h-16zm10 1h1v1h-1v-1zm2 0h1v1h-1v-1zm2 0h1v1h-1v-1zm-13 2h14v1h-14v-1zm0 2h2v6h-2v-6zm3 0h11v6h-11v-6zm13 1v1 1 1h4v1h-4v1h4v6h-11v-4h-1v4h-2v-4h-1v5h16v-12h-5zm1 1h1v1h-1v-1zm2 0h1v1h-1v-1z"
         fill="currentColor"
         fill-rule="evenodd"
         id="path128" />
    </g>
    <g
       id="osd-rotate-normal"
       transform="translate(272 987.36)">
      <rect
         width="64"
         height="64"
         fill="none"
         id="rect131" />
      <path
         class="ColorScheme-Text"
         d="m59 11h-54v34h54v-34zm-54-1h-1v1 34 1h1 23v7h-7v1h7 1 6 1 7v-1h-7v-7h23 1v-1-34-1h-1-54zm24 43v-7h6v7h-6zm-22-40h50v29h-50v-29zm-1-1h1 50 1v1 29 1h-1-50-1v-1-29-1z"
         fill="currentColor"
         fill-rule="evenodd"
         id="path133" />
      <path
         class="ColorScheme-Highlight"
         d="m21 19v12h16v-12h-16zm10 1h1v1h-1v-1zm2 0h1v1h-1v-1zm2 0h1v1h-1v-1zm-13 2h14v1h-14v-1zm0 2h2v6h-2v-6zm3 0h11v6h-11v-6zm13 1v1 1 1h4v1h-4v1h4v6h-11v-4h-1v4h-2v-4h-1v5h16v-12h-5zm1 1h1v1h-1v-1zm2 0h1v1h-1v-1z"
         fill="currentColor"
         fill-rule="evenodd"
         id="path135" />
    </g>
    <g
       id="128-128-osd-rotate-normal"
       transform="translate(144 923.36)">
      <rect
         width="128"
         height="128"
         fill="none"
         id="rect138" />
      <path
         class="ColorScheme-Text"
         transform="translate(128,64)"
         d="m-121-44c-1.6569 0-3 1.3431-3 3v66c0 1.6569 1.3431 3 3 3h49v13h-13c-0.5523 0-1 0.448-1 1v1c0 0.552 0.4477 1 1 1h42c0.5523 0 1-0.448 1-1v-1c0-0.552-0.4477-1-1-1h-13v-13h49c1.657 0 3-1.3431 3-3v-66c0-1.6569-1.343-3-3-3h-114zm0 1h114c1.105 0 2 0.8954 2 2v66c0 1.1046-0.895 2-2 2h-114c-1.1046 0-2-0.8954-2-2v-66c0-1.1046 0.89542-2 2-2zm0 2v64h114v-64h-114zm1 1h112v62h-112v-62zm49 68h14v13h-14v-13zm-14 14h42v1h-42v-1z"
         fill="currentColor"
         fill-rule="evenodd"
         id="path140" />
      <path
         class="ColorScheme-Highlight"
         transform="translate(128,64)"
         d="m-89-26v24h32v-24h-32zm21 2c0.5523 0 1 0.4477 1 1 0 0.5522-0.4477 1-1 1s-1-0.4478-1-1c0-0.5523 0.4477-1 1-1zm4 0c0.5523 0 1 0.4477 1 1 0 0.5522-0.4477 1-1 1s-1-0.4478-1-1c0-0.5523 0.4477-1 1-1zm4 0c0.5523 0 1 0.4477 1 1 0 0.5522-0.4477 1-1 1s-1-0.4478-1-1c0-0.5523 0.4477-1 1-1zm-28 4h30v1h-30v-1zm0 2h4v15h-4v-15zm5 0h25v15h-25v-15zm28 1v6h15v1h-15v1h15v15h-25v-6h-1v6h-4v-6h-1v7h32v-24h-16zm5 2c0.5523 0 1 0.4477 1 1 0 0.5522-0.4477 1-1 1s-1-0.4478-1-1c0-0.5523 0.4477-1 1-1zm4 0c0.5523 0 1 0.4477 1 1 0 0.5522-0.4477 1-1 1s-1-0.4478-1-1c0-0.5523 0.4477-1 1-1zm4 0c0.5523 0 1 0.4477 1 1 0 0.5522-0.4477 1-1 1s-1-0.4478-1-1c0-0.5523 0.4477-1 1-1z"
         fill="currentColor"
         fill-rule="evenodd"
         id="path142" />
    </g>
    <g
       id="32-32-osd-sbs-left"
       transform="translate(112 636.36)">
      <rect
         width="32"
         height="32"
         fill="none"
         id="rect145" />
      <path
         class="ColorScheme-Text"
         transform="translate(-112 -32)"
         d="m114 41v14h10v-1h-9v-12h9v-1h-10zm11 0v14h17v-14h-17zm1 1h15v12h-15v-12z"
         fill="currentColor"
         id="path147" />
      <path
         class="ColorScheme-Highlight"
         transform="translate(-112 -32)"
         d="m119 44v8h5v-1h-4v-4h4v-3h-5zm8 0v3h4v4h-4v1h5v-8h-5zm1 1h1v1h-1v-1zm2 0h1v1h-1v-1z"
         fill="currentColor"
         fill-rule="evenodd"
         id="path149" />
    </g>
    <g
       id="48-48-osd-sbs-left"
       transform="translate(64 620.36)">
      <rect
         width="48"
         height="48"
         fill="none"
         id="rect152" />
      <path
         class="ColorScheme-Text"
         transform="translate(-64 -16)"
         d="m66 27v18h12v5h-4v1h4 1 7v-1h-2v-4h-1v4h-4v-4-1-1h-12v-16h12v-1h-13zm14 0v18h12v5h-4v1h4 1 9v-1h-4v-5h12v-18h-30zm1 1 28 2e-3v15.998h-14-1-13v-16zm12 17h4v5h-4v-5z"
         fill="currentColor"
         id="path154" />
      <path
         class="ColorScheme-Highlight"
         transform="translate(-64 -16)"
         d="m71 30v12h8v-1h-4v-6h4v-1h-7v-1h7v-3h-8zm11 0v3h7v1h-7v1h7v6h-7v1h8v-12h-8zm2 1h1v1h-1v-1zm2 0h1v1h-1v-1zm2 0h1v1h-1v-1zm-16 4h2v6h-2v-6z"
         fill="currentColor"
         fill-rule="evenodd"
         id="path156" />
    </g>
    <g
       id="osd-sbs-left"
       transform="translate(0 604.36)">
      <rect
         width="64"
         height="64"
         fill="none"
         id="rect159" />
      <path
         class="ColorScheme-Text"
         d="m4 18v22h14v4h-4v1h4 1 9v-1h-4v-4h1v-1h-6-1-13v-1h20v-1h-20v-18l20 2e-3v-1.002h-21zm22 0v22h14v4h-4v1h4 1 9v-1h-4v-4h14v-22h-34zm1 1 32 2e-3v17.998h-32v-18zm0 19h32v1h-18-1-13v-1zm-8 2h4v4h-4v-4zm22 0h4v4h-4v-4z"
         fill="currentColor"
         id="path161" />
      <path
         class="ColorScheme-Highlight"
         d="m17 22v12h8v-1h-4v-6h4v-1h-7v-1h7v-3h-8zm11 0v3h7v1h-7v1h7v6h-7v1h8v-12h-8zm2 1h1v1h-1v-1zm2 0h1v1h-1v-1zm2 0h1v1h-1v-1zm-16 4h2v6h-2v-6z"
         fill="currentColor"
         fill-rule="evenodd"
         id="path163" />
    </g>
    <g
       id="128-128-osd-sbs-left"
       transform="translate(-128 540.36)">
      <rect
         width="128"
         height="128"
         fill="none"
         id="rect166" />
      <path
         class="ColorScheme-Text"
         transform="translate(128,64)"
         d="m-78-26-43 2e-3v42.998h30v8h-8v1h26v-1h-8v-8h3v-1h-42v-41h42v-1zm71 0-70 2e-3v42.998h30v8h-8v1h26v-1h-8v-8h30v-43zm-69 1h68v41h-68v-41zm-43 1v38h41v-1h-40v-36h40v-1h-41zm44 0v38h66v-38h-66zm1 1h64v36h-64v-36zm-16 40h8v8h-8v-8zm44 0h8v8h-8v-8z"
         fill="currentColor"
         fill-rule="evenodd"
         id="path168" />
      <path
         class="ColorScheme-Highlight"
         transform="translate(128,64)"
         d="m-94-17v24h15v-1h-9v-15h9v-1h-14v-1h14v-6h-15zm22 0v6h14v1h-14v1h14v15h-14v1h15v-24h-15zm4 2c0.5523 0 1 0.4477 1 1 0 0.5522-0.4477 1-1 1s-1-0.4478-1-1c0-0.5523 0.4477-1 1-1zm4 0c0.5523 0 1 0.4477 1 1 0 0.5522-0.4477 1-1 1s-1-0.4478-1-1c0-0.5523 0.4477-1 1-1zm4 0c0.5523 0 1 0.4477 1 1 0 0.5522-0.4477 1-1 1s-1-0.4478-1-1c0-0.5523 0.4477-1 1-1zm-33 6h4v15h-4v-15z"
         fill="currentColor"
         fill-rule="evenodd"
         id="path170" />
    </g>
    <g
       id="32-32-osd-sbs-sright"
       transform="translate(112 763.36)">
      <rect
         width="32"
         height="32"
         fill="none"
         id="rect173" />
      <path
         class="ColorScheme-Text"
         transform="translate(-112 -32)"
         d="m114 41v14h17v-14h-17zm18 0v1h9v12h-9v1h10v-14h-10zm-17 1h15v12h-15v-12z"
         fill="currentColor"
         id="path175" />
      <path
         class="ColorScheme-Highlight"
         transform="translate(-112 -32)"
         d="m124 44v8h5v-1h-4v-4h4v-3h-5zm8 0v3h4v4h-4v1h5v-8h-5zm1 1h1v1h-1v-1zm2 0h1v1h-1v-1z"
         fill="currentColor"
         fill-rule="evenodd"
         id="path177" />
    </g>
    <g
       id="48-48-osd-sbs-sright"
       transform="translate(64 747.36)">
      <rect
         width="48"
         height="48"
         fill="none"
         id="rect180" />
      <path
         class="ColorScheme-Text"
         transform="translate(-64 -16)"
         d="m66 27v18h12v5h-4v1h9 1 4v-1h-4v-5h12v-18h-30zm31 0v1h12v16h-12v1 5h-4v-4h-1v4h-2v1h7 1 4v-1h-4v-5h12v-18h-13zm-2 1v16h-13-1-14v-15.998l28-0.001953zm-16 17h4v5h-4v-5z"
         fill="currentColor"
         id="path182" />
      <path
         class="ColorScheme-Highlight"
         transform="translate(-64 -16)"
         d="m86 30v12h8v-1h-4v-6h4v-1h-7v-1h7v-3h-8zm11 0v3h7v1h-7v1h7v6h-7v1h8v-12h-8zm2 1h1v1h-1v-1zm2 0h1v1h-1v-1zm2 0h1v1h-1v-1zm-16 4h2v6h-2v-6z"
         fill="currentColor"
         fill-rule="evenodd"
         id="path184" />
    </g>
    <g
       id="osd-sbs-sright"
       transform="translate(0 731.36)">
      <rect
         width="64"
         height="64"
         fill="none"
         id="rect187" />
      <path
         class="ColorScheme-Text"
         d="m4 22v22h14v4h-4v1h9 1 4v-1h-4v-4h14v-22h-34zm35 0v1.002l20-2e-3v18h-20v1h20v1h-13-1-6v1h1v4h-4v1h9 1 4v-1h-4v-4h14v-22h-21zm-2 1v18h-32v-17.998l32-0.001953zm-32 19h32v1h-13-1-18v-1zm14 2h4v4h-4v-4zm22 0h4v4h-4v-4z"
         fill="currentColor"
         id="path189" />
      <path
         class="ColorScheme-Highlight"
         d="m28 26v12h8v-1h-4v-6h4v-1h-7v-1h7v-3h-8zm11 0v3h7v1h-7v1h7v6h-7v1h8v-12h-8zm2 1h1v1h-1v-1zm2 0h1v1h-1v-1zm2 0h1v1h-1v-1zm-16 4h2v6h-2v-6z"
         fill="currentColor"
         fill-rule="evenodd"
         id="path191" />
    </g>
    <g
       id="128-128-osd-sbs-sright"
       transform="translate(-128 668.36)">
      <rect
         width="128"
         height="127"
         fill="none"
         id="rect194" />
      <path
         class="ColorScheme-Text"
         transform="translate(128,63)"
         d="m-121-25v43h30v8h-8v1h26v-1h-8v-8h30v-42.998l-70-2e-3zm71 0v1h42v41h-42v1h3v8h-8v1h26v-1h-8v-8h30v-42.998l-43-0.001953zm-70 1h68v41h-68v-41zm1 1v38h66v-38h-66zm69 0v1h40v36h-40v1h41v-38h-41zm-68 1h64v36h-64v-36zm28 40h8v8h-8v-8zm44 0h8v8h-8v-8z"
         fill="currentColor"
         fill-rule="evenodd"
         id="path196" />
      <path
         class="ColorScheme-Highlight"
         transform="translate(128,63)"
         d="m-71-17v24h15v-1h-9v-15h9v-1h-14v-1h14v-6h-15zm22 0v6h14v1h-14v1h14v15h-14v1h15v-24h-15zm4 2c0.5523 0 1 0.4477 1 1 0 0.5522-0.4477 1-1 1s-1-0.4478-1-1c0-0.5523 0.4477-1 1-1zm4 0c0.5523 0 1 0.4477 1 1 0 0.5522-0.4477 1-1 1s-1-0.4478-1-1c0-0.5523 0.4477-1 1-1zm4 0c0.5523 0 1 0.4477 1 1 0 0.5522-0.4477 1-1 1s-1-0.4478-1-1c0-0.5523 0.4477-1 1-1zm-33 6h4v15h-4v-15z"
         fill="currentColor"
         fill-rule="evenodd"
         id="path198" />
    </g>
    <g
       id="32-32-osd-shutd-laptop"
       transform="translate(112 891.36)">
      <rect
         width="32"
         height="32"
         fill="none"
         id="rect201" />
      <path
         class="ColorScheme-Text"
         transform="translate(-112 -32)"
         d="m125 36v9h1v-8h15v12h-9v1h10v-14zm-11 10v14h17v-14zm1 1h15v12h-15z"
         fill="currentColor"
         fill-rule="evenodd"
         id="path203" />
      <path
         d="m6.2572 18.171 1.4141-1.414 2.8282 2.8281 2.8281-2.8281 1.414 1.414-2.8281 2.8282 2.8281 2.8281-1.414 1.414-2.8281-2.8281-2.8282 2.8281-1.4141-1.414 2.8281-2.8281-2.8281-2.8282z"
         fill="#da4453"
         id="path205" />
      <path
         class="ColorScheme-Highlight"
         d="m16 13v-6h11v8l-7-4e-5v-1l6 4e-5v-4h-9v3zm8-5h-1v1h1zm2 0h-1v1h1z"
         fill="currentColor"
         fill-rule="evenodd"
         id="path207" />
    </g>
    <g
       id="48-48-osd-shutd-laptop"
       transform="translate(64 875.36)">
      <rect
         width="48"
         height="48"
         fill="none"
         id="rect210" />
      <path
         class="ColorScheme-Text"
         transform="translate(-64 -16)"
         d="m80 21v14h1v-12.998l28-2e-3v16h-12v1 5 1h1 4v-1h-4v-5h12v-18h-30zm-14 15v18h12v5h-4v1h9 1 4v-1h-4v-5h12v-18h-30zm29 1v16h-13-1-14v-15.998l28-0.001953zm-16 17h4v5h-4v-5z"
         fill="currentColor"
         id="path212" />
      <path
         d="m13.414 24-1.4141 1.4141 3.5351 3.5351-1.7617 1.7618-1.7734 1.7734 1.4141 1.4141 1.6425-1.6426 1.8926-1.8926 3.5352 3.5352 1.414-1.4141-3.5351-3.5352 3.5351-3.5351-1.414-1.4141-3.5352 3.5352-1.7617-1.7617-1.7734-1.7735z"
         fill="#da4453"
         id="path214" />
      <path
         class="ColorScheme-Highlight"
         d="m39 8h-16v11h1v-6h2v6h1v-6h11v6h-5v1h6v-12zm-15 4h14v-1h-14v1zm9-3h1v1h-1v-1zm2 0h1v1h-1v-1zm2 0h1v1h-1v-1z"
         fill="currentColor"
         fill-rule="evenodd"
         id="path216" />
    </g>
    <g
       id="osd-shutd-laptop"
       transform="translate(0 859.36)">
      <rect
         width="64"
         height="64"
         fill="none"
         id="rect219" />
      <path
         class="ColorScheme-Text"
         d="m26 11v14h1v-12.998l32-2e-3v18h-20v1h20v1h-13-1-6v1h1v4h-1v1h6 1 4v-1h-4v-4h14v-22h-34zm-22 15v22h14v4h-4v1h9 1 4v-1h-4v-4h14v-22h-34zm33 1v18h-32v-17.998l32-0.001953zm4 6h4v4h-4v-4zm-36 13h32v1h-13-1-18v-1zm14 2h4v4h-4v-4z"
         fill="currentColor"
         fill-rule="evenodd"
         id="path221" />
      <path
         d="m14.636 31.05 1.4141-1.414 4.9492 4.9492 4.9492-4.9492h2e-3l1.4121 1.414-4.9473 4.9493 1.5841 1.584v0.0033l3.3632 3.3619v2e-3l-1.4141 1.4121-4.9492-4.9473-1.584 1.5841h-0.0011l-1.8289 1.83h-0.0021l-1.5332 1.5332-1.414-1.4141 4.9492-4.9492-3.416-3.4141v-2e-3l-1.5332-1.5332z"
         fill="#da4453"
         id="path223" />
      <path
         class="ColorScheme-Highlight"
         d="m51 15h-16v10h1v-5h2v5h1v-5h11v6h-11v1h12v-12zm-15 4h14v-1h-14v1zm9-3h1v1h-1v-1zm2 0h1v1h-1v-1zm2 0h1v1h-1v-1z"
         fill="currentColor"
         fill-rule="evenodd"
         id="path225" />
    </g>
    <g
       id="128-128-osd-shutd-laptop"
       transform="translate(-128 795.36)">
      <rect
         width="128"
         height="128"
         fill="none"
         id="rect228" />
      <path
         class="ColorScheme-Text"
         transform="translate(128,64)"
         d="m-77-43v33h1v-32h68v41h-41v1h2v8h-2v1h20v-1h-8v-8h30v-42.998l-70-0.001953zm2 2v31h1v-30h64v36h-39v1h40v-38h-66zm-46 33v43h30v8h-8v1h26v-1h-8v-8h30v-42.998l-70-0.0019531zm1 1h68v41h-68v-41zm1 1v38h66v-38h-66zm1 1h64v36h-64v-36zm72 5h8v8h-8v-8zm-44 35h8v8h-8v-8z"
         fill="currentColor"
         fill-rule="evenodd"
         id="path230" />
      <path
         d="m53.748 64-3.5605 3.5625-8.1055 8.1055-9.3828-9.3809-0.1172-0.1172-2.1679-2.168-1.4141 1.4141 2.7363 2.7344 0.8262 0.8261 8.1055 8.1055-11.668 11.668 1.4141 1.4141 2.7363-2.7364 0.8262-0.8261 8.1054-8.1055 11.668 11.666 1.4141-1.4141-11.668-11.666 9.498-9.5 2.168-2.168-1.4121-1.4121-0.0021-2e-3v1e-4z"
         fill="#da4453"
         id="path232" />
      <path
         class="ColorScheme-Highlight"
         d="m70 30h32v24h-32v-24zm6 23h25v-15h-25v15zm25-16v-1h-30v1h30zm-30 1h4v15h-4v-15zm21-5c0-0.5523-0.4477-1-1-1s-1 0.4477-1 1c0 0.5522 0.4477 1 1 1s1-0.4478 1-1zm4 0c0-0.5523-0.4477-1-1-1s-1 0.4477-1 1c0 0.5522 0.4477 1 1 1s1-0.4478 1-1zm4 0c0-0.5523-0.4477-1-1-1s-1 0.4477-1 1c0 0.5522 0.4477 1 1 1s1-0.4478 1-1z"
         fill="currentColor"
         fill-rule="evenodd"
         id="path234" />
    </g>
    <g
       id="32-32-osd-shutd-screen"
       transform="translate(112 1019.4)">
      <rect
         width="32"
         height="32"
         fill="none"
         id="rect237" />
      <path
         class="ColorScheme-Text"
         transform="translate(-112 -32)"
         d="m125 36v9h1v-8h15v12h-9v1h10v-14h-17zm-11 10v14h17v-14h-17zm1 1h15v12h-15v-12z"
         fill="currentColor"
         id="path239" />
      <path
         class="ColorScheme-Highlight"
         d="m5 17v8h11v-8h-11zm7 1h1v1h-1v-1zm2 0h1v1h-1v-1zm-8 2h9v4h-9v-4z"
         fill="currentColor"
         id="path241" />
      <path
         d="m18.671 6.7572-1.414 1.4141 2.8281 2.8282-2.0006 2.0006h1.9153v0.9128l1.4994-1.4994 2.8281 2.8281 1.414-1.414-2.8281-2.8281 2.8281-2.8282-1.414-1.4141-2.8281 2.8281-2.8282-2.8281z"
         clip-rule="evenodd"
         fill="#da4453"
         fill-rule="evenodd"
         id="path243" />
    </g>
    <g
       id="48-48-osd-shutd-screen"
       transform="translate(64 1003.4)">
      <rect
         width="48"
         height="48"
         fill="none"
         id="rect246" />
      <path
         class="ColorScheme-Text"
         transform="translate(-64 -16)"
         d="m80 21v14h1v-12.998l28-2e-3v16h-12v1 5 1h1 4v-1h-4v-5h12v-18h-30zm-14 15v18h12v5h-4v1h9 1 4v-1h-4v-5h12v-18h-30zm29 1v16h-13-1-14v-15.998l28-0.001953zm-16 17h4v5h-4v-5z"
         fill="currentColor"
         id="path248" />
      <path
         class="ColorScheme-Highlight"
         d="m9 23h16v12h-16v-12zm1 5v6h2v-6h-2zm3 6h11v-6h-11v6zm11-7h-14v-1h14v1zm-4-3h-1v1h1v-1zm2 0h-1v1h1v-1zm2 0h-1v1h1v-1z"
         fill="currentColor"
         fill-rule="evenodd"
         id="path250" />
      <path
         d="m27.414 9-1.4141 1.4141 3.5351 3.5351-1.7617 1.7618-1.7734 1.7734 1.4141 1.4141 1.6425-1.6426 1.8926-1.8926 3.5352 3.5352 1.414-1.4141-3.5351-3.5352 3.5351-3.5351-1.414-1.4141-3.5352 3.5352-1.7617-1.7617-1.7734-1.7735z"
         fill="#da4453"
         id="path252" />
    </g>
    <g
       id="osd-shutd-screen"
       transform="translate(0 988.36)">
      <rect
         width="64"
         height="64"
         fill="none"
         id="rect255" />
      <path
         class="ColorScheme-Text"
         transform="translate(0,-1)"
         d="m26 12v14h1v-12.998l32-2e-3v18h-20v1h20v1h-13-1-6v1h1v4h-1v1h6 1 4v-1h-4v-4h14v-22h-34zm-22 15v22h14v4h-4v1h9 1 4v-1h-4v-4h14v-22h-34zm33 1v18h-32v-17.998l32-0.001953zm4 6h4v4h-4v-4zm-36 13h32v1h-13-1-18v-1zm14 2h4v4h-4v-4z"
         fill="currentColor"
         fill-rule="evenodd"
         id="path257" />
      <path
         class="ColorScheme-Highlight"
         d="m13 30h16v12h-16v-12zm1 5v6h2v-6h-2zm3 6h11v-6h-11v6zm11-7h-14v-1h14v1zm-4-3h-1v1h1v-1zm2 0h-1v1h1v-1zm2 0h-1v1h1v-1z"
         fill="currentColor"
         fill-rule="evenodd"
         id="path259" />
      <path
         d="m38.05 14.636-1.4141 1.414 1.5332 1.5332v2e-3l3.416 3.4141-4.0009 4.0009h1.4159v1.4122l0.583-0.583h0.0021l1.8289-1.83h0.0011l1.584-1.5841 4.9492 4.9473 1.4141-1.4121v-2e-3l-3.3632-3.3619v-0.0033l-1.5841-1.584 4.9473-4.9493-1.4121-1.414h-2e-3l-4.9492 4.9492-4.9492-4.9492z"
         clip-rule="evenodd"
         fill="#da4453"
         fill-rule="evenodd"
         id="path261" />
    </g>
    <g
       id="128-128-osd-shutd-screen"
       transform="translate(-128 923.36)">
      <rect
         width="128"
         height="128"
         fill="none"
         id="rect264" />
      <path
         class="ColorScheme-Text"
         transform="translate(128,64)"
         d="m-77-43v33h1v-32h68v41h-41v1h2v8h-2v1h20v-1h-8v-8h30v-42.998l-70-0.001953zm2 2v31h1v-30h64v36h-39v1h40v-38h-66zm-46 33v43h30v8h-8v1h26v-1h-8v-8h30v-42.998l-70-0.0019531zm1 1h68v41h-68v-41zm1 1v38h66v-38h-66zm1 1h64v36h-64v-36zm72 5h8v8h-8v-8zm-44 35h8v8h-8v-8z"
         fill="currentColor"
         fill-rule="evenodd"
         id="path266" />
      <path
         class="ColorScheme-Highlight"
         d="m26 65h32v24h-32v-24zm6 23h25v-15h-25v15zm25-16v-1h-30v1h30zm-30 1h4v15h-4v-15zm21-5c0-0.5523-0.4477-1-1-1s-1 0.4477-1 1c0 0.5522 0.4477 1 1 1s1-0.4478 1-1zm4 0c0-0.5523-0.4477-1-1-1s-1 0.4477-1 1c0 0.5522 0.4477 1 1 1s1-0.4478 1-1zm4 0c0-0.5523-0.4477-1-1-1s-1 0.4477-1 1c0 0.5522 0.4477 1 1 1s1-0.4478 1-1z"
         fill="currentColor"
         fill-rule="evenodd"
         id="path268" />
      <path
         d="m94.188 32.563 3.5605-3.5625 0.0021 0.0019 1.4121 1.4121-2.168 2.168-9.498 9.5 11.668 11.666-1.4141 1.4141-11.668-11.666-8.1054 8.1055-0.8262 0.8261-1.5722 1.5722h-2.3283l-0.2499-0.2499 11.668-11.668-8.1055-8.1054-0.8262-0.8262-2.7363-2.7344 1.4141-1.4141 2.2851 2.2852 9.3828 9.3809 8.1055-8.1055z"
         clip-rule="evenodd"
         fill="#da4453"
         fill-rule="evenodd"
         id="path270" />
    </g>
  </g>
</svg>
