<?xml version="1.0" encoding="UTF-8" standalone="no"?>
<svg
   xmlns:dc="http://purl.org/dc/elements/1.1/"
   xmlns:cc="http://creativecommons.org/ns#"
   xmlns:rdf="http://www.w3.org/1999/02/22-rdf-syntax-ns#"
   xmlns:svg="http://www.w3.org/2000/svg"
   xmlns="http://www.w3.org/2000/svg"
   id="svg22"
   viewBox="0 0 54 32"
   version="1.1">
  <metadata
     id="metadata24">
    <rdf:RDF>
      <cc:Work
         rdf:about="">
        <dc:format>image/svg+xml</dc:format>
        <dc:type
           rdf:resource="http://purl.org/dc/dcmitype/StillImage" />
        <dc:title></dc:title>
      </cc:Work>
    </rdf:RDF>
  </metadata>
  <defs
     id="defs5">
    <style
       type="text/css"
       id="current-color-scheme"> .ColorScheme-Text { color:#363636; } </style>
  </defs>
  <g
     fill="currentColor"
     class="ColorScheme-Text"
     transform="translate(14.939 36.754)"
     id="16-16-start-here-kde">
    <rect
       id="rect7"
       opacity="0"
       ry=".45344"
       height="16"
       width="16"
       y="-23"
       x="-40" />
    <path
       id="path9"
       d="m-29.939-19.754c0.4829-0.60124 0.81032-1.4181 0.71998-2.246-0.69552 0.02917-1.5621 0.4831-2.0641 1.0668-0.44346 0.51791-0.83742 1.3644-0.73539 2.1624 0.78053 0.05826 1.5799-0.39496 2.0795-0.98313zm1.7598 5.2017c-0.01668-1.7705 1.4487-2.6302 1.5151-2.6712-0.82904-1.21-2.1145-1.374-2.5678-1.3889-1.0803-0.11007-2.1261 0.64909-2.6772 0.64909-0.56087-7.8e-5 -1.4079-0.63596-2.3201-0.61787-1.1758 0.01758-2.2769 0.69842-2.8797 1.7527-1.2409 2.1549-0.31584 5.3199 0.87605 7.0575 0.59706 0.85536 1.2926 1.8074 2.2048 1.7698 0.89221-0.033911 1.2248-0.56649 2.3032-0.56649 1.0671 0 1.3797 0.56649 2.3106 0.54826 0.95809-0.015711 1.5606-0.8569 2.137-1.7158 0.68644-0.97981 0.96361-1.9404 0.97467-1.9915-0.02136-0.0079-1.8571-0.70607-1.8767-2.8257z" />
  </g>
  <g
     fill="currentColor"
     class="ColorScheme-Text"
     transform="matrix(1.375 0 0 1.375 52.633 41.113)"
     id="22-22-start-here-kde">
    <rect
       id="rect12"
       opacity="0"
       ry=".45344"
       height="16"
       width="16"
       y="-23"
       x="-40" />
    <path
       id="path14"
       d="m-30.287-18.951c0.40138-0.49973 0.67351-1.1787 0.59842-1.8668-0.5781 0.02425-1.2984 0.40154-1.7156 0.88672-0.36859 0.43047-0.69604 1.1341-0.61123 1.7973 0.64875 0.04842 1.3132-0.32828 1.7284-0.81715zm1.4627 4.3235c-0.01386-1.4716 1.2041-2.1861 1.2593-2.2202-0.68907-1.0057-1.7575-1.142-2.1342-1.1544-0.89793-0.09149-1.7671 0.53951-2.2252 0.53951-0.46618-6.5e-5 -1.1702-0.52859-1.9284-0.51356-0.97731 0.01461-1.8925 0.58051-2.3935 1.4568-1.0314 1.7911-0.26251 4.4217 0.72815 5.866 0.49626 0.71095 1.0743 1.5023 1.8326 1.471 0.74158-0.028186 1.018-0.47085 1.9143-0.47085 0.88692 0 1.1467 0.47085 1.9205 0.4557 0.79633-0.013058 1.2972-0.71223 1.7762-1.4261 0.57055-0.81438 0.80093-1.6128 0.81012-1.6553-0.01775-0.0066-1.5436-0.58686-1.5599-2.3486z" />
  </g>
  <g
     fill="currentColor"
     class="ColorScheme-Text"
     transform="matrix(2 0 0 2 101.65 45.677)"
     id="start-here-kde">
    <rect
       id="rect17"
       opacity="0"
       ry=".45344"
       height="16"
       width="16"
       y="-23"
       x="-40" />
    <path
       id="path19"
       d="m-30.38-18.735c0.37942-0.4724 0.63668-1.1142 0.5657-1.7647-0.54648 0.02292-1.2274 0.37958-1.6218 0.83823-0.34844 0.40693-0.65797 1.0721-0.5778 1.699 0.61327 0.04577 1.2414-0.31032 1.6339-0.77246zm1.3827 4.087c-0.0131-1.3911 1.1383-2.0666 1.1904-2.0988-0.65139-0.95071-1.6614-1.0795-2.0175-1.0913-0.84882-0.08649-1.6705 0.51-2.1035 0.51-0.44068-6.1e-5 -1.1062-0.49968-1.8229-0.48547-0.92387 0.01381-1.789 0.54876-2.2626 1.3772-0.97503 1.6931-0.24816 4.1799 0.68833 5.5452 0.46912 0.67207 1.0156 1.4201 1.7323 1.3906 0.70102-0.026645 0.96236-0.4451 1.8097-0.4451 0.83842 0 1.084 0.4451 1.8155 0.43078 0.75278-0.012344 1.2262-0.67328 1.6791-1.3481 0.53935-0.76985 0.75713-1.5246 0.76582-1.5648-0.01678-0.0062-1.4591-0.55477-1.4746-2.2202z" />
  </g>
</svg>
