<svg version="1.1" viewBox="0 0 54 32" xmlns="http://www.w3.org/2000/svg">
 <defs>
  <style id="current-color-scheme" type="text/css">.ColorScheme-Text { color:#363636; }</style>
 </defs>
 <g id="22-22-view-refresh" class="ColorScheme-Text">
  <path class="ColorScheme-Text" d="m11 13c-1.4417 0-2.803 0.36925-3.9688 1.0312l0.71875 0.6875 0.0625 0.0625 2.75 2.7812 0.71875-0.71875-2.5-2.4688c0.69833-0.23469 1.4391-0.375 2.2188-0.375 3.878 0 7 3.122 7 7 0 1.1625-0.28388 2.2558-0.78125 3.2188l0.75 0.75c0.66205-1.1658 1.0312-2.527 1.0312-3.9688 0-4.432-3.568-8-8-8zm-6.9688 4.0312c-0.66205 1.1658-1.0312 2.527-1.0312 3.9688 0 4.432 3.568 8 8 8 1.4417 0 2.803-0.36925 3.9688-1.0312l-3.5312-3.5312-0.6875 0.71875 2.4688 2.4688c-0.69833 0.23469-1.4391 0.375-2.2188 0.375-3.878 0-7-3.122-7-7 0-1.1625 0.28388-2.2558 0.78125-3.2188l-0.75-0.75z" fill="currentColor"/>
  <path d="m0 10v22h22v-22h-22z" fill="none"/>
 </g>
 <g id="view-refresh">
  <path class="ColorScheme-Text" d="m38 4a12 12 0 0 0-6.084 1.6719l5.377 5.3781 0.707-0.71-4.404-4.404a11 11 0 0 1 4.404-0.936 11 11 0 0 1 11 11 11 11 0 0 1-1.4043 5.3516l0.7323 0.72844a12 12 0 0 0 1.672-6.08 12 12 0 0 0-12-12m-10.328 5.916a12 12 0 0 0-1.6719 6.084 12 12 0 0 0 12 12 12 12 0 0 0 6.084-1.6719l-5.377-5.3791-0.707 0.707 4.406 4.404a11 11 0 0 1-4.406 0.94 11 11 0 0 1-11-11 11 11 0 0 1 1.4043-5.3516z" fill="currentColor"/>
  <path d="m22 0v32h32v-32h-32z" fill="none"/>
 </g>
 <g id="22-22-view-history" transform="translate(0,32)">
  <path class="ColorScheme-Text" d="m11 13c-4.432 0-8 3.568-8 8s3.568 8 8 8 8-3.568 8-8-3.568-8-8-8zm0 1c3.878 0 7 3.122 7 7s-3.122 7-7 7-7-3.122-7-7 3.122-7 7-7zm-1 1v7h6v-1h-5v-6h-1z" fill="currentColor"/>
  <path d="m0 10v22h22v-22h-22z" fill="none"/>
 </g>
 <g id="view-history">
  <circle cx="38" cy="49.983" r="16" opacity="0"/>
  <g class="ColorScheme-Text" fill="currentColor">
   <path d="m38 34.982a15 15 0 0 0-15 15 15 15 0 0 0 15 15 15 15 0 0 0 15-15 15 15 0 0 0-15-15zm0 1.0176a13.983 13.983 0 0 1 13.982 13.982 13.983 13.983 0 0 1-13.982 13.984 13.983 13.983 0 0 1-13.982-13.984 13.983 13.983 0 0 1 13.982-13.982z"/>
   <rect x="37" y="39" width="1" height="12" rx=".5" ry=".5"/>
   <rect transform="rotate(90)" x="50" y="-47" width="1" height="10" rx=".5" ry=".5"/>
  </g>
 </g>
</svg>
