<?xml version="1.0" encoding="UTF-8" standalone="no"?>
<svg
   xmlns:dc="http://purl.org/dc/elements/1.1/"
   xmlns:cc="http://creativecommons.org/ns#"
   xmlns:rdf="http://www.w3.org/1999/02/22-rdf-syntax-ns#"
   xmlns:svg="http://www.w3.org/2000/svg"
   xmlns="http://www.w3.org/2000/svg"
   xmlns:sodipodi="http://sodipodi.sourceforge.net/DTD/sodipodi-0.dtd"
   xmlns:inkscape="http://www.inkscape.org/namespaces/inkscape"
   width="24"
   height="16"
   version="1.1"
   viewBox="0 0 24 16"
   id="svg35"
   sodipodi:docname="window.svg"
   inkscape:version="1.0.1 (3bc2e813f5, 2020-09-07)">
  <metadata
     id="metadata39">
    <rdf:RDF>
      <cc:Work
         rdf:about="">
        <dc:format>image/svg+xml</dc:format>
        <dc:type
           rdf:resource="http://purl.org/dc/dcmitype/StillImage" />
      </cc:Work>
    </rdf:RDF>
  </metadata>
  <sodipodi:namedview
     pagecolor="#ffffff"
     bordercolor="#666666"
     borderopacity="1"
     objecttolerance="10"
     gridtolerance="10"
     guidetolerance="10"
     inkscape:pageopacity="0"
     inkscape:pageshadow="2"
     inkscape:window-width="1920"
     inkscape:window-height="1031"
     id="namedview37"
     showgrid="false"
     inkscape:zoom="31.704075"
     inkscape:cx="12.041558"
     inkscape:cy="8"
     inkscape:window-x="0"
     inkscape:window-y="24"
     inkscape:window-maximized="1"
     inkscape:current-layer="svg35" />
  <defs
     id="defs3">
    <style
       id="current-color-scheme"
       type="text/css">.ColorScheme-Text {
        color:#31363b;
      }
      .ColorScheme-Background {
        color:#eff0f1;
      }
      .ColorScheme-Highlight {
        color:#3daee9;
      }
      .ColorScheme-ViewText {
        color:#31363b;
      }
      .ColorScheme-ViewBackground {
        color:#fcfcfc;
      }
      .ColorScheme-ViewHover {
        color:#93cee9;
      }
      .ColorScheme-ViewFocus{
        color:#3daee9;
      }
      .ColorScheme-ButtonText {
        color:#31363b;
      }
      .ColorScheme-ButtonBackground {
        color:#eff0f1;
      }
      .ColorScheme-ButtonHover {
        color:#93cee9;
      }
      .ColorScheme-ButtonFocus{
        color:#3daee9;
      }
      .ColorScheme-NegativeText {
        color:#da4453;
      }</style>
  </defs>
  <g
     id="edit-delete"
     transform="matrix(.72727 0 0 .72727 -237.09 -388.63)">
    <rect
       x="326"
       y="534.36"
       width="22"
       height="22"
       fill="none"
       id="rect5" />
    <circle
       cx="277.56"
       cy="-509.56"
       r="0"
       id="circle7" />
    <path
       class="ColorScheme-NegativeText"
       d="m337 535.74a9.625 9.625 0 0 0-9.625 9.625 9.625 9.625 0 0 0 9.625 9.625 9.625 9.625 0 0 0 9.625-9.625 9.625 9.625 0 0 0-9.625-9.625zm-3.9619 4.8125 3.9619 3.9619 3.9619-3.9619 0.85065 0.85064-3.9619 3.9619 3.9619 3.9619-0.85065 0.85064-3.9619-3.9619-3.9619 3.9619-0.85063-0.85064 3.9618-3.9619-3.9618-3.9619 0.85063-0.85064z"
       fill="currentColor"
       id="path9"
       style="fill:#363636;fill-opacity:1" />
    <path
       transform="matrix(1.375 0 0 1.375 326 534.36)"
       d="m5.1191 4.5-0.61914 0.61914 2.8809 2.8809-2.8809 2.8809 0.61914 0.61914 2.8809-2.8809 2.8809 2.8809 0.61914-0.61914-2.8809-2.8809 2.8809-2.8809-0.61914-0.61914-2.8809 2.8809-2.8809-2.8809z"
       fill="#fff"
       fill-opacity=".71176"
       id="path11" />
  </g>
  <g
     id="window-pin"
     transform="translate(62,-36)">
    <rect
       x="-46"
       y="44"
       width="8"
       height="8"
       fill="none"
       id="rect14" />
    <path
       style="color:#363636;fill:currentColor;fill-opacity:1;stroke:none;stroke-width:0.412533"
       d="m -42.027512,45.179085 c -1.223368,0 -2.215106,0.859936 -2.215106,1.920716 0,1.060782 2.215106,4.225577 2.215106,4.225577 0,0 2.215106,-3.164795 2.215106,-4.225577 0,-1.06078 -0.991739,-1.920716 -2.215106,-1.920716 m 0,0.384143 a 1.772085,1.5365734 0 0 1 1.772085,1.536573 1.772085,1.5365734 0 0 1 -1.772085,1.536574 1.772085,1.5365734 0 0 1 -1.772085,-1.536574 1.772085,1.5365734 0 0 1 1.772085,-1.536573"
       class="ColorScheme-Text"
       id="path4" />
  </g>
  <g
     id="window-unpin"
     transform="translate(82,-44)">
    <rect
       x="-66"
       y="44"
       width="8"
       height="8"
       fill="none"
       id="rect21" />
    <path
       style="color:#363636;fill:#696969;fill-opacity:1;stroke:none;stroke-width:0.412533"
       d="m -62.019196,45.065022 c -1.223368,0 -2.215106,0.859936 -2.215106,1.920716 0,1.060782 2.215106,4.225577 2.215106,4.225577 0,0 2.215106,-3.164795 2.215106,-4.225577 0,-1.06078 -0.991739,-1.920716 -2.215106,-1.920716 m 0,0.384143 a 1.772085,1.5365734 0 0 1 1.772085,1.536573 1.772085,1.5365734 0 0 1 -1.772085,1.536574 1.772085,1.5365734 0 0 1 -1.772085,-1.536574 1.772085,1.5365734 0 0 1 1.772085,-1.536573"
       class="ColorScheme-Text"
       id="path4-6" />
  </g>
  <g
     id="window-list"
     transform="translate(-292 -542.36)">
    <rect
       x="286"
       y="561.36"
       width="32"
       height="32"
       ry="0"
       opacity="0"
       id="rect24" />
    <path
       class="ColorScheme-Text"
       transform="translate(326 534.36)"
       d="m-36 31v10h10v-10h-10zm1 1h8v8h-8v-8z"
       fill="currentColor"
       id="path26" />
    <path
       class="ColorScheme-Text"
       transform="translate(326 534.36)"
       d="m-22 31v10h10v-10h-10zm1 1h8v8h-8v-8z"
       fill="currentColor"
       id="path28" />
    <path
       class="ColorScheme-Text"
       transform="translate(326 534.36)"
       d="m-36 45v10h10v-10h-10zm1 1h8v8h-8v-8z"
       fill="currentColor"
       id="path30" />
    <path
       class="ColorScheme-Text"
       transform="translate(326 534.36)"
       d="m-22 45v10h10v-10h-10zm1 1h8v8h-8v-8z"
       fill="currentColor"
       id="path32" />
  </g>
</svg>
