<?xml version="1.0" standalone="no"?>
<!DOCTYPE svg PUBLIC "-//W3C//DTD SVG 20010904//EN"
 "http://www.w3.org/TR/2001/REC-SVG-20010904/DTD/svg10.dtd">
<svg version="1.0" xmlns="http://www.w3.org/2000/svg"
 width="751.000000pt" height="328.000000pt" viewBox="0 0 751.000000 328.000000"
 preserveAspectRatio="xMidYMid meet">

<g transform="translate(0.000000,328.000000) scale(0.100000,-0.100000)"
fill="#000000" stroke="none">
<path d="M2749 3067 c-131 -70 -145 -254 -23 -325 33 -19 51 -22 111 -20 62 3
76 7 110 34 69 55 100 148 72 221 -38 100 -168 144 -270 90z"/>
<path d="M1040 2406 c-353 -79 -602 -330 -681 -689 -29 -129 -28 -322 0 -431
84 -317 376 -507 739 -481 205 14 362 81 504 213 l47 44 12 -40 c43 -144 217
-235 415 -218 40 4 91 12 115 19 l44 13 12 84 c6 47 12 99 12 117 l1 31 -37
-10 c-20 -5 -74 -8 -119 -6 -64 2 -89 8 -111 24 -36 26 -73 98 -73 143 0 29
210 1121 226 1174 5 16 -6 17 -140 17 -80 0 -146 -2 -146 -4 0 -10 -51 -250
-54 -253 -1 -2 -16 15 -31 38 -70 99 -184 172 -329 209 -92 23 -313 26 -406 6z
m412 -265 c124 -48 206 -131 244 -248 25 -78 26 -269 1 -363 -61 -231 -224
-401 -438 -456 -90 -24 -255 -22 -336 4 -127 40 -221 122 -265 230 -21 51 -23
73 -23 207 1 135 3 158 28 230 32 98 110 218 180 280 58 52 164 107 247 130
84 23 287 15 362 -14z"/>
<path d="M3848 2410 c-139 -24 -263 -81 -357 -167 -37 -33 -61 -49 -61 -39 0
13 21 121 35 184 l5 22 -139 0 -139 0 -156 -788 c-86 -433 -156 -791 -156
-795 0 -4 64 -7 143 -7 l142 0 87 433 c47 237 94 455 103 482 55 163 155 289
279 351 80 39 193 63 299 64 37 0 67 2 67 4 0 2 11 58 25 126 14 68 25 127 25
131 0 11 -137 10 -202 -1z"/>
<path d="M2436 1622 c-86 -433 -156 -791 -156 -795 0 -4 64 -7 143 -7 l142 0
153 778 c85 427 156 785 159 795 4 16 -7 17 -140 17 l-145 0 -156 -788z"/>
<path d="M4135 2398 c-2 -7 -43 -207 -90 -444 -72 -366 -85 -446 -85 -530 0
-170 44 -290 141 -385 115 -113 248 -155 468 -146 78 3 161 12 196 21 82 23
189 75 255 125 30 23 56 38 58 33 1 -5 -11 -61 -27 -126 -86 -340 -244 -467
-581 -467 -203 0 -387 59 -504 162 l-44 39 -76 -109 c-42 -61 -76 -113 -76
-116 0 -10 126 -97 180 -125 63 -31 187 -73 275 -92 38 -8 127 -12 240 -12
160 1 191 4 276 27 156 41 239 87 345 192 75 75 98 106 141 190 28 55 57 119
64 143 l12 42 162 0 162 0 288 305 c159 167 292 302 295 299 3 -3 80 -139 171
-302 l166 -297 152 -3 c83 -1 151 0 151 3 0 3 -101 181 -225 395 -124 215
-225 394 -225 399 0 4 149 163 331 352 183 189 352 365 377 392 l46 47 -164
-1 -165 -1 -270 -283 c-148 -157 -273 -285 -276 -285 -3 0 -77 128 -165 285
l-159 284 -149 1 c-120 0 -147 -3 -143 -13 3 -8 100 -180 216 -382 l210 -368
-39 -46 c-22 -25 -195 -203 -386 -396 -220 -223 -343 -341 -339 -325 12 44
305 1504 305 1517 0 10 -34 13 -142 13 l-143 0 -79 -403 c-103 -524 -124 -585
-241 -702 -110 -110 -235 -157 -415 -157 -231 0 -348 96 -358 296 -3 71 6 132
82 511 47 237 86 436 86 443 0 18 -279 17 -285 0z"/>
</g>
</svg>
