<?xml version="1.0" encoding="UTF-8" standalone="no"?>
<svg
   xmlns:dc="http://purl.org/dc/elements/1.1/"
   xmlns:cc="http://creativecommons.org/ns#"
   xmlns:rdf="http://www.w3.org/1999/02/22-rdf-syntax-ns#"
   xmlns:svg="http://www.w3.org/2000/svg"
   xmlns="http://www.w3.org/2000/svg"
   xmlns:xlink="http://www.w3.org/1999/xlink"
   width="355"
   height="310"
   id="svg3642"
   version="1.0">
  <defs
     id="defs3644">
    <linearGradient
       id="linearGradient975">
      <stop
         style="stop-color:#2f3232;stop-opacity:1;"
         offset="0"
         id="stop971" />
      <stop
         style="stop-color:#323434;stop-opacity:1"
         offset="1"
         id="stop973" />
    </linearGradient>
    <linearGradient
       id="linearGradient966">
      <stop
         style="stop-color:#2f3232;stop-opacity:1;"
         offset="0"
         id="stop962" />
      <stop
         style="stop-color:#323434;stop-opacity:1"
         offset="1"
         id="stop964" />
    </linearGradient>
    <linearGradient
       id="shadow_active">
      <stop
         id="stop7028"
         offset="0"
         style="stop-color:#000000;stop-opacity:0.92168677;" />
      <stop
         id="stop7026"
         offset="0.125"
         style="stop-color:#000000;stop-opacity:0.74096388;" />
      <stop
         id="stop6834"
         offset="0.25"
         style="stop-color:#000000;stop-opacity:0.60240966;" />
      <stop
         id="stop6832"
         offset="0.5"
         style="stop-color:#000000;stop-opacity:0.33132529;" />
      <stop
         style="stop-color:#000000;stop-opacity:0.10843374;"
         offset="0.75"
         id="stop6836" />
      <stop
         id="stop6894"
         offset="0.875"
         style="stop-color:#000000;stop-opacity:0.03921569;" />
      <stop
         id="stop6721"
         offset="1"
         style="stop-color:#000000;stop-opacity:0;" />
    </linearGradient>
    <linearGradient
       xlink:href="#shadow_active"
       id="linearGradient5688"
       gradientUnits="userSpaceOnUse"
       gradientTransform="matrix(1,0,0,1.0117647,0,137.2353)"
       x1="398"
       y1="138.13953"
       x2="398"
       y2="221.16278" />
    <linearGradient
       xlink:href="#shadow_active"
       id="linearGradient6612"
       gradientUnits="userSpaceOnUse"
       gradientTransform="matrix(1,0,0,1.0285694,-215,50.00005)"
       x1="396"
       y1="64.166748"
       x2="396"
       y2="14.583314" />
    <linearGradient
       xlink:href="#shadow_inactive"
       id="linearGradient5688-2"
       gradientUnits="userSpaceOnUse"
       gradientTransform="matrix(1,0,0,1.0117647,0,137.15731)"
       x1="398"
       y1="138.13954"
       x2="398"
       y2="171.74419" />
    <linearGradient
       id="shadow_inactive">
      <stop
         style="stop-color:#000000;stop-opacity:1;"
         offset="0"
         id="stop6719-25" />
      <stop
         id="stop6834-1"
         offset="0.25"
         style="stop-color:#000000;stop-opacity:0.63855422;" />
      <stop
         id="stop6832-0"
         offset="0.5"
         style="stop-color:#000000;stop-opacity:0.33734939;" />
      <stop
         style="stop-color:#000000;stop-opacity:0.10843374;"
         offset="0.75"
         id="stop6836-0" />
      <stop
         id="stop6894-7"
         offset="0.875"
         style="stop-color:#000000;stop-opacity:0.03921569;" />
      <stop
         id="stop6721-4"
         offset="1"
         style="stop-color:#000000;stop-opacity:0;" />
    </linearGradient>
    <linearGradient
       xlink:href="#shadow_inactive"
       id="linearGradient6612-5"
       gradientUnits="userSpaceOnUse"
       gradientTransform="translate(200,5)"
       x1="396"
       y1="66"
       x2="396"
       y2="30" />
    <linearGradient
       xlink:href="#shadow_active"
       id="linearGradient1126"
       gradientUnits="userSpaceOnUse"
       gradientTransform="matrix(1.0133333,0,0,1,-3.2650058,140)"
       x1="348.49344"
       y1="99"
       x2="279.41449"
       y2="99" />
    <radialGradient
       xlink:href="#shadow_active"
       id="radialGradient1306"
       gradientUnits="userSpaceOnUse"
       gradientTransform="matrix(9.4919759e-7,-2.9142759,4.0000007,1.1504403e-6,-211.66707,980.01628)"
       cx="296.47726"
       cy="80.416679"
       fx="296.47726"
       fy="80.416679"
       r="17.5" />
    <linearGradient
       xlink:href="#shadow_inactive"
       id="linearGradient1389"
       gradientUnits="userSpaceOnUse"
       gradientTransform="matrix(1.0133333,0,0,1,-3.2650058,140)"
       x1="348.49344"
       y1="99.01548"
       x2="304.08554"
       y2="99.01548" />
    <radialGradient
       xlink:href="#shadow_active"
       id="radialGradient965"
       gradientUnits="userSpaceOnUse"
       gradientTransform="matrix(-4.0000019,3.2964352e-6,1.0208917e-6,-4.799999,303.08329,1053.8707)"
       cx="48.27084"
       cy="178.72313"
       fx="48.27084"
       fy="178.72313"
       r="17.5" />
    <radialGradient
       xlink:href="#shadow_inactive"
       id="radialGradient967"
       gradientUnits="userSpaceOnUse"
       gradientTransform="matrix(-2.5714291,8.7200345e-7,-2.0148289e-7,-1.9428564,594.12508,548.00068)"
       cx="48.270844"
       cy="181.17691"
       fx="48.270844"
       fy="181.17691"
       r="17.5" />
    <radialGradient
       xlink:href="#shadow_inactive"
       id="radialGradient969"
       gradientUnits="userSpaceOnUse"
       gradientTransform="matrix(-3.7607938e-7,-2.0571166,2.5714318,-5.1233137e-7,263.21413,725.83432)"
       cx="296.45123"
       cy="80.416672"
       fx="296.45123"
       fy="80.416672"
       r="17.5" />
    <linearGradient
       xlink:href="#shadow_active"
       id="linearGradient968"
       gradientUnits="userSpaceOnUse"
       gradientTransform="matrix(1.0133333,0,0,1,-3.2650058,140)"
       x1="348.49344"
       y1="99"
       x2="279.41449"
       y2="99" />
    <linearGradient
       xlink:href="#shadow_inactive"
       id="linearGradient1012"
       gradientUnits="userSpaceOnUse"
       gradientTransform="matrix(1.0133333,0,0,1,-3.2650058,140)"
       x1="348.49344"
       y1="99.01548"
       x2="304.08554"
       y2="99.01548" />
    <linearGradient
       xlink:href="#linearGradient966"
       id="linearGradient969"
       x1="396.22266"
       y1="206.13606"
       x2="395.94266"
       y2="176.62404"
       gradientUnits="userSpaceOnUse" />
    <linearGradient
       xlink:href="#linearGradient975"
       id="linearGradient977"
       x1="95.393593"
       y1="115.95687"
       x2="95.796829"
       y2="86.126541"
       gradientUnits="userSpaceOnUse" />
  </defs>
  <metadata
     id="metadata3647">
    <rdf:RDF>
      <cc:Work
         rdf:about="">
        <dc:format>image/svg+xml</dc:format>
        <dc:type
           rdf:resource="http://purl.org/dc/dcmitype/StillImage" />
        <dc:title></dc:title>
      </cc:Work>
      <cc:Work
         rdf:about="">
        <dc:format>image/svg+xml</dc:format>
        <dc:type
           rdf:resource="http://purl.org/dc/dcmitype/StillImage" />
      </cc:Work>
    </rdf:RDF>
  </metadata>
  <g
     id="layer1"
     transform="translate(0,-90)">
    <g
       id="decoration-inactive-topleft"
       transform="translate(140,-31.063)">
      <path
         id="rect6520-3-2-6"
         style="opacity:0.5;fill:url(#radialGradient969);fill-opacity:1;stroke:none"
         d="m 365,50 v 66 h 76 V 98 c 0,-6.648 5.352,-12 12,-12 h 17 V 50 Z"
         transform="translate(-140,115.063)" />
      <g
         id="6utrh-9">
        <g
           id="decoration-toplefthaerty-5"
           transform="translate(0,1)">
          <g
             transform="translate(-19,25)"
             id="49093u-9">
            <path
               id="rect5073-4-9-6"
               style="opacity:1;fill:#2c2f2f;fill-opacity:1;stroke:none;stroke-width:1"
               d="m 453,86 c -6.648,0 -12,5.352 -12,12 V 115.93555 116 h 29 V 86 Z"
               transform="translate(-121,89.063)" />
          </g>
        </g>
      </g>
      <path
         id="path202"
         style="opacity:1;fill:#434646;fill-opacity:1;stroke:none"
         d="M 453 79 C 445.798 79 440 84.798 440 92 L 440 110 L 441 110 L 441 92 C 441 85.352 446.352 80 453 80 L 470 80 L 470 79 L 453 79 z "
         transform="translate(-140,121.063)" />
    </g>
    <g
       transform="matrix(-1,0,0,1,604.875,3)"
       id="decoration-right">
      <path
         id="path960"
         d="m 244.875,197 v 86 h 76 v -86 z"
         style="opacity:0.5;fill:url(#linearGradient968);fill-opacity:1;stroke:none;stroke-width:1.00664" />
      <path
         id="path962"
         style="opacity:1;fill:#4f5454;fill-opacity:1;stroke:none"
         d="m 284,116 v 86 h 1 v -86 z"
         transform="matrix(-1,0,0,1,604.875,81)" />
      <path
         transform="translate(-255.125,76)"
         id="path964"
         d="m 576,121 v 86 h 29 v -86 z"
         style="opacity:1;fill:#2f3232;fill-opacity:1;stroke:none" />
    </g>
    <g
       transform="translate(-1453.4451,-465.21909)"
       style="display:none"
       id="g4418" />
    <g
       transform="translate(-1453.4451,-465.21909)"
       style="display:inline"
       id="layer2" />
    <g
       style="display:none"
       id="g2424"
       transform="translate(975.61592,-1945.0985)" />
    <g
       style="display:inline"
       id="g2426"
       transform="translate(975.61592,-1945.0985)" />
    <g
       id="g3429"
       transform="translate(1021.5937,-976.23581)" />
    <g
       id="g19758"
       transform="translate(2807.8842,-592.77773)" />
    <g
       id="g3935"
       transform="translate(3912.7094,-1471.0471)" />
    <g
       id="g8459"
       transform="translate(1514.8397,-1486.3943)" />
    <g
       id="g28391"
       transform="translate(164.02222,-157.78265)" />
    <g
       id="g28393"
       transform="translate(1268.8474,-1036.052)" />
    <g
       id="g28395"
       transform="translate(-1129.0223,-1051.3992)" />
    <g
       id="g6598"
       transform="translate(2310.5222,-165.78265)" />
    <g
       id="g6640"
       transform="translate(3415.3474,-1044.052)" />
    <g
       id="g6716"
       transform="translate(1017.4777,-1059.3992)" />
    <g
       id="g6850"
       transform="matrix(1,0,0,-1,-153.44508,295.17435)"
       style="opacity:0.45945943" />
    <g
       id="g4240"
       style="display:none"
       transform="translate(-1919.565,-153.36219)" />
    <g
       id="g4242"
       style="display:inline"
       transform="translate(-1919.565,-153.36219)" />
    <g
       transform="translate(509.49601,-1633.2416)"
       id="g4244"
       style="display:none" />
    <g
       transform="translate(509.49601,-1633.2416)"
       id="g4246"
       style="display:inline" />
    <g
       transform="translate(555.47381,-664.37887)"
       id="g4248" />
    <g
       transform="translate(2341.7643,-280.92083)"
       id="g4250" />
    <g
       transform="translate(3446.5895,-1159.1902)"
       id="g4252" />
    <g
       transform="translate(1048.7198,-1174.5374)"
       id="g4254" />
    <g
       transform="translate(-302.09768,154.07425)"
       id="g4256" />
    <g
       transform="translate(802.72751,-724.19507)"
       id="g4258" />
    <g
       transform="translate(-1595.1422,-739.54227)"
       id="g4260" />
    <g
       transform="translate(1844.4023,146.07425)"
       id="g4262" />
    <g
       transform="translate(2949.2275,-732.19507)"
       id="g4264" />
    <g
       transform="translate(551.35781,-747.54227)"
       id="g4266" />
    <g
       style="opacity:0.45945943"
       transform="matrix(1,0,0,-1,-619.56498,607.03125)"
       id="g4268" />
    <g
       id="decoration-bottom"
       transform="translate(-215,9)">
      <path
         style="opacity:0.5;fill:url(#linearGradient5688);fill-opacity:1;stroke:none;stroke-width:1.0058651"
         d="m 325,289 v 86 h 145 v -86 z"
         id="path6217-8" />
      <path
         id="path6214-7"
         d="M 470,289 H 325 v 1 h 145 z"
         style="opacity:1;fill:#4f5454;fill-opacity:1;stroke:none;stroke-width:0.413845" />
      <path
         id="path6211-7"
         d="M 470,277 H 325 v 12 h 145 z"
         style="opacity:0.95;fill:#2c2f2f;fill-opacity:1;stroke:none;stroke-width:1.41421" />
    </g>
    <path
       style="opacity:1;fill:#2f3232;fill-opacity:1;stroke:none"
       d="m 110,200 v 86 h 145 v -86 z"
       id="decoration-center" />
    <g
       id="decoration-top"
       transform="translate(-215,-5.99995)">
      <path
         id="path6055-5"
         style="opacity:0.5;fill:url(#linearGradient6612);fill-opacity:1;stroke:none;stroke-width:1.01418"
         d="M 110,50 V 86 H 255 V 50 Z"
         transform="translate(215,89.99995)" />
      <path
         id="path6098-4"
         style="opacity:1;fill:#4f5454;fill-opacity:1;stroke:none"
         d="m 110,85 v 1 h 145 v -1 z"
         transform="translate(215,89.99995)" />
      <path
         style="opacity:1;fill:url(#linearGradient969);fill-opacity:1;stroke:none;stroke-width:1"
         d="m 325,175.99994 v 30.00002 h 145 v -30.00002 z"
         id="path6092-3" />
      <path
         id="path966"
         d="m 325,175.99994 v 1.00001 h 145 v -1.00001 z"
         style="opacity:1;fill:#3e4242;fill-opacity:1;stroke:none;stroke-width:0.182575" />
    </g>
    <g
       id="decoration-left"
       transform="translate(-239.875,3)">
      <path
         style="opacity:0.5;fill:url(#linearGradient1126);fill-opacity:1;stroke:none;stroke-width:1.00664"
         d="m 244.875,197 v 86 h 76 v -86 z"
         id="path6345-1" />
      <path
         id="path6342-6"
         style="opacity:1;fill:#4f5454;fill-opacity:1;stroke:none"
         d="m 80,116 v 86 h 1 v -86 z"
         transform="translate(239.875,81)" />
      <path
         style="opacity:1;fill:#2f3232;fill-opacity:1;stroke:none"
         d="m 576,121 v 86 h 29 v -86 z"
         id="path6339-9"
         transform="translate(-255.125,76)" />
    </g>
    <g
       id="decoration-inactive-bottom"
       transform="translate(145,9.07798)">
      <path
         style="opacity:0.5;fill:url(#linearGradient5688-2);fill-opacity:1;stroke:none;stroke-width:1.0058651"
         d="m 325,288.92202 v 86 h 145 v -86 z"
         id="path6217-8-2" />
      <path
         id="path6214-7-4"
         d="M 470,288.92202 H 325 v 1 h 145 z"
         style="opacity:1;fill:#434646;fill-opacity:1;stroke:none;stroke-width:0.39242497" />
      <path
         id="path6211-7-5"
         d="M 470,276.92202 H 325 v 12 h 145 z"
         style="opacity:0.96;fill:#2c2f2f;fill-opacity:1;stroke:none;stroke-width:1.41421" />
    </g>
    <path
       style="opacity:1;fill:#2c2f2f;fill-opacity:1;stroke:none"
       d="m 470,200 v 86 h 145 v -86 z"
       id="decoration-inactive-center" />
    <g
       id="decoration-inactive-top"
       transform="translate(145,-6)">
      <path
         style="opacity:0.5;fill:url(#linearGradient6612-5);fill-opacity:1;stroke:none"
         d="M 525,5 V 41 H 670 V 5 Z"
         transform="translate(-200,135)"
         id="path6055-5-5" />
      <path
         transform="translate(-145,90)"
         d="m 470,85 v 1 h 145 v -1 z"
         style="opacity:1;fill:#434646;fill-opacity:1;stroke:none"
         id="path6098-4-8" />
      <path
         style="opacity:1;fill:#2c2f2f;fill-opacity:1;stroke:none;stroke-width:1"
         d="m 325,176 v 30 h 145 v -30 z"
         id="path6092-3-3" />
    </g>
    <g
       id="decoration-inactive-left"
       transform="translate(120.125,2.98452)">
      <path
         style="opacity:0.5;fill:url(#linearGradient1389);fill-opacity:1;stroke:none;stroke-width:1.00664"
         d="m 244.875,197.01548 v 86 l 76,-0.0155 v -85.98452 z"
         id="path6345-1-1" />
      <path
         id="path6342-6-6"
         d="m 319.875,197.01548 v 86 h 1 v -86 z"
         style="opacity:1;fill:#434646;fill-opacity:1;stroke:none;stroke-width:0.447214" />
      <path
         style="opacity:0.99;fill:#2c2f2f;fill-opacity:1;stroke:none"
         d="m 320.875,197.01548 v 86 h 29 v -86 z"
         id="path6339-9-9" />
    </g>
    <g
       transform="translate(-385,-4.000015)"
       id="decoration-bottomleft">
      <path
         id="rect7023-1"
         style="opacity:0.95;fill:#2c2f2f;fill-opacity:1;stroke:none"
         d="M 81 196 C 81 202.648 86.352 208 93 208 L 110 208 L 110 196 L 81 196 z "
         transform="translate(385,94.000015)" />
      <g
         transform="matrix(1,0,0,0.99932111,165,-10.666582)"
         id="hrh-6">
        <path
           id="rect5099-9-5"
           style="opacity:0.5;fill:url(#radialGradient965);fill-opacity:1;stroke:none"
           d="M 5 196 L 5 294 L 110 294 L 110 208 L 93 208 C 86.352 208 81 202.648 81 196 L 5 196 z "
           transform="matrix(1,0,0,1.0006794,220,104.7377)" />
        <g
           id="decoration-bottomleft57547-54-5"
           transform="translate(-20,24)">
          <g
             id="g6659-3-3-0" />
        </g>
        <path
           id="path168"
           style="opacity:1;fill:#4f5454;fill-opacity:1;stroke:none"
           d="M 80 196 C 80 203.202 85.798 209 93 209 L 110 209 L 110 208 L 93 208 C 86.352 208 81 202.648 81 196 L 80 196 z "
           transform="matrix(1,0,0,1.0006794,220,104.7377)" />
      </g>
    </g>
    <g
       id="decoration-inactive-bottomleft">
      <path
         id="path4207"
         style="opacity:0.96;fill:#2c2f2f;fill-opacity:1;stroke:none;stroke-width:1.41421"
         d="m 441,196 c 0,6.648 5.352,12 12,12 h 14 3 v -12 z"
         transform="translate(0,90)" />
      <g
         transform="matrix(1,0,0,0.99932111,140,-14.604092)"
         id="hrh-3">
        <path
           id="rect5099-9-6"
           style="opacity:0.5;fill:url(#radialGradient967);fill-opacity:1;stroke:none"
           d="m 365,196 v 98 h 105 v -86 h -3 -14 c -6.648,0 -12,-5.352 -12,-12 z"
           transform="matrix(1,0,0,1.0006794,-140,104.67515)" />
        <g
           id="decoration-bottomleft57547-54-2"
           transform="translate(-20,24)">
          <g
             id="g6659-3-3-4" />
        </g>
        <path
           id="path188"
           style="opacity:1;fill:#434646;fill-opacity:1;stroke:none"
           d="m 440,196 c 0,7.202 5.798,13 13,13 h 14 l 3,-1e-5 V 208 h -3 -14 c -6.648,0 -12,-5.352 -12,-12 z"
           transform="matrix(1,0,0,1.0006794,-140,104.67515)" />
      </g>
    </g>
    <rect
       style="opacity:1;fill:#ff00ff;fill-opacity:1;stroke:none;stroke-width:0.447214"
       id="shadow-hint-top-margin"
       width="4"
       height="35.999897"
       x="174"
       y="134.00005" />
    <rect
       style="opacity:1;fill:#ff00ff;fill-opacity:1;stroke:none;stroke-width:1.18321598"
       id="shadow-hint-bottom-margin"
       width="4"
       height="85.999969"
       x="175"
       y="298.00003" />
    <rect
       style="opacity:1;fill:#ff00ff;fill-opacity:1;stroke:none;stroke-width:0.707107"
       id="shadow-hint-right-margin"
       width="76"
       height="4"
       x="284"
       y="230" />
    <rect
       style="opacity:1;fill:#ff00ff;fill-opacity:1;stroke:none;stroke-width:0.707107"
       id="shadow-hint-left-margin"
       width="76"
       height="4"
       x="5"
       y="224" />
    <rect
       id="hint-top-margin"
       width="4"
       height="66"
       x="186"
       y="134"
       style="fill:#00ff29;fill-opacity:1;stroke:none;stroke-width:1.08465" />
    <rect
       id="hint-bottom-margin"
       width="4"
       height="97.999992"
       x="187"
       y="286"
       style="fill:#00ff29;fill-opacity:1;stroke:none;stroke-width:1.11946" />
    <rect
       id="hint-right-margin"
       width="4"
       height="105"
       x="219"
       y="-360"
       transform="rotate(90)"
       style="fill:#00ff29;fill-opacity:1;stroke:none;stroke-width:1.08465" />
    <rect
       id="hint-left-margin"
       width="4"
       height="105"
       x="216"
       y="-110"
       transform="rotate(90)"
       style="fill:#00ff29;fill-opacity:1;stroke:none;stroke-width:1.0853" />
    <g
       transform="matrix(-1,0,0,1,535,-31.0625)"
       id="decoration-topleft">
      <path
         id="path1019"
         style="opacity:0.5;fill:url(#radialGradient1306);fill-opacity:1;stroke:none"
         d="m 5,50 v 66 H 81 V 98 c 0,-6.648 5.352,-12 12,-12 h 17 V 50 Z"
         transform="matrix(-1,0,0,1,535,115.0625)" />
      <g
         transform="translate(250)"
         id="g1027">
        <g
           id="g1025"
           transform="matrix(-1,0,0,1,524,26)">
          <path
             id="path1023"
             style="opacity:1;fill:url(#linearGradient977);fill-opacity:1;stroke:none;stroke-width:1"
             d="m 93,86 c -6.648,0 -12,5.352 -12,12 v 18 h 29 V 86 Z"
             transform="translate(239,89.0625)" />
          <path
             transform="translate(239,95.0625)"
             d="M 93 80 C 86.352 80 81 85.352 81 92 L 81 92.599609 C 81 86.173209 86.352 81 93 81 L 110 81 L 110 80 L 93 80 z "
             style="opacity:1;fill:#3e4242;fill-opacity:1;stroke:none;stroke-width:1"
             id="path961" />
        </g>
      </g>
      <path
         id="path187"
         style="opacity:1;fill:#4f5454;fill-opacity:1;stroke:none"
         d="m 93,85 c -7.202,0 -13,5.798 -13,13 v 18 h 1 V 98 c 0,-6.648 5.352,-12 12,-12 h 17 v -1 z"
         transform="matrix(-1,0,0,1,535,115.0625)" />
    </g>
    <g
       transform="matrix(-1,0,0,1,964.875,2.98452)"
       id="decoration-inactive-right">
      <path
         id="path1004"
         d="m 244.875,197.01548 v 86 l 76,-0.0155 v -85.98452 z"
         style="opacity:0.5;fill:url(#linearGradient1012);fill-opacity:1;stroke:none;stroke-width:1.00664" />
      <path
         style="opacity:1;fill:#434646;fill-opacity:1;stroke:none;stroke-width:0.447214"
         d="m 319.875,197.01548 v 86 h 1 v -86 z"
         id="path1006" />
      <path
         id="path1008"
         d="m 320.875,197.01548 v 86 h 29 v -86 z"
         style="opacity:0.99;fill:#2c2f2f;fill-opacity:1;stroke:none" />
    </g>
    <use
       x="0"
       y="0"
       xlink:href="#decoration-topleft"
       id="decoration-topright"
       transform="matrix(-1,0,0,1,365,0)"
       width="100%"
       height="100%" />
    <use
       x="0"
       y="0"
       xlink:href="#decoration-inactive-topleft"
       id="decoration-inactive-topright"
       transform="matrix(-1,0,0,1,1085,0)"
       width="100%"
       height="100%" />
    <use
       x="0"
       y="0"
       xlink:href="#decoration-bottomleft"
       id="decoration-bottomright"
       transform="matrix(-1,0,0,1,365,0)"
       width="100%"
       height="100%" />
    <use
       x="0"
       y="0"
       xlink:href="#decoration-inactive-bottomleft"
       id="decoration-inactive-bottomright"
       transform="matrix(-1,0,0,1,1085,0)"
       width="100%"
       height="100%" />
  </g>
</svg>
