<?xml version="1.0" encoding="UTF-8" standalone="no"?>
<!-- Created with Inkscape (http://www.inkscape.org/) -->

<svg
   xmlns:dc="http://purl.org/dc/elements/1.1/"
   xmlns:cc="http://creativecommons.org/ns#"
   xmlns:rdf="http://www.w3.org/1999/02/22-rdf-syntax-ns#"
   xmlns:svg="http://www.w3.org/2000/svg"
   xmlns="http://www.w3.org/2000/svg"
   xmlns:xlink="http://www.w3.org/1999/xlink"
   xmlns:sodipodi="http://sodipodi.sourceforge.net/DTD/sodipodi-0.dtd"
   xmlns:inkscape="http://www.inkscape.org/namespaces/inkscape"
   width="24"
   height="24"
   id="svg4428"
   version="1.1"
   inkscape:version="0.92.4 5da689c313, 2019-01-14"
   sodipodi:docname="close.svg">
  <defs
     id="defs4430" />
  <sodipodi:namedview
     id="base"
     pagecolor="#eff0f1"
     bordercolor="#666666"
     borderopacity="1.0"
     inkscape:pageopacity="1"
     inkscape:pageshadow="2"
     inkscape:zoom="2.1636304"
     inkscape:cx="-25.908135"
     inkscape:cy="27.793612"
     inkscape:document-units="px"
     inkscape:current-layer="layer1"
     showgrid="true"
     inkscape:snap-bbox="true"
     inkscape:window-width="1366"
     inkscape:window-height="708"
     inkscape:window-x="0"
     inkscape:window-y="34"
     inkscape:window-maximized="1"
     showborder="true"
     inkscape:showpageshadow="false"
     inkscape:snap-nodes="false"
     inkscape:bbox-nodes="true"
     inkscape:snap-bbox-edge-midpoints="false"
     inkscape:snap-global="false">
    <inkscape:grid
       type="xygrid"
       id="grid4436"
       empspacing="5"
       visible="true"
       enabled="true"
       snapvisiblegridlinesonly="true"
       originx="0"
       originy="0"
       spacingx="1.0666667"
       spacingy="1.0666667" />
  </sodipodi:namedview>
  <metadata
     id="metadata4433">
    <rdf:RDF>
      <cc:Work
         rdf:about="">
        <dc:format>image/svg+xml</dc:format>
        <dc:type
           rdf:resource="http://purl.org/dc/dcmitype/StillImage" />
        <dc:title />
      </cc:Work>
    </rdf:RDF>
  </metadata>
  <g
     inkscape:label="Layer 1"
     inkscape:groupmode="layer"
     id="layer1"
     transform="translate(0,-1098.5197)">
    <g
       id="4"
       inkscape:label="#g3842"
       transform="translate(86.4,-3.2)" />
    <g
       transform="translate(-286.87288,1376.6524)"
       style="display:inline"
       id="active-center"
       inkscape:label="#active-center">
      <rect
         style="opacity:0;fill:#000000;fill-opacity:1;stroke:none;stroke-width:0.47432083;stroke-linejoin:miter;stroke-miterlimit:4;stroke-dasharray:none;stroke-opacity:1;paint-order:markers stroke fill"
         id="rect1569-36-2"
         width="16"
         height="16"
         x="293"
         y="-242.63782"
         ry="1.6930764e-05" />
      <g
         inkscape:label="#g841"
         transform="translate(294,-241.63782)"
         id="titlebutton-close-1-7-1"
         style="enable-background:new">
        <g
           transform="translate(-4.9999997,-1033.3622)"
           id="g6-53-7">
          <path
             style="fill:#e9524a;fill-opacity:1;fill-rule:evenodd;stroke:none"
             d="m 12.000061,1047.3622 c 3.865929,0 6.999939,-3.134 6.999939,-7 0,-3.866 -3.13401,-7 -6.999939,-7 -3.8660427,0 -7.0000616,3.134 -7.0000616,7 0,3.866 3.1340189,7 7.0000616,7"
             id="path2-56-8"
             inkscape:connector-curvature="0" />
        </g>
      </g>
    </g>
    <g
       transform="translate(-289.32297,1313.0314)"
       style="display:inline"
       id="inactive-center"
       inkscape:label="#inactive-center">
      <rect
         ry="1.6930764e-05"
         y="-268.63782"
         x="293"
         height="16"
         width="16"
         id="rect1561-02-6"
         style="opacity:0;fill:#000000;fill-opacity:1;stroke:none;stroke-width:0.47432083;stroke-linejoin:miter;stroke-miterlimit:4;stroke-dasharray:none;stroke-opacity:1;paint-order:markers stroke fill" />
      <g
         inkscape:label="#g965"
         transform="translate(294,-267.63782)"
         id="titlebutton-close-backdrop-1-3-4"
         style="enable-background:new">
        <g
           transform="translate(-4.9999997,-1033.3622)"
           id="g6-97-7-3">
          <path
             style="fill:#5d5d5d;fill-opacity:1;fill-rule:evenodd;stroke:none"
             d="m 12.000061,1047.3622 c 3.865929,0 6.999939,-3.134 6.999939,-7 0,-3.866 -3.13401,-7 -6.999939,-7 -3.8660427,0 -7.0000616,3.134 -7.0000616,7 0,3.866 3.1340189,7 7.0000616,7"
             id="path2-361-5-3"
             inkscape:connector-curvature="0" />
        </g>
      </g>
    </g>
    <g
       transform="translate(-288.10682,1261.6974)"
       style="display:inline"
       id="pressed-center"
       inkscape:label="#pressed-center">
      <rect
         style="opacity:0;fill:#000000;fill-opacity:1;stroke:none;stroke-width:0.47432083;stroke-linejoin:miter;stroke-miterlimit:4;stroke-dasharray:none;stroke-opacity:1;paint-order:markers stroke fill"
         id="rect1586-93-9"
         width="16"
         height="16"
         x="293"
         y="-190.63782"
         ry="1.6930764e-05" />
      <g
         inkscape:label="#g853"
         transform="translate(294,-189.63782)"
         id="titlebutton-close-active-1-1-7"
         style="enable-background:new">
        <g
           transform="translate(-4.9999997,-1033.3622)"
           id="g6-3-9-7">
          <path
             style="fill:#e9524a;fill-opacity:1;fill-rule:evenodd;stroke:none"
             d="m 12.000061,1047.3622 c 3.865929,0 6.999939,-3.134 6.999939,-7 0,-3.866 -3.13401,-7 -6.999939,-7 -3.8660427,0 -7.0000616,3.134 -7.0000616,7 0,3.866 3.1340189,7 7.0000616,7"
             id="path2-6-4-6"
             inkscape:connector-curvature="0" />
          <path
             style="opacity:0.5;fill:#000000;fill-opacity:1;stroke:none;stroke-width:2;stroke-linecap:round;stroke-linejoin:round;stroke-miterlimit:4;stroke-dasharray:none;stroke-opacity:1;enable-background:new"
             d="m 9.1715729,1037.5338 c -0.3917372,0.3917 -0.3917372,1.0224 0,1.4142 l 1.4142131,1.4142 -1.4142131,1.4142 c -0.3917372,0.3918 -0.3917372,1.0225 0,1.4142 0.3917371,0.3918 1.0224761,0.3918 1.4142131,0 L 12,1041.7764 l 1.414214,1.4142 c 0.391737,0.3918 1.022476,0.3918 1.414213,0 0.391737,-0.3917 0.391737,-1.0224 0,-1.4142 l -1.414213,-1.4142 1.414213,-1.4142 c 0.391737,-0.3918 0.391737,-1.0225 0,-1.4142 -0.391737,-0.3918 -1.022476,-0.3918 -1.414213,0 L 12,1038.948 l -1.414214,-1.4142 c -0.391737,-0.3918 -1.022476,-0.3918 -1.4142131,0 z"
             id="path4-7-7-4"
             inkscape:connector-curvature="0" />
          <path
             inkscape:connector-curvature="0"
             id="path3626"
             d="m 12.000061,1047.3622 c 3.865929,0 6.999939,-3.134 6.999939,-7 0,-3.866 -3.13401,-7 -6.999939,-7 -3.8660427,0 -7.0000616,3.134 -7.0000616,7 0,3.866 3.1340189,7 7.0000616,7"
             style="opacity:0.2;fill:#000000;fill-opacity:1;fill-rule:evenodd;stroke:none" />
        </g>
      </g>
    </g>
    <g
       transform="translate(-288.71495,1319.1693)"
       style="display:inline"
       id="hover-center"
       inkscape:label="#hover-center">
      <rect
         ry="1.6930764e-05"
         y="-216.63782"
         x="293"
         height="16"
         width="16"
         id="rect1577-8-3"
         style="opacity:0;fill:#000000;fill-opacity:1;stroke:none;stroke-width:0.47432083;stroke-linejoin:miter;stroke-miterlimit:4;stroke-dasharray:none;stroke-opacity:1;paint-order:markers stroke fill" />
      <g
         inkscape:label="#g879"
         transform="translate(294,-215.63782)"
         id="titlebutton-close-hover-1-4-0"
         style="enable-background:new">
        <g
           transform="translate(-4.9999997,-1033.3622)"
           id="g8-5-3">
          <path
             style="fill:#e9524a;fill-opacity:1;fill-rule:evenodd;stroke:none"
             d="m 12.000061,1047.3622 c 3.865929,0 6.999939,-3.134 6.999939,-7 0,-3.866 -3.13401,-7 -6.999939,-7 -3.8660427,0 -7.0000616,3.134 -7.0000616,7 0,3.866 3.1340189,7 7.0000616,7"
             id="path2-62-0-0"
             inkscape:connector-curvature="0" />
          <path
             style="opacity:0.5;fill:#000000;fill-opacity:1;stroke:none;stroke-width:2;stroke-linecap:round;stroke-linejoin:round;stroke-miterlimit:4;stroke-dasharray:none;stroke-opacity:1;enable-background:new"
             d="m 9.1715729,1037.5338 c -0.3917372,0.3917 -0.3917372,1.0224 0,1.4142 l 1.4142131,1.4142 -1.4142131,1.4142 c -0.3917372,0.3918 -0.3917372,1.0225 0,1.4142 0.3917371,0.3918 1.0224761,0.3918 1.4142131,0 L 12,1041.7764 l 1.414214,1.4142 c 0.391737,0.3918 1.022476,0.3918 1.414213,0 0.391737,-0.3917 0.391737,-1.0224 0,-1.4142 l -1.414213,-1.4142 1.414213,-1.4142 c 0.391737,-0.3918 0.391737,-1.0225 0,-1.4142 -0.391737,-0.3918 -1.022476,-0.3918 -1.414213,0 L 12,1038.948 l -1.414214,-1.4142 c -0.391737,-0.3918 -1.022476,-0.3918 -1.4142131,0 z"
             id="path6-36-9"
             inkscape:connector-curvature="0" />
        </g>
      </g>
    </g>
    <use
       x="0"
       y="0"
       xlink:href="#inactive-center"
       id="deactivated-center"
       transform="translate(-0.21337223,-26.948412)"
       width="100%"
       height="100%" />
    <g
       inkscape:label="#hover-inactive-center"
       id="hover-inactive-center"
       style="display:inline"
       transform="translate(-256.73259,1293.5618)">
      <rect
         ry="1.6930764e-05"
         y="-190.63782"
         x="293"
         height="16"
         width="16"
         id="rect854"
         style="opacity:0;fill:#000000;fill-opacity:1;stroke:none;stroke-width:0.47432083;stroke-linejoin:miter;stroke-miterlimit:4;stroke-dasharray:none;stroke-opacity:1;paint-order:markers stroke fill" />
      <g
         style="enable-background:new"
         id="g864"
         transform="translate(294,-189.63782)"
         inkscape:label="#g853">
        <g
           id="g862"
           transform="translate(-4.9999997,-1033.3622)">
          <path
             inkscape:connector-curvature="0"
             id="path856"
             d="m 12.000061,1047.3622 c 3.865929,0 6.999939,-3.134 6.999939,-7 0,-3.866 -3.13401,-7 -6.999939,-7 -3.8660427,0 -7.0000616,3.134 -7.0000616,7 0,3.866 3.1340189,7 7.0000616,7"
             style="fill:#5d5d5d;fill-opacity:1;fill-rule:evenodd;stroke:none" />
          <path
             inkscape:connector-curvature="0"
             id="path858"
             d="m 9.1715729,1037.5338 c -0.3917372,0.3917 -0.3917372,1.0224 0,1.4142 l 1.4142131,1.4142 -1.4142131,1.4142 c -0.3917372,0.3918 -0.3917372,1.0225 0,1.4142 0.3917371,0.3918 1.0224761,0.3918 1.4142131,0 L 12,1041.7764 l 1.414214,1.4142 c 0.391737,0.3918 1.022476,0.3918 1.414213,0 0.391737,-0.3917 0.391737,-1.0224 0,-1.4142 l -1.414213,-1.4142 1.414213,-1.4142 c 0.391737,-0.3918 0.391737,-1.0225 0,-1.4142 -0.391737,-0.3918 -1.022476,-0.3918 -1.414213,0 L 12,1038.948 l -1.414214,-1.4142 c -0.391737,-0.3918 -1.022476,-0.3918 -1.4142131,0 z"
             style="opacity:0.5;fill:#000000;fill-opacity:1;stroke:none;stroke-width:2;stroke-linecap:round;stroke-linejoin:round;stroke-miterlimit:4;stroke-dasharray:none;stroke-opacity:1;enable-background:new" />
        </g>
      </g>
    </g>
    <use
       height="100%"
       width="100%"
       transform="translate(28.709752,-26.948412)"
       id="deactivated-inactive-center"
       xlink:href="#inactive-center"
       y="0"
       x="0" />
  </g>
</svg>
