<svg xmlns="http://www.w3.org/2000/svg" width="32" height="32" version="1.1">
 <g id="22-22-akonadi" transform="translate(32.000001,10.000001)">
  <path  style="opacity:0.001" d="M 0,2.5e-7 H 22 V 22 H 0 Z"/>
  <path  style="opacity:1;fill:#eff0f1" d="M 8.0019531,3 C 5.795054,4.2739076 4.4304903,6.4317524 4.0898438,8.7636719 4.3312286,8.649147 4.580506,8.54683 4.8359375,8.4648438 5.9378894,8.1111481 7.1671312,8.0051178 8.453125,8 10.233741,7.9929137 12.135218,8.2250012 13.919922,8.5664062 12.530826,5.5682343 10.524073,2.9883483 8.0019531,3 Z m 4.2402349,1.1171875 c 1.042747,1.1188808 1.891926,2.5313686 2.585937,4.0292969 l 0.318359,0.6875 C 16.1095,9.0535358 17.033238,9.2902494 17.837891,9.5429688 17.245192,6.7671602 15.034948,4.6240338 12.242188,4.1171875 Z M 8.4570312,9 C 5.9988957,9.0097826 3.8923126,9.4379738 3,11 c 0,4.418 3.5817,8 8,8 4.418,0 8,-3.582 8,-8 C 16.659086,10.084609 12.159712,8.9852645 8.4570312,9 Z m 0.00391,1 C 11.665637,9.9872463 15.519351,10.902043 17.857422,11.712891 17.485897,15.235802 14.624442,18 11,18 7.2469778,18 4.2624327,15.054896 4.0703125,11.351562 4.3746567,10.933897 4.758954,10.590113 5.4472656,10.369141 6.2363756,10.115808 7.288796,10.004665 8.4609375,10 Z"/>
 </g>
 <g id="akonadi">
  <path  style="opacity:0.001" d="M 0,3.6363637e-7 H 32.000001 V 32.000001 H 0 Z"/>
  <path  style="opacity:1;fill:#eff0f1" d="M 11.503906 4 C 8.7827889 5.5707345 5.8395777 10.285259 4.5839844 13.863281 C 5.2641855 13.339685 6.0551012 12.947078 6.90625 12.673828 C 8.4807698 12.168351 10.281112 12.0076 12.181641 12 C 14.962395 11.98893 17.973679 12.374676 20.761719 12.933594 C 18.510288 8.7279679 14.839534 3.9845901 11.503906 4 z M 17.304688 5.7695312 C 18.868809 7.4478525 20.70117 9.473811 21.742188 11.720703 L 22.451172 13.304688 C 24.129104 13.695771 25.682086 14.131729 26.990234 14.574219 C 25.737265 10.617745 21.249538 6.4854659 17.304688 5.7695312 z M 12.185547 13 C 8.4983427 13.01467 5.338469 13.656961 4 16 C 4 22.627001 9.3725504 28 16 28 C 22.627001 28 28 22.627001 28 16 C 24.48863 14.626914 17.739567 12.977896 12.185547 13 z M 12.189453 14 C 17.243253 13.97989 23.34363 15.44217 26.857422 16.710938 C 26.473136 22.445758 21.834192 27 16 27 C 10.015661 27 5.2204308 22.233034 5.0585938 16.289062 C 5.5894674 15.510283 6.3697753 14.946611 7.5175781 14.578125 C 8.7794139 14.17303 10.402778 14.007109 12.189453 14 z"/>
 </g>
</svg>
