<svg xmlns="http://www.w3.org/2000/svg" width="32" height="32" version="1">
 <g id="22-22-corectrl" transform="translate(27,5)">
  <rect style="opacity:0.001" width="22" height="22" x="5" y="5"/>
  <path style="fill:#eff0f1" d="M 10,7 V 8.7871094 C 10.289209,8.5252068 10.627045,8.3220264 11,8.1875 V 7 Z m 2,0 v 1 h 1 V 7 Z m 2,0 v 1 h 1 V 7 Z m 2,0 v 1 h 1 V 7 Z m 2,0 v 1 h 1 V 7 Z m 2,0 v 1 h 1 V 7 Z m 2,0 v 1.1875 c 0.372955,0.1345264 0.710791,0.3377068 1,0.5996094 V 7 Z M 8,9 v 1 H 9.1875 C 9.3220264,9.6270446 9.5252068,9.2892091 9.7871094,9 Z m 4,0 c -1.108,0 -2,0.892 -2,2 v 9 c 0,1.108 0.892,2 2,2 h 9 c 1.108,0 2,-0.892 2,-2 V 11 C 23,9.892 22.108,9 21,9 Z m 11.212891,0 c 0.261902,0.2892091 0.465083,0.6270446 0.599609,1 H 25 V 9 Z M 13,10 h 1 v 4 h 1 v 2 h -1 v 5 h -1 v -5 h -1 v -2 h 1 z m 4,0 h 4 v 2 h -1 v -1 h -2 v 1.083984 l 0.777344,0.832032 V 14 H 20 v -1 h 1 v 2 h -4 z m -9,1 v 1 h 1 v -1 z m 16,0 v 1 h 1 V 11 Z M 8,13 v 1 h 1 v -1 z m 16,0 v 1 h 1 V 13 Z M 8,15 v 1 h 1 v -1 z m 16,0 v 1 h 1 v -1 z m -7,1 h 4 v 2 h -1 v -1 h -2 v 1.083984 l 0.777344,0.832032 V 20 H 20 v -1 h 1 v 2 h -4 z m -9,1 v 1 h 1 v -1 z m 16,0 v 1 h 1 V 17 Z M 8,19 v 1 h 1 v -1 z m 16,0 v 1 h 1 V 19 Z M 8,21 v 1 H 9.7871094 C 9.5252068,21.710791 9.3220264,21.372955 9.1875,21 Z m 15.8125,0 c -0.134526,0.372955 -0.337707,0.710791 -0.599609,1 H 25 V 21 Z M 10,22.212891 V 24 h 1 v -1.1875 c -0.372955,-0.134526 -0.710791,-0.337707 -1,-0.599609 z m 13,0 c -0.289209,0.261902 -0.627045,0.465083 -1,0.599609 V 24 h 1 z M 12,23 v 1 h 1 v -1 z m 2,0 v 1 h 1 v -1 z m 2,0 v 1 h 1 v -1 z m 2,0 v 1 h 1 v -1 z m 2,0 v 1 h 1 v -1 z"/>
 </g>
 <g id="corectrl">
  <rect style="opacity:0.001" width="32" height="32" x="0" y="0"/>
  <path style="fill:#eff0f1" d="M 7 3 L 7 6 L 4 6 L 4 7 L 6.5585938 7 C 6.9082397 6.4027197 7.4027197 5.9082397 8 5.5585938 L 8 3 L 7 3 z M 10 3 L 10 5 L 11 5 L 11 3 L 10 3 z M 13 3 L 13 5 L 14 5 L 14 3 L 13 3 z M 16 3 L 16 5 L 17 5 L 17 3 L 16 3 z M 19 3 L 19 5 L 20 5 L 20 3 L 19 3 z M 22 3 L 22 5 L 23 5 L 23 3 L 22 3 z M 25 3 L 25 5.5585938 C 25.59728 5.9082397 26.09176 6.4027197 26.441406 7 L 29 7 L 29 6 L 26 6 L 26 3 L 25 3 z M 10 6 C 8.338 6 7 7.338 7 9 L 7 22 C 7 23.662 8.338 25 10 25 L 23 25 C 24.662 25 26 23.662 26 22 L 26 9 C 26 7.338 24.662 6 23 6 L 10 6 z M 11 8 L 12 8 L 12 14.964844 L 12 15 L 14 15 L 14 17 L 12 17 L 12 23 L 11 23 L 11 17 L 9 17 L 9 15 L 11 15 L 11 14.964844 L 11 8 z M 18 8 L 23 8 L 23 10 L 22 10 L 22 9 L 19 9 L 19 10.916016 L 20 12.083984 L 20 14 L 22 14 L 22 13 L 23 13 L 23 15 L 18 15 L 18 8 z M 4 9 L 4 10 L 6 10 L 6 9 L 4 9 z M 27 9 L 27 10 L 29 10 L 29 9 L 27 9 z M 4 12 L 4 13 L 6 13 L 6 12 L 4 12 z M 27 12 L 27 13 L 29 13 L 29 12 L 27 12 z M 4 15 L 4 16 L 6 16 L 6 15 L 4 15 z M 27 15 L 27 16 L 29 16 L 29 15 L 27 15 z M 18 16 L 23 16 L 23 18 L 22 18 L 22 17 L 19 17 L 19 18.916016 L 20 20.083984 L 20 22 L 22 22 L 22 21 L 23 21 L 23 23 L 18 23 L 18 16 z M 4 18 L 4 19 L 6 19 L 6 18 L 4 18 z M 27 18 L 27 19 L 29 19 L 29 18 L 27 18 z M 4 21 L 4 22 L 6 22 L 6 21 L 4 21 z M 27 21 L 27 22 L 29 22 L 29 21 L 27 21 z M 4 24 L 4 25 L 7 25 L 7 28 L 8 28 L 8 25.441406 C 7.4027197 25.09176 6.9082397 24.59728 6.5585938 24 L 4 24 z M 26.441406 24 C 26.09176 24.59728 25.59728 25.09176 25 25.441406 L 25 28 L 26 28 L 26 25 L 29 25 L 29 24 L 26.441406 24 z M 10 26 L 10 28 L 11 28 L 11 26 L 10 26 z M 13 26 L 13 28 L 14 28 L 14 26 L 13 26 z M 16 26 L 16 28 L 17 28 L 17 26 L 16 26 z M 19 26 L 19 28 L 20 28 L 20 26 L 19 26 z M 22 26 L 22 28 L 23 28 L 23 26 L 22 26 z"/>
 </g>
</svg>
