<?xml version="1.0" encoding="UTF-8" standalone="no"?>
<svg
   xmlns:dc="http://purl.org/dc/elements/1.1/"
   xmlns:cc="http://creativecommons.org/ns#"
   xmlns:rdf="http://www.w3.org/1999/02/22-rdf-syntax-ns#"
   xmlns:svg="http://www.w3.org/2000/svg"
   xmlns="http://www.w3.org/2000/svg"
   xmlns:xlink="http://www.w3.org/1999/xlink"
   id="svg195"
   version="1.1"
   height="154"
   width="242">
  <metadata
     id="metadata197">
    <rdf:RDF>
      <cc:Work
         rdf:about="">
        <dc:format>image/svg+xml</dc:format>
        <dc:type
           rdf:resource="http://purl.org/dc/dcmitype/StillImage" />
        <dc:title></dc:title>
      </cc:Work>
    </rdf:RDF>
  </metadata>
  <defs
     id="defs5">
    <style
       type="text/css"
       id="current-color-scheme"> .ColorScheme-Text { color:#363636; } </style>
  </defs>
  <g
     transform="translate(23.843 45.538)"
     id="ime-sunpinyin">
    <path
       id="path7"
       fill="currentColor"
       class="ColorScheme-Text"
       d="m11 1.514c-0.256 0-0.511 0.099-0.707 0.295l-2.191 2.191h-3.102c-0.554 0-1 0.446-1 1v3.1l-2.193 2.193a0.998 0.998 0 0 0 0 1.414l2.193 2.193v3.1c0 0.554 0.446 1 1 1h3.1l2.193 2.193a0.998 0.998 0 0 0 1.414 0l2.193-2.193h3.1c0.554 0 1-0.446 1-1v-3.102l2.191-2.191a0.998 0.998 0 0 0 0-1.414l-2.191-2.191v-3.102c0-0.554-0.446-1-1-1h-3.102l-2.191-2.191a0.998 0.998 0 0 0-0.707-0.295zm-0.1 3.186 1.5 2-0.398 0.299h1.996l-0.398-0.299 1.5-2 0.8 0.6-1.275 1.7h2.375v1h-2v3h2v1h-2v5h-1v-5h-2.041c-0.096 1.119-0.477 2.03-0.926 2.807-0.62 1.075-1.691 2.058-1.691 2.058l-0.684-0.728s1.013-0.97 1.51-1.83c0.401-0.695 0.704-1.412 0.793-2.307h-1.961v-0.941l-1 0.5v5.441h-3v-1h2v-3.941l-1.777 0.888-0.446-0.894 2.223-1.113v-2.94h-2v-1h2v-2h1v2h1v1h-1v2.441l0.777-0.388 0.446 0.894-0.106 0.053h1.883v-3h-1v-1h1.375l-1.275-1.7 0.8-0.599zm1.1 3.3v3h2v-3z" />
    <path
       id="path9"
       fill="none"
       d="m0 0h22v22h-22z" />
  </g>
  <g
     transform="translate(1.8428 -36.462)"
     id="ime-emoji">
    <path
       id="path12"
       fill="none"
       d="m0 170h22v22h-22z" />
    <path
       id="path14"
       fill="currentColor"
       class="ColorScheme-Text"
       d="m3.223 150.05-0.446 0.894 4 2 0.446-0.894zm15.554 0-4 2 0.446 0.894 4-2zm-14.777 2.947a1 1 0 0 0-1 1 1 1 0 0 0 1 1 1 1 0 0 0 1-1 1 1 0 0 0-1-1zm14 0a1 1 0 0 0-1 1 1 1 0 0 0 1 1 1 1 0 0 0 1-1 1 1 0 0 0-1-1zm-9.9 1.7c-0.81 1.08-1.235 2.288-1.16 3.335 0.037 0.524 0.21 1.022 0.568 1.39 0.358 0.37 0.888 0.575 1.492 0.575 0.961 0 1.639-0.68 2-1.457 0.361 0.776 1.039 1.457 2 1.457 0.604 0 1.134-0.205 1.492-0.574 0.359-0.37 0.531-0.867 0.569-1.39 0.074-1.048-0.35-2.257-1.16-3.337l-0.801 0.602c0.69 0.92 1.015 1.961 0.964 2.664-0.025 0.351-0.133 0.603-0.29 0.765-0.158 0.163-0.378 0.27-0.774 0.27-0.528 0-0.84-0.307-1.107-0.895-0.268-0.587-0.393-1.41-0.393-2.105h-1c0 0.694-0.125 1.518-0.393 2.105-0.267 0.588-0.58 0.895-1.107 0.895-0.396 0-0.616-0.107-0.773-0.27-0.158-0.162-0.266-0.414-0.291-0.765-0.05-0.703 0.274-1.744 0.964-2.664l-0.8-0.602z"
       transform="translate(0,26)" />
  </g>
  <g
     transform="translate(1.8428 -58.462)"
     id="ime-unikey">
    <path
       id="path17"
       fill="none"
       d="m0 170h22v22h-22z" />
    <path
       id="path19"
       fill="currentColor"
       class="ColorScheme-Text"
       d="m4 126v8h3v7h8v-7h3v-8h-7zm1 1h6v6h-6zm7 0h5v6h-5zm-6 1v1.5c0 0.806 0.123 1.423 0.484 1.875 0.362 0.452 0.933 0.625 1.516 0.625s1.154-0.173 1.516-0.625c0.361-0.452 0.484-1.07 0.484-1.875v-1.5h-1v1.5c0 0.694-0.127 1.077-0.266 1.25-0.138 0.173-0.317 0.25-0.734 0.25s-0.596-0.077-0.734-0.25c-0.139-0.173-0.266-0.556-0.266-1.25v-1.5zm8 0v4h1v-4zm-6 6h6v6h-6zm2 1h-1v4h1v-2.498l2 2.498h1v-4h-1v2.498z"
       transform="translate(0,48)" />
  </g>
  <g
     transform="translate(0,-104)"
     id="ime-anthy">
    <path
       id="path22"
       fill="none"
       d="m0 170h22v22h-22z" />
    <path
       id="path24"
       fill="currentColor"
       class="ColorScheme-Text"
       d="m11 173c-1.099 0-2 0.901-2 2v2e-3c1e-3 0.609 0.333 1.122 0.795 1.496-0.145 0.976-0.373 2.233-0.77 3.256-0.211 0.546-0.467 1.014-0.734 1.316s-0.507 0.43-0.791 0.43c-0.298 0-0.54-0.111-0.793-0.348-0.253-0.236-0.495-0.6-0.701-1.037-0.38-0.804-0.608-1.815-0.762-2.644 0.44-0.375 0.756-0.88 0.756-1.471 0-1.099-0.901-2-2-2s-2 0.901-2 2c1e-3 0.821 0.564 1.455 1.299 1.758l1.781 10.242h11.84l1.781-10.24c0.736-0.303 1.3-0.938 1.299-1.76 0-1.099-0.901-2-2-2s-2 0.901-2 2c0 0.592 0.316 1.096 0.756 1.47-0.154 0.83-0.382 1.841-0.762 2.645-0.206 0.436-0.448 0.801-0.701 1.037-0.254 0.237-0.495 0.348-0.793 0.348-0.284 0-0.524-0.128-0.791-0.43-0.267-0.301-0.523-0.77-0.734-1.316-0.397-1.022-0.625-2.278-0.77-3.254 0.462-0.374 0.795-0.89 0.795-1.5 0-1.099-0.901-2-2-2zm0 1c0.558 0 1 0.442 1 1 0 0.384-0.218 0.73-0.563 0.898l-0.326 0.159-0.222-2e-3 -0.326-0.159c-0.34326-0.16677-0.56168-0.51437-0.563-0.896v-2e-3c-0.00337-0.55335 0.44666-1.0025 1-0.998zm-7 1c0.558 0 1 0.442 1 1 6.06e-4 0.37382-0.20836 0.71643-0.541 0.887l-0.293 0.152-0.328-0.055c-0.48378-0.07645-0.83956-0.49422-0.838-0.984 0-0.558 0.442-1 1-1zm14 0c0.558 0 1 0.442 1 1 0 0.493-0.35 0.907-0.838 0.986l-0.326 0.055-0.295-0.154c-0.33264-0.17057-0.54161-0.51318-0.541-0.887 0-0.558 0.442-1 1-1z" />
  </g>
  <g
     transform="translate(133.84 -80.462)"
     id="ime-fullwidth-active">
    <path
       id="path27"
       fill="none"
       d="m0 170h22v22h-22z" />
    <circle
       id="circle29"
       fill="currentColor"
       class="ColorScheme-Text"
       r="8"
       cy="181"
       cx="11" />
  </g>
  <g
     transform="translate(155.84 -80.462)"
     id="ime-fullwidth-inactive">
    <path
       id="path32"
       fill="none"
       d="m0 170h22v22h-22z" />
    <path
       id="path34"
       fill="currentColor"
       class="ColorScheme-Text"
       d="m167.57 91.432a8 8 0 0 1 0.434 2.568 8 8 0 0 1-8 8 8 8 0 0 1-2.566-0.432 8 8 0 0 0 7.566 5.432 8 8 0 0 0 8-8 8 8 0 0 0-5.434-7.568z"
       transform="translate(-154,82)" />
  </g>
  <g
     transform="translate(155.84 -58.462)"
     id="ime-punc-inactive">
    <path
       id="path37"
       fill="none"
       d="m0 170h22v22h-22z" />
    <circle
       id="circle39"
       fill="currentColor"
       class="ColorScheme-Text"
       r="1.5"
       cy="180.5"
       cx="7.5" />
    <path
       id="path41"
       fill="currentColor"
       class="ColorScheme-Text"
       d="m14.5 179a1.5 1.5 0 0 0-1.5 1.5 1.5 1.5 0 0 0 1.5 1.5 1.5 1.5 0 0 0 0.047-2e-3c-0.533 0.94-1.348 1.602-1.348 1.602l0.602 0.8s1.967-1.426 2.162-3.572a1.5 1.5 0 0 0 0.037-0.328 1.5 1.5 0 0 0-1.5-1.5z" />
  </g>
  <g
     transform="translate(133.84 -58.462)"
     id="ime-punc-active">
    <path
       id="path44"
       fill="currentColor"
       class="ColorScheme-Text"
       d="m7.5 178a2.508 2.508 0 0 0-2.5 2.5c0 1.375 1.125 2.5 2.5 2.5s2.5-1.125 2.5-2.5-1.125-2.5-2.5-2.5zm0 1c0.834 0 1.5 0.666 1.5 1.5s-0.666 1.5-1.5 1.5-1.5-0.666-1.5-1.5 0.666-1.5 1.5-1.5z" />
    <path
       id="path46"
       fill="none"
       d="m0 170h22v22h-22z" />
    <path
       id="path48"
       fill="currentColor"
       class="ColorScheme-Text"
       d="m212.5 96a2.508 2.508 0 0 0-2.5 2.5c0 1.375 1.125 2.5 2.5 2.5 0.365 0 0.71-0.084 1.023-0.227a3.874 3.874 0 0 1-1.306 1.502c-0.895 0.616-1.78 0.729-1.78 0.729l0.125 0.992s1.116-0.137 2.221-0.896c1.105-0.76 2.217-2.202 2.217-4.6 0-1.375-1.125-2.5-2.5-2.5zm0 1c0.834 0 1.5 0.666 1.5 1.5s-0.666 1.5-1.5 1.5-1.5-0.666-1.5-1.5 0.666-1.5 1.5-1.5z"
       transform="translate(-198,82)" />
  </g>
  <g
     transform="translate(133.84 -36.462)"
     id="ime-chttrans-inactive">
    <path
       id="path51"
       fill="none"
       d="m0 170h22v22h-22z" />
    <path
       id="path53"
       fill="currentColor"
       class="ColorScheme-Text"
       d="m138.81 113.41c-0.507 1.367-1.347 2.598-2.519 3.692l0.996 0.761c0.195-0.039 0.742-0.722 1.64-2.05h0.762c0.43 0.625 0.801 1.27 1.114 1.933l1.172-0.644-0.938-1.29h2.05v-1.113h-3.632l0.469-0.937-1.113-0.352zm6.036 0c-0.47 1.328-1.27 2.54-2.403 3.633l0.996 0.762c0.665-0.625 1.172-1.29 1.524-1.992h0.996c0.43 0.586 0.8 1.21 1.113 1.875l1.055-0.645c-0.273-0.43-0.566-0.84-0.879-1.23h2.461v-1.114h-4.16c0.156-0.312 0.293-0.625 0.41-0.937zm-5.45 4.102-0.996 0.586c0.547 0.547 0.957 1.094 1.23 1.64l1.114-0.586a7.528 7.528 0 0 0-1.348-1.64zm1.993 0.527v0.996h6.386v6.035c0 0.547-0.136 0.82-0.41 0.82-0.39 0-0.898-0.019-1.523-0.058l0.293 1.113c0.547 0.04 1.015 0.059 1.406 0.059 0.469 0 0.82-0.137 1.055-0.41 0.234-0.274 0.351-0.664 0.351-1.172v-7.383zm-3.985 1.582v7.383h1.172v-7.383zm2.871 0.645v5.039h5.391v-5.04h-5.39zm1.114 0.996h3.164v0.996h-3.164zm0 1.933h3.164v1.114h-3.164zm-6.389 4.809v1h16v-1z"
       transform="translate(-132,60)" />
  </g>
  <g
     transform="translate(155.84 -36.462)"
     id="ime-chttrans-active">
    <path
       id="path56"
       fill="none"
       d="m0 170h22v22h-22z" />
    <path
       id="path58"
       fill="currentColor"
       class="ColorScheme-Text"
       d="m160.02 113.46c-0.313 0.703-0.899 1.387-1.758 2.05l0.82 0.645c0.39-0.273 0.762-0.644 1.113-1.113h5.45v-0.879h-4.864c0.04-0.117 0.098-0.254 0.176-0.41zm7.148 0a9.114 9.114 0 0 1-1.875 3.34l0.703 0.761 0.586-0.703a6.784 6.784 0 0 0 1.23 1.524c-0.625 0.508-1.367 0.957-2.226 1.347l0.82 0.88a14.66 14.66 0 0 0 2.227-1.466 14.006 14.006 0 0 0 2.344 1.465l0.761-0.937c-0.937-0.39-1.738-0.82-2.402-1.29a6.443 6.443 0 0 0 1.406-2.519h0.82v-0.996h-3.867l0.47-1.113zm-7.266 2.285-0.351 1.7h-1.172v0.937h0.996l-0.352 1.758h4.395v0.351h0.996l0.059-0.351h0.527v-0.88h-0.469l0.117-0.878h0.938v-0.938h-0.82l0.234-1.699zm7.325 0.117h2.402c-0.195 0.664-0.547 1.29-1.055 1.875a10.674 10.674 0 0 1-1.406-1.758c0.04-0.039 0.059-0.078 0.059-0.117zm-6.446 0.703h0.762c0.195 0.235 0.39 0.528 0.586 0.88h-1.524zm1.7 0h1.464l-0.117 0.88h-0.762l-0.586-0.88zm-1.993 1.817h0.762c0.195 0.234 0.41 0.527 0.645 0.879h-1.583l0.176-0.88zm1.758 0h1.465l-0.176 0.879h-0.762a6.542 6.542 0 0 0-0.527-0.88zm5.684 1.933c-1.25 0.742-2.11 1.153-2.578 1.23-0.704 0.118-1.954 0.196-3.75 0.235a8.109 8.109 0 0 0 1.875-0.879l-0.762-0.527c-0.781 0.547-1.758 0.976-2.93 1.289l0.117 0.82c1.172 0 2.364-0.039 3.575-0.117-1.25 0.469-2.774 0.879-4.57 1.23l0.175 0.938c1.758 0 3.535-0.059 5.332-0.176v1.23c0 0.313-0.117 0.47-0.351 0.47-0.43 0-0.86-0.06-1.29-0.176l0.176 1.054c0.352 0.079 0.723 0.118 1.114 0.118 0.625 0 1.035-0.098 1.23-0.293 0.195-0.196 0.293-0.528 0.293-0.996v-1.524a69.146 69.146 0 0 0 3.984-0.469c0.313 0.313 0.586 0.645 0.82 0.996l1.114-0.527a14.92 14.92 0 0 0-2.813-2.578l-1.054 0.469c0.43 0.273 0.82 0.586 1.172 0.937-1.563 0.313-3.965 0.528-7.207 0.645 2.617-0.586 5.039-1.504 7.265-2.754zm-0.88 4.278-0.468 0.937c1.29 0.313 2.578 0.742 3.867 1.29l0.469-0.997c-1.211-0.469-2.5-0.879-3.867-1.23zm-4.687 0.117c-1.133 0.469-2.383 0.84-3.75 1.113l0.703 0.996c1.485-0.39 2.754-0.898 3.809-1.523zm-5.363 3.285v1h16v-1z"
       transform="translate(-154,60)" />
  </g>
  <g
     transform="translate(1.8428 1.5385)"
     id="ime-remind-active">
    <path
       id="path61"
       fill="currentColor"
       class="ColorScheme-Text"
       d="m209 91c-1.1196 0-2.1645 0.31337-3.0625 0.84961a3.5 3.5 0 0 1 0.0625 0.65039 3.5 3.5 0 0 1-2.9004 3.4492c-0.0608 0.34195-0.0996 0.69165-0.0996 1.0508-4.2e-4 0.01902 2e-4 0.03769 2e-3 0.05664 0.014 2.321 0.85914 3.5095 1.6191 4.3945 0.764 0.893 1.3789 1.4418 1.3789 3.0488v2.5h2v1h2v-1h2v-2.5c0-1.607 0.63462-2.304 1.3906-3.25 0.75-0.936 1.5885-2.1035 1.6055-4.1875 3e-3 -0.02056 4e-3 -0.04177 4e-3 -0.0625 0-3.308-2.692-6-6-6zm-1.8535 6.1465h0.70704l1.1465 1.1465 1.1465-1.1465h0.70704l1.5 1.5-0.70704 0.70703-1.1465-1.1465-1.1465 1.1465h-0.70704l-1.1465-1.1465-1.1465 1.1465-0.70704-0.70703 1.5-1.5z" />
    <path
       id="path63"
       fill="none"
       d="m198 88h22v22h-22z" />
    <circle
       id="circle65"
       fill="#42d15b"
       r="2.5"
       cy="92.5"
       cx="202.5" />
  </g>
  <g
     transform="translate(1.8428 1.5385)"
     id="ime-handwriting-active">
    <path
       id="path68"
       fill="currentColor"
       class="ColorScheme-Text"
       d="m213.14 112.57-3.272 12.207 1.07 3.739 2.795-2.703 3.27-12.207-0.482-0.131zm0.707 1.223 1.931 0.518-0.26 0.968-1.931-0.52zm-11.522 5.66c-0.21558 7e-3 -0.4306 0.0257-0.644 0.057-0.66133 0.0907-0.52533 1.0827 0.136 0.992 0.42-0.058 0.71-0.056 0.872-0.03 0.16 0.027 0.164 0.058 0.152 0.042-0.012-0.017 6e-3 -0.01-6e-3 0.092-0.0266 0.15379-0.0685 0.30454-0.125 0.45-0.134 0.374-0.351 0.824-0.41 1.327-0.03 0.251-0.015 0.54 0.133 0.806 0.147 0.268 0.42 0.468 0.738 0.575 0.153 0.05 0.213 0.04 0.309 0.045 0.095 4e-3 0.2 5e-3 0.316 5e-3 0.231 0 0.504-3e-3 0.758 4e-3 0.032 1e-3 0.047 6e-3 0.078 8e-3 -0.09 0.056-0.146 0.098-0.252 0.158-0.533 0.301-1.218 0.645-1.781 1.022-0.282 0.188-0.536 0.383-0.737 0.621-0.2 0.238-0.37 0.576-0.287 0.95 0.083 0.372 0.37 0.631 0.73 0.825 0.361 0.195 0.834 0.352 1.481 0.498 1.051 0.238 2.36 0.169 3.543 0.221s2.169 0.26 2.553 0.703c0.43478 0.53533 1.224-0.15134 0.754-0.656-0.756-0.871-2.016-0.992-3.262-1.047s-2.55-0.01-3.367-0.195c-0.596-0.135-1-0.28-1.227-0.403-0.227-0.122-0.235-0.195-0.228-0.162s-0.019 0.023 0.076-0.09c0.15702-0.16564 0.33405-0.3111 0.527-0.433 0.482-0.322 1.152-0.663 1.717-0.982 0.26187-0.14135 0.51319-0.30144 0.752-0.479 0.214-0.166 0.466-0.33 0.477-0.752 6e-3 -0.246-0.165-0.47-0.305-0.564-0.12064-0.0787-0.2555-0.13305-0.397-0.16-0.26932-0.0542-0.54328-0.082-0.818-0.083-0.282-8e-3 -0.562-4e-3 -0.783-4e-3 -0.11 0-0.206 0-0.272-3e-3 -0.0215-1e-3 -0.0429-4e-3 -0.064-8e-3 0.012 4e-3 0.013 7e-3 0.027 0.011-0.05-0.016-0.047-0.015-0.027-0.011-0.114-0.043-0.142-0.077-0.154-0.098-0.013-0.023-0.03-0.08-0.016-0.205 0.03-0.25 0.206-0.675 0.36-1.105 0.076-0.216 0.148-0.436 0.175-0.678 0.028-0.242 6e-3 -0.535-0.176-0.787-0.181-0.252-0.478-0.39-0.798-0.444-0.17458-0.0275-0.35136-0.0385-0.528-0.033z" />
    <g
       id="g76">
      <path
         id="path70"
         fill="none"
         d="m198 110h22v22h-22z" />
      <path
         id="path72"
         fill="none"
         d="m198 110h22v22h-22z" />
      <circle
         id="circle74"
         fill="#42d15b"
         r="2.5"
         cy="114.5"
         cx="202.5" />
    </g>
  </g>
  <g
     transform="translate(23.843 1.5385)"
     id="ime-handwriting-inactive">
    <path
       id="path79"
       fill="currentColor"
       class="ColorScheme-Text"
       d="m235.14 112.57-3.272 12.207 1.07 3.739 2.795-2.703 3.27-12.207-0.482-0.131zm0.707 1.223 1.931 0.518-0.26 0.968-1.931-0.52zm-11.522 5.66c-0.21558 7e-3 -0.4306 0.0257-0.644 0.057-0.66267 0.0767-0.54767 1.0707 0.115 0.994 7e-3 -5.2e-4 0.014-1e-3 0.021-2e-3 0.42-0.058 0.71-0.056 0.872-0.03 0.16 0.027 0.164 0.058 0.152 0.042-0.012-0.017 6e-3 -0.01-6e-3 0.092-0.0266 0.15379-0.0685 0.30454-0.125 0.45-0.134 0.374-0.351 0.824-0.41 1.327-0.03 0.251-0.015 0.54 0.133 0.806 0.147 0.268 0.42 0.468 0.738 0.575 0.153 0.05 0.213 0.04 0.309 0.045 0.095 4e-3 0.2 5e-3 0.316 5e-3 0.231 0 0.504-3e-3 0.758 4e-3 0.032 1e-3 0.047 6e-3 0.078 8e-3 -0.09 0.056-0.146 0.098-0.252 0.158-0.533 0.301-1.218 0.645-1.781 1.022-0.282 0.188-0.536 0.383-0.737 0.621-0.2 0.238-0.37 0.576-0.287 0.95 0.083 0.372 0.37 0.631 0.73 0.825 0.361 0.195 0.834 0.352 1.481 0.498 1.051 0.238 2.36 0.169 3.543 0.221s2.169 0.26 2.553 0.703c0.43478 0.53533 1.224-0.15134 0.754-0.656-0.756-0.871-2.016-0.992-3.262-1.047s-2.55-0.01-3.367-0.195c-0.596-0.135-1-0.28-1.227-0.403-0.227-0.122-0.235-0.195-0.228-0.162s-0.019 0.023 0.076-0.09c0.15702-0.16564 0.33405-0.3111 0.527-0.433 0.482-0.322 1.152-0.663 1.717-0.982 0.26187-0.14135 0.51319-0.30144 0.752-0.479 0.214-0.166 0.466-0.33 0.477-0.752 6e-3 -0.246-0.165-0.47-0.305-0.564-0.12064-0.0787-0.2555-0.13305-0.397-0.16-0.26932-0.0542-0.54328-0.082-0.818-0.083-0.282-8e-3 -0.562-4e-3 -0.783-4e-3 -0.11 0-0.206 0-0.272-3e-3 -0.0215-1e-3 -0.0429-4e-3 -0.064-8e-3 0.012 4e-3 0.013 7e-3 0.027 0.011-0.05-0.016-0.047-0.015-0.027-0.011-0.114-0.043-0.142-0.077-0.154-0.098-0.013-0.023-0.03-0.08-0.016-0.205 0.03-0.25 0.206-0.675 0.36-1.105 0.076-0.216 0.148-0.436 0.175-0.678 0.028-0.242 6e-3 -0.535-0.176-0.787-0.181-0.252-0.478-0.39-0.798-0.444-0.17458-0.0275-0.35136-0.0385-0.528-0.033z"
       transform="translate(-22)" />
    <path
       id="path81"
       fill="none"
       d="m198 110h22v22h-22z" />
    <path
       id="path83"
       fill="none"
       d="m198 110h22v22h-22z" />
  </g>
  <g
     transform="translate(23.843 1.5385)"
     id="ime-remind-inactive">
    <path
       id="path86"
       fill="currentColor"
       class="ColorScheme-Text"
       d="m209 91c-3.308 0-6 2.692-6 6-4.2e-4 0.01902 2e-4 0.03769 2e-3 0.05664 0.014 2.321 0.85914 3.5095 1.6191 4.3945 0.764 0.893 1.3789 1.4418 1.3789 3.0488v2.5h2v1h2v-1h2v-2.5c0-1.607 0.63462-2.304 1.3906-3.25 0.75-0.936 1.5885-2.1035 1.6055-4.1875 3e-3 -0.02056 4e-3 -0.04177 4e-3 -0.0625 0-3.308-2.692-6-6-6zm-1.8535 6.1465h0.70704l1.1465 1.1465 1.1465-1.1465h0.70704l1.5 1.5-0.70704 0.70703-1.1465-1.1465-1.1465 1.1465h-0.70704l-1.1465-1.1465-1.1465 1.1465-0.70704-0.70703z" />
    <path
       id="path88"
       fill="none"
       d="m198 88h22v22h-22z" />
  </g>
  <use
     id="use91"
     xlink:href="#ime-kbd"
     opacity=".5"
     height="100%"
     width="100%"
     transform="translate(65.911 -7.1158)" />
  <g
     id="ime-pinyin">
    <path
       id="path96"
       fill="currentColor"
       class="ColorScheme-Text"
       d="m6 3c-1.662 0-3 1.338-3 3v10c0 1.662 1.338 3 3 3h10c1.662 0 3-1.338 3-3v-10c0-1.662-1.338-3-3-3zm4.9004 1.7012 1.5 2-0.39844 0.29883h1.9961l-0.39844-0.29883 1.5-2 0.80078 0.59961-1.2754 1.6992h2.375v1h-2v3h2v1h-2v5h-1v-5h-2.041c-0.096 1.119-0.47678 2.0286-0.92578 2.8066-0.621 1.075-1.6914 2.0586-1.6914 2.0586l-0.68359-0.72852s1.0128-0.97008 1.5098-1.8301c0.402-0.695 0.70497-1.4116 0.79297-2.3066h-1.9609v-0.94141l-1 0.5v5.4414h-3v-1h2v-3.9395l-1.7773 0.88672-0.44531-0.89453 2.2227-1.1113v-2.9414h-2v-1h2v-2h1v2h1v1h-1v2.4395l0.77734-0.38672 0.44531 0.89453-0.10547 0.05273h1.8828v-3h-1v-1h1.375l-1.2754-1.6992zm1.0996 3.2988v3h2v-3z" />
    <path
       id="path98"
       fill="none"
       d="m0 0h22v22h-22z" />
  </g>
  <g
     id="ime-shuangpin">
    <path
       id="path101"
       fill="currentColor"
       class="ColorScheme-Text"
       d="m50 3c-1.662 0-3 1.338-3 3v10c0 1.662 1.338 3 3 3h10c1.662 0 3-1.338 3-3v-10c0-1.662-1.338-3-3-3zm-1 2h5.5488l-0.05078 0.54883s-0.32761 3.5209-1.2246 6.1289c0.6511 0.97991 1.2642 1.9846 1.8379 3.0117l-0.86914 0.49024c-0.53902-0.954-0.98488-1.689-1.4219-2.375-1.395 3.125-3.3652 4.4883-3.3652 4.4883l-0.55664-0.83203s1.9707-1.3133 3.2637-4.6562c-0.766-1.106-1.6347-2.2202-3.0527-3.9902l0.78125-0.62695c1.181 1.475 1.974 2.4921 2.668 3.4551 0.552-1.906 0.79814-3.9996 0.86914-4.6426h-4.4277v-1zm6 0h6v0.5c0 2.147-0.83303 4.9682-1.707 6.9082-0.111 0.246-0.24219 0.46536-0.36719 0.69336 0.624 1.083 1.4598 2.1135 2.8438 3.2305l-0.62695 0.7793c-1.282-1.034-2.1467-2.0405-2.8027-3.0645-1.394 1.987-3.1035 3.0371-3.1035 3.0371l-0.51758-0.85547s1.7804-1.1006 3.0684-3.1426c-0.337-0.649-0.62072-1.3072-0.88672-1.9922-0.75795-1.957-1.2085-4.5018-1.3105-5.0938h-0.58984v-1zm1.6074 1c0.14 0.765 0.56855 3.0334 1.2266 4.7324 0.16738 0.43214 0.34714 0.85943 0.53906 1.2812l0.0078-0.01563c0.75703-1.68 1.434-4.145 1.543-5.998h-3.3164z" />
    <path
       id="path103"
       fill="none"
       d="m44 0h22v22h-22z" />
  </g>
  <g
     id="ime-wubi">
    <path
       id="path106"
       fill="currentColor"
       class="ColorScheme-Text"
       d="m160 3c-1.662 0-3 1.338-3 3v10c0 1.662 1.338 3 3 3h10c1.662 0 3-1.338 3-3v-10c0-1.662-1.338-3-3-3zm0 3h9v1h-4.0977l-0.66601 3h3.7637v5h2v1h-10v-1h2.0996l0.88867-4h-1.9883v-1h2.2109l0.66601-3h-3.877v-1zm4.0137 5-0.89062 4h3.877v-4h-2.9863z" />
    <path
       id="path108"
       fill="none"
       d="m154 0h22v22h-22z" />
  </g>
  <g
     id="ime-googlepinyin">
    <path
       id="path111"
       fill="currentColor"
       class="ColorScheme-Text"
       d="m6 47.002c-1.662 0-3 1.338-3 3v10c0 1.662 1.338 3 3 3h10c1.662 0 3-1.338 3-3v-10c0-1.662-1.338-3-3-3zm5.0078 2.5c1.2953 1.74e-4 2.5487 0.45811 3.5391 1.293l-1.291 1.5293c-1.3385-1.1366-3.3132-1.1006-4.6094 0.08398-1.3038 1.177-1.5296 3.1396-0.52734 4.582 1 1.45 2.9007 1.9289 4.4707 1.1289 0.8479-0.43334 1.4796-1.1972 1.7461-2.1113h-3.3359v-2h3.3438l-2e-3 -0.0078h2.0566c0.434 2.355-0.70844 4.7834-2.8984 5.9004-2.4559 1.2473-5.4557 0.49008-7.0254-1.7734-1.5619-2.2691-1.2092-5.3429 0.82617-7.1992 0.98671-0.89547 2.2654-1.4015 3.5977-1.4238 0.03645-1e-3 0.07292-0.0016 0.10937-2e-3z" />
    <path
       id="path113"
       fill="none"
       d="m0 44h22v22h-22z" />
  </g>
  <g
     id="ime-erbi">
    <path
       id="path116"
       fill="currentColor"
       class="ColorScheme-Text"
       d="m138 3c-1.662 0-3 1.338-3 3v10c0 1.662 1.338 3 3 3h10c1.662 0 3-1.338 3-3v-10c0-1.662-1.338-3-3-3zm0 4h10v1h-10zm-1 7h12v1h-12z" />
    <path
       id="path118"
       fill="none"
       d="m132 0h22v22h-22z" />
  </g>
  <g
     id="ime-ziranma">
    <path
       id="path121"
       fill="currentColor"
       class="ColorScheme-Text"
       d="m204 3c-1.662 0-3 1.338-3 3v10c0 1.662 1.338 3 3 3h10c1.662 0 3-1.338 3-3v-10c0-1.662-1.338-3-3-3zm3.6797 1.6152 0.64062 0.76953-1.9375 1.6152h7.6172v10h-10v-10h0.81836l2.8613-2.3848zm-2.6797 3.3848v2h6v1h-6v2h6v1h-6v2h8v-8z" />
    <path
       id="path123"
       fill="none"
       d="m198 0h22v22h-22z" />
  </g>
  <g
     id="ime-quanpin">
    <path
       id="path126"
       fill="currentColor"
       class="ColorScheme-Text"
       d="m28 3c-1.662 0-3 1.338-3 3v10c0 1.662 1.338 3 3 3h10c1.662 0 3-1.338 3-3v-10c0-1.662-1.338-3-3-3zm4.5098 1.9023 0.98047 0.19531c-0.01 0.049996-0.03388 0.096484-0.04687 0.14648 1.877 2.289 5.7324 3.7871 5.7324 3.7871l-0.35156 0.9375s-0.80822-0.32089-1.8242-0.83789v0.86914h-3.5v2h2.5v1h-2.5v3h4.5v1h-10v-1h4.5v-3h-2.5v-1h2.5v-2h-3.5v-0.82422c-1.03 0.501-1.8301 0.79492-1.8301 0.79492l-0.33984-0.94141s1.3413-0.48934 2.7363-1.2773c1.396-0.789 2.7574-1.9196 2.9434-2.8496zm0.49023 1.3301c-0.668 0.996-1.8454 1.7716-2.9414 2.3906-0.247 0.14-0.4837 0.25595-0.7207 0.37695h7.3965c-1.191-0.63-2.6184-1.5526-3.7344-2.7676z" />
    <path
       id="path128"
       fill="none"
       d="m22 0h22v22h-22z" />
  </g>
  <g
     id="ime-cangjie">
    <path
       id="path131"
       fill="currentColor"
       class="ColorScheme-Text"
       d="m226 3c-1.662 0-3 1.338-3 3v10c0 1.662 1.338 3 3 3h10c1.662 0 3-1.338 3-3v-10c0-1.662-1.338-3-3-3zm4.584 1.7227h0.83204c1.844 2.765 5.6465 3.2812 5.6465 3.2812l-0.125 0.99219c0-1e-7 -0.8335-0.12316-1.9375-0.53516v4.5391h-7.0547c-0.0412 0.33966-0.11515 0.67454-0.2207 1h7.2754v3h-8v-1.377c-0.022 0.04-0.0444 0.086-0.0664 0.125-0.52103 0.91105-1.043 1.5645-1.043 1.5645l-0.78124-0.625c-1e-5 0 0.47703-0.59555 0.95703-1.4355 0.48-0.839 0.93359-1.919 0.93359-2.752v-4.0391c-1.104 0.411-1.9375 0.53516-1.9375 0.53516l-0.125-0.99219s3.8025-0.51625 5.6465-3.2812zm0.41602 0.98047c-0.859 1.07-1.9336 1.7989-2.9336 2.2969h2.5312l-0.875-0.58398 0.55468-0.83203 1.5 1-0.27734 0.41602h2.4336c-1.001-0.498-2.0746-1.2269-2.9336-2.2969zm-3 3.2969v1h5v1h-5v1h6v-3zm0 6v1h6v-1z" />
    <path
       id="path133"
       fill="none"
       d="m220 0h22v22h-22z" />
  </g>
  <g
     id="ime-bopomofo">
    <path
       id="path136"
       fill="currentColor"
       class="ColorScheme-Text"
       d="m72 3c-1.662 0-3 1.338-3 3v10c0 1.662 1.338 3 3 3h10c1.662 0 3-1.338 3-3v-10c0-1.662-1.338-3-3-3zm5.3008 1.5996 2 1.5-0.60156 0.80078-2-1.5zm-5.9473 0.046875 2 2-0.70703 0.70703-2-2zm2.6465 2.3535h9v1h-4v3h3v1h-3v4h4v1h-9v-1h4v-4h-3v-1h3v-3h-4zm-2.6465 0.64648 2 2-0.70703 0.70703-2-2zm1.1719 3.1953 0.94922 0.31641-2 6-0.94922-0.31641z" />
    <path
       id="path138"
       fill="none"
       d="m66 0h22v22h-22z" />
  </g>
  <g
     id="ime-chewing">
    <path
       id="path141"
       fill="currentColor"
       class="ColorScheme-Text"
       d="m94 3c-1.662 0-3 1.338-3 3v10c0 1.662 1.338 3 3 3h10c1.662 0 3-1.338 3-3v-10c0-1.662-1.338-3-3-3zm-1 2h6v1h-2v3h2l-0.40039-0.30078c0-1e-7 1.4004-1.9492 1.4004-3.6992h1c0 0.709-0.16481 1.389-0.38281 2h1.3828v-2h1v2h2v1h-2v2h2v1h-5v-1h2v-2h-1.8027c-0.398 0.79002-0.79688 1.3008-0.79688 1.3008l-0.40039-0.30078v8h-6v-8h1v-3h-1v-1zm2 1v3h1v-3zm0 4v3h-1v1h3v1h-3v1h4v-6h-1v3h-1v-3zm5 2h5v5h-5zm1 1v3h3v-3z" />
    <path
       id="path143"
       fill="none"
       d="m88 0h22v22h-22z" />
  </g>
  <g
     id="ime-rime">
    <g
       id="2435">
      <path
         d="m116 3c-1.662 0-3 1.338-3 3v10c0 1.662 1.338 3 3 3h10c1.662 0 3-1.338 3-3v-10c0-1.662-1.338-3-3-3zm4 2h1v6.9824c1.811-0.082 2.7207-0.60619 3.2617-1.4922 0.59-0.965 0.73828-2.5102 0.73828-4.4902h1c0 2.02-0.10172 3.7248-0.88672 5.0098-0.726 1.189-2.0633 1.8747-4.1133 1.9707v3.0195h5v1h-11v-1h5v-3.0195c-2.05-0.096-3.3873-0.7817-4.1133-1.9707-0.785-1.285-0.88672-2.9898-0.88672-5.0098h1c0 1.98 0.14828 3.5252 0.73828 4.4902 0.542 0.88601 1.4507 1.4112 3.2617 1.4922v-6.9824z"
         class="ColorScheme-Text"
         fill="currentColor"
         id="path93" />
    </g>
    <path
       d="m110 0h22v22h-22z"
       fill="none"
       id="path146" />
  </g>
  <g
     id="ime-libkkc">
    <path
       id="path148"
       fill="currentColor"
       class="ColorScheme-Text"
       d="m28 69c-1.662 0-3 1.338-3 3v10c0 1.662 1.338 3 3 3h10c1.662 0 3-1.338 3-3v-10c0-1.662-1.338-3-3-3zm-1 4h1v4.293l2.293-2.293h0.70703v-2h1v4.293l2.293-2.293h1.4141l-3 3 3 3h-1.4141l-2.293-2.293v2.293h-1.707l-2.293-2.293v2.293h-1v-8zm10 2c0.58298 0 1.1095 0.15448 1.4785 0.52148 0.367 0.369 0.52148 0.89552 0.52148 1.4785h-1c0-0.417-0.09552-0.63948-0.22852-0.77148-0.131-0.133-0.35448-0.22852-0.77148-0.22852s-0.63948 0.09552-0.77148 0.22852c-0.133 0.131-0.22852 0.35448-0.22852 0.77148v2c0 0.417 0.09552 0.64048 0.22852 0.77148 0.131 0.133 0.35448 0.22852 0.77148 0.22852s0.63948-0.09552 0.77148-0.22852c0.133-0.131 0.22852-0.35448 0.22852-0.77148h1c0 0.58298-0.15448 1.1105-0.52148 1.4785-0.369 0.367-0.89554 0.52148-1.4785 0.52148s-1.1105-0.15448-1.4785-0.52148c-0.367-0.369-0.52148-0.89552-0.52148-1.4785v-2c0-0.58298 0.15448-1.1105 0.52148-1.4785 0.369-0.367 0.89552-0.52148 1.4785-0.52148zm-6 0.70703-2.293 2.293 2.293 2.293v-4.5859z" />
    <path
       id="path150"
       fill="none"
       d="m22 66h22v22h-22z" />
  </g>
  <g
     id="ime-libskk">
    <path
       id="path153"
       fill="currentColor"
       class="ColorScheme-Text"
       d="m50 69c-1.662 0-3 1.338-3 3v10c0 1.662 1.338 3 3 3h10c1.662 0 3-1.338 3-3v-10c0-1.662-1.338-3-3-3zm3 4h1v4.293l2.293-2.293h0.70703v-2h1v4.293l2.293-2.293h1.4141l-3 3 3 3h-1.4141l-2.293-2.293v2.293h-1.707l-2.293-2.293v2.293h-1v-2c0 0.58298-0.15448 1.1105-0.52148 1.4785-0.369 0.367-0.89554 0.52148-1.4785 0.52148s-1.1105-0.15448-1.4785-0.52148c-0.367-0.369-0.52148-0.89552-0.52148-1.4785h1c0 0.417 0.09552 0.64048 0.22852 0.77148 0.131 0.133 0.35448 0.22852 0.77148 0.22852s0.63948-0.09552 0.77148-0.22852c0.133-0.131 0.22852-0.35448 0.22852-0.77148s-0.09552-0.63948-0.22852-0.77148c-0.131-0.133-0.35448-0.22852-0.77148-0.22852-0.58298 0-1.1105-0.15448-1.4785-0.52148-0.367-0.369-0.52148-0.89554-0.52148-1.4785s0.15448-1.1105 0.52148-1.4785c0.369-0.367 0.89554-0.52148 1.4785-0.52148s1.1095 0.15448 1.4785 0.52148c0.367 0.369 0.52148 0.89552 0.52148 1.4785v-3zm0 3h-1c0-0.417-0.095516-0.63948-0.22852-0.77148-0.131-0.133-0.35448-0.22852-0.77148-0.22852s-0.63948 0.095516-0.77148 0.22852c-0.133 0.131-0.22852 0.35448-0.22852 0.77148s0.09552 0.64048 0.22852 0.77148c0.131 0.133 0.35448 0.22852 0.77148 0.22852 0.58298 0 1.1095 0.15448 1.4785 0.52148 0.367 0.369 0.52148 0.89552 0.52148 1.4785v-3zm4-0.29297-2.293 2.293 2.293 2.293v-4.5859z" />
    <path
       id="path155"
       fill="none"
       d="m44.021 66.021h22v22h-22z" />
  </g>
  <g
     id="ime-hangul">
    <path
       id="path158"
       fill="currentColor"
       class="ColorScheme-Text"
       d="m6 91c-1.662 0-3 1.338-3 3v10c0 1.662 1.338 3 3 3h10c1.662 0 3-1.338 3-3v-10c0-1.662-1.338-3-3-3zm2 2h2v1h-2zm6 1h1v3h2v1h-2v4h-1zm-8 1h6v1h-6zm3 2c1.597 0 3 1.058 3 2.5s-1.403 2.5-3 2.5-3-1.058-3-2.5 1.403-2.5 3-2.5zm0 1c-1.165 0-2 0.733-2 1.5s0.835 1.5 2 1.5 2-0.733 2-1.5-0.835-1.5-2-1.5zm-1 5h1v1h7v1h-8z" />
    <path
       id="path160"
       fill="none"
       d="m0 88h22v22h-22z" />
  </g>
  <g
     transform="translate(0,22)"
     id="ime-pinyin-libpinyin">
    <path
       id="path163"
       fill="currentColor"
       class="ColorScheme-Text"
       d="m6 3c-1.662 0-3 1.338-3 3v10c0 1.662 1.338 3 3 3h10c1.662 0 3-1.338 3-3v-10c0-1.662-1.338-3-3-3zm4.9004 1.7012 1.5 2-0.39844 0.29883h1.9961l-0.39844-0.29883 1.5-2 0.80078 0.59961-1.2754 1.6992h2.375v1h-2v3h2v1h-2v5h-1v-5h-2.041c-0.096 1.119-0.47678 2.0286-0.92578 2.8066-0.621 1.075-1.6914 2.0586-1.6914 2.0586l-0.68359-0.72852s1.0128-0.97008 1.5098-1.8301c0.402-0.695 0.70497-1.4116 0.79297-2.3066h-1.9609v-0.94141l-1 0.5v5.4414h-3v-1h2v-3.9395l-1.7773 0.88672-0.44531-0.89453 2.2227-1.1113v-2.9414h-2v-1h2v-2h1v2h1v1h-1v2.4395l0.77734-0.38672 0.44531 0.89453-0.10547 0.05273h1.8828v-3h-1v-1h1.375l-1.2754-1.6992zm1.0996 3.2988v3h2v-3z" />
    <path
       id="path165"
       fill="none"
       d="m0 0h22v22h-22z" />
  </g>
  <g
     transform="translate(0,22.195)"
     id="ime-shuangpin-libpinyin">
    <path
       id="path168"
       fill="currentColor"
       class="ColorScheme-Text"
       d="m50 3c-1.662 0-3 1.338-3 3v10c0 1.662 1.338 3 3 3h10c1.662 0 3-1.338 3-3v-10c0-1.662-1.338-3-3-3zm-1 2h5.5488l-0.05078 0.54883s-0.32761 3.5209-1.2246 6.1289c0.6511 0.97991 1.2642 1.9846 1.8379 3.0117l-0.86914 0.49024c-0.53902-0.954-0.98488-1.689-1.4219-2.375-1.395 3.125-3.3652 4.4883-3.3652 4.4883l-0.55664-0.83203s1.9707-1.3133 3.2637-4.6562c-0.766-1.106-1.6347-2.2202-3.0527-3.9902l0.78125-0.62695c1.181 1.475 1.974 2.4921 2.668 3.4551 0.552-1.906 0.79814-3.9996 0.86914-4.6426h-4.4277zm6 0h6v0.5c0 2.147-0.83303 4.9682-1.707 6.9082-0.111 0.246-0.24219 0.46536-0.36719 0.69336 0.624 1.083 1.4598 2.1135 2.8438 3.2305l-0.62695 0.7793c-1.282-1.034-2.1467-2.0405-2.8027-3.0645-1.394 1.987-3.1035 3.0371-3.1035 3.0371l-0.51758-0.85547s1.7804-1.1006 3.0684-3.1426c-0.337-0.649-0.62072-1.3072-0.88672-1.9922-0.75795-1.957-1.2085-4.5018-1.3105-5.0938h-0.58984zm1.6074 1c0.14 0.765 0.56855 3.0334 1.2266 4.7324 0.16738 0.43214 0.34714 0.85943 0.53906 1.2812l0.0078-0.01563c0.75704-1.68 1.434-4.145 1.543-5.998z" />
    <path
       id="path170"
       fill="none"
       d="m44 0h22v22h-22z" />
  </g>
  <g
     transform="translate(0,22.195)"
     id="ime-quanpin-libpinyin">
    <path
       id="path173"
       fill="currentColor"
       class="ColorScheme-Text"
       d="m28 3c-1.662 0-3 1.338-3 3v10c0 1.662 1.338 3 3 3h10c1.662 0 3-1.338 3-3v-10c0-1.662-1.338-3-3-3zm4.5098 1.9023 0.98047 0.19531c-0.01 0.049996-0.03388 0.096484-0.04687 0.14648 1.877 2.289 5.7324 3.7871 5.7324 3.7871l-0.35156 0.9375s-0.80822-0.32089-1.8242-0.83789v0.86914h-3.5v2h2.5v1h-2.5v3h4.5v1h-10v-1h4.5v-3h-2.5v-1h2.5v-2h-3.5v-0.82422c-1.03 0.501-1.8301 0.79492-1.8301 0.79492l-0.33984-0.94141s1.3413-0.48934 2.7363-1.2773c1.396-0.789 2.7574-1.9196 2.9434-2.8496zm0.49023 1.3301c-0.668 0.996-1.8454 1.7716-2.9414 2.3906-0.247 0.14-0.4837 0.25595-0.7207 0.37695h7.3965c-1.191-0.63-2.6184-1.5526-3.7344-2.7676z" />
    <path
       id="path175"
       fill="none"
       d="m22 0h22v22h-22z" />
  </g>
  <g
     transform="translate(0,22.195)"
     id="ime-bopomofo-libpinyin">
    <path
       id="path178"
       fill="currentColor"
       class="ColorScheme-Text"
       d="m72 3c-1.662 0-3 1.338-3 3v10c0 1.662 1.338 3 3 3h10c1.662 0 3-1.338 3-3v-10c0-1.662-1.338-3-3-3zm5.3008 1.5996 2 1.5-0.60156 0.80078-2-1.5zm-5.9473 0.046875 2 2-0.70703 0.70703-2-2zm2.6465 2.3535h9v1h-4v3h3v1h-3v4h4v1h-9v-1h4v-4h-3v-1h3v-3h-4zm-2.6465 0.64648 2 2-0.70703 0.70703-2-2zm1.1719 3.1953 0.94922 0.31641-2 6-0.94922-0.31641z" />
    <path
       id="path180"
       fill="none"
       d="m66 0h22v22h-22z" />
  </g>
  <g
     transform="translate(0,22.195)"
     id="ime-chewing-libpinyin">
    <path
       id="path183"
       fill="currentColor"
       class="ColorScheme-Text"
       d="m94 3c-1.662 0-3 1.338-3 3v10c0 1.662 1.338 3 3 3h10c1.662 0 3-1.338 3-3v-10c0-1.662-1.338-3-3-3zm-1 2h6v1h-2v3h2l-0.40039-0.30078c0-1e-7 1.4004-1.9492 1.4004-3.6992h1c0 0.709-0.16481 1.389-0.38281 2h1.3828v-2h1v2h2v1h-2v2h2v1h-5v-1h2v-2h-1.8027c-0.398 0.79002-0.79688 1.3008-0.79688 1.3008l-0.40039-0.30078v8h-6v-8h1v-3h-1zm2 1v3h1v-3zm0 4v3h-1v1h3v1h-3v1h4v-6h-1v3h-1v-3zm5 2h5v5h-5zm1 1v3h3v-3z" />
    <path
       id="path185"
       fill="none"
       d="m88 0h22v22h-22z" />
  </g>
  <g
     id="ime-wbpy">
    <path
       id="path188"
       fill="currentColor"
       class="ColorScheme-Text"
       d="m182 3c-1.662 0-3 1.338-3 3v10c0 1.662 1.338 3 3 3h7v-3h-7v-1h2.0996l0.88867-4h-1.9883v-1h2.2109l0.66601-3h-3.877v-1h9v1h-4.0977l-0.66601 3h3.7637v1.2754c0.295-0.1711 0.63307-0.27539 1-0.27539h4v-5c0-1.662-1.338-3-3-3h-10zm4.0137 8-0.89062 4h3.877v-4h-2.9863z" />
    <path
       id="path190"
       fill="none"
       d="m176 0h22v22h-22z" />
    <path
       id="path192"
       opacity=".5"
       fill="currentColor"
       class="ColorScheme-Text"
       d="m191 12c-0.554 0-1 0.446-1 1v6c0 0.554 0.446 1 1 1h4c0.554 0 1-0.446 1-1v-6c0-0.554-0.446-1-1-1zm0 0.95703h0.5c0.75 0 1.5317-0.0168 2.2207 0.21289 0.3445 0.11483 0.67639 0.30519 0.91602 0.61328 0.23962 0.30809 0.36328 0.7155 0.36328 1.1738s-0.12366 0.86574-0.36328 1.1738c-0.23963 0.30809-0.57152 0.49845-0.91602 0.61328-0.53383 0.17794-1.1334 0.15946-1.7207 0.16406v2.0488h-1v-6zm1 1.043v1.9141c0.52807-0.0121 1.0828-0.012 1.4043-0.11914 0.218-0.0727 0.35486-0.16356 0.44336-0.27734 0.0885-0.11379 0.15234-0.26888 0.15234-0.56055s-0.0638-0.44676-0.15234-0.56055c-0.0885-0.11378-0.22536-0.20467-0.44336-0.27734-0.32152-0.10717-0.87623-0.10704-1.4043-0.11914z" />
  </g>
</svg>
