<svg xmlns="http://www.w3.org/2000/svg" width="32" height="32" version="1.1">
 <g id="22-22-kopete" transform="translate(32,10)">
  <rect  style="opacity:0.001" width="22" height="22" x="0" y="0"/>
  <path  style="opacity:1;fill:#eff0f1" d="M 3.8886719,4.0002047 C 3.3977719,4.000253 3.000049,4.3920172 3,4.8752047 v 0.5253906 2.5996094 2.3964843 0.603516 4.173828 c 4.9e-5,0.483187 0.3977719,0.824171 0.8886719,0.824219 H 6 v 1.125 c 2.18e-4,0.710991 0.81782,1.125181 1.40625,0.712891 L 9.6621094,15.998252 H 18.111328 C 18.602228,15.998204 18.999951,15.65722 19,15.174033 V 10.396689 5.4005953 4.8752047 c -4.9e-5,-0.4831875 -0.397772,-0.8749517 -0.888672,-0.875 H 10 9 Z M 4,5.0002047 H 4.9316406 9 10 17.068359 18 v 5.8925783 4.105469 0.002 H 9.6503906 c -0.225568,0.0029 -0.4440346,0.08007 -0.6191406,0.222656 L 7,16.877158 V 15.998252 C 6.999945,15.449509 6.5572446,15.005805 6.0097656,15.000205 H 4 v -0.002 -3.998047 -0.107422 -2.0781252 -0.8144531 z m 9.486328,0.9960938 a 0.50005,0.50005 0 0 0 -0.21289,0.9492187 c 0,0 1.726562,0.843988 1.726562,3.0546878 0,2.2107 -1.726563,3.054687 -1.726562,3.054688 a 0.50005,0.50005 0 1 0 0.453124,0.890624 c 0,0 2.273438,-1.196884 2.273438,-3.945312 C 16,7.2517762 13.726563,6.0548922 13.726562,6.0548922 A 0.50005,0.50005 0 0 0 13.486328,5.9962985 Z M 6.5,6.0002047 c -0.277,0 -0.5,0.223 -0.5,0.5 v 1 c 0,0.277 0.223,0.5 0.5,0.5 h 1 c 0.277,0 0.5,-0.223 0.5,-0.5 v -1 c 0,-0.277 -0.223,-0.5 -0.5,-0.5 z m 3,3 c -0.277,0 -0.5,0.223 -0.5,0.5 v 1.0000003 c 0,0.277 0.223,0.5 0.5,0.5 h 3 c 0.277,0 0.5,-0.223 0.5,-0.5 V 9.5002047 c 0,-0.277 -0.223,-0.5 -0.5,-0.5 z m -3,3.0000003 c -0.277,0 -0.5,0.223 -0.5,0.5 v 1 c 0,0.277 0.223,0.5 0.5,0.5 h 1 c 0.277,0 0.5,-0.223 0.5,-0.5 v -1 c 0,-0.277 -0.223,-0.5 -0.5,-0.5 z"/>
 </g>
 <g id="kopete">
  <rect  style="opacity:0.001" width="32" height="32" x="0" y="0"/>
  <path  style="opacity:1;fill:#eff0f1" d="M 5.3339844 6 C 4.5976343 6.0000725 4.0000735 6.5876976 4 7.3125 L 4 8.1015625 L 4 12 L 4 15.595703 L 4 16.5 L 4 22.761719 C 4.0000735 23.486521 4.5976343 23.999929 5.3339844 24 L 8 24 L 8 25.685547 C 8.000327 26.752065 9.2267301 27.372359 10.109375 26.753906 L 13.494141 24 L 26.667969 24 C 27.404319 23.999929 27.999927 23.486521 28 22.761719 L 28 15.595703 L 28 8.1015625 L 28 7.3125 C 27.999927 6.5876976 27.404319 6.0000725 26.667969 6 L 14.5 6 L 13 6 L 5.3339844 6 z M 5.3339844 7 L 13 7 L 14.5 7 L 26.666016 7 C 26.870368 7.0000201 26.999982 7.1363757 27 7.3125 L 27 8.1015625 L 27 15.595703 L 27 22.761719 C 26.999982 22.937836 26.937153 22.999974 26.666016 23 L 13.138672 23 L 9.5332031 25.933594 C 9.2660392 26.117945 9.0000916 25.984256 9 25.685547 L 9 23 L 5.3339844 23 C 5.0628464 22.999974 5.0000179 22.937836 5 22.761719 L 5 16.5 L 5 15.595703 L 5 12 L 5 8.1015625 L 5 7.3125 C 5.0000179 7.1363756 5.129632 7.0000201 5.3339844 7 z M 20.476562 8.9980469 A 0.50005 0.50005 0 0 0 20.28125 9.9492188 C 20.28125 9.9492188 23 11.209539 23 15 C 23 18.790461 20.28125 20.050781 20.28125 20.050781 A 0.50005 0.50005 0 1 0 20.71875 20.949219 C 20.71875 20.949219 24 19.285743 24 15 C 24 10.714257 20.71875 9.0507812 20.71875 9.0507812 A 0.50005 0.50005 0 0 0 20.476562 8.9980469 z M 9.5 10 C 9.2230081 10 9 10.223 9 10.5 L 9 11.5 C 9 11.777001 9.2230081 12 9.5 12 L 10.5 12 C 10.776992 12 11 11.777001 11 11.5 L 11 10.5 C 11 10.223 10.776992 10 10.5 10 L 9.5 10 z M 14.75 14 C 14.334501 14 14 14.223 14 14.5 L 14 15.5 C 14 15.776999 14.334501 16 14.75 16 L 19.25 16 C 19.6655 16 20 15.776999 20 15.5 L 20 14.5 C 20 14.223 19.6655 14 19.25 14 L 14.75 14 z M 9.5 18 C 9.2230081 18 9 18.223 9 18.5 L 9 19.5 C 9 19.777001 9.2230081 20 9.5 20 L 10.5 20 C 10.776992 20 11 19.777001 11 19.5 L 11 18.5 C 11 18.223 10.776992 18 10.5 18 L 9.5 18 z"/>
 </g>
</svg>
