<?xml version="1.0" encoding="UTF-8" standalone="no"?>
<svg
   xmlns:dc="http://purl.org/dc/elements/1.1/"
   xmlns:cc="http://creativecommons.org/ns#"
   xmlns:rdf="http://www.w3.org/1999/02/22-rdf-syntax-ns#"
   xmlns:svg="http://www.w3.org/2000/svg"
   xmlns="http://www.w3.org/2000/svg"
   xmlns:sodipodi="http://sodipodi.sourceforge.net/DTD/sodipodi-0.dtd"
   xmlns:inkscape="http://www.inkscape.org/namespaces/inkscape"
   width="32"
   height="32"
   version="1.1"
   id="svg12"
   sodipodi:docname="korgac.svg"
   inkscape:version="1.0.2 (e86c870879, 2021-01-15)">
  <metadata
     id="metadata18">
    <rdf:RDF>
      <cc:Work
         rdf:about="">
        <dc:format>image/svg+xml</dc:format>
        <dc:type
           rdf:resource="http://purl.org/dc/dcmitype/StillImage" />
        <dc:title></dc:title>
      </cc:Work>
    </rdf:RDF>
  </metadata>
  <defs
     id="defs16" />
  <sodipodi:namedview
     pagecolor="#151515"
     bordercolor="#666666"
     borderopacity="1"
     objecttolerance="10"
     gridtolerance="10"
     guidetolerance="10"
     inkscape:pageopacity="0"
     inkscape:pageshadow="2"
     inkscape:window-width="1920"
     inkscape:window-height="958"
     id="namedview14"
     showgrid="false"
     inkscape:zoom="24.78125"
     inkscape:cx="21.230005"
     inkscape:cy="16"
     inkscape:window-x="0"
     inkscape:window-y="24"
     inkscape:window-maximized="1"
     inkscape:current-layer="svg12" />
  <g
     id="22-22-korgac"
     transform="translate(32.000001,10.000001)">
    <rect
       style="opacity:0.001"
       width="22"
       height="22"
       x="0"
       y="0"
       id="rect2" />
    <path
       style="opacity:1;fill:#ffffff;fill-opacity:1;stroke-width:0.912784"
       d="m 11,4.3124447 c -4.0516474,0 -7.4092183,3.3479516 -7.4092183,7.3872173 0,4.039266 3.3575709,7.386892 7.4092183,7.386892 4.051648,0 7.409216,-3.347626 7.409216,-7.386892 0,-4.0392657 -3.357568,-7.3872173 -7.409216,-7.3872173 z m 0,1.2824394 c 3.545192,0 6.123489,2.57042 6.123489,6.1047779 0,3.534358 -2.578297,6.104776 -6.123489,6.104776 -3.5451919,0 -6.1234913,-2.570418 -6.1234913,-6.104776 0,-3.5343579 2.5782994,-6.1047779 6.1234913,-6.1047779 z m -0.01429,0.6239953 c -0.504184,0.00786 -0.722601,0.4211902 -0.715697,0.9238475 v 4.5569351 c 5.1e-5,0.503324 0.316536,0.727701 0.821401,0.727752 h 3.38247 c 1.236268,0.01744 1.236268,-1.472936 0,-1.455505 H 11.637921 V 7.1427269 c 0.0071,-0.5138127 -0.136832,-0.9318724 -0.652206,-0.9238475 z"
       id="path4"
       sodipodi:nodetypes="ssssssssssscccccccss" />
  </g>
  <g
     id="korgac">
    <rect
       style="opacity:0.001"
       width="32"
       height="32"
       x="0"
       y="0"
       id="rect7" />
    <path
       style="opacity:1;fill:#eff0f1"
       d="M 16,3.9 C 9.3520032,3.9 3.9,9.3520029 3.9,16 3.9,22.647997 9.3520032,28.1 16,28.1 22.647998,28.1 28.1,22.647997 28.1,16 28.1,9.3520029 22.647998,3.9 16,3.9 Z m 0,1.5 C 22.093998,5.4 26.6,9.9060024 26.6,16 26.6,22.093998 22.093998,26.6 16,26.6 9.9060029,26.6 5.4,22.093998 5.4,16 5.4,9.9060024 9.9060029,5.4 16,5.4 Z M 15.98437,6.9863281 C 15.432859,6.9949492 15.092447,7.4484682 15.1,8 v 8 c 5.5e-5,0.552262 0.447738,0.899945 1,0.9 H 24 c 1.352323,0.01912 1.352323,-1.819125 0,-1.8 H 16.9 V 8 C 16.90772,7.4362301 16.548129,6.9775228 15.984375,6.9863281 Z"
       id="path9"
       sodipodi:nodetypes="sssssssssscccccccccc" />
  </g>
</svg>
