<svg xmlns="http://www.w3.org/2000/svg" width="32" height="32" version="1.1">
 <g id="22-22-kteatime" transform="translate(32,10)">
  <rect  style="opacity:0.001" width="22" height="22" x="0" y="0"/>
  <path  style="opacity:1;fill:#eff0f1" d="M 10.5,2 C 10.223858,2 10,2.2238576 10,2.5 v 1 C 10,3.7761424 10.223858,4 10.5,4 10.776142,4 11,3.7761424 11,3.5 v -1 C 11,2.2238576 10.776142,2 10.5,2 Z m -3,1 C 7.2238576,3 7,3.2238576 7,3.5 7,3.7761424 7.2238576,4 7.5,4 7.7761424,4 8,3.7761424 8,3.5 8,3.2238576 7.7761424,3 7.5,3 Z m 6,0 C 13.223858,3 13,3.2238576 13,3.5 13,3.7761424 13.223858,4 13.5,4 13.776142,4 14,3.7761424 14,3.5 14,3.2238576 13.776142,3 13.5,3 Z M 7,5 C 5.892,5 5,5.892 5,7 v 8 c 0,1.108 0.892,2 2,2 h 8 c 1.108,0 2,-0.892 2,-2 V 13.958984 A 3.5,3.5 0 0 0 20,10.5 3.5,3.5 0 0 0 17,7.0390625 V 7 C 17,5.892 16.108,5 15,5 Z M 7,6 H 9 V 9 H 8.5 C 8.223,9 8,9.223 8,9.5 v 3 C 8,12.777 8.223,13 8.5,13 h 2 c 0.277,0 0.5,-0.223 0.5,-0.5 v -3 C 11,9.223 10.777,9 10.5,9 H 10 V 6 h 5 c 0.571297,0 1,0.4287028 1,1 v 8 c 0,0.571297 -0.428703,1 -1,1 H 7 C 6.4287028,16 6,15.571297 6,15 V 7 C 6,6.4287028 6.4287028,6 7,6 Z M 17,8.0507812 A 2.5,2.5 0 0 1 19,10.5 2.5,2.5 0 0 1 17,12.945312 Z M 3.5,18 C 3.2238576,18 3,18.223858 3,18.5 3,18.776142 3.2238576,19 3.5,19 h 15 C 18.776142,19 19,18.776142 19,18.5 19,18.223858 18.776142,18 18.5,18 Z"/>
 </g>
 <g id="kteatime">
  <rect  style="opacity:0.001" width="32" height="32" x="0" y="0"/>
  <path  style="opacity:1;fill:#eff0f1" d="M 15.492188 3.9921875 A 0.50005 0.50005 0 0 0 15 4.5 L 15 6.5 A 0.50005 0.50005 0 1 0 16 6.5 L 16 4.5 A 0.50005 0.50005 0 0 0 15.492188 3.9921875 z M 11.5 6 A 0.5 0.5 0 0 0 11 6.5 A 0.5 0.5 0 0 0 11.5 7 A 0.5 0.5 0 0 0 12 6.5 A 0.5 0.5 0 0 0 11.5 6 z M 19.5 6 A 0.5 0.5 0 0 0 19 6.5 A 0.5 0.5 0 0 0 19.5 7 A 0.5 0.5 0 0 0 20 6.5 A 0.5 0.5 0 0 0 19.5 6 z M 9.5 8 C 8.115 8 7 9.115 7 10.5 L 7 22.5 C 7 23.885 8.115 25 9.5 25 L 21.5 25 C 22.885 25 24 23.885 24 22.5 L 24 20.875 C 26.278711 20.409414 28 18.416383 28 16 C 28 13.582989 26.279496 11.580633 24 11.115234 L 24 10.5 C 24 9.115 22.885 8 21.5 8 L 9.5 8 z M 9.5 9 L 13 9 L 13 14 L 12.25 14 C 11.5575 14 11 14.534419 11 15.199219 L 11 18.800781 C 11 19.465581 11.5575 20 12.25 20 L 14.75 20 C 15.4425 20 16 19.465581 16 18.800781 L 16 15.199219 C 16 14.534419 15.4425 14 14.75 14 L 14 14 L 14 9 L 21.5 9 C 22.348297 9 23 9.6517028 23 10.5 L 23 22.5 C 23 23.348297 22.348297 24 21.5 24 L 9.5 24 C 8.6517028 24 8 23.348297 8 22.5 L 8 10.5 C 8 9.6517028 8.6517028 9 9.5 9 z M 24 12.142578 C 25.722454 12.588411 27 14.138081 27 16 C 27 17.860532 25.721503 19.397971 24 19.841797 L 24 12.142578 z M 4.5 27 A 0.50005 0.50005 0 1 0 4.5 28 L 25.5 28 A 0.50005 0.50005 0 1 0 25.5 27 L 4.5 27 z"/>
 </g>
</svg>
