<?xml version="1.0" encoding="UTF-8" standalone="no"?>
<svg
   xmlns:dc="http://purl.org/dc/elements/1.1/"
   xmlns:cc="http://creativecommons.org/ns#"
   xmlns:rdf="http://www.w3.org/1999/02/22-rdf-syntax-ns#"
   xmlns:svg="http://www.w3.org/2000/svg"
   xmlns="http://www.w3.org/2000/svg"
   xmlns:xlink="http://www.w3.org/1999/xlink"
   xmlns:sodipodi="http://sodipodi.sourceforge.net/DTD/sodipodi-0.dtd"
   xmlns:inkscape="http://www.inkscape.org/namespaces/inkscape"
   width="76"
   height="32"
   version="1.1"
   viewBox="0 0 20.108389 8.4667"
   id="svg53"
   sodipodi:docname="media.svg"
   inkscape:version="1.0.2 (e86c870879, 2021-01-15)">
  <sodipodi:namedview
     pagecolor="#4b4b4b"
     bordercolor="#666666"
     borderopacity="1"
     objecttolerance="10"
     gridtolerance="10"
     guidetolerance="10"
     inkscape:pageopacity="0"
     inkscape:pageshadow="2"
     inkscape:window-width="1920"
     inkscape:window-height="958"
     id="namedview36"
     showgrid="false"
     inkscape:zoom="2.4570635"
     inkscape:cx="40.300644"
     inkscape:cy="19.379883"
     inkscape:window-x="0"
     inkscape:window-y="24"
     inkscape:window-maximized="1"
     inkscape:current-layer="media-playback-stopped"
     inkscape:document-rotation="0" />
  <metadata
     id="metadata57">
    <rdf:RDF>
      <cc:Work
         rdf:about="">
        <dc:format>image/svg+xml</dc:format>
        <dc:type
           rdf:resource="http://purl.org/dc/dcmitype/StillImage" />
        <dc:title />
      </cc:Work>
    </rdf:RDF>
  </metadata>
  <defs
     id="defs3">
    <style
       type="text/css"
       id="current-color-scheme">.ColorScheme-Text { color:#363636; } </style>
  </defs>
  <g
     id="media-playback-paused"
     transform="matrix(0.26458,0,0,0.26458,0.67426977,1.2671009)">
    <rect
       x="0.00021085"
       y="3.0110999e-05"
       width="22"
       height="22"
       fill-opacity="0"
       id="rect5" />
    <path
       class="ColorScheme-Text"
       d="m 11.218882,4.0694714 c -4.4490072,0.00468 -7.7841041,3.2410287 -7.7841013,7.5529786 0,4.315269 3.3404439,7.553346 7.7928803,7.553346 4.452433,0 7.792719,-3.238077 7.792719,-7.553346 0,-4.3152705 -3.340286,-7.5529786 -7.792719,-7.5529786 z m -0.07523,1.3133218 c 0.08397,0 0.05597,-1.818e-4 0.08397,0 3.463006,0 6.439919,2.8837737 6.439919,6.2400958 0,3.356321 -2.976913,6.239113 -6.439919,6.239113 -3.4630064,0 -6.4393653,-2.883231 -6.4393653,-6.239552 C 4.7879596,8.2976751 7.7131534,5.3827932 11.14361,5.3827932 Z M 9.4361557,9.0179536 c -0.4962514,0 -0.8957602,0.3872018 -0.8957602,0.8681656 v 3.4726598 c 0,0.480964 0.3995088,0.868166 0.8957602,0.868166 0.4962515,0 0.8957623,-0.387202 0.8957623,-0.868166 V 9.8861192 c 0,-0.4809638 -0.3995108,-0.8681656 -0.8957623,-0.8681656 z m 3.5830433,0 c -0.496251,0 -0.89576,0.3872018 -0.89576,0.8681656 v 3.4726598 c 0,0.480964 0.399509,0.868166 0.89576,0.868166 0.496252,0 0.89576,-0.387202 0.89576,-0.868166 V 9.8861192 c 0,-0.4809638 -0.399508,-0.8681656 -0.89576,-0.8681656 z"
       fill="#ffffff"
       id="path7"
       style="fill:#ffffff;fill-opacity:1;stroke-width:0.881856" />
  </g>
  <g
     id="media-playback-playing"
     transform="matrix(0.26458,0,0,0.26458,7.2227329,7.3524489)">
    <rect
       x="0.00021085"
       y="-23"
       width="22"
       height="22"
       fill-opacity="0"
       id="rect10" />
    <path
       class="ColorScheme-Text"
       d="m 11.549795,-18.86821 c -4.4585448,0.0047 -7.8007924,3.216534 -7.8007897,7.495855 0,4.2826189 3.347606,7.4961686 7.8095877,7.4961686 4.461984,0 7.809431,-3.2135497 7.809431,-7.4961686 0,-4.282616 -3.347447,-7.495855 -7.809431,-7.495855 z m -0.07715,1.206257 0.002,0.09711 c 0.02805,-1.82e-4 0.05611,-1.78e-4 0.08415,-2e-6 3.470429,0 6.454913,2.861742 6.454913,6.192666 0,3.3309266 -2.984484,6.2896852 -6.454913,6.2896852 -3.4704311,0 -6.4538734,-2.9589282 -6.4538734,-6.2898532 -3.206e-4,-3.298989 2.9311286,-6.147395 6.3679644,-6.192498 z m -1.209807,3.534818 c -0.1445,0.01719 -0.2644298,0.07744 -0.3611727,0.181744 -0.096735,0.104306 -0.1455249,0.227013 -0.1455249,0.366852 v 4.4123192 c 0,0.1398371 0.048802,0.2625455 0.1455238,0.3668505 0.096734,0.1043047 0.2166818,0.1645474 0.3611728,0.181745 0.144501,0.017198 0.275636,-0.013467 0.396248,-0.092552 l 3.334706,-2.2061177 c 0.106286,-0.06992 0.180316,-0.165263 0.220909,-0.281026 0.04061,-0.116911 0.04061,-0.232564 0,-0.348344 -0.04061,-0.115763 -0.114057,-0.209972 -0.219159,-0.281025 l -3.336499,-2.207844 c -0.120217,-0.08023 -0.252141,-0.110128 -0.396245,-0.09254 z"
       fill="#ffffff"
       id="path12"
       style="fill:#ffffff;fill-opacity:1;stroke-width:0.879453" />
  </g>
  <g
     id="media-playback-stopped"
     transform="matrix(0.26458,0,0,0.26458,1.0655364,8.2225898)">
    <rect
       x="48"
       y="-26"
       width="22"
       height="22"
       fill-opacity="0"
       id="rect15" />
    <path
       class="ColorScheme-Text"
       d="m 59.649832,-22.142062 c -4.347212,0 -7.606179,3.204487 -7.606176,7.467784 0,4.266579 3.264193,7.4680946 7.614754,7.4680946 4.350559,0 7.615104,-3.2015156 7.615104,-7.4680946 0,-4.266579 -3.264545,-7.467784 -7.615104,-7.467784 z m -0.07523,1.20174 0.0017,0.096 c 0.02735,-1.81e-4 0.05468,-1.81e-4 0.08202,0 3.383768,0 6.292973,2.851768 6.292973,6.17022 0,3.318451 -2.909205,6.266129 -6.292973,6.266129 -3.383767,0 -6.291952,-2.947848 -6.291952,-6.266298 -3.14e-4,-3.286634 2.857177,-6.125119 6.20819,-6.170051 z m -1.666766,3.690936 c -0.484897,0 -0.875266,0.382829 -0.875266,0.858368 v 3.433477 c 0,0.475537 0.390369,0.858371 0.875266,0.858371 h 3.501059 c 0.484893,0 0.875263,-0.382834 0.875263,-0.858371 v -3.433477 c 0,-0.475539 -0.39037,-0.858368 -0.875263,-0.858368 z"
       fill="#ffffff"
       id="path17"
       style="fill:#ffffff;fill-opacity:1;stroke-width:0.866776" />
  </g>
  <g
     id="media-record"
     transform="matrix(0.26458,0,0,0.26458,1.2363212,1.3346622)">
    <rect
       x="73"
       y="4.3869e-05"
       width="22"
       height="22"
       fill-opacity="0"
       id="rect20" />
    <path
       class="ColorScheme-Text"
       d="m 83.900492,3.8547095 c -4.575138,0 -8.004976,3.2948115 -8.004973,7.6783305 0,4.386895 3.435338,7.67871 8.014,7.67871 4.578661,0 8.014369,-3.291815 8.014369,-7.67871 0,-4.3868944 -3.435708,-7.6783305 -8.014369,-7.6783305 z m -0.07916,1.3238844 h 0.0019 c 0.02877,0 0.05755,-1.845e-4 0.08632,0 3.561181,0 6.632628,2.9424172 6.632628,6.3544461 0,3.412029 -3.071447,6.354826 -6.632628,6.354826 -3.561179,0 -6.63223,-2.942797 -6.63223,-6.354826 -3.3e-4,-3.3793147 3.149974,-6.3544461 6.544076,-6.3544461 z m 0.03238,2.8241461 c -2.013162,0.029178 -3.629122,1.6012327 -3.628891,3.5303 0,1.949731 1.649661,3.530301 3.684621,3.530301 2.03496,0 3.684623,-1.58057 3.684623,-3.530301 0,-1.9497307 -1.649663,-3.5303 -3.684623,-3.5303 -0.01859,-1.348e-4 -0.03719,-1.348e-4 -0.05577,0 z"
       fill="currentColor"
       id="path22"
       style="stroke-width:0.901661;fill:#ffffff;fill-opacity:1" />
  </g>
  <g
     id="media-seek-forward"
     transform="matrix(0.26458,0,0,0.26458,33.271468,7.4082619)">
    <rect
       x="0.00021085"
       y="-23"
       width="22"
       height="22"
       fill-opacity="0"
       id="rect25" />
    <path
       class="ColorScheme-Text"
       d="m 10.901523,-19.323007 c -4.5737016,0.0047 -8.0024639,3.332971 -8.0024546,7.767206 0,4.4376505 3.4342598,7.7675513 8.0114786,7.7675513 4.57722,0 8.011849,-3.3299008 8.011849,-7.7675513 0,-4.43765 -3.434629,-7.767206 -8.011849,-7.767206 h -0.0092 z m -0.0791,1.339201 h 0.0018 c 0.02874,0 0.05756,-1.87e-4 0.08628,0 3.560059,0 6.630539,2.976499 6.630539,6.428005 0,3.4515057 -3.07048,6.4283496 -6.630539,6.4283496 -3.5600584,0 -6.6301432,-2.9768439 -6.6301432,-6.4283496 -3.316e-4,-3.418413 3.0164167,-6.38127 6.5420162,-6.428005 z m -3.0773489,3.5735 c -0.1482226,0.01781 -0.2712595,0.08026 -0.3705012,0.188324 -0.099233,0.108081 -0.1492817,0.235232 -0.1492817,0.38013 v 4.5720483 c 0,0.1448992 0.050095,0.2720498 0.1492817,0.3801306 0.099233,0.1080807 0.2222786,0.1705043 0.3705012,0.1883243 0.1482316,0.01782 0.2827519,-0.013954 0.4064795,-0.095904 L 10.908715,-10.64041 v 1.3706058 c 0,0.1448992 0.05,0.2720498 0.149281,0.3801306 0.09923,0.1080807 0.222279,0.1705043 0.370501,0.1883243 0.148232,0.01782 0.282753,-0.013954 0.40648,-0.095904 l 3.420833,-2.2859797 c 0.109031,-0.07244 0.184984,-0.171244 0.226625,-0.2912 0.04162,-0.121142 0.04162,-0.24098 0,-0.360953 -0.04162,-0.119954 -0.117014,-0.217572 -0.22482,-0.291199 l -3.422675,-2.287766 c -0.123323,-0.08315 -0.258653,-0.114116 -0.40648,-0.0959 -0.148222,0.01781 -0.271259,0.08025 -0.370501,0.188323 -0.09922,0.108081 -0.149281,0.235232 -0.149281,0.380131 v 1.370605 l -2.7571644,-1.843157 c -0.1233216,-0.08315 -0.2586529,-0.114116 -0.4064793,-0.0959 z"
       fill="currentColor"
       id="path27"
       style="stroke-width:0.906717;fill:#ffffff;fill-opacity:1" />
  </g>
  <g
     id="media-seek-backward"
     transform="matrix(-0.26458,0,0,0.26458,32.543874,7.4082619)">
    <rect
       x="0.00021085"
       y="-23"
       width="22"
       height="22"
       fill-opacity="0"
       id="rect30" />
    <path
       class="ColorScheme-Text"
       d="m 11.222751,-19.50068 c 4.716122,0 8.2546,3.386677 8.2546,7.900457 0,4.5137809 -3.538478,7.900808 -8.2546,7.900808 -4.7161248,0 -8.2549822,-3.3870271 -8.2549822,-7.900808 -9.4e-6,-4.510306 3.5331835,-7.900457 8.2456852,-7.900457 h 0.0095 z m 0,1.362175 c -0.0296,1.3e-5 -0.0593,-1.88e-4 -0.08891,0 -3.633294,0.0466 -6.7430894,3.060562 -6.7427573,6.538282 0,3.510718 3.1636594,6.5386316 6.8317563,6.5386316 3.668092,0 6.831344,-3.0279136 6.831344,-6.5386316 0,-3.510718 -3.163252,-6.539719 -6.831344,-6.538282 z m 0.533705,3.634807 c 0.152303,-0.01852 0.291741,0.01298 0.418805,0.09755 l 3.526542,2.327013 c 0.111087,0.07489 0.188718,0.174183 0.231643,0.296195 0.04288,0.12203 0.04288,0.243917 0,0.367146 -0.04289,0.122012 -0.121154,0.222503 -0.233493,0.296195 l -3.524644,2.325197 c -0.127473,0.083364 -0.266085,0.115674 -0.418806,0.097548 C 11.603774,-8.71498 11.476994,-8.778474 11.37475,-8.8884092 11.272517,-8.9983431 11.220939,-9.1276751 11.220939,-9.27506 v -1.394121 L 8.3801016,-8.794404 C 8.2526287,-8.7110403 8.1140169,-8.67873 7.9612963,-8.6968556 7.8085661,-8.7149813 7.6817859,-8.7784759 7.579542,-8.8884108 7.4773076,-8.9983457 7.4257302,-9.1276777 7.4257302,-9.2750627 v -4.6504843 c 0,-0.147385 0.051615,-0.276716 0.1538118,-0.386652 0.1022534,-0.109926 0.2290241,-0.173438 0.3817543,-0.191554 0.1523032,-0.01852 0.2917405,0.01298 0.4188053,0.09755 l 2.8408374,1.874778 v -1.39412 c 0,-0.147385 0.05161,-0.276716 0.153811,-0.386652 0.102253,-0.109926 0.229024,-0.173438 0.381753,-0.191554 z"
       fill="currentColor"
       id="path32"
       style="stroke-width:0.928233;fill:#ffffff;fill-opacity:1" />
  </g>
  <g
     id="media-skip-forward"
     transform="matrix(0.26458,0,0,0.26458,1.3898478,1.3229138)">
    <rect
       x="170"
       y="3.0518e-05"
       width="22"
       height="22"
       fill-opacity="0"
       id="rect35" />
    <path
       class="ColorScheme-Text"
       d="m 180.94921,3.5437714 c -4.61536,0.00483 -8.07535,3.3329445 -8.07534,7.7671816 0,4.437651 3.46554,7.767553 8.08445,7.767553 4.61891,0 8.08482,-3.329902 8.08482,-7.767553 0,-4.4376516 -3.46591,-7.7671816 -8.08482,-7.7671816 h -0.01 z m -0.0798,1.3392534 0.002,-5.16e-5 c 0.029,-8.057e-4 0.058,-1.865e-4 0.0871,0 3.59249,0 6.69094,2.9764729 6.69094,6.4279798 0,3.451506 -3.09845,6.42835 -6.69094,6.42835 -3.59248,0 -6.69052,-3.155267 -6.69052,-6.606773 -3.4e-4,-3.4184135 3.04504,-6.1506266 6.6016,-6.2495052 z m -3.10538,3.5734215 c -0.14958,0.017811 -0.27373,0.080248 -0.37387,0.1883244 -0.10018,0.1080807 -0.15068,0.2352314 -0.15068,0.3801306 V 13.59695 c 0,0.144899 0.0504,0.27205 0.15064,0.380131 0.10012,0.10808 0.22429,0.170504 0.37387,0.188324 0.14959,0.01782 0.28533,-0.01395 0.41018,-0.0959 l 3.45199,-2.28598 c 0.11002,-0.07245 0.18668,-0.171245 0.22869,-0.2912 0.0419,-0.121142 0.0419,-0.240981 0,-0.360954 -0.0421,-0.119954 -0.11807,-0.217571 -0.22686,-0.291199 L 178.17414,8.552403 C 178.04969,8.469265 177.91312,8.438287 177.76395,8.4565 Z m 5.98021,0.17612 c -0.51481,0 -0.92925,0.3981828 -0.92925,0.8927865 v 3.5711452 c 0,0.494605 0.41444,0.892787 0.92925,0.892787 0.5148,0 0.92925,-0.398182 0.92925,-0.892787 V 9.5253528 c 0,-0.4946037 -0.41445,-0.8927865 -0.92925,-0.8927865 z"
       fill="currentColor"
       id="path37"
       style="stroke-width:0.910838;fill:#ffffff;fill-opacity:1" />
  </g>
  <g
     id="media-skip-backward"
     transform="matrix(-0.26458,0,0,0.26458,90.619345,1.3229138)">
    <rect
       x="170"
       y="3.0518e-05"
       width="22"
       height="22"
       fill-opacity="0"
       id="rect40" />
    <path
       class="ColorScheme-Text"
       d="m 181.17417,3.6763 c 4.60493,0 8.05997,3.3772813 8.05997,7.878576 0,4.501295 -3.45504,7.878954 -8.05997,7.878954 -4.60492,0 -8.06034,-3.377659 -8.06034,-7.878954 -1e-5,-4.4978311 3.44987,-7.878576 8.05126,-7.878576 h 0.009 z m 0,1.3584084 c -0.0289,0 -0.0579,-1.892e-4 -0.0868,0 -3.54762,0.046472 -6.5841,3.052067 -6.58378,6.5201676 0,3.501008 3.08908,6.520546 6.67069,6.520546 3.5816,0 6.67027,-3.019538 6.67027,-6.520546 0,-3.5010069 -3.08867,-6.5201676 -6.67027,-6.5201676 z m -3.18464,3.624723 c 0.14872,-0.018474 0.28486,0.01295 0.40893,0.097279 l 3.4434,2.3205746 c 0.10846,0.07468 0.1843,0.173702 0.22618,0.295378 0.0419,0.121693 0.0419,0.243241 0,0.366131 -0.0419,0.121674 -0.1183,0.221886 -0.22799,0.295376 l -3.44154,2.318764 c -0.12448,0.08313 -0.2598,0.115354 -0.40893,0.09728 -0.14913,-0.01807 -0.27293,-0.0814 -0.37276,-0.191024 -0.0999,-0.109631 -0.15018,-0.238606 -0.15018,-0.385583 V 9.2359848 c 0,-0.1469774 0.0504,-0.2759516 0.15018,-0.3855824 0.0999,-0.1096218 0.22363,-0.1729588 0.37276,-0.1910254 z m 5.9621,0.1786458 c 0.51325,0 0.92644,0.4038934 0.92644,0.9055907 v 3.6223631 c 0,0.501696 -0.41319,0.90559 -0.92644,0.90559 -0.51324,0 -0.92644,-0.403894 -0.92644,-0.90559 V 9.7436679 c 0,-0.5016973 0.4132,-0.9055907 0.92644,-0.9055907 z"
       fill="currentColor"
       id="path42"
       style="stroke-width:0.915956;fill:#ffffff;fill-opacity:1" />
  </g>
  <g
     id="media-eject"
     transform="matrix(0,-0.26458,0.26458,0,52.916903,52.122282)">
    <rect
       x="170"
       y="3.0518e-05"
       width="22"
       height="22"
       fill-opacity="0"
       id="rect45" />
    <path
       class="ColorScheme-Text"
       d="m 188.94587,10.984219 c 0,-4.6879311 -3.46985,-8.2053233 -8.09434,-8.2053233 h -0.009 c -4.62094,0 -8.08538,3.520995 -8.08538,8.2053233 0,4.687932 3.47,8.205579 8.0945,8.205579 4.62449,0 8.09433,-3.517647 8.09433,-8.205579 z m -1.3956,-0.08837 c 2e-4,0.02942 2e-4,0.05895 0,0.08837 0,3.646169 -3.10191,6.790841 -6.69874,6.790841 -3.59683,0 -6.69889,-3.144672 -6.69889,-6.790841 -3.3e-4,-3.6119032 3.04892,-6.742193 6.61162,-6.7905949 0.029,-1.981e-4 0.0581,-1.981e-4 0.0873,0 3.56303,-3.207e-4 6.65105,3.0905554 6.69879,6.7021279 z m -1.81976,0.08837 c 0,-0.07969 -0.0137,-0.158504 -0.04,-0.237624 -0.0525,-0.15823 -0.14746,-0.286035 -0.28348,-0.38315 l -4.31747,-3.0172918 c -0.15558,-0.1096683 -0.32596,-0.1511287 -0.51243,-0.127107 -0.18701,0.023485 -0.34181,0.1061221 -0.46701,0.2486777 -0.12519,0.142565 -0.18898,0.3099157 -0.18898,0.5010434 v 6.0309047 c 0,0.191128 0.0637,0.358469 0.18898,0.501043 0.12517,0.142565 0.28,0.227014 0.46701,0.250517 0.18699,0.02349 0.35634,-0.02084 0.51243,-0.128946 l 4.31573,-3.0155 c 0.13755,-0.09557 0.23277,-0.22492 0.2853,-0.383151 0.0263,-0.07989 0.04,-0.159768 0.04,-0.239472 z m -6.73973,-2.8294174 c 0,-0.522481 -0.41495,-0.9431401 -0.93038,-0.9431401 -0.51543,0 -0.93038,0.4206591 -0.93038,0.9431401 v 5.6588364 c 0,0.522481 0.41495,0.943139 0.93038,0.943139 0.51543,0 0.93038,-0.420658 0.93038,-0.943139 z"
       fill="currentColor"
       id="path47"
       style="stroke-width:0.936736;fill:#ffffff;fill-opacity:1" />
  </g>
  <use
     y="0"
     x="0"
     id="media-playback-pause"
     transform="translate(0.1194639,9.3162662)"
     width="100%"
     height="100%"
     xlink:href="#media-playback-paused" />
  <use
     y="0"
     x="0"
     id="media-playback-start"
     transform="translate(-0.0791071,9.3162661)"
     width="100%"
     height="100%"
     xlink:href="#media-playback-playing" />
  <use
     y="0"
     x="0"
     id="media-playback-stop"
     transform="translate(-0.27180263,9.2398652)"
     width="100%"
     height="100%"
     xlink:href="#media-playback-stopped" />
</svg>
