<svg xmlns="http://www.w3.org/2000/svg"  width="32" height="32" version="1.1">
 <g id="22-22-system-shutdown" transform="translate(0,-1122.52)">
  <rect  style="opacity:0.001" width="22" height="22" x="0" y="1100.52"/>
  <path  style="opacity:1;fill:#eff0f1" transform="translate(0,1100.5197)" d="M 10.984375,1.9863281 A 1.0001,1.0001 0 0 0 10,3 v 8 a 1.0001,1.0001 0 1 0 2,0 V 3 A 1.0001,1.0001 0 0 0 10.984375,1.9863281 Z M 8.5507812,3.4140625 a 0.50005,0.50005 0 0 0 -0.1816406,0.03125 C 4.6885142,4.7271125 2.4647151,8.484725 3.1113281,12.328125 3.7579412,16.171525 7.0889195,18.9932 10.986328,19 14.883737,19.01 18.22474,16.196569 18.884766,12.355469 19.544791,8.5143687 17.334333,4.7496781 13.658203,3.4550781 a 0.50038707,0.50038707 0 1 0 -0.333984,0.9433594 c 3.222613,1.1348 5.152817,4.4198094 4.574219,7.7871095 C 17.319837,15.552747 14.404875,18.006 10.988281,18 7.5716881,17.99 4.6644981,15.531409 4.0976562,12.162109 3.5308146,8.7929094 5.4707105,5.5122719 8.6972656,4.3886719 A 0.50005,0.50005 0 0 0 8.5507812,3.4140625 Z"/>
 </g>
 <g id="22-22-system-save-session" transform="translate(192,-1122.52)">
  <rect  style="opacity:0.001" width="22" height="22" x="0" y="1100.52"/>
  <path  style="opacity:1;fill:#eff0f1" transform="translate(0,1100.5197)" d="m 11,3 c -4.412356,0 -8,3.5877 -8,8 0,4.4124 3.587644,8 8,8 4.412356,0 8,-3.5876 8,-8 0,-4.4123 -3.587644,-8 -8,-8 z m 0,1 c 3.871916,0 7,3.1281 7,7 0,3.8719 -3.128084,7 -7,7 C 7.128084,18 4,14.8719 4,11 4,7.1281 7.128084,4 11,4 Z M 10.98437,5.9863281 A 1.0001,1.0001 0 0 0 10,7 V 9 H 9.0117188 a 1.0132801,0.92637466 0 0 0 -0.8769532,1.388672 l 0.9941406,1.572266 0.9941408,1.576171 a 1.0132801,0.92637466 0 0 0 1.753906,0 l 0.994141,-1.576171 0.99414,-1.572266 A 1.0132801,0.92637466 0 0 0 12.988281,9 H 12 V 7 A 1.0001,1.0001 0 0 0 10.984375,5.9863281 Z M 8.5,15 a 0.50005,0.50005 0 1 0 0,1 h 5 a 0.50005,0.50005 0 1 0 0,-1 z"/>
 </g>
 <g id="22-22-system-log-out" transform="translate(32,-1122.52)">
  <rect  style="opacity:0.001" width="22" height="22" x="0" y="1100.52"/>
  <path  style="opacity:1;fill:#eff0f1" transform="translate(0,1100.5197)" d="m 11,3 c -4.4123557,0 -8,3.5877 -8,8 0,4.4124 3.5876443,8 8,8 4.412356,0 8,-3.5876 8,-8 0,-4.4123 -3.587644,-8 -8,-8 z m 0,1 c 3.871916,0 7,3.1281 7,7 0,3.8719 -3.128084,7 -7,7 C 7.1280844,18 4,14.8719 4,11 4,7.1281 7.1280844,4 11,4 Z m 1.992188,1.9921875 A 1.0001,1.0001 0 0 0 12.375,6.21875 l -5,4 a 1.0001,1.0001 0 0 0 0,1.5625 l 5,4 a 1.0004882,1.0004882 0 1 0 1.25,-1.5625 L 9.6015625,11 13.625,7.78125 A 1.0001,1.0001 0 0 0 12.992188,5.9921875 Z"/>
 </g>
 <g id="22-22-system-suspend" transform="translate(128,-1122.52)">
  <rect  style="opacity:0.001" width="22" height="22" x="0" y="1100.52"/>
  <path  style="opacity:1;fill:#eff0f1" transform="translate(0,1100.5197)" d="m 11,3 c -4.4123557,0 -8,3.5877 -8,8 0,4.4124 3.5876443,8 8,8 4.412356,0 8,-3.5876 8,-8 0,-4.4123 -3.587644,-8 -8,-8 z m 0,1 c 3.871916,0 7,3.1281 7,7 0,3.8719 -3.128084,7 -7,7 C 7.1280844,18 4,14.8719 4,11 4,7.1281 7.1280844,4 11,4 Z m -1,3 a 1.0001,1.0001 0 1 0 0,2 h 2.130859 L 9.1679688,13.445312 A 1.0001,1.0001 0 0 0 10,15 h 4 a 1.0001,1.0001 0 1 0 0,-2 h -2.130859 l 2.96289,-4.4453125 A 1.0001,1.0001 0 0 0 14,7 Z M 6.5078125,9 a 0.50005,0.50005 0 1 0 0,1 H 7.5742188 L 6.0917969,12.222656 A 0.50005,0.50005 0 0 0 6.5078125,13 h 2 a 0.50005,0.50005 0 1 0 0,-1 H 7.4414062 L 8.9238281,9.7773438 A 0.50005,0.50005 0 0 0 8.5078125,9 Z"/>
 </g>
 <g id="22-22-system-reboot" transform="translate(63.999999,-1122.52)">
  <rect  style="opacity:0.001" width="22" height="22" x="0" y="1100.52"/>
  <path  style="opacity:1;fill:#eff0f1" d="m 11,1103.5197 c 4.412356,0 8,3.5877 8,8 0,4.4124 -3.587644,8 -8,8 -4.412356,0 -8,-3.5876 -8,-8 0,-4.4123 3.587644,-8 8,-8 z m 0,1 c -3.871916,0 -7,3.1281 -7,7 0,3.8719 3.128084,7 7,7 3.871916,0 7,-3.1281 7,-7 0,-3.8719 -3.128084,-7 -7,-7 z m 0,2 c 2.761424,0 5,2.2386 5,5 h 0.412109 a 0.58780608,0.48704093 0 0 1 0.509766,0.7305 l -0.707031,1.0136 -0.707031,1.0137 a 0.58780608,0.48704093 0 0 1 -1.017579,0 l -0.705078,-1.0137 -0.707031,-1.0136 a 0.58780608,0.48704093 0 0 1 0.509766,-0.7305 H 14 c 0,-1.6569 -1.343146,-3 -3,-3 -1.656854,0 -3,1.3431 -3,3 a 1,1 0 0 1 -1,1 1,1 0 0 1 -1,-1 1,1 0 0 1 0.00391,-0.094 c 0.050436,-2.7178 2.266277,-4.9063 4.996094,-4.9063 z"/>
 </g>
 <g id="22-22-system-lock-screen" transform="translate(96,-1122.52)">
  <rect  style="opacity:0.001" width="22" height="22" x="0" y="1100.52"/>
  <path  style="opacity:1;fill:#eff0f1" transform="translate(0,1100.5197)" d="m 11,3 c -4.412356,0 -8,3.5877 -8,8 0,4.4124 3.587644,8 8,8 4.412356,0 8,-3.5876 8,-8 0,-4.4123 -3.587644,-8 -8,-8 z m 0,1 c 3.871916,0 7,3.1281 7,7 0,3.8719 -3.128084,7 -7,7 C 7.128084,18 4,14.8719 4,11 4,7.1281 7.128084,4 11,4 Z m 0,2 A 2,2 0 0 0 9,8 v 2 c -0.554,0 -1,0.446 -1,1 v 3 c 0,0.554 0.446,1 1,1 h 4 c 0.554,0 1,-0.446 1,-1 v -3 c 0,-0.554 -0.446,-1 -1,-1 V 8 A 2,2 0 0 0 11,6 Z m 0,1 a 1,1 0 0 1 1,1 v 2 H 10 V 8 a 1,1 0 0 1 1,-1 z"/>
 </g>
 <g id="22-22-system-switch-user" transform="translate(160,-1122.52)">
  <rect  style="opacity:0.001" width="22" height="22" x="0" y="1100.52"/>
  <path  style="opacity:1;fill:#eff0f1" transform="translate(0,1100.5197)" d="m 11,3 c -4.412356,0 -8,3.5877 -8,8 0,4.4124 3.587644,8 8,8 4.412356,0 8,-3.5876 8,-8 0,-4.4123 -3.587644,-8 -8,-8 z m 0,1 c 3.871916,0 7,3.1281 7,7 0,3.8719 -3.128084,7 -7,7 C 7.128084,18 4,14.8719 4,11 4,7.1281 7.128084,4 11,4 Z m 0,2 A 3,3 0 0 0 8,9 3,3 0 0 0 9.0175781,11.248047 C 7.243792,11.708937 6,12.766349 6,14 c 0,1 2.2385763,1 5,1 2.761424,0 5,-0.0041 5,-1 0,-1.234082 -1.244753,-2.291321 -3.019531,-2.751953 A 3,3 0 0 0 14,9 3,3 0 0 0 11,6 Z m 0,6 c 1.218586,0 2.309091,0.308828 3.021484,0.736328 0.585797,0.3514 0.722128,0.707663 0.804688,1.039063 -0.128973,0.039 -0.196348,0.07502 -0.427734,0.107421 C 13.617036,13.991214 12.380217,14 11,14 9.6192882,14 8.3827082,13.989966 7.6015625,13.884766 7.3692565,13.852766 7.3006373,13.816744 7.171875,13.777344 7.253764,13.445344 7.3914975,13.088528 7.9785156,12.736328 8.6909094,12.308828 9.7814147,12 11,12 Z"/>
 </g>
 <g id="22-22-system-users" transform="translate(149.02742,-6.9557412)">
  <path  style="opacity:0.001" d="m 74.972582,-15.044259 v 22 h 22 v -22 z"/>
  <path  style="opacity:1;fill:#eff0f1" d="m 88.972577,-12.044395 c -1.661999,0 -3,1.338 -3,3 0,1.662 1.338001,3 3,3 1.661999,0 3,-1.338 3,-3 0,-1.662 -1.338001,-3 -3,-3 z m -6,3 c -1.661999,0 -3,1.338 -3,3 0,1.662 1.338001,3 3,3 1.661999,0 3,-1.338 3,-3 0,-1.662 -1.338001,-3 -3,-3 z m 6,4 c -0.646349,0 -1.255999,0.134093 -1.818359,0.361328 l 0.455078,0.914063 c 0.427816,-0.1605 0.877758,-0.275391 1.363281,-0.275391 2.216023,0 4,1.783975 4,4 h -3.5 l 0.5,1 h 4 v -1 c 0,-2.77002 -2.229982,-5 -5,-5 z m -6,3 c -2.770018,0 -5,2.22998 -5,5 v 1 h 10 v -1 c 0,-2.77002 -2.229982,-5 -5,-5 z m 0,1 c 2.216008,0 4,1.783975 4,4 h -8 c 0,-2.216025 1.783977,-4 4,-4 z"/>
 </g>
 <g id="22-22-system-search" transform="translate(68,-1122.5197)">
  <path  style="opacity:0.001" d="m 220,1100.5197 v 22 h 22 v -22 z"/>
  <path  style="opacity:1;fill:#eff0f1" transform="translate(0,1100.5197)" d="m 229,3 c -3.324,0 -6,2.676 -6,6 0,3.324 2.676,6 6,6 1.29831,0 2.48179,-0.428736 3.46094,-1.125 l 4.83203,4.832031 c 0.94255,0.9804 2.39453,-0.471562 1.41406,-1.414062 L 233.875,12.460938 C 234.57127,11.481793 235,10.298301 235,9 235,5.676 232.324,3 229,3 Z m 0,1 c 2.77,0 5,2.23 5,5 0,2.77 -2.23,5 -5,5 -2.77,0 -5,-2.23 -5,-5 0,-2.77 2.23,-5 5,-5 z"/>
 </g>
 <g id="22-22-system-user-list" transform="translate(150.30206,-6.4959092)">
  <path id="path84-3-7" style="opacity:0.001" d="m 105.69794,-15.504091 v 22 h 22 v -22 z"/>
  <path id="path340-1-2" style="opacity:1;fill:#eff0f1" d="m 121.20253,-8.5040904 c -0.25749,0 -0.4953,0.07125 -0.70703,0.1855473 1.3e-4,0.00131 -0.0655,0.040171 -0.0653,0.041573 0.0789,0.9987044 -0.1715,1.6340995 -0.45725,2.1302896 0.27229,0.3874097 0.72079,0.6425938 1.22958,0.6425938 0.70524,0 1.29669,-0.4867424 1.45703,-1.1425782 0.028,-0.1145623 0.043,-0.2342292 0.043,-0.3574223 -1e-5,-0.8284286 -0.67158,-1.4999999 -1.5,-1.4999999 z m -9.00455,0 c 0.25749,0 0.4953,0.07125 0.70703,0.1855473 -1.3e-4,0.00131 0.0655,0.040171 0.0653,0.041573 -0.0789,0.9987044 0.1715,1.6340995 0.45725,2.1302896 -0.27229,0.3874097 -0.72079,0.6425938 -1.22958,0.6425938 -0.70524,0 -1.29669,-0.4867424 -1.45703,-1.1425782 -0.028,-0.1145623 -0.043,-0.2342292 -0.043,-0.3574223 10e-6,-0.8284286 0.67158,-1.4999999 1.5,-1.4999999 z m -3e-5,3.9999905 c 0.8432,0 1.58277,0.3887936 2.03516,1.0156251 -0.25387,0.1345706 -0.51219,0.299904 -0.7363,0.4335802 -0.24637,-0.2905781 -0.7047,-0.4492057 -1.29886,-0.4492057 -0.90025,0 -1.50001,0.6605494 -1.50001,2.0000091 h 1.25 l -0.5,1.00000032 h -1.75 V -2.0236309 c 1e-5,-1.4389712 1.11514,-2.480469 2.50001,-2.480469 z m 9,9.6e-6 c -0.8432,0 -1.58277,0.3887943 -2.03516,1.0156252 0.25387,0.1345712 0.51219,0.299904 0.7363,0.4335801 0.24637,-0.2905781 0.70469,-0.4492049 1.29886,-0.4492049 0.90025,0 1.49999,0.6832973 1.49999,1.9999987 h -1.25 l 0.5,1.00000032 h 1.75 l 1e-5,-1.51952972 c 0,-1.4389712 -1.11513,-2.4804697 -2.5,-2.4804697 z m -4.50001,1.9999994 c 2,0 4,0.9999997 4,4.0000001 h -8 c 0,-3.0000004 2,-4.0000001 4,-4.0000001 z m 0,-1.0000004 c -2.90828,0 -4.99209,2.0448512 -4.998,5.0000005 l -0.002,0.9999997 h 10 l -0.002,-0.9999997 c -0.006,-2.970902 -2.08975,-5.0000005 -4.99802,-5.0000005 z m 6e-5,-7.9999997 c -1.93303,0 -3.50003,1.5669974 -3.50003,3.4999973 0,1.9330046 1.567,3.5000034 3.50003,3.5000034 1.64557,0 3.02589,-1.1356098 3.40003,-2.6658933 0.0653,-0.2673097 0.10001,-0.5466608 0.10001,-0.8341101 0,-1.9329999 -1.56703,-3.4999973 -3.50004,-3.4999973 z"/>
 </g>
 <g id="22-22-system-user-prompt" transform="translate(320,-1122.5197)">
  <path id="path44-5-7" style="opacity:0.001" d="m 0,1100.5197 v 22 h 22 v -22 z"/>
  <path  style="opacity:1;fill:#eff0f1" transform="translate(0,1100.5197)" d="M 4,4 C 3.446,4 3,4.446 3,5 v 4 c 0,0.554 0.446,1 1,1 h 14 c 0.554,0 1,-0.446 1,-1 V 5 C 19,4.446 18.554,4 18,4 Z M 4,5 H 18 V 9 H 4 Z M 6,6 C 5.446,6 5,6.446 5,7 5,7.554 5.446,8 6,8 H 7 C 7.554,8 8,7.554 8,7 8,6.446 7.554,6 7,6 Z m 5,0 c -0.554,0 -1,0.446 -1,1 0,0.554 0.446,1 1,1 h 1 C 12.554,8 13,7.554 13,7 13,6.446 12.554,6 12,6 Z m -7,6 c -0.554,0 -1,0.446 -1,1 v 4 c 0,0.554 0.446,1 1,1 h 14 c 0.554,0 1,-0.446 1,-1 v -4 c 0,-0.554 -0.446,-1 -1,-1 z m 0,1 h 14 v 4 H 4 Z m 2,1 a 1,1 0 0 0 -1,1 1,1 0 0 0 1,1 1,1 0 0 0 1,-1 1,1 0 0 0 -1,-1 z m 3,0 a 1,1 0 0 0 -1,1 1,1 0 0 0 1,1 1,1 0 0 0 1,-1 1,1 0 0 0 -1,-1 z m 3,0 a 1,1 0 0 0 -1,1 1,1 0 0 0 1,1 1,1 0 0 0 1,-1 1,1 0 0 0 -1,-1 z"/>
 </g>
 <g id="system-shutdown" transform="translate(0,-4.2069092e-5)">
  <rect  style="opacity:0.001" width="32" height="32" x="0" y="0"/>
  <path  style="opacity:1;fill:#eff0f1" d="M 15.984375,2.9863281 A 1.0001,1.0001 0 0 0 15,4 v 12 a 1.0001,1.0001 0 1 0 2,0 V 4 A 1.0001,1.0001 0 0 0 15.984375,2.9863281 Z M 18.509766,4.28125 A 0.50005,0.50005 0 0 0 18.4375,5.2734375 C 23.902996,6.5151676 27.556399,11.656714 26.931641,17.226562 26.306882,22.796411 21.604778,27 16,27 10.395222,27 5.6931182,22.796412 5.0683594,17.226562 4.4436005,11.656714 8.097004,6.5151679 13.5625,5.2734375 a 0.50005,0.50005 0 0 0 -0.136719,-0.9882813 0.50005,0.50005 0 0 0 -0.08398,0.013672 C 7.3878401,5.6515331 3.3936245,11.270259 4.0742188,17.337891 4.7548129,23.405522 9.8943171,28 16,28 22.105683,28 27.245187,23.405522 27.925781,17.337891 28.606375,11.270259 24.612156,5.6515328 18.658203,4.2988281 A 0.50005,0.50005 0 0 0 18.509766,4.28125 Z"/>
 </g>
 <g id="system-log-out" transform="translate(32,-4.2069092e-5)">
  <rect  style="opacity:0.001" width="32" height="32" x="0" y="0"/>
  <path  style="opacity:1;fill:#eff0f1" d="M 16,4 C 9.3814665,4 4,9.3815499 4,16 4,22.618599 9.3814665,28 16,28 22.618534,28 28,22.618599 28,16 28,9.3815499 22.618534,4 16,4 Z m 0,1 C 22.08444,5 27,9.9155856 27,16 27,22.084414 22.08444,27 16,27 9.915562,27 5,22.084414 5,16 5,9.9155856 9.915562,5 16,5 Z m 2.957031,3.9921875 a 1.0001,1.0001 0 0 0 -0.607422,0.2480469 l -7,5.9999996 a 1.0001,1.0001 0 0 0 0,1.519532 l 7,6 a 1.0001264,1.0001264 0 1 0 1.300782,-1.519532 L 13.537109,16 19.650391,10.759766 a 1.0001,1.0001 0 0 0 -0.69336,-1.7675785 z"/>
 </g>
 <g id="system-reboot" transform="translate(64,-4.2069092e-5)">
  <rect  style="opacity:0.001" width="32" height="32" x="0" y="0"/>
  <path  style="opacity:1;fill:#eff0f1" d="M 16,4 C 9.381466,4 4,9.3815499 4,16 4,22.618599 9.381466,28 16,28 22.618534,28 28,22.618599 28,16 28,9.3815499 22.618534,4 16,4 Z m 0,1 C 22.08444,5 27,9.9155856 27,16 27,22.084414 22.08444,27 16,27 9.915561,27 5,22.084414 5,16 5,9.9155856 9.915561,5 16,5 Z m 0.01172,4 C 12.162282,8.9932815 9.013437,12.12519 9,15.974609 a 1.0001,1.0001 0 1 0 2,0.0078 C 11.009668,13.212655 13.238022,10.995166 16.007812,11 18.777605,11.004834 21,13.230203 21,16 h -1.126953 a 0.86934591,0.80121082 3.1031065e-6 0 0 -0.259766,0.03516 0.86934591,0.80121082 3.1031065e-6 0 0 -0.496093,1.167969 l 2.130859,3.396484 a 0.86934591,0.80121082 3.1031065e-6 0 0 1.503906,0.002 l 2.130859,-3.40039 A 0.86934591,0.80121082 3.1031065e-6 0 0 24.130859,16 H 23 C 23,12.150557 19.861156,9.0067185 16.011719,9 Z"/>
 </g>
 <g id="system-lock-screen" transform="translate(96,-4.2069092e-5)">
  <rect  style="opacity:0.001" width="32" height="32" x="0" y="0"/>
  <path  style="opacity:1;fill:#eff0f1" d="M 16,4 C 9.381466,4 4,9.3815499 4,16 4,22.618599 9.381466,28 16,28 22.618534,28 28,22.618599 28,16 28,9.3815499 22.618534,4 16,4 Z m 0,1 C 22.08444,5 27,9.9155856 27,16 27,22.084414 22.08444,27 16,27 9.915561,27 5,22.084414 5,16 5,9.9155856 9.915561,5 16,5 Z m 0,3 c -1.840949,2e-7 -3,1.3931094 -3,3.111328 V 14 c -1.361162,0 -2,0.716348 -2,1.578125 v 4.867187 C 11,21.307091 11.742682,22 12.666016,22 h 6.667968 C 20.257318,22 21,21.307092 21,20.445312 V 15.578125 C 21,14.716348 20.31738,14 19,14 V 11.111328 C 19,9.3931094 17.840949,8.0000002 16,8 Z m 0,1 c 1.10457,-8e-7 2,0.7835012 2,1.75 V 14 H 14 V 10.75 C 14,9.7835024 14.895431,9.0000003 16,9 Z"/>
 </g>
 <g id="system-suspend" transform="translate(128,-4.2069092e-5)">
  <rect  style="opacity:0.001" width="32" height="32" x="0" y="0"/>
  <path  style="opacity:1;fill:#eff0f1" d="M 16,4 C 9.3814665,4 4,9.3815499 4,16 4,22.618599 9.3814665,28 16,28 22.618534,28 28,22.618599 28,16 28,9.3815499 22.618534,4 16,4 Z m 0,1 C 22.08444,5 27,9.9155856 27,16 27,22.084414 22.08444,27 16,27 9.915562,27 5,22.084414 5,16 5,9.9155856 9.915562,5 16,5 Z m -2,5 a 1.0001,1.0001 0 1 0 0,2 h 5.080078 l -5.898437,8.425781 A 1.0001,1.0001 0 0 0 14,22 h 7 a 1.0001,1.0001 0 1 0 0,-2 h -5.080078 l 5.898437,-8.425781 A 1.0001,1.0001 0 0 0 21,10 Z m -5.5,3 a 0.50005,0.50005 0 1 0 0,1 h 3.066406 L 8.0839844,19.222656 A 0.50005,0.50005 0 0 0 8.5,20 h 4 a 0.50005,0.50005 0 1 0 0,-1 H 9.4335938 L 12.916016,13.777344 A 0.50005,0.50005 0 0 0 12.5,13 Z"/>
 </g>
 <g id="system-switch-user" transform="translate(160,-4.2069092e-5)">
  <rect  style="opacity:0.001" width="32" height="32" x="0" y="0"/>
  <path  style="opacity:1;fill:#eff0f1" d="M 16,4 C 9.381466,4 4,9.3815499 4,16 4,22.618599 9.381466,28 16,28 22.618534,28 28,22.618599 28,16 28,9.3815499 22.618534,4 16,4 Z m 0,1 C 22.08444,5 27,9.9155856 27,16 27,22.084414 22.08444,27 16,27 9.915561,27 5,22.084414 5,16 5,9.9155856 9.915561,5 16,5 Z m 0,4 a 4,4 0 0 0 -4,4 4,4 0 0 0 1.779297,3.324219 C 11.337867,16.984986 9,18.612025 9,20.599609 9,21.99961 12.134007,22 16,22 c 3.865993,0 7,-0.0062 7,-1.400391 0,-1.987695 -2.33772,-3.616648 -4.779297,-4.277343 A 4,4 0 0 0 20,13 4,4 0 0 0 16,9 Z m 0,8 c 1.277778,0 2.904464,0.457522 4.111328,1.181641 1.167696,0.700617 1.8382,1.571016 1.88086,2.339843 -0.01034,0.0048 -0.01241,0.0034 -0.02734,0.01172 -0.161667,0.08973 -0.580678,0.219526 -1.152344,0.298828 C 19.669171,20.99064 17.932496,21 16,21 c -1.932996,0 -3.669426,-0.0081 -4.8125,-0.166016 -0.571537,-0.07896 -0.991212,-0.20927 -1.152344,-0.298828 -0.01488,-0.0083 -0.01703,-0.0069 -0.02734,-0.01172 0.04164,-0.769295 0.712195,-1.640599 1.88086,-2.341797 C 13.095536,17.457522 14.722222,17 16,17 Z"/>
 </g>
 <g id="system-save-session" transform="translate(192,-4.2069092e-5)">
  <rect  style="opacity:0.001" width="32" height="32" x="0" y="0"/>
  <path  style="opacity:1;fill:#eff0f1" d="M 16,4 C 9.381466,4 4,9.3815499 4,16 4,22.618599 9.381466,28 16,28 22.618534,28 28,22.618599 28,16 28,9.3815499 22.618534,4 16,4 Z m 0,1 C 22.08444,5 27,9.9155856 27,16 27,22.084414 22.08444,27 16,27 9.915561,27 5,22.084414 5,16 5,9.9155856 9.915561,5 16,5 Z M 15.98437,7.9863281 A 1.0001,1.0001 0 0 0 15,9 v 4 h -2.298828 a 1.7033655,1.4944325 0 0 0 -1.472656,2.242188 l 3.296875,5.009765 a 1.7033655,1.4944325 0 0 0 2.949218,0 l 3.296875,-5.009765 A 1.7033655,1.4944325 0 0 0 19.298828,13 H 17 V 9 A 1.0001,1.0001 0 0 0 15.984375,7.9863281 Z M 11.507812,22 a 0.50005,0.50005 0 1 0 0,1 h 9 a 0.50005,0.50005 0 1 0 0,-1 z"/>
 </g>
 <g id="system-users" transform="translate(224)">
  <path  style="opacity:0.001" d="M 1.771481e-6,-2.292845e-7 V 32.000001 H 32.000003 V -2.292845e-7 Z"/>
  <path  style="opacity:1;fill:#eff0f1" d="M 20.5,4 C 18.007002,4 16,6.007 16,8.5 16,10.993 18.007002,13 20.5,13 22.992999,13 25,10.993 25,8.5 25,6.007 22.992999,4 20.5,4 Z m -9,5 C 9.0070021,9 7,11.007 7,13.5 7,15.993 9.0070021,18 11.5,18 13.992999,18 16,15.993 16,13.5 16,11.007 13.992999,9 11.5,9 Z m 9,5 c -1.123862,0 -2.183501,0.252128 -3.138672,0.691406 -0.110539,0.501012 -0.283399,0.977682 -0.517578,1.419922 C 17.882334,15.409682 19.138587,15 20.5,15 24.118334,15 27,17.881666 27,21.5 V 22 h -7.738281 c 0.1881,0.322355 0.358357,0.653933 0.505859,1 H 28 V 21.5 C 28,17.344971 24.655028,14 20.5,14 Z m -9,5 C 7.3449736,19 4,22.344971 4,26.5 V 28 H 19 V 26.5 C 19,22.344971 15.655028,19 11.5,19 Z m 0,1 c 3.618334,0 6.5,2.881666 6.5,6.5 V 27 H 5 V 26.5 C 5,22.881666 7.8816683,20 11.5,20 Z"/>
 </g>
 <g id="system-user-list" transform="translate(256)">
  <path  style="opacity:0.001" d="M -6.142595e-7,-2.292845e-7 V 32.000001 H 32.000001 V -2.292845e-7 Z"/>
  <path  style="opacity:1;fill:#eff0f1" d="M 16.5,6 C 14.007002,6 12,8.007 12,10.5 12,12.993 14.007002,15 16.5,15 18.992999,15 21,12.993 21,10.5 21,8.007 18.992999,6 16.5,6 Z m -6,3 C 9.115001,9 8,10.115 8,11.5 8,12.885001 9.115001,14 10.5,14 11.039456,14 11.535758,13.827444 11.943359,13.539062 11.351133,12.671152 11,11.629274 11,10.5 11,10.017555 11.067985,9.5518284 11.185547,9.1054688 10.966633,9.0431974 10.739415,9 10.5,9 Z m 12,0 C 22.260585,9 22.033367,9.0431974 21.814453,9.1054688 21.932015,9.5518284 22,10.017555 22,10.5 22,11.629274 21.648867,12.671152 21.056641,13.539062 21.464242,13.827444 21.960544,14 22.5,14 23.884999,14 25,12.885001 25,11.5 25,10.115 23.884999,9 22.5,9 Z m -12,6 C 8.0072273,15 6,17.22968 6,20 v 1 H 8.375 C 8.4810531,20.655224 8.6144985,20.324584 8.7617188,20 H 7 c 0,-2.287512 1.6035325,-4 3.5,-4 0.503749,0 0.984026,0.127281 1.421875,0.347656 0.320686,-0.205759 0.6577,-0.388864 1.005859,-0.550781 C 12.22714,15.29765 11.397492,15 10.5,15 Z m 12,0 c -0.897492,0 -1.72714,0.29765 -2.427734,0.796875 0.348159,0.161917 0.685173,0.345022 1.005859,0.550781 C 21.515974,16.127281 21.996251,16 22.5,16 c 1.896468,0 3.5,1.712488 3.5,4 h -1.761719 c 0.14722,0.324584 0.280666,0.655224 0.386719,1 H 27 v -1 c 0,-2.77032 -2.007227,-5 -4.5,-5 z m -6,1 C 12.344973,16 9,19.344971 9,23.5 V 25 H 24 V 23.5 C 24,19.344971 20.655028,16 16.5,16 Z m 0,1 c 3.618334,0 6.5,2.881666 6.5,6.5 V 24 H 10 V 23.5 C 10,19.881666 12.881668,17 16.5,17 Z"/>
 </g>
 <g id="system-search" transform="translate(288)">
  <path  style="opacity:0.001" d="M -5.0000001e-7,-1e-6 V 32 H 32 V -1e-6 Z"/>
  <path  style="opacity:1;fill:#eff0f1" d="m 13,4 a 9,9 0 0 0 -9,9 9,9 0 0 0 9,9 9,9 0 0 0 5.611328,-1.974609 l 7.681641,7.68164 c 0.942508,0.98168 2.395742,-0.471554 1.414062,-1.414062 L 20.03125,18.617188 A 9,9 0 0 0 22,13 9,9 0 0 0 13,4 Z m 0,1 a 8,8 0 0 1 8,8 8,8 0 0 1 -8,8 8,8 0 0 1 -8,-8 8,8 0 0 1 8,-8 z"/>
 </g>
 <g id="system-user-prompt" transform="translate(320,2.2e-5)">
  <path  style="opacity:0.001" d="M -5e-7,-2.270365e-5 V 31.999978 H 32 V -2.270365e-5 Z"/>
  <path  style="opacity:1;fill:#eff0f1" d="M 5.5,6 C 4.6689999,6 4,6.669 4,7.5 v 5 C 4,13.331 4.6689999,14 5.5,14 h 21 c 0.831,0 1.5,-0.669 1.5,-1.5 v -5 C 28,6.669 27.331,6 26.5,6 Z m 0,1 h 21 C 26.794297,7 27,7.205703 27,7.5 v 5 C 27,12.794297 26.794297,13 26.5,13 H 5.5 C 5.2057026,13 5,12.794297 5,12.5 v -5 C 5,7.205703 5.2057026,7 5.5,7 Z M 8,9 a 1.0001,1.0001 0 1 0 0,2 h 2 a 1.0001,1.0001 0 1 0 0,-2 z m 6,0 a 1.0001,1.0001 0 1 0 0,2 h 2 A 1.0001,1.0001 0 1 0 16,9 Z M 5.5,17 C 4.6689999,17 4,17.669 4,18.5 v 5 C 4,24.331 4.6689999,25 5.5,25 h 21 c 0.831,0 1.5,-0.669 1.5,-1.5 v -5 C 28,17.669 27.331,17 26.5,17 Z m 0,1 h 21 c 0.294297,0 0.5,0.205703 0.5,0.5 v 5 C 27,23.794297 26.794297,24 26.5,24 H 5.5 C 5.2057026,24 5,23.794297 5,23.5 v -5 C 5,18.205703 5.2057026,18 5.5,18 Z M 8,20 a 1,1 0 0 0 -1,1 1,1 0 0 0 1,1 1,1 0 0 0 1,-1 1,1 0 0 0 -1,-1 z m 4,0 a 1,1 0 0 0 -1,1 1,1 0 0 0 1,1 1,1 0 0 0 1,-1 1,1 0 0 0 -1,-1 z m 4,0 a 1,1 0 0 0 -1,1 1,1 0 0 0 1,1 1,1 0 0 0 1,-1 1,1 0 0 0 -1,-1 z"/>
 </g>
</svg>
