<?xml version="1.0" encoding="UTF-8" standalone="no"?>
<!-- Created with Inkscape (http://www.inkscape.org/) -->

<svg
   xmlns:dc="http://purl.org/dc/elements/1.1/"
   xmlns:cc="http://creativecommons.org/ns#"
   xmlns:rdf="http://www.w3.org/1999/02/22-rdf-syntax-ns#"
   xmlns:svg="http://www.w3.org/2000/svg"
   xmlns="http://www.w3.org/2000/svg"
   xmlns:xlink="http://www.w3.org/1999/xlink"
   xmlns:sodipodi="http://sodipodi.sourceforge.net/DTD/sodipodi-0.dtd"
   xmlns:inkscape="http://www.inkscape.org/namespaces/inkscape"
   id="svg2"
   version="1.1"
   inkscape:version="0.92.2 2405546, 2018-03-11"
   width="128"
   height="128"
   viewBox="0 0 128 128"
   sodipodi:docname="usbprog.svg">
  <metadata
     id="metadata8">
    <rdf:RDF>
      <cc:Work
         rdf:about="">
        <dc:format>image/svg+xml</dc:format>
        <dc:type
           rdf:resource="http://purl.org/dc/dcmitype/StillImage" />
        <dc:title></dc:title>
      </cc:Work>
    </rdf:RDF>
  </metadata>
  <defs
     id="defs6">
    <linearGradient
       inkscape:collect="always"
       id="linearGradient4187">
      <stop
         style="stop-color:#e68b09;stop-opacity:1"
         offset="0"
         id="stop4189" />
      <stop
         style="stop-color:#fcb519;stop-opacity:1"
         offset="1"
         id="stop4191" />
    </linearGradient>
    <linearGradient
       inkscape:collect="always"
       id="linearGradient4171">
      <stop
         style="stop-color:#ebedee;stop-opacity:1"
         offset="0"
         id="stop4173" />
      <stop
         style="stop-color:#d7dadc;stop-opacity:1"
         offset="1"
         id="stop4175" />
    </linearGradient>
    <linearGradient
       inkscape:collect="always"
       id="linearGradient4178">
      <stop
         style="stop-color:#9af590;stop-opacity:1"
         offset="0"
         id="stop4180" />
      <stop
         style="stop-color:#74ce6d;stop-opacity:1"
         offset="1"
         id="stop4182" />
    </linearGradient>
    <linearGradient
       inkscape:collect="always"
       id="linearGradient4152">
      <stop
         style="stop-color:#a5abae;stop-opacity:1"
         offset="0"
         id="stop4154" />
      <stop
         id="stop4166"
         offset="0.03589743"
         style="stop-color:#c5ccd0;stop-opacity:1" />
      <stop
         id="stop4160"
         offset="0.07179487"
         style="stop-color:#d7dee2;stop-opacity:1" />
      <stop
         style="stop-color:#dde2e5;stop-opacity:1"
         offset="0.11461538"
         id="stop4162" />
      <stop
         id="stop4164"
         offset="0.24576923"
         style="stop-color:#bbbdbd;stop-opacity:1" />
      <stop
         style="stop-color:#bbbcbc;stop-opacity:1"
         offset="0.30291665"
         id="stop4174" />
      <stop
         style="stop-color:#c6cacb;stop-opacity:1"
         offset="0.5113461"
         id="stop4168" />
      <stop
         id="stop4170"
         offset="0.75567305"
         style="stop-color:#d5dbdd;stop-opacity:1" />
      <stop
         style="stop-color:#cbd3d6;stop-opacity:1;"
         offset="0.93333334"
         id="stop4172" />
      <stop
         style="stop-color:#a6aaac;stop-opacity:1"
         offset="1"
         id="stop4156" />
    </linearGradient>
    <linearGradient
       inkscape:collect="always"
       id="linearGradient4141">
      <stop
         style="stop-color:#8e9190;stop-opacity:1"
         offset="0"
         id="stop4143" />
      <stop
         style="stop-color:#dee4e6;stop-opacity:1"
         offset="1"
         id="stop4145" />
    </linearGradient>
    <linearGradient
       inkscape:collect="always"
       xlink:href="#linearGradient4141"
       id="linearGradient4147"
       x1="235.95546"
       y1="125.25424"
       x2="235.95546"
       y2="7.2881422"
       gradientUnits="userSpaceOnUse"
       gradientTransform="matrix(0.81978949,0,0,0.81978949,-127.56266,2.210347)" />
    <linearGradient
       inkscape:collect="always"
       xlink:href="#linearGradient4152"
       id="linearGradient4158"
       x1="145.76271"
       y1="183.4442"
       x2="13.559327"
       y2="183.4442"
       gradientUnits="userSpaceOnUse"
       gradientTransform="matrix(0.81978949,0,0,0.81978949,-7.9269202,-40.233924)" />
    <radialGradient
       inkscape:collect="always"
       xlink:href="#linearGradient4178"
       id="radialGradient4184"
       cx="128.23802"
       cy="137.28868"
       fx="128.23802"
       fy="137.28868"
       r="2.3969722"
       gradientUnits="userSpaceOnUse"
       gradientTransform="matrix(0.81978949,0,0,0.81978949,-11.866607,2.210347)" />
    <linearGradient
       gradientTransform="matrix(2.213863,0,0,2.213863,289.84755,-2436.2025)"
       id="e"
       gradientUnits="userSpaceOnUse"
       x1="-20.764721"
       x2="-22.211618"
       y1="1116.8074"
       y2="1146.8351">
      <stop
         offset="0"
         stop-color="#1296d5"
         id="stop25"
         style="stop-color:#038e86;stop-opacity:1" />
      <stop
         offset="1"
         stop-color="#4fb6e8"
         id="stop27"
         style="stop-color:#04aba1;stop-opacity:1" />
    </linearGradient>
    <linearGradient
       inkscape:collect="always"
       xlink:href="#linearGradient4171"
       id="linearGradient4177"
       x1="98.755257"
       y1="3.1177506"
       x2="103.0698"
       y2="57.289322"
       gradientUnits="userSpaceOnUse"
       gradientTransform="matrix(1.097561,0,0,1.097561,-12.44087,-0.04693473)" />
    <filter
       y="-0.082800001"
       x="-0.082800001"
       width="1.1655999"
       height="1.1655999"
       id="c"
       style="color-interpolation-filters:sRGB">
      <feGaussianBlur
         id="feGaussianBlur10"
         stdDeviation="2.1101835" />
    </filter>
    <filter
       y="-0.015513"
       x="-0.015688"
       width="1.031376"
       height="1.031026"
       id="a"
       style="color-interpolation-filters:sRGB">
      <feGaussianBlur
         id="feGaussianBlur2"
         stdDeviation=".7986332" />
    </filter>
    <clipPath
       clipPathUnits="userSpaceOnUse"
       id="clipPath16">
      <path
         d="m 0,200.303 320,0 L 320,0 0,0 0,200.303 Z"
         id="path18"
         inkscape:connector-curvature="0" />
    </clipPath>
    <linearGradient
       inkscape:collect="always"
       xlink:href="#linearGradient4187"
       id="linearGradient4193"
       x1="98.7575"
       y1="57.289322"
       x2="99.9515"
       y2="10.788062"
       gradientUnits="userSpaceOnUse" />
  </defs>
  <sodipodi:namedview
     pagecolor="#ffffff"
     bordercolor="#666666"
     borderopacity="1"
     objecttolerance="10"
     gridtolerance="10"
     guidetolerance="10"
     inkscape:pageopacity="0"
     inkscape:pageshadow="2"
     inkscape:window-width="1920"
     inkscape:window-height="1031"
     id="namedview4"
     showgrid="false"
     inkscape:zoom="2.085965"
     inkscape:cx="73.93977"
     inkscape:cy="31.053253"
     inkscape:window-x="0"
     inkscape:window-y="26"
     inkscape:window-maximized="1"
     inkscape:current-layer="svg2" />
  <g
     id="g4201"
     transform="matrix(0.81978949,0,0,0.81978949,-263.24534,2.6370639)"
     style="opacity:0.7">
    <path
       inkscape:connector-curvature="0"
       id="path4190"
       d="m 339.38795,6.1015625 c -3.15889,0 -5.42867,2.5540551 -5.70118,5.7011715 l -9.46093,109.244146 -0.19922,0 0,22.32421 c 0,3.15889 2.54423,5.70118 5.70312,5.70118 l 121.47656,0 c 3.1589,0 5.70313,-2.54229 5.70313,-5.70118 l 0,-22.32421 -0.20898,0 L 445.8899,11.802734 c -0.31109,-3.1435376 -2.54424,-5.7011715 -5.70313,-5.7011715 l -100.79882,0 z"
       style="opacity:1;fill:none;fill-opacity:0.04942968;stroke:#000000;stroke-width:2;stroke-linecap:round;stroke-linejoin:round;stroke-miterlimit:4;stroke-dasharray:none;stroke-dashoffset:0;stroke-opacity:0.04562737;paint-order:fill markers stroke" />
    <path
       style="opacity:1;fill:none;fill-opacity:0.04942968;stroke:#000000;stroke-width:4;stroke-linecap:round;stroke-linejoin:round;stroke-miterlimit:4;stroke-dasharray:none;stroke-dashoffset:0;stroke-opacity:0.04562737;paint-order:fill markers stroke"
       d="m 339.38795,6.1015625 c -3.15889,0 -5.42867,2.5540551 -5.70118,5.7011715 l -9.46093,109.244146 -0.19922,0 0,22.32421 c 0,3.15889 2.54423,5.70118 5.70312,5.70118 l 121.47656,0 c 3.1589,0 5.70313,-2.54229 5.70313,-5.70118 l 0,-22.32421 -0.20898,0 L 445.8899,11.802734 c -0.31109,-3.1435376 -2.54424,-5.7011715 -5.70313,-5.7011715 l -100.79882,0 z"
       id="path4197"
       inkscape:connector-curvature="0" />
    <path
       inkscape:connector-curvature="0"
       id="path4199"
       d="m 339.38795,6.1015625 c -3.15889,0 -5.42867,2.5540551 -5.70118,5.7011715 l -9.46093,109.244146 -0.19922,0 0,22.32421 c 0,3.15889 2.54423,5.70118 5.70312,5.70118 l 121.47656,0 c 3.1589,0 5.70313,-2.54229 5.70313,-5.70118 l 0,-22.32421 -0.20898,0 L 445.8899,11.802734 c -0.31109,-3.1435376 -2.54424,-5.7011715 -5.70313,-5.7011715 l -100.79882,0 z"
       style="opacity:1;fill:none;fill-opacity:0.04942968;stroke:#000000;stroke-width:6;stroke-linecap:round;stroke-linejoin:round;stroke-miterlimit:4;stroke-dasharray:none;stroke-dashoffset:0;stroke-opacity:0.04562737;paint-order:fill markers stroke" />
  </g>
  <path
     style="opacity:1;fill:url(#linearGradient4158);fill-opacity:1;stroke:none;stroke-width:2;stroke-linecap:round;stroke-linejoin:round;stroke-miterlimit:4;stroke-dasharray:none;stroke-dashoffset:0;stroke-opacity:1;paint-order:fill markers stroke"
     d="m 111.84571,101.44259 0,18.3017 c 0,2.58962 -2.08479,4.67441 -4.67441,4.67441 l -99.5859094,0 c -2.589625,0 -4.674415,-2.08479 -4.674415,-4.67441 l 0,-18.3017 z"
     id="rect4149"
     inkscape:connector-curvature="0"
     sodipodi:nodetypes="csssscc" />
  <path
     style="opacity:1;fill:url(#linearGradient4147);fill-opacity:1;stroke:none;stroke-width:2;stroke-linecap:round;stroke-linejoin:round;stroke-miterlimit:4;stroke-dasharray:none;stroke-dashoffset:0;stroke-opacity:1;paint-order:fill markers stroke"
     d="m 15.503344,7.2124525 82.63432,0 c 2.589626,0 4.419386,2.0973789 4.674416,4.6744185 l 8.89263,89.859589 c 0.25503,2.57704 -2.08479,4.67442 -4.67441,4.67442 l -99.3080044,0 c -2.589633,0 -4.897824,-2.09444 -4.674423,-4.67442 L 10.828929,11.886871 c 0.223401,-2.5799736 2.08479,-4.6744185 4.674415,-4.6744185 z"
     id="rect4138"
     inkscape:connector-curvature="0"
     sodipodi:nodetypes="sssssssss" />
  <path
     id="path882-8"
     d="m 57.228444,16.882959 -5.422739,11.950124 h 4.275073 V 74.26652 c -1.452208,-2.24585 -3.51406,-4.116742 -5.465774,-5.781396 -1.630856,-1.390976 -3.213174,-2.653233 -4.332462,-3.816008 -1.119289,-1.162777 -1.701327,-2.183386 -1.707156,-3.04133 -0.01535,-2.285492 0.03772,-3.732629 0.07177,-5.781392 3.145587,-0.267372 5.623586,-2.896572 5.623586,-6.111351 0,-3.392359 -2.747681,-6.14004 -6.14004,-6.14004 -3.39236,0 -6.154394,2.747681 -6.154394,6.14004 0,2.936788 2.0657,5.390049 4.820232,5.996585 -0.03366,2.088253 -0.102152,3.544612 -0.086,5.910506 0.01145,1.63213 0.984561,3.016018 2.237961,4.318114 1.253397,1.302091 2.860802,2.579794 4.461568,3.945114 3.153459,2.689638 6.185214,5.687988 6.670828,9.468288 v 5.9392 c -3.222715,0.49639 -5.695306,3.26612 -5.695306,6.6278 0,3.7125 3.015711,6.7139 6.728214,6.7139 3.712506,0 6.713883,-3.0014 6.713883,-6.7139 0,-3.42967 -2.563456,-6.24523 -5.881822,-6.65649 v -5.9392 h 0.01353 c -0.0039,-0.0343 -0.0096,-0.0662 -0.01353,-0.10041 v -8.923143 h 0.02867 c 0,-3.881029 2.043134,-6.176429 4.86325,-8.449728 2.820133,-2.273305 6.38785,-4.363457 8.837086,-7.6894 l 0.01353,-0.01431 0.01353,-0.01431 c 0.279034,-0.420369 0.296483,-0.734956 0.358643,-1.147672 0.06215,-0.412712 0.100227,-0.890072 0.129075,-1.434589 0.0579,-1.089023 0.05637,-2.407522 0.0431,-3.715583 -0.01353,-1.308063 -0.03983,-2.599938 -0.07177,-3.60082 -0.01535,-0.46138 -0.01925,-0.525748 -0.02867,-0.846405 h 4.648067 V 33.237457 H 66.623478 v 10.171238 h 3.643863 c 0.0096,0.309143 0.01353,0.429546 0.02867,0.903789 0.03174,0.993611 0.07291,2.270865 0.086,3.55778 0.01353,1.286914 -0.0039,2.583311 -0.05733,3.60082 -0.02692,0.508751 -0.06732,0.948169 -0.114664,1.262439 -0.03423,0.227247 -0.102724,0.399616 -0.100435,0.41603 -2.152868,2.881102 -5.490804,4.899719 -8.435388,7.273367 -1.403902,1.131692 -2.727695,2.383315 -3.729937,3.87339 V 28.833013 h 4.447238 L 57.226966,16.882886 Z"
     inkscape:connector-curvature="0"
     style="fill:#3f3f3f;fill-opacity:0.71985797;stroke-width:2.60127306" />
  <circle
     style="opacity:1;fill:url(#radialGradient4184);fill-opacity:1;stroke:#76a578;stroke-width:0.40989473;stroke-linecap:round;stroke-linejoin:round;stroke-miterlimit:4;stroke-dasharray:none;stroke-dashoffset:0;stroke-opacity:1;paint-order:fill markers stroke"
     id="path4176"
     cx="93.261574"
     cy="114.75816"
     r="1.9650126" />
  <circle
     style="opacity:1;fill:#ffffff;fill-opacity:0.29657796;stroke:none;stroke-width:0.5;stroke-linecap:round;stroke-linejoin:round;stroke-miterlimit:4;stroke-dasharray:none;stroke-dashoffset:0;stroke-opacity:1;paint-order:fill markers stroke"
     id="path4188"
     cx="93.261574"
     cy="114.75816"
     r="0.49125314" />
  <path
     style="opacity:1;fill:#e0e3e4;fill-opacity:1;stroke:none;stroke-width:2;stroke-linecap:round;stroke-linejoin:round;stroke-miterlimit:4;stroke-dasharray:none;stroke-dashoffset:0;stroke-opacity:1;paint-order:fill markers stroke"
     d="m 3.1265146,100.83647 -0.07845,0.90945 c -0.223401,2.57998 2.084126,4.67536 4.673759,4.67536 l 99.3082064,0 c 2.58963,0 4.93039,-2.09831 4.67537,-4.67536 l -0.0833,-0.84221 c -0.45186,1.9793 -2.43233,3.43928 -4.5921,3.43928 l -99.3082064,0 c -2.184452,0 -4.161964,-1.4916 -4.595305,-3.50652 z"
     id="path4217"
     inkscape:connector-curvature="0" />
  <g
     id="g4195">
    <circle
       r="33.376072"
       style="opacity:1;fill:#000000;fill-opacity:0.01520913;stroke:none;stroke-width:6;stroke-linecap:round;stroke-linejoin:round;stroke-miterlimit:4;stroke-dasharray:none;stroke-dashoffset:0;stroke-opacity:0.04562737;paint-order:fill markers stroke"
       id="circle4183"
       cx="94.92363"
       cy="33.547253" />
    <path
       style="opacity:1;fill:#000000;fill-opacity:0.01520912;stroke:none;stroke-width:6;stroke-linecap:round;stroke-linejoin:round;stroke-miterlimit:4;stroke-dasharray:none;stroke-dashoffset:0;stroke-opacity:0.04562737;paint-order:fill markers stroke"
       d="M 74.25 7.2128906 A 33.376072 33.376072 0 0 0 60.767578 33.966797 A 33.376072 33.376072 0 0 0 94.144531 67.34375 A 33.376072 33.376072 0 0 0 107.99805 64.287109 L 102.8125 11.886719 C 102.55747 9.3096792 100.72634 7.2128906 98.136719 7.2128906 L 74.25 7.2128906 z "
       id="circle4187" />
    <path
       style="opacity:1;fill:#000000;fill-opacity:0.01520912;stroke:none;stroke-width:6;stroke-linecap:round;stroke-linejoin:round;stroke-miterlimit:4;stroke-dasharray:none;stroke-dashoffset:0;stroke-opacity:0.04562737;paint-order:fill markers stroke"
       d="M 74.679688 7.2128906 A 33.376072 33.376072 0 0 0 59.689453 35.044922 A 33.376072 33.376072 0 0 0 93.066406 68.421875 A 33.376072 33.376072 0 0 0 108.05469 64.857422 L 102.8125 11.886719 C 102.55747 9.3096792 100.72634 7.2128906 98.136719 7.2128906 L 74.679688 7.2128906 z "
       id="circle4191" />
    <path
       style="opacity:1;fill:#000000;fill-opacity:0.01520912;stroke:none;stroke-width:6;stroke-linecap:round;stroke-linejoin:round;stroke-miterlimit:4;stroke-dasharray:none;stroke-dashoffset:0;stroke-opacity:0.04562737;paint-order:fill markers stroke"
       d="M 75.082031 7.2128906 A 33.376072 33.376072 0 0 0 59.03125 35.705078 A 33.376072 33.376072 0 0 0 92.40625 69.080078 A 33.376072 33.376072 0 0 0 108.08203 65.142578 L 102.8125 11.886719 C 102.55747 9.3096792 100.72634 7.2128906 98.136719 7.2128906 L 75.082031 7.2128906 z "
       id="circle4193" />
  </g>
  <path
     style="opacity:1;fill:#000000;fill-opacity:0.01520912;stroke:none;stroke-width:6;stroke-linecap:round;stroke-linejoin:round;stroke-miterlimit:4;stroke-dasharray:none;stroke-dashoffset:0;stroke-opacity:0.04562737;paint-order:fill markers stroke"
     d="M 74.404297 7.2128906 A 33.376072 33.376072 0 0 0 60.169922 34.505859 A 33.376072 33.376072 0 0 0 93.544922 67.882812 A 33.376072 33.376072 0 0 0 108.02344 64.546875 L 102.8125 11.886719 C 102.55747 9.3096792 100.72634 7.2128906 98.136719 7.2128906 L 74.404297 7.2128906 z "
     id="circle4189" />
  <circle
     style="opacity:1;fill:url(#linearGradient4177);fill-opacity:1;stroke:none;stroke-width:6;stroke-linecap:round;stroke-linejoin:round;stroke-miterlimit:4;stroke-dasharray:none;stroke-dashoffset:0;stroke-opacity:0.04562737;paint-order:fill markers stroke"
     id="path4169"
     cx="95.159798"
     cy="32.840206"
     r="32.359123" />
  <circle
     style="opacity:1;fill:url(#linearGradient4193);fill-opacity:1;stroke:none;stroke-width:6;stroke-linecap:round;stroke-linejoin:round;stroke-miterlimit:4;stroke-dasharray:none;stroke-dashoffset:0;stroke-opacity:0.04562737;paint-order:fill markers stroke"
     id="path4297"
     cx="95.159798"
     cy="32.840206"
     r="27.20339" />
  <path
     style="opacity:1;fill:#000000;fill-opacity:0.06844106;stroke:none;stroke-width:6;stroke-linecap:round;stroke-linejoin:round;stroke-miterlimit:4;stroke-dasharray:none;stroke-dashoffset:0;stroke-opacity:0.04562737;paint-order:fill markers stroke"
     d="M 95.160156 5.6367188 A 27.20339 27.20339 0 0 0 67.957031 32.839844 A 27.20339 27.20339 0 0 0 95.160156 60.042969 A 27.20339 27.20339 0 0 0 122.36328 32.839844 A 27.20339 27.20339 0 0 0 95.160156 5.6367188 z M 95.160156 7.796875 A 25.042374 25.042374 0 0 1 120.20312 32.839844 A 25.042374 25.042374 0 0 1 95.160156 57.882812 A 25.042374 25.042374 0 0 1 70.117188 32.839844 A 25.042374 25.042374 0 0 1 95.160156 7.796875 z "
     id="circle4307" />
  <path
     style="opacity:1;fill:#000000;fill-opacity:0.06844106;stroke:none;stroke-width:6;stroke-linecap:round;stroke-linejoin:round;stroke-miterlimit:4;stroke-dasharray:none;stroke-dashoffset:0;stroke-opacity:0.04562737;paint-order:fill markers stroke"
     d="M 95.160156 5.6367188 A 27.20339 27.20339 0 0 0 67.957031 32.839844 A 27.20339 27.20339 0 0 0 95.160156 60.042969 A 27.20339 27.20339 0 0 0 122.36328 32.839844 A 27.20339 27.20339 0 0 0 95.160156 5.6367188 z M 95.160156 6.9921875 A 25.847458 25.847458 0 0 1 121.00781 32.839844 A 25.847458 25.847458 0 0 1 95.160156 58.6875 A 25.847458 25.847458 0 0 1 69.3125 32.839844 A 25.847458 25.847458 0 0 1 95.160156 6.9921875 z "
     id="circle4311" />
  <path
     style="opacity:1;fill:#ffffff;fill-opacity:0.81749052;stroke:none;stroke-width:6;stroke-linecap:round;stroke-linejoin:round;stroke-miterlimit:4;stroke-dasharray:none;stroke-dashoffset:0;stroke-opacity:0.04562737;paint-order:fill markers stroke"
     d="m 89.336554,17.720089 c -0.811434,0 -1.464844,0.65341 -1.464844,1.464844 l 0,10.617187 -7.011719,0 14.638672,18.158204 13.960937,-18.158204 -7.01172,0 0,-10.617187 c 0,-0.811434 -0.65341,-1.464844 -1.46485,-1.464844 l -11.646476,0 z"
     id="rect4315"
     inkscape:connector-curvature="0" />
</svg>
