<?xml version="1.0" encoding="UTF-8" standalone="no"?>
<!-- Created with Inkscape (http://www.inkscape.org/) -->

<svg
   width="210mm"
   height="235mm"
   viewBox="0 0 210 235"
   version="1.1"
   id="svg5"
   inkscape:version="1.1 (c68e22c387, 2021-05-23)"
   sodipodi:docname="airyx.svg"
   xmlns:inkscape="http://www.inkscape.org/namespaces/inkscape"
   xmlns:sodipodi="http://sodipodi.sourceforge.net/DTD/sodipodi-0.dtd"
   xmlns="http://www.w3.org/2000/svg"
   xmlns:svg="http://www.w3.org/2000/svg">
  <sodipodi:namedview
     id="namedview7"
     pagecolor="#505050"
     bordercolor="#eeeeee"
     borderopacity="1"
     inkscape:pageshadow="0"
     inkscape:pageopacity="0"
     inkscape:pagecheckerboard="0"
     inkscape:document-units="mm"
     showgrid="false"
     inkscape:zoom="0.52410025"
     inkscape:cx="901.54508"
     inkscape:cy="615.3403"
     inkscape:window-width="1920"
     inkscape:window-height="1017"
     inkscape:window-x="1352"
     inkscape:window-y="-8"
     inkscape:window-maximized="1"
     inkscape:current-layer="layer1"
     height="235mm" />
  <defs
     id="defs2" />
  <g
     inkscape:label="Layer 1"
     inkscape:groupmode="layer"
     id="layer1">
    <path
       id="path489"
       style="fill:#000000;stroke-width:0.938098"
       d="m 162.39152,0 c -9.84186,9.2697899 -7.05145,23.377815 -0.0864,34.698379 C 171.17268,26.081394 168.78805,11.056228 162.39152,0 Z M 80.998289,63.091261 C 36.467226,115.46126 91.08788,127.88072 0,235 c 43.211733,-9.89826 74.779624,1.44302 118.64303,-10.72441 44.24208,-14.05646 80.28308,-36.55016 89.03049,-91.33739 4.53583,-28.40893 4.38002,-50.199175 -18.60106,-74.849173 C 166.09138,33.439031 112.22999,28.530735 80.998289,63.091261 Z M 162.34328,56.241124 C 158.40908,160.54258 108.12051,185.05039 39.496823,215.38028 118.69016,171.89782 143.87176,128.20532 162.34328,56.241124 Z"
       sodipodi:nodetypes="ccccccsscccc" />
  </g>
</svg>
