<?xml version="1.0" encoding="UTF-8"?>
<svg width="128px" height="128px" viewBox="0 0 128 128" version="1.1" xmlns="http://www.w3.org/2000/svg" xmlns:xlink="http://www.w3.org/1999/xlink">
    <title>Emblem Monotone White@1x</title>
    <defs>
        <filter id="filter-1">
            <feColorMatrix in="SourceGraphic" type="matrix" values="0 0 0 0 1.000000 0 0 0 0 1.000000 0 0 0 0 1.000000 0 0 0 1.000000 0"></feColorMatrix>
        </filter>
    </defs>
    <g id="Emblem-Monotone-White" stroke="none" stroke-width="1" fill="none" fill-rule="evenodd">
        <g id="Mono-Toned-Palm" filter="url(#filter-1)">
            <g transform="translate(0.000000, -0.000000)">
                <path d="M64.0672815,0 C99.450664,0 128.134563,28.683899 128.134563,64.0672815 C128.134563,98.0441238 101.685791,125.843524 68.2537621,127.999967 L70.0356224,62.7816098 C73.4506825,62.9285327 76.735241,64.2058363 79.8892978,66.6135207 C83.0433545,69.021205 85.9663691,72.4825214 88.6583416,76.9974699 C92.0418244,75.564793 93.7335658,72.868659 93.7335658,68.9090679 C93.7335658,64.9494768 92.0418244,61.1981355 88.6583416,57.655044 C91.9151996,55.7373508 95.1775073,54.7785042 98.4452647,54.7785042 C101.713022,54.7785042 104.98078,55.7373508 108.248537,57.655044 C108.248537,53.1005226 106.185675,49.1331915 102.059951,45.7530505 C97.9342271,42.3729096 92.3804526,41.3899127 85.3986275,42.8040598 L85.3986275,42.8040598 L91.8791075,37.5265484 C89.0379531,33.0772979 85.0413499,30.8526726 79.8892978,30.8526726 C74.7372456,30.8526726 69.4632402,34.0897002 64.0672815,40.5637554 C58.6713228,34.0897002 53.3973174,30.8526726 48.2452652,30.8526726 C43.0932131,30.8526726 39.0966099,33.0772979 36.2554555,37.5265484 L36.2554555,37.5265484 L42.7359354,42.8040598 C35.7541104,41.3899127 30.2003358,42.3729096 26.0746118,45.7530505 C21.9488878,49.1331915 19.8860258,53.1005226 19.8860258,57.655044 C23.1537833,55.7373508 26.4215408,54.7785042 29.6892983,54.7785042 C32.9570557,54.7785042 36.2193634,55.7373508 39.4762214,57.655044 C36.0927386,61.1981355 34.4009972,64.9494768 34.4009972,68.9090679 C34.4009972,72.868659 36.0927386,75.564793 39.4762214,76.9974699 C42.1681939,72.4825214 45.0912085,69.021205 48.2452652,66.6135207 C51.399322,64.2058363 54.6838805,62.9285327 58.0989406,62.7816098 L58.0989406,62.7816098 L59.8807761,127.999965 C26.4487593,125.843511 0,98.0441154 0,64.0672815 C0,28.683899 28.683899,0 64.0672815,0 Z" id="Sky" fill="#9C9C9C"></path>
            </g>
        </g>
    </g>
</svg>