<?xml version="1.0" encoding="UTF-8"?>
<svg width="128px" height="128px" viewBox="0 0 128 128" version="1.1" xmlns="http://www.w3.org/2000/svg" xmlns:xlink="http://www.w3.org/1999/xlink">
    <title>Emblem@1x</title>
    <g id="Emblem" stroke="none" stroke-width="1" fill="none" fill-rule="evenodd">
        <g id="Duo-Toned-Simplified-Copy-3">
            <path d="M64,0 C99.346224,0 128,28.653776 128,64 C128,73.2577522 126.034347,82.0564015 122.49763,90.0013577 L5.50236973,90.0013577 C1.96565327,82.0564015 -3.12638804e-13,73.2577522 -3.12638804e-13,64 C-3.12638804e-13,28.653776 28.653776,0 64,0 Z" id="Path" fill="#80CCFF"></path>
            <path d="M122.497991,90.0005466 C112.531657,112.389976 90.0887868,128 64,128 C37.9112132,128 15.4683429,112.389976 5.50200869,90.0005466 L122.497991,90.0005466 Z" id="Land" fill="#40A3FF"></path>
            <path d="M73.6912281,30.8202721 C78.8378697,30.8202721 82.8302758,33.0425611 85.6684464,37.4871391 L79.1947721,42.7591083 C86.1692651,41.3464463 91.7172072,42.3284109 95.8385985,45.7050021 C99.9599898,49.0815933 102.020685,53.0447581 102.020685,57.5944965 C98.7563597,55.6788171 95.4920339,54.7209774 92.2277081,54.7209774 C88.9633823,54.7209774 85.7045006,55.6788171 82.4510629,57.5944965 C85.8309925,61.1338671 87.5209573,64.8812688 87.5209573,68.8367017 C87.5209573,72.7921346 85.8309925,75.4854372 82.4510629,76.9166095 C79.7619175,72.4064025 76.8419725,68.9487211 73.6912281,66.5435652 C70.5404836,64.1384093 67.2593745,62.8624471 63.8479007,62.7156785 L62.0651719,127.971312 C59.2215238,127.886878 56.4244578,127.616948 53.685658,127.173206 L51.9237545,62.7156785 C48.5122807,62.8624471 45.2311716,64.1384093 42.0804271,66.5435652 C38.9296827,68.9487211 36.0097377,72.4064025 33.3205922,76.9166095 C29.9406627,75.4854372 28.2506979,72.7921346 28.2506979,68.8367017 C28.2506979,64.8812688 29.9406627,61.1338671 33.3205922,57.5944965 C30.0671546,55.6788171 26.8082728,54.7209774 23.5439471,54.7209774 C20.2796213,54.7209774 17.0152955,55.6788171 13.7509697,57.5944965 C13.7509697,53.0447581 15.8116654,49.0815933 19.9330567,45.7050021 C24.054448,42.3284109 29.6023901,41.3464463 36.5768831,42.7591083 L30.1032088,37.4871391 C32.9413794,33.0425611 36.9337855,30.8202721 42.0804271,30.8202721 C47.2270687,30.8202721 52.4955356,34.0539003 57.8858276,40.5211566 C63.2761196,34.0539003 68.5445864,30.8202721 73.6912281,30.8202721 Z" id="Palm" fill="#FFFFFF"></path>
        </g>
    </g>
</svg>