<svg height="128" viewBox="0 0 128 128" width="128" xmlns="http://www.w3.org/2000/svg" xmlns:xlink="http://www.w3.org/1999/xlink"><filter id="a"><feColorMatrix in="SourceGraphic" type="matrix" values="0 0 0 0 0.000000 0 0 0 0 0.000000 0 0 0 0 0.000000 0 0 0 1.000000 0"/></filter><g fill="none" fill-rule="evenodd" filter="url(#a)"><path d="m64 0c35.346224 0 64 28.683899 64 64.0672815 0 33.5719035-25.794974 61.1127345-58.6268396 63.8446895l1.6515752-60.5306779c4.019525.17311 7.8854494 1.6780765 11.5977734 4.5148995s7.1527114 6.9150744 10.3211623 12.2347542c3.9823584-1.6880331 5.9735376-4.8647182 5.9735376-9.5300553s-1.9911792-9.0853065-5.9735376-13.2599083c3.833321-2.2594973 7.6730567-3.389246 11.5192057-3.389246 3.84615 0 7.6923 1.1297487 11.538449 3.389246 0-5.366306-2.427988-10.0407628-7.283964-14.0233702-4.855976-3.9826073-11.392767-5.1408107-19.6103733-3.4746102l7.6275232-6.2181597c-3.3440379-5.2422719-8.0480389-7.8634079-14.1120029-7.8634079s-12.271467 3.8139859-18.622509 11.4419578c-6.351042-7.6279719-12.558545-11.4419578-18.622509-11.4419578s-10.767965 2.621136-14.1120029 7.8634079l7.6275232 6.2181597c-8.2176063-1.6662005-14.7543975-.5079971-19.6103736 3.4746102-4.855976 3.9826074-7.2839641 8.6570642-7.2839641 14.0233702 3.8461497-2.2594973 7.6922994-3.389246 11.5384491-3.389246s7.685885 1.1297487 11.519206 3.389246c-3.9823584 4.1746018-5.9735376 8.5945712-5.9735376 13.2599083s1.9911792 7.8420222 5.9735376 9.5300553c3.1684509-5.3196798 6.6088383-9.3979312 10.3211623-12.2347542s7.5782484-4.3417895 11.5977734-4.5148995l1.6515752 60.5306779c-32.8318654-2.731955-58.6268396-30.272786-58.6268396-63.8446895 0-35.3833825 28.653776-64.0672815 64-64.0672815z" fill="#9c9c9c"/></g></svg>