<svg height="128" viewBox="0 0 128 128" width="128" xmlns="http://www.w3.org/2000/svg"><path d="m62.9163581 128.125565-.4553329-.009162c-.2071388-.004893-.4140341-.010772-.6206814-.017631-.5274048-.017508-1.0529141-.041388-1.5767347-.071574-.1844343-.010627-.3692594-.022075-.5538705-.034307-.0460578-.003052-.0914366-.006108-.1368026-.009211-.3113389-.021291-.6225252-.044849-.9330822-.070627-.0038272-.000318-.0084807-.000705-.013134-.001092l-.912018-.082435c-32.3962253-3.161149-57.7147018-30.5018649-57.7147018-63.7622445 0-35.3833825 28.653776-64.0672815 64-64.0672815s64 28.683899 64 64.0672815c0 33.5719035-25.794974 61.1127345-58.6268396 63.8446895l-.0008822.000073-.0712057.005885c-.259657.021312-.519753.041073-.7802787.059272l.8514844-.065157c-.3598805.029941-.7206064.056901-1.082153.080856-.1844749.012223-.3693.023671-.5543358.034332-.5238212.030181-1.0492325.054052-1.5762573.071544-.2065232.006855-.4134185.012734-.6205573.017627-.1516895.003584-.3035487.006639-.4555368.009165l-1.083438.008995zm1.0836419-120.11715481c-30.927946 0-56 25.09841161-56 56.05887131 0 29.0706031 22.1046273 52.9729665 50.4062118 55.7826965l-1.4309474-52.4686849c-4.019525.17311-7.8854494 1.6780765-11.5977734 4.5148995s-7.1527114 6.9150744-10.3211623 12.2347542c-3.9823584-1.6880331-5.9735376-4.8647182-5.9735376-9.5300553s1.9911792-9.0853065 5.9735376-13.2599083c-3.833321-2.2594973-7.6730563-3.389246-11.519206-3.389246s-7.6922994 1.1297487-11.5384491 3.389246c0-5.366306 2.4279881-10.0407628 7.2839641-14.0233702 4.8559761-3.9826073 11.3927673-5.1408107 19.6103736-3.4746102l-7.6275232-6.2181597c3.3440379-5.2422719 8.0480389-7.8634079 14.1120029-7.8634079s12.271467 3.8139859 18.622509 11.4419578c6.351042-7.6279719 12.558545-11.4419578 18.622509-11.4419578s10.767965 2.621136 14.1120029 7.8634079l-7.6275232 6.2181597c8.2176063-1.6662005 14.7543973-.5079971 19.6103733 3.4746102 4.855976 3.9826074 7.283964 8.6570642 7.283964 14.0233702-3.846149-2.2594973-7.692299-3.389246-11.538449-3.389246-3.846149 0-7.6858847 1.1297487-11.5192057 3.389246 3.9823584 4.1746018 5.9735376 8.5945712 5.9735376 13.2599083s-1.9911792 7.8420222-5.9735376 9.5300553c-3.1684509-5.3196798-6.6088383-9.3979312-10.3211623-12.2347542s-7.5782484-4.3417895-11.5977734-4.5148995l-1.4319488 52.4687839c28.3020645-2.809265 50.4072132-26.7118496 50.4072132-55.7827955 0-30.9604597-25.072054-56.05887131-56-56.05887131z"/></svg>