<?xml version="1.0" encoding="UTF-8"?>
<svg width="443px" height="128px" viewBox="0 0 443 128" version="1.1" xmlns="http://www.w3.org/2000/svg" xmlns:xlink="http://www.w3.org/1999/xlink">
    <title>Horizontal@1x</title>
    <g id="Horizontal" stroke="none" stroke-width="1" fill="none" fill-rule="evenodd">
        <g id="Duo-Toned-Simplified-Copy-3">
            <path d="M64,0 C99.346224,0 128,28.653776 128,64 C128,73.2577522 126.034347,82.0564015 122.49763,90.0013577 L5.50236973,90.0013577 C1.96565327,82.0564015 -3.12638804e-13,73.2577522 -3.12638804e-13,64 C-3.12638804e-13,28.653776 28.653776,0 64,0 Z" id="Path" fill="#80CCFF"></path>
            <path d="M122.497991,90.0005466 C112.531657,112.389976 90.0887868,128 64,128 C37.9112132,128 15.4683429,112.389976 5.50200869,90.0005466 L122.497991,90.0005466 Z" id="Land" fill="#40A3FF"></path>
            <path d="M73.6912281,30.8202721 C78.8378697,30.8202721 82.8302758,33.0425611 85.6684464,37.4871391 L79.1947721,42.7591083 C86.1692651,41.3464463 91.7172072,42.3284109 95.8385985,45.7050021 C99.9599898,49.0815933 102.020685,53.0447581 102.020685,57.5944965 C98.7563597,55.6788171 95.4920339,54.7209774 92.2277081,54.7209774 C88.9633823,54.7209774 85.7045006,55.6788171 82.4510629,57.5944965 C85.8309925,61.1338671 87.5209573,64.8812688 87.5209573,68.8367017 C87.5209573,72.7921346 85.8309925,75.4854372 82.4510629,76.9166095 C79.7619175,72.4064025 76.8419725,68.9487211 73.6912281,66.5435652 C70.5404836,64.1384093 67.2593745,62.8624471 63.8479007,62.7156785 L62.0651719,127.971312 C59.2215238,127.886878 56.4244578,127.616948 53.685658,127.173206 L51.9237545,62.7156785 C48.5122807,62.8624471 45.2311716,64.1384093 42.0804271,66.5435652 C38.9296827,68.9487211 36.0097377,72.4064025 33.3205922,76.9166095 C29.9406627,75.4854372 28.2506979,72.7921346 28.2506979,68.8367017 C28.2506979,64.8812688 29.9406627,61.1338671 33.3205922,57.5944965 C30.0671546,55.6788171 26.8082728,54.7209774 23.5439471,54.7209774 C20.2796213,54.7209774 17.0152955,55.6788171 13.7509697,57.5944965 C13.7509697,53.0447581 15.8116654,49.0815933 19.9330567,45.7050021 C24.054448,42.3284109 29.6023901,41.3464463 36.5768831,42.7591083 L30.1032088,37.4871391 C32.9413794,33.0425611 36.9337855,30.8202721 42.0804271,30.8202721 C47.2270687,30.8202721 52.4955356,34.0539003 57.8858276,40.5211566 C63.2761196,34.0539003 68.5445864,30.8202721 73.6912281,30.8202721 Z" id="Palm" fill="#FFFFFF"></path>
        </g>
        <path d="M158.650719,90.5362404 C165.976078,90.5362404 171.693432,87.3202289 174.373441,81.8708762 L175.177444,89.4642366 L180.358796,89.4642366 L180.358796,61.5028037 C180.358796,50.2467636 173.212104,45.0654119 163.028068,45.0654119 C152.486697,45.0654119 145.518672,50.6934319 145.429338,59.4481297 L151.057358,59.4481297 C151.057358,53.730776 155.434707,50.2467636 162.8494,50.2467636 C169.19209,50.2467636 174.284108,52.8374395 174.284108,61.41347 L174.284108,62.8428085 L160.169391,64.0041459 C150.253356,64.8081488 144,69.632166 144,77.7615282 C144,85.3548886 149.449353,90.5362404 158.650719,90.5362404 Z M160.080057,85.5335559 C154.184036,85.5335559 150.253356,82.8535464 150.253356,77.5828609 C150.253356,72.7588438 153.469367,69.1854977 161.509396,68.5601622 L174.284108,67.4881583 L174.284108,69.8108333 C174.284108,79.6375349 168.566754,85.5335559 160.080057,85.5335559 Z M195.098849,33.8987055 C197.510857,33.8987055 199.386864,32.1120324 199.386864,29.6106902 C199.386864,27.109348 197.510857,25.2333413 195.098849,25.2333413 C192.597506,25.2333413 190.810833,27.109348 190.810833,29.6106902 C190.810833,32.1120324 192.597506,33.8987055 195.098849,33.8987055 Z M198.225526,89.4642366 L198.225526,46.2267493 L192.061504,46.2267493 L192.061504,89.4642366 L198.225526,89.4642366 Z M217.610929,89.4642366 L217.610929,64.8081488 C217.610929,56.5894529 221.988278,51.0507665 229.938973,51.0507665 L234.04832,51.0507665 L234.04832,45.6907474 C226.633627,44.1720754 220.022937,46.4947503 217.521595,52.1227703 L217.16426,46.2267493 L211.446907,46.2267493 L211.446907,89.4642366 L217.610929,89.4642366 Z M260.669749,100.005607 L280.412486,46.2267493 L274.069796,46.2267493 L260.22308,84.1935511 L245.483028,46.2267493 L238.961671,46.2267493 L257.364403,92.0549124 L255.488397,97.1469306 C253.397609,103.084767 250.289008,103.307192 246.60237,103.311394 L246.096105,103.311131 C246.011144,103.311033 245.925895,103.310952 245.840362,103.310952 L241.105679,103.310952 L241.105679,108.045636 C245.572362,109.385641 256.649734,110.993647 260.669749,100.005607 Z M290.596522,89.4642366 L302.567231,72.3121755 C304.686875,75.530894 308.738226,81.2332357 312.963096,87.0547412 L313.839106,88.2601153 L313.839106,88.2601153 L314.716608,89.4642366 L314.716608,89.4642366 L322.041967,89.4642366 L306.676579,67.9348266 L322.131301,46.2267493 L314.895275,46.2267493 L302.924566,63.5574777 C299.261886,58.1974586 294.527202,51.4081011 290.596522,46.2267493 L283.360496,46.2267493 L298.725884,67.8454929 L283.44983,89.4642366 L290.596522,89.4642366 Z M358.132762,90.5362404 C377.16083,90.5362404 389.935542,76.3321898 389.935542,56.7681202 C389.935542,37.1147169 377.16083,23 358.222096,23 C339.283362,23 326.597983,37.2040506 326.597983,56.7681202 C326.597983,76.4215235 339.194028,90.5362404 358.132762,90.5362404 Z M358.222096,79.369534 C346.162053,79.369534 338.568692,70.6148361 338.568692,56.7681202 C338.568692,42.9214042 346.251386,34.0773728 358.222096,34.0773728 C370.192805,34.0773728 377.875499,42.9214042 377.875499,56.7681202 C377.875499,70.6148361 370.192805,79.369534 358.222096,79.369534 Z M419.23698,90.625574 C433.44103,90.625574 442.999731,82.8535464 442.999731,71.2401717 C442.999731,62.4854739 437.639712,55.6961164 426.473005,52.7481059 L415.842301,49.9787627 C411.107617,48.7280916 408.159607,46.4054166 408.159607,41.9387341 C408.159607,36.6680486 412.179621,33.0947026 418.968979,33.0947026 C425.043667,33.0947026 429.331682,36.0427131 429.599683,42.1174014 L440.855723,42.1174014 C440.319721,30.7720277 432.101025,23 419.23698,23 C405.747598,23 396.814233,31.0400286 396.814233,42.3854023 C396.814233,50.6934319 401.63825,57.4827894 413.430292,60.6988008 L424.060997,63.5574777 C428.885014,64.8974824 431.654357,67.3988247 431.654357,71.5975063 C431.654357,76.8681917 427.098341,80.3522041 419.415647,80.3522041 C412.000954,80.3522041 407.26627,77.046859 407.26627,71.5081726 L396.01023,71.5081726 C396.456899,83.210881 405.747598,90.625574 419.23698,90.625574 Z" id="airyxOS" fill="#40A3FF" fill-rule="nonzero"></path>
    </g>
</svg>