<?xml version="1.0" encoding="UTF-8"?>
<svg width="222px" height="64px" viewBox="0 0 222 64" version="1.1" xmlns="http://www.w3.org/2000/svg" xmlns:xlink="http://www.w3.org/1999/xlink">
    <title>Horizontal Copy 3@1x</title>
    <defs>
        <filter id="filter-1">
            <feColorMatrix in="SourceGraphic" type="matrix" values="0 0 0 0 0.000000 0 0 0 0 0.000000 0 0 0 0 0.000000 0 0 0 1.000000 0"></feColorMatrix>
        </filter>
    </defs>
    <g id="Horizontal-Copy-3" stroke="none" stroke-width="1" fill="none" fill-rule="evenodd">
        <g id="Group">
            <path d="M79.3253594,45.2681202 C82.9880391,45.2681202 85.8467159,43.6601145 87.1867207,40.9354381 L87.5887221,44.7321183 L90.179398,44.7321183 L90.179398,30.7514019 C90.179398,25.1233818 86.606052,22.5327059 81.5140339,22.5327059 C76.2433484,22.5327059 72.759336,25.3467159 72.7146692,29.7240649 L75.5286792,29.7240649 C75.5286792,26.865388 77.7173537,25.1233818 81.4247002,25.1233818 C84.5960448,25.1233818 87.1420539,26.4187198 87.1420539,30.706735 L87.1420539,31.4214042 L80.0846954,32.002073 C75.1266778,32.4040744 72,34.816083 72,38.8807641 C72,42.6774443 74.7246764,45.2681202 79.3253594,45.2681202 Z M80.0400286,42.7667779 C77.0920181,42.7667779 75.1266778,41.4267732 75.1266778,38.7914305 C75.1266778,36.3794219 76.7346835,34.5927489 80.7546978,34.2800811 L87.1420539,33.7440792 L87.1420539,34.9054166 C87.1420539,39.8187675 84.2833771,42.7667779 80.0400286,42.7667779 Z M97.5494243,16.9493527 C98.7554286,16.9493527 99.6934319,16.0560162 99.6934319,14.8053451 C99.6934319,13.554674 98.7554286,12.6166706 97.5494243,12.6166706 C96.2987531,12.6166706 95.4054166,13.554674 95.4054166,14.8053451 C95.4054166,16.0560162 96.2987531,16.9493527 97.5494243,16.9493527 Z M99.1127632,44.7321183 L99.1127632,23.1133747 L96.0307522,23.1133747 L96.0307522,44.7321183 L99.1127632,44.7321183 Z M108.805464,44.7321183 L108.805464,32.4040744 C108.805464,28.2947264 110.994139,25.5253833 114.969486,25.5253833 L117.02416,25.5253833 L117.02416,22.8453737 C113.316814,22.0860377 110.011469,23.2473751 108.760798,26.0613852 L108.58213,23.1133747 L105.723453,23.1133747 L105.723453,44.7321183 L108.805464,44.7321183 Z M130.334874,50.0028037 L140.206243,23.1133747 L137.034898,23.1133747 L130.11154,42.0967756 L122.741514,23.1133747 L119.480836,23.1133747 L128.682202,46.0274562 L127.744198,48.5734653 C126.698805,51.5423836 125.144504,51.6535958 123.301185,51.655697 L123.048052,51.6555653 C123.005572,51.6555167 122.962947,51.6554762 122.920181,51.6554762 L120.552839,51.6554762 L120.552839,54.022818 C122.786181,54.6928204 128.324867,55.4968233 130.334874,50.0028037 Z M145.298261,44.7321183 L151.283616,36.1560878 C152.343437,37.765447 154.369113,40.6166179 156.481548,43.5273706 L156.919553,44.1300576 L156.919553,44.1300576 L157.358304,44.7321183 L157.358304,44.7321183 L161.020983,44.7321183 L153.338289,33.9674133 L161.06565,23.1133747 L157.447637,23.1133747 L151.462283,31.7787388 C149.630943,29.0987293 147.263601,25.7040506 145.298261,23.1133747 L141.680248,23.1133747 L149.362942,33.9227465 L141.724915,44.7321183 L145.298261,44.7321183 Z M179.066381,45.2681202 C188.580415,45.2681202 194.967771,38.1660949 194.967771,28.3840601 C194.967771,18.5573585 188.580415,11.5 179.111048,11.5 C169.641681,11.5 163.298992,18.6020253 163.298992,28.3840601 C163.298992,38.2107617 169.597014,45.2681202 179.066381,45.2681202 Z M179.111048,39.684767 C173.081026,39.684767 169.284346,35.3074181 169.284346,28.3840601 C169.284346,21.4607021 173.125693,17.0386864 179.111048,17.0386864 C185.096403,17.0386864 188.93775,21.4607021 188.93775,28.3840601 C188.93775,35.3074181 185.096403,39.684767 179.111048,39.684767 Z M209.61849,45.312787 C216.720515,45.312787 221.499865,41.4267732 221.499865,35.6200858 C221.499865,31.2427369 218.819856,27.8480582 213.236503,26.3740529 L207.92115,24.9893813 C205.553809,24.3640458 204.079803,23.2027083 204.079803,20.969367 C204.079803,18.3340243 206.089811,16.5473513 209.484489,16.5473513 C212.521833,16.5473513 214.665841,18.0213565 214.799842,21.0587007 L220.427862,21.0587007 C220.159861,15.3860138 216.050513,11.5 209.61849,11.5 C202.873799,11.5 198.407117,15.5200143 198.407117,21.1927012 C198.407117,25.3467159 200.819125,28.7413947 206.715146,30.3494004 L212.030498,31.7787388 C214.442507,32.4487412 215.827179,33.6994123 215.827179,35.7987531 C215.827179,38.4340959 213.54917,40.1761021 209.707823,40.1761021 C206.000477,40.1761021 203.633135,38.5234295 203.633135,35.7540863 L198.005115,35.7540863 C198.228449,41.6054405 202.873799,45.312787 209.61849,45.312787 Z" id="airyxOS" fill="#000000" fill-rule="nonzero"></path>
            <g id="Mono-Toned-Palm" filter="url(#filter-1)">
                <g transform="translate(0.000000, -0.000000)">
                    <path d="M32.0336407,0 C49.725332,0 64.0672815,14.3419495 64.0672815,32.0336407 C64.0672815,49.0220619 50.8428953,62.9217622 34.126881,63.9999835 L35.0178112,31.3908049 C36.7253413,31.4642663 38.3676205,32.1029182 39.9446489,33.3067603 C41.5216773,34.5106025 42.9831846,36.2412607 44.3291708,38.498735 C46.0209122,37.7823965 46.8667829,36.4343295 46.8667829,34.454534 C46.8667829,32.4747384 46.0209122,30.5990678 44.3291708,28.827522 C45.9575998,27.8686754 47.5887536,27.3892521 49.2226324,27.3892521 C50.8565111,27.3892521 52.4903898,27.8686754 54.1242686,28.827522 C54.1242686,26.5502613 53.0928376,24.5665957 51.0299756,22.8765253 C48.9671136,21.1864548 46.1902263,20.6949564 42.6993138,21.4020299 L42.6993138,21.4020299 L45.9395537,18.7632742 C44.5189766,16.5386489 42.520675,15.4263363 39.9446489,15.4263363 C37.3686228,15.4263363 34.7316201,17.0448501 32.0336407,20.2818777 C29.3356614,17.0448501 26.6986587,15.4263363 24.1226326,15.4263363 C21.5466065,15.4263363 19.5483049,16.5386489 18.1277278,18.7632742 L18.1277278,18.7632742 L21.3679677,21.4020299 C17.8770552,20.6949564 15.1001679,21.1864548 13.0373059,22.8765253 C10.9744439,24.5665957 9.94301292,26.5502613 9.94301292,28.827522 C11.5768917,27.8686754 13.2107704,27.3892521 14.8446491,27.3892521 C16.4785279,27.3892521 18.1096817,27.8686754 19.7381107,28.827522 C18.0463693,30.5990678 17.2004986,32.4747384 17.2004986,34.454534 C17.2004986,36.4343295 18.0463693,37.7823965 19.7381107,38.498735 C21.0840969,36.2412607 22.5456042,34.5106025 24.1226326,33.3067603 C25.699661,32.1029182 27.3419402,31.4642663 29.0494703,31.3908049 L29.0494703,31.3908049 L29.9404005,63.9999835 C13.2243862,62.9217622 0,49.0220619 0,32.0336407 C0,14.3419495 14.3419495,0 32.0336407,0 Z" id="Sky" fill="#9C9C9C"></path>
                </g>
            </g>
        </g>
    </g>
</svg>