<?xml version="1.0" encoding="UTF-8"?>
<svg width="443px" height="128px" viewBox="0 0 443 128" version="1.1" xmlns="http://www.w3.org/2000/svg" xmlns:xlink="http://www.w3.org/1999/xlink">
    <title>Horizontal Copy 2@1x</title>
    <defs>
        <filter id="filter-1">
            <feColorMatrix in="SourceGraphic" type="matrix" values="0 0 0 0 1.000000 0 0 0 0 1.000000 0 0 0 0 1.000000 0 0 0 1.000000 0"></feColorMatrix>
        </filter>
    </defs>
    <g id="Horizontal-Copy-2" stroke="none" stroke-width="1" fill="none" fill-rule="evenodd">
        <path d="M158.650719,90.5362404 C165.976078,90.5362404 171.693432,87.3202289 174.373441,81.8708762 L175.177444,89.4642366 L180.358796,89.4642366 L180.358796,61.5028037 C180.358796,50.2467636 173.212104,45.0654119 163.028068,45.0654119 C152.486697,45.0654119 145.518672,50.6934319 145.429338,59.4481297 L151.057358,59.4481297 C151.057358,53.730776 155.434707,50.2467636 162.8494,50.2467636 C169.19209,50.2467636 174.284108,52.8374395 174.284108,61.41347 L174.284108,62.8428085 L160.169391,64.0041459 C150.253356,64.8081488 144,69.632166 144,77.7615282 C144,85.3548886 149.449353,90.5362404 158.650719,90.5362404 Z M160.080057,85.5335559 C154.184036,85.5335559 150.253356,82.8535464 150.253356,77.5828609 C150.253356,72.7588438 153.469367,69.1854977 161.509396,68.5601622 L174.284108,67.4881583 L174.284108,69.8108333 C174.284108,79.6375349 168.566754,85.5335559 160.080057,85.5335559 Z M195.098849,33.8987055 C197.510857,33.8987055 199.386864,32.1120324 199.386864,29.6106902 C199.386864,27.109348 197.510857,25.2333413 195.098849,25.2333413 C192.597506,25.2333413 190.810833,27.109348 190.810833,29.6106902 C190.810833,32.1120324 192.597506,33.8987055 195.098849,33.8987055 Z M198.225526,89.4642366 L198.225526,46.2267493 L192.061504,46.2267493 L192.061504,89.4642366 L198.225526,89.4642366 Z M217.610929,89.4642366 L217.610929,64.8081488 C217.610929,56.5894529 221.988278,51.0507665 229.938973,51.0507665 L234.04832,51.0507665 L234.04832,45.6907474 C226.633627,44.1720754 220.022937,46.4947503 217.521595,52.1227703 L217.16426,46.2267493 L211.446907,46.2267493 L211.446907,89.4642366 L217.610929,89.4642366 Z M260.669749,100.005607 L280.412486,46.2267493 L274.069796,46.2267493 L260.22308,84.1935511 L245.483028,46.2267493 L238.961671,46.2267493 L257.364403,92.0549124 L255.488397,97.1469306 C253.397609,103.084767 250.289008,103.307192 246.60237,103.311394 L246.096105,103.311131 C246.011144,103.311033 245.925895,103.310952 245.840362,103.310952 L241.105679,103.310952 L241.105679,108.045636 C245.572362,109.385641 256.649734,110.993647 260.669749,100.005607 Z M290.596522,89.4642366 L302.567231,72.3121755 C304.686875,75.530894 308.738226,81.2332357 312.963096,87.0547412 L313.839106,88.2601153 L313.839106,88.2601153 L314.716608,89.4642366 L314.716608,89.4642366 L322.041967,89.4642366 L306.676579,67.9348266 L322.131301,46.2267493 L314.895275,46.2267493 L302.924566,63.5574777 C299.261886,58.1974586 294.527202,51.4081011 290.596522,46.2267493 L283.360496,46.2267493 L298.725884,67.8454929 L283.44983,89.4642366 L290.596522,89.4642366 Z M358.132762,90.5362404 C377.16083,90.5362404 389.935542,76.3321898 389.935542,56.7681202 C389.935542,37.1147169 377.16083,23 358.222096,23 C339.283362,23 326.597983,37.2040506 326.597983,56.7681202 C326.597983,76.4215235 339.194028,90.5362404 358.132762,90.5362404 Z M358.222096,79.369534 C346.162053,79.369534 338.568692,70.6148361 338.568692,56.7681202 C338.568692,42.9214042 346.251386,34.0773728 358.222096,34.0773728 C370.192805,34.0773728 377.875499,42.9214042 377.875499,56.7681202 C377.875499,70.6148361 370.192805,79.369534 358.222096,79.369534 Z M419.23698,90.625574 C433.44103,90.625574 442.999731,82.8535464 442.999731,71.2401717 C442.999731,62.4854739 437.639712,55.6961164 426.473005,52.7481059 L415.842301,49.9787627 C411.107617,48.7280916 408.159607,46.4054166 408.159607,41.9387341 C408.159607,36.6680486 412.179621,33.0947026 418.968979,33.0947026 C425.043667,33.0947026 429.331682,36.0427131 429.599683,42.1174014 L440.855723,42.1174014 C440.319721,30.7720277 432.101025,23 419.23698,23 C405.747598,23 396.814233,31.0400286 396.814233,42.3854023 C396.814233,50.6934319 401.63825,57.4827894 413.430292,60.6988008 L424.060997,63.5574777 C428.885014,64.8974824 431.654357,67.3988247 431.654357,71.5975063 C431.654357,76.8681917 427.098341,80.3522041 419.415647,80.3522041 C412.000954,80.3522041 407.26627,77.046859 407.26627,71.5081726 L396.01023,71.5081726 C396.456899,83.210881 405.747598,90.625574 419.23698,90.625574 Z" id="airyxOS" fill="#FFFFFF" fill-rule="nonzero"></path>
        <g id="Mono-Toned-Palm" filter="url(#filter-1)">
            <g transform="translate(0.000000, -0.000000)">
                <path d="M64,0 C99.346224,0 128,28.683899 128,64.0672815 C128,98.0444621 101.578477,125.844078 68.1810865,128.000031 L69.9620731,62.7816098 C73.3735469,62.9285327 76.654656,64.2058363 79.8054005,66.6135207 C82.9561449,69.021205 85.8760899,72.4825214 88.5652353,76.9974699 C91.9451649,75.564793 93.6351297,72.868659 93.6351297,68.9090679 C93.6351297,64.9494768 91.9451649,61.1981355 88.5652353,57.655044 C91.818673,55.7373508 95.0775548,54.7785042 98.3418805,54.7785042 C101.606206,54.7785042 104.870532,55.7373508 108.134858,57.655044 C108.134858,53.1005226 106.074162,49.1331915 101.952771,45.7530505 C97.8313796,42.3729096 92.2834375,41.3899127 85.3089445,42.8040598 L85.3089445,42.8040598 L91.7826188,37.5265484 C88.9444482,33.0772979 84.9520421,30.8526726 79.8054005,30.8526726 C74.6587588,30.8526726 69.390292,34.0897002 64,40.5637554 C58.609708,34.0897002 53.3412412,30.8526726 48.1945995,30.8526726 C43.0479579,30.8526726 39.0555518,33.0772979 36.2173812,37.5265484 L36.2173812,37.5265484 L42.6910555,42.8040598 C35.7165625,41.3899127 30.1686204,42.3729096 26.0472291,45.7530505 C21.9258378,49.1331915 19.8651422,53.1005226 19.8651422,57.655044 C23.1294679,55.7373508 26.3937937,54.7785042 29.6581195,54.7785042 C32.9224452,54.7785042 36.181327,55.7373508 39.4347647,57.655044 C36.0548351,61.1981355 34.3648703,64.9494768 34.3648703,68.9090679 C34.3648703,72.868659 36.0548351,75.564793 39.4347647,76.9974699 C42.1239101,72.4825214 45.0438551,69.021205 48.1945995,66.6135207 C51.345344,64.2058363 54.6264531,62.9285327 58.0379269,62.7816098 L58.0379269,62.7816098 L59.8189135,128.000031 C26.4215228,125.844078 0,98.0444621 0,64.0672815 C0,28.683899 28.653776,0 64,0 Z" id="Sky" fill="#9C9C9C"></path>
            </g>
        </g>
    </g>
</svg>