<?xml version="1.0" encoding="UTF-8" standalone="no"?>
<!DOCTYPE svg PUBLIC "-//W3C//DTD SVG 1.1//EN" "http://www.w3.org/Graphics/SVG/1.1/DTD/svg11.dtd">
<svg width="100%" height="100%" viewBox="0 0 1024 1024" version="1.1" xmlns="http://www.w3.org/2000/svg" xmlns:xlink="http://www.w3.org/1999/xlink" xml:space="preserve" xmlns:serif="http://www.serif.com/" style="fill-rule:evenodd;clip-rule:evenodd;stroke-linejoin:round;stroke-miterlimit:2;">
    <g transform="matrix(9.97175,0,0,9.97175,512.106,986.028)">
        <path d="M0,-95.863C-26.059,-95.863 -47.281,-75.156 -48.112,-49.299C-43.015,-52.256 -37.567,-55.4 -34.631,-57.245C-28.946,-60.819 -26.591,-63.905 -23.343,-66.504C-20.094,-69.103 -14.896,-70.889 -7.019,-71.295C0.322,-71.674 7.583,-66.997 8.538,-66.358C8.612,-66.309 8.69,-66.274 8.776,-66.253C9.397,-66.099 12.098,-65.46 14.62,-65.342C24.602,-64.919 28.288,-61.278 29.557,-59.322C29.855,-58.863 29.593,-58.24 29.052,-58.152C29.044,-58.15 29.035,-58.149 29.026,-58.147C28.886,-58.123 28.75,-58.065 28.642,-57.972C26.905,-56.493 14.376,-52.756 13.152,-51.043C12.119,-49.598 10.664,-49.083 10.173,-48.945C10.055,-48.912 9.949,-48.853 9.859,-48.77C9.314,-48.265 7.335,-46.375 5.723,-44.118C4.105,-41.852 2.763,-41.066 2.413,-40.887C2.348,-40.854 2.288,-40.81 2.234,-40.759L-0.021,-38.606C-0.273,-38.365 -0.331,-37.985 -0.16,-37.681C0.55,-36.415 2.491,-33.124 4.59,-31.024C6.82,-28.794 7.617,-24.325 7.812,-22.98C7.841,-22.78 7.788,-22.58 7.668,-22.416C7.306,-21.919 6.6,-20.002 6.982,-12.643C7.272,-7.07 6.854,-2.912 6.327,0C29.922,-3.098 48.138,-23.284 48.138,-47.725C48.138,-74.311 26.586,-95.863 0,-95.863" style="fill-rule:nonzero;"/>
    </g>
</svg>
