<?xml version="1.0" encoding="UTF-8" standalone="no"?>
<!DOCTYPE svg PUBLIC "-//W3C//DTD SVG 1.1//EN" "http://www.w3.org/Graphics/SVG/1.1/DTD/svg11.dtd">
<svg width="100%" height="100%" viewBox="0 0 778 175" version="1.1" xmlns="http://www.w3.org/2000/svg" xmlns:xlink="http://www.w3.org/1999/xlink" xml:space="preserve" xmlns:serif="http://www.serif.com/" style="fill-rule:evenodd;clip-rule:evenodd;stroke-linejoin:round;stroke-miterlimit:2;">
    <g transform="matrix(1,0,0,1,-138.75,-85.1416)">
        <g transform="matrix(1.54736,0,0,1.54736,213.197,233.477)">
            <path d="M0,-95.863C-26.059,-95.863 -47.281,-75.156 -48.112,-49.299C-43.015,-52.256 -37.567,-55.4 -34.631,-57.245C-28.946,-60.819 -26.591,-63.905 -23.343,-66.504C-20.094,-69.103 -14.896,-70.889 -7.019,-71.295C0.322,-71.674 7.583,-66.997 8.538,-66.358C8.612,-66.309 8.69,-66.274 8.776,-66.253C9.397,-66.099 12.098,-65.46 14.62,-65.342C24.602,-64.919 28.288,-61.278 29.557,-59.322C29.855,-58.863 29.593,-58.24 29.052,-58.152C29.044,-58.15 29.035,-58.149 29.026,-58.147C28.886,-58.123 28.75,-58.065 28.642,-57.972C26.905,-56.493 14.376,-52.756 13.152,-51.043C12.119,-49.598 10.664,-49.083 10.173,-48.945C10.055,-48.912 9.949,-48.853 9.859,-48.77C9.314,-48.265 7.335,-46.375 5.723,-44.118C4.105,-41.852 2.763,-41.066 2.413,-40.887C2.348,-40.854 2.288,-40.81 2.234,-40.759L-0.021,-38.606C-0.273,-38.365 -0.331,-37.985 -0.16,-37.681C0.55,-36.415 2.491,-33.124 4.59,-31.024C6.82,-28.794 7.617,-24.325 7.812,-22.98C7.841,-22.78 7.788,-22.58 7.668,-22.416C7.306,-21.919 6.6,-20.002 6.982,-12.643C7.272,-7.07 6.854,-2.912 6.327,0C29.922,-3.098 48.138,-23.284 48.138,-47.725C48.138,-74.311 26.586,-95.863 0,-95.863" style="fill-rule:nonzero;"/>
        </g>
        <g transform="matrix(1.54736,0,0,1.54736,377.225,209.857)">
            <path d="M0,-40.432L-4.256,-40.432C-14.224,-40.432 -20.608,-33.712 -20.608,-23.408L-20.608,7.504L-28.336,7.504L-28.336,-46.703L-21.056,-46.703L-20.496,-38.304C-18.368,-44.128 -12.656,-47.936 -5.04,-47.936C-3.36,-47.936 -1.904,-47.824 0,-47.376L0,-40.432Z" style="fill-rule:nonzero;"/>
        </g>
        <g transform="matrix(1.54736,0,0,1.54736,440.998,175.543)">
            <path d="M0,5.039L0,2.127L-16.016,3.359C-26.208,4.255 -30.352,8.735 -30.352,14.783C-30.352,21.391 -25.424,24.751 -18.032,24.751C-6.608,24.751 0,16.799 0,5.039M-38.192,15.007C-38.192,5.039 -30.576,-1.232 -17.92,-2.241L0,-3.697L0,-5.489C0,-16.128 -6.384,-19.489 -14.336,-19.489C-23.744,-19.489 -29.344,-15.232 -29.344,-7.953L-36.4,-7.953C-36.4,-18.929 -27.44,-25.984 -14.112,-25.984C-1.568,-25.984 7.616,-19.712 7.616,-5.377L7.616,29.679L1.12,29.679L0.112,20.159C-3.248,26.991 -10.64,31.023 -19.824,31.023C-31.36,31.023 -38.192,24.527 -38.192,15.007" style="fill-rule:nonzero;"/>
        </g>
        <g transform="matrix(1.54736,0,0,1.54736,455.38,221.469)">
            <path d="M0,-54.208L8.288,-54.208L22.288,-19.265C23.744,-15.344 25.2,-11.648 26.208,-8.064C27.216,-11.76 28.672,-15.344 30.24,-19.265L44.464,-54.208L52.416,-54.208L29.904,0L22.176,0L0,-54.208Z" style="fill-rule:nonzero;"/>
        </g>
        <g transform="matrix(1.54736,0,0,1.54736,545.498,148.68)">
            <path d="M0,64.288L5.936,64.288C10.64,64.288 15.344,63.952 18.031,56.672L20.384,50.288L-1.568,-7.168L6.607,-7.168L24.08,40.096L41.216,-7.168L49.168,-7.168L24.304,59.472C21.168,67.984 15.903,71.456 8.176,71.456C4.928,71.456 2.464,71.232 0,70.672L0,64.288Z" style="fill-rule:nonzero;"/>
        </g>
        <g transform="matrix(1.54736,0,0,1.54736,628.684,135.335)">
            <path d="M0,55.664L0,1.456L6.72,1.456L7.84,10.864C11.424,3.92 18.592,0 26.432,0C41.327,0 47.487,8.848 47.487,22.512L47.487,55.664L39.76,55.664L39.76,24.192C39.76,11.536 34.047,7.056 25.088,7.056C13.999,7.056 7.728,15.12 7.728,27.328L7.728,55.664L0,55.664Z" style="fill-rule:nonzero;"/>
        </g>
        <g transform="matrix(1.54736,0,0,1.54736,769.753,211.417)">
            <path d="M0,-67.312C-17.696,-67.312 -29.792,-53.648 -29.792,-33.6C-29.792,-13.552 -17.696,0.112 0,0.112C17.696,0.112 29.904,-13.664 29.904,-33.6C29.904,-53.648 17.696,-67.312 0,-67.312M0,7.84C-22.512,7.84 -38.191,-9.296 -38.191,-33.6C-38.191,-57.904 -22.399,-75.152 0,-75.152C22.512,-75.152 38.191,-58.016 38.191,-33.6C38.191,-9.296 22.399,7.84 0,7.84" style="fill-rule:nonzero;"/>
        </g>
        <g transform="matrix(1.54736,0,0,1.54736,875.294,223.548)">
            <path d="M0,-82.992C14.448,-82.992 23.968,-74.928 25.2,-61.488L17.024,-61.488C16.128,-70.56 9.968,-75.712 -0.111,-75.712C-11.424,-75.712 -18.815,-69.888 -18.815,-60.816C-18.815,-53.76 -14.672,-49.281 -6.271,-47.152L7.504,-43.792C20.048,-40.768 26.544,-33.6 26.544,-22.737C26.544,-8.848 15.792,0 -0.784,0C-16.352,0 -26.88,-8.177 -27.888,-21.281L-19.6,-21.281C-19.151,-12.881 -11.76,-7.392 -0.784,-7.392C10.977,-7.392 18.48,-13.104 18.48,-22.288C18.48,-29.456 14.448,-34.16 5.824,-36.177L-7.728,-39.536C-20.271,-42.56 -26.88,-49.728 -26.88,-60.704C-26.88,-74.144 -16.128,-82.992 0,-82.992" style="fill-rule:nonzero;"/>
        </g>
    </g>
</svg>
