<?xml version="1.0" encoding="UTF-8" standalone="no"?>
<!DOCTYPE svg PUBLIC "-//W3C//DTD SVG 1.1//EN" "http://www.w3.org/Graphics/SVG/1.1/DTD/svg11.dtd">
<svg width="100%" height="100%" viewBox="0 0 994 280" version="1.1" xmlns="http://www.w3.org/2000/svg" xmlns:xlink="http://www.w3.org/1999/xlink" xml:space="preserve" xmlns:serif="http://www.serif.com/" style="fill-rule:evenodd;clip-rule:evenodd;stroke-linejoin:round;stroke-miterlimit:2;">
    <g transform="matrix(1,0,0,1,-15.3448,-21.4472)">
        <g transform="matrix(2.63617,0,0,2.63617,90.0433,216.902)">
            <path d="M0,-40.432L-4.256,-40.432C-14.224,-40.432 -20.608,-33.712 -20.608,-23.408L-20.608,7.504L-28.336,7.504L-28.336,-46.703L-21.056,-46.703L-20.496,-38.304C-18.368,-44.128 -12.656,-47.936 -5.04,-47.936C-3.36,-47.936 -1.904,-47.824 0,-47.376L0,-40.432Z" style="fill-rule:nonzero;"/>
        </g>
        <g transform="matrix(2.63617,0,0,2.63617,198.691,158.445)">
            <path d="M0,5.039L0,2.127L-16.016,3.359C-26.208,4.255 -30.352,8.735 -30.352,14.783C-30.352,21.391 -25.424,24.751 -18.032,24.751C-6.608,24.751 0,16.799 0,5.039M-38.192,15.007C-38.192,5.039 -30.576,-1.232 -17.92,-2.241L0,-3.697L0,-5.489C0,-16.128 -6.384,-19.489 -14.336,-19.489C-23.744,-19.489 -29.344,-15.232 -29.344,-7.953L-36.4,-7.953C-36.4,-18.929 -27.44,-25.984 -14.112,-25.984C-1.568,-25.984 7.616,-19.712 7.616,-5.377L7.616,29.679L1.12,29.679L0.112,20.159C-3.248,26.991 -10.64,31.023 -19.824,31.023C-31.36,31.023 -38.192,24.527 -38.192,15.007" style="fill-rule:nonzero;"/>
        </g>
        <g transform="matrix(2.63617,0,0,2.63617,223.193,236.685)">
            <path d="M0,-54.208L8.288,-54.208L22.288,-19.265C23.744,-15.344 25.2,-11.648 26.208,-8.064C27.216,-11.76 28.672,-15.344 30.24,-19.265L44.464,-54.208L52.416,-54.208L29.904,0L22.176,0L0,-54.208Z" style="fill-rule:nonzero;"/>
        </g>
        <g transform="matrix(2.63617,0,0,2.63617,376.723,112.679)">
            <path d="M0,64.288L5.936,64.288C10.64,64.288 15.344,63.952 18.031,56.672L20.384,50.288L-1.568,-7.168L6.607,-7.168L24.08,40.096L41.216,-7.168L49.168,-7.168L24.304,59.472C21.168,67.984 15.903,71.456 8.176,71.456C4.928,71.456 2.464,71.232 0,70.672L0,64.288Z" style="fill-rule:nonzero;"/>
        </g>
        <g transform="matrix(2.63617,0,0,2.63617,518.443,89.9443)">
            <path d="M0,55.664L0,1.456L6.72,1.456L7.84,10.864C11.424,3.92 18.592,0 26.432,0C41.327,0 47.487,8.848 47.487,22.512L47.487,55.664L39.76,55.664L39.76,24.192C39.76,11.536 34.047,7.056 25.088,7.056C13.999,7.056 7.728,15.12 7.728,27.328L7.728,55.664L0,55.664Z" style="fill-rule:nonzero;"/>
        </g>
        <g transform="matrix(2.63617,0,0,2.63617,758.775,219.561)">
            <path d="M0,-67.312C-17.696,-67.312 -29.792,-53.648 -29.792,-33.6C-29.792,-13.552 -17.696,0.112 0,0.112C17.696,0.112 29.904,-13.664 29.904,-33.6C29.904,-53.648 17.696,-67.312 0,-67.312M0,7.84C-22.512,7.84 -38.191,-9.296 -38.191,-33.6C-38.191,-57.904 -22.399,-75.152 0,-75.152C22.512,-75.152 38.191,-58.016 38.191,-33.6C38.191,-9.296 22.399,7.84 0,7.84" style="fill-rule:nonzero;"/>
        </g>
        <g transform="matrix(2.63617,0,0,2.63617,938.58,240.228)">
            <path d="M0,-82.992C14.448,-82.992 23.968,-74.928 25.2,-61.488L17.024,-61.488C16.128,-70.56 9.968,-75.712 -0.111,-75.712C-11.424,-75.712 -18.815,-69.888 -18.815,-60.816C-18.815,-53.76 -14.672,-49.281 -6.271,-47.152L7.504,-43.792C20.048,-40.768 26.544,-33.6 26.544,-22.737C26.544,-8.848 15.792,0 -0.784,0C-16.352,0 -26.88,-8.177 -27.888,-21.281L-19.6,-21.281C-19.151,-12.881 -11.76,-7.392 -0.784,-7.392C10.977,-7.392 18.48,-13.104 18.48,-22.288C18.48,-29.456 14.448,-34.16 5.824,-36.177L-7.728,-39.536C-20.271,-42.56 -26.88,-49.728 -26.88,-60.704C-26.88,-74.144 -16.128,-82.992 0,-82.992" style="fill-rule:nonzero;"/>
        </g>
    </g>
</svg>
