<?xml version="1.0" encoding="UTF-8"?>
<svg width="299px" height="88px" viewBox="0 0 299 88" version="1.1" xmlns="http://www.w3.org/2000/svg" xmlns:xlink="http://www.w3.org/1999/xlink">
    <title>Text White@1x</title>
    <g id="Text-White" stroke="none" stroke-width="1" fill="none" fill-rule="evenodd">
        <path d="M14.6507188,67.7303799 C21.9760782,67.7303799 27.6934319,64.5143684 30.3734414,59.0650157 L31.1774443,66.658376 L36.3587961,66.658376 L36.3587961,38.6969432 C36.3587961,27.4409031 29.212104,22.2595514 19.0280677,22.2595514 C8.48669687,22.2595514 1.51867207,27.8875714 1.42933842,36.6422692 L7.05735845,36.6422692 C7.05735845,30.9249155 11.4347074,27.4409031 18.8494004,27.4409031 C25.1920897,27.4409031 30.2841078,30.031579 30.2841078,38.6076095 L30.2841078,40.036948 L16.1693909,41.1982854 C6.25335559,42.0022883 -1.98951966e-13,46.8263055 -1.98951966e-13,54.9556677 C-1.98951966e-13,62.5490281 5.44935273,67.7303799 14.6507188,67.7303799 Z M16.0800572,62.7276954 C10.1840362,62.7276954 6.25335559,60.0476858 6.25335559,54.7770004 C6.25335559,49.9529833 9.46936704,46.3796372 17.5093957,45.7543016 L30.2841078,44.6822978 L30.2841078,47.0049728 C30.2841078,56.8316744 24.5667541,62.7276954 16.0800572,62.7276954 Z M51.0988485,11.0928449 C53.5108571,11.0928449 55.3868638,9.30617192 55.3868638,6.80482969 C55.3868638,4.30348745 53.5108571,2.42748077 51.0988485,2.42748077 C48.5975063,2.42748077 46.8108333,4.30348745 46.8108333,6.80482969 C46.8108333,9.30617192 48.5975063,11.0928449 51.0988485,11.0928449 Z M54.2255263,66.658376 L54.2255263,23.4208888 L48.0615044,23.4208888 L48.0615044,66.658376 L54.2255263,66.658376 Z M73.6109287,66.658376 L73.6109287,42.0022883 C73.6109287,33.7835924 77.9882776,28.244906 85.9389725,28.244906 L90.0483205,28.244906 L90.0483205,22.8848869 C82.6336274,21.3662148 76.0229372,23.6888898 73.521595,29.3169098 L73.1642604,23.4208888 L67.4469067,23.4208888 L67.4469067,66.658376 L73.6109287,66.658376 Z M116.669749,77.1997469 L136.412486,23.4208888 L130.069796,23.4208888 L116.22308,61.3876906 L101.483028,23.4208888 L94.9616713,23.4208888 L113.364403,69.2490519 L111.488397,74.3410701 C109.397609,80.2789068 106.289008,80.501331 102.60237,80.5055334 L102.096105,80.5052701 C102.011144,80.5051729 101.925895,80.505092 101.840362,80.505092 L97.1056789,80.505092 L97.1056789,85.2397755 C101.572362,86.5797803 112.649734,88.187786 116.669749,77.1997469 Z M146.596522,66.658376 L158.567231,49.506315 C160.686875,52.7250335 164.738226,58.4273752 168.963096,64.2488806 L169.839106,65.4542548 L169.839106,65.4542548 L170.716608,66.658376 L170.716608,66.658376 L178.041967,66.658376 L162.676579,45.1289661 L178.131301,23.4208888 L170.895275,23.4208888 L158.924566,40.7516172 C155.261886,35.3915981 150.527202,28.6022406 146.596522,23.4208888 L139.360496,23.4208888 L154.725884,45.0396324 L139.44983,66.658376 L146.596522,66.658376 Z M214.132762,67.7303799 C233.16083,67.7303799 245.935542,53.5263293 245.935542,33.9622597 C245.935542,14.3088564 233.16083,0.194139492 214.222096,0.194139492 C195.283362,0.194139492 182.597983,14.39819 182.597983,33.9622597 C182.597983,53.615663 195.194028,67.7303799 214.132762,67.7303799 Z M214.222096,56.5636734 C202.162053,56.5636734 194.568692,47.8089756 194.568692,33.9622597 C194.568692,20.1155437 202.251386,11.2715123 214.222096,11.2715123 C226.192805,11.2715123 233.875499,20.1155437 233.875499,33.9622597 C233.875499,47.8089756 226.192805,56.5636734 214.222096,56.5636734 Z M275.23698,67.8197135 C289.44103,67.8197135 298.999731,60.0476858 298.999731,48.4343112 C298.999731,39.6796134 293.639712,32.8902559 282.473005,29.9422454 L271.842301,27.1729022 C267.107617,25.9222311 264.159607,23.5995561 264.159607,19.1328736 C264.159607,13.8621881 268.179621,10.2888421 274.968979,10.2888421 C281.043667,10.2888421 285.331682,13.2368526 285.599683,19.3115409 L296.855723,19.3115409 C296.319721,7.96616715 288.101025,0.194139492 275.23698,0.194139492 C261.747598,0.194139492 252.814233,8.23416811 252.814233,19.5795418 C252.814233,27.8875714 257.63825,34.6769289 269.430292,37.8929403 L280.060997,40.7516172 C284.885014,42.0916219 287.654357,44.5929642 287.654357,48.7916458 C287.654357,54.0623312 283.098341,57.5463436 275.415647,57.5463436 C268.000954,57.5463436 263.26627,54.2409985 263.26627,48.7023121 L252.01023,48.7023121 C252.456899,60.4050205 261.747598,67.8197135 275.23698,67.8197135 Z" id="airyxOS" fill="#FFFFFF" fill-rule="nonzero"></path>
    </g>
</svg>