<?xml version="1.0" encoding="UTF-8"?>
<svg width="220px" height="198px" viewBox="0 0 220 198" version="1.1" xmlns="http://www.w3.org/2000/svg" xmlns:xlink="http://www.w3.org/1999/xlink">
    <title>Vertical On Dark Copy@1x</title>
    <defs>
        <filter id="filter-1">
            <feColorMatrix in="SourceGraphic" type="matrix" values="0 0 0 0 1.000000 0 0 0 0 1.000000 0 0 0 0 1.000000 0 0 0 1.000000 0"></feColorMatrix>
        </filter>
    </defs>
    <g id="Vertical-On-Dark-Copy" stroke="none" stroke-width="1" fill="none" fill-rule="evenodd">
        <path d="M13.392,184.384 C18.64,184.384 22.736,182.08 24.656,178.176 L25.232,183.616 L28.944,183.616 L28.944,163.584 C28.944,155.52 23.824,151.808 16.528,151.808 C8.976,151.808 3.984,155.84 3.92,162.112 L7.952,162.112 C7.952,158.016 11.088,155.52 16.4,155.52 C20.944,155.52 24.592,157.376 24.592,163.52 L24.592,164.544 L14.48,165.376 C7.376,165.952 2.896,169.408 2.896,175.232 C2.896,180.672 6.8,184.384 13.392,184.384 Z M14.416,180.8 C10.192,180.8 7.376,178.88 7.376,175.104 C7.376,171.648 9.68,169.088 15.44,168.64 L24.592,167.872 L24.592,169.536 C24.592,176.576 20.496,180.8 14.416,180.8 Z M39.504,143.808 C41.232,143.808 42.576,142.528 42.576,140.736 C42.576,138.944 41.232,137.6 39.504,137.6 C37.712,137.6 36.432,138.944 36.432,140.736 C36.432,142.528 37.712,143.808 39.504,143.808 Z M41.744,183.616 L41.744,152.64 L37.328,152.64 L37.328,183.616 L41.744,183.616 Z M55.632,183.616 L55.632,165.952 C55.632,160.064 58.768,156.096 64.464,156.096 L67.408,156.096 L67.408,152.256 C62.096,151.168 57.36,152.832 55.568,156.864 L55.312,152.64 L51.216,152.64 L51.216,183.616 L55.632,183.616 Z M86.48,191.168 L100.624,152.64 L96.08,152.64 L86.16,179.84 L75.6,152.64 L70.928,152.64 L84.112,185.472 L82.768,189.12 C81.2701277,193.373957 79.0430783,193.533306 76.4019137,193.536316 L76.0392177,193.536128 C75.9783504,193.536058 75.9172766,193.536 75.856,193.536 L72.464,193.536 L72.464,196.928 C75.664,197.888 83.6,199.04 86.48,191.168 Z M107.92,183.616 L116.496,171.328 C118.014545,173.633939 120.916995,177.719185 123.943757,181.8898 L124.571344,182.753349 L124.571344,182.753349 L125.2,183.616 L125.2,183.616 L130.448,183.616 L119.44,168.192 L130.512,152.64 L125.328,152.64 L116.752,165.056 C114.128,161.216 110.736,156.352 107.92,152.64 L102.736,152.64 L113.744,168.128 L102.8,183.616 L107.92,183.616 Z M156.304,184.384 C169.936,184.384 179.088,174.208 179.088,160.192 C179.088,146.112 169.936,136 156.368,136 C142.8,136 133.712,146.176 133.712,160.192 C133.712,174.272 142.736,184.384 156.304,184.384 Z M156.368,176.384 C147.728,176.384 142.288,170.112 142.288,160.192 C142.288,150.272 147.792,143.936 156.368,143.936 C164.944,143.936 170.448,150.272 170.448,160.192 C170.448,170.112 164.944,176.384 156.368,176.384 Z M200.08,184.448 C210.256,184.448 217.104,178.88 217.104,170.56 C217.104,164.288 213.264,159.424 205.264,157.312 L197.648,155.328 C194.256,154.432 192.144,152.768 192.144,149.568 C192.144,145.792 195.024,143.232 199.888,143.232 C204.24,143.232 207.312,145.344 207.504,149.696 L215.568,149.696 C215.184,141.568 209.296,136 200.08,136 C190.416,136 184.016,141.76 184.016,149.888 C184.016,155.84 187.472,160.704 195.92,163.008 L203.536,165.056 C206.992,166.016 208.976,167.808 208.976,170.816 C208.976,174.592 205.712,177.088 200.208,177.088 C194.896,177.088 191.504,174.72 191.504,170.752 L183.44,170.752 C183.76,179.136 190.416,184.448 200.08,184.448 Z" id="airyxOS" fill="#FFFFFF" fill-rule="nonzero"></path>
        <g id="Mono-Toned-Palm" transform="translate(46.000000, 0.000000)" filter="url(#filter-1)">
            <g transform="translate(0.000000, -0.000000)">
                <path d="M64,0 C99.346224,0 128,28.683899 128,64.0672815 C128,98.0444621 101.578477,125.844078 68.1810865,128.000031 L69.9620731,62.7816098 C73.3735469,62.9285327 76.654656,64.2058363 79.8054005,66.6135207 C82.9561449,69.021205 85.8760899,72.4825214 88.5652353,76.9974699 C91.9451649,75.564793 93.6351297,72.868659 93.6351297,68.9090679 C93.6351297,64.9494768 91.9451649,61.1981355 88.5652353,57.655044 C91.818673,55.7373508 95.0775548,54.7785042 98.3418805,54.7785042 C101.606206,54.7785042 104.870532,55.7373508 108.134858,57.655044 C108.134858,53.1005226 106.074162,49.1331915 101.952771,45.7530505 C97.8313796,42.3729096 92.2834375,41.3899127 85.3089445,42.8040598 L85.3089445,42.8040598 L91.7826188,37.5265484 C88.9444482,33.0772979 84.9520421,30.8526726 79.8054005,30.8526726 C74.6587588,30.8526726 69.390292,34.0897002 64,40.5637554 C58.609708,34.0897002 53.3412412,30.8526726 48.1945995,30.8526726 C43.0479579,30.8526726 39.0555518,33.0772979 36.2173812,37.5265484 L36.2173812,37.5265484 L42.6910555,42.8040598 C35.7165625,41.3899127 30.1686204,42.3729096 26.0472291,45.7530505 C21.9258378,49.1331915 19.8651422,53.1005226 19.8651422,57.655044 C23.1294679,55.7373508 26.3937937,54.7785042 29.6581195,54.7785042 C32.9224452,54.7785042 36.181327,55.7373508 39.4347647,57.655044 C36.0548351,61.1981355 34.3648703,64.9494768 34.3648703,68.9090679 C34.3648703,72.868659 36.0548351,75.564793 39.4347647,76.9974699 C42.1239101,72.4825214 45.0438551,69.021205 48.1945995,66.6135207 C51.345344,64.2058363 54.6264531,62.9285327 58.0379269,62.7816098 L58.0379269,62.7816098 L59.8189135,128.000031 C26.4215228,125.844078 0,98.0444621 0,64.0672815 C0,28.683899 28.653776,0 64,0 Z" id="Sky" fill="#9C9C9C"></path>
            </g>
        </g>
    </g>
</svg>