<?xml version="1.0" encoding="UTF-8"?>
<svg width="220px" height="198px" viewBox="0 0 220 198" version="1.1" xmlns="http://www.w3.org/2000/svg" xmlns:xlink="http://www.w3.org/1999/xlink">
    <title>Vertical@1x</title>
    <g id="Vertical" stroke="none" stroke-width="1" fill="none" fill-rule="evenodd">
        <g id="Duo-Toned-Simplified-Copy-3" transform="translate(46.000000, 0.000000)">
            <path d="M64,0 C99.346224,0 128,28.653776 128,64 C128,73.2577522 126.034347,82.0564015 122.49763,90.0013577 L5.50236973,90.0013577 C1.96565327,82.0564015 -3.12638804e-13,73.2577522 -3.12638804e-13,64 C-3.12638804e-13,28.653776 28.653776,0 64,0 Z" id="Path" fill="#80CCFF"></path>
            <path d="M122.497991,90.0005466 C112.531657,112.389976 90.0887868,128 64,128 C37.9112132,128 15.4683429,112.389976 5.50200869,90.0005466 L122.497991,90.0005466 Z" id="Land" fill="#40A3FF"></path>
            <path d="M73.6912281,30.8202721 C78.8378697,30.8202721 82.8302758,33.0425611 85.6684464,37.4871391 L79.1947721,42.7591083 C86.1692651,41.3464463 91.7172072,42.3284109 95.8385985,45.7050021 C99.9599898,49.0815933 102.020685,53.0447581 102.020685,57.5944965 C98.7563597,55.6788171 95.4920339,54.7209774 92.2277081,54.7209774 C88.9633823,54.7209774 85.7045006,55.6788171 82.4510629,57.5944965 C85.8309925,61.1338671 87.5209573,64.8812688 87.5209573,68.8367017 C87.5209573,72.7921346 85.8309925,75.4854372 82.4510629,76.9166095 C79.7619175,72.4064025 76.8419725,68.9487211 73.6912281,66.5435652 C70.5404836,64.1384093 67.2593745,62.8624471 63.8479007,62.7156785 L62.0651719,127.971312 C59.2215238,127.886878 56.4244578,127.616948 53.685658,127.173206 L51.9237545,62.7156785 C48.5122807,62.8624471 45.2311716,64.1384093 42.0804271,66.5435652 C38.9296827,68.9487211 36.0097377,72.4064025 33.3205922,76.9166095 C29.9406627,75.4854372 28.2506979,72.7921346 28.2506979,68.8367017 C28.2506979,64.8812688 29.9406627,61.1338671 33.3205922,57.5944965 C30.0671546,55.6788171 26.8082728,54.7209774 23.5439471,54.7209774 C20.2796213,54.7209774 17.0152955,55.6788171 13.7509697,57.5944965 C13.7509697,53.0447581 15.8116654,49.0815933 19.9330567,45.7050021 C24.054448,42.3284109 29.6023901,41.3464463 36.5768831,42.7591083 L30.1032088,37.4871391 C32.9413794,33.0425611 36.9337855,30.8202721 42.0804271,30.8202721 C47.2270687,30.8202721 52.4955356,34.0539003 57.8858276,40.5211566 C63.2761196,34.0539003 68.5445864,30.8202721 73.6912281,30.8202721 Z" id="Palm" fill="#FFFFFF"></path>
        </g>
        <path d="M13.392,184.384 C18.64,184.384 22.736,182.08 24.656,178.176 L25.232,183.616 L28.944,183.616 L28.944,163.584 C28.944,155.52 23.824,151.808 16.528,151.808 C8.976,151.808 3.984,155.84 3.92,162.112 L7.952,162.112 C7.952,158.016 11.088,155.52 16.4,155.52 C20.944,155.52 24.592,157.376 24.592,163.52 L24.592,164.544 L14.48,165.376 C7.376,165.952 2.896,169.408 2.896,175.232 C2.896,180.672 6.8,184.384 13.392,184.384 Z M14.416,180.8 C10.192,180.8 7.376,178.88 7.376,175.104 C7.376,171.648 9.68,169.088 15.44,168.64 L24.592,167.872 L24.592,169.536 C24.592,176.576 20.496,180.8 14.416,180.8 Z M39.504,143.808 C41.232,143.808 42.576,142.528 42.576,140.736 C42.576,138.944 41.232,137.6 39.504,137.6 C37.712,137.6 36.432,138.944 36.432,140.736 C36.432,142.528 37.712,143.808 39.504,143.808 Z M41.744,183.616 L41.744,152.64 L37.328,152.64 L37.328,183.616 L41.744,183.616 Z M55.632,183.616 L55.632,165.952 C55.632,160.064 58.768,156.096 64.464,156.096 L67.408,156.096 L67.408,152.256 C62.096,151.168 57.36,152.832 55.568,156.864 L55.312,152.64 L51.216,152.64 L51.216,183.616 L55.632,183.616 Z M86.48,191.168 L100.624,152.64 L96.08,152.64 L86.16,179.84 L75.6,152.64 L70.928,152.64 L84.112,185.472 L82.768,189.12 C81.2701277,193.373957 79.0430783,193.533306 76.4019137,193.536316 L76.0392177,193.536128 C75.9783504,193.536058 75.9172766,193.536 75.856,193.536 L72.464,193.536 L72.464,196.928 C75.664,197.888 83.6,199.04 86.48,191.168 Z M107.92,183.616 L116.496,171.328 C118.014545,173.633939 120.916995,177.719185 123.943757,181.8898 L124.571344,182.753349 L124.571344,182.753349 L125.2,183.616 L125.2,183.616 L130.448,183.616 L119.44,168.192 L130.512,152.64 L125.328,152.64 L116.752,165.056 C114.128,161.216 110.736,156.352 107.92,152.64 L102.736,152.64 L113.744,168.128 L102.8,183.616 L107.92,183.616 Z M156.304,184.384 C169.936,184.384 179.088,174.208 179.088,160.192 C179.088,146.112 169.936,136 156.368,136 C142.8,136 133.712,146.176 133.712,160.192 C133.712,174.272 142.736,184.384 156.304,184.384 Z M156.368,176.384 C147.728,176.384 142.288,170.112 142.288,160.192 C142.288,150.272 147.792,143.936 156.368,143.936 C164.944,143.936 170.448,150.272 170.448,160.192 C170.448,170.112 164.944,176.384 156.368,176.384 Z M200.08,184.448 C210.256,184.448 217.104,178.88 217.104,170.56 C217.104,164.288 213.264,159.424 205.264,157.312 L197.648,155.328 C194.256,154.432 192.144,152.768 192.144,149.568 C192.144,145.792 195.024,143.232 199.888,143.232 C204.24,143.232 207.312,145.344 207.504,149.696 L215.568,149.696 C215.184,141.568 209.296,136 200.08,136 C190.416,136 184.016,141.76 184.016,149.888 C184.016,155.84 187.472,160.704 195.92,163.008 L203.536,165.056 C206.992,166.016 208.976,167.808 208.976,170.816 C208.976,174.592 205.712,177.088 200.208,177.088 C194.896,177.088 191.504,174.72 191.504,170.752 L183.44,170.752 C183.76,179.136 190.416,184.448 200.08,184.448 Z" id="airyxOS" fill="#40A3FF" fill-rule="nonzero"></path>
    </g>
</svg>