<svg xmlns="http://www.w3.org/2000/svg" width="32" height="32" version="1.1">
 <g id="22-22-amarok" transform="translate(32)">
  <path  style="opacity:1;fill:#eff0f1" d="m 11,13 c -4.418278,0 -8,3.581722 -8,8 0,4.418278 3.581722,8 8,8 4.418278,0 8,-3.581722 8,-8 0,-1.278859 -0.300401,-2.488432 -0.833984,-3.560547 -0.0063,-0.01127 -0.02391,-0.02817 -0.0293,-0.03906 4.7e-4,-2.3e-4 0.0049,-0.002 0.0059,-0.002 0.18504,-0.21856 0.28125,-0.468277 0.28125,-0.710937 0,-0.17523 -0.0682,-0.355708 -0.128906,-0.492188 2.9e-4,2.6e-4 0.0059,0.0039 0.0059,0.0039 0,0 -0.0012,-0.123828 -0.07617,-0.298828 -0.075,-0.175 -0.173828,-0.300782 -0.173828,-0.300782 0,0 -0.2375,0.0375 -0.375,0.0625 -0.1297,0.0236 -0.473192,0.213728 -0.513672,0.236329 C 15.449382,14.221004 13.750717,12.958114 11,13 Z m 0.199219,0.400391 c 2.155353,0.0033 4.202168,0.946089 5.605469,2.582031 -0.771741,0.19072 -1.98692,0.633934 -2.41211,0.740234 -0.49498,0.12374 -0.725831,0.235377 -1.519531,0.160156 -0.90469,-0.0857 -1.310858,-0.09284 -1.548828,-0.08594 -0.35634,-0.0315 -0.53711,-0.109375 -0.53711,-0.109375 l 0.03125,0.351562 c -0.23691,0.180629 -0.713629,0.442695 -1.693359,0.708985 -0.6364,0.0707 -1.166185,-0.124026 -1.484375,0.05273 -0.3182,0.17678 -1.3271936,0.618447 -1.8398438,0.742188 C 5.2881213,18.666708 4.9087594,18.89929 4.5996094,19 c -0.48839,0.1591 0.9675593,2.494141 1.5996094,2.800781 0,0 -0.2175707,0.225906 -0.4003907,0.416016 -0.43969,0.30041 -0.7871095,0.320312 -0.7871093,0.320312 l 0.023437,0.240235 C 4.8254613,22.888749 4.6292983,22.965385 4.4472656,23.029297 4.1538435,22.21819 4.0025365,21.362546 4,20.5 4.0039433,19.125219 4.3856864,17.77797 5.1035156,16.605469 6.484172,14.59908 8.7636867,13.400526 11.199219,13.400391 Z m 6.65039,4.166015 c 0.491759,1.0074 0.748213,2.113362 0.75,3.234375 -0.0015,2.484939 -1.250164,4.803217 -3.324218,6.171875 -0.643998,0.37594 -1.34046,0.653735 -2.066407,0.824219 0.03056,-0.234525 0.06104,-0.474588 0.08399,-0.712891 0.17366,-0.25517 0.40625,-0.259765 0.40625,-0.259765 0,0 -0.299225,-0.849607 -0.269531,-1.873047 0.0372,-0.24274 0.09976,-0.471923 0.179687,-0.689453 h 0.302734 c 0,0 -0.0378,-0.417407 0.132813,-0.841797 0.56207,-0.85425 1.32894,-1.424461 1.65625,-1.675781 0.30878,-0.2371 1.732673,-0.601175 2.033203,-0.671875 0.30052,-0.0707 0.583883,-0.548029 0.601563,-0.689454 0.0177,-0.14142 -0.08984,-0.40625 -0.08984,-0.40625 l -0.425782,-0.0957 c 0.105842,0.075 0.04519,0.150251 -0.132812,0.181641 -0.057,0.0101 -0.136049,0.01482 -0.224609,0.01563 0,0 -0.09271,-0.363551 -0.19336,-0.394531 -0.0861,-0.0265 -0.312355,0.257884 -0.308593,0.355468 -0.0963,-0.0163 -0.187929,-0.03765 -0.261719,-0.06445 C 16.424201,19.8746 16.125,19.8125 16.125,19.8125 c 0,0 0.299609,-0.675391 0.724609,-1.337891 0.27092,-0.42232 0.70796,-0.730253 1,-0.908203 z m -5.484375,0.15625 c 0.48595,-0.004 0.847657,0.140625 0.847657,0.140625 0,0 0.04719,0.455305 -1.31836,1.271485 -0.41865,0.25021 -1.519531,0.416015 -1.519531,0.416015 0,0 -0.0236,-0.575308 0.394531,-1.074219 0.49929,-0.5958 1.109763,-0.749446 1.595703,-0.753906 z M 6.09375,18.990234 c 0.0451,-0.001 0.080439,0.0028 0.1054688,0.0098 0.1999998,0.0625 0.6374806,0.857776 0.4003906,1.199219 L 7,20.599609 c 0.8,-0.799996 1.9937687,-0.242768 2.1992188,0.300782 0.2847291,0.75329 0.2255118,0.663707 -0.9550782,0.835937 -0.5003,0.073 -1.5209181,-0.108339 -1.9238281,-0.417969 C 5.9174025,21.008729 4.88125,19.36875 4.96875,19.28125 c 0.0766,-0.0766 0.80919,-0.282506 1.125,-0.291016 z m 11.507812,0.59961 c -0.0675,0.0241 -0.128906,0.308593 -0.128906,0.308593 0,0 0.0522,0.02798 0.322266,-0.0078 0.0727,-0.0181 -0.125839,-0.324859 -0.19336,-0.300781 z"/>
  <path  style="opacity:0.001" d="M 0,10 V 32 H 22 V 10 Z"/>
 </g>
 <g id="amarok">
  <path  style="opacity:0.001" d="M -5e-7,-1e-6 V 32 H 32 V -1e-6 Z"/>
  <path  style="opacity:1;fill:#eff0f1" d="M 16,4.0015182 C 9.372583,4.0015182 4,9.3737613 4,16.000759 4,22.627757 9.372583,28 16,28 c 6.627417,0 12,-5.372243 12,-11.999241 0,-1.918168 -0.450602,-3.732412 -1.250976,-5.340483 -0.0095,-0.0169 -0.03587,-0.04225 -0.04395,-0.05859 7.05e-4,-3.45e-4 0.0073,-0.003 0.0089,-0.003 0.277559,-0.327818 0.421875,-0.7023704 0.421875,-1.0663373 0,-0.2628284 -0.1023,-0.5335282 -0.19336,-0.7382353 4.35e-4,3.9e-4 0.0089,0.00585 0.0089,0.00585 0,0 -0.0018,-0.1857301 -0.114255,-0.4482136 -0.112535,-0.262495 -0.260777,-0.4511561 -0.260777,-0.4511561 0,0 -0.35625,0.056245 -0.5625,0.093744 -0.19455,0.035398 -0.709788,0.3205718 -0.770508,0.3544711 C 22.674073,5.8329083 20.126075,3.9386932 16,4.0015182 Z m 0.298828,0.6005485 c 3.23303,0.00495 6.303253,1.4190437 8.408204,3.8728015 C 23.54942,8.7609301 21.726652,9.4257089 21.088867,9.5851489 20.346397,9.7707472 20.000121,9.9381925 18.80957,9.8253675 17.452535,9.6968259 16.843283,9.6861165 16.486328,9.6964659 15.951819,9.6492189 15.680663,9.5324138 15.680663,9.5324138 l 0.04687,0.5273102 c -0.355364,0.270926 -1.070443,0.664 -2.540038,1.06341 -0.954601,0.106043 -1.749278,-0.186029 -2.226563,0.07909 -0.477299,0.265152 -1.9907901,0.927611 -2.7597653,1.113211 -0.7689899,0.185607 -1.3380328,0.534457 -1.8017577,0.685513 -0.732585,0.238636 1.4513389,3.740975 2.399414,4.200906 0,0 -0.326356,0.338838 -0.600586,0.623985 -0.659535,0.450586 -1.1806643,0.480437 -1.180664,0.480437 l 0.035155,0.360329 C 6.7381919,18.833703 6.4439474,18.94865 6.1708984,19.044512 5.7307653,17.827928 5.5038048,16.544543 5.5,15.250807 5.5059149,13.188765 6.0785296,11.168019 7.1552735,9.4093795 9.226258,6.3999864 12.645531,4.6022692 16.298828,4.6020667 Z m 9.975586,6.2486273 c 0.737638,1.511004 1.122319,3.169841 1.124999,4.851255 -0.0023,3.727172 -1.875245,7.204369 -4.986326,9.257226 -0.965998,0.563875 -2.01069,0.980541 -3.099611,1.236251 0.04584,-0.351766 0.09156,-0.711837 0.125985,-1.069269 0.26049,-0.38273 0.609375,-0.389623 0.609375,-0.389623 0,0 -0.448837,-1.27433 -0.404297,-2.809392 0.0558,-0.364087 0.14964,-0.707841 0.269531,-1.034114 h 0.454101 c 0,0 -0.0567,-0.626071 0.19922,-1.262616 0.843104,-1.281293 1.99341,-2.136556 2.484375,-2.513512 0.463169,-0.355628 2.599009,-0.901706 3.049804,-1.007749 0.45078,-0.106044 0.875825,-0.821992 0.902345,-1.034116 0.02654,-0.212116 -0.13476,-0.609337 -0.13476,-0.609337 l -0.638674,-0.143541 c 0.158763,0.112493 0.06778,0.225363 -0.199218,0.272445 -0.0855,0.01515 -0.204073,0.02223 -0.336913,0.02345 0,0 -0.139065,-0.545292 -0.29004,-0.591759 -0.12915,-0.03975 -0.468532,0.386802 -0.462889,0.533168 -0.14445,-0.02445 -0.281894,-0.05647 -0.392579,-0.09667 C 24.136301,14.31277 23.6875,14.219627 23.6875,14.219627 c 0,0 0.449414,-1.013023 1.086913,-2.00671 0.406381,-0.63344 1.06194,-1.095311 1.500001,-1.362218 z m -8.226563,0.23436 c 0.728925,-0.006 1.271486,0.210924 1.271486,0.210924 0,0 0.07079,0.682915 -1.977541,1.907107 -0.627974,0.375291 -2.279296,0.623983 -2.279296,0.623983 0,0 -0.0354,-0.862908 0.591796,-1.611227 0.748935,-0.893643 1.664645,-1.124097 2.393555,-1.130787 z M 8.640625,12.9863 c 0.06765,-0.0015 0.1206585,0.0042 0.1582032,0.01471 0.2999997,0.09374 0.9562208,1.286582 0.6005859,1.798715 L 10,15.40022 c 1.2,-1.199919 2.990653,-0.36413 3.298828,0.451144 0.427094,1.129863 0.338268,0.995498 -1.432617,1.253826 C 11.115761,17.214674 9.5848337,16.942683 8.9804687,16.478267 8.3761038,16.013851 6.821875,13.554038 6.953125,13.422796 7.068025,13.307904 8.16691,12.999065 8.640625,12.9863 Z m 17.261718,0.899358 c -0.101248,0.03614 -0.193359,0.462861 -0.193359,0.462861 0,0 0.0783,0.04197 0.483399,-0.0117 0.10905,-0.02715 -0.188758,-0.487258 -0.29004,-0.451143 z"/>
 </g>
</svg>
