<?xml version="1.0" encoding="UTF-8" standalone="no"?>
<svg
   xmlns:dc="http://purl.org/dc/elements/1.1/"
   xmlns:cc="http://creativecommons.org/ns#"
   xmlns:rdf="http://www.w3.org/1999/02/22-rdf-syntax-ns#"
   xmlns:svg="http://www.w3.org/2000/svg"
   xmlns="http://www.w3.org/2000/svg"
   xmlns:sodipodi="http://sodipodi.sourceforge.net/DTD/sodipodi-0.dtd"
   xmlns:inkscape="http://www.inkscape.org/namespaces/inkscape"
   width="32"
   height="32"
   version="1.1"
   id="svg12"
   sodipodi:docname="applications.svg"
   inkscape:version="1.0.2 (e86c870879, 2021-01-15)">
  <metadata
     id="metadata18">
    <rdf:RDF>
      <cc:Work
         rdf:about="">
        <dc:format>image/svg+xml</dc:format>
        <dc:type
           rdf:resource="http://purl.org/dc/dcmitype/StillImage" />
      </cc:Work>
    </rdf:RDF>
  </metadata>
  <defs
     id="defs16" />
  <sodipodi:namedview
     pagecolor="#ffffff"
     bordercolor="#666666"
     borderopacity="1"
     objecttolerance="10"
     gridtolerance="10"
     guidetolerance="10"
     inkscape:pageopacity="0"
     inkscape:pageshadow="2"
     inkscape:window-width="1920"
     inkscape:window-height="958"
     id="namedview14"
     showgrid="false"
     inkscape:zoom="20.125522"
     inkscape:cx="33.345777"
     inkscape:cy="16"
     inkscape:window-x="0"
     inkscape:window-y="24"
     inkscape:window-maximized="1"
     inkscape:current-layer="22-22-applications-other" />
  <g
     id="22-22-applications-other"
     transform="translate(32)">
    <rect
       style="opacity:0.001"
       width="22"
       height="22"
       x="0"
       y="10"
       id="rect2" />
    <path
       style="opacity:1;fill:#eff0f1;stroke-width:0.999"
       d="m 5.006,13.008 c -1.106892,0 -1.998,0.891108 -1.998,1.998 v 2.997 c 0,1.106892 0.891108,1.998 1.998,1.998 h 2.997 c 1.106892,0 1.998,-0.891108 1.998,-1.998 v -2.997 c 0,-1.106892 -0.891108,-1.998 -1.998,-1.998 z m 8.991,0 c -1.106892,0 -1.998,0.891108 -1.998,1.998 v 2.997 c 0,1.106892 0.891108,1.998 1.998,1.998 h 2.997 c 1.106892,0 1.998,-0.891108 1.998,-1.998 v -2.997 c 0,-1.106892 -0.891108,-1.998 -1.998,-1.998 z m 0,0.999 h 2.997 c 0.570726,0 0.999,0.428274 0.999,0.999 v 2.997 c 0,0.570726 -0.428274,0.999 -0.999,0.999 h -2.997 c -0.570726,0 -0.999,-0.428274 -0.999,-0.999 v -2.997 c 0,-0.570726 0.428274,-0.999 0.999,-0.999 z m -8.991,7.992 c -1.106892,0 -1.998,0.891108 -1.998,1.998 v 2.997 c 0,1.106892 0.891108,1.998 1.998,1.998 h 2.997 c 1.106892,0 1.998,-0.891108 1.998,-1.998 v -2.997 c 0,-1.106892 -0.891108,-1.998 -1.998,-1.998 z m 8.991,0 c -1.106892,0 -1.998,0.891108 -1.998,1.998 v 2.997 c 0,1.106892 0.891108,1.998 1.998,1.998 h 2.997 c 1.106892,0 1.998,-0.891108 1.998,-1.998 v -2.997 c 0,-1.106892 -0.891108,-1.998 -1.998,-1.998 z m -8.991,0.999 h 2.997 c 0.5707259,0 0.999,0.428274 0.999,0.999 v 2.997 c 0,0.570726 -0.4282741,0.999 -0.999,0.999 H 5.006 c -0.5707259,0 -0.999,-0.428274 -0.999,-0.999 v -2.997 c 0,-0.570726 0.4282741,-0.999 0.999,-0.999 z"
       id="path4" />
  </g>
  <g
     id="applications-other"
     transform="translate(-22)">
    <rect
       style="opacity:0.001"
       width="32"
       height="32"
       x="22"
       y="0"
       id="rect7" />
    <path
       style="opacity:1;fill:#eff0f1"
       d="M 28.857422,4 C 27.274644,4 26,5.2746438 26,6.8574219 V 11.142578 C 26,12.725356 27.274644,14 28.857422,14 h 4.285156 C 34.725356,14 36,12.725356 36,11.142578 V 6.8574219 C 36,5.2746438 34.725356,4 33.142578,4 Z m 14,0 C 41.274644,4 40,5.2746438 40,6.8574219 V 11.142578 C 40,12.725356 41.274644,14 42.857422,14 h 4.285156 C 48.725356,14 50,12.725356 50,11.142578 V 6.8574219 C 50,5.2746438 48.725356,4 47.142578,4 Z m 0,1 h 4.285156 C 48.188653,5 49,5.8113466 49,6.8574219 V 11.142578 C 49,12.188653 48.188653,13 47.142578,13 H 42.857422 C 41.811347,13 41,12.188653 41,11.142578 V 6.8574219 C 41,5.8113466 41.811347,5 42.857422,5 Z m -14,13 C 27.274644,18 26,19.274643 26,20.857422 v 4.285156 C 26,26.725356 27.274644,28 28.857422,28 h 4.285156 C 34.725356,28 36,26.725356 36,25.142578 V 20.857422 C 36,19.274643 34.725356,18 33.142578,18 Z m 14,0 C 41.274644,18 40,19.274643 40,20.857422 v 4.285156 C 40,26.725356 41.274644,28 42.857422,28 h 4.285156 C 48.725356,28 50,26.725356 50,25.142578 V 20.857422 C 50,19.274643 48.725356,18 47.142578,18 Z m -14,1 h 4.285156 C 34.188653,19 35,19.811346 35,20.857422 v 4.285156 C 35,26.188653 34.188653,27 33.142578,27 H 28.857422 C 27.811347,27 27,26.188653 27,25.142578 V 20.857422 C 27,19.811346 27.811347,19 28.857422,19 Z"
       id="path9" />
  </g>
</svg>
