<svg xmlns="http://www.w3.org/2000/svg" width="32" height="32" version="1.1">
 <g id="22-22-audacious" transform="translate(32.000001,10.000001)">
  <rect  style="opacity:0.001" width="22" height="22" x="0" y="0"/>
  <path  style="opacity:1;fill:#eff0f1" d="M 11,2.9999999 A 8,8 0 0 0 3,11 a 8,8 0 0 0 8,8 8,8 0 0 0 8,-8 8,8 0 0 0 -8,-8.0000001 z m 0,1 c 3.877838,0 7,3.1221621 7,7.0000001 0,3.877838 -3.122162,7 -7,7 C 7.122162,18 4,14.877838 4,11 4,7.122162 7.122162,4 11,3.9999999 Z M 10.884766,7.001953 c -0.12448,-0.0047 -0.24966,0.0017 -0.38086,0.0078 -0.7791,0.036 -2.157712,0.0069 -2.695312,0.683594 -0.328501,0.4134 -0.175276,1.374709 0.328125,1.474609 0.6272,0.1244 1.687387,-0.1832219 2.367187,-0.107422 0.474,0.0529 0.60961,0.4580351 0.22461,0.7402351 -0.409,0.2991989 -1.336288,0.2093739 -1.804688,0.3593739 -1.6192,0.519 -2.201088,1.617422 -1.804688,3.107422 0.2586,0.971 1.175528,1.691422 2.173829,1.732422 1.92,-0.005 1.560234,-1.038 2.490234,-0.5 0.306,0.377 0.924141,0.497422 1.244141,0.232422 0.51379,-0.4254 1.286754,-0.652648 0.740234,-1.523438 -0.26172,-0.417 0.350191,-0.958103 0.212891,-3.033203 -0.1219,-1.840799 -1.22645,-3.103198 -3.09375,-3.173828 z m -0.248047,4.449219 c 0.43251,0 0.773437,0.322799 0.773437,0.724609 0,0.40183 -0.340937,0.732422 -0.773437,0.732422 -0.43251,0 -0.791016,-0.330572 -0.791016,-0.732422 0,-0.40183 0.358536,-0.724609 0.791016,-0.724609 z"/>
 </g>
 <g id="audacious">
  <rect  style="opacity:0.001" width="32" height="32" x="0" y="0"/>
  <path  style="opacity:1;fill:#eff0f1" d="M 16 4 A 12 12 0 0 0 4 16 A 12 12 0 0 0 16 28 A 12 12 0 0 0 28 16 A 12 12 0 0 0 16 4 z M 16 5 C 22.093746 5 27 9.9062544 27 16 C 27 22.093745 22.093746 27 16 27 C 9.906255 27 5 22.093745 5 16 C 5 9.9062544 9.906255 5.0000001 16 5 z M 16.105469 10.001953 C 15.909923 9.9949432 15.711963 10.004552 15.505859 10.013672 C 14.281967 10.067672 12.117955 10.024023 11.273438 11.039062 C 10.757395 11.659161 10.996313 13.102103 11.787109 13.251953 C 12.772381 13.438554 14.437958 12.976145 15.505859 13.089844 C 16.250469 13.169194 16.466126 13.777872 15.861328 14.201172 C 15.218827 14.64997 13.75925 14.515233 13.023438 14.740234 C 10.479826 15.518734 9.5647939 17.165391 10.1875 19.400391 C 10.593737 20.856891 12.035281 21.938499 13.603516 22 C 16.619656 21.9925 16.056636 20.443 17.517578 21.25 C 17.998275 21.8155 18.968012 21.995156 19.470703 21.597656 C 20.277818 20.959557 21.493298 20.618685 20.634766 19.3125 C 20.223628 18.687 21.184436 17.876322 20.96875 14.763672 C 20.777257 12.002473 19.040773 10.107898 16.107422 10.001953 L 16.105469 10.001953 z M 15.011719 17 C 15.564872 17 16 17.442596 16 17.994141 C 16 18.545714 15.564859 19 15.011719 19 C 14.458567 19 14 18.545743 14 17.994141 C 14 17.442567 14.458606 17 15.011719 17 z"/>
 </g>
</svg>
