<svg xmlns="http://www.w3.org/2000/svg" width="32" height="32" version="1.1">
 <g id="bookmarks">
  <rect  style="opacity:0.001" width="32" height="32" x="0" y="0"/>
  <path  style="opacity:1;fill:#eff0f1" d="M 13.5,4 C 11.006999,4 9,6.007 9,8.5 v 15 c 0,2.493001 2.006999,4.5 4.5,4.5 l 3,-4.5 3,4.5 C 21.992999,28 24,25.993001 24,23.5 V 8.5 C 24,6.007 21.992999,4 19.5,4 h -3 z m 0,1 h 3 3 C 21.456296,5 23,6.5437028 23,8.5 v 15 c 0,1.78792 -1.311995,3.171047 -3.027344,3.40625 l -2.640625,-3.960938 a 1.0001,1.0001 0 0 0 -1.664062,0 L 13.027344,26.90625 C 11.311993,26.671047 10,25.28792 10,23.5 V 8.5 C 10,6.5437028 11.543702,5 13.5,5 Z m 3,2 L 15.109375,9.9628906 12,10.4375 14.25,12.744141 13.720703,16 16.5,14.460938 19.28125,16 18.75,12.744141 21,10.4375 17.890625,9.9628906 Z"/>
 </g>
 <g id="22-22-bookmarks" transform="translate(32,10)">
  <rect  style="opacity:0.001" width="22" height="22" x="0" y="0"/>
  <path  style="opacity:1;fill:#eff0f1" d="M 9,3 C 7.338,3 6,4.338 6,6 v 10 c 0,1.662 1.338,3 3,3 l 2,-3 2,3 c 1.662,0 3,-1.338 3,-3 V 6 C 16,4.338 14.662,3 13,3 h -2 z m 0,1 h 2 2 c 1.125297,0 2,0.874703 2,2 v 10 c 0,0.95831 -0.694856,1.618751 -1.578125,1.828125 l -1.589844,-2.382813 a 1.0001,1.0001 0 0 0 -1.664062,0 L 8.578125,17.828125 C 7.6948556,17.618751 7,16.95831 7,16 V 6 C 7,4.874703 7.8747028,4 9,4 Z M 11,5 10.072266,6.9746094 8,7.2910156 9.5,8.8300781 9.1464844,11 11,9.9746094 12.853516,11 12.5,8.8300781 14,7.2910156 11.927734,6.9746094 Z"/>
 </g>
</svg>
