<svg xmlns="http://www.w3.org/2000/svg" width="32" height="32" version="1.1">
 <g id="22-22-cantata" transform="translate(32)">
  <path  style="opacity:0.001" d="M 0,10 V 32 H 22 V 10 Z"/>
  <path  style="opacity:1;fill:#eff0f1" transform="translate(-32)" d="M 43 13 A 7.9998002 8 0 0 0 35 21 A 7.9998002 8 0 0 0 36.966797 26.246094 C 36.766687 26.747057 36.738765 27.26253 36.931641 27.728516 C 37.422883 28.915763 39.146383 29.329056 40.832031 28.699219 A 7.9998002 8 0 0 0 43 29 A 7.9998002 8 0 0 0 51 21 A 7.9998002 8 0 0 0 43 13 z M 43.427734 14.021484 A 7 7 0 0 1 50 21 A 7 7 0 0 1 43 28 A 7 7 0 0 1 42.0625 27.927734 C 42.780416 27.242075 43.199219 26.334867 43.199219 25.710938 L 43.199219 17 C 43.199219 17 46.400391 17.39961 46.400391 20.599609 C 46.400391 22.999609 45.599559 23.800781 43.599609 25.800781 C 45.599559 24.600781 47.199219 22.999609 47.199219 20.599609 C 47.199219 17.39961 44.730036 15.960525 44.097656 15.328125 C 43.850231 15.080693 43.609224 14.503417 43.427734 14.021484 z M 42 14.078125 L 42 24.044922 C 41.16282 23.683722 40.190677 23.781336 39.154297 24.210938 C 38.484525 24.488304 37.928751 24.894196 37.523438 25.357422 A 7 7 0 0 1 36 21 A 7 7 0 0 1 42 14.078125 z"/>
 </g>
 <g id="cantata">
  <path  style="opacity:0.001" d="M -5e-7,-1e-6 V 32 H 32 V -1e-6 Z"/>
  <path  style="opacity:1;fill:#eff0f1" d="M 16,4 A 11.9997,12 0 0 0 4,16 11.9997,12 0 0 0 7.1660156,24.099609 c -0.2038811,0.690532 -0.2198176,1.380892 0.033203,1.992188 0.7243236,1.750565 3.2338834,2.375944 5.7207034,1.5 A 11.9997,12 0 0 0 16,28 11.9997,12 0 0 0 28,16 11.9997,12 0 0 0 16,4 Z m 0.761719,1.0371094 A 11,11 0 0 1 27,16 11,11 0 0 1 16,27 11,11 0 0 1 14.283203,26.851562 C 15.549371,25.807737 16,24.151866 16,23.066406 V 10 c 0,0 5.800781,0.598438 5.800781,5.398438 0,3.6 -1.201247,4.802734 -4.201172,7.802734 C 20.599534,21.401171 23,18.998438 23,15.398438 23,10.598439 18.895836,8.4407875 17.947266,7.4921875 17.454886,6.9997959 16.958171,5.6065302 16.761719,5.0371094 Z M 15,5.0546875 V 20.367188 c -1.25577,-0.5418 -2.912226,-0.394402 -4.466797,0.25 -1.3060681,0.540869 -2.3332212,1.455491 -2.9355468,2.464843 A 11,11 0 0 1 5,16 11,11 0 0 1 15,5.0546875 Z"/>
 </g>
</svg>
