<?xml version="1.0" encoding="UTF-8" standalone="no"?>
<svg
   xmlns:dc="http://purl.org/dc/elements/1.1/"
   xmlns:cc="http://creativecommons.org/ns#"
   xmlns:rdf="http://www.w3.org/1999/02/22-rdf-syntax-ns#"
   xmlns:svg="http://www.w3.org/2000/svg"
   xmlns="http://www.w3.org/2000/svg"
   xmlns:sodipodi="http://sodipodi.sourceforge.net/DTD/sodipodi-0.dtd"
   xmlns:inkscape="http://www.inkscape.org/namespaces/inkscape"
   width="70"
   height="64"
   version="1.0"
   id="svg55"
   sodipodi:docname="computer.svg"
   inkscape:version="1.0.2 (e86c870879, 2021-01-15)">
  <metadata
     id="metadata59">
    <rdf:RDF>
      <cc:Work
         rdf:about="">
        <dc:format>image/svg+xml</dc:format>
        <dc:type
           rdf:resource="http://purl.org/dc/dcmitype/StillImage" />
        <dc:title></dc:title>
      </cc:Work>
    </rdf:RDF>
  </metadata>
  <sodipodi:namedview
     pagecolor="#161616"
     bordercolor="#666666"
     borderopacity="1"
     objecttolerance="10"
     gridtolerance="10"
     guidetolerance="10"
     inkscape:pageopacity="0"
     inkscape:pageshadow="2"
     inkscape:window-width="1920"
     inkscape:window-height="958"
     id="namedview57"
     showgrid="false"
     inkscape:zoom="10.784825"
     inkscape:cx="24.928174"
     inkscape:cy="26.964087"
     inkscape:window-x="0"
     inkscape:window-y="24"
     inkscape:window-maximized="1"
     inkscape:current-layer="16-16-computer" />
  <defs
     id="defs3">
    <style
       id="current-color-scheme"
       type="text/css">.ColorScheme-Text { color:#363636; }</style>
  </defs>
  <g
     id="16-16-computer">
    <rect
       y="48"
       width="16"
       height="16"
       rx="0"
       ry="0"
       fill="none"
       id="rect5" />
    <path
       class="ColorScheme-Text"
       d="m4.5 62h7c0.277 0 0.5 0.223 0.5 0.5s-0.223 0.5-0.5 0.5h-7c-0.277 0-0.5-0.223-0.5-0.5s0.223-0.5 0.5-0.5z"
       fill="currentColor"
       id="path7"
       style="fill:#ffffff;fill-opacity:1" />
    <path
       class="ColorScheme-Text"
       d="m2 50c-1.108 0-2 0.892-2 2v7c0 1.108 0.892 2 2 2h12c1.108 0 2-0.892 2-2v-7c0-1.108-0.892-2-2-2zm0 1h12c0.554 0 1 0.446 1 1v7c0 0.554-0.446 1-1 1h-12c-0.554 0-1-0.446-1-1v-7c0-0.554 0.446-1 1-1z"
       fill="#ffffff"
       id="path9"
       style="fill:#ffffff;fill-opacity:1" />
  </g>
  <g
     id="22-22-computer"
     class="ColorScheme-Text"
     fill="currentColor"
     style="fill:#ffffff;fill-opacity:1">
    <rect
       x="16"
       y="42"
       width="22"
       height="22"
       opacity="0"
       id="rect12"
       style="fill:#ffffff;fill-opacity:1" />
    <path
       d="m20 45c-1.662 0-3 1.338-3 3v9c0 1.662 1.338 3 3 3h14c1.662 0 3-1.338 3-3v-9c0-1.662-1.338-3-3-3zm0 1h14c1.108 0 2 0.892 2 2v9c0 1.108-0.892 2-2 2h-14c-1.108 0-2-0.892-2-2v-9c0-1.108 0.892-2 2-2z"
       id="path14"
       style="fill:#ffffff;fill-opacity:1" />
    <rect
       x="21"
       y="61"
       width="12"
       height="1"
       rx=".5"
       ry=".5"
       id="rect16"
       style="fill:#ffffff;fill-opacity:1" />
  </g>
  <g
     id="computer">
    <rect
       x="38"
       y="32"
       width="32"
       height="32"
       opacity="0"
       id="rect19" />
    <g
       class="ColorScheme-Text"
       fill="currentColor"
       id="g27"
       style="fill:#ffffff;fill-opacity:1">
      <path
         d="m53.887 33a15 15 0 0 0-14.887 15 15 15 0 0 0 15 15 15 15 0 0 0 15-15 15 15 0 0 0-15-15 15 15 0 0 0-0.11328 0zm0.11328 1a14 14 0 0 1 14 14 14 14 0 0 1-14 14 14 14 0 0 1-14-14 14 14 0 0 1 14-14z"
         id="path21"
         style="fill:#ffffff;fill-opacity:1" />
      <path
         d="m47 40c-1.662 0-3 1.338-3 3v9c0 1.662 1.338 3 3 3h14c1.662 0 3-1.338 3-3v-9c0-1.662-1.338-3-3-3zm0 1h14c1.108 0 2 0.892 2 2v9c0 1.108-0.892 2-2 2h-14c-1.108 0-2-0.892-2-2v-9c0-1.108 0.892-2 2-2z"
         id="path23"
         style="fill:#ffffff;fill-opacity:1" />
      <rect
         x="48"
         y="56"
         width="12"
         height="1"
         rx=".5"
         ry=".5"
         id="rect25"
         style="fill:#ffffff;fill-opacity:1" />
    </g>
  </g>
  <g
     id="computer-laptop"
     transform="translate(0,-32)">
    <rect
       x="38"
       y="32"
       width="32"
       height="32"
       opacity="0"
       id="rect30" />
    <g
       class="ColorScheme-Text"
       fill="currentColor"
       id="g38"
       style="fill:#ffffff;fill-opacity:1">
      <path
         d="m53.887 33a15 15 0 0 0-14.887 15 15 15 0 0 0 15 15 15 15 0 0 0 15-15 15 15 0 0 0-15-15 15 15 0 0 0-0.11328 0zm0.11328 1a14 14 0 0 1 14 14 14 14 0 0 1-14 14 14 14 0 0 1-14-14 14 14 0 0 1 14-14z"
         id="path32"
         style="fill:#ffffff;fill-opacity:1" />
      <path
         d="m47 40c-1.662 0-3 1.338-3 3v9c0 1.662 1.338 3 3 3h14c1.662 0 3-1.338 3-3v-9c0-1.662-1.338-3-3-3zm0 1h14c1.108 0 2 0.892 2 2v9c0 1.108-0.892 2-2 2h-14c-1.108 0-2-0.892-2-2v-9c0-1.108 0.892-2 2-2z"
         id="path34"
         style="fill:#ffffff;fill-opacity:1" />
      <rect
         x="44"
         y="55"
         width="20"
         height="1"
         rx=".5"
         ry=".5"
         id="rect36"
         style="fill:#ffffff;fill-opacity:1" />
    </g>
  </g>
  <g
     id="22-22-computer-laptop"
     transform="translate(0,-32)"
     class="ColorScheme-Text"
     fill="currentColor"
     style="fill:#ffffff;fill-opacity:1">
    <rect
       x="16"
       y="42"
       width="22"
       height="22"
       opacity="0"
       id="rect41"
       style="fill:#ffffff;fill-opacity:1" />
    <path
       d="m20 45c-1.662 0-3 1.338-3 3v9c0 1.662 1.338 3 3 3h14c1.662 0 3-1.338 3-3v-9c0-1.662-1.338-3-3-3zm0 1h14c1.108 0 2 0.892 2 2v9c0 1.108-0.892 2-2 2h-14c-1.108 0-2-0.892-2-2v-9c0-1.108 0.892-2 2-2z"
       id="path43"
       style="fill:#ffffff;fill-opacity:1" />
    <rect
       x="17"
       y="60"
       width="20"
       height="1"
       rx=".5"
       ry=".5"
       id="rect45"
       style="fill:#ffffff;fill-opacity:1" />
  </g>
  <g
     id="16-16-computer-laptop">
    <rect
       y="16"
       width="16"
       height="16"
       rx="0"
       ry="0"
       fill="none"
       opacity="0"
       id="rect48" />
    <path
       class="ColorScheme-Text"
       d="m2 18c-1.108 0-2 0.892-2 2v7c0 1.108 0.892 2 2 2h12c1.108 0 2-0.892 2-2v-7c0-1.108-0.892-2-2-2zm0 1h12c0.554 0 1 0.446 1 1v7c0 0.554-0.446 1-1 1h-12c-0.554 0-1-0.446-1-1v-7c0-0.554 0.446-1 1-1z"
       fill="#ffffff"
       id="path50"
       style="fill:#ffffff;fill-opacity:1" />
    <rect
       y="29"
       width="16"
       height="1"
       rx=".5"
       ry=".5"
       class="ColorScheme-Text"
       fill="currentColor"
       id="rect52"
       style="fill:#ffffff;fill-opacity:1" />
  </g>
</svg>
