<?xml version="1.0" encoding="UTF-8" standalone="no"?>
<svg
   xmlns:dc="http://purl.org/dc/elements/1.1/"
   xmlns:cc="http://creativecommons.org/ns#"
   xmlns:rdf="http://www.w3.org/1999/02/22-rdf-syntax-ns#"
   xmlns:svg="http://www.w3.org/2000/svg"
   xmlns="http://www.w3.org/2000/svg"
   xmlns:sodipodi="http://sodipodi.sourceforge.net/DTD/sodipodi-0.dtd"
   xmlns:inkscape="http://www.inkscape.org/namespaces/inkscape"
   width="32"
   height="32"
   version="1.1"
   id="svg58"
   sodipodi:docname="disk.svg"
   inkscape:version="1.0.2 (e86c870879, 2021-01-15)">
  <metadata
     id="metadata64">
    <rdf:RDF>
      <cc:Work
         rdf:about="">
        <dc:format>image/svg+xml</dc:format>
        <dc:type
           rdf:resource="http://purl.org/dc/dcmitype/StillImage" />
      </cc:Work>
    </rdf:RDF>
  </metadata>
  <defs
     id="defs62" />
  <sodipodi:namedview
     pagecolor="#ffffff"
     bordercolor="#666666"
     borderopacity="1"
     objecttolerance="10"
     gridtolerance="10"
     guidetolerance="10"
     inkscape:pageopacity="0"
     inkscape:pageshadow="2"
     inkscape:window-width="1920"
     inkscape:window-height="958"
     id="namedview60"
     showgrid="false"
     inkscape:zoom="8.1741544"
     inkscape:cx="16"
     inkscape:cy="16"
     inkscape:window-x="0"
     inkscape:window-y="24"
     inkscape:window-maximized="1"
     inkscape:current-layer="svg58" />
  <g
     id="disk-quota-critical"
     transform="translate(96)">
    <rect
       style="opacity:0.001"
       width="32"
       height="32"
       x="0"
       y="0"
       id="rect2" />
    <path
       style="opacity:1;fill:#da4453"
       d="M 7,5 C 5.3379999,5 4,6.338 4,8 V 9.5 14 21.5 C 4,23.993001 6.007,26 8.5,26 h 15 C 25.993,26 28,23.993001 28,21.5 V 17 14 11 C 28,8.5069999 25.993,7 23.5,7 H 17.085938 C 16.567597,6.1063016 16,5 14,5 Z M 5,11 H 17.5 24 c 1.687946,0 3.056234,1.312991 3,3 v 3 4.5 C 27,23.187946 25.187946,25 23.5,25 H 8.5 C 6.8120541,25 5,23.187946 5,21.5 V 14 Z m 11,2 c -0.554,0 -1,0.446 -1,1 v 4 c 0,0.554 0.446,1 1,1 0.554,0 1,-0.446 1,-1 v -4 c 0,-0.554 -0.446,-1 -1,-1 z m 0,8 a 1,1 0 0 0 -1,1 1,1 0 0 0 1,1 1,1 0 0 0 1,-1 1,1 0 0 0 -1,-1 z"
       id="path4" />
  </g>
  <g
     id="22-22-disk-quota-critical"
     transform="translate(96,-22)">
    <rect
       style="opacity:0.001"
       width="22"
       height="22"
       x="0"
       y="0"
       id="rect7" />
    <path
       style="opacity:1;fill:#da4453"
       d="M 5,4 C 3.892,4 3,4.892 3,6 v 1 3 5 c 0,1.662 1.338,3 3,3 h 10 c 1.662,0 3,-1.338 3,-3 V 12 10 8 C 19,6.338 17.662,5 16,5 H 11.724609 C 11.379048,4.4042011 10.74107,4 10,4 Z M 4,8 h 8 4 c 1.125297,0 2,0.8747028 2,2 v 2 3 c 0,1.125297 -0.874703,2 -2,2 H 6 C 4.8747028,17 4,16.125297 4,15 v -5 z m 7,1 c -0.554,0 -1,0.446 -1,1 v 2 c 0,0.554 0.446,1 1,1 0.554,0 1,-0.446 1,-1 V 10 C 12,9.446 11.554,9 11,9 Z m 0,5 a 1,1 0 0 0 -1,1 1,1 0 0 0 1,1 1,1 0 0 0 1,-1 1,1 0 0 0 -1,-1 z"
       id="path9" />
  </g>
  <g
     id="22-22-disk-quota"
     transform="translate(0,-22)">
    <rect
       style="opacity:0.001"
       width="22"
       height="22"
       x="0"
       y="0"
       id="rect12" />
    <path
       style="opacity:1;fill:#dedede;fill-opacity:1"
       d="M 5,4 C 3.892,4 3,4.892 3,6 v 1 3 5 c 0,1.662 1.338,3 3,3 h 10 c 1.662,0 3,-1.338 3,-3 V 12 10 8 C 19,6.338 17.662,5 16,5 H 11.724609 C 11.379048,4.4042011 10.74107,4 10,4 Z M 4,8 h 8 4 c 1.125297,0 2,0.8747028 2,2 v 2 3 c 0,1.125297 -0.874703,2 -2,2 H 6 C 4.8747028,17 4,16.125297 4,15 v -5 z m 4.5,2 c -0.6761613,-0.00956 -0.6761613,1.009563 0,1 h 5 c 0.676161,0.0096 0.676161,-1.0095626 0,-1 z m 0,2 c -0.6761613,-0.0096 -0.6761613,1.009563 0,1 h 5 c 0.676161,0.0096 0.676161,-1.009563 0,-1 z m 0,2 c -0.6761613,-0.0096 -0.6761613,1.009563 0,1 h 5 c 0.676161,0.0096 0.676161,-1.009563 0,-1 z"
       id="path14" />
  </g>
  <g
     id="22-22-disk-quota-low"
     transform="translate(32,-22)">
    <rect
       style="opacity:0.001"
       width="22"
       height="22"
       x="0"
       y="0"
       id="rect17" />
    <path
       style="opacity:1;fill:#dedede;fill-opacity:1"
       d="M 5,4 C 3.892,4 3,4.892 3,6 v 1 3 5 c 0,1.662 1.338,3 3,3 h 10 c 1.662,0 3,-1.338 3,-3 V 12 10 8 C 19,6.338 17.662,5 16,5 H 11.724609 C 11.379048,4.4042011 10.74107,4 10,4 Z M 4,8 h 8 4 c 1.125297,0 2,0.8747028 2,2 v 2 3 c 0,1.125297 -0.874703,2 -2,2 H 6 C 4.8747028,17 4,16.125297 4,15 v -5 z"
       id="path19" />
    <path
       style="opacity:1;fill:#f67400"
       transform="translate(-22)"
       d="m 30.5,12 c -0.676161,-0.0096 -0.676161,1.009563 0,1 h 5 c 0.676161,0.0096 0.676161,-1.009563 0,-1 z m 0,2 c -0.676161,-0.0096 -0.676161,1.009563 0,1 h 5 c 0.676161,0.0096 0.676161,-1.009563 0,-1 z"
       id="path21" />
    <path
       style="opacity:0.5;fill:#dedede;fill-opacity:1"
       d="m 8.5,10 c -0.6761613,-0.00956 -0.6761613,1.009563 0,1 h 5 c 0.676161,0.0096 0.676161,-1.0095626 0,-1 z"
       id="path23" />
  </g>
  <g
     id="22-22-disk-quota-high"
     transform="translate(64,-22)">
    <rect
       style="opacity:0.001"
       width="22"
       height="22"
       x="0"
       y="0"
       id="rect26" />
    <path
       style="opacity:1;fill:#dedede;fill-opacity:1"
       d="M 5,4 C 3.892,4 3,4.892 3,6 v 1 3 5 c 0,1.662 1.338,3 3,3 h 10 c 1.662,0 3,-1.338 3,-3 V 12 10 8 C 19,6.338 17.662,5 16,5 H 11.724609 C 11.379048,4.4042011 10.74107,4 10,4 Z M 4,8 h 8 4 c 1.125297,0 2,0.8747028 2,2 v 2 3 c 0,1.125297 -0.874703,2 -2,2 H 6 C 4.8747028,17 4,16.125297 4,15 v -5 z"
       id="path28" />
    <path
       style="opacity:1;fill:#da4453"
       d="m 8.5,14 c -0.6761613,-0.0096 -0.6761613,1.009563 0,1 h 5 c 0.676161,0.0096 0.676161,-1.009563 0,-1 z"
       id="path30" />
    <path
       style="opacity:0.5;fill:#dedede;fill-opacity:1"
       transform="translate(-44)"
       d="m 52.5,10 c -0.676161,-0.00956 -0.676161,1.009563 0,1 h 5 c 0.676161,0.0096 0.676161,-1.0095626 0,-1 z m 0,2 c -0.676161,-0.0096 -0.676161,1.009563 0,1 h 5 c 0.676161,0.0096 0.676161,-1.009563 0,-1 z"
       id="path32" />
  </g>
  <g
     id="disk-quota">
    <rect
       style="opacity:0.001"
       width="32"
       height="32"
       x="0"
       y="0"
       id="rect35" />
    <path
       style="opacity:1;fill:#dedede;fill-opacity:1"
       d="M 7 5 C 5.3379999 5 4 6.338 4 8 L 4 9.5 L 4 14 L 4 21.5 C 4 23.993001 6.007 26 8.5 26 L 23.5 26 C 25.993 26 28 23.993001 28 21.5 L 28 17 L 28 14 L 28 11 C 28 8.5069999 25.993 7 23.5 7 L 17.085938 7 C 16.567597 6.1063016 16 5 14 5 L 7 5 z M 5 11 L 17.5 11 L 24 11 C 25.687946 11 27.056234 12.312991 27 14 L 27 17 L 27 21.5 C 27 23.187946 25.187946 25 23.5 25 L 8.5 25 C 6.8120541 25 5 23.187946 5 21.5 L 5 14 L 5 11 z M 11.5 14 C 11.223 14 11 14.223 11 14.5 C 11 14.777 11.223 15 11.5 15 L 20.5 15 C 20.777 15 21 14.777 21 14.5 C 21 14.223 20.777 14 20.5 14 L 11.5 14 z M 11.5 17 C 11.223 17 11 17.223 11 17.5 C 11 17.777 11.223 18 11.5 18 L 20.5 18 C 20.777 18 21 17.777 21 17.5 C 21 17.223 20.777 17 20.5 17 L 11.5 17 z M 11.5 20 C 11.223 20 11 20.223 11 20.5 C 11 20.777 11.223 21 11.5 21 L 20.5 21 C 20.777 21 21 20.777 21 20.5 C 21 20.223 20.777 20 20.5 20 L 11.5 20 z"
       id="path37" />
  </g>
  <g
     id="disk-quota-low"
     transform="translate(32)">
    <rect
       style="opacity:0.001"
       width="32"
       height="32"
       x="0"
       y="0"
       id="rect40" />
    <path
       style="opacity:1;fill:#dedede;fill-opacity:1"
       d="m 7.0000004,4.9999998 c -1.6620001,0 -3.0000001,1.3380001 -3.0000001,3.0000001 V 9.5 14 21.499999 C 4.0000003,23.993 6.0070004,26 8.5000004,26 H 23.500001 C 25.993001,26 28,23.993 28,21.499999 V 17 14 11 C 28,8.5069999 25.993001,7 23.500001,7 H 17.086914 C 16.568573,6.1063016 16,4.9999998 14,4.9999998 Z M 5,11 H 17.500001 24 c 1.687946,0 3.056234,1.312991 3,3 v 3 4.499999 C 27,23.187945 25.187947,25 23.500001,25 H 8.5000004 C 6.8120545,25 5,23.187945 5,21.499999 V 14 Z"
       id="path42" />
    <path
       style="opacity:0.5;fill:#dedede;fill-opacity:1"
       d="m 11.5,14 c -0.277,0 -0.5,0.223 -0.5,0.5 0,0.277 0.223,0.5 0.5,0.5 h 9 C 20.777,15 21,14.777 21,14.5 21,14.223 20.777,14 20.5,14 Z"
       id="path44" />
    <path
       style="opacity:1;fill:#f67400"
       transform="translate(-32)"
       d="M 43.5 17 C 43.223 17 43 17.223 43 17.5 C 43 17.777 43.223 18 43.5 18 L 52.5 18 C 52.777 18 53 17.777 53 17.5 C 53 17.223 52.777 17 52.5 17 L 43.5 17 z M 43.5 20 C 43.223 20 43 20.223 43 20.5 C 43 20.777 43.223 21 43.5 21 L 52.5 21 C 52.777 21 53 20.777 53 20.5 C 53 20.223 52.777 20 52.5 20 L 43.5 20 z"
       id="path46" />
  </g>
  <g
     id="disk-quota-high"
     transform="translate(64)">
    <rect
       style="opacity:0.001"
       width="32"
       height="32"
       x="0"
       y="0"
       id="rect49" />
    <path
       style="opacity:1;fill:#dedede;fill-opacity:1"
       d="m 7.0000004,4.9999998 c -1.6620001,0 -3.0000001,1.3380001 -3.0000001,3.0000001 V 9.5 14 21.499999 C 4.0000003,23.993 6.0070004,26 8.5000004,26 H 23.500001 C 25.993001,26 28,23.993 28,21.499999 V 17 14 11 C 28,8.5069999 25.993001,7 23.500001,7 H 17.086914 C 16.568573,6.1063016 16,4.9999998 14,4.9999998 Z M 5,11 H 17.500001 24 c 1.687946,0 3.056234,1.312991 3,3 v 3 4.499999 C 27,23.187945 25.187947,25 23.500001,25 H 8.5000004 C 6.8120545,25 5,23.187945 5,21.499999 V 14 Z"
       id="path51" />
    <path
       style="opacity:0.5;fill:#dedede;fill-opacity:1"
       transform="translate(-64)"
       d="M 75.5 14 C 75.223 14 75 14.223 75 14.5 C 75 14.777 75.223 15 75.5 15 L 84.5 15 C 84.777 15 85 14.777 85 14.5 C 85 14.223 84.777 14 84.5 14 L 75.5 14 z M 75.5 17 C 75.223 17 75 17.223 75 17.5 C 75 17.777 75.223 18 75.5 18 L 84.5 18 C 84.777 18 85 17.777 85 17.5 C 85 17.223 84.777 17 84.5 17 L 75.5 17 z"
       id="path53" />
    <path
       style="opacity:1;fill:#da4453"
       d="m 11.5,20 c -0.277,0 -0.5,0.223 -0.5,0.5 0,0.277 0.223,0.5 0.5,0.5 h 9 C 20.777,21 21,20.777 21,20.5 21,20.223 20.777,20 20.5,20 Z"
       id="path55" />
  </g>
</svg>
