<svg xmlns="http://www.w3.org/2000/svg" version="1.1" viewBox="0 0 22 22">
 <g id="distribute-horizontal-x">
  <path  style="opacity:0.001" d="m 0,-2e-5 h 22 v 22 H 0 Z"/>
  <path  style="opacity:1;fill:#eff0f1" d="M 4.5 7 C 3.669 7 3 7.669 3 8.5 L 3 13.5 C 3 14.331 3.669 15 4.5 15 L 6.5 15 C 7.331 15 8 14.331 8 13.5 L 8 8.5 C 8 7.669 7.331 7 6.5 7 L 4.5 7 z M 15.5 7 C 14.669 7 14 7.669 14 8.5 L 14 13.5 C 14 14.331 14.669 15 15.5 15 L 17.5 15 C 18.331 15 19 14.331 19 13.5 L 19 8.5 C 19 7.669 18.331 7 17.5 7 L 15.5 7 z M 4.5 8 L 6.5 8 C 6.7942972 8 7 8.2057028 7 8.5 L 7 13.5 C 7 13.794297 6.7942972 14 6.5 14 L 4.5 14 C 4.2057028 14 4 13.794297 4 13.5 L 4 8.5 C 4 8.2057028 4.2057028 8 4.5 8 z M 15.5 8 L 17.5 8 C 17.794297 8 18 8.2057028 18 8.5 L 18 13.5 C 18 13.794297 17.794297 14 17.5 14 L 15.5 14 C 15.205703 14 15 13.794297 15 13.5 L 15 8.5 C 15 8.2057028 15.205703 8 15.5 8 z M 9.5 9 A 0.5 0.5 0 0 0 9 9.5 L 9 12.5 A 0.5 0.5 0 0 0 9.5 13 A 0.5 0.5 0 0 0 10 12.5 L 10 12 L 12 12 L 12 12.5 A 0.5 0.5 0 0 0 12.5 13 A 0.5 0.5 0 0 0 13 12.5 L 13 9.5 A 0.5 0.5 0 0 0 12.5 9 A 0.5 0.5 0 0 0 12 9.5 L 12 10 L 10 10 L 10 9.5 A 0.5 0.5 0 0 0 9.5 9 z"/>
 </g>
</svg>
