<svg xmlns="http://www.w3.org/2000/svg" width="32" height="32" version="1">
 <g id="22-22-kdeconnect" transform="translate(32,10)">
  <rect  style="opacity:0.001" width="22" height="22" x="0" y="0"/>
  <path  style="opacity:1;fill:#eff0f1" d="M 8,3 C 6.892,3 6,3.892 6,5 v 12 c 0,1.108 0.892,2 2,2 h 5 2 c 1.108,0 2,-0.892 2,-2 V 5 C 17,3.892 16.107927,3 15,3 h -2 -3 z m 0,1 h 1 v 1 c 5.52e-5,0.5522619 0.4477381,0.9999448 1,1 h 3 c 0.552262,-5.52e-5 0.999945,-0.4477381 1,-1 V 4 h 1 c 0.571189,0 1,0.4287467 1,1 V 16 H 7 V 5 C 7,4.4287028 7.4287028,4 8,4 Z m 3,0 h 1 V 5 H 11 Z M 8,17 h 1 v 1 H 8 Z m 3,0 h 1 v 1 h -1 z m 3,0 h 1 v 1 h -1 z"/>
 </g>
 <g id="kdeconnect">
  <rect  style="opacity:0.001" width="32" height="32" x="0" y="0"/>
  <path  style="opacity:1;fill:#eff0f1" d="M 11.091797 4 C 9.3794325 4 8 5.3379999 8 7 L 8 25 C 8 26.662 9.3794325 28 11.091797 28 L 18.818359 28 L 21.908203 28 C 23.620567 28 25 26.662 25 25 L 25 7 C 25 5.3379999 23.620454 4 21.908203 4 L 18.818359 4 L 14.181641 4 L 11.091797 4 z M 11.091797 5 L 13 5 L 13 5.3007812 L 13 5.5 L 13 5.6992188 C 13 6.4194185 13.580581 7 14.300781 7 L 18.699219 7 C 19.419419 7 20 6.4194187 20 5.6992188 L 20 5.5 L 20 5.3007812 L 20 5 L 21.908203 5 C 23.099502 5 24 5.8910119 24 7 L 24 24 L 9 24 L 9 7 C 9 5.8909662 9.9003497 5 11.091797 5 z M 16 5 L 17 5 L 17 6 L 16 6 L 16 5 z M 12 25 L 13 25 L 13 26 L 12 26 L 12 25 z M 16 25 L 17 25 L 17 26 L 16 26 L 16 25 z M 20 25 L 21 25 L 21 26 L 20 26 L 20 25 z"/>
 </g>
</svg>
