<?xml version="1.0" encoding="UTF-8" standalone="no"?>
<svg
   xmlns:dc="http://purl.org/dc/elements/1.1/"
   xmlns:cc="http://creativecommons.org/ns#"
   xmlns:rdf="http://www.w3.org/1999/02/22-rdf-syntax-ns#"
   xmlns:svg="http://www.w3.org/2000/svg"
   xmlns="http://www.w3.org/2000/svg"
   id="svg12"
   viewBox="0 0 22 22"
   version="1.1"
   height="22"
   width="22">
  <metadata
     id="metadata16">
    <rdf:RDF>
      <cc:Work
         rdf:about="">
        <dc:format>image/svg+xml</dc:format>
        <dc:type
           rdf:resource="http://purl.org/dc/dcmitype/StillImage" />
        <dc:title></dc:title>
      </cc:Work>
    </rdf:RDF>
  </metadata>
  <defs
     id="defs3">
    <style
       type="text/css"
       id="current-color-scheme">.ColorScheme-Text {
        color:#363636;
      }</style>
  </defs>
  <g
     id="g10"
     transform="translate(0 -1030.4)">
    <g
       id="kleopatra">
      <rect
         id="rect5"
         fill="none"
         height="22"
         width="22"
         y="1030.4" />
      <path
         id="path7"
         fill="currentColor"
         d="m9 3c-3.2222 0-6.748 2.0664-6.748 2.0664a0.5004 0.5004 0 0 0 0.49609 0.86914s3.4742-1.9355 6.252-1.9355c1.3611 0 3.2168 0.59961 5.0918 1.2246s3.7693 1.2754 5.4082 1.2754a0.50005 0.50005 0 1 0 0-1c-1.3611 0-3.2168-0.59766-5.0918-1.2227s-3.7693-1.2773-5.4082-1.2773zm0.5 4a2.8055 2.8055 0 0 0-0.26367 0.015625c-4.1917 0.16665-7.1367 4.1855-7.1367 4.1855a0.50005 0.50005 0 0 0 0.15234 0.73438s1.3083 0.74454 3.248 1.3398v5.2246a0.50005 0.50005 0 1 0 1 0v-4.957c0.68995 0.16894 1.4246 0.30479 2.2051 0.38086 0.11584 0.13712 0.64273 0.75604 1.4414 1.5547 0.89184 0.8919 2.0265 1.9166 3.1309 2.4688 2.0474 1.0237 3.5868 1.4049 4.8633 1.0332 0.58732-0.171 1.0426-0.39628 1.3711-0.73438s0.48828-0.79279 0.48828-1.2461c0-0.5404-0.27156-1.0079-0.63086-1.3672s-0.8287-0.63281-1.3691-0.63281c-0.52112 0-0.99495 0.2425-1.3613 0.5957-0.36638 0.3533-0.63867 0.8423-0.63867 1.4043a0.50005 0.50005 0 1 0 1 0c0-0.227 0.12518-0.48615 0.33203-0.68555 0.20685-0.1995 0.48198-0.31445 0.66797-0.31445 0.16667 0 0.44819 0.12584 0.66211 0.33984 0.21392 0.2139 0.33789 0.49356 0.33789 0.66016 0 0.2539-0.05282 0.39408-0.20508 0.55078-0.15226 0.1567-0.44576 0.3281-0.93555 0.4707-0.87771 0.2556-2.1842 0.00995-4.1367-0.96875-0.89565-0.4479-2.011-1.423-2.8691-2.2812-0.298-0.29801-0.51128-0.53324-0.73438-0.77539 4.1373-0.048889 6.7246-2.5833 9.5391-3.5215a0.50005 0.50005 0 0 0-0.076172-0.9668c-2.96-0.4933-4.3911-1.0935-5.6465-1.5957-1.1921-0.47682-2.2853-0.86-4.1563-0.89844a2.8055 2.8055 0 0 0-0.2793-0.013672zm2.3281 1.2422c0.60282 0.14722 1.1263 0.35363 1.7363 0.59766 1.0008 0.4003 2.427 0.88482 4.4434 1.3281-2.5289 1.1714-4.7865 2.832-8.0078 2.832-3.2913 0-5.8543-1.257-6.6328-1.6602 0.42681-0.50901 1.7418-1.9878 3.6289-2.7949a2.8055 2.8055 0 0 0-0.30078 1.2598 2.8055 2.8055 0 0 0 2.8047 2.8066 2.8055 2.8055 0 0 0 2.8047-2.8066 2.8055 2.8055 0 0 0-0.47656-1.5625z"
         transform="translate(0 1030.4)"
         class="ColorScheme-Text" />
    </g>
  </g>
</svg>
