<svg xmlns="http://www.w3.org/2000/svg" width="32" height="32" version="1">
 <g id="22-22-knotes" transform="translate(32.000001,10)">
  <rect  style="opacity:0.001" width="22" height="22" x="0" y="0"/>
  <path  style="opacity:1;fill:#eff0f1" d="M 6,3 C 4.892,3 4,3.892 4,5 v 9 c 0,2 4,5 5,5 h 2 5 c 1.108,0 2,-0.892 2,-2 V 5 C 18,3.892 17.108,3 16,3 h -5 z m 0,1 h 5 5 c 0.571297,0 1,0.4287028 1,1 v 12 c 0,0.571297 -0.428703,1 -1,1 H 11 9 V 16 C 9,14.892 8.108,14 7,14 H 5 V 5 C 5,4.4287028 5.4287028,4 6,4 Z M 7.5,6 C 6.8238387,5.99044 6.8238387,7.0095626 7.5,7 h 7 c 0.676161,0.00956 0.676161,-1.0095626 0,-1 z m 0,3 c -0.6761613,-0.00956 -0.6761613,1.009563 0,1 h 4 c 0.676161,0.0096 0.676161,-1.0095626 0,-1 z m 0,3 c -0.6761613,-0.0096 -0.6761613,1.009563 0,1 h 5 c 0.676161,0.0096 0.676161,-1.009563 0,-1 z"/>
 </g>
 <g id="knotes">
  <rect  style="opacity:0.001" width="32" height="32" x="0" y="0"/>
  <path  style="opacity:1;fill:#eff0f1" d="M 9 4 C 7.3379999 4 6 5.3379999 6 7 L 6 20.5 C 6 23.5 11.999999 28 13.5 28 L 16.5 28 L 24 28 C 25.662 28 27 26.662 27 25 L 27 7 C 27 5.3379999 25.662 4 24 4 L 16.5 4 L 9 4 z M 9 5 L 16.5 5 L 24 5 C 25.125297 5 26 5.8747026 26 7 L 26 25 C 26 26.125297 25.125298 27 24 27 L 16.5 27 L 14 27 L 14 23.5 C 14 21.838001 12.999999 20 10.5 20 L 7 20 L 7 7 C 7 5.8747026 7.8747026 5 9 5 z M 10.5 8 A 0.50005 0.50005 0 1 0 10.5 9 L 22.5 9 A 0.50005 0.50005 0 1 0 22.5 8 L 10.5 8 z M 10.5 12 A 0.50005 0.50005 0 1 0 10.5 13 L 17.5 13 A 0.50005 0.50005 0 1 0 17.5 12 L 10.5 12 z M 10.5 16 A 0.50005 0.50005 0 1 0 10.5 17 L 19.5 17 A 0.50005 0.50005 0 1 0 19.5 16 L 10.5 16 z"/>
 </g>
</svg>
