<svg xmlns="http://www.w3.org/2000/svg" width="32" height="32" version="1">
 <g id="22-22-krusader_user" transform="translate(32.000001,10.000001)">
  <rect  style="opacity:0.001" width="22" height="22" x="0" y="0"/>
  <path  style="opacity:1;fill:#eff0f1" d="m 5,3.0000001 c -1.108,0 -2,0.892 -2,2 V 17 c 0,1.108 0.892,2 2,2 h 11 c 1.108,0 2,-0.892 2,-2 V 5.0000001 c 0,-1.108 -0.892,-2 -2,-2 z m 0,2 h 5 V 18 H 5 C 4.428702,18 4,17.571297 4,17 V 6.0000001 c 0,-0.571297 0.428702,-1 1,-1 z m 6,0 h 5 c 0.571297,0 1,0.428703 1,1 V 17 c 0,0.571297 -0.428703,1 -1,1 h -5 z m -6,1 v 2 h 2 v -1.5 H 6 v -0.5 z m 7,0 v 2 h 2 v -1.5 h -1 v -0.5 z M 5,9.9999999 V 12 H 7 V 10.5 H 6 V 9.9999999 Z m 7,0 V 12 h 2 V 10.5 H 13 V 9.9999999 Z M 12,14 v 2 h 2 V 14.5 H 13 V 14 Z"/>
 </g>
 <g id="krusader_user">
  <rect  style="opacity:0.001" width="32" height="32" x="0" y="0"/>
  <path  style="opacity:1;fill:#eff0f1" d="M 8.0664062 4 C 6.3674731 4 5 5.3379999 5 7 L 5 25 C 5 26.662 6.3674731 28 8.0664062 28 L 24.933594 28 C 26.632527 28 28 26.662 28 25 L 28 7 C 28 5.3379999 26.632527 4 24.933594 4 L 8.0664062 4 z M 8.0664062 6 L 16 6 L 16 26.699219 L 16 27 L 8.0664062 27 C 6.8925082 27 6 26.113371 6 25 L 6 8 C 6 6.8866293 6.8925085 6 8.0664062 6 z M 17 6 L 24.933594 6 C 26.107491 6 27 6.8866292 27 8 L 27 25 C 27 26.113371 26.107492 27 24.933594 27 L 17 27 L 17 26.699219 L 17 6 z M 8 8 L 8 11 L 11 11 L 11 9 L 10 9 L 10 8 L 8 8 z M 19 8 L 19 11 L 22 11 L 22 9 L 21 9 L 21 8 L 19 8 z M 8 14 L 8 17 L 11 17 L 11 15 L 10 15 L 10 14 L 8 14 z M 19 14 L 19 17 L 22 17 L 22 15 L 21 15 L 21 14 L 19 14 z M 19 20 L 19 23 L 22 23 L 22 21 L 21 21 L 21 20 L 19 20 z"/>
 </g>
</svg>
