<svg xmlns="http://www.w3.org/2000/svg" width="32" height="32" x="0" y="0" version="1.1">
 <g id="22-22-mellowplayer" transform="translate(32,10)">
  <rect  style="opacity:0.001" width="22" height="22" x="0" y="0"/>
  <path  style="opacity:1;fill:#eff0f1" d="M 9,3 A 5,5 0 0 0 4,8 5,5 0 0 0 4.3046875,9.6875 3,3 0 0 1 7,8 3,3 0 0 1 7.0058594,8 V 5.4042969 c 0,0 -0.022453,-0.2660938 0.1855468,-0.3710938 0.2030001,-0.101 0.3964844,0.060547 0.3964844,0.060547 l 1.96875,1.1699219 A 3,3 0 0 1 12,5 3,3 0 0 1 13.152344,5.2324219 5,5 0 0 0 9,3 Z m 5.240234,3.0078125 A 3,3 0 0 1 15,8 3,3 0 0 1 14.691406,9.3183594 l 2.025391,1.2050786 c 0,0 0.283203,0.139656 0.283203,0.472656 0,0.334 -0.287109,0.443359 -0.287109,0.443359 l -2.035157,1.208985 A 3,3 0 0 1 15,14 3,3 0 0 1 14.242188,15.988281 5,5 0 0 0 19,11 5,5 0 0 0 14.240234,6.0078125 Z M 8,6.5 V 11 15.5 L 11.75,13.25 15.5,11 11.75,8.75 Z M 8.9804688,8.265625 11.259766,9.6328125 13.539062,11 11.259766,12.367188 8.9804688,13.734375 V 11 Z M 4.3027344,12.302734 A 5,5 0 0 0 4,14 5,5 0 0 0 9,19 5,5 0 0 0 13.158203,16.767578 3,3 0 0 1 12,17 3,3 0 0 1 9.5351562,15.705078 l -2.0605468,1.22461 c 0,0 -0.1393594,0.121968 -0.3183594,0.04297 -0.203,-0.091 -0.1503906,-0.322265 -0.1503906,-0.322265 V 14 A 3,3 0 0 1 7,14 3,3 0 0 1 4.3027344,12.302734 Z"/>
  <path  style="opacity:0.5;fill:#eff0f1" d="M 12,5 A 3,3 0 0 0 9.557,6.266 l 2.672,1.587 2.464,1.467 A 3,3 0 0 0 15,8 3,3 0 0 0 12,5 Z M 7,8 a 3,3 0 0 0 -3,3 3,3 0 0 0 3,3 3,3 0 0 0 0.006,0 V 10.982 8 A 3,3 0 0 0 7,8 Z m 7.676,4.65 -2.457,1.459 -2.686,1.596 A 3,3 0 0 0 12,17 3,3 0 0 0 15,14 3,3 0 0 0 14.676,12.65 Z"/>
 </g>
 <g id="mellowplayer">
  <rect  style="opacity:0.001" width="32" height="32" x="0" y="0"/>
  <path  style="opacity:1;fill:#eff0f1" d="M 12.285156 4 A 7.2857141 7.2857141 0 0 0 5 11.285156 A 7.2857141 7.2857141 0 0 0 5.5371094 14.007812 A 4 4 0 0 1 9 12 A 4 4 0 0 1 9.0097656 12 L 9.0097656 7.6054688 C 9.0102069 7.6054688 8.9748706 7.2079387 9.2871094 7.0507812 C 9.3629573 7.0126311 9.439772 6.9986121 9.5097656 7 C 9.7197464 7.0041638 9.8828125 7.140625 9.8828125 7.140625 L 13.869141 9.5117188 A 4 4 0 0 1 17 8 A 4 4 0 0 1 19.025391 8.5566406 A 7.2857141 7.2857141 0 0 0 12.285156 4 z M 10.009766 8.3789062 L 10.009766 15.972656 L 10.009766 23.552734 L 16.316406 19.804688 L 22.771484 15.972656 L 16.332031 12.140625 L 10.009766 8.3789062 z M 20 9 A 7 7 0 0 0 19.662109 9.0214844 A 4 4 0 0 1 21 12 A 4 4 0 0 1 20.677734 13.5625 L 23.574219 15.287109 C 23.574219 15.287109 24 15.494427 24 15.994141 C 24 16.495221 23.570312 16.658203 23.570312 16.658203 L 20.658203 18.388672 A 4 4 0 0 1 21 20 A 4 4 0 0 1 19.660156 22.980469 A 7 7 0 0 0 20 23 A 7 7 0 0 0 27 16 A 7 7 0 0 0 20 9 z M 11.009766 10.138672 L 15.820312 13 L 20.814453 15.972656 L 15.806641 18.945312 L 11.009766 21.794922 L 11.009766 15.972656 L 11.009766 10.138672 z M 5.5351562 17.992188 A 7.2857141 7.2857141 0 0 0 5 20.714844 A 7.2857141 7.2857141 0 0 0 12.285156 28 A 7.2857141 7.2857141 0 0 0 19.03125 23.439453 A 4 4 0 0 1 17 24 A 4 4 0 0 1 13.837891 22.441406 L 9.7109375 24.894531 C 9.7109375 24.894531 9.5039638 25.079823 9.2363281 24.960938 C 8.9307105 24.824274 9.0097656 24.476562 9.0097656 24.476562 L 9.0097656 20 A 4 4 0 0 1 9 20 A 4 4 0 0 1 5.5351562 17.992188 z"/>
  <path  style="opacity:0.5;fill:#eff0f1" d="M 17,8 A 4,4 0 0 0 13.869141,9.5117188 L 16.84375,11.279297 20.677734,13.5625 A 4,4 0 0 0 21,12 4,4 0 0 0 17,8 Z m -8,4 a 4,4 0 0 0 -4,4 4,4 0 0 0 4,4 4,4 0 0 0 0.00977,0 V 15.972656 12 A 4,4 0 0 0 9,12 Z m 11.658203,6.388672 -3.830078,2.27539 -2.990234,1.777344 A 4,4 0 0 0 17,24 4,4 0 0 0 21,20 4,4 0 0 0 20.658203,18.388672 Z"/>
 </g>
</svg>
