<svg xmlns="http://www.w3.org/2000/svg" width="32" height="32" version="1.1">
 <g id="22-22-nulloy" transform="translate(32.000001,10.000001)">
  <rect  style="opacity:0.001" width="22" height="22" x="0" y="0"/>
  <path  style="opacity:1;fill:#eff0f1" d="m 2.8007812,3 0.015625,0.109375 c 0.3875801,2.568739 0.6101394,4.6884905 0.8984376,5.9765625 0.2882978,1.2880715 0.6469032,2.0554275 1.3203124,2.4804685 0.6734091,0.42504 1.6325209,0.497668 3.1074219,0.451172 1.474902,-0.04647 3.4702099,-0.41522 6.2246099,-0.5 l 0.08984,-0.002 -0.01172,-0.08594 C 14.185844,9.455613 14.099433,7.9866871 13.923828,7.0019531 13.748223,6.0172141 13.473372,5.402694 12.84375,4.9863281 12.214126,4.5699601 11.249941,4.3509211 9.6835938,4.0957031 8.1172477,3.8404851 5.946504,3.5523655 2.9082031,3.0195312 Z M 16,3 c -1.101094,0 -2,0.8931412 -2,2 0,1.106982 0.898917,2 2,2 1.101083,0 2,-0.893018 2,-2 C 18,3.8931412 17.101094,3 16,3 Z M 3.9902344,4.203125 c 2.2374838,0.3690269 4.2781157,0.6744042 5.5332031,0.8789062 1.5410015,0.2510884 2.3971075,0.491999 2.7695315,0.7382813 0.363701,0.2405138 0.489916,0.4794352 0.646484,1.3574219 0.121246,0.6799061 0.243658,2.0307475 0.400391,3.4199216 -2.170306,0.136246 -4.1055999,0.384542 -5.2285159,0.419922 C 6.6828532,11.062611 5.9228303,10.944437 5.5683594,10.720703 5.2188394,10.500094 4.9595887,10.065386 4.6914062,8.8671875 4.4851496,7.9456635 4.2531734,6.08419 3.9902344,4.203125 Z M 19.230469,6.5292969 19.068359,6.625 c -1.297474,0.775815 -2.256257,0.9149096 -2.998047,1.3222656 -0.370893,0.203677 -0.685086,0.4780483 -0.941406,0.9257813 -0.256321,0.447738 -0.457447,1.0659328 -0.61914,1.9667971 l -0.02344,0.138672 0.128906,-0.04883 c 2.014055,-0.753822 2.909082,-0.820274 3.451172,-1.2128911 0.271046,-0.196312 0.438077,-0.4738038 0.591797,-0.9335938 0.153721,-0.459789 0.297716,-1.1073705 0.527344,-2.0703125 z m -0.166016,3.3710937 -0.214844,0.070312 c -2.152232,0.7181454 -3.034326,0.9247164 -3.486328,1.2539054 -0.226003,0.16459 -0.333616,0.365254 -0.416015,0.648438 -0.0824,0.283189 -0.146477,0.65599 -0.294922,1.199219 l -0.03516,0.126953 0.128906,-0.0293 c 1.303416,-0.287642 1.903723,-0.35643 2.412109,-0.714844 0.508386,-0.358413 0.893709,-0.983894 1.783203,-2.365234 z m -4.546875,2.0390624 -0.109375,0.0078 c -3.273446,0.17059 -4.9780101,0.192331 -6.1132811,0.917968 -0.567635,0.362799 -0.9785666,0.949706 -1.3535157,1.894532 -0.3749489,0.944826 -0.7194441,1.920856 -1.1582031,3.746093 l -0.03125,0.132813 0.1308594,-0.03906 c 1.953683,-0.573969 3.3395715,-0.822115 4.3515625,-0.984375 1.011989,-0.162254 1.653327,-0.23478 2.128906,-0.476562 0.47558,-0.241783 0.762858,-0.653911 1.048828,-1.44336 0.285969,-0.789448 0.578918,-1.835053 1.076172,-3.648437 z m 3.929688,0.07617 c -0.961323,1.008581 -1.781951,1.19094 -2.417969,1.414063 -0.31801,0.111563 -0.594522,0.235462 -0.802735,0.482421 -0.208213,0.246958 -0.34213,0.608529 -0.394531,1.181641 l -0.0078,0.09961 0.09766,-0.01172 c 1.169105,-0.151304 1.825311,-0.268194 2.322266,-0.685547 0.496955,-0.417353 0.813565,-1.113546 1.333984,-2.396485 z m -5.292969,1.021484 c -0.242963,0.858451 -0.510215,1.845122 -0.681641,2.31836 -0.250886,0.692595 -0.35112,0.785113 -0.5625,0.892578 -0.223841,0.1138 -0.80278,0.213571 -1.833984,0.378906 -0.6594608,0.105736 -1.8301794,0.405218 -2.8691408,0.650391 0.2180056,-0.725153 0.4467127,-1.600743 0.6640626,-2.148438 0.3349198,-0.843957 0.6230806,-1.204688 0.9628906,-1.421875 0.6281564,-0.401502 2.0721176,-0.536323 4.3203126,-0.669922 z m 4.978515,1.767579 -0.144531,0.05469 c -1.191389,0.453627 -1.8455,0.656192 -2.203125,0.966797 -0.178813,0.155303 -0.2777,0.342515 -0.3125,0.582031 -0.0348,0.239516 -0.012,0.257177 0.03516,0.646485 l 0.0098,0.08984 0.08789,-0.02148 c 0.406632,-0.102815 0.702196,-0.102097 0.939453,-0.0918 0.237255,0.0103 0.423722,0.03653 0.597656,-0.04492 0.173933,-0.08146 0.306779,-0.262931 0.447266,-0.613281 0.140486,-0.350356 0.292452,-0.606726 0.503906,-1.419922 z"/>
 </g>
 <g id="nulloy">
  <rect  style="opacity:0.001" width="32" height="32" x="0" y="0"/>
  <path  style="opacity:1;fill:#eff0f1" d="M 3 4 L 3.0234375 4.1699219 C 3.6131932 8.1525427 3.9519401 11.438495 4.390625 13.435547 C 4.8293092 15.432596 5.3757071 16.622258 6.4003906 17.28125 C 7.4250739 17.940239 8.884644 18.052557 11.128906 17.980469 C 13.37317 17.908429 16.408414 17.336522 20.599609 17.205078 L 20.736328 17.203125 L 20.71875 17.070312 C 20.323948 14.009645 20.192988 11.731828 19.925781 10.205078 C 19.658574 8.67832 19.239306 7.7256195 18.28125 7.0800781 C 17.323191 6.4345334 15.856065 6.0949136 13.472656 5.6992188 C 11.089248 5.303524 7.7872495 4.8573664 3.1640625 4.03125 L 3 4 z M 23 4 C 21.348359 4 20 5.339712 20 7 C 20 8.6604729 21.348375 10 23 10 C 24.651624 10 26 8.6604729 26 7 C 26 5.339712 24.65164 4 23 4 z M 4.1875 5.2089844 C 8.0240547 5.8680533 11.226243 6.3398338 13.308594 6.6855469 C 15.666216 7.0769606 17.022161 7.4362059 17.722656 7.9082031 C 18.414416 8.374313 18.690614 8.9551435 18.939453 10.376953 C 19.154024 11.602954 19.329664 13.787568 19.621094 16.285156 C 15.989138 16.476289 12.988932 16.92165 11.095703 16.982422 C 8.8987424 17.052991 7.6463509 16.894767 6.9414062 16.441406 C 6.2414251 15.991236 5.786445 15.129315 5.3671875 13.220703 C 5.007858 11.584905 4.6538871 8.5328143 4.1875 5.2089844 z M 28.21875 9.171875 L 27.972656 9.3183594 C 25.998373 10.508971 24.538891 10.722504 23.410156 11.347656 C 22.845792 11.660232 22.368542 12.082413 21.978516 12.769531 C 21.58849 13.456656 21.281194 14.40459 21.035156 15.787109 L 21 16 L 21.195312 15.925781 C 24.259971 14.768921 25.622401 14.666987 26.447266 14.064453 C 26.859698 13.763182 27.113752 13.336479 27.347656 12.630859 C 27.581563 11.92524 27.800981 10.930913 28.150391 9.453125 L 28.21875 9.171875 z M 27.767578 14.9375 L 27.439453 15.044922 C 24.16454 16.147029 22.822548 16.463557 22.134766 16.96875 C 21.790872 17.221339 21.627334 17.530255 21.501953 17.964844 C 21.376572 18.399443 21.278613 18.971017 21.052734 19.804688 L 21 20 L 21.195312 19.955078 C 23.178638 19.513647 24.09361 19.407464 24.867188 18.857422 C 25.640767 18.30738 26.226593 17.348402 27.580078 15.228516 L 27.767578 14.9375 z M 20.337891 18 L 20.171875 18.011719 C 15.190881 18.266362 12.596611 18.299644 10.869141 19.382812 C 10.005408 19.92437 9.3810827 20.798629 8.8105469 22.208984 C 8.2400108 23.61934 7.7145064 25.076224 7.046875 27.800781 L 7 28 L 7.1992188 27.941406 C 10.172011 27.084633 12.280431 26.714863 13.820312 26.472656 C 15.36019 26.230456 16.336888 26.12263 17.060547 25.761719 C 17.784206 25.400805 18.221106 24.78389 18.65625 23.605469 C 19.091391 22.427049 19.536328 20.86702 20.292969 18.160156 L 20.337891 18 z M 26.513672 18.123047 C 25.05089 19.670875 23.801771 19.950552 22.833984 20.292969 C 22.350088 20.464181 21.928153 20.654206 21.611328 21.033203 C 21.294504 21.412199 21.091454 21.968124 21.011719 22.847656 L 21 23 L 21.148438 22.982422 C 22.92739 22.750222 23.925457 22.570182 24.681641 21.929688 C 25.437827 21.289192 25.921003 20.220827 26.712891 18.251953 L 26.513672 18.123047 z M 18.96875 19.09375 C 18.479739 20.818067 18.038906 22.39274 17.71875 23.259766 C 17.319815 24.340127 17.074728 24.635095 16.613281 24.865234 C 16.139468 25.10154 15.224771 25.239206 13.666016 25.484375 C 12.465093 25.673267 10.500963 26.125066 8.4609375 26.638672 C 8.9003238 25.075478 9.3196567 23.613989 9.7363281 22.583984 C 10.265599 21.275636 10.763863 20.627616 11.400391 20.228516 C 12.606872 19.472021 14.989617 19.303354 18.96875 19.09375 z M 25.978516 22.408203 L 25.759766 22.492188 C 23.946906 23.18835 22.950424 23.499889 22.40625 23.976562 C 22.134161 24.2149 21.984595 24.501565 21.931641 24.869141 C 21.878681 25.236716 21.912625 25.263874 21.984375 25.861328 L 22 26 L 22.132812 25.966797 C 22.751558 25.809011 23.201482 25.810369 23.5625 25.826172 C 23.923515 25.841972 24.207992 25.882813 24.472656 25.757812 C 24.737318 25.6328 24.938574 25.354074 25.152344 24.816406 C 25.366113 24.27873 25.598166 23.884697 25.919922 22.636719 L 25.978516 22.408203 z"/>
 </g>
</svg>
