<svg xmlns="http://www.w3.org/2000/svg" width="32" height="32" version="1.1">
 <g id="22-22-plasmavault" transform="translate(32,10)">
  <rect  style="opacity:0.001" width="22" height="22" x="0" y="0"/>
  <path  style="opacity:1;fill:#eff0f1" d="M 5,4 C 3.892,4 3,4.892 3,6 v 1 3 5 c 0,1.662 1.338,3 3,3 h 10 c 1.662,0 3,-1.338 3,-3 V 12 10 8 C 19,6.338 17.662,5 16,5 H 11.724609 C 11.379048,4.4042011 10.74107,4 10,4 Z M 4,8 h 8 4 c 1.125297,0 2,0.8747028 2,2 v 2 3 c 0,1.125297 -0.874703,2 -2,2 H 6 C 4.8747028,17 4,16.125297 4,15 v -5 z m 7,1 a 2,2 0 0 0 -2,2 v 1 c -0.554,0 -1,0.446 -1,1 v 2 c 0,0.554 0.446,1 1,1 h 4 c 0.554,0 1,-0.446 1,-1 v -2 c 0,-0.554 -0.446,-1 -1,-1 V 11 A 2,2 0 0 0 11,9 Z m 0,1 a 1,1 0 0 1 1,1 v 1 h -2 v -1 a 1,1 0 0 1 1,-1 z"/>
 </g>
 <g id="plasmavault">
  <rect  style="opacity:0.001" width="32" height="32" x="0" y="0"/>
  <path  style="opacity:1;fill:#eff0f1" d="M 7 5 C 5.3379999 5 4 6.338 4 8 L 4 9.5 L 4 14 L 4 21.5 C 4 23.993001 6.007 26 8.5 26 L 23.5 26 C 25.993 26 28 23.993001 28 21.5 L 28 17 L 28 14 L 28 11.400391 C 28 8.9073902 25.993 7 23.5 7 L 17.085938 7 C 16.567597 6.1063016 15.611605 5 14.5 5 L 7 5 z M 5 11 L 26.960938 11 C 26.97577 11.133028 27 11.261898 27 11.400391 L 27 14 L 27 17 L 27 21.5 C 27 23.456299 25.456297 25 23.5 25 L 8.5 25 C 6.5437028 25 5 23.456298 5 21.5 L 5 14 L 5 11 z M 16 12 C 14.159052 12.000001 13 13.534187 13 15.427734 L 13 17 C 11.476383 17 11 17.808098 11 18.757812 L 11 22.285156 C 11 23.234871 11.742681 24 12.666016 24 L 19.333984 24 C 20.257318 24 21 23.234871 21 22.285156 L 21 18.757812 C 21 17.808098 20.558927 17 19 17 L 19 15.427734 C 19 13.534187 17.840949 12 16 12 z M 16 13 A 1.9999995 2.0000002 0 0 1 18 15 L 18 17 L 14 17 L 14 15 A 1.9999995 2.0000002 0 0 1 16 13 z"/>
 </g>
</svg>
