<svg xmlns="http://www.w3.org/2000/svg"  width="32" height="32" version="1">
 <g id="22-22-strawberry" transform="translate(32,10)">
  <rect  style="opacity:0.001" width="22" height="22" x="0" y="0"/>
  <path  style="opacity:1;fill:#eff0f1" d="m 13.087373,3.0000203 c -0.08879,0 -0.115275,0.181015 -0.06055,0.4199219 0,0 0.15734,0.7619522 1.21289,1.3203125 0.734159,0.3629505 0.733731,0.573374 -0.0039,0.7910156 -0.321469,0.094846 -0.713233,0.273527 -0.86914,0.3984375 -0.257133,0.2060136 -0.163188,0.290926 1.009765,0.9160156 0.711194,0.3790096 1.425049,0.8002842 1.585938,0.9355469 0.279332,0.2348395 0.267634,0.2672029 -0.277344,0.7226562 -0.608397,0.5084535 -1.328125,1.6971555 -1.328125,2.1933595 0,0.268262 0.119072,0.291638 1.121094,0.207031 0.616429,-0.05205 1.293297,-0.118481 1.505859,-0.146485 l 0.386719,-0.05078 -0.05469,1.34961 c -0.03035,0.74213 -0.11895,1.534076 -0.197265,1.759765 -0.07831,0.22569 -0.110753,0.44416 -0.07227,0.486328 0.162017,0.17752 0.822036,-0.213548 1.275391,-0.755859 0.463478,-0.554422 0.493251,-0.566767 0.591796,-0.226563 0.331871,0.609879 0.479188,1.145229 0.994141,1.679688 0.114993,0.01131 0.201612,-0.136263 0.275391,-0.439453 0.227139,-0.933414 0.10531,-1.836435 -0.373047,-2.769531 -0.257766,-0.502807 -0.509504,-1.295915 -0.560544,-1.76172 -0.05104,-0.4658049 -0.134056,-1.0065695 -0.185547,-1.2031248 -0.07824,-0.2986775 0.07175,-0.4742129 0.921875,-1.0625 0.967991,-0.6698438 1.219598,-1.0509254 0.853516,-1.2988281 -0.09096,-0.061593 -0.571545,0.125064 -1.066406,0.4140624 -0.494862,0.2889975 -0.996348,0.5253907 -1.115235,0.5253907 -0.118886,0 -0.491278,-0.3625728 -0.828125,-0.8046875 -0.585419,-0.7683677 -0.613281,-0.8561844 -0.613281,-1.9902344 0,-1.0775591 -0.03025,-1.1900384 -0.326172,-1.2363281 -0.239184,-0.037414 -0.378069,0.085476 -0.521484,0.4648437 -0.107448,0.2842238 -0.24821,0.5175782 -0.314453,0.5175782 -0.06624,0 -0.727156,-0.3050904 -1.466797,-0.6777344 -0.739656,-0.372642 -1.414223,-0.6777344 -1.5,-0.6777344 z m -0.873047,1.0410156 c -0.06635,0.00626 -0.09727,0.00375 -0.171875,0.011719 -2.4426544,0.260912 -4.4795644,1.774117 -6.8105454,5.0546873 -0.703828,0.9905528 -1.608029,2.2616538 -2.009766,2.8261718 -1.692378,2.378122 -1.620267,4.819444 0.173828,5.845703 1.159538,0.663275 2.279051,0.925376 4.052735,0.951172 0.891515,0.01295 2.198516,0.07777 2.9023434,0.142578 1.963706,0.180839 2.209598,0.17624 3.591795,-0.06445 1.546994,-0.269402 2.73888,-0.83045 3.697266,-1.738282 0.38599,-0.365628 0.852472,-1.062621 1.242187,-1.771484 -0.135912,-0.219608 -0.216507,-0.4261 -0.328124,-0.648437 -0.157601,0.132513 -0.299836,0.304158 -0.46875,0.404297 -0.180998,0.107294 -0.360995,0.200902 -0.619141,0.257812 -0.258146,0.05691 -0.766022,0.09377 -1.158203,-0.335938 -0.347774,-0.381027 -0.272544,-0.5705 -0.277344,-0.697265 -0.0048,-0.126766 0.0069,-0.213818 0.01953,-0.298828 0.02531,-0.170015 0.06514,-0.3253 0.123047,-0.492188 -0.04121,0.118766 0.03562,-0.17892 0.06836,-0.470703 0.03274,-0.291783 0.06203,-0.656165 0.07617,-1.001953 l 0.0078,-0.189453 c -0.271467,0.02598 -0.456151,0.04825 -0.763672,0.07422 -0.511484,0.04319 -0.771607,0.09436 -1.201172,0.01563 -0.214783,-0.03938 -0.573515,-0.17616 -0.791016,-0.488282 -0.217487,-0.312122 -0.21289,-0.589621 -0.21289,-0.730468 0,-0.7316494 0.279178,-1.1124668 0.580078,-1.6093751 C 14.141994,8.7493678 14.422605,8.4626057 14.690888,8.1679891 14.448626,8.028104 14.186941,7.8773568 13.907685,7.7285359 13.314383,7.4123537 13.019005,7.2933499 12.665498,6.9726765 12.577118,6.8925085 12.473108,6.7892054 12.378388,6.6074422 12.283678,6.4256789 12.222226,6.1348192 12.270966,5.8828328 12.368446,5.37886 12.630001,5.2414439 12.743623,5.1504109 12.855942,5.0604219 12.957834,5.0601939 13.061982,4.9980672 12.848776,4.7982545 12.526626,4.6066957 12.403779,4.4199422 12.314329,4.283957 12.267074,4.1618981 12.214326,4.0410359 Z m -0.757812,1.2871094 c -0.05208,0.1309597 -0.139077,0.2158767 -0.167969,0.3652344 -0.100795,0.5211216 -0.01609,0.9246172 0.177735,1.3183594 -0.08766,-0.01127 -0.179852,-0.014615 -0.275391,-0.00195 -0.32117,0.042563 -0.664493,0.2094159 -0.880858,0.4257813 -0.3846534,0.3846491 -0.4164984,0.9780336 -0.07031,1.3242187 0.346183,0.3461847 0.939569,0.3143404 1.324218,-0.070312 0.242895,-0.2428941 0.403433,-0.640227 0.416016,-0.9921875 0.0037,0.00345 0.01012,0.012406 0.01367,0.015625 0.384151,0.3484723 0.761459,0.5189479 1.185546,0.7382813 -0.03274,0.048977 -0.06594,0.06676 -0.09766,0.1191406 -0.2762,0.4561189 -0.724609,1.1409209 -0.724609,2.1269525 0,0.119083 0.01237,0.757085 0.392578,1.302734 0.156033,0.223913 0.331476,0.379275 0.509766,0.507812 -0.325124,0.383793 -0.346122,0.925365 -0.01953,1.251955 0.346184,0.346184 0.939569,0.314336 1.324219,-0.07031 0.191003,-0.191003 0.341878,-0.480972 0.404297,-0.767579 0.09267,-0.0081 0.186364,-0.01522 0.279297,-0.02344 -2.49e-4,0.0022 2.49e-4,0.0056 0,0.0078 -0.01091,0.0972 -0.0332,0.221389 -0.05078,0.314454 -0.0088,0.04653 -0.01294,0.04576 -0.02734,0.164063 -4.38e-4,0.0036 -0.0015,0.0115 -0.002,0.01563 -0.03985,0.142581 -0.08507,0.28344 -0.107422,0.433593 -0.01402,0.09437 -0.03708,0.27696 -0.0293,0.482422 -0.0058,-0.152837 -0.03538,0.128051 0.03516,0.4375 0.07053,0.309449 0.250178,0.618493 0.503906,0.896485 0.44717,0.489958 0.959,0.613146 1.417969,0.642578 -0.0078,0.0079 -0.02792,0.04393 -0.03516,0.05078 -0.807207,0.764627 -1.780304,1.236432 -3.181641,1.480469 -0.875125,0.152392 -1.226627,0.197284 -1.857421,0.167969 0.230858,-0.01896 0.465378,-0.117723 0.65039,-0.302735 0.38465,-0.384651 0.61181,-1.173347 0.265625,-1.519531 -0.08655,-0.08654 -0.201484,-0.136813 -0.330078,-0.158203 -0.09644,-0.01609 -0.201537,-0.01614 -0.308594,-0.002 -0.321168,0.04256 -0.664491,0.209416 -0.880858,0.425781 -0.384651,0.38465 -0.416497,0.978033 -0.07031,1.324219 0.153619,0.153618 0.357228,0.219616 0.56836,0.226562 -0.336446,-0.01935 -0.734577,-0.0513 -1.365234,-0.109375 -0.7556714,-0.06948 -2.0546474,-0.132986 -2.9804274,-0.146433 -1.681317,-0.02445 -2.553017,-0.23645 -3.570312,-0.81836 -0.605406,-0.346304 -0.868291,-0.825576 -0.890625,-1.578125 -0.02233,-0.752548 0.286585,-1.768424 1.035156,-2.820312 0.401905,-0.564755 1.30567,-1.835242 2.009766,-2.8261717 1.994863,-2.8075254 3.617815,-3.9425382 5.4101554,-4.359375 z M 7.1908896,9.0097859 c -0.32117,0.042563 -0.664494,0.2094157 -0.880859,0.4257813 -0.384651,0.3846493 -0.416498,0.9780398 -0.07031,1.3242188 0.346185,0.346185 0.939569,0.314337 1.324219,-0.07031 0.38465,-0.38465 0.61181,-1.1733458 0.265625,-1.5195308 -0.08655,-0.086546 -0.201484,-0.1368131 -0.330078,-0.1582031 -0.09644,-0.01604 -0.201537,-0.016141 -0.308594,-0.00195 z M 10.19089,11.009786 c -0.3211704,0.04256 -0.6644934,0.209415 -0.8808594,0.425781 -0.384649,0.38465 -0.416498,0.978034 -0.07031,1.324219 0.346184,0.346184 0.9395694,0.314336 1.3242174,-0.07031 0.384651,-0.384649 0.61181,-1.173345 0.265625,-1.519531 -0.08655,-0.08654 -0.201485,-0.136813 -0.330077,-0.158203 -0.09645,-0.01609 -0.201538,-0.01614 -0.308594,-0.002 z m -5.0000004,2 c -0.32117,0.04256 -0.664493,0.209415 -0.880859,0.425781 -0.384649,0.38465 -0.416498,0.978034 -0.07031,1.324219 0.346184,0.346184 0.939569,0.314336 1.324218,-0.07031 0.38465,-0.38465 0.611811,-1.173346 0.265625,-1.519531 -0.08655,-0.08655 -0.201484,-0.136816 -0.330078,-0.158206 -0.09644,-0.01609 -0.201537,-0.01614 -0.308594,-0.002 z m 4,2 c -0.32117,0.04256 -0.664494,0.209415 -0.880859,0.425781 -0.38465,0.384648 -0.416498,0.978033 -0.07031,1.324219 0.346184,0.346184 0.93957,0.314336 1.324218,-0.07031 0.384651,-0.38465 0.6118104,-1.173345 0.265625,-1.519531 -0.08655,-0.08655 -0.201484,-0.136816 -0.330078,-0.158206 -0.09645,-0.01609 -0.201537,-0.01614 -0.308594,-0.002 z"/>
 </g>
 <g id="strawberry">
  <rect  style="opacity:0.001" width="32" height="32" x="0" y="0"/>
  <path  style="opacity:1;fill:#eff0f1" d="M 18.134766 6 C 18.017259 6 17.984216 6.2208938 18.056641 6.5136719 C 18.056641 6.5136719 18.265054 7.4485476 19.662109 8.1328125 C 20.633791 8.5776049 20.63063 8.8348448 19.654297 9.1015625 C 19.228823 9.2177954 18.712207 9.4387204 18.505859 9.5917969 C 18.165535 9.8442646 18.289355 9.9488028 19.841797 10.714844 C 20.783084 11.179317 21.728466 11.693612 21.941406 11.859375 C 22.311111 12.147168 22.293563 12.187941 21.572266 12.746094 C 20.767035 13.369199 19.814453 14.825499 19.814453 15.433594 C 19.814453 15.762344 19.97262 15.789234 21.298828 15.685547 C 22.114691 15.621757 23.011637 15.54213 23.292969 15.507812 L 23.804688 15.445312 L 23.730469 17.097656 C 23.690309 18.007131 23.574353 18.979279 23.470703 19.255859 C 23.367054 19.532438 23.324067 19.799888 23.375 19.851562 C 23.589435 20.069112 24.46247 19.588426 25.0625 18.923828 C 25.675928 18.244391 25.715275 18.231521 25.845703 18.648438 C 26.284945 19.395837 26.480553 20.050104 27.162109 20.705078 C 27.314307 20.718928 27.429696 20.539526 27.527344 20.167969 C 27.82797 19.024081 27.666325 17.916938 27.033203 16.773438 C 26.692037 16.157255 26.35857 15.186074 26.291016 14.615234 C 26.223466 14.044395 26.111117 13.379549 26.042969 13.138672 C 25.939412 12.772646 26.140449 12.558831 27.265625 11.837891 C 28.546793 11.017004 28.879053 10.549897 28.394531 10.246094 C 28.274148 10.170614 27.639341 10.399742 26.984375 10.753906 C 26.329411 11.10807 25.665164 11.396484 25.507812 11.396484 C 25.350462 11.396484 24.855984 10.953916 24.410156 10.412109 C 23.635335 9.4704819 23.599609 9.3624233 23.599609 7.9726562 C 23.599609 6.6521184 23.559638 6.5137588 23.167969 6.4570312 C 22.851402 6.4111803 22.668331 6.5624327 22.478516 7.0273438 C 22.336306 7.3756572 22.148222 7.6601562 22.060547 7.6601562 C 21.972867 7.6601562 21.100032 7.2867496 20.121094 6.8300781 C 19.142179 6.3734106 18.248296 6 18.134766 6 z M 17.179688 7.0136719 C 16.98846 7.0241981 16.826362 7.0272167 16.554688 7.0566406 C 13.501368 7.3873377 10.952789 9.3029198 8.0390625 13.460938 C 7.1592779 14.716424 6.029514 16.329414 5.5273438 17.044922 C 3.4118701 20.059113 3.5034747 23.15238 5.7460938 24.453125 C 7.1955161 25.293805 8.5953951 25.627464 10.8125 25.660156 C 11.926894 25.676576 13.557715 25.757706 14.4375 25.839844 C 16.892133 26.069051 17.199988 26.062889 18.927734 25.757812 C 20.861477 25.416356 22.352798 24.705329 23.550781 23.554688 C 24.231512 22.900856 25.113744 21.416771 25.634766 20.228516 C 25.577442 20.111245 25.514596 19.992265 25.455078 19.875 C 25.162908 20.144374 24.869961 20.422644 24.554688 20.595703 C 24.335721 20.715897 24.120825 20.814544 23.84375 20.871094 C 23.566675 20.927647 23.083426 20.982124 22.662109 20.554688 C 22.295806 20.183053 22.359216 19.957633 22.353516 19.816406 C 22.347786 19.67518 22.361203 19.576506 22.376953 19.478516 C 22.408458 19.282537 22.460073 19.099428 22.533203 18.904297 C 22.493757 19.009566 22.587039 18.654586 22.630859 18.292969 C 22.674672 17.931351 22.713542 17.482129 22.732422 17.054688 L 22.753906 16.558594 C 22.33143 16.598741 21.932256 16.638071 21.375 16.681641 C 20.702184 16.734241 20.353709 16.785301 19.892578 16.707031 C 19.662013 16.667894 19.301459 16.548627 19.060547 16.228516 C 18.819653 15.908404 18.814453 15.595466 18.814453 15.433594 C 18.814453 14.607317 19.166812 14.141919 19.554688 13.548828 C 19.86504 13.074274 20.265794 12.657413 20.679688 12.273438 C 20.314754 12.07435 19.856202 11.836246 19.400391 11.611328 C 18.617538 11.225036 18.223439 11.065157 17.820312 10.726562 C 17.719532 10.641915 17.605826 10.537211 17.498047 10.345703 C 17.390267 10.154196 17.315947 9.833884 17.373047 9.5605469 C 17.487251 9.0138726 17.775284 8.8891165 17.910156 8.7890625 C 18.123181 8.6310332 18.353474 8.594345 18.568359 8.5 C 18.184371 8.2099155 17.715723 7.9226434 17.519531 7.6464844 C 17.352649 7.4115808 17.247604 7.1861899 17.179688 7.0136719 z M 16.617188 8.0625 C 16.654917 8.122717 16.661078 8.1646249 16.705078 8.2265625 C 16.765418 8.3114945 16.815234 8.3025145 16.876953 8.3730469 C 16.667585 8.6127011 16.479215 8.9501022 16.394531 9.3554688 C 16.269938 9.9518939 16.381791 10.400323 16.626953 10.835938 C 16.805763 11.153657 17.049636 11.384594 17.177734 11.492188 C 17.707929 11.937508 18.195419 12.132002 18.957031 12.507812 C 19.004321 12.531153 19.042541 12.552572 19.089844 12.576172 C 18.968161 12.727706 18.827239 12.833078 18.716797 13.001953 C 18.349602 13.563421 17.814453 14.323022 17.814453 15.433594 C 17.814453 15.616882 17.836703 16.265297 18.261719 16.830078 C 18.71913 17.437862 19.333155 17.626912 19.724609 17.693359 C 20.338425 17.797545 20.803693 17.728514 21.453125 17.677734 C 21.545205 17.670534 21.595239 17.665203 21.679688 17.658203 C 21.664478 17.832366 21.656542 18.024447 21.638672 18.171875 C 21.622252 18.307351 21.593023 18.465145 21.570312 18.580078 C 21.558953 18.637548 21.551333 18.669848 21.539062 18.746094 C 21.537862 18.753894 21.536656 18.774846 21.535156 18.785156 C 21.480036 18.959752 21.418787 19.13298 21.388672 19.320312 C 21.370352 19.4343 21.344456 19.634164 21.353516 19.857422 C 21.349516 19.757314 21.325277 20.035093 21.404297 20.345703 C 21.483327 20.656313 21.674858 20.977505 21.949219 21.255859 C 22.44139 21.755179 22.998203 21.845682 23.462891 21.853516 C 23.24615 22.16779 23.002986 22.694172 22.857422 22.833984 C 21.810031 23.839984 20.540252 24.458009 18.753906 24.773438 C 17.043921 25.075377 16.976525 25.072085 14.53125 24.84375 C 13.598266 24.75664 11.976667 24.677079 10.828125 24.660156 C 8.7051143 24.62886 7.5550756 24.345981 6.2480469 23.587891 C 5.4192232 23.107163 5.0324868 22.394498 5.0019531 21.361328 C 4.9714194 20.328158 5.38427 18.98902 6.3457031 17.619141 C 6.848695 16.902462 7.9777475 15.290487 8.8574219 14.035156 C 11.680392 10.006653 13.936146 8.3688475 16.617188 8.0625 z M 15.5 12.011719 C 15.114218 11.947547 14.599035 12.147059 14.310547 12.435547 C 13.925893 12.820197 13.894049 13.413581 14.240234 13.759766 C 14.586419 14.105948 15.179803 14.074103 15.564453 13.689453 C 15.949103 13.304802 16.176264 12.516107 15.830078 12.169922 C 15.743532 12.083375 15.628594 12.033109 15.5 12.011719 z M 9.5 15.011719 C 9.1142182 14.947548 8.599035 15.147059 8.3105469 15.435547 C 7.925897 15.820197 7.894049 16.41358 8.2402344 16.759766 C 8.5864191 17.105948 9.1798033 17.074103 9.5644531 16.689453 C 9.9491044 16.304803 10.176264 15.516108 9.8300781 15.169922 C 9.7435318 15.083376 9.6285939 15.033109 9.5 15.011719 z M 13.5 16.011719 C 13.114218 15.947547 12.599035 16.147059 12.310547 16.435547 C 11.925893 16.820197 11.894049 17.413581 12.240234 17.759766 C 12.586418 18.105948 13.179803 18.074103 13.564453 17.689453 C 13.949103 17.304802 14.176264 16.516107 13.830078 16.169922 C 13.743532 16.083375 13.628594 16.033109 13.5 16.011719 z M 19.5 18.011719 C 19.114218 17.947547 18.599035 18.14706 18.310547 18.435547 C 17.925894 18.820197 17.89405 19.413581 18.240234 19.759766 C 18.586419 20.105949 19.179803 20.074104 19.564453 19.689453 C 19.949104 19.304803 20.176262 18.516107 19.830078 18.169922 C 19.743532 18.083375 19.628594 18.033109 19.5 18.011719 z M 21.716797 18.335938 A 1.0001 1.0001 0 0 0 21.697266 18.361328 C 21.698866 18.358728 21.707031 18.345623 21.707031 18.345703 C 21.707019 18.345721 21.715897 18.336937 21.716797 18.335938 z M 21.634766 18.470703 A 1.0001 1.0001 0 0 0 21.611328 18.521484 C 21.614928 18.512384 21.61303 18.513481 21.625 18.488281 C 21.6264 18.485281 21.631766 18.476123 21.634766 18.470703 z M 7.5 19.011719 C 7.1142185 18.947548 6.5990347 19.147059 6.3105469 19.435547 C 5.9258963 19.820197 5.8940493 20.41358 6.2402344 20.759766 C 6.5864189 21.105948 7.1798036 21.074104 7.5644531 20.689453 C 7.9491036 20.304804 8.1762631 19.516107 7.8300781 19.169922 C 7.7435319 19.083376 7.6285938 19.033109 7.5 19.011719 z M 12.5 21.011719 C 12.114218 20.947548 11.599034 21.14706 11.310547 21.435547 C 10.925893 21.820197 10.894049 22.41358 11.240234 22.759766 C 11.586418 23.105948 12.179803 23.074104 12.564453 22.689453 C 12.949104 22.304803 13.176263 21.516108 12.830078 21.169922 C 12.743532 21.083376 12.628594 21.033109 12.5 21.011719 z M 17.5 22.011719 C 17.114218 21.947547 16.599035 22.147059 16.310547 22.435547 C 15.925893 22.820196 15.894049 23.413581 16.240234 23.759766 C 16.586419 24.105948 17.179803 24.074103 17.564453 23.689453 C 17.949103 23.304802 18.176264 22.516107 17.830078 22.169922 C 17.743532 22.083375 17.628594 22.033109 17.5 22.011719 z"/>
 </g>
</svg>
