<svg xmlns="http://www.w3.org/2000/svg"  width="32" height="32" version="1.1">
 <g id="22-22-tools-report-bug" transform="translate(32.000001)">
  <path  style="opacity:1;fill:#eff0f1" d="M 5.8574219,13 C 4.2746438,13 3,14.274644 3,15.857422 V 26.142578 C 3,27.725356 4.2746438,29 5.8574219,29 H 16.142578 C 17.725356,29 19,27.725356 19,26.142578 V 15.857422 C 19,14.274644 17.725356,13 16.142578,13 Z m 0,1 H 16.142578 C 17.188653,14 18,14.811347 18,15.857422 V 26.142578 C 18,27.188653 17.188653,28 16.142578,28 H 5.8574219 C 4.8113466,28 4,27.188653 4,26.142578 V 15.857422 C 4,14.811347 4.8113466,14 5.8574219,14 Z M 7,17 c -0.5522847,0 -1,0.447715 -1,1 0,0.552285 0.4477153,1 1,1 0.5522847,0 1,-0.447715 1,-1 0,-0.552285 -0.4477153,-1 -1,-1 z m 8,0 c -0.552285,0 -1,0.447715 -1,1 0,0.552285 0.447715,1 1,1 0.552285,0 1,-0.447715 1,-1 0,-0.552285 -0.447715,-1 -1,-1 z m -4,4 c -2.209139,0 -4,1.790861 -4,4 h 8 c 0,-2.209139 -1.790861,-4 -4,-4 z"/>
  <path  style="opacity:0.001" d="M 0,10 V 32 H 22 V 10 Z"/>
 </g>
 <g id="tools-report-bug">
  <path  style="opacity:0.001" d="M -4.9999999e-7,-1e-6 V 32 H 32.000001 V -1e-6 Z"/>
  <path  style="opacity:1;fill:#eff0f1" d="M 8.2871094,4 C 5.9129422,4 4,5.9109892 4,8.2851562 V 23.712891 C 4,26.087059 5.9129422,28 8.2871094,28 H 23.712891 C 26.087058,28 28,26.087059 28,23.712891 V 8.2851562 C 28,5.9109892 26.087058,4 23.712891,4 Z m 0,1 H 23.712891 C 25.550177,5 27,6.4478697 27,8.2851562 V 23.712891 C 27,25.550178 25.550177,27 23.712891,27 H 8.2871094 C 6.4498226,27 5,25.550178 5,23.712891 V 8.2851562 C 5,6.4478698 6.4498226,5 8.2871094,5 Z M 9.5,10 C 8.671573,10 8,10.671573 8,11.5 8,12.328428 8.671573,13 9.5,13 10.328427,13 11,12.328428 11,11.5 11,10.671573 10.328427,10 9.5,10 Z m 13,0 C 21.671572,10 21,10.671573 21,11.5 21,12.328428 21.671572,13 22.5,13 23.328428,13 24,12.328428 24,11.5 24,10.671573 23.328428,10 22.5,10 Z M 16,16 c -3.313708,0 -6,2.686291 -6,6 h 12 c 0,-3.313709 -2.686292,-6 -6,-6 z"/>
 </g>
</svg>
