<svg xmlns="http://www.w3.org/2000/svg"  width="32" height="32" version="1.1">
 <g id="22-22-touchpad_enabled" transform="translate(-5e-7,-1052.36)">
  <rect  style="opacity:0.001" width="22" height="22" x="0" y="1030.36"/>
  <path  style="opacity:1;fill:#eff0f1" transform="translate(0,1030.3622)" d="M 4,3 C 2.892,3 2,3.892 2,5 v 12 c 0,1.108 0.892,2 2,2 h 13 c 1.108,0 2,-0.892 2,-2 V 5 C 19,3.892 18.108,3 17,3 Z m 0,1 h 13 c 0.571297,0 1,0.4287 1,1 v 12 c 0,0.5713 -0.428703,1 -1,1 H 4 C 3.4287028,18 3,17.5713 3,17 V 5 C 3,4.4287 3.4287028,4 4,4 Z m 1,9 c -0.554,0 -1,0.446 -1,1 v 2 c 0,0.554 0.446,1 1,1 h 4 c 0.554,0 1,-0.446 1,-1 V 14 C 10,13.446 9.554,13 9,13 Z m 7,0 c -0.554,0 -1,0.446 -1,1 v 2 c 0,0.554 0.446,1 1,1 h 4 c 0.554,0 1,-0.446 1,-1 v -2 c 0,-0.554 -0.446,-1 -1,-1 z"/>
 </g>
 <g id="22-22-touchpad_disabled" transform="translate(32,-1052.36)">
  <rect  style="opacity:0.001" width="22" height="22" x="0" y="1030.36"/>
  <path  style="opacity:0.5;fill:#eff0f1" transform="translate(0,1030.3622)" d="M 4,3 C 2.892,3 2,3.892 2,5 v 12 c 0,1.108 0.892,2 2,2 h 13 c 1.108,0 2,-0.892 2,-2 V 5 C 19,3.892 18.108,3 17,3 Z m 0,1 h 13 c 0.571297,0 1,0.4287 1,1 v 12 c 0,0.5713 -0.428703,1 -1,1 H 4 C 3.4287028,18 3,17.5713 3,17 V 5 C 3,4.4287 3.4287028,4 4,4 Z m 1,9 c -0.554,0 -1,0.446 -1,1 v 2 c 0,0.554 0.446,1 1,1 h 4 c 0.554,0 1,-0.446 1,-1 V 14 C 10,13.446 9.554,13 9,13 Z m 7,0 c -0.554,0 -1,0.446 -1,1 v 2 c 0,0.554 0.446,1 1,1 h 4 c 0.554,0 1,-0.446 1,-1 v -2 c 0,-0.554 -0.446,-1 -1,-1 z"/>
 </g>
 <g id="touchpad_enabled">
  <rect  style="opacity:0.001" width="32" height="32" x="0" y="0"/>
  <path  style="opacity:1;fill:#eff0f1" d="M 6.0585938 4 C 4.3640054 4 3 5.338 3 7 L 3 25 C 3 26.662 4.3640055 28 6.0585938 28 L 25.941406 28 C 27.635994 28 29 26.662 29 25 L 29 7 C 29 5.338 27.635994 4 25.941406 4 L 6.0585938 4 z M 6.0585938 5 L 25.941406 5 C 27.109613 5 28 5.8852262 28 7 L 28 25 C 28 26.114774 27.109613 27 25.941406 27 L 6.0585938 27 C 4.8903869 27 4 26.114774 4 25 L 4 7 C 4 5.8852264 4.890387 5 6.0585938 5 z M 7.5 19 C 6.6689999 19 6 19.669 6 20.5 L 6 23.5 C 6 24.331 6.6689999 25 7.5 25 L 13.5 25 C 14.331 25 15 24.331 15 23.5 L 15 20.5 C 15 19.669 14.331 19 13.5 19 L 7.5 19 z M 18.5 19 C 17.668999 19 17 19.669 17 20.5 L 17 23.5 C 17 24.331 17.668999 25 18.5 25 L 24.5 25 C 25.331 25 26 24.331 26 23.5 L 26 20.5 C 26 19.669 25.331 19 24.5 19 L 18.5 19 z"/>
 </g>
 <g id="touchpad_disabled" transform="translate(32)">
  <rect  style="opacity:0.001" width="32" height="32" x="0" y="0"/>
  <path  style="opacity:0.5;fill:#eff0f1" d="M 6.0585938,4 C 4.3640054,4 3,5.338 3,7 v 18 c 0,1.662 1.3640055,3 3.0585938,3 H 25.941406 C 27.635994,28 29,26.662 29,25 V 7 C 29,5.338 27.635994,4 25.941406,4 Z m 0,1 H 25.941406 C 27.109613,5 28,5.8852262 28,7 v 18 c 0,1.114774 -0.890387,2 -2.058594,2 H 6.0585938 C 4.8903869,27 4,26.114774 4,25 V 7 C 4,5.8852264 4.890387,5 6.0585938,5 Z M 7.5,19 C 6.6689999,19 6,19.669 6,20.5 v 3 C 6,24.331 6.6689999,25 7.5,25 h 6 c 0.831,0 1.5,-0.669 1.5,-1.5 v -3 C 15,19.669 14.331,19 13.5,19 Z m 11,0 C 17.668999,19 17,19.669 17,20.5 v 3 c 0,0.831 0.668999,1.5 1.5,1.5 h 6 c 0.831,0 1.5,-0.669 1.5,-1.5 v -3 C 26,19.669 25.331,19 24.5,19 Z"/>
 </g>
</svg>
