<svg xmlns="http://www.w3.org/2000/svg"  width="32" height="32" version="1.1">
 <g id="22-22-user-away" transform="translate(108,-22)">
  <rect  style="opacity:0.001" width="22" height="22" x="-44" y="0"/>
  <path  style="opacity:1;fill:#fdbc4b" transform="translate(-88)" d="m 55,3 c -2.209126,-5.4e-6 -3.999984,1.7908524 -4,4 1.6e-5,2.2091476 1.790874,4.000005 4,4 2.209126,5e-6 3.999984,-1.7908524 4,-4 -1.6e-5,-2.2091476 -1.790874,-4.0000054 -4,-4 z m 0,1 c 1.656843,0 2.999984,1.343141 3,3 -1.6e-5,1.656859 -1.343157,3 -3,3 -1.656843,0 -2.999984,-1.343141 -3,-3 1.6e-5,-1.656859 1.343157,-3 3,-3 z m 8,7 -8,4 2,1 1,3 1,-2 2,1 z m -8,1 c -4.317983,0 -7.999999,2.594496 -8,5.949219 -4.49e-4,0.580347 0.56551,1.050959 1.263672,1.050781 H 55 56.945312 L 56.611328,18 H 55 48.263672 C 48.01526,17.99998 47.999992,17.879024 48,17.949219 48,16.637711 48.705883,15.448641 49.970703,14.523438 51.235524,13.598231 53.041355,13 55,13 c 0.51834,0 1.024818,0.04522 1.513672,0.125 l 1.396484,-0.697266 C 57.000526,12.159449 56.022478,12 55,12 Z"/>
 </g>
 <g id="22-22-user-busy" transform="translate(98,-22)">
  <rect  style="opacity:0.001" width="22" height="22" x="-66" y="0"/>
  <path id="path4149-4" style="opacity:1;fill:#f67400" transform="translate(-88)" d="m 33,3 c -2.209126,-5.4e-6 -3.999984,1.7908524 -4,4 1.6e-5,2.2091476 1.790874,4.000005 4,4 2.209126,5e-6 3.999984,-1.7908524 4,-4 -1.6e-5,-2.2091476 -1.790874,-4.0000054 -4,-4 z m 0,1 c 1.656843,0 2.999984,1.343141 3,3 -1.6e-5,1.656859 -1.343157,3 -3,3 -1.656843,0 -2.999984,-1.343141 -3,-3 1.6e-5,-1.656859 1.343157,-3 3,-3 z m 0,8 c -4.317983,0 -7.999999,2.594496 -8,5.949219 A 1.2632842,1.0501051 0 0 0 26.263672,19 H 33 34.677734 A 4.5,4.5 0 0 1 33.761719,18 H 33 26.263672 C 26.01526,17.99998 25.999992,17.879024 26,17.949219 26,16.637711 26.705883,15.448641 27.970703,14.523438 29.235524,13.598232 31.041355,13 33,13 c 0.250248,0 0.497737,0.01033 0.742188,0.0293 a 4.5,4.5 0 0 1 0.802734,-0.916016 C 34.043028,12.039513 33.526306,12 33,12 Z m 4.5,0 C 35.567003,12 34,13.567003 34,15.5 34,17.432997 35.567003,19 37.5,19 39.432997,19 41,17.432997 41,15.5 41,13.567003 39.432997,12 37.5,12 Z M 37,13 h 1 v 2 h 2 v 1 h -2 -1 v -1 z"/>
 </g>
 <g id="22-22-user-invisible" transform="translate(138,-22)">
  <rect  style="opacity:0.001" width="22" height="22" x="22" y="0"/>
  <path id="path4149-7" style="opacity:1;fill:#3daee9" transform="translate(-88)" d="m 121,3 c -2.20913,-5.4e-6 -3.99998,1.7908524 -4,4 2e-5,2.2091476 1.79087,4.000005 4,4 2.20913,5e-6 3.99998,-1.7908524 4,-4 -2e-5,-2.2091476 -1.79087,-4.0000054 -4,-4 z m 0,1 c 1.65684,0 2.99998,1.343141 3,3 -2e-5,1.656859 -1.34316,3 -3,3 -1.65684,0 -2.99998,-1.343141 -3,-3 2e-5,-1.656859 1.34316,-3 3,-3 z m 0,8 c -4.31798,0 -8,2.594496 -8,5.949219 A 1.2632842,1.0501051 0 0 0 114.26367,19 H 121 h 1.67773 a 4.5,4.5 0 0 1 -0.91601,-1 H 121 114.26367 c -0.24841,-2e-5 -0.26368,-0.120977 -0.26367,-0.05078 0,-1.311508 0.70588,-2.500579 1.9707,-3.425781 C 117.23552,13.598232 119.04135,13 121,13 c 0.25025,0 0.49774,0.01033 0.74219,0.0293 a 4.5,4.5 0 0 1 0.80273,-0.916016 C 122.04303,12.03951 121.52631,12 121,12 Z m 4.5,0 c -1.933,0 -3.5,1.567003 -3.5,3.5 0,1.932997 1.567,3.5 3.5,3.5 1.933,0 3.5,-1.567003 3.5,-3.5 0,-1.932997 -1.567,-3.5 -3.5,-3.5 z m 1.29883,1.498047 0.70703,0.707031 -3.29297,3.292969 -0.70703,-0.707031 z"/>
 </g>
 <g id="22-22-user-offline" transform="translate(118,-22)">
  <rect  style="opacity:0.001" width="22" height="22" x="-22" y="0"/>
  <path id="path4149-3" style="opacity:0.5;fill:#eff0f1" transform="translate(-88)" d="m 77,3 c -2.209126,-5.4e-6 -3.999984,1.7908524 -4,4 1.6e-5,2.2091476 1.790874,4.000005 4,4 2.209126,5e-6 3.999984,-1.7908524 4,-4 -1.6e-5,-2.2091476 -1.790874,-4.0000054 -4,-4 z m 0,1 c 1.656843,0 2.999984,1.343141 3,3 -1.6e-5,1.656859 -1.343157,3 -3,3 -1.656843,0 -2.999984,-1.343141 -3,-3 1.6e-5,-1.656859 1.343157,-3 3,-3 z m 0,8 c -4.317983,0 -7.999999,2.594496 -8,5.949219 A 1.2632842,1.0501051 0 0 0 70.263672,19 H 77 78.677734 A 4.5,4.5 0 0 1 77.761719,18 H 77 70.263672 C 70.01526,17.99998 69.999992,17.879024 70,17.949219 70,16.637711 70.705883,15.448641 71.970703,14.523438 73.235524,13.598232 75.041355,13 77,13 c 0.250248,0 0.497737,0.01033 0.742188,0.0293 a 4.5,4.5 0 0 1 0.802734,-0.916016 C 78.043028,12.039513 77.526306,12 77,12 Z m 4.5,0 C 79.567003,12 78,13.567003 78,15.5 78,17.432997 79.567003,19 81.5,19 83.432997,19 85,17.432997 85,15.5 85,13.567003 83.432997,12 81.5,12 Z m 0,1 C 82.880712,13 84,14.119288 84,15.5 84,16.880712 82.880712,18 81.5,18 80.119288,18 79,16.880712 79,15.5 79,14.119288 80.119288,13 81.5,13 Z M 80,15 v 1 h 3 v -1 z"/>
 </g>
 <g id="22-22-user-online" transform="translate(128,-22)">
  <rect  style="opacity:0.001" width="22" height="22" x="0" y="0"/>
  <path id="path4149-8" style="opacity:1;fill:#2abb9b" transform="translate(-88)" d="m 98.964844,3 c -2.209126,-5.5e-6 -3.999984,1.7908523 -4,4 1.6e-5,2.2091477 1.790874,4.000006 4,4 2.209126,5e-6 3.999986,-1.7908524 3.999996,-4 -10e-6,-2.2091476 -1.79087,-4.0000054 -3.999996,-4 z m 0,1 c 1.656846,0 2.999986,1.343141 2.999996,3 -10e-6,1.656859 -1.34315,3 -2.999996,3 -1.656843,0 -2.999984,-1.3431409 -3,-3 1.6e-5,-1.6568591 1.343157,-3.0000001 3,-3 z M 99,12 c -4.317983,0 -7.999999,2.594496 -8,5.949219 A 1.2632842,1.0501051 0 0 0 92.263672,19 H 99 100.67773 A 4.5,4.5 0 0 1 99.761719,18 H 99 92.263672 C 92.01526,17.99998 91.999992,17.879024 92,17.949219 92,16.637711 92.705883,15.448641 93.970703,14.523438 95.235524,13.598232 97.041355,13 99,13 c 0.250248,0 0.497738,0.01033 0.742188,0.0293 a 4.5,4.5 0 0 1 0.802732,-0.916016 C 100.04303,12.03951 99.526306,12 99,12 Z m 4.46484,0 c -1.93299,0 -3.499996,1.567003 -3.499996,3.5 0,1.932997 1.567006,3.5 3.499996,3.5 1.933,0 3.5,-1.567003 3.5,-3.5 0,-1.932997 -1.567,-3.5 -3.5,-3.5 z m 1.68164,2.146484 0.70704,0.707032 L 103,17.707031 101.14648,15.853516 101.85352,15.146484 103,16.292969 Z"/>
 </g>
 <g id="22-22-user-identity" transform="translate(88,-22)">
  <rect  style="opacity:0.001" width="22" height="22" x="-88" y="0"/>
  <path id="path4149-2" style="opacity:1;fill:#eff0f1" transform="translate(-88)" d="m 11,3 c -2.209126,-5.4e-6 -3.999984,1.7908524 -4,4 1.6e-5,2.2091476 1.790874,4.000005 4,4 2.209126,5e-6 3.999984,-1.7908524 4,-4 -1.6e-5,-2.2091476 -1.790874,-4.0000054 -4,-4 z m 0,1 c 1.656843,0 2.999984,1.343141 3,3 -1.6e-5,1.656859 -1.343157,3 -3,3 C 9.343157,10 8.000016,8.656859 8,7 8.000016,5.343141 9.343157,4 11,4 Z m 0,8 C 6.682017,12 3.000001,14.594496 3,17.949219 A 1.2632842,1.0501051 0 0 0 4.2636719,19 H 11 17.736328 A 1.2632842,1.0501051 0 0 0 19,17.949219 C 19,14.594496 15.317984,12 11,12 Z m 0,1 c 1.958646,0 3.764477,0.598233 5.029297,1.523438 C 17.294117,15.44864 18,16.637711 18,17.949219 18.000008,17.879029 17.98474,17.99998 17.736328,18 H 11 4.2636719 C 4.01526,17.99998 3.9999915,17.879025 4,17.949219 4,16.637711 4.7058828,15.448641 5.9707031,14.523438 7.2355234,13.598233 9.0413549,13 11,13 Z"/>
 </g>
 <g id="22-22-user-away-extended" transform="translate(148,-22)">
  <rect  style="opacity:0.001" width="22" height="22" x="44" y="0"/>
  <path  style="opacity:1;fill:#9b59b6" transform="translate(-88)" d="m 143,3 c -2.20913,-5.4e-6 -3.99998,1.7908524 -4,4 2e-5,2.2091476 1.79087,4.000005 4,4 2.20913,5e-6 3.99998,-1.7908524 4,-4 -2e-5,-2.2091476 -1.79087,-4.0000054 -4,-4 z m 0,1 c 1.65684,0 2.99998,1.343141 3,3 -2e-5,1.656859 -1.34316,3 -3,3 -1.65684,0 -2.99998,-1.343141 -3,-3 2e-5,-1.656859 1.34316,-3 3,-3 z m 0,8 c -4.31798,0 -8,2.594496 -8,5.949219 A 1.2632842,1.0501051 0 0 0 136.26367,19 H 143 h 1.67773 a 4.5,4.5 0 0 1 -0.91601,-1 H 143 136.26367 c -0.24841,-2e-5 -0.26368,-0.120977 -0.26367,-0.05078 0,-1.311508 0.70588,-2.500579 1.9707,-3.425781 C 139.23552,13.598232 141.04135,13 143,13 c 0.25025,0 0.49774,0.01033 0.74219,0.0293 a 4.5,4.5 0 0 1 0.80273,-0.916016 C 144.04303,12.03951 143.52631,12 143,12 Z m 4.5,0 c -1.933,0 -3.5,1.567003 -3.5,3.5 0,1.932997 1.567,3.5 3.5,3.5 1.933,0 3.5,-1.567003 3.5,-3.5 0,-1.932997 -1.567,-3.5 -3.5,-3.5 z m -2,3 c 0.27614,0 0.5,0.223858 0.5,0.5 0,0.276142 -0.22386,0.5 -0.5,0.5 -0.27614,0 -0.5,-0.223858 -0.5,-0.5 0,-0.276142 0.22386,-0.5 0.5,-0.5 z m 2,0 c 0.27614,0 0.5,0.223858 0.5,0.5 0,0.276142 -0.22386,0.5 -0.5,0.5 -0.27614,0 -0.5,-0.223858 -0.5,-0.5 0,-0.276142 0.22386,-0.5 0.5,-0.5 z m 2,0 c 0.27614,0 0.5,0.223858 0.5,0.5 0,0.276142 -0.22386,0.5 -0.5,0.5 -0.27614,0 -0.5,-0.223858 -0.5,-0.5 0,-0.276142 0.22386,-0.5 0.5,-0.5 z"/>
 </g>
 <g id="user-identity" transform="translate(4e-6)">
  <rect  style="opacity:0.001" width="32" height="32" x="0" y="0"/>
  <path  style="opacity:1;fill:#eff0f1" d="m 16,4 c -3.313689,-8.2e-6 -5.999976,2.6862786 -6,6 2.4e-5,3.313722 2.686311,6.000007 6,6 3.31369,7e-6 5.999976,-2.686278 6,-6 -2.4e-5,-3.3137214 -2.68631,-6.0000082 -6,-6 z m 0,1 c 2.761406,0 4.999974,2.2385683 5,5 -2.6e-5,2.761432 -2.238594,5 -5,5 -2.761404,0 -4.999973,-2.238568 -5,-5 2.7e-5,-2.7614317 2.238596,-5 5,-5 z m 0,13 C 9.5230257,18 4.0000016,21.705585 4,26.498047 A 1.8949262,1.5001502 0 0 0 5.8964844,28 H 16 26.103516 A 1.8949262,1.5001502 0 0 0 28,26.498047 C 28,21.705585 22.476977,18 16,18 Z m 0,1 c 3.04774,0 5.862616,0.883996 7.857422,2.273438 C 25.852228,22.662879 27,24.485962 27,26.498047 V 26.5 c 1.19e-4,0.145982 -0.275403,0.500151 -0.894531,0.5 H 16 5.8945312 C 5.2754033,27.000151 4.9998813,26.645982 5,26.5 v -0.002 c 7e-7,-2.012085 1.1477719,-3.835168 3.1425781,-5.224609 C 10.137384,19.884042 12.952261,19 16,19 Z"/>
 </g>
 <g id="user-offline" transform="translate(96.000004)">
  <rect  style="opacity:0.001" width="32" height="32" x="0" y="0"/>
  <path  style="opacity:0.5;fill:#eff0f1" transform="translate(-96.000004)" d="M 112 4 C 108.68631 3.9999918 106.00002 6.6862786 106 10 C 106.00002 13.313722 108.68631 16.000007 112 16 C 115.31369 16.000007 117.99998 13.313722 118 10 C 117.99998 6.6862786 115.31369 3.9999918 112 4 z M 112 5 C 114.76141 5 116.99997 7.2385683 117 10 C 116.99997 12.761432 114.76141 15 112 15 C 109.2386 15 107.00003 12.761432 107 10 C 107.00003 7.2385683 109.2386 5 112 5 z M 119.5 17 A 5.5 5.5 0 0 0 114 22.5 A 5.5 5.5 0 0 0 119.5 28 A 5.5 5.5 0 0 0 125 22.5 A 5.5 5.5 0 0 0 119.5 17 z M 112 18 C 105.52303 18 100 21.705585 100 26.498047 A 1.8949262 1.5001502 0 0 0 101.89648 28 L 112 28 L 116.04883 28 A 6.5 6.5 0 0 1 114.8125 27 L 112 27 L 101.89453 27 C 101.2754 27.000151 100.99988 26.645982 101 26.5 L 101 26.498047 C 101 24.485962 102.14777 22.662879 104.14258 21.273438 C 106.13738 19.884135 108.95226 19 112 19 C 112.66464 19 113.31477 19.04875 113.95117 19.128906 A 6.5 6.5 0 0 1 114.62305 18.212891 C 113.77393 18.077419 112.89797 18 112 18 z M 119.5 18 A 4.5 4.5 0 0 1 124 22.5 A 4.5 4.5 0 0 1 119.5 27 A 4.5 4.5 0 0 1 115 22.5 A 4.5 4.5 0 0 1 119.5 18 z M 117 22 L 117 23 L 122 23 L 122 22 L 117 22 z"/>
 </g>
 <g id="user-busy" transform="translate(32.000004)">
  <rect  style="opacity:0.001" width="32" height="32" x="0" y="0"/>
  <path  style="opacity:1;fill:#f67400" transform="translate(-32.000004)" d="M 48 4 C 44.686311 3.9999918 42.000024 6.6862786 42 10 C 42.000024 13.313722 44.686311 16.000007 48 16 C 51.31369 16.000007 53.999976 13.313722 54 10 C 53.999976 6.6862786 51.31369 3.9999918 48 4 z M 48 5 C 50.761406 5 52.999974 7.2385683 53 10 C 52.999974 12.761432 50.761406 15 48 15 C 45.238596 15 43.000027 12.761432 43 10 C 43.000027 7.2385683 45.238596 5 48 5 z M 55.5 17 C 52.462434 17 50 19.462434 50 22.5 C 50 25.537566 52.462434 28 55.5 28 C 58.537566 28 61 25.537566 61 22.5 C 61 19.462434 58.537566 17 55.5 17 z M 48 18 C 41.523026 18 36.000002 21.705585 36 26.498047 A 1.8949262 1.5001502 0 0 0 37.896484 28 L 48 28 L 52.048828 28 A 6.5 6.5 0 0 1 50.8125 27 L 48 27 L 37.894531 27 C 37.275403 27.000151 36.999881 26.645982 37 26.5 L 37 26.498047 C 37.000001 24.485962 38.147772 22.662879 40.142578 21.273438 C 42.137384 19.884135 44.952261 19 48 19 C 48.664636 19 49.314774 19.04875 49.951172 19.128906 A 6.5 6.5 0 0 1 50.623047 18.212891 C 49.773927 18.077419 48.897968 18 48 18 z M 55 19 L 56 19 L 56 22 L 59 22 L 59 23 L 56 23 L 55 23 L 55 22 L 55 19 z"/>
 </g>
 <g id="user-online" transform="translate(128)">
  <rect  style="opacity:0.001" width="32" height="32" x="0" y="0"/>
  <path  style="opacity:1;fill:#2abb9b" transform="translate(-128)" d="M 144 4 C 140.68631 3.9999918 138.00002 6.6862786 138 10 C 138.00002 13.313722 140.68631 16.000007 144 16 C 147.31369 16.000007 149.99998 13.313722 150 10 C 149.99998 6.6862786 147.31369 3.9999918 144 4 z M 144 5 C 146.76141 5 148.99997 7.2385683 149 10 C 148.99997 12.761432 146.76141 15 144 15 C 141.2386 15 139.00003 12.761432 139 10 C 139.00003 7.2385683 141.2386 5 144 5 z M 151.5 17 A 5.5 5.5 0 0 0 146 22.5 A 5.5 5.5 0 0 0 151.5 28 A 5.5 5.5 0 0 0 157 22.5 A 5.5 5.5 0 0 0 151.5 17 z M 144 18 C 137.52303 18 132 21.705585 132 26.498047 A 1.8949262 1.5001502 0 0 0 133.89648 28 L 144 28 L 148.04883 28 A 6.5 6.5 0 0 1 146.8125 27 L 144 27 L 133.89453 27 C 133.2754 27.000151 132.99988 26.645982 133 26.5 L 133 26.498047 C 133 24.485962 134.14777 22.662879 136.14258 21.273438 C 138.13738 19.884135 140.95226 19 144 19 C 144.66464 19 145.31477 19.04875 145.95117 19.128906 A 6.5 6.5 0 0 1 146.62305 18.212891 C 145.77393 18.077419 144.89797 18 144 18 z M 154.60938 19.6875 L 155.39062 20.3125 L 151.04102 25.748047 L 147.64648 22.353516 L 148.35352 21.646484 L 150.95898 24.251953 L 154.60938 19.6875 z"/>
 </g>
 <g id="user-away-extended" transform="translate(192)">
  <rect  style="opacity:0.001" width="32" height="32" x="0" y="0"/>
  <path  style="opacity:1;fill:#9b59b6" transform="translate(-192)" d="M 208 4 C 204.68631 3.9999918 202.00002 6.6862786 202 10 C 202.00002 13.313722 204.68631 16.000007 208 16 C 211.31369 16.000007 213.99998 13.313722 214 10 C 213.99998 6.6862786 211.31369 3.9999918 208 4 z M 208 5 C 210.76141 5 212.99997 7.2385683 213 10 C 212.99997 12.761432 210.76141 15 208 15 C 205.2386 15 203.00003 12.761432 203 10 C 203.00003 7.2385683 205.2386 5 208 5 z M 215.41992 17 A 5.5 5.5 0 0 0 211.61133 18.611328 A 5.5 5.5 0 0 0 211.61133 26.388672 A 5.5 5.5 0 0 0 219.38867 26.388672 A 5.5 5.5 0 0 0 219.38867 18.611328 A 5.5 5.5 0 0 0 215.41992 17 z M 208 18 C 201.52303 18 196 21.705585 196 26.498047 A 1.8949262 1.5001502 0 0 0 197.89648 28 L 208 28 L 212.04883 28 A 6.5 6.5 0 0 1 210.8125 27 L 208 27 L 197.89453 27 C 197.2754 27.000151 196.99988 26.645982 197 26.5 L 197 26.498047 C 197 24.485962 198.14777 22.662879 200.14258 21.273438 C 202.13738 19.884135 204.95226 19 208 19 C 208.66464 19 209.31477 19.04875 209.95117 19.128906 A 6.5 6.5 0 0 1 210.62305 18.212891 C 209.77393 18.077419 208.89797 18 208 18 z M 212.5 22 A 0.5 0.5 0 0 1 213 22.5 A 0.5 0.5 0 0 1 212.5 23 A 0.5 0.5 0 0 1 212 22.5 A 0.5 0.5 0 0 1 212.5 22 z M 215.5 22 A 0.5 0.5 0 0 1 216 22.5 A 0.5 0.5 0 0 1 215.5 23 A 0.5 0.5 0 0 1 215 22.5 A 0.5 0.5 0 0 1 215.5 22 z M 218.5 22 A 0.5 0.5 0 0 1 219 22.5 A 0.5 0.5 0 0 1 218.5 23 A 0.5 0.5 0 0 1 218 22.5 A 0.5 0.5 0 0 1 218.5 22 z"/>
 </g>
 <g id="user-invisible" transform="translate(160)">
  <rect  style="opacity:0.001" width="32" height="32" x="0" y="0"/>
  <path  style="opacity:1;fill:#3daee9" transform="translate(-160)" d="M 176 4 C 172.68631 3.9999918 170.00002 6.6862786 170 10 C 170.00002 13.313722 172.68631 16.000007 176 16 C 179.31369 16.000007 181.99998 13.313722 182 10 C 181.99998 6.6862786 179.31369 3.9999918 176 4 z M 176 5 C 178.76141 5 180.99997 7.2385683 181 10 C 180.99997 12.761432 178.76141 15 176 15 C 173.2386 15 171.00003 12.761432 171 10 C 171.00003 7.2385683 173.2386 5 176 5 z M 183.41992 17 A 5.5 5.5 0 0 0 179.61133 18.611328 A 5.5 5.5 0 0 0 179.61133 26.388672 A 5.5 5.5 0 0 0 187.38867 26.388672 A 5.5 5.5 0 0 0 187.38867 18.611328 A 5.5 5.5 0 0 0 183.41992 17 z M 176 18 C 169.52303 18 164 21.705585 164 26.498047 A 1.8949262 1.5001502 0 0 0 165.89648 28 L 176 28 L 180.04883 28 A 6.5 6.5 0 0 1 178.8125 27 L 176 27 L 165.89453 27 C 165.2754 27.000151 164.99988 26.645982 165 26.5 L 165 26.498047 C 165 24.485962 166.14777 22.662879 168.14258 21.273438 C 170.13738 19.884135 172.95226 19 176 19 C 176.66464 19 177.31477 19.04875 177.95117 19.128906 A 6.5 6.5 0 0 1 178.62305 18.212891 C 177.77393 18.077419 176.89797 18 176 18 z M 185.62109 19.671875 L 186.32812 20.378906 L 181.37891 25.328125 L 180.67188 24.621094 L 185.62109 19.671875 z"/>
 </g>
 <g id="user-away" transform="translate(64)">
  <rect  style="opacity:0.001" width="32" height="32" x="0" y="0"/>
  <path  style="opacity:1;fill:#fdbc4b" d="m 16,4 c -3.313689,-8.2e-6 -5.999976,2.6862786 -6,6 2.4e-5,3.313722 2.686311,6.000007 6,6 3.31369,7e-6 5.999976,-2.686278 6,-6 -2.4e-5,-3.3137214 -2.68631,-6.0000082 -6,-6 z m 0,1 c 2.761406,0 4.999974,2.2385683 5,5 -2.6e-5,2.761432 -2.238594,5 -5,5 -2.761404,0 -4.999973,-2.238568 -5,-5 2.7e-5,-2.7614317 2.238596,-5 5,-5 z m 12,11 -12,6 3,1.5 1.5,4.5 1.5,-3 3,1.5 z M 16,18 C 9.5230257,18 4.0000016,21.705585 4,26.498047 3.9987402,27.327743 4.848447,28.000683 5.8964844,28 H 16 19.445312 L 19.111328,27 H 16 5.8945312 C 5.2754034,27.000151 4.9998813,26.645982 5,26.5 v -0.002 c 7e-7,-2.012085 1.1477719,-3.835168 3.1425781,-5.224609 C 10.137384,19.884135 12.952261,19 16,19 c 1.079347,0 2.126241,0.115385 3.121094,0.320312 l 1.384765,-0.691406 C 19.104418,18.225036 17.581782,18 16,18 Z"/>
 </g>
</svg>
