<svg xmlns="http://www.w3.org/2000/svg"  width="32" height="32" version="1">
 <g id="22-22-utilities-terminal" transform="translate(32.000001,10.000001)">
  <rect  style="opacity:0.001" width="22" height="22" x="0" y="0"/>
  <path  style="opacity:1;fill:#eff0f1" d="M 5,4 C 3.892,4 3,4.892 3,6 v 10 c 0,1.108 0.892,2 2,2 h 12 c 1.108,0 2,-0.892 2,-2 V 6 C 19,4.892 18.108,4 17,4 Z m 0,1 h 12 c 0.571297,0 1,0.4287028 1,1 v 10 c 0,0.571297 -0.428703,1 -1,1 H 5 C 4.4287028,17 4,16.571297 4,16 V 6 C 4,5.4287028 4.4287028,5 5,5 Z M 6,6 V 7 H 5 V 8 H 6 V 9 H 5 v 1 h 1 v 1 h 1 v -1 h 1 v 1 h 1 v -1 h 1 V 9 H 9 V 8 h 1 V 7 H 9 V 6 H 8 V 7 H 7 V 6 Z M 7,8 H 8 V 9 H 7 Z m 4,2 v 1 h 4 v -1 z"/>
 </g>
 <g id="utilities-terminal">
  <rect  style="opacity:0.001" width="32" height="32" x="0" y="0"/>
  <path  style="opacity:1;fill:#eff0f1" d="M 7 5 C 5.3379999 5 4 6.338 4 8 L 4 23 C 4 24.662 5.3379999 26 7 26 L 25 26 C 26.662 26 28 24.662 28 23 L 28 8 C 28 6.338 26.662 5 25 5 L 7 5 z M 7 6 L 25 6 C 26.125297 6 27 6.8747024 27 8 L 27 23 C 27 24.125298 26.125297 25 25 25 L 7 25 C 5.8747026 25 5 24.125297 5 23 L 5 8 C 5 6.8747028 5.8747027 6 7 6 z M 9 8 L 9 10 L 7 10 L 7 11 L 9 11 L 9 13 L 7 13 L 7 14 L 9 14 L 9 16 L 10 16 L 10 14 L 12 14 L 12 16 L 13 16 L 13 14 L 15 14 L 15 13 L 13 13 L 13 11 L 15 11 L 15 10 L 13 10 L 13 8 L 12 8 L 12 10 L 10 10 L 10 8 L 9 8 z M 10 11 L 12 11 L 12 13 L 10 13 L 10 11 z M 17 15 L 17 16 L 23 16 L 23 15 L 17 15 z"/>
 </g>
</svg>
