<svg xmlns="http://www.w3.org/2000/svg"  width="32" height="32" version="1.1">
 <g id="22-22-wallet-open" transform="translate(0,-22)">
  <path  style="opacity:1;fill:#eff0f1" d="M 3,3 V 7 H 2 v 1 10 c 0,0.554 0.446,1 1,1 h 16 1 V 18 8 C 20,7.446 19.554,7 19,7 H 14 V 3 Z m 1,1 h 9 V 7 H 10.492188 C 10.021704,6.3726797 9.284143,6.0024532 8.5,6 7.7137941,6.0006144 6.9736765,6.3710349 6.5019531,7 H 4 Z M 3,8 H 4 6.0507812 10.945312 13 h 1 5 v 3 h -2 -5 c -1.108,0 -2,0.892 -2,2 0,1.108 0.892,2 2,2 h 5 2 v 3 H 3 Z m 10,4 c 0.552285,0 1,0.447715 1,1 0,0.552285 -0.447715,1 -1,1 -0.552285,0 -1,-0.447715 -1,-1 0,-0.552285 0.447715,-1 1,-1 z"/>
  <rect  style="opacity:0.001" width="22" height="22" x="0" y="0"/>
 </g>
 <g id="22-22-wallet-closed" transform="translate(10,-22)">
  <path  style="opacity:1;fill:#eff0f1" d="m 24,7 v 1 10 c 0,0.554 0.446,1 1,1 h 16 1 V 18 8 C 42,7.446 41.554,7 41,7 H 25 Z m 1,1 h 16 v 3 h -2 -5 c -1.108,0 -2,0.892 -2,2 0,1.108 0.892,2 2,2 h 5 2 v 3 H 25 Z m 10,4 c 0.552285,0 1,0.447715 1,1 0,0.552285 -0.447715,1 -1,1 -0.552285,0 -1,-0.447715 -1,-1 0,-0.552285 0.447715,-1 1,-1 z"/>
  <rect  style="opacity:0.001" width="22" height="22" x="22" y="0"/>
 </g>
 <g id="wallet-open">
  <rect  style="opacity:0.001" width="32" height="32" x="0" y="0"/>
  <path  style="opacity:1;fill:#eff0f1" d="M 4 4 L 4 10 L 3 10 L 3 11.5 L 3 26.5 C 3 27.331 3.669 28 4.5 28 L 28.5 28 L 30 28 L 30 26.5 L 30 11.5 C 30 10.669 29.331001 10 28.5 10 L 24 10 L 21 10 L 20 10 L 20 4 L 4 4 z M 5 5 L 19 5 L 19 10 L 15.15625 10 C 14.593771 8.8195008 13.394756 8 12 8 C 10.604665 8 9.4020233 8.8187077 8.8398438 10 L 6 10 L 5 10 L 5 5 z M 4 11 L 4.5 11 L 6 11 L 19.5 11 L 21 11 L 24 11 L 28.5 11 C 28.794299 11 29 11.205702 29 11.5 L 29 16 L 18 16 C 16.338 16 15 17.338 15 19 C 15 20.662 16.338 22 18 22 L 29 22 L 29 26.5 L 29 27 L 28.5 27 L 4.5 27 C 4.2057028 27 4 26.794297 4 26.5 L 4 11.5 L 4 11 z M 19 17 A 2 2 0 0 1 21 19 A 2 2 0 0 1 19 21 A 2 2 0 0 1 17 19 A 2 2 0 0 1 19 17 z"/>
 </g>
 <g id="wallet-closed" transform="translate(32)">
  <rect  style="opacity:0.001" width="32" height="32" x="0" y="0"/>
  <path  style="opacity:1;fill:#eff0f1" d="M 4,10 H 3 v 1.5 15 C 3,27.331 3.669,28 4.5,28 h 24 1.5 v -1.5 -15 C 30,10.669 29.331001,10 28.5,10 H 24 21 20 Z m 15,0 H 15.15625 8.8398438 6 5 Z M 4,11 H 4.5 6 19.5 21 h 3 4.5 c 0.294299,0 0.5,0.205702 0.5,0.5 V 16 H 18 c -1.662,0 -3,1.338 -3,3 0,1.662 1.338,3 3,3 H 29 V 26.5 27 H 28.5 4.5 C 4.2057028,27 4,26.794297 4,26.5 v -15 z m 15,6 c 1.104569,0 2,0.895431 2,2 0,1.104569 -0.895431,2 -2,2 -1.104569,0 -2,-0.895431 -2,-2 0,-1.104569 0.895431,-2 2,-2 z"/>
 </g>
</svg>
