<svg xmlns="http://www.w3.org/2000/svg"  width="22" height="22" version="1.0">
 <g id="zoom-fit-height" transform="translate(-252.5332,-365.50505)">
  <path  style="opacity:1;fill:#eff0f1" d="m 253.5232,366.50504 v 1 h 10 10 v -1 z m 10,1 -3,3 h 2 v 3.1875 c -1.15834,0.41552 -2,1.51119 -2,2.8125 0,1.30132 0.84166,2.39699 2,2.8125 v 3.1875 h -2 l 3,3 3,-3 h -2 v -3.1875 c 1.15835,-0.41551 2,-1.51118 2,-2.8125 0,-1.30131 -0.84165,-2.39698 -2,-2.8125 v -3.1875 h 2 z m 0,18 h -10 v 1 h 20 v -1 z m 0,-11 c 1.10457,0 2,0.89543 2,2 0,1.10457 -0.89543,2 -2,2 -1.10456,0 -2,-0.89543 -2,-2 0,-1.10457 0.89544,-2 2,-2 z"/>
  <circle  style="opacity:1;fill:#eff0f1" cx="11.013" cy="11" r="1" transform="translate(252.5232,365.50504)"/>
  <rect  style="opacity:0.001" width="22" height="22" x=".01" y="0" transform="translate(252.5232,365.50504)"/>
 </g>
 <g id="zoom-fit-width" transform="rotate(90,331.01913,78.485915)">
  <path  style="opacity:1;fill:#eff0f1" d="m 253.5232,366.50504 v 1 h 10 10 v -1 z m 10,1 -3,3 h 2 v 3.1875 c -1.15834,0.41552 -2,1.51119 -2,2.8125 0,1.30132 0.84166,2.39699 2,2.8125 v 3.1875 h -2 l 3,3 3,-3 h -2 v -3.1875 c 1.15835,-0.41551 2,-1.51118 2,-2.8125 0,-1.30131 -0.84165,-2.39698 -2,-2.8125 v -3.1875 h 2 z m 0,18 h -10 v 1 h 20 v -1 z m 0,-11 c 1.10457,0 2,0.89543 2,2 0,1.10457 -0.89543,2 -2,2 -1.10456,0 -2,-0.89543 -2,-2 0,-1.10457 0.89544,-2 2,-2 z"/>
  <circle  style="opacity:1;fill:#eff0f1" cx="11.013" cy="11" r="1" transform="translate(252.5232,365.50504)"/>
  <rect  style="opacity:0.001" width="22" height="22" x=".01" y="0" transform="translate(252.5232,365.50504)"/>
 </g>
 <g id="16-16-zoom-fit-height" transform="translate(-255.5332,-384.50505)">
  <path  style="opacity:1;fill:#eff0f1" d="m 256.5232,369.50504 v 1 h 7 7 v -1 z m 7,1 -2,2 h 1 c 0,0 0.007,1.1284 0,2.28125 -0.5969,0.34604 -1,0.97915 -1,1.71875 0,0.7396 0.4031,1.37271 1,1.71875 0.007,1.18625 0,2.3125 0,2.3125 h -1 l 1.96875,1.96875 h -6.9375 v 1 h 13.96875 v -1 h -6.96875 l 1.96875,-1.96875 -1.03125,-0.0312 v -2.25 c 0.61694,-0.34059 1.03125,-0.99545 1.03125,-1.75 0,-0.75455 -0.41431,-1.40941 -1.03125,-1.75 v -2.21875 l 1.03125,-0.0312 -2,-2 z m -0.125,5.03125 h 0.25 c 0.4881,0.0662 0.875,0.46249 0.875,0.96875 0,0.55228 -0.44772,1 -1,1 -0.55228,0 -1,-0.44772 -1,-1 0,-0.50626 0.3869,-0.90253 0.875,-0.96875 z"/>
  <rect  style="opacity:0.001" width="16" height="16" x=".01" y="0" transform="translate(255.5232,368.50504)"/>
 </g>
 <g id="16-16-zoom-fit-width" transform="rotate(90,339.01913,67.485915)">
  <path  style="opacity:1;fill:#eff0f1" d="m 256.5232,369.50504 v 1 h 7 7 v -1 z m 7,1 -2,2 h 1 c 0,0 0.007,1.1284 0,2.28125 -0.5969,0.34604 -1,0.97915 -1,1.71875 0,0.7396 0.4031,1.37271 1,1.71875 0.007,1.18625 0,2.3125 0,2.3125 h -1 l 1.96875,1.96875 h -6.9375 v 1 h 13.96875 v -1 h -6.96875 l 1.96875,-1.96875 -1.03125,-0.0312 v -2.25 c 0.61694,-0.34059 1.03125,-0.99545 1.03125,-1.75 0,-0.75455 -0.41431,-1.40941 -1.03125,-1.75 v -2.21875 l 1.03125,-0.0312 -2,-2 z m -0.125,5.03125 h 0.25 c 0.4881,0.0662 0.875,0.46249 0.875,0.96875 0,0.55228 -0.44772,1 -1,1 -0.55228,0 -1,-0.44772 -1,-1 0,-0.50626 0.3869,-0.90253 0.875,-0.96875 z"/>
  <rect  style="opacity:0.001" width="16" height="16" x=".01" y="0" transform="translate(255.5232,368.50504)"/>
 </g>
</svg>
