<?xml version="1.0" encoding="UTF-8" standalone="no"?>
<svg
   xmlns:dc="http://purl.org/dc/elements/1.1/"
   xmlns:cc="http://creativecommons.org/ns#"
   xmlns:rdf="http://www.w3.org/1999/02/22-rdf-syntax-ns#"
   xmlns:svg="http://www.w3.org/2000/svg"
   xmlns="http://www.w3.org/2000/svg"
   xmlns:xlink="http://www.w3.org/1999/xlink"
   id="svg101"
   viewBox="0 0 70 256"
   version="1.1"
   height="256"
   width="70">
  <metadata
     id="metadata105">
    <rdf:RDF>
      <cc:Work
         rdf:about="">
        <dc:format>image/svg+xml</dc:format>
        <dc:type
           rdf:resource="http://purl.org/dc/dcmitype/StillImage" />
        <dc:title></dc:title>
      </cc:Work>
    </rdf:RDF>
  </metadata>
  <defs
     id="defs3">
    <style
       type="text/css"
       id="current-color-scheme">.ColorScheme-Text {
        color:#363636;
      }
      .ColorScheme-Background {
        color:#efefef;
      }
      .ColorScheme-Highlight {
        color:#3daee9;
      }
      .ColorScheme-ViewText {
        color:#363636;
      }
      .ColorScheme-ViewBackground {
        color:#fcfcfc;
      }
      .ColorScheme-ViewHover {
        color:#93cee9;
      }
      .ColorScheme-ViewFocus{
        color:#3daee9;
      }
      .ColorScheme-ButtonText {
        color:#363636;
      }
      .ColorScheme-ButtonBackground {
        color:#ffffff;
      }
      .ColorScheme-ButtonHover {
        color:#93cee9;
      }
      .ColorScheme-ButtonFocus{
        color:#3daee9;
      }</style>
  </defs>
  <g
     transform="translate(-310 -300.36)"
     id="22-22-input-mouse-battery">
    <rect
       id="rect5"
       fill="none"
       ry="0"
       height="22"
       width="22"
       y="534.36"
       x="326" />
    <path
       id="path7"
       fill="currentColor"
       d="m13.5 3c-3.047 0-5.5 2.676-5.5 6v4c0 3.324 2.453 6 5.5 6s5.5-2.676 5.5-6v-4c0-3.324-2.453-6-5.5-6zm0 1c2.493 0 4.5 2.007 4.5 4.5v5c0 2.493-2.007 4.5-4.5 4.5s-4.5-2.007-4.5-4.5v-5c0-2.493 2.007-4.5 4.5-4.5zm0 2c-0.277 0-0.5 0.223-0.5 0.5v2c0 0.277 0.223 0.5 0.5 0.5s0.5-0.223 0.5-0.5v-2c0-0.277-0.223-0.5-0.5-0.5z"
       transform="translate(326 534.36)"
       class="ColorScheme-Text" />
    <path
       id="path9"
       d="m331 537.36-2 5h2v3l2-5h-2z"
       fill="currentColor"
       class="ColorScheme-Text" />
  </g>
  <g
     transform="translate(-332 -396.36)"
     id="22-22-input-keyboard-battery">
    <rect
       id="rect12"
       fill="none"
       ry="0"
       height="22"
       width="22"
       y="534.36"
       x="348" />
    <path
       id="path14"
       fill="currentColor"
       d="m20 141v14l7 2 7-2v-5h-1v2h-12v-10h8v-1h-9zm12 0-2 5h2v3l2-5h-2v-3zm-5.5625 3-2.4375 6h1.0742l0.40625-1h3.0391l0.40625 1h1.0742l-2.4395-6h-0.53711l-0.023438 0.00977-0.023438-0.00977h-0.53906zm0.5625 1.2578 1.1133 2.7422h-2.2266l1.1133-2.7422zm-6 7.7422h12v1h-12v-1z"
       transform="translate(332 396.36)"
       class="ColorScheme-Text" />
  </g>
  <g
     transform="translate(-354 -428.36)"
     id="22-22-input-keyboard-brightness">
    <rect
       id="rect17"
       fill="none"
       ry="0"
       height="22"
       width="22"
       y="534.36"
       x="370" />
    <path
       id="path19"
       fill="currentColor"
       d="m20 109v14l7 2 7-2v-9h-1v6h-12v-10h8v-1h-9zm12 0c-1.1046 0-2 0.89543-2 2s0.89543 2 2 2 2-0.89543 2-2-0.89543-2-2-2zm0 1v2c-0.55228 0-1-0.44771-1-1 0-0.55228 0.44772-1 1-1zm-5.5625 2-2.4375 6h1.0742l0.40625-1h3.0391l0.40625 1h1.0742l-2.4395-6h-0.53711l-0.023438 0.00977-0.023438-0.00977h-0.53906zm0.5625 1.2578 1.1133 2.7422h-2.2266l1.1133-2.7422zm-6 7.7422h12v1h-12v-1z"
       transform="translate(354 428.36)"
       class="ColorScheme-Text" />
  </g>
  <g
     transform="translate(-332 -428.36)"
     id="input-keyboard-battery">
    <rect
       id="rect22"
       fill="none"
       ry="0"
       height="32"
       width="32"
       y="556.36"
       x="370" />
    <path
       id="path24"
       fill="currentColor"
       d="m44 132v20l10 4 10-4v-11h-1v8h-18v-16h14v-1h-15zm18 0-2 5h2v3l2-5h-2v-3zm-8.5938 4-4.4062 10h1.3008l1.3223-3h4.7227l1.3496 3h1.3047l-4.5-10h-1.0938zm0.55273 1.6953 1.9375 4.3047h-3.834l1.8965-4.3047zm-8.959 12.305h18v1h-18v-1z"
       transform="translate(332 428.36)"
       class="ColorScheme-Text" />
  </g>
  <g
     transform="translate(-364 -460.36)"
     id="input-keyboard-brightness">
    <rect
       id="rect27"
       fill="none"
       ry="0"
       height="32"
       width="32"
       y="556.36"
       x="402" />
    <path
       id="path29"
       fill="currentColor"
       d="m44 100v20l10 4 10-4v-10h-1v7h-18v-16h12v-1h-13zm9.4062 4-4.4062 10h1.3008l1.3223-3h4.7227l1.3496 3h1.3047l-4.5-10h-1.0938zm0.55273 1.6953 1.9375 4.3047h-3.834l1.8965-4.3047zm-8.959 12.305h18v1h-18v-1z"
       transform="translate(364 460.36)"
       class="ColorScheme-Text" />
    <path
       id="path31"
       fill="currentColor"
       d="m100 25c-0.277 0-0.5 0.223-0.5 0.5v1c0 0.277 0.223 0.5 0.5 0.5s0.5-0.223 0.5-0.5v-1c0-0.277-0.223-0.5-0.5-0.5zm-3.1816 1.3184c-0.12781 0-0.25558 0.04855-0.35352 0.14648-0.19587 0.19587-0.19587 0.51116 0 0.70703l0.70703 0.70703c0.19587 0.19587 0.51116 0.19587 0.70703 0s0.19587-0.51116 0-0.70703l-0.70703-0.70703c-0.09793-0.09793-0.22571-0.14648-0.35352-0.14648zm6.3633 0c-0.12781 0-0.25558 0.04855-0.35352 0.14648l-0.70703 0.70703c-0.19586 0.19587-0.19586 0.51116 0 0.70703 0.19587 0.19587 0.51117 0.19587 0.70703 0l0.70704-0.70703c0.19586-0.19587 0.19586-0.51116 0-0.70703-0.0979-0.09793-0.22571-0.14648-0.35352-0.14648zm-3.1816 1.6816c-1.1046 0-2 0.89543-2 2s0.89543 2 2 2c1.1046 0 2-0.89543 2-2s-0.89543-2-2-2zm0 1v2c-0.55228 0-1-0.44772-1-1s0.44772-1 1-1zm-4.5 0.5c-0.277 0-0.5 0.223-0.5 0.5s0.223 0.5 0.5 0.5h1c0.277 0 0.5-0.223 0.5-0.5s-0.223-0.5-0.5-0.5zm8 0c-0.277 0-0.5 0.223-0.5 0.5s0.223 0.5 0.5 0.5h1c0.277 0 0.5-0.223 0.5-0.5s-0.223-0.5-0.5-0.5zm-5.9746 2.4746c-0.12781 0-0.25558 0.04855-0.35352 0.14648l-0.70703 0.70703c-0.19587 0.19587-0.19587 0.51116 0 0.70703s0.51116 0.19587 0.70703 0l0.70703-0.70703c0.19587-0.19587 0.19587-0.51116 0-0.70703-0.09793-0.09793-0.22571-0.14648-0.35352-0.14648zm4.9492 0c-0.12781 0-0.25558 0.04855-0.35352 0.14648-0.19586 0.19587-0.19586 0.51116 0 0.70703l0.70703 0.70703c0.19587 0.19587 0.51117 0.19587 0.70704 0 0.19586-0.19587 0.19586-0.51116 0-0.70703l-0.70704-0.70703c-0.0979-0.09793-0.2257-0.14648-0.35351-0.14648zm-2.4746 1.0254c-0.277 0-0.5 0.223-0.5 0.5v1c0 0.277 0.223 0.5 0.5 0.5s0.5-0.223 0.5-0.5v-1c0-0.277-0.223-0.5-0.5-0.5z"
       transform="translate(326 534.36)"
       class="ColorScheme-Text" />
  </g>
  <g
     transform="translate(-332 -332.36)"
     id="input-mouse-battery">
    <path
       id="path34"
       fill="currentColor"
       d="m386 560.36a8 9 0 0 0-8 9v6a8 9 0 0 0 8 9 8 9 0 0 0 8-9v-6a8 9 0 0 0-8-9zm0 1a7 8 0 0 1 7 8v6a7 8 0 0 1-7 8 7 8 0 0 1-7-8v-6a7 8 0 0 1 7-8zm0 3a1 1 0 0 0-1 1v3a1 1 0 0 0 1 1 1 1 0 0 0 1-1v-3a1 1 0 0 0-1-1zm0 8-2 5h2v3l2-5h-2z"
       class="ColorScheme-Text" />
    <rect
       id="rect36"
       fill="none"
       ry="0"
       height="32"
       width="32"
       y="556.36"
       x="370" />
  </g>
  <g
     transform="translate(-303 -297.36)"
     id="16-16-input-mouse-battery">
    <path
       id="path39"
       fill="currentColor"
       d="m-8 82a4 4 0 0 0-4 4v4a4 4 0 0 0 4 4 4 4 0 0 0 4-4v-4a4 4 0 0 0-4-4zm0 1a3 3 0 0 1 3 3v4a3 3 0 0 1-3 3 3 3 0 0 1-3-3v-4a3 3 0 0 1 3-3zm0 1-2 5h2v3l2-5h-2z"
       transform="translate(319 457.36)"
       class="ColorScheme-Text" />
    <rect
       id="rect41"
       fill="none"
       height="16"
       width="16"
       y="537.36"
       x="303" />
  </g>
  <g
     transform="translate(59.241 23.259)"
     id="22-22-input-caps-on">
    <rect
       id="rect44"
       opacity=".001"
       height="22"
       width="22"
       y="146.74"
       x="-43.241" />
    <path
       id="path46"
       fill="currentColor"
       d="m-39.241 149.74v14l7 2 7-2v-14zm1 1h12v10h-12zm5.4375 2-2.4375 6h1.0742l0.40625-1h3.0391l0.40625 1h1.0742l-2.4394-6h-0.53711l-0.0234 0.01-0.0234-0.01zm0.5625 1.2578 1.1133 2.7422h-2.2266zm-6 7.7422h12v1h-12z"
       class="ColorScheme-Text" />
  </g>
  <g
     transform="translate(-8 85)"
     id="22-22-input-num-on">
    <rect
       id="rect49"
       opacity=".001"
       height="22"
       width="22"
       y="117"
       x="24" />
    <path
       id="path51"
       fill="currentColor"
       d="m28 120v14l7 2 7-2v-14zm1 1h12v10h-12zm6 2v1h-1v1h1v3h-1v1h3v-1h-1v-5zm-6 9h12v1h-12z"
       class="ColorScheme-Text" />
  </g>
  <g
     transform="translate(19 48)"
     id="input-caps-on">
    <rect
       id="rect54"
       opacity=".001"
       height="32"
       width="32"
       y="112"
       x="19" />
    <path
       id="path56"
       fill="currentColor"
       d="m25 116v20l10 4 10-4v-20h-1zm1 1h18v16h-18zm8.4062 3-4.4062 10h1.3008l1.3223-3h4.7226l1.3496 3h1.3047l-4.5-10zm0.55273 1.6953 1.9375 4.3047h-3.834zm-8.959 12.305h18v1h-18z"
       class="ColorScheme-Text" />
  </g>
  <g
     transform="translate(19 80)"
     id="input-num-on">
    <rect
       id="rect59"
       opacity=".001"
       height="32"
       width="32"
       y="112"
       x="19" />
    <path
       id="path61"
       fill="currentColor"
       d="m25 116v20l10 4 10-4v-20h-1zm1 1h18v16h-18zm9 3v2h-2v1h2v6h-2v1h5v-1h-2v-9zm-9 14h18v1h-18z"
       class="ColorScheme-Text" />
  </g>
  <use
     xlink:href="#fcitx-kbd"
     opacity=".5"
     height="100%"
     width="100%"
     transform="translate(104,-6)"
     id="fcitx-vk-inactive" />
  <g
     id="22-22-input-keyboard">
    <path
       id="path65"
       fill="currentColor"
       class="ColorScheme-Text"
       d="m14 11c-1.108 0-2 0.892-2 2v12c0 1.108 0.892 2 2 2h14c1.108 0 2-0.892 2-2v-12c0-1.108-0.892-2-2-2h-14zm4 3c1.1045 0 2 0.8955 2 2v1h2v-1c0-1.1045 0.89537-2 2-2 1.1045 0 2 0.8955 2 2s-0.8955 2-2 2h-1v2h1c1.1045 2.5e-4 2 0.8955 2 2s-0.8955 2-2 2-2-0.8955-2-2v-1h-2v1c0 1.1045-0.89537 2-2 2-1.1045 0-2-0.8955-2-2s0.8955-2 2-2h1v-2h-1c-1.1045 0-2-0.8955-2-2s0.8955-2 2-2zm0 1c-0.55225 0-1 0.44775-1 1 0 0.55213 0.44775 1 1 1h1v-1c0-0.55225-0.44775-1-1-1zm6 0c-0.55225 0-1 0.44775-1 1v1h1c0.55225 0 1-0.44775 1-1s-0.44775-1-1-1zm-4 3v2h2v-2h-2zm-2 3c-0.55225 0-1 0.44775-1 1s0.44775 1 1 1 1-0.44775 1-1v-1h-1zm5 0v1c0 0.55225 0.44775 1 1 1s1-0.44775 1-1-0.44775-1-1-1h-1z" />
    <path
       id="path67"
       fill="none"
       d="m10 8h22v22h-22z" />
  </g>
  <g
     transform="translate(-2)"
     id="22-22-input-keyboard-virtual-on">
    <path
       id="path70"
       fill="currentColor"
       class="ColorScheme-Text"
       d="m15 42c-1.108 0-2 0.892-2 2v12c0 1.108 0.892 2 2 2h11.346a3.5 3.5 0 0 1-0.3418-1.5 3.5 3.5 0 0 1 3.5-3.5 3.5 3.5 0 0 1 1.4961 0.33984v-9.3398c0-1.108-0.892-2-2-2zm4 3c1.1045 0 2 0.8955 2 2v1h2v-1c0-1.1045 0.89537-2 2-2 1.1045 0 2 0.8955 2 2s-0.8955 2-2 2h-1v2h1c1.1045 2.5e-4 2 0.8955 2 2s-0.8955 2-2 2-2-0.8955-2-2v-1h-2v1c0 1.1045-0.89537 2-2 2-1.1045 0-2-0.8955-2-2s0.8955-2 2-2h1v-2h-1c-1.1045 0-2-0.8955-2-2s0.8955-2 2-2zm0 1c-0.55225 0-1 0.44775-1 1 0 0.55213 0.44775 1 1 1h1v-1c0-0.55225-0.44775-1-1-1zm6 0c-0.55225 0-1 0.44775-1 1v1h1c0.55225 0 1-0.44775 1-1s-0.44775-1-1-1zm-4 3v2h2v-2zm-2 3c-0.55225 0-1 0.44775-1 1s0.44775 1 1 1 1-0.44775 1-1v-1zm5 0v1c0 0.55225 0.44775 1 1 1s1-0.44775 1-1-0.44775-1-1-1z" />
    <path
       id="path72"
       fill="none"
       d="m11 39h22v22h-22z" />
    <path
       id="path74"
       fill="#42d15b"
       d="m29.503 54a2.5 2.5 0 0 0-2.5 2.5 2.5 2.5 0 0 0 2.5 2.5 2.5 2.5 0 0 0 2.5-2.5 2.5 2.5 0 0 0-2.5-2.5z"
       class="ColorScheme-PositiveText" />
  </g>
  <g
     transform="translate(-1,64)"
     id="22-22-input-keyboard-virtual-off">
    <path
       id="path77"
       opacity=".35"
       fill="currentColor"
       class="ColorScheme-Text"
       d="m14 11c-1.108 0-2 0.892-2 2v12c0 1.108 0.892 2 2 2h14c1.108 0 2-0.892 2-2v-12c0-1.108-0.892-2-2-2zm4 3c1.1045 0 2 0.8955 2 2v1h2v-1c0-1.1045 0.89537-2 2-2 1.1045 0 2 0.8955 2 2s-0.8955 2-2 2h-1v2h1c1.1045 2.5e-4 2 0.8955 2 2s-0.8955 2-2 2-2-0.8955-2-2v-1h-2v1c0 1.1045-0.89537 2-2 2-1.1045 0-2-0.8955-2-2s0.8955-2 2-2h1v-2h-1c-1.1045 0-2-0.8955-2-2s0.8955-2 2-2zm0 1c-0.55225 0-1 0.44775-1 1 0 0.55213 0.44775 1 1 1h1v-1c0-0.55225-0.44775-1-1-1zm6 0c-0.55225 0-1 0.44775-1 1v1h1c0.55225 0 1-0.44775 1-1s-0.44775-1-1-1zm-4 3v2h2v-2zm-2 3c-0.55225 0-1 0.44775-1 1s0.44775 1 1 1 1-0.44775 1-1v-1zm5 0v1c0 0.55225 0.44775 1 1 1s1-0.44775 1-1-0.44775-1-1-1z" />
    <path
       id="path79"
       fill="none"
       d="m10 8h22v22h-22z" />
  </g>
  <g
     id="input-keyboard">
    <rect
       id="rect82"
       fill="none"
       height="32"
       width="32"
       y="-5.6172e-6"
       x="38" />
    <path
       id="path84"
       fill="currentColor"
       class="ColorScheme-Text"
       d="m43 7c-1.662 0-3 1.338-3 3v12c0 1.662 1.338 3 3 3h22c1.662 0 3-1.338 3-3v-12c0-1.662-1.338-3-3-3zm0 2h22c0.554 0 1 0.446 1 1v12c0 0.554-0.446 1-1 1h-22c-0.554 0-1-0.446-1-1v-12c0-0.554 0.446-1 1-1zm0.5 2c-0.277 0-0.5 0.223-0.5 0.5s0.223 0.5 0.5 0.5h21c0.277 0 0.5-0.223 0.5-0.5s-0.223-0.5-0.5-0.5zm0.5 2c-0.554 0-1 0.446-1 1s0.446 1 1 1h0.86328c0.554 0 1-0.446 1-1s-0.446-1-1-1zm4 0c-0.554 0-1 0.446-1 1s0.446 1 1 1 1-0.446 1-1-0.446-1-1-1zm3 0c-0.554 0-1 0.446-1 1s0.446 1 1 1 1-0.446 1-1-0.446-1-1-1zm3 0c-0.554 0-1 0.446-1 1s0.446 1 1 1 1-0.446 1-1-0.446-1-1-1zm3 0c-0.554 0-1 0.446-1 1s0.446 1 1 1 1-0.446 1-1-0.446-1-1-1zm3 0c-0.554 0-1 0.446-1 1s0.446 1 1 1 1-0.446 1-1-0.446-1-1-1zm3 0c-0.554 0-1 0.446-1 1s0.446 1 1 1h0.86328c0.554 0 1-0.446 1-1s-0.446-1-1-1zm-19 3c-0.554 0-1 0.446-1 1s0.446 1 1 1 1-0.446 1-1-0.446-1-1-1zm3 0c-0.554 0-1 0.446-1 1s0.446 1 1 1 1-0.446 1-1-0.446-1-1-1zm3 0c-0.554 0-1 0.446-1 1s0.446 1 1 1 1-0.446 1-1-0.446-1-1-1zm3 0c-0.554 0-1 0.446-1 1s0.446 1 1 1 1-0.446 1-1-0.446-1-1-1zm3 0c-0.554 0-1 0.446-1 1s0.446 1 1 1 1-0.446 1-1-0.446-1-1-1zm3 0c-0.554 0-1 0.446-1 1s0.446 1 1 1 1-0.446 1-1-0.446-1-1-1zm3 0c-0.554 0-1 0.446-1 1s0.446 1 1 1h2c0.554 0 1-0.446 1-1s-0.446-1-1-1zm-18 3c-0.554 0-1 0.446-1 1s0.446 1 1 1h0.86328c0.554 0 1-0.446 1-1s-0.446-1-1-1zm4 0c-0.554 0-1 0.446-1 1s0.446 1 1 1 1-0.446 1-1-0.446-1-1-1zm3.1367 0c-0.554 0-1 0.446-1 1s0.446 1 1 1h5.8633c0.554 0 1-0.446 1-1s-0.446-1-1-1zm8.8633 0c-0.554 0-1 0.446-1 1s0.446 1 1 1 1-0.446 1-1-0.446-1-1-1zm3 0c-0.554 0-1 0.446-1 1s0.446 1 1 1h0.86328c0.554 0 1-0.446 1-1s-0.446-1-1-1z" />
  </g>
  <g
     transform="translate(-42,34)"
     id="input-keyboard-virtual-on">
    <g
       id="g91"
       transform="translate(41)">
      <rect
         id="rect87"
         fill="none"
         height="32"
         width="32"
         y="-5.6172e-6"
         x="38" />
      <path
         id="path89"
         fill="currentColor"
         class="ColorScheme-Text"
         d="m84 7c-1.662 0-3 1.338-3 3v12c0 1.662 1.338 3 3 3h20.051a3.5 3.5 0 0 1-1.0156-2h-19.035c-0.554 0-1-0.446-1-1v-12c0-0.554 0.446-1 1-1h22c0.554 0 1 0.446 1 1v9.0371a3.5 3.5 0 0 1 2 1.0137v-10.051c0-1.662-1.338-3-3-3zm0.5 4c-0.277 0-0.5 0.223-0.5 0.5s0.223 0.5 0.5 0.5h21c0.277 0 0.5-0.223 0.5-0.5s-0.223-0.5-0.5-0.5zm0.5 2c-0.554 0-1 0.446-1 1s0.446 1 1 1h0.86328c0.554 0 1-0.446 1-1s-0.446-1-1-1zm4 0c-0.554 0-1 0.446-1 1s0.446 1 1 1 1-0.446 1-1-0.446-1-1-1zm3 0c-0.554 0-1 0.446-1 1s0.446 1 1 1 1-0.446 1-1-0.446-1-1-1zm3 0c-0.554 0-1 0.446-1 1s0.446 1 1 1 1-0.446 1-1-0.446-1-1-1zm3 0c-0.554 0-1 0.446-1 1s0.446 1 1 1 1-0.446 1-1-0.446-1-1-1zm3 0c-0.554 0-1 0.446-1 1s0.446 1 1 1 1-0.446 1-1-0.446-1-1-1zm3 0c-0.554 0-1 0.446-1 1s0.446 1 1 1h0.86328c0.554 0 1-0.446 1-1s-0.446-1-1-1zm-19 3c-0.554 0-1 0.446-1 1s0.446 1 1 1 1-0.446 1-1-0.446-1-1-1zm3 0c-0.554 0-1 0.446-1 1s0.446 1 1 1 1-0.446 1-1-0.446-1-1-1zm3 0c-0.554 0-1 0.446-1 1s0.446 1 1 1 1-0.446 1-1-0.446-1-1-1zm3 0c-0.554 0-1 0.446-1 1s0.446 1 1 1 1-0.446 1-1-0.446-1-1-1zm3 0c-0.554 0-1 0.446-1 1s0.446 1 1 1 1-0.446 1-1-0.446-1-1-1zm3 0c-0.554 0-1 0.446-1 1s0.446 1 1 1 1-0.446 1-1-0.446-1-1-1zm3 0c-0.554 0-1 0.446-1 1s0.446 1 1 1h2c0.554 0 1-0.446 1-1s-0.446-1-1-1zm-18 3c-0.554 0-1 0.446-1 1s0.446 1 1 1h0.86328c0.554 0 1-0.446 1-1s-0.446-1-1-1zm4 0c-0.554 0-1 0.446-1 1s0.446 1 1 1 1-0.446 1-1-0.446-1-1-1zm3.1367 0c-0.554 0-1 0.446-1 1s0.446 1 1 1h5.8633c0.554 0 1-0.446 1-1s-0.446-1-1-1zm8.8633 0c-0.554 0-1 0.446-1 1s0.446 1 1 1 1-0.446 1-1-0.446-1-1-1zm3 0c-0.554 0-1 0.446-1 1 0 0.34056 0.17893 0.62622 0.4375 0.80664a3.5 3.5 0 0 1 1.9629-1.6289c-0.1572-0.10281-0.33446-0.17773-0.53711-0.17773z"
         transform="translate(-41)" />
    </g>
    <path
       id="path93"
       fill="#42d15b"
       d="m106.5 20a2.5 2.5 0 0 0-2.5 2.5 2.5 2.5 0 0 0 2.5 2.5 2.5 2.5 0 0 0 2.5-2.5 2.5 2.5 0 0 0-2.5-2.5z" />
  </g>
  <g
     opacity=".35"
     transform="translate(0 66)"
     id="input-keyboard-virtual-off">
    <rect
       id="rect96"
       fill="none"
       height="32"
       width="32"
       y="-5.6172e-6"
       x="38" />
    <path
       id="path98"
       fill="currentColor"
       class="ColorScheme-Text"
       d="m43 7c-1.662 0-3 1.338-3 3v12c0 1.662 1.338 3 3 3h22c1.662 0 3-1.338 3-3v-12c0-1.662-1.338-3-3-3zm0 2h22c0.554 0 1 0.446 1 1v12c0 0.554-0.446 1-1 1h-22c-0.554 0-1-0.446-1-1v-12c0-0.554 0.446-1 1-1zm0.5 2c-0.277 0-0.5 0.223-0.5 0.5s0.223 0.5 0.5 0.5h21c0.277 0 0.5-0.223 0.5-0.5s-0.223-0.5-0.5-0.5zm0.5 2c-0.554 0-1 0.446-1 1s0.446 1 1 1h0.86328c0.554 0 1-0.446 1-1s-0.446-1-1-1zm4 0c-0.554 0-1 0.446-1 1s0.446 1 1 1 1-0.446 1-1-0.446-1-1-1zm3 0c-0.554 0-1 0.446-1 1s0.446 1 1 1 1-0.446 1-1-0.446-1-1-1zm3 0c-0.554 0-1 0.446-1 1s0.446 1 1 1 1-0.446 1-1-0.446-1-1-1zm3 0c-0.554 0-1 0.446-1 1s0.446 1 1 1 1-0.446 1-1-0.446-1-1-1zm3 0c-0.554 0-1 0.446-1 1s0.446 1 1 1 1-0.446 1-1-0.446-1-1-1zm3 0c-0.554 0-1 0.446-1 1s0.446 1 1 1h0.86328c0.554 0 1-0.446 1-1s-0.446-1-1-1zm-19 3c-0.554 0-1 0.446-1 1s0.446 1 1 1 1-0.446 1-1-0.446-1-1-1zm3 0c-0.554 0-1 0.446-1 1s0.446 1 1 1 1-0.446 1-1-0.446-1-1-1zm3 0c-0.554 0-1 0.446-1 1s0.446 1 1 1 1-0.446 1-1-0.446-1-1-1zm3 0c-0.554 0-1 0.446-1 1s0.446 1 1 1 1-0.446 1-1-0.446-1-1-1zm3 0c-0.554 0-1 0.446-1 1s0.446 1 1 1 1-0.446 1-1-0.446-1-1-1zm3 0c-0.554 0-1 0.446-1 1s0.446 1 1 1 1-0.446 1-1-0.446-1-1-1zm3 0c-0.554 0-1 0.446-1 1s0.446 1 1 1h2c0.554 0 1-0.446 1-1s-0.446-1-1-1zm-18 3c-0.554 0-1 0.446-1 1s0.446 1 1 1h0.86328c0.554 0 1-0.446 1-1s-0.446-1-1-1zm4 0c-0.554 0-1 0.446-1 1s0.446 1 1 1 1-0.446 1-1-0.446-1-1-1zm3.1367 0c-0.554 0-1 0.446-1 1s0.446 1 1 1h5.8633c0.554 0 1-0.446 1-1s-0.446-1-1-1zm8.8633 0c-0.554 0-1 0.446-1 1s0.446 1 1 1 1-0.446 1-1-0.446-1-1-1zm3 0c-0.554 0-1 0.446-1 1s0.446 1 1 1h0.86328c0.554 0 1-0.446 1-1s-0.446-1-1-1z" />
  </g>
</svg>
