<svg xmlns="http://www.w3.org/2000/svg" width="32" height="32" version="1">
 <g id="22-22-juk" transform="translate(32.000001,10)">
  <rect  style="opacity:0.001" width="22" height="22" x="0" y="0"/>
  <path  style="opacity:1;fill:#eff0f1" d="m 11,3 a 8,8 0 0 0 -8,8 8,8 0 0 0 8,8 8,8 0 0 0 8,-8 8,8 0 0 0 -8,-8 z m 0,1 a 7,7 0 0 1 7,7 7,7 0 0 1 -7,7 7,7 0 0 1 -7,-7 7,7 0 0 1 7,-7 z m 0,3 a 4,4 0 0 0 -4,4 4,4 0 0 0 4,4 4,4 0 0 0 4,-4 4,4 0 0 0 -4,-4 z m 0,3 a 1,1 0 0 1 1,1 1,1 0 0 1 -1,1 1,1 0 0 1 -1,-1 1,1 0 0 1 1,-1 z"/>
 </g>
 <g id="juk">
  <rect  style="opacity:0.001" width="32" height="32" x="0" y="0"/>
  <path  style="opacity:1;fill:#eff0f1" d="M 16 4 A 12 12 0 0 0 4 16 A 12 12 0 0 0 16 28 A 12 12 0 0 0 28 16 A 12 12 0 0 0 16 4 z M 16 5 A 11.000001 11.000001 0 0 1 27 16 A 11.000001 11.000001 0 0 1 16 27 A 11.000001 11.000001 0 0 1 5 16 A 11.000001 11.000001 0 0 1 16 5 z M 16 10 A 6.0000001 6.0000001 0 0 0 10 16 A 6.0000001 6.0000001 0 0 0 16 22 A 6.0000001 6.0000001 0 0 0 22 16 A 6.0000001 6.0000001 0 0 0 16 10 z M 16 14 A 2 2 0 0 1 18 16 A 2 2 0 0 1 16 18 A 2 2 0 0 1 14 16 A 2 2 0 0 1 16 14 z"/>
 </g>
</svg>
