<svg xmlns="http://www.w3.org/2000/svg" width="32" height="32" version="1.1">
 <g id="22-22-kmail" transform="translate(32,10)">
  <rect  style="opacity:0.001" width="22" height="22" x="0" y="0"/>
  <path  style="opacity:1;fill:#eff0f1" d="M 4.6992188,4 C 3.2034187,4 2,5.17075 2,6.625 v 8.75 C 2,16.82925 3.2034187,18 4.6992188,18 H 17.300781 C 18.796581,18 20,16.82925 20,15.375 V 6.625 C 20,5.17075 18.796581,4 17.300781,4 Z m 0,1 H 17.300781 C 18.274787,5 19,5.7227871 19,6.625 v 8.75 C 19,16.277213 18.274787,17 17.300781,17 H 4.6992188 C 3.7252131,17 3,16.277213 3,15.375 V 6.625 C 3,5.7227871 3.7252131,5 4.6992188,5 Z M 4.4785156,5.9960938 A 0.50005,0.50005 0 0 0 4.1953125,6.8964844 l 6.4999995,4.9999996 a 0.50005,0.50005 0 0 0 0.609376,0 l 6.5,-4.9999996 A 0.50005,0.50005 0 1 0 17.195312,6.1035156 L 11,10.869141 4.8046875,6.1035156 A 0.50005,0.50005 0 0 0 4.4785156,5.9960938 Z"/>
 </g>
 <g id="kmail">
  <rect  style="opacity:0.001" width="32" height="32" x="0" y="0"/>
  <path  style="opacity:1;fill:#eff0f1" d="M 6.8984375 6 C 4.7378374 6 3 7.6725 3 9.75 L 3 22.25 C 3 24.3275 4.7378374 26 6.8984375 26 L 25.101562 26 C 27.262163 26 29 24.3275 29 22.25 L 29 9.75 C 29 7.6725 27.262163 6 25.101562 6 L 6.8984375 6 z M 6.8984375 7 L 25.101562 7 C 26.746102 7 28 8.2303089 28 9.75 L 28 22.25 C 28 23.769691 26.746104 25 25.101562 25 L 6.8984375 25 C 5.2538977 25 4 23.769691 4 22.25 L 4 9.75 C 4 8.2303087 5.2538977 7 6.8984375 7 z M 6.46875 8.9960938 A 0.50005 0.50005 0 0 0 6.203125 9.9023438 L 15.703125 16.902344 A 0.50005 0.50005 0 0 0 16.296875 16.902344 L 25.796875 9.9023438 A 0.50005 0.50005 0 1 0 25.203125 9.0976562 L 16 15.878906 L 6.796875 9.0976562 A 0.50005 0.50005 0 0 0 6.46875 8.9960938 z"/>
 </g>
</svg>
