<svg xmlns="http://www.w3.org/2000/svg" width="32" height="32" version="1">
 <g id="22-22-kup" transform="translate(32,10)">
  <rect  style="opacity:0.001" width="22" height="22" x="0" y="0"/>
  <path  style="opacity:1;fill:#eff0f1" d="m 18.496094,2.9921875 a 0.50005,0.50005 0 0 0 -0.34961,0.1542969 L 15.578125,5.7148438 A 7,7 0 0 0 11,4 7,7 0 0 0 6.4199219,5.7128906 L 3.8535156,3.1464844 A 0.50005,0.50005 0 0 0 3.4941406,2.9941406 0.50005,0.50005 0 0 0 3.1464844,3.8535156 L 5.7148438,6.421875 A 7,7 0 0 0 4,11 7,7 0 0 0 5.7128906,15.580078 l -2.5664062,2.566406 a 0.50005,0.50005 0 1 0 0.7070312,0.707032 L 6.421875,16.285156 A 7,7 0 0 0 11,18 7,7 0 0 0 15.580078,16.287109 l 2.566406,2.566407 a 0.50005,0.50005 0 1 0 0.707032,-0.707032 l -2.56836,-2.568359 A 7,7 0 0 0 18,11 7,7 0 0 0 16.287109,6.4199219 L 18.853516,3.8535156 A 0.50005,0.50005 0 0 0 18.496094,2.9921875 Z M 11,5 a 6,6 0 0 1 3.875,1.4179688 L 11,10.292969 7.1308594,6.4238281 A 6,6 0 0 1 11,5 Z M 6.4179688,7.125 10.292969,11 6.4238281,14.869141 A 6,6 0 0 1 5,11 6,6 0 0 1 6.4179688,7.125 Z M 15.576172,7.13086 A 6,6 0 0 1 17,11 6,6 0 0 1 15.582031,14.875 L 11.707031,11 Z M 11,11.707031 14.869141,15.576172 A 6,6 0 0 1 11,17 6,6 0 0 1 7.125,15.582031 Z"/>
 </g>
 <g id="kup">
  <rect  style="opacity:0.001" width="32" height="32" x="0" y="0"/>
  <path  style="opacity:1;fill:#eff0f1" d="M 4.4941406 3.9941406 A 0.50005 0.50005 0 0 0 4.1464844 4.8535156 L 7.8847656 8.5917969 A 11 11 0 0 0 5 16 A 11 11 0 0 0 7.8867188 23.408203 L 4.1484375 27.146484 A 0.50005 0.50005 0 1 0 4.8554688 27.853516 L 8.5917969 24.117188 A 11 11 0 0 0 16 27 A 11 11 0 0 0 23.408203 24.115234 L 27.146484 27.853516 A 0.50005 0.50005 0 1 0 27.853516 27.146484 L 24.115234 23.408203 A 11 11 0 0 0 27 16 A 11 11 0 0 0 24.115234 8.59375 L 27.855469 4.8535156 A 0.50005 0.50005 0 0 0 27.507812 3.9941406 A 0.50005 0.50005 0 0 0 27.148438 4.1464844 L 23.410156 7.8847656 A 11 11 0 0 0 16 5 A 11 11 0 0 0 8.5917969 7.8847656 L 4.8535156 4.1464844 A 0.50005 0.50005 0 0 0 4.4941406 3.9941406 z M 16 6 A 10 10 0 0 1 22.701172 8.59375 L 16 15.292969 L 9.2988281 8.5917969 A 10 10 0 0 1 16 6 z M 8.5917969 9.2988281 L 15.292969 16 L 8.59375 22.701172 A 10 10 0 0 1 6 16 A 10 10 0 0 1 8.5917969 9.2988281 z M 23.408203 9.3007812 A 10 10 0 0 1 26 16 A 10 10 0 0 1 23.408203 22.701172 L 16.707031 16 L 23.408203 9.3007812 z M 16 16.707031 L 22.701172 23.408203 A 10 10 0 0 1 16 26 A 10 10 0 0 1 9.3007812 23.408203 L 16 16.707031 z"/>
 </g>
</svg>
