<svg xmlns="http://www.w3.org/2000/svg" width="32" height="32" version="1.1">
 <g id="22-22-nepomuk" transform="translate(32)">
  <path  style="opacity:0.001" d="M 0,10 V 32 H 22 V 10 Z"/>
  <path  style="opacity:1;fill:#eff0f1" transform="translate(0,10)" d="M 9,3 C 5.6759953,3 3,5.675995 3,9 c 0,3.324005 2.6759953,6 6,6 1.298306,0 2.481786,-0.42873 3.460938,-1.125 l 4.832031,4.832031 c 0.942508,0.98168 2.395742,-0.471554 1.414062,-1.414062 L 13.875,12.460938 C 14.57127,11.481786 15,10.298305 15,9 15,5.675995 12.324005,3 9,3 Z m 0,1 c 2.770005,0 5,2.229995 5,5 0,2.770005 -2.229995,5 -5,5 C 6.2299952,14 4,11.770005 4,9 4,6.229995 6.2299952,4 9,4 Z"/>
 </g>
 <g id="nepomuk">
  <path  style="opacity:0.001" d="M -5.0000001e-7,-1e-6 V 32 H 32 V -1e-6 Z"/>
  <path  style="opacity:1;fill:#eff0f1" d="M 13 4 A 9 9 0 0 0 4 13 A 9 9 0 0 0 13 22 A 9 9 0 0 0 18.611328 20.025391 L 26.292969 27.707031 C 27.235477 28.688711 28.688711 27.235477 27.707031 26.292969 L 20.03125 18.617188 A 9 9 0 0 0 22 13 A 9 9 0 0 0 13 4 z M 13 5 A 8 8 0 0 1 21 13 A 8 8 0 0 1 13 21 A 8 8 0 0 1 5 13 A 8 8 0 0 1 13 5 z"/>
 </g>
</svg>
