<svg xmlns="http://www.w3.org/2000/svg" width="32" height="32" version="1.1">
 <g id="office-chart-pie">
  <rect style="opacity:0.001" width="32" height="32" x="0" y="0"/>
  <path style="opacity:1;fill:#eff0f1" d="M 16.013672 4 A 0.88894834 0.92317697 0 0 0 15.201172 4.5175781 L 11.974609 11.373047 L 4.7617188 12.472656 A 0.88894834 0.92317697 0 0 0 4.265625 14.044922 L 9.4902344 19.382812 L 8.2578125 26.921875 A 0.88894834 0.92317697 0 0 0 9.5507812 27.892578 L 16 24.337891 L 22.449219 27.892578 A 0.88894834 0.92317697 0 0 0 23.742188 26.921875 L 22.509766 19.382812 L 27.734375 14.044922 A 0.88894834 0.92317697 0 0 0 27.238281 12.472656 L 20.025391 11.373047 L 16.798828 4.5175781 A 0.88894834 0.92317697 0 0 0 16.013672 4 z M 16 5.1679688 L 19.121094 11.800781 A 1.0001 1.0001 0 0 0 19.875 12.363281 L 26.927734 13.4375 L 21.794922 18.683594 A 1.0001 1.0001 0 0 0 21.523438 19.542969 L 22.726562 26.902344 L 16.482422 23.462891 A 1.0001 1.0001 0 0 0 15.517578 23.462891 L 9.2734375 26.902344 L 10.476562 19.542969 A 1.0001 1.0001 0 0 0 10.205078 18.683594 L 5.0722656 13.4375 L 12.125 12.363281 A 1.0001 1.0001 0 0 0 12.878906 11.800781 L 16 5.1679688 z"/>
 </g>
</svg>
