<svg xmlns="http://www.w3.org/2000/svg" width="32" height="32" version="1.1">
 <g id="22-22-printer" transform="translate(32.000001,10.000001)">
  <rect  style="opacity:0.001" width="22" height="22" x="0" y="0"/>
  <path  style="opacity:1;fill:#eff0f1" d="M 8,3 C 6.892,3 6,3.892 6,5 V 7 H 5 C 3.892,7 3,7.892 3,9 v 4 c 0,1.108 0.892,2 2,2 h 1 v 2 c 0,1.108 0.892,2 2,2 h 6 c 1.108,0 2,-0.892 2,-2 v -2 h 1 c 1.108,0 2,-0.892 2,-2 V 9 C 19,7.892 18.108,7 17,7 H 16 V 5 C 16,3.892 15.108,3 14,3 Z m 0,1 h 6 c 0.571297,0 1,0.4287028 1,1 V 7 H 7 V 5 C 7,4.4287028 7.4287028,4 8,4 Z m -2,6 a 1,1 0 0 1 1,1 1,1 0 0 1 -1,1 1,1 0 0 1 -1,-1 1,1 0 0 1 1,-1 z m 1,3 h 8 v 2 2 c 0,0.571297 -0.428703,1 -1,1 H 8 C 7.4287028,18 7,17.571297 7,17 v -2 z m 1.5,1 a 0.50005,0.50005 0 1 0 0,1 h 5 a 0.50005,0.50005 0 1 0 0,-1 z m 0,2 a 0.50005,0.50005 0 1 0 0,1 h 5 a 0.50005,0.50005 0 1 0 0,-1 z"/>
 </g>
 <g id="printer">
  <rect  style="opacity:0.001" width="32" height="32" x="0" y="0"/>
  <path  style="opacity:1;fill:#eff0f1" d="M 12 4 C 10.338 4 9 5.338 9 7 L 9 10 L 7 10 C 5.338 10 4 11.338 4 13 L 4 19 C 4 20.662 5.338 22 7 22 L 9 22 L 9 25 C 9 26.662 10.338 28 12 28 L 20 28 C 21.662 28 23 26.662 23 25 L 23 22 L 25 22 C 26.662 22 28 20.662 28 19 L 28 13 C 28 11.338 26.662 10 25 10 L 23 10 L 23 7 C 23 5.338 21.662 4 20 4 L 12 4 z M 12 5 L 20 5 C 21.125297 5 22 5.8747028 22 7 L 22 10 L 10 10 L 10 7 C 10 5.8747028 10.874703 5 12 5 z M 8 15 A 1 1 0 0 1 9 16 A 1 1 0 0 1 8 17 A 1 1 0 0 1 7 16 A 1 1 0 0 1 8 15 z M 10 19 L 22 19 L 22 22 L 22 23 L 22 25 C 22 26.125297 21.125297 27 20 27 L 12 27 C 10.874703 27 10 26.125297 10 25 L 10 23 L 10 22 L 10 19 z M 12.5 21 A 0.50005 0.50005 0 1 0 12.5 22 L 19.5 22 A 0.50005 0.50005 0 1 0 19.5 21 L 12.5 21 z M 12.5 24 A 0.50005 0.50005 0 1 0 12.5 25 L 19.5 25 A 0.50005 0.50005 0 1 0 19.5 24 L 12.5 24 z"/>
 </g>
</svg>
