<svg xmlns="http://www.w3.org/2000/svg"  width="32" height="32" version="1.1">
 <g id="22-22-quota-critical" transform="translate(96,-22)">
  <rect  style="opacity:0.001" width="22" height="22" x="0" y="0"/>
  <path  style="opacity:1;fill:#da4453" d="M 5,4 C 3.892,4 3,4.892 3,6 v 1 3 5 c 0,1.662 1.338,3 3,3 h 10 c 1.662,0 3,-1.338 3,-3 V 12 10 8 C 19,6.338 17.662,5 16,5 H 11.724609 C 11.379048,4.4042011 10.74107,4 10,4 Z M 4,8 h 8 4 c 1.125297,0 2,0.8747028 2,2 v 2 3 c 0,1.125297 -0.874703,2 -2,2 H 6 C 4.8747028,17 4,16.125297 4,15 v -5 z m 7,1 c -0.554,0 -1,0.446 -1,1 v 2 c 0,0.554 0.446,1 1,1 0.554,0 1,-0.446 1,-1 V 10 C 12,9.446 11.554,9 11,9 Z m 0,5 a 1,1 0 0 0 -1,1 1,1 0 0 0 1,1 1,1 0 0 0 1,-1 1,1 0 0 0 -1,-1 z"/>
 </g>
 <g id="22-22-quota" transform="translate(0,-22)">
  <rect  style="opacity:0.001" width="22" height="22" x="0" y="0"/>
  <path  style="opacity:1;fill:#eff0f1" d="M 5,4 C 3.892,4 3,4.892 3,6 v 1 3 5 c 0,1.662 1.338,3 3,3 h 10 c 1.662,0 3,-1.338 3,-3 V 12 10 8 C 19,6.338 17.662,5 16,5 H 11.724609 C 11.379048,4.4042011 10.74107,4 10,4 Z M 4,8 h 8 4 c 1.125297,0 2,0.8747028 2,2 v 2 3 c 0,1.125297 -0.874703,2 -2,2 H 6 C 4.8747028,17 4,16.125297 4,15 v -5 z m 4.5,2 c -0.6761613,-0.00956 -0.6761613,1.009563 0,1 h 5 c 0.676161,0.0096 0.676161,-1.0095626 0,-1 z m 0,2 c -0.6761613,-0.0096 -0.6761613,1.009563 0,1 h 5 c 0.676161,0.0096 0.676161,-1.009563 0,-1 z m 0,2 c -0.6761613,-0.0096 -0.6761613,1.009563 0,1 h 5 c 0.676161,0.0096 0.676161,-1.009563 0,-1 z"/>
 </g>
 <g id="22-22-quota-low" transform="translate(32.000001,-22)">
  <rect  style="opacity:0.001" width="22" height="22" x="0" y="0"/>
  <path  style="opacity:1;fill:#eff0f1" d="M 5,4 C 3.892,4 3,4.892 3,6 v 1 3 5 c 0,1.662 1.338,3 3,3 h 10 c 1.662,0 3,-1.338 3,-3 V 12 10 8 C 19,6.338 17.662,5 16,5 H 11.724609 C 11.379048,4.4042011 10.74107,4 10,4 Z M 4,8 h 8 4 c 1.125297,0 2,0.8747028 2,2 v 2 3 c 0,1.125297 -0.874703,2 -2,2 H 6 C 4.8747028,17 4,16.125297 4,15 v -5 z"/>
  <path  style="opacity:1;fill:#f67400" transform="translate(-22)" d="m 30.5,12 c -0.676161,-0.0096 -0.676161,1.009563 0,1 h 5 c 0.676161,0.0096 0.676161,-1.009563 0,-1 z m 0,2 c -0.676161,-0.0096 -0.676161,1.009563 0,1 h 5 c 0.676161,0.0096 0.676161,-1.009563 0,-1 z"/>
  <path  style="opacity:0.5;fill:#eff0f1" d="m 8.5,10 c -0.6761613,-0.00956 -0.6761613,1.009563 0,1 h 5 c 0.676161,0.0096 0.676161,-1.0095626 0,-1 z"/>
 </g>
 <g id="22-22-quota-high" transform="translate(64.000001,-22)">
  <rect  style="opacity:0.001" width="22" height="22" x="0" y="0"/>
  <path  style="opacity:1;fill:#eff0f1" d="M 5,4 C 3.892,4 3,4.892 3,6 v 1 3 5 c 0,1.662 1.338,3 3,3 h 10 c 1.662,0 3,-1.338 3,-3 V 12 10 8 C 19,6.338 17.662,5 16,5 H 11.724609 C 11.379048,4.4042011 10.74107,4 10,4 Z M 4,8 h 8 4 c 1.125297,0 2,0.8747028 2,2 v 2 3 c 0,1.125297 -0.874703,2 -2,2 H 6 C 4.8747028,17 4,16.125297 4,15 v -5 z"/>
  <path  style="opacity:1;fill:#da4453" d="m 8.5,14 c -0.6761613,-0.0096 -0.6761613,1.009563 0,1 h 5 c 0.676161,0.0096 0.676161,-1.009563 0,-1 z"/>
  <path  style="opacity:0.5;fill:#eff0f1" transform="translate(-44)" d="m 52.5,10 c -0.676161,-0.00956 -0.676161,1.009563 0,1 h 5 c 0.676161,0.0096 0.676161,-1.0095626 0,-1 z m 0,2 c -0.676161,-0.0096 -0.676161,1.009563 0,1 h 5 c 0.676161,0.0096 0.676161,-1.009563 0,-1 z"/>
 </g>
 <g id="22-22-quota-missing" transform="translate(128,-22)">
  <rect  style="opacity:0.001" width="22" height="22" x="0" y="0"/>
  <path  style="opacity:0.5;fill:#eff0f1" transform="translate(-88)" d="m 93,4 c -1.108,0 -2,0.892 -2,2 v 1 3 5 c 0,1.662 1.338,3 3,3 h 10 c 1.662,0 3,-1.338 3,-3 V 12 10 8 c 0,-1.662 -1.338,-3 -3,-3 H 99.724609 C 99.379048,4.4042011 98.74107,4 98,4 Z m -1,4 h 8 4 c 1.1253,0 2,0.8747028 2,2 v 2 3 c 0,1.125297 -0.8747,2 -2,2 H 94 c -1.125297,0 -2,-0.874703 -2,-2 v -5 z m 4.5,2 c -0.676161,-0.00956 -0.676161,1.009563 0,1 h 5 c 0.67616,0.0096 0.67616,-1.0095626 0,-1 z m 0,2 c -0.676161,-0.0096 -0.676161,1.009563 0,1 h 5 c 0.67616,0.0096 0.67616,-1.009563 0,-1 z m 0,2 c -0.676161,-0.0096 -0.676161,1.009563 0,1 h 5 c 0.67616,0.0096 0.67616,-1.009563 0,-1 z"/>
 </g>
 <g id="quota-critical" transform="translate(96)">
  <rect  style="opacity:0.001" width="32" height="32" x="0" y="0"/>
  <path  style="opacity:1;fill:#da4453" d="M 7,5 C 5.3379999,5 4,6.338 4,8 V 9.5 14 21.5 C 4,23.993001 6.007,26 8.5,26 h 15 C 25.993,26 28,23.993001 28,21.5 V 17 14 11 C 28,8.5069999 25.993,7 23.5,7 H 17.085938 C 16.567597,6.1063016 16,5 14,5 Z M 5,11 H 17.5 24 c 1.687946,0 3.056234,1.312991 3,3 v 3 4.5 C 27,23.187946 25.187946,25 23.5,25 H 8.5 C 6.8120541,25 5,23.187946 5,21.5 V 14 Z m 11,2 c -0.554,0 -1,0.446 -1,1 v 4 c 0,0.554 0.446,1 1,1 0.554,0 1,-0.446 1,-1 v -4 c 0,-0.554 -0.446,-1 -1,-1 z m 0,8 a 1,1 0 0 0 -1,1 1,1 0 0 0 1,1 1,1 0 0 0 1,-1 1,1 0 0 0 -1,-1 z"/>
 </g>
 <g id="quota">
  <rect  style="opacity:0.001" width="32" height="32" x="0" y="0"/>
  <path  style="opacity:1;fill:#eff0f1" d="M 7,5 C 5.3379999,5 4,6.338 4,8 V 9.5 14 21.5 C 4,23.993001 6.007,26 8.5,26 h 15 C 25.993,26 28,23.993001 28,21.5 V 17 14 11 C 28,8.5069999 25.993,7 23.5,7 H 17.085938 C 16.567597,6.1063016 16,5 14,5 Z M 5,11 H 17.5 24 c 1.687946,0 3.056234,1.312991 3,3 v 3 4.5 C 27,23.187946 25.187946,25 23.5,25 H 8.5 C 6.8120541,25 5,23.187946 5,21.5 V 14 Z m 6.5,3 c -0.277,0 -0.5,0.223 -0.5,0.5 0,0.277 0.223,0.5 0.5,0.5 h 9 C 20.777,15 21,14.777 21,14.5 21,14.223 20.777,14 20.5,14 Z m 0,3 c -0.277,0 -0.5,0.223 -0.5,0.5 0,0.277 0.223,0.5 0.5,0.5 h 9 C 20.777,18 21,17.777 21,17.5 21,17.223 20.777,17 20.5,17 Z m 0,3 c -0.277,0 -0.5,0.223 -0.5,0.5 0,0.277 0.223,0.5 0.5,0.5 h 9 C 20.777,21 21,20.777 21,20.5 21,20.223 20.777,20 20.5,20 Z"/>
 </g>
 <g id="quota-low" transform="translate(32.000001)">
  <rect  style="opacity:0.001" width="32" height="32" x="0" y="0"/>
  <path  style="opacity:1;fill:#eff0f1" d="m 7.0000004,4.9999998 c -1.6620001,0 -3.0000001,1.3380001 -3.0000001,3.0000001 V 9.5 14 21.499999 C 4.0000003,23.993 6.0070004,26 8.5000004,26 H 23.500001 C 25.993001,26 28,23.993 28,21.499999 V 17 14 11 C 28,8.5069999 25.993001,7 23.500001,7 H 17.086914 C 16.568573,6.1063016 16,4.9999998 14,4.9999998 Z M 5,11 H 17.500001 24 c 1.687946,0 3.056234,1.312991 3,3 v 3 4.499999 C 27,23.187945 25.187947,25 23.500001,25 H 8.5000004 C 6.8120545,25 5,23.187945 5,21.499999 V 14 Z"/>
  <path  style="opacity:0.5;fill:#eff0f1" d="m 11.5,14 c -0.277,0 -0.5,0.223 -0.5,0.5 0,0.277 0.223,0.5 0.5,0.5 h 9 C 20.777,15 21,14.777 21,14.5 21,14.223 20.777,14 20.5,14 Z"/>
  <path  style="opacity:1;fill:#f67400" transform="translate(-32)" d="m 43.5,17 c -0.277,0 -0.5,0.223 -0.5,0.5 0,0.277 0.223,0.5 0.5,0.5 h 9 C 52.777,18 53,17.777 53,17.5 53,17.223 52.777,17 52.5,17 Z m 0,3 c -0.277,0 -0.5,0.223 -0.5,0.5 0,0.277 0.223,0.5 0.5,0.5 h 9 C 52.777,21 53,20.777 53,20.5 53,20.223 52.777,20 52.5,20 Z"/>
 </g>
 <g id="quota-high" transform="translate(64)">
  <rect  style="opacity:0.001" width="32" height="32" x="0" y="0"/>
  <path  style="opacity:1;fill:#eff0f1" d="m 7.0000004,4.9999998 c -1.6620001,0 -3.0000001,1.3380001 -3.0000001,3.0000001 V 9.5 14 21.499999 C 4.0000003,23.993 6.0070004,26 8.5000004,26 H 23.500001 C 25.993001,26 28,23.993 28,21.499999 V 17 14 11 C 28,8.5069999 25.993001,7 23.500001,7 H 17.086914 C 16.568573,6.1063016 16,4.9999998 14,4.9999998 Z M 5,11 H 17.500001 24 c 1.687946,0 3.056234,1.312991 3,3 v 3 4.499999 C 27,23.187945 25.187947,25 23.500001,25 H 8.5000004 C 6.8120545,25 5,23.187945 5,21.499999 V 14 Z"/>
  <path  style="opacity:0.5;fill:#eff0f1" transform="translate(-64)" d="m 75.5,14 c -0.277,0 -0.5,0.223 -0.5,0.5 0,0.277 0.223,0.5 0.5,0.5 h 9 C 84.777,15 85,14.777 85,14.5 85,14.223 84.777,14 84.5,14 Z m 0,3 c -0.277,0 -0.5,0.223 -0.5,0.5 0,0.277 0.223,0.5 0.5,0.5 h 9 C 84.777,18 85,17.777 85,17.5 85,17.223 84.777,17 84.5,17 Z"/>
  <path  style="opacity:1;fill:#da4453" d="m 11.5,20 c -0.277,0 -0.5,0.223 -0.5,0.5 0,0.277 0.223,0.5 0.5,0.5 h 9 C 20.777,21 21,20.777 21,20.5 21,20.223 20.777,20 20.5,20 Z"/>
 </g>
 <g id="quota-missing" transform="translate(128)">
  <rect  style="opacity:0.001" width="32" height="32" x="0" y="0"/>
  <path  style="opacity:0.5;fill:#eff0f1" d="M 7,5 C 5.3379999,5 4,6.338 4,8 V 9.5 14 21.5 C 4,23.993001 6.007,26 8.5,26 h 15 C 25.993,26 28,23.993001 28,21.5 V 17 14 11 C 28,8.5069999 25.993,7 23.5,7 H 17.085938 C 16.567597,6.1063016 16,5 14,5 Z M 5,11 H 17.5 24 c 1.687946,0 3.056234,1.312991 3,3 v 3 4.5 C 27,23.187946 25.187946,25 23.5,25 H 8.5 C 6.8120541,25 5,23.187946 5,21.5 V 14 Z m 6.5,3 c -0.277,0 -0.5,0.223 -0.5,0.5 0,0.277 0.223,0.5 0.5,0.5 h 9 C 20.777,15 21,14.777 21,14.5 21,14.223 20.777,14 20.5,14 Z m 0,3 c -0.277,0 -0.5,0.223 -0.5,0.5 0,0.277 0.223,0.5 0.5,0.5 h 9 C 20.777,18 21,17.777 21,17.5 21,17.223 20.777,17 20.5,17 Z m 0,3 c -0.277,0 -0.5,0.223 -0.5,0.5 0,0.277 0.223,0.5 0.5,0.5 h 9 C 20.777,21 21,20.777 21,20.5 21,20.223 20.777,20 20.5,20 Z"/>
 </g>
</svg>
