<svg xmlns="http://www.w3.org/2000/svg"  width="32" height="32" version="1.1">
 <g id="22-22-sirikali" transform="translate(27,5)">
  <rect style="opacity:0.001" width="22" height="22" x="5" y="5"/>
  <path style="fill:#eff0f1" d="m 21,8 c -2.559577,0 -4.666095,1.9240656 -4.960938,4.404297 l 1.136719,-0.515625 C 17.65969,10.223918 19.179116,9 21,9 c 2.209139,0 4,1.790861 4,4 v 2 h -2.986328 l -0.05469,0.0957 c -0.253639,0.438049 -0.794578,0.617526 -1.259765,0.417969 l -0.388672,-0.166016 -0.910156,0.851563 -0.384766,1.021484 c -0.09298,0.245697 -0.278897,0.444946 -0.517578,0.554688 l -2.503906,1.15039 c 5e-4,0.02158 0.0057,0.04286 0.0059,0.06445 1.6e-5,0.0033 1.6e-5,0.0065 0,0.0098 0,1.201273 -0.35925,2.321125 -0.972656,3.261719 C 15.155986,23.243827 15.981684,24 17,24 h 8 c 1.108,0 2,-0.892 2,-2 v -5 c 0,-0.74107 -0.404201,-1.379048 -1,-1.724609 V 13 C 26,10.238576 23.761424,8 21,8 Z m 1.849609,2.525391 c -0.242438,0.01377 -0.488732,0.117855 -0.830078,0.267578 l -9.128906,4.134765 C 12.046521,14.326377 11.036406,14.002184 10,14 c -2.7614237,0 -5,2.238576 -5,5 0,2.761424 2.2385763,5 5,5 2.761424,0 5,-2.238576 5,-5 -0.0022,-0.231457 -0.02048,-0.462481 -0.05469,-0.691406 l 3.134766,-1.441406 0.466797,-1.238282 1.101563,-1.03125 0.488281,-0.414062 0.957031,0.412109 0.730469,-1.261719 c 1.569593,-0.239907 2.213443,-0.419774 2.125,-2.007812 l -10.015625,4.597656 c -0.01546,-0.02096 -0.03109,-0.04179 -0.04687,-0.0625 L 14.464847,15.03125 23.6543,10.800781 c -0.323904,-0.21282 -0.562249,-0.289165 -0.804688,-0.27539 z M 21,17 c 1.104569,0 2,0.895431 2,2 -0.0013,0.713268 -0.38229,1.371883 -1,1.728516 V 22 c 0,0.552285 -0.447715,1 -1,1 -0.552285,0 -1,-0.447715 -1,-1 V 20.730469 C 19.381687,20.373486 19.000565,19.713966 19,19 c 0,-1.104569 0.895431,-2 2,-2 z M 7.5,18 C 8.3284271,18 9,18.671573 9,19.5 9,20.328427 8.3284271,21 7.5,21 6.6715729,21 6,20.328427 6,19.5 6,18.671573 6.6715729,18 7.5,18 Z"/>
 </g>
 <g id="sirikali">
  <rect style="opacity:0.001" width="32" height="32" x="0" y="0"/>
  <path style="fill:#eff0f1" d="M 23.5 5 A 6.5 6.5 0 0 0 17.021484 11 L 17 11 L 17 11.582031 L 18 11.125 L 18 11 L 18.025391 11 A 5.5 5.5 0 0 1 23.5 6 A 5.5 5.5 0 0 1 28.972656 11 L 29 11 L 29 15 L 23.929688 15 L 23.785156 15.246094 A 1.0001 1.0001 0 0 1 22.53125 15.660156 L 21.732422 15.320312 L 21.525391 15.494141 L 20.146484 16.771484 L 19.5625 18.298828 A 1.0001 1.0001 0 0 1 19.042969 18.853516 L 15.214844 20.597656 C 15.220974 20.712695 15.241086 20.826014 15.242188 20.941406 A 1.0001 1.0001 0 0 1 15.242188 20.951172 C 15.242186 21.611009 15.152101 22.249232 15 22.863281 L 15 25 C 15 26.662 16.338 28 18 28 L 29 28 C 30.662 28 32 26.662 32 25 L 32 18 C 32 16.690917 31.164689 15.593201 30 15.181641 L 30 11 L 29.974609 11 A 6.5 6.5 0 0 0 23.5 5 z M 25.421875 9.0019531 C 25.07658 9.0213671 24.7264 9.1678124 24.240234 9.3789062 L 11.238281 15.308594 C 10.036055 14.460743 8.5972073 14.005032 7.1210938 14.001953 C 3.1881028 14.001953 5.9211895e-16 17.15746 0 21.050781 C 0 24.944102 3.1881028 28 7.1210938 28 C 11.054085 28 14.242187 24.844493 14.242188 20.951172 C 14.239088 20.624842 14.212783 20.299323 14.164062 19.976562 L 18.628906 17.943359 L 19.294922 16.197266 L 20.863281 14.744141 L 21.558594 14.160156 L 22.921875 14.740234 L 23.962891 12.962891 C 26.198402 12.624647 27.114247 12.369828 26.988281 10.130859 L 12.724609 16.613281 C 12.702589 16.583731 12.67873 16.554601 12.65625 16.525391 L 13.480469 15.355469 L 26.568359 9.390625 C 26.107035 9.0905709 25.767172 8.9825318 25.421875 9.0019531 z M 23.5 18 A 2.5 2.5 0 0 1 26 20.5 A 2.5 2.5 0 0 1 25 22.498047 L 25 24.5 A 1.5 1.5 0 0 1 23.5 26 A 1.5 1.5 0 0 1 22 24.5 L 22 22.496094 A 2.5 2.5 0 0 1 21 20.5 A 2.5 2.5 0 0 1 23.5 18 z M 4 20 C 5.1045695 20 6 20.89543 6 22 C 6 23.10457 5.1045695 24 4 24 C 2.8954305 24 2 23.10457 2 22 C 2 20.89543 2.8954305 20 4 20 z"/>
 </g>
 <g id="22-22-sirikali-panel" transform="translate(27,-27)">
  <rect style="opacity:0.001" width="22" height="22" x="5" y="5"/>
  <path style="fill:#eff0f1" d="m 21,8 c -2.559577,0 -4.666095,1.9240656 -4.960938,4.404297 l 1.136719,-0.515625 C 17.65969,10.223918 19.179116,9 21,9 c 2.209139,0 4,1.790861 4,4 v 2 h -2.986328 l -0.05469,0.0957 c -0.253639,0.438049 -0.794578,0.617526 -1.259765,0.417969 l -0.388672,-0.166016 -0.910156,0.851563 -0.384766,1.021484 c -0.09298,0.245697 -0.278897,0.444946 -0.517578,0.554688 l -2.503906,1.15039 c 5e-4,0.02158 0.0057,0.04286 0.0059,0.06445 1.6e-5,0.0033 1.6e-5,0.0065 0,0.0098 0,1.201273 -0.35925,2.321125 -0.972656,3.261719 C 15.155986,23.243827 15.981684,24 17,24 h 8 c 1.108,0 2,-0.892 2,-2 v -5 c 0,-0.74107 -0.404201,-1.379048 -1,-1.724609 V 13 C 26,10.238576 23.761424,8 21,8 Z m 1.849609,2.525391 c -0.242438,0.01377 -0.488732,0.117855 -0.830078,0.267578 l -9.128906,4.134765 C 12.046521,14.326377 11.036406,14.002184 10,14 c -2.7614237,0 -5,2.238576 -5,5 0,2.761424 2.2385763,5 5,5 2.761424,0 5,-2.238576 5,-5 -0.0022,-0.231457 -0.02048,-0.462481 -0.05469,-0.691406 l 3.134766,-1.441406 0.466797,-1.238282 1.101563,-1.03125 0.488281,-0.414062 0.957031,0.412109 0.730469,-1.261719 c 1.569593,-0.239907 2.213443,-0.419774 2.125,-2.007812 l -10.015625,4.597656 c -0.01546,-0.02096 -0.03109,-0.04179 -0.04687,-0.0625 L 14.464847,15.03125 23.6543,10.800781 c -0.323904,-0.21282 -0.562249,-0.289165 -0.804688,-0.27539 z M 21,17 c 1.104569,0 2,0.895431 2,2 -0.0013,0.713268 -0.38229,1.371883 -1,1.728516 V 22 c 0,0.552285 -0.447715,1 -1,1 -0.552285,0 -1,-0.447715 -1,-1 V 20.730469 C 19.381687,20.373486 19.000565,19.713966 19,19 c 0,-1.104569 0.895431,-2 2,-2 z M 7.5,18 C 8.3284271,18 9,18.671573 9,19.5 9,20.328427 8.3284271,21 7.5,21 6.6715729,21 6,20.328427 6,19.5 6,18.671573 6.6715729,18 7.5,18 Z"/>
 </g>
 <g id="sirikali-panel" transform="translate(0,-32)">
  <rect style="opacity:0.001" width="32" height="32" x="0" y="0"/>
  <path style="fill:#eff0f1" d="m 23.5,5 a 6.5,6.5 0 0 0 -6.478516,6 H 17 v 0.582031 L 18,11.125 V 11 h 0.02539 A 5.5,5.5 0 0 1 23.5,6 5.5,5.5 0 0 1 28.972656,11 H 29 v 4 h -5.070312 l -0.144532,0.246094 a 1.0001,1.0001 0 0 1 -1.253906,0.414062 l -0.798828,-0.339844 -0.207031,0.173829 -1.378907,1.277343 -0.583984,1.527344 a 1.0001,1.0001 0 0 1 -0.519531,0.554688 l -3.828125,1.74414 c 0.0061,0.115039 0.02624,0.228358 0.02734,0.34375 a 1.0001,1.0001 0 0 1 0,0.0098 c -2e-6,0.659837 -0.09009,1.29806 -0.242188,1.912109 V 25 c 0,1.662 1.338,3 3,3 h 11 c 1.662,0 3,-1.338 3,-3 v -7 c 0,-1.309083 -0.835311,-2.406799 -2,-2.818359 V 11 h -0.02539 A 6.5,6.5 0 0 0 23.5,5 Z m 1.921875,4.0019531 C 25.07658,9.0213671 24.7264,9.1678124 24.240234,9.3789062 L 11.238281,15.308594 C 10.036055,14.460743 8.5972073,14.005032 7.1210938,14.001953 3.1881028,14.001953 0,17.15746 0,21.050781 0,24.944102 3.1881028,28 7.1210938,28 c 3.9329912,0 7.1210932,-3.155507 7.1210942,-7.048828 -0.0031,-0.32633 -0.02941,-0.651849 -0.07813,-0.97461 l 4.464844,-2.033203 0.666016,-1.746093 1.568359,-1.453125 0.695313,-0.583985 1.363281,0.580078 1.041016,-1.777343 c 2.235511,-0.338244 3.151356,-0.593063 3.02539,-2.832032 l -14.263672,6.482422 c -0.02202,-0.02955 -0.04588,-0.05868 -0.06836,-0.08789 l 0.824219,-1.169922 13.08789,-5.964844 C 26.107035,9.0905709 25.767172,8.9825318 25.421875,9.0019531 Z M 23.5,18 a 2.5,2.5 0 0 1 2.5,2.5 2.5,2.5 0 0 1 -1,1.998047 V 24.5 A 1.5,1.5 0 0 1 23.5,26 1.5,1.5 0 0 1 22,24.5 V 22.496094 A 2.5,2.5 0 0 1 21,20.5 2.5,2.5 0 0 1 23.5,18 Z M 4,20 c 1.1045695,0 2,0.89543 2,2 0,1.10457 -0.8954305,2 -2,2 -1.1045695,0 -2,-0.89543 -2,-2 0,-1.10457 0.8954305,-2 2,-2 z"/>
 </g>
</svg>
