<?xml version="1.0" encoding="UTF-8" standalone="no"?>
<!-- Created with Inkscape (http://www.inkscape.org/) -->
<svg xmlns:dc="http://purl.org/dc/elements/1.1/" xmlns:cc="http://creativecommons.org/ns#" xmlns:rdf="http://www.w3.org/1999/02/22-rdf-syntax-ns#" xmlns:svg="http://www.w3.org/2000/svg" xmlns="http://www.w3.org/2000/svg" xmlns:sodipodi="http://sodipodi.sourceforge.net/DTD/sodipodi-0.dtd" xmlns:inkscape="http://www.inkscape.org/namespaces/inkscape" id="svg4153" version="1.1" inkscape:version="0.91 r13725" width="22" height="22" sodipodi:docname="software.svg" viewBox="0 0 22 22">
  <metadata id="metadata4159">
    <rdf:RDF>
      <cc:Work rdf:about="">
        <dc:format>image/svg+xml</dc:format>
        <dc:type rdf:resource="http://purl.org/dc/dcmitype/StillImage"/>
        <dc:title/>
      </cc:Work>
    </rdf:RDF>
  </metadata>
  <defs id="defs4157">
    <style type="text/css" id="current-color-scheme">
      .ColorScheme-Text {
        color:#31363b;
      }
      .ColorScheme-Background {
        color:#eff0f1;
      }
      .ColorScheme-Highlight {
        color:#3daee9;
      }
      .ColorScheme-ViewText {
        color:#31363b;
      }
      .ColorScheme-ViewBackground {
        color:#fcfcfc;
      }
      .ColorScheme-ViewHover {
        color:#93cee9;
      }
      .ColorScheme-ViewFocus{
        color:#3daee9;
      }
      .ColorScheme-ButtonText {
        color:#31363b;
      }
      .ColorScheme-ButtonBackground {
        color:#eff0f1;
      }
      .ColorScheme-ButtonHover {
        color:#93cee9;
      }
      .ColorScheme-ButtonFocus{
        color:#3daee9;
      }
      </style>
  </defs>
  <sodipodi:namedview pagecolor="#363636" bordercolor="#666666" borderopacity="1" objecttolerance="10" gridtolerance="10000" guidetolerance="10" inkscape:pageopacity="0" inkscape:pageshadow="2" inkscape:window-width="2560" inkscape:window-height="955" id="namedview4155" inkscape:document-units="px" showgrid="true" inkscape:showpageshadow="false" borderlayer="true" inkscape:zoom="16.681818" inkscape:cx="19.071177" inkscape:cy="-0.59428811" inkscape:window-x="0" inkscape:window-y="35" inkscape:window-maximized="1" inkscape:current-layer="svg4153">
    <inkscape:grid type="xygrid" id="grid4140"/>
    <sodipodi:guide position="0,22" orientation="22,0" id="guide4146"/>
    <sodipodi:guide position="0,0" orientation="0,22" id="guide4148"/>
    <sodipodi:guide position="22,0" orientation="-22,0" id="guide4150"/>
    <sodipodi:guide position="22,22" orientation="0,-22" id="guide4152"/>
    <sodipodi:guide position="3,19" orientation="16,0" id="guide4154"/>
    <sodipodi:guide position="18,3" orientation="0,16" id="guide4156"/>
    <sodipodi:guide position="19,3" orientation="-16,0" id="guide4158"/>
    <sodipodi:guide position="19,19" orientation="0,-16" id="guide4160"/>
  </sodipodi:namedview>
  <inkscape:clipboard style="opacity:0.01000001;fill:#00000f;fill-opacity:0;stroke-width:1;stroke-linecap:butt;stroke-linejoin:miter;stroke-miterlimit:4;stroke-dasharray:none;stroke-dashoffset:0;stroke-opacity:1;stroke:none" min="0,0" max="22,22"/>
  <g id="software-updates-important">
    <path sodipodi:nodetypes="ccccccccccccccccccccccccc" inkscape:connector-curvature="0" id="path4198" d="m 51,7 -3,3 0,9 5.099609,0 L 57,19 l 5.099609,0 0,-9 -3,-3 L 57,7 53.099609,7 Z m 0.3,1 3.7,0 3.7,0 2,2 -11.4,0 z m 1.7,3 4,0 0,5 -1,-1 -1,1 -1,-1 -1,1 z" style="fill:currentColor;fill-rule:evenodd;stroke:none;stroke-width:1px;stroke-linecap:butt;stroke-linejoin:miter;stroke-opacity:1" class="ColorScheme-Text"/>
    <path inkscape:connector-curvature="0" id="path4202" d="m 60,3 3,5 -6,0 z" style="fill:#fdbc4b;fill-opacity:1;fill-rule:evenodd;stroke:none;stroke-width:1px;stroke-linecap:butt;stroke-linejoin:miter;stroke-opacity:1"/>
    <rect y="-2.6645353e-15" x="44" height="22" width="22" id="rect4206" style="opacity:1;fill:none;fill-opacity:0.59905659;stroke:none"/>
  </g>
  <g id="software-updates-security">
    <path style="fill:currentColor;fill-rule:evenodd;stroke:none;stroke-width:1px;stroke-linecap:butt;stroke-linejoin:miter;stroke-opacity:1" d="m 29,7 -3,3 0,9 5.099609,0 L 35,19 l 5.099609,0 0,-9 -3,-3 L 35,7 31.099609,7 Z m 0.3,1 3.7,0 3.7,0 2,2 -11.4,0 z m 1.7,3 4,0 0,5 -1,-1 -1,1 -1,-1 -1,1 z" id="path4185" inkscape:connector-curvature="0" sodipodi:nodetypes="ccccccccccccccccccccccccc" class="ColorScheme-Text"/>
    <path id="path4191" d="m 38,3 c 0,1 -2,1 -2,1 l 0,3 c 0,1 1,1 2,2 1,-1 2,-1 2,-2 l 0,-3 c 0,0 -2,0 -2,-1 z" style="fill:#fdbc4b;fill-opacity:1;fill-rule:evenodd;stroke:none;stroke-width:1px;stroke-linecap:butt;stroke-linejoin:miter;stroke-opacity:1" inkscape:connector-curvature="0"/>
    <rect style="opacity:1;fill:none;fill-opacity:0.59905659;stroke:none" id="rect4208" width="22" height="22" x="22" y="-2.6645353e-15"/>
  </g>
  <g id="software-updates-updates">
    <path sodipodi:nodetypes="ccccccccccccccccccccccccc" inkscape:connector-curvature="0" id="path4149" d="M 7,7 4,10 4,19 9.0996094,19 13,19 l 5.099609,0 0,-9 -3,-3 L 13,7 9.0996094,7 Z m 0.3,1 3.7,0 3.7,0 2,2 -11.4,0 z m 1.7,3 4,0 0,5 -1,-1 -1,1 -1,-1 -1,1 z" style="fill:currentColor;fill-rule:evenodd;stroke:none;stroke-width:1px;stroke-linecap:butt;stroke-linejoin:miter;stroke-opacity:1" class="ColorScheme-Text"/>
    <path inkscape:connector-curvature="0" id="path4180" d="M 16,3 A 3,3 0 0 0 13,6 3,3 0 0 0 16,9 3,3 0 0 0 19,6 3,3 0 0 0 16,3 Z" style="opacity:1;fill:#2ecc71;fill-opacity:1;stroke:none"/>
    <path inkscape:connector-curvature="0" id="path4167" d="m 16,4 2,2 -1,0 0,2 -2,0 0,-2 -1,0 1,-1 1,-1 z" style="opacity:1;fill:currentColor;fill-opacity:1;stroke:none" class="ColorScheme-Background"/>
    <rect style="opacity:1;fill:none;fill-opacity:0.59905659;stroke:none" id="rect4212" width="22" height="22" x="0" y="-2.6645353e-15"/>
  </g>
  <g id="software-updates-inactive">
    <path style="fill:currentColor;fill-rule:evenodd;stroke:none;stroke-width:1px;stroke-linecap:butt;stroke-linejoin:miter;stroke-opacity:1" d="m -15,7 -3,3 0,9 5.099609,0 L -9,19 l 5.099609,0 0,-9 -3,-3 L -9,7 -12.900391,7 Z m 0.3,1 3.7,0 3.7,0 2,2 -11.4,0 z m 1.7,3 4,0 0,5 -1,-1 -1,1 -1,-1 -1,1 z" id="path4204" inkscape:connector-curvature="0" sodipodi:nodetypes="ccccccccccccccccccccccccc" class="ColorScheme-Text"/>
    <rect y="-2.6645353e-15" x="-22" height="22" width="22" id="rect4214" style="opacity:1;fill:none;fill-opacity:0.59905659;stroke:none"/>
  </g>
  <g id="software-updates-release" transform="translate(0,22)">
    <path style="fill:#2ecc71;fill-opacity:1;fill-rule:evenodd;stroke:none;stroke-width:1px;stroke-linecap:butt;stroke-linejoin:miter;stroke-opacity:1" d="M 7,7 4,10 4,19 9.0996094,19 13,19 l 5.099609,0 0,-9 -3,-3 L 13,7 9.0996094,7 Z m 0.3,1 3.7,0 3.7,0 2,2 -11.4,0 z m 1.7,3 4,0 0,5 -1,-1 -1,1 -1,-1 -1,1 z" id="path4164" inkscape:connector-curvature="0" sodipodi:nodetypes="ccccccccccccccccccccccccc"/>
    <path style="opacity:1;fill:#2ecc71;fill-opacity:1;stroke:none" d="M 16,3 A 3,3 0 0 0 13,6 3,3 0 0 0 16,9 3,3 0 0 0 19,6 3,3 0 0 0 16,3 Z" id="path4166" inkscape:connector-curvature="0"/>
    <path style="opacity:1;fill:currentColor;fill-opacity:1;stroke:none" d="m 16,4 2,2 -1,0 0,2 -2,0 0,-2 -1,0 1,-1 1,-1 z" id="path4168" inkscape:connector-curvature="0" class="ColorScheme-Background"/>
    <rect y="-2.6645353e-15" x="0" height="22" width="22" id="rect4170" style="opacity:1;fill:none;fill-opacity:0.59905659;stroke:none"/>
  </g>
  <g transform="translate(-22,22)" id="software-updates-additional">
    <path sodipodi:nodetypes="ccccccccccccccccccccccccc" inkscape:connector-curvature="0" id="path4186" d="M 7,7 4,10 4,19 9.0996094,19 13,19 l 5.099609,0 0,-9 -3,-3 L 13,7 9.0996094,7 Z m 0.3,1 3.7,0 3.7,0 2,2 -11.4,0 z m 1.7,3 4,0 0,5 -1,-1 -1,1 -1,-1 -1,1 z" style="fill:currentColor;fill-opacity:1;fill-rule:evenodd;stroke:none;stroke-width:1px;stroke-linecap:butt;stroke-linejoin:miter;stroke-opacity:1" class="ColorScheme-Highlight"/>
    <path inkscape:connector-curvature="0" id="path4188" d="M 16,3 A 3,3 0 0 0 13,6 3,3 0 0 0 16,9 3,3 0 0 0 19,6 3,3 0 0 0 16,3 Z" style="opacity:1;fill:currentColor;fill-opacity:1;stroke:none" class="ColorScheme-Highlight"/>
    <path inkscape:connector-curvature="0" id="path4190" d="m 16,4 2,2 -1,0 0,2 -2,0 0,-2 -1,0 1,-1 1,-1 z" style="opacity:1;fill:currentColor;fill-opacity:1;stroke:none" class="ColorScheme-Background"/>
    <rect style="opacity:1;fill:none;fill-opacity:0.59905659;stroke:none" id="rect4192" width="22" height="22" x="0" y="-2.6645353e-15"/>
  </g>
</svg>
