<?xml version="1.0" encoding="UTF-8" standalone="no"?>
<svg
   xmlns:dc="http://purl.org/dc/elements/1.1/"
   xmlns:cc="http://creativecommons.org/ns#"
   xmlns:rdf="http://www.w3.org/1999/02/22-rdf-syntax-ns#"
   xmlns:svg="http://www.w3.org/2000/svg"
   xmlns="http://www.w3.org/2000/svg"
   version="1.1"
   id="svg2"
   viewBox="0 0 22 22">
  <metadata
     id="metadata12">
    <rdf:RDF>
      <cc:Work
         rdf:about="">
        <dc:format>image/svg+xml</dc:format>
        <dc:type
           rdf:resource="http://purl.org/dc/dcmitype/StillImage" />
        <dc:title></dc:title>
      </cc:Work>
    </rdf:RDF>
  </metadata>
  <defs
     id="defs3051">
    <style
       type="text/css"
       id="current-color-scheme">
      .ColorScheme-Text {
        color:#31363b;
      }
      </style>
  </defs>
  <g
     transform="translate(0,-10)"
     id="22-22-video-card-inactive">
    <path
       id="path7"
       style="opacity:1;fill:none"
       d="M 0,10 0,32 22,32 22,10 0,10 Z" />
    <path
       id="path10"
       d="m 2,12 0,18 1,0 0,-3 4,0 0,1 8,0 0,-1 1,0 0,-1 -13,0 0,-11 16,0 0,8 1,0 0,-9 -17,0 0,-2 -1,0 z m 10.5,4 A 3.5,3.5 0 0 0 9.3417969,18 L 6,18 l 0,7 7,0 0,-2.041016 A 3.5,3.5 0 0 0 16,19.5 3.5,3.5 0 0 0 12.5,16 Z m -0.06445,1 A 2.5,2.5 0 0 1 12.5,17 2.5,2.5 0 0 1 15,19.5 2.5,2.5 0 0 1 13,21.945312 L 13,18 10.503906,18 a 2.5,2.5 0 0 1 1.931641,-1 z M 7,19 9.0390625,19 A 3.5,3.5 0 0 0 9,19.5 3.5,3.5 0 0 0 12,22.960938 L 12,24 7,24 7,19 Z M 10.050781,19 12,19 12,21.949219 A 2.5,2.5 0 0 1 10,19.5 2.5,2.5 0 0 1 10.050781,19 Z"
       style="fill:currentColor;fill-opacity:1;stroke:none"
       class="ColorScheme-Text" />
    <path
       id="path12"
       d="M 18.767578,24.013672 C 17.792964,24.126694 17.044251,24.930009 17,25.910156 c -6.73e-4,0.02994 -6.73e-4,0.0599 0,0.08984 l 1,0 C 17.999477,25.49265 18.378963,25.06531 18.882812,25.005855 18.920882,24.996559 18.960942,24.9967 19,25 c 0.507347,-5.23e-4 0.934687,0.394585 0.994141,0.898438 -0.01833,1.179783 -0.896224,1.236706 -1.992188,1.322265 0,0 -0.002,1.690325 -0.002,1.792969 l 1,0 L 19,28 l 0.002,0 0.230469,0 c 0.97452,-0.113022 1.72328,-0.916337 1.767531,-1.896484 -0.01062,-0.105074 -0.0084,-0.195751 -0.01367,-0.320313 -0.113022,-0.974614 -0.916337,-1.723327 -1.896484,-1.767578 -0.106474,-9.03e-4 -0.212743,-0.0013 -0.322266,-0.002 z M 18.001953,30 l 0,1 1,0 0,-1 -1,0 z"
       style="fill:#fdbc4b;fill-opacity:1;stroke:none" />
  </g>
</svg>
