<svg width="22" height="22" version="1.1" xmlns="http://www.w3.org/2000/svg">
 <defs>
  <style id="current-color-scheme" type="text/css">.ColorScheme-Text { color:#363636; } .ColorScheme-Highlight { color:#4285f4; }</style>
 </defs>
 <g id="yakuake">
  <path class="ColorScheme-Text" d="m6 2c-2.216 0-4 1.784-4 4v10c0 2.216 1.784 4 4 4h10c2.216 0 4-1.784 4-4v-10c0-2.216-1.784-4-4-4h-10zm0 2h10c1.108 0 2 0.892 2 2v10c0 1.108-0.892 2-2 2h-10c-1.108 0-2-0.892-2-2v-10c0-1.108 0.892-2 2-2z" fill="currentColor"/>
  <path class="ColorScheme-Text" d="m6.4648 7.4648-0.70703 0.70703 2.8281 2.8281-2.8281 2.8281 0.70703 0.70703 3.5352-3.5352-3.5352-3.5352zm3.5352 6.5352v1h5v-1z" fill="currentColor"/>
  <rect width="22" height="22" fill="none"/>
 </g>
</svg>
