#define shade_width 8
#define shade_height 8
static unsigned char shade_bits[] = {
   0x18, 0x3c, 0x7e, 0xff, 0xdb, 0x18, 0x18, 0x18 };
