<?xml version="1.0" encoding="UTF-8" standalone="no"?>
<svg viewBox="0 0 50 50"
 xmlns="http://www.w3.org/2000/svg" xmlns:xlink="http://www.w3.org/1999/xlink"  version="1.2" baseProfile="tiny">
<title>Qt SVG Document</title>
<desc>Generated with Qt</desc>
<defs>
</defs>
<g fill="none" stroke="black" stroke-width="1" fill-rule="evenodd" stroke-linecap="square" stroke-linejoin="bevel" >

<g fill="#000000" fill-opacity="1" stroke="none" transform="matrix(3.125,0,0,3.125,-915.625,839.493)"
font-family="Nimbus Sans" font-size="10" font-weight="400" font-style="normal" 
opacity="0" >
<rect x="293" y="-268.638" width="16" height="16"/>
</g>

<g fill="#bababa" fill-opacity="1" stroke="none" transform="matrix(3.125,0,0,3.125,-12.5,-3226.13)"
font-family="Nimbus Sans" font-size="10" font-weight="400" font-style="normal" 
>
<path vector-effect="none" fill-rule="evenodd" d="M12.0001,1047.36 C15.866,1047.36 19,1044.23 19,1040.36 C19,1036.5 15.866,1033.36 12.0001,1033.36 C8.13402,1033.36 5,1036.5 5,1040.36 C5,1044.23 8.13402,1047.36 12.0001,1047.36 "/>
</g>

<g fill="#cecece" fill-opacity="1" stroke="none" transform="matrix(3.125,0,0,3.125,-12.5,-3226.13)"
font-family="Nimbus Sans" font-size="10" font-weight="400" font-style="normal" 
>
<path vector-effect="none" fill-rule="evenodd" d="M12.0001,1046.86 C15.5898,1046.86 18.5,1043.95 18.5,1040.36 C18.5,1036.77 15.5898,1033.86 12.0001,1033.86 C8.41015,1033.86 5.5,1036.77 5.5,1040.36 C5.5,1043.95 8.41015,1046.86 12.0001,1046.86 "/>
</g>

<g fill="none" stroke="#000000" stroke-opacity="1" stroke-width="1" stroke-linecap="square" stroke-linejoin="bevel" transform="matrix(1,0,0,1,0,0)"
font-family="Nimbus Sans" font-size="10" font-weight="400" font-style="normal" 
>
</g>
</g>
</svg>
