<?xml version="1.0" encoding="UTF-8" standalone="no"?>
<svg
   xmlns:dc="http://purl.org/dc/elements/1.1/"
   xmlns:cc="http://creativecommons.org/ns#"
   xmlns:rdf="http://www.w3.org/1999/02/22-rdf-syntax-ns#"
   xmlns:svg="http://www.w3.org/2000/svg"
   xmlns="http://www.w3.org/2000/svg"
   xmlns:xlink="http://www.w3.org/1999/xlink"
   xmlns:sodipodi="http://sodipodi.sourceforge.net/DTD/sodipodi-0.dtd"
   xmlns:inkscape="http://www.inkscape.org/namespaces/inkscape"
   width="173"
   height="56"
   version="1.1"
   viewBox="0 0 173 56"
   id="svg200"
   sodipodi:docname="panel-background.svg"
   inkscape:version="1.0.1 (3bc2e813f5, 2020-09-07)">
  <metadata
     id="metadata204">
    <rdf:RDF>
      <cc:Work
         rdf:about="">
        <dc:format>image/svg+xml</dc:format>
        <dc:type
           rdf:resource="http://purl.org/dc/dcmitype/StillImage" />
        <dc:title></dc:title>
      </cc:Work>
    </rdf:RDF>
  </metadata>
  <sodipodi:namedview
     pagecolor="#cbcbcb"
     bordercolor="#666666"
     borderopacity="1"
     objecttolerance="10"
     gridtolerance="10"
     guidetolerance="10"
     inkscape:pageopacity="0"
     inkscape:pageshadow="2"
     inkscape:window-width="1920"
     inkscape:window-height="1020"
     id="namedview202"
     showgrid="true"
     inkscape:zoom="3.5646675"
     inkscape:cx="75.15636"
     inkscape:cy="25.465576"
     inkscape:window-x="0"
     inkscape:window-y="30"
     inkscape:window-maximized="1"
     inkscape:current-layer="svg200"
     showguides="true"
     inkscape:guide-bbox="true"
     inkscape:document-rotation="0"
     inkscape:snap-bbox="true"
     inkscape:bbox-nodes="true"
     inkscape:snap-bbox-edge-midpoints="true"
     inkscape:snap-nodes="false">
    <inkscape:grid
       type="xygrid"
       id="grid914" />
  </sodipodi:namedview>
  <defs
     id="defs24">
    <linearGradient
       id="linearGradient923"
       inkscape:collect="always">
      <stop
         id="stop919"
         offset="0"
         style="stop-color:#ffffff;stop-opacity:1;" />
      <stop
         id="stop921"
         offset="1"
         style="stop-color:#ffffff;stop-opacity:0;" />
    </linearGradient>
    <linearGradient
       id="linearGradient913">
      <stop
         id="stop909"
         offset="0"
         style="stop-color:#ffffff;stop-opacity:0" />
      <stop
         style="stop-color:#ffffff;stop-opacity:0"
         offset="0.9375"
         id="stop917" />
      <stop
         id="stop911"
         offset="1"
         style="stop-color:#ffffff;stop-opacity:1" />
    </linearGradient>
    <style
       id="current-color-scheme"
       type="text/css">.ColorScheme-Text {
        color:#31363b;
        stop-color:#31363b;
      }
      .ColorScheme-Background {
        color:#eff0f1;
        stop-color:#eff0f1;
      }
      .ColorScheme-Highlight {
        color:#3daee9;
        stop-color:#3daee9;
      }
      .ColorScheme-ViewText {
        color:#31363b;
        stop-color:#31363b;
      }
      .ColorScheme-ViewBackground {
        color:#fcfcfc;
        stop-color:#fcfcfc;
      }
      .ColorScheme-ViewHover {
        color:#93cee9;
        stop-color:#93cee9;
      }
      .ColorScheme-ViewFocus{
        color:#3daee9;
        stop-color:#3daee9;
      }
      .ColorScheme-ButtonText {
        color:#31363b;
        stop-color:#31363b;
      }
      .ColorScheme-ButtonBackground {
        color:#eff0f1;
        stop-color:#eff0f1;
      }
      .ColorScheme-ButtonHover {
        color:#93cee9;
        stop-color:#93cee9;
      }
      .ColorScheme-ButtonFocus{
        color:#3daee9;
        stop-color:#3daee9;
      }</style>
    <linearGradient
       id="linearGradient4270"
       inkscape:collect="always">
      <stop
         id="stop4272"
         offset="0"
         style="stop-color:#000000;stop-opacity:0.66663194" />
      <stop
         id="stop4274"
         offset="1"
         style="stop-color:#000000;stop-opacity:0;" />
    </linearGradient>
    <radialGradient
       inkscape:collect="always"
       xlink:href="#linearGradient4270"
       id="radialGradient994"
       gradientUnits="userSpaceOnUse"
       gradientTransform="matrix(1.6289431e-5,-4.6666397,4.6666504,1.6289464e-5,3.9989368,381.3309)"
       cx="77"
       cy="11.99998"
       fx="77"
       fy="11.99998"
       r="6" />
    <linearGradient
       inkscape:collect="always"
       xlink:href="#linearGradient4270"
       id="linearGradient4920"
       gradientUnits="userSpaceOnUse"
       x1="-920.69537"
       y1="-34.999985"
       x2="-904.3623"
       y2="-34.999985"
       gradientTransform="matrix(1.1020538,0,0,1,98.293668,0)" />
    <radialGradient
       gradientTransform="matrix(0,-2,2,0,16,142)"
       gradientUnits="userSpaceOnUse"
       r="8"
       fy="22"
       fx="60"
       cy="22"
       cx="60"
       id="radialGradient915"
       xlink:href="#linearGradient913"
       inkscape:collect="always" />
    <linearGradient
       gradientUnits="userSpaceOnUse"
       y2="-35.000027"
       x2="-910.86218"
       y1="-35.000027"
       x1="-910.36218"
       id="linearGradient925"
       xlink:href="#linearGradient923"
       inkscape:collect="always" />
  </defs>
  <use
     height="100%"
     width="100%"
     transform="matrix(1,0,0,-1,-2.3793946e-7,55.999963)"
     id="bottom"
     xlink:href="#top"
     y="0"
     x="0" />
  <use
     x="0"
     y="0"
     xlink:href="#top"
     id="left"
     transform="matrix(0,1,1,0,38.000037,-37.99997)"
     width="100%"
     height="100%" />
  <use
     height="100%"
     width="100%"
     transform="rotate(90,65.99996,28.000016)"
     id="shadow-right"
     xlink:href="#shadow-top"
     y="0"
     x="0" />
  <use
     height="100%"
     width="100%"
     transform="rotate(90,65.999966,27.999997)"
     id="right"
     xlink:href="#top"
     y="0"
     x="0" />
  <use
     height="100%"
     width="100%"
     transform="rotate(-90,66.000007,27.999995)"
     id="shadow-left"
     xlink:href="#shadow-top"
     y="0"
     x="0" />
  <use
     height="100%"
     width="100%"
     transform="matrix(1,0,0,-1,5.6942917e-7,56.000033)"
     id="shadow-bottom"
     xlink:href="#shadow-top"
     y="0"
     x="0" />
  <g
     id="shadow-topleft"
     transform="matrix(1.1666637,0,0,1.1666637,64.666611,-1086.7531)"
     style="opacity:1">
    <path
       d="M 32 -6 L 32 22 L 44 22 C 44 13.13604 51.136035 6 60 6 L 60 -6 L 32 -6 z "
       style="opacity:0.25;fill:url(#radialGradient994);fill-opacity:1;fill-rule:evenodd;stroke:none;stroke-width:2.33332px;stroke-linecap:butt;stroke-linejoin:miter;stroke-opacity:1"
       id="path4828"
       transform="matrix(0.85714504,0,0,0.85714504,-55.428665,931.50503)" />
  </g>
  <rect
     style="fill:#ff6600"
     x="0"
     height="5"
     width="5"
     y="-1.4648437e-05"
     id="hint-tile-center" />
  <g
     id="top"
     transform="matrix(0.37500096,0,0,1.9999988,52.874957,-1814.7233)">
    <rect
       y="-50.999985"
       x="-918.36218"
       height="32"
       width="8.0000181"
       id="rect4152"
       style="color:#eff0f1;opacity:0.25;fill:#000000;fill-opacity:1;stroke:none;stroke-width:1.1547"
       transform="matrix(0,-1,-1,0,0,0)"
       class="ColorScheme-Background" />
    <rect
       class="ColorScheme-Background"
       transform="matrix(0,-1,-1,0,0,0)"
       style="color:#eff0f1;opacity:0.01;fill:url(#linearGradient925);fill-opacity:1;stroke:none;stroke-width:0.288684"
       id="rect76"
       width="0.50003201"
       height="32"
       x="-910.86218"
       y="-50.999985" />
  </g>
  <g
     id="topleft"
     transform="translate(31,-904.36218)">
    <path
       sodipodi:nodetypes="cccc"
       style="opacity:0.25;fill:#000000;fill-opacity:1;stroke:none;stroke-width:2.66667"
       d="m 29,910.36218 c -8.863965,0 -16,7.13604 -16,16 h 16 z"
       id="rect4159"
       inkscape:connector-curvature="0" />
    <path
       transform="translate(-31,904.36218)"
       d="M 60 6 C 51.136035 6 44 13.13604 44 22 L 45 22 C 45 13.69004 51.690033 7 60 7 L 60 6 z "
       style="opacity:0.01;fill:url(#radialGradient915);fill-opacity:1;stroke:none;stroke-width:2.66667"
       id="path71" />
  </g>
  <rect
     class="ColorScheme-Background"
     y="22"
     x="59.999954"
     height="12.000099"
     width="12.000099"
     id="center"
     style="color:#eff0f1;opacity:0.25;fill:#000000;fill-opacity:1;stroke:none;stroke-width:0.3750031" />
  <rect
     style="fill:#ff00ff;fill-opacity:1;stroke:none;stroke-width:0.7070992"
     id="hint-top-margin"
     width="4"
     height="2.9999487"
     x="64"
     y="6.0000515" />
  <rect
     y="47"
     x="64"
     height="3.0000477"
     width="4"
     id="hint-bottom-margin"
     style="fill:#ff00ff;fill-opacity:1;stroke:none;stroke-width:0.70711386" />
  <rect
     y="-88.000015"
     x="26.000051"
     height="3.0000153"
     width="4"
     id="hint-right-margin"
     style="fill:#ff00ff;fill-opacity:1;stroke:none;stroke-width:0.70710778"
     transform="rotate(90)" />
  <rect
     style="fill:#ff00ff;fill-opacity:1;stroke:none;stroke-width:0.70710653"
     id="hint-left-margin"
     width="4"
     height="3"
     x="26.000051"
     y="-47"
     transform="rotate(90)" />
  <g
     id="shadow-top"
     transform="matrix(0.37500332,0,0,1.5555643,52.874889,-1403.4603)"
     style="opacity:1">
    <rect
       transform="matrix(0,-1,-1,0,0,0)"
       style="opacity:1;fill:none;fill-opacity:1;stroke:none"
       id="rect4820"
       width="6"
       height="32"
       x="-916.36218"
       y="-50.999985" />
    <rect
       transform="matrix(0,-1,-1,0,0,0)"
       style="opacity:0.25;fill:url(#linearGradient4920);fill-opacity:1;stroke:none;stroke-width:1.04979"
       id="rect4822"
       width="7.7143521"
       height="31.999859"
       x="-906.07654"
       y="-50.999844" />
    <rect
       y="-50.999985"
       x="-911.36218"
       height="32"
       width="0.99997741"
       id="rect4824"
       style="opacity:1;fill:none;fill-opacity:1;stroke:none"
       transform="matrix(0,-1,-1,0,0,0)" />
  </g>
  <rect
     y="-5.999948"
     x="64"
     height="12"
     width="4"
     id="shadow-hint-top-margin"
     style="fill:#ff6600;fill-opacity:1;stroke:none;stroke-width:1.41421628" />
  <rect
     style="fill:#ff6600;fill-opacity:1;stroke:none;stroke-width:1.41420949"
     id="shadow-hint-bottom-margin"
     width="4"
     height="11.999977"
     x="64"
     y="50.00005" />
  <rect
     transform="rotate(90)"
     style="fill:#ff6600;fill-opacity:1;stroke:none;stroke-width:1.41421628"
     id="shadow-hint-right-margin"
     width="3.9999769"
     height="12"
     x="26.000051"
     y="-100" />
  <rect
     transform="rotate(90)"
     y="-44"
     x="26.000051"
     height="12"
     width="4.0000229"
     id="shadow-hint-left-margin"
     style="fill:#ff6600;fill-opacity:1;stroke:none;stroke-width:1.41421354" />
  <g
     id="mask-top"
     transform="matrix(0.37500035,0,0,1.3333275,128.87498,-1207.8108)">
    <rect
       transform="matrix(0,-1,-1,0,0,0)"
       style="opacity:0.97;fill:#000000;fill-opacity:1;stroke:none;stroke-width:1.54919"
       id="rect4265"
       width="11.999931"
       height="32.000015"
       x="-922.36218"
       y="-51" />
  </g>
  <g
     id="mask-topleft"
     transform="matrix(1.5999977,0,0,1.5999942,99.200029,-1450.5741)">
    <path
       style="opacity:0.97;fill:#000000;fill-opacity:1;stroke-width:2"
       d="m 23,910.36218 c -5.539984,0 -10,4.46002 -10,10 h 10 z"
       id="path4277"
       inkscape:connector-curvature="0" />
  </g>
  <g
     id="mask-topright"
     transform="matrix(2.0000036,0,0,2.0000159,49.999796,-1814.7389)">
    <path
       style="opacity:0.97;fill:#000000;fill-opacity:1;stroke-width:1.6"
       d="m 49.000013,910.36218 v 7.99999 H 57 c 0,-4.43198 -3.568007,-7.99999 -7.999987,-7.99999 z"
       id="path4287"
       inkscape:connector-curvature="0" />
  </g>
  <g
     id="mask-bottom"
     transform="matrix(0.37500035,0,0,1.600003,128.87498,-1476.9825)">
    <rect
       y="-51"
       x="944.36224"
       height="32.000015"
       width="9.9999723"
       id="rect4291"
       style="opacity:0.97;fill:#000000;fill-opacity:1;stroke:none;stroke-width:1.41421"
       transform="rotate(90)" />
  </g>
  <g
     id="mask-bottomleft"
     transform="matrix(1.3333288,0,0,1.3333268,102.66673,-1222.4767)">
    <path
       style="opacity:0.97;fill:#000000;fill-opacity:1;stroke-width:2.40001"
       d="m 13,942.36218 c 0,6.64797 5.35202,12 12,12 v -12 z"
       id="path4303"
       inkscape:connector-curvature="0" />
  </g>
  <g
     id="mask-bottomright"
     transform="matrix(1.3333336,0,0,1.3333316,87.999988,-1222.4813)">
    <path
       style="opacity:0.97;fill:#000000;fill-opacity:1;stroke-width:2.40001"
       d="m 45,942.36218 v 12 c 6.64798,0 12,-5.35203 12,-12 z"
       id="path4313"
       inkscape:connector-curvature="0" />
  </g>
  <g
     id="mask-left"
     transform="matrix(1.3333341,0,0,0.60000604,102.66665,-531.42288)">
    <rect
       y="922.36218"
       x="-25"
       height="20.000069"
       width="11.999996"
       id="rect4317"
       style="opacity:0.97;fill:#000000;fill-opacity:1;stroke:none;stroke-width:1.22475"
       transform="scale(-1,1)" />
  </g>
  <g
     id="mask-right"
     transform="matrix(1.6000014,0,0,0.37500479,72.799936,-321.64022)">
    <rect
       style="opacity:0.97;fill:#000000;fill-opacity:1;stroke:none;stroke-width:1.41421"
       id="rect4323"
       width="9.9999828"
       height="32.000023"
       x="47"
       y="916.36218" />
  </g>
  <rect
     style="opacity:0.97;fill:#000000;fill-opacity:1;stroke:none;stroke-width:0.375001"
     id="mask-center"
     width="12.000025"
     height="12.000025"
     x="135.99997"
     y="22" />
  <rect
     style="color:#eff0f1;opacity:0;fill:#ffffff;fill-opacity:1;stroke:none;stroke-width:0.375003"
     id="shadow-center"
     width="12.000099"
     height="12.000099"
     x="59.999954"
     y="80"
     class="ColorScheme-Background"
     inkscape:label="#shadow-center" />
  <use
     height="100%"
     width="100%"
     transform="matrix(-1,0,0,1,132,0)"
     id="topright"
     xlink:href="#topleft"
     y="0"
     x="0" />
  <use
     height="100%"
     width="100%"
     transform="matrix(1,0,0,-1,0,56)"
     id="bottomleft"
     xlink:href="#topleft"
     y="0"
     x="0" />
  <use
     height="100%"
     width="100%"
     transform="rotate(180,66,28)"
     id="bottomright"
     xlink:href="#topleft"
     y="0"
     x="0" />
  <use
     height="100%"
     width="100%"
     transform="matrix(-1,0,0,1,132,0)"
     id="shadow-topright"
     xlink:href="#shadow-topleft"
     y="0"
     x="0" />
  <use
     height="100%"
     width="100%"
     transform="matrix(1,0,0,-1,-9.5996635e-7,55.999998)"
     id="shadow-bottomleft"
     xlink:href="#shadow-topleft"
     y="0"
     x="0" />
  <use
     height="100%"
     width="100%"
     transform="rotate(180,65.999999,27.999999)"
     id="shadow-bottomright"
     xlink:href="#shadow-topleft"
     y="0"
     x="0" />
</svg>
