<?xml version="1.0" encoding="UTF-8" standalone="no"?>
<svg viewBox="0 0 50 50"
 xmlns="http://www.w3.org/2000/svg" xmlns:xlink="http://www.w3.org/1999/xlink"  version="1.2" baseProfile="tiny">
<title>Qt SVG Document</title>
<desc>Generated with Qt</desc>
<defs>
</defs>
<g fill="none" stroke="black" stroke-width="1" fill-rule="evenodd" stroke-linecap="square" stroke-linejoin="bevel" >

<g fill="#000000" fill-opacity="1" stroke="none" transform="matrix(3.125,0,0,3.125,-915.625,595.743)"
font-family="Nimbus Sans" font-size="10" font-weight="400" font-style="normal" 
opacity="0" >
<rect x="293" y="-190.638" width="16" height="16"/>
</g>

<g fill="#cb4e43" fill-opacity="1" stroke="none" transform="matrix(3.125,0,0,3.125,-12.5,-3226.13)"
font-family="Nimbus Sans" font-size="10" font-weight="400" font-style="normal" 
>
<path vector-effect="none" fill-rule="evenodd" d="M12.0001,1047.36 C15.866,1047.36 19,1044.23 19,1040.36 C19,1036.5 15.866,1033.36 12.0001,1033.36 C8.13402,1033.36 5,1036.5 5,1040.36 C5,1044.23 8.13402,1047.36 12.0001,1047.36 "/>
</g>

<g fill="#000000" fill-opacity="1" stroke="none" transform="matrix(3.125,0,0,3.125,-12.5,-3226.13)"
font-family="Nimbus Sans" font-size="10" font-weight="400" font-style="normal" 
opacity="0.5" >
<path vector-effect="none" fill-rule="nonzero" d="M9.17157,1037.53 C8.77984,1037.93 8.77984,1038.56 9.17157,1038.95 L10.5858,1040.36 L9.17157,1041.78 C8.77984,1042.17 8.77984,1042.8 9.17157,1043.19 C9.56331,1043.58 10.194,1043.58 10.5858,1043.19 L12,1041.78 L13.4142,1043.19 C13.806,1043.58 14.4367,1043.58 14.8284,1043.19 C15.2202,1042.8 15.2202,1042.17 14.8284,1041.78 L13.4142,1040.36 L14.8284,1038.95 C15.2202,1038.56 15.2202,1037.93 14.8284,1037.53 C14.4367,1037.14 13.806,1037.14 13.4142,1037.53 L12,1038.95 L10.5858,1037.53 C10.194,1037.14 9.56331,1037.14 9.17157,1037.53 "/>
</g>

<g fill="none" stroke="#000000" stroke-opacity="1" stroke-width="1" stroke-linecap="square" stroke-linejoin="bevel" transform="matrix(1,0,0,1,0,0)"
font-family="Nimbus Sans" font-size="10" font-weight="400" font-style="normal" 
>
</g>
</g>
</svg>
