<?xml version="1.0" encoding="UTF-8" standalone="no"?>
<svg viewBox="0 0 50 50"
 xmlns="http://www.w3.org/2000/svg" xmlns:xlink="http://www.w3.org/1999/xlink"  version="1.2" baseProfile="tiny">
<title>Qt SVG Document</title>
<desc>Generated with Qt</desc>
<defs>
</defs>
<g fill="none" stroke="black" stroke-width="1" fill-rule="evenodd" stroke-linecap="square" stroke-linejoin="bevel" >

<g fill="#000000" fill-opacity="1" stroke="none" transform="matrix(3.125,0,0,3.125,-978.125,595.743)"
font-family="Nimbus Sans" font-size="10" font-weight="400" font-style="normal" 
opacity="0" >
<rect x="313" y="-190.638" width="16" height="16"/>
</g>

<g fill="#20a932" fill-opacity="1" stroke="none" transform="matrix(3.125,0,0,3.125,-994.444,623.182)"
font-family="Nimbus Sans" font-size="10" font-weight="400" font-style="normal" 
>
<path vector-effect="none" fill-rule="evenodd" d="M326.222,-184.418 C330.088,-184.418 333.222,-187.552 333.222,-191.418 C333.222,-195.284 330.088,-198.418 326.222,-198.418 C322.356,-198.418 319.222,-195.284 319.222,-191.418 C319.222,-187.552 322.356,-184.418 326.222,-184.418 "/>
</g>

<g fill="#000000" fill-opacity="1" stroke="none" transform="matrix(3.125,0,0,3.125,-994.42,704.673)"
font-family="Nimbus Sans" font-size="10" font-weight="400" font-style="normal" 
opacity="0.5" >
<path vector-effect="none" fill-rule="nonzero" d="M326.214,-222.086 L326.214,-218.5 C326.214,-218.084 326.798,-217.5 327.214,-217.5 L330.8,-217.5 L326.214,-222.086"/>
</g>

<g fill="#000000" fill-opacity="1" stroke="none" transform="matrix(3.125,0,0,3.125,-994.42,704.673)"
font-family="Nimbus Sans" font-size="10" font-weight="400" font-style="normal" 
opacity="0.5" >
<path vector-effect="none" fill-rule="nonzero" d="M326.215,-212.905 L326.215,-216.491 C326.215,-216.906 325.63,-217.491 325.215,-217.491 L321.629,-217.491 L326.215,-212.905"/>
</g>

<g fill="none" stroke="#000000" stroke-opacity="1" stroke-width="1" stroke-linecap="square" stroke-linejoin="bevel" transform="matrix(1,0,0,1,0,0)"
font-family="Nimbus Sans" font-size="10" font-weight="400" font-style="normal" 
>
</g>
</g>
</svg>
