<!--?xml version="1.0" standalone="no"?-->

<svg xmlns="http://www.w3.org/2000/svg" width="300.000000pt" height="300.000000pt" viewBox="0 0 300.000000 300.000000" preserveAspectRatio="xMidYMid meet">
<g transform="translate(0.000000,300.000000) scale(0.100000,-0.100000)" fill="#040404" stroke="none">
<path d="M1370 2919 c-112 -22 -249 -135 -284 -234 -42 -119 -38 -115 -108
-115 -117 0 -213 -44 -293 -132 -64 -70 -93 -136 -101 -228 -7 -70 -10 -78
-47 -115 -111 -111 -149 -188 -153 -310 -4 -123 31 -214 113 -300 21 -22 32
-48 42 -100 25 -135 42 -173 108 -244 57 -62 91 -84 189 -125 55 -24 189 -18
261 11 l51 21 44 -30 c57 -38 162 -88 187 -88 17 0 20 -9 25 -62 2 -35 10
-128 17 -207 11 -127 10 -153 -4 -215 -9 -39 -18 -93 -21 -121 -3 -27 -15 -91
-27 -142 -12 -50 -19 -98 -16 -107 6 -14 35 -16 233 -16 l227 0 -7 73 c-4 39
-13 92 -21 117 -30 97 -37 156 -32 275 6 129 17 209 33 238 18 32 177 187 192
187 7 0 26 -9 41 -19 38 -27 94 -40 186 -42 104 -2 149 11 237 70 59 40 81 62
114 118 23 37 45 86 48 108 12 69 16 74 71 102 52 25 123 90 156 143 8 14 28
55 42 93 31 78 37 183 12 231 -8 15 -15 34 -15 40 0 7 -16 39 -36 72 l-36 59
11 81 c19 155 -14 267 -109 364 -46 47 -130 100 -159 100 -9 0 -25 7 -35 15
-11 8 -30 15 -43 15 -17 0 -28 11 -45 46 -43 92 -150 177 -269 213 -63 20
-155 13 -241 -16 l-80 -28 -19 25 c-78 101 -152 152 -247 174 -77 17 -123 19
-192 5z m430 -1703 c0 -29 30 -97 69 -156 l31 -45 -32 -32 c-37 -39 -103 -73
-140 -73 -41 0 -61 31 -55 87 2 26 9 66 15 88 6 22 14 57 17 78 7 46 36 77 70
77 20 0 25 -5 25 -24z m-352 2 c7 -7 51 -15 100 -18 l87 -5 -3 -40 c-2 -35
-20 -91 -42 -135 -4 -8 -21 -16 -38 -18 -27 -3 -35 3 -71 52 -56 75 -81 122
-81 151 0 28 27 34 48 13z m-74 -69 c27 -58 36 -103 22 -116 -15 -15 -156 56
-156 79 0 17 74 98 90 98 10 0 27 -23 44 -61z" id="node1" class="node" style="position: relative;"></path>
</g>
<g transform="translate(0.000000,300.000000) scale(0.100000,-0.100000)" fill="#A1A1A1" stroke="none">




</g>
</svg>