<svg xmlns="http://www.w3.org/2000/svg" width="32" height="32" version="1.1">
 <g id="22-22-applications-other" transform="translate(32)">
  <rect  style="opacity:0.001" width="22" height="22" x="0" y="10"/>
  <path  style="opacity:1;fill:#232627" d="m 5,13 c -1.108,0 -2,0.892 -2,2 v 3 c 0,1.108 0.892,2 2,2 h 3 c 1.108,0 2,-0.892 2,-2 V 15 C 10,13.892 9.108,13 8,13 Z m 9,0 c -1.108,0 -2,0.892 -2,2 v 3 c 0,1.108 0.892,2 2,2 h 3 c 1.108,0 2,-0.892 2,-2 v -3 c 0,-1.108 -0.892,-2 -2,-2 z m 0,1 h 3 c 0.571297,0 1,0.428703 1,1 v 3 c 0,0.571297 -0.428703,1 -1,1 h -3 c -0.571297,0 -1,-0.428703 -1,-1 v -3 c 0,-0.571297 0.428703,-1 1,-1 z m -9,8 c -1.108,0 -2,0.892 -2,2 v 3 c 0,1.108 0.892,2 2,2 h 3 c 1.108,0 2,-0.892 2,-2 V 24 C 10,22.892 9.108,22 8,22 Z m 9,0 c -1.108,0 -2,0.892 -2,2 v 3 c 0,1.108 0.892,2 2,2 h 3 c 1.108,0 2,-0.892 2,-2 v -3 c 0,-1.108 -0.892,-2 -2,-2 z m -9,1 h 3 c 0.5712972,0 1,0.428703 1,1 v 3 c 0,0.571297 -0.4287028,1 -1,1 H 5 C 4.4287028,28 4,27.571297 4,27 v -3 c 0,-0.571297 0.4287028,-1 1,-1 z"/>
 </g>
 <g id="applications-other" transform="translate(-22)">
  <rect  style="opacity:0.001" width="32" height="32" x="22" y="0"/>
  <path  style="opacity:1;fill:#232627" d="M 28.857422,4 C 27.274644,4 26,5.2746438 26,6.8574219 V 11.142578 C 26,12.725356 27.274644,14 28.857422,14 h 4.285156 C 34.725356,14 36,12.725356 36,11.142578 V 6.8574219 C 36,5.2746438 34.725356,4 33.142578,4 Z m 14,0 C 41.274644,4 40,5.2746438 40,6.8574219 V 11.142578 C 40,12.725356 41.274644,14 42.857422,14 h 4.285156 C 48.725356,14 50,12.725356 50,11.142578 V 6.8574219 C 50,5.2746438 48.725356,4 47.142578,4 Z m 0,1 h 4.285156 C 48.188653,5 49,5.8113466 49,6.8574219 V 11.142578 C 49,12.188653 48.188653,13 47.142578,13 H 42.857422 C 41.811347,13 41,12.188653 41,11.142578 V 6.8574219 C 41,5.8113466 41.811347,5 42.857422,5 Z m -14,13 C 27.274644,18 26,19.274643 26,20.857422 v 4.285156 C 26,26.725356 27.274644,28 28.857422,28 h 4.285156 C 34.725356,28 36,26.725356 36,25.142578 V 20.857422 C 36,19.274643 34.725356,18 33.142578,18 Z m 14,0 C 41.274644,18 40,19.274643 40,20.857422 v 4.285156 C 40,26.725356 41.274644,28 42.857422,28 h 4.285156 C 48.725356,28 50,26.725356 50,25.142578 V 20.857422 C 50,19.274643 48.725356,18 47.142578,18 Z m -14,1 h 4.285156 C 34.188653,19 35,19.811346 35,20.857422 v 4.285156 C 35,26.188653 34.188653,27 33.142578,27 H 28.857422 C 27.811347,27 27,26.188653 27,25.142578 V 20.857422 C 27,19.811346 27.811347,19 28.857422,19 Z"/>
 </g>
</svg>
