<svg xmlns="http://www.w3.org/2000/svg" width="32" height="32" version="1.1">
 <g id="22-22-choqok_offline" transform="translate(32,10)">
  <rect  style="opacity:0.001" width="22" height="22" x="0" y="0"/>
  <path  style="opacity:0.5;fill:#232627" d="m 16.683594,2.9984217 c 0,0 -0.287316,0.6339999 0,1 -1.09756,-1.0000001 -2.074219,-0.5 -2.074219,-0.5 0,0 0.245474,0.6560001 0.609375,1 -0.584877,-0.2875 -1.21875,0 -1.21875,0 0,0 0.330839,0.5 0.609375,0.5 H 3.8886719 C 3.3977724,4.99847 3.0000491,5.3901865 3,5.8734217 v 0.5253906 4.9960937 4.779297 c 4.91e-5,0.483235 0.3977724,0.824171 0.8886719,0.824219 h 8.4492191 l 2.255859,1.837891 c 0.58843,0.412332 1.406032,-0.0018 1.40625,-0.712891 v -1.125 h 2.111328 c 0.4909,-4.8e-5 0.888623,-0.340984 0.888672,-0.824219 v -9.1757813 -1.125 -0.875 -0.054687 L 18.9941,4.9320152 C 18.92506,3.4852902 16.683594,2.9984217 16.683594,2.9984217 Z m -11.7519534,3 H 14.533203 C 14.059124,6.723646 13.839612,7.4292129 14.136719,8.3343592 14.672877,9.9674967 16.451793,10.237369 18,9.8128748 v 6.1855472 h -2 c -0.552262,5.5e-5 -0.999945,0.447738 -1,1 v 0.878906 L 12.96875,16.223031 C 12.790522,16.077892 12.56774,15.998573 12.337891,15.998422 H 4 V 11.891 c 0.2329713,0.06406 0.4742203,0.107422 0.7265625,0.107422 C 6.3158496,11.998422 8,11.254831 8,9.5980311 8,8.0183486 6.4692759,6.1975096 4.9492188,6.0296717 c -0.00446,-0.011575 -0.012572,-0.020002 -0.017578,-0.03125 z m 11.0683594,1 c 0.552285,0 1,0.4477153 1,1 0,0.5522847 -0.447715,1 -1,1 -0.552285,0 -1,-0.4477153 -1,-1 0,-0.5522847 0.447715,-1 1,-1 z m -10,1 c 0.5522847,0 1,0.4477153 1,1 0,0.5522847 -0.4477153,1 -1,1 -0.5522847,0 -1,-0.4477153 -1,-1 0,-0.5522847 0.4477153,-1 1,-1 z m 7.509766,3.0019533 C 12.956068,10.988645 12.30575,11.057995 11.558594,11.266 10.010052,11.611789 8.7935902,12.680337 8.0371094,13.861703 8.0312937,13.877763 8,13.943738 8,13.943734 h 0.00195 c 1.0581856,1.101004 2.97199,2.083631 4.462891,2.048829 2.768512,-0.342009 3.372302,-2.175068 3.505859,-4.185547 0,0 -0.799844,-0.771444 -2.460937,-0.806641 z M 14,13.998422 v 1 h -3 c 0.331288,-1.0296 3,-1 3,-1 z"/>
 </g>
 <g id="choqok_offline">
  <rect  style="opacity:0.001" width="32" height="32" x="0" y="0"/>
  <path  style="opacity:0.5;fill:#232627" d="M 24.525391 4 C 24.525391 4 24.094417 4.951054 24.525391 5.5 C 22.879051 4.0001477 21.414063 4.75 21.414062 4.75 C 21.414062 4.75 21.782274 5.7340511 22.328125 6.25 C 21.450809 5.8187927 20.5 6.25 20.5 6.25 C 20.5 6.25 20.996257 7 21.414062 7 L 5.3339844 7 C 4.5976352 7.0000724 4.0000736 7.5877187 4 8.3125 L 4 9.0996094 L 4 16.59375 L 4 23.761719 C 4.0000736 24.4865 4.5976352 24.997975 5.3339844 24.998047 L 18.007812 24.998047 L 20.890625 27.753906 C 21.773271 28.372343 22.999673 27.752078 23 26.685547 L 23 24.998047 L 26.667969 24.998047 C 27.404319 24.997975 27.999927 24.4865 28 23.761719 L 28 10 L 28 8.3125 L 28 7 L 28 6.9179688 L 27.990234 6.9003906 C 27.886793 4.7305173 24.525391 4 24.525391 4 z M 5.0136719 8 L 20.800781 8 C 20.089663 9.0877292 19.759417 10.14632 20.205078 11.503906 C 22 15 24.677689 14.357382 27 13.720703 L 27 24.003906 L 23 24.003906 C 22.171607 24.003988 22.000084 24.169736 22 24.998047 L 22 27 L 18.953125 24.435547 C 18.685783 24.217859 18.352587 24.004131 18.007812 24.003906 L 5 24.003906 L 5 16.9375 C 5.349457 17.03358 6.2113304 17.097656 6.5898438 17.097656 C 8.9737745 17.097656 12 16.383392 12 13.898438 C 12 11.666595 9.4625403 9.1143298 7.3203125 8.6152344 C 7.1883796 8.5844967 5.1459487 8.014604 5.0136719 8 z M 23.5 10 C 24.328428 10 25 10.671655 25 11.5 C 25 12.328347 24.328428 13 23.5 13 C 22.671572 13 22 12.328347 22 11.5 C 22 10.671655 22.671572 10 23.5 10 z M 8.5 11 C 9.328427 11 10 11.671655 10 12.5 C 10 13.328346 9.328427 14 8.5 14 C 7.671573 14 7 13.328346 7 12.5 C 7 11.671655 7.671573 11 8.5 11 z M 19.763672 16.001953 C 18.933531 15.984549 17.957784 16.088524 16.837891 16.400391 C 14.515078 16.919232 12.689409 18.522327 11.554688 20.294922 C 11.545886 20.319022 11.5 20.417974 11.5 20.417969 L 11.501953 20.417969 C 13.089231 22.069982 15.861304 24.050266 18.097656 23.998047 C 22.250424 23.484875 23.254742 20.229539 23.455078 17.212891 C 23.455078 17.212891 22.255856 16.055364 19.765625 16.001953 L 19.763672 16.001953 z M 20 20 L 20 21.998047 L 16 21.998047 C 16.496933 20.4538 20 20 20 20 z"/>
 </g>
</svg>
