<svg xmlns="http://www.w3.org/2000/svg" width="32" height="32" version="1.1">
 <g id="22-22-edit-delete" transform="translate(32.000001,10.000001)">
  <g >
   <path  style="opacity:0.001" d="M 0,0 V 22 H 22 V 0 Z"/>
   <path  style="opacity:1;fill:#232627" d="M 10,3 C 9.446,3 9,3.446 9,4 V 5 H 6 C 5.446,5 5,5.446 5,6 v 1 c 0,0.554 0.446,1 1,1 v 3 6 c 0,1.108 0.892,2 2,2 h 7 c 1.108,0 2,-0.892 2,-2 V 11 9 8 c 0.554,0 1,-0.446 1,-1 V 6 C 18,5.446 17.554,5 17,5 H 14 V 4 C 14,3.446 13.554,3 13,3 Z m 0,1 h 3 V 5 H 10 Z M 7,8 h 1 7 1 v 1 2 6 c 0,0.571297 -0.428703,1 -1,1 H 8 C 7.4287028,18 7,17.571297 7,17 V 9 Z M 9.4921875,9.9921875 C 9.2160427,9.9964962 8.9956794,10.223855 9,10.5 v 5 c -0.00956,0.676161 1.009563,0.676161 1,0 v -5 C 10.004417,10.217734 9.7744537,9.9877707 9.4921875,9.9921875 Z m 2.0000005,0 C 11.216043,9.9964959 10.995679,10.223855 11,10.5 v 5 c -0.0096,0.676161 1.009563,0.676161 1,0 v -5 C 12.0044,10.217734 11.774453,9.987771 11.492188,9.9921875 Z m 2,0 C 13.216043,9.9964959 12.995679,10.223855 13,10.5 v 5 c -0.0096,0.676161 1.009563,0.676161 1,0 v -5 C 14.0044,10.217734 13.774453,9.987771 13.492188,9.9921875 Z"/>
  </g>
 </g>
 <g id="edit-delete">
  <path  style="opacity:0.001" d="M 0,0 V 32.000001 H 32.000001 V 0 Z"/>
  <path  style="opacity:1;fill:#232627" d="M 14.591797 4 C 13.739489 4 13 4.669 13 5.5 L 13 7 L 8.5390625 7 C 7.6867548 7 7 7.669 7 8.5 L 7 9.5 C 7 10.330998 7.4590395 11 9 11 L 9 16 L 9 25 C 9 26.662 9.9106197 28 11.615234 28 L 21.384766 28 C 23.089384 28 23.914882 26.659819 24 25 L 24 16 L 24 13 L 24 11 C 25.523213 11 26 10.330998 26 9.5 L 26 8.5 C 26 7.669 25.313244 7 24.460938 7 L 20 7 L 20 5.5 C 20 4.669 19.260512 4 18.408203 4 L 14.591797 4 z M 14.591797 5 L 18.408203 5 C 18.737226 5 19 5.2626005 19 5.5 L 19 7 L 14 7 L 14 5.5 C 14 5.2626005 14.262774 5 14.591797 5 z M 10 11 L 23 11 L 23 13 L 23 16 L 23 24.955078 C 22.96415 25.630015 22.772769 26.177617 22.515625 26.501953 C 22.257502 26.827525 21.975005 27 21.384766 27 L 11.615234 27 C 11.024569 27 10.707731 26.815023 10.445312 26.492188 C 10.182893 26.169352 10 25.648335 10 25 L 10 16 L 10 11 z M 13.5 14 C 13.223 14 13 14.223 13 14.5 L 13 23.5 C 13 23.777 13.223 24 13.5 24 C 13.777 24 14 23.777 14 23.5 L 14 14.5 C 14 14.223 13.777 14 13.5 14 z M 16.5 14 C 16.223 14 16 14.223 16 14.5 L 16 23.5 C 16 23.777 16.223 24 16.5 24 C 16.777 24 17 23.777 17 23.5 L 17 14.5 C 17 14.223 16.777 14 16.5 14 z M 19.5 14 C 19.223 14 19 14.223 19 14.5 L 19 23.5 C 19 23.777 19.223 24 19.5 24 C 19.777 24 20 23.777 20 23.5 L 20 14.5 C 20 14.223 19.777 14 19.5 14 z"/>
 </g>
</svg>
