<?xml version="1.0" encoding="UTF-8" standalone="no"?>
<svg
   xmlns:dc="http://purl.org/dc/elements/1.1/"
   xmlns:cc="http://creativecommons.org/ns#"
   xmlns:rdf="http://www.w3.org/1999/02/22-rdf-syntax-ns#"
   xmlns:svg="http://www.w3.org/2000/svg"
   xmlns="http://www.w3.org/2000/svg"
   id="svg36"
   viewBox="0 0 22 22"
   version="1.1"
   height="22"
   width="22">
  <metadata
     id="metadata40">
    <rdf:RDF>
      <cc:Work
         rdf:about="">
        <dc:format>image/svg+xml</dc:format>
        <dc:type
           rdf:resource="http://purl.org/dc/dcmitype/StillImage" />
        <dc:title></dc:title>
      </cc:Work>
    </rdf:RDF>
  </metadata>
  <defs
     id="defs3">
    <style
       type="text/css"
       id="current-color-scheme">.ColorScheme-Text {
        color:#31363b;
      }
      .ColorScheme-Background {
        color:#eff0f1;
      }
      .ColorScheme-Highlight {
        color:#3daee9;
      }
      .ColorScheme-ViewText {
        color:#31363b;
      }
      .ColorScheme-ViewBackground {
        color:#fcfcfc;
      }
      .ColorScheme-ViewHover {
        color:#93cee9;
      }
      .ColorScheme-ViewFocus{
        color:#3daee9;
      }
      .ColorScheme-ButtonText {
        color:#31363b;
      }
      .ColorScheme-ButtonBackground {
        color:#eff0f1;
      }
      .ColorScheme-ButtonHover {
        color:#93cee9;
      }
      .ColorScheme-ButtonFocus{
        color:#3daee9;
      }</style>
  </defs>
  <g
     transform="translate(-326,-534.36)"
     id="go-home">
    <rect
       id="rect5"
       fill="none"
       height="22"
       width="22"
       y="534.36"
       x="326" />
    <path
       id="path7"
       fill="currentColor"
       d="m337 537.36-8 8 0.70703 0.70703 0.29297-0.29297v7.5859h14v-7.5859l0.29297 0.29297 0.70703-0.70703-3-3v-3h-3zm0 1.4141 6 6v7.5859h-4v-5h-4v5h-4v-7.5859z"
       class="ColorScheme-Text" />
  </g>
  <g
     transform="translate(-326,-534.36)"
     id="go-down">
    <rect
       id="rect10"
       fill="none"
       height="22"
       width="22"
       y="534.36"
       x="414" />
    <g
       id="g14"
       transform="translate(414,-496)">
      <path
         id="path12"
         fill="currentColor"
         d="m3.707 7-0.70703 0.70703 8 8 8-8-0.70703-0.70703-7.293 7.293-7.293-7.293z"
         transform="translate(-5e-7,1030.4)"
         class="ColorScheme-Text" />
    </g>
  </g>
  <g
     transform="translate(-326,-534.36)"
     id="go-next">
    <rect
       id="rect17"
       fill="none"
       height="22"
       width="22"
       y="534.36"
       x="370" />
    <g
       id="g21"
       transform="translate(370,-496)">
      <path
         id="path19"
         fill="currentColor"
         d="m7.707 3-0.70703 0.70703 7.293 7.293-7.293 7.293 0.70703 0.70703 8-8-8-8z"
         transform="translate(-5e-7,1030.4)"
         class="ColorScheme-Text" />
    </g>
  </g>
  <g
     transform="translate(-326,-534.36)"
     id="go-previous">
    <rect
       id="rect24"
       fill="none"
       height="22"
       width="22"
       y="534.36"
       x="348" />
    <g
       id="g28"
       transform="translate(348,-496)">
      <path
         id="path26"
         fill="currentColor"
         d="m14.293 3-8 8 8 8 0.70703-0.70703-7.293-7.293 7.293-7.293-0.70703-0.70703z"
         transform="translate(-5e-7,1030.4)"
         class="ColorScheme-Text" />
    </g>
  </g>
  <g
     transform="translate(-326,-534.36)"
     id="go-up">
    <rect
       id="rect31"
       fill="none"
       height="22"
       width="22"
       y="534.36"
       x="392" />
    <path
       id="path33"
       fill-rule="evenodd"
       fill="currentColor"
       d="m403 543.36-5 4h10z"
       class="ColorScheme-Text" />
  </g>
</svg>
