<svg xmlns="http://www.w3.org/2000/svg" width="32" height="32" version="1.1">
 <g id="22-22-image-x-generic" transform="translate(32,10)">
  <rect  style="opacity:0.001" width="22" height="22" x="0" y="0"/>
  <path  style="opacity:1;fill:#232627" d="m 4,4.0000001 c -1.108,0 -2,0.892 -2,2 V 16 c 0,1.108 0.892,2 2,2 h 14 c 1.108,0 2,-0.892 2,-2 V 6.0000001 c 0,-1.108 -0.892,-2 -2,-2 z m 0,1 h 14 c 0.5713,0 1,0.4287 1,1 V 11.574219 L 16.371094,8.6660157 c -0.10211,-0.11314 -0.250234,-0.1735425 -0.402344,-0.1640625 -0.12143,0.007 -0.235996,0.058801 -0.322266,0.1445313 L 10.953125,13.339844 7.300781,10.601562 C 7.126001,10.470514 6.886384,10.46627 6.708984,10.593752 L 3,13.259768 V 6.0000001 c 0,-0.5713 0.4287,-1 1,-1 z m 3,1 a 2,2 0 0 0 -2,2 A 2,2 0 0 0 7,10 2,2 0 0 0 9,8.0000001 a 2,2 0 0 0 -2,-2 z m 0,1 a 1,1 0 0 1 1,1 1,1 0 0 1 -1,1 1,1 0 0 1 -1,-1 1,1 0 0 1 1,-1 z"/>
 </g>
 <g id="image-x-generic">
  <rect  style="opacity:0.001" width="32" height="32" x="0" y="0"/>
  <path  style="opacity:1;fill:#232627" d="M 5.8886719 6 C 4.2882275 6 3 7.2745647 3 8.8574219 L 3 23.142578 C 3 24.725435 4.2882275 26 5.8886719 26 L 26.111328 26 C 27.711772 26 29 24.725435 29 23.142578 L 29 8.8574219 C 29 7.2745647 27.711772 6 26.111328 6 L 5.8886719 6 z M 5.8886719 7 L 26.111328 7 C 27.180851 7 28 7.8171396 28 8.8574219 L 28 16.658203 L 23.757812 12.265625 C 23.610319 12.103997 23.397448 12.017707 23.177734 12.03125 C 23.002335 12.04125 22.835551 12.115819 22.710938 12.238281 L 15.931641 19.142578 L 10.65625 15.205078 C 10.40379 15.017868 10.058979 15.013199 9.8027344 15.195312 L 4 19.123047 L 4 8.8574219 C 4 7.8171394 4.8191486 7 5.8886719 7 z M 10 8 A 3 3 0 0 0 7 11 A 3 3 0 0 0 10 14 A 3 3 0 0 0 13 11 A 3 3 0 0 0 10 8 z M 10 9 A 2 2 0 0 1 12 11 A 2 2 0 0 1 10 13 A 2 2 0 0 1 8 11 A 2 2 0 0 1 10 9 z"/>
 </g>
</svg>
