<svg xmlns="http://www.w3.org/2000/svg" width="32" height="32" version="1">
 <g id="22-22-internet-web-browser" transform="translate(32.000001,10.000001)">
  <rect  style="opacity:0.001" width="22" height="22" x="0" y="0"/>
  <path  style="opacity:1;fill:#232627" d="m 11.001324,2.9999999 c -2.9246157,3.4e-4 -5.804895,1.6931117 -7.1031118,4.335929 -1.3173381,2.4511565 -1.1654201,5.5662991 0.3227187,7.9061661 1.7678809,2.889856 5.4973005,4.401956 8.7740231,3.496087 2.912142,-0.698751 5.23253,-3.202809 5.821775,-6.122483 0.516443,-2.24914 -0.08333,-4.6780639 -1.487322,-6.4959369 C 15.8576,4.176543 13.433927,2.9919266 10.997263,3.0030991 m 0,0.9993449 c 1.138278,0.00647 2.265193,0.3068228 3.281119,0.8133924 -0.514953,0.1690753 0.24179,0.661183 -0.144188,0.9205447 0.399882,0.2611008 0.934358,-0.2393778 0.381005,-0.4998974 -0.488731,-0.7715426 1.24912,0.2286964 0.347781,0.5037898 -0.306948,0.2789428 -1.055162,0.1677651 -0.445986,0.6748671 0.04914,0.4924445 -1.066826,-0.098973 -0.927166,0.711532 0.05393,0.3645332 0.203838,0.4877224 -0.337317,0.8150033 -0.426785,0.5921707 -1.223001,1.0829288 -1.090407,1.9795805 -0.214307,0.7090646 0.54316,1.0738696 1.153792,1.2266636 0.632948,-0.04161 2.14076,-0.45221 2.400025,0.340161 -0.269321,0.701412 1.179458,1.396518 0.567569,2.093073 -0.397132,0.651812 0.07816,0.878122 -0.04898,1.548846 0.489629,0.70474 -1.270699,1.737658 -1.80704,2.052693 -1.619521,0.951273 -3.695961,1.075535 -5.4779214,0.460568 -0.7004135,-0.424546 0.1576271,-0.757423 0.3788152,-0.971543 -0.306194,-0.584756 0.1712306,-0.230886 0.1758524,-0.851852 0.00634,-0.939154 1.2529798,-0.785718 1.1646888,-1.761878 0.02609,-0.58187 0.93113,-1.374249 -0.06929,-1.610359 C 9.7517442,12.305073 9.140797,12.352327 8.7490949,11.705121 8.0677437,11.614507 8.059692,10.897585 7.2626756,11.026991 6.700232,10.692173 5.9338316,11.878746 5.5906883,11.026534 5.719991,10.590035 5.4650948,9.9055759 5.0855931,9.9934246 5.2674983,9.6663708 5.2653531,9.0212494 4.8443655,9.5474161 4.1604179,10.15373 4.0033812,9.126826 4.352048,8.689152 4.7912549,8.1165504 5.8495423,8.1521703 6.2043648,8.6674715 6.1683224,7.8331245 7.0666425,7.7097204 7.4572391,7.0674953 7.9010903,6.8388338 8.3551397,6.3133823 8.7855055,6.5594695 9.0849018,6.5157412 9.3975301,6.1726208 8.9061157,6.3483452 8.6706724,6.233474 9.1379655,5.8378422 8.7180954,5.941649 9.0686348,5.8512819 9.4360949,5.7851747 9.7902065,5.7708611 9.0137368,6.23039 10.667995,6.3784855 9.9757757,5.8699991 10.18279,5.3371598 9.7821165,5.1863984 9.6449766,4.737068 9.2675869,4.7519662 9.2340352,4.8742547 9.0243319,4.4975259 8.2836284,4.0732944 9.7376648,4.6183572 9.8383432,4.2487547 10.123647,3.9320398 10.620427,4.0396559 11.001224,4.0047434 M 8.5011404,4.4734238 C 8.3365422,5.0398238 7.8562771,5.450282 7.4774994,5.6270534 7.3712248,5.3122673 7.5079732,5.2221967 7.1821303,5.1480351 7.5477485,4.8158964 8.0591185,4.6847565 8.4981199,4.4734238 m 5.3751871,0.7493087 c -0.604893,0.1712409 0.05071,0.7193316 0.179907,0.1188981 0.0016,-0.091138 -0.107439,-0.1286005 -0.180897,-0.1179983 m 2.125103,1.1541074 c 0.512518,0.2609442 1.379796,1.2697367 1.132056,1.614083 C 16.689065,7.8846419 16.836634,8.4529529 16.347369,8.1065903 15.691339,8.005546 15.685735,7.0483722 14.888437,7.4449378 14.603171,7.6456004 13.470226,7.7228588 14.319121,7.3884708 14.690662,6.9862368 15.265988,6.2571738 15.914189,6.7614871 16.108692,6.9874928 16.494997,7.43738 16.51593,6.9599963 16.369267,6.8245141 15.72135,6.6422525 16.00047,6.3745385 M 4.2831199,9.9978136 c 0.637523,0.1936344 1.0697189,1.3360864 1.6236185,1.4425844 0.7386818,-0.222783 0.071593,1.003674 -0.086652,1.313067 0.1425608,0.765758 0.6511595,1.106931 1.3332994,1.511698 0.3693366,0.844647 0.1575757,1.831434 0.3264523,2.719747 C 6.60784,16.583211 5.831854,15.765881 5.2490279,14.964905 4.3458172,13.68479 3.9145606,12.081476 4.0194418,10.523332 4.0732684,10.350486 4.0685997,10.045991 4.2871505,9.9983136"/>
 </g>
 <g id="internet-web-browser">
  <rect  style="opacity:0.001" width="32" height="32" x="0" y="0"/>
  <path  style="opacity:1;fill:#232627" d="M 16 4 A 12 12 0 0 0 4 16 A 12 12 0 0 0 16 28 A 12 12 0 0 0 28 16 A 12 12 0 0 0 16 4 z M 16 5 A 11 11 0 0 1 20.792969 6.1152344 C 20.484854 6.4317429 21.289799 7.0404472 20.783203 7.3808594 C 21.383026 7.7725106 22.1855 7.0216388 21.355469 6.6308594 C 21.241339 6.4506866 21.211663 6.3600754 21.228516 6.3242188 A 11 11 0 0 1 21.574219 6.5292969 C 22.014214 6.955003 22.613017 7.8616409 21.794922 8.1113281 C 21.3345 8.5297423 20.211237 8.3623939 21.125 9.1230469 C 21.19871 9.8617138 19.524884 8.9736954 19.734375 10.189453 C 19.815265 10.736253 20.040248 10.921187 19.228516 11.412109 C 18.588338 12.300365 16.894859 13.037835 17.09375 14.382812 C 16.77229 15.446409 17.908271 15.993465 18.824219 16.222656 C 19.773641 16.160246 22.53493 15.543865 22.923828 16.732422 C 22.519846 17.784539 24.693224 18.826262 23.775391 19.871094 C 23.179692 20.848813 23.891881 21.189227 23.701172 22.195312 C 24.123967 22.803857 23.516726 23.816951 22.775391 24.662109 A 11 11 0 0 1 16 27 A 11 11 0 0 1 12.542969 26.431641 C 11.987339 25.883371 13.043098 25.449312 13.341797 25.160156 C 12.882506 24.283022 13.598537 24.81426 13.605469 23.882812 C 13.614969 22.474082 15.485952 22.052131 15.353516 20.587891 C 15.392656 19.715087 16.75063 18.52604 15.25 18.171875 C 14.12819 17.958042 13.2106 18.029404 12.623047 17.058594 C 11.601023 16.922673 11.590056 15.846907 10.394531 16.041016 C 9.7617821 15.664345 8.6675403 16.544103 7.9433594 16.46875 C 8.0881699 16.561008 8.2287931 16.635049 8.359375 16.660156 C 9.4673975 16.325982 8.4678363 18.16677 8.2304688 18.630859 C 8.4443101 19.779496 9.2072591 20.291287 10.230469 20.898438 C 10.763889 22.118333 10.450584 24.261752 10.652344 25.609375 A 11 11 0 0 1 5 16 A 11 11 0 0 1 5.0449219 15.117188 C 5.1014768 14.855562 5.132905 14.513359 5.4179688 14.451172 C 6.038573 14.643114 6.7387274 15.42966 7.3847656 16.015625 C 7.3812797 16.007472 7.376434 16.002553 7.3730469 15.994141 C 7.567001 15.339394 7.1844869 14.311586 6.6152344 14.443359 C 6.8880921 13.952778 6.8853876 12.986141 6.2539062 13.775391 C 5.2279849 14.684861 5.5043436 13.189714 6.0273438 12.533203 C 6.6861543 11.674301 8.2744068 11.729001 8.8066406 12.501953 C 8.7525766 11.250433 10.099652 11.064901 10.685547 10.101562 C 11.351323 9.758571 12.032186 8.9707129 12.677734 9.3398438 C 13.126829 9.2742517 13.596496 8.759851 12.859375 9.0234375 C 12.50621 8.8511308 13.205978 8.2563992 12.576172 8.4121094 C 13.101982 8.2765588 13.654379 8.1777204 14.185547 8.15625 C 13.020842 8.8455434 15.50122 9.0674171 14.462891 8.3046875 C 14.773412 7.5054286 14.172508 7.2794644 13.966797 6.6054688 C 13.400713 6.6278157 13.351664 6.0123587 13.037109 5.4472656 C 13.016051 5.4352049 13.014823 5.4309573 12.996094 5.4199219 A 11 11 0 0 1 13.669922 5.2636719 C 13.906449 5.2716497 14.122014 5.2591129 14.214844 5.1503906 A 11 11 0 0 1 16 5 z M 7.3847656 16.015625 C 7.5137126 16.3172 7.7083198 16.444294 7.9433594 16.46875 C 7.7660019 16.355757 7.5765401 16.189567 7.3847656 16.015625 z M 12.25 5.6699219 L 12.251953 6.2109375 C 12.005056 7.0605374 11.284965 7.6762493 10.716797 7.9414062 C 10.580568 7.5378933 10.705755 6.7999312 10.441406 6.5234375 A 11 11 0 0 1 12.25 5.6699219 z M 20.390625 6.6113281 C 19.488627 6.8691818 20.468529 7.6886851 20.662109 6.7890625 C 20.664509 6.6523554 20.500812 6.5954248 20.390625 6.6113281 z M 24.056641 8.7753906 C 24.296577 8.8981848 24.570242 9.1638316 24.833984 9.4667969 A 11 11 0 0 1 25.621094 10.691406 C 25.732458 10.984647 25.768978 11.243274 25.660156 11.394531 C 24.999539 11.233759 24.755381 12.179701 24.021484 11.660156 C 23.037439 11.50859 23.027977 10.07312 21.832031 10.667969 C 21.404132 10.968963 19.705174 11.083613 20.978516 10.582031 C 21.535827 9.9786802 22.957385 8.5931395 23.929688 9.3496094 C 24.221442 9.6886178 24.802585 10.36256 24.833984 9.6464844 C 24.615108 9.4442894 23.654083 9.1736286 24.056641 8.7753906 z"/>
 </g>
</svg>
