<svg xmlns="http://www.w3.org/2000/svg" width="32" height="32" version="1">
 <g id="22-22-kate" transform="translate(27,5)">
  <rect  style="opacity:0.001" width="22" height="22" x="5" y="5"/>
  <path  style="opacity:1;fill:#232627" d="m 16,8 a 8,8 0 0 0 -8,8 8,8 0 0 0 8,8 8,8 0 0 0 8,-8 8,8 0 0 0 -8,-8 z m 0,1 a 7,7 0 0 1 7,7 7,7 0 0 1 -7,7 7,7 0 0 1 -7,-7 7,7 0 0 1 7,-7 z m -0.507812,2.001953 c -0.737456,0.02416 -1.568266,0.250458 -2.376954,0.830078 -0.839571,0.601755 -1.207982,1.067559 -1.615234,1.267578 0.357035,0.02696 2.459228,-0.565665 2.892578,0.626953 -1.521044,0.498762 -2.529126,1.303958 -2.355469,2.242188 0.0076,0.04803 0.01727,0.09726 0.0293,0.146484 0.0015,0.0058 0.0043,0.01177 0.0059,0.01758 0.03363,0.132055 0.07905,0.265986 0.146484,0.40625 0.09774,0.203304 0.2106,0.375426 0.333984,0.527344 0.0012,0.0014 0.0028,0.0024 0.0039,0.0039 0.713199,0.874149 2.22473,1.018272 3.427734,1.814454 C 17.087822,19.615066 17.454,19.987704 18.166016,21 18.017953,19.601324 17.237773,17.798148 16.917969,17.003906 L 16.916016,17 c 1.000461,0.726953 2.186392,1.043657 3.583984,1.142578 -2.233548,-1.573109 -2.657085,-1.945222 -3.935547,-3.023437 -0.857707,0.04277 -0.763744,0.0338 -1.269531,0.0625 0.665866,0.929685 0.928334,2.296292 -0.289063,2.546875 -1.13955,0.234559 -2.783092,-0.738864 -2.470703,-1.78125 0.339223,-1.131909 2.348663,-0.914981 3.884766,-1.111328 1.536105,-0.196349 2.939014,-1.78736 3.783203,-2.890626 -1.213174,0.409552 -2.763122,0.892569 -4.486328,1.386719 -0.337388,-0.680099 -0.681486,-1.860029 1.585937,-1.945312 -0.08526,-0.04661 -0.1802,-0.08688 -0.277343,-0.123047 -0.409267,-0.165503 -0.93712,-0.281244 -1.533203,-0.261719 z"/>
 </g>
 <g id="kate">
  <rect  style="opacity:0.001" width="32" height="32" x="0" y="0"/>
  <path  style="opacity:1;fill:#232627" d="M 16,4 A 12,12 0 0 0 4,16 12,12 0 0 0 16,28 12,12 0 0 0 28,16 12,12 0 0 0 16,4 Z m 0,1 A 11,11 0 0 1 27,16 11,11 0 0 1 16,27 11,11 0 0 1 5,16 11,11 0 0 1 16,5 Z M 15.210938,8.0039062 C 14.0638,8.0425582 12.769665,8.4046423 11.511719,9.3320312 10.205734,10.294839 9.6334962,10.758094 9,11.078125 c 0.5553825,0.04312 3.82591,-0.623033 4.5,1.285156 -2.366044,0.798016 -3.7115373,2.086725 -3.441406,3.587891 0.01177,0.07687 0.02618,0.153662 0.04492,0.232422 0.0024,0.0093 0.0053,0.01998 0.0078,0.0293 0.05231,0.211286 0.123628,0.425967 0.228516,0.65039 0.15203,0.325286 0.327602,0.600682 0.519531,0.84375 0.0018,0.0023 0.0041,0.0036 0.0059,0.0059 1.109408,1.398635 2.939229,1.628451 4.810547,2.902343 1.716455,1.16848 2.285007,1.765093 3.392578,3.384766 -0.230319,-2.23788 -1.143157,-5.121793 -1.640625,-6.392578 l -0.002,-0.0078 c 1.556256,1.163124 3.400211,1.271416 5.574219,1.429688 -3.474402,-2.516971 -4.132401,-2.714309 -6.121094,-4.439453 -1.334197,0.06844 -1.189788,0.05565 -1.976562,0.101562 1.035782,1.487494 1.44644,3.671331 -0.447266,4.072266 -1.772614,0.375293 -4.10703,-1.179839 -3.621094,-2.847656 0.527672,-1.811052 3.430843,-1.463188 5.820313,-1.777344 2.389469,-0.314158 4.571598,-2.69962 5.884765,-4.4648439 C 20.651936,10.329106 18.239108,10.941783 15.558594,11.732422 15.033773,10.644255 14.498328,8.7555919 18.025391,8.6191406 17.89273,8.544565 17.746812,8.4797388 17.595703,8.421875 16.959072,8.157071 16.138169,7.9726658 15.210938,8.0039062 Z"/>
 </g>
</svg>
