<svg xmlns="http://www.w3.org/2000/svg" width="32" height="32" version="1.1">
 <g id="22-22-onboard" transform="translate(32,10)">
  <rect  style="opacity:0.001" width="22" height="22" x="0" y="0"/>
  <path  style="opacity:1;fill:#232627" d="M 5.2851564,3 C 4.0188704,3 3.0000002,4.018866 3.0000002,5.285156 V 16.714844 C 3.0000002,17.981134 4.0188714,19 5.2851564,19 H 16.714844 C 17.981129,19 19,17.981134 19,16.714844 V 5.285156 C 19,4.018866 17.981129,3 16.714844,3 Z M 11,4 h 5.714844 C 17.44472,4 18,4.555274 18,5.285156 V 11 h -7 v 7 H 5.2851564 C 4.5552805,18 4.0000002,17.444726 4.0000002,16.714844 V 11 H 11 Z M 7.5019533,5 C 8.2832793,5 8.8932725,5.222655 9.3359377,5.666015 9.7788027,6.109265 10,6.71889 10,7.5 10,8.27903 9.7788027,8.890734 9.3359377,9.333984 8.8932725,9.777044 8.2832793,10 7.5019533,10 6.7227313,10 6.1090317,9.777044 5.6640627,9.333984 5.2212977,8.890734 5.0000002,8.27903 5.0000002,7.5 c 0,-0.78111 0.2212975,-1.390735 0.6640625,-1.833985 C 6.1090317,5.222655 6.7227313,5 7.5019533,5 Z m 0,0.90039 c -0.382046,0 -0.6781608,0.140182 -0.8886719,0.419922 C 6.4026706,6.600052 6.2949221,6.99217 6.2949221,7.5 c 0,0.50574 0.1077485,0.899947 0.3183593,1.179687 0.2105113,0.27974 0.5066259,0.419922 0.8886719,0.419922 0.38415,0 0.680114,-0.140182 0.890625,-0.419922 C 8.6030893,8.399947 8.7089846,8.00574 8.7089846,7.5 8.7089846,6.99217 8.6030893,6.600052 8.3925783,6.320312 8.1820673,6.040572 7.8861033,5.90039 7.5019533,5.90039 Z M 13,12 h 1.880859 c 0.674989,0 1.163403,0.104213 1.464844,0.314453 0.304446,0.21024 0.455078,0.545073 0.455078,1.007813 0,0.24322 -0.05485,0.45289 -0.166015,0.625 -0.110161,0.17004 -0.272114,0.294503 -0.482422,0.376953 0.269395,0.0804 0.479738,0.228892 0.626953,0.445312 C 16.92651,14.985961 17,15.252066 17,15.566406 c 0,0.48231 -0.158146,0.844078 -0.474609,1.080078 C 16.208927,16.883524 15.726024,17 15.080078,17 H 13 Z m 1.253906,0.876953 v 1.058594 h 0.691406 c 0.197297,0 0.347069,-0.0451 0.449219,-0.134766 0.102147,-0.0886 0.154297,-0.220361 0.154297,-0.394531 0,-0.17211 -0.05215,-0.303948 -0.154297,-0.392578 -0.10215,-0.0917 -0.251923,-0.136719 -0.449219,-0.136719 z m -0.002,1.9375 v 1.308594 h 0.734375 c 0.251368,0 0.44317,-0.05479 0.56836,-0.164063 0.128185,-0.10924 0.191406,-0.275543 0.191406,-0.496093 0,-0.21642 -0.06131,-0.379135 -0.1875,-0.486329 -0.126184,-0.109236 -0.318895,-0.162109 -0.572266,-0.162109 z"/>
 </g>
 <g id="onboard">
  <rect  style="opacity:0.001" width="32" height="32" x="0" y="0"/>
  <path  style="opacity:1;fill:#232627" d="M 7.4277344 4 C 5.5283053 4 4 5.5282994 4 7.4277344 L 4 24.572266 C 4 26.471702 5.5283067 28 7.4277344 28 L 24.572266 28 C 26.471693 28 28 26.471702 28 24.572266 L 28 7.4277344 C 28 5.5282994 26.471693 4 24.572266 4 L 7.4277344 4 z M 16 5 L 24.572266 5 C 25.935286 5 27 6.064707 27 7.4277344 L 27 16 L 16 16 L 16 27 L 7.4277344 27 C 6.0647132 27 5 25.935294 5 24.572266 L 5 16 L 16 16 L 16 5 z M 10.003906 6 C 11.254029 6 12.229235 6.3570303 12.9375 7.0664062 C 13.646083 7.7756064 14 8.7502242 14 10 C 14 11.246448 13.646083 12.224394 12.9375 12.933594 C 12.229235 13.64249 11.254029 14 10.003906 14 C 8.7571527 14 7.7744504 13.64249 7.0625 12.933594 C 6.354076 12.224394 6 11.246448 6 10 C 6 8.7502242 6.354076 7.7756064 7.0625 7.0664062 C 7.7744504 6.3570303 8.7571527 6 10.003906 6 z M 10 7.5 C 9.3669673 7.5 8.8761512 7.7190494 8.5273438 8.15625 C 8.1783703 8.5934504 8 9.2063216 8 10 C 8 10.790412 8.1783703 11.406548 8.5273438 11.84375 C 8.8761523 12.280949 9.3669673 12.5 10 12.5 C 10.636522 12.5 11.127758 12.280949 11.476562 11.84375 C 11.825373 11.406548 12 10.790412 12 10 C 12 9.2063216 11.825374 8.5934504 11.476562 8.15625 C 11.127756 7.7190494 10.636522 7.5 10 7.5 z M 19 18 L 22.056641 18 C 23.153499 18 23.846094 18.167523 24.335938 18.503906 C 24.830659 18.840291 25.076172 19.374852 25.076172 20.115234 C 25.076172 20.504387 24.987285 20.839858 24.806641 21.115234 C 24.62763 21.387298 24.363234 21.586832 24.021484 21.71875 C 24.459251 21.847392 24.801791 22.085369 25.041016 22.431641 C 25.280236 22.777929 25.400391 23.204086 25.400391 23.707031 C 25.400391 24.478727 25.143157 25.055996 24.628906 25.433594 C 24.114652 25.812859 23.43052 26 22.380859 26 L 19 26 L 19 18 z M 21 19.5 L 21 21 L 22.068359 21 C 22.373084 21 22.603948 20.935643 22.761719 20.808594 C 22.919483 20.68305 23 20.496793 23 20.25 C 23 20.006124 22.919478 19.818945 22.761719 19.693359 C 22.603948 19.563422 22.373082 19.5 22.068359 19.5 L 21 19.5 z M 21 22.5 L 21 24.5 L 22.228516 24.5 C 22.649106 24.5 22.970219 24.417016 23.179688 24.25 C 23.394167 24.083043 23.5 23.827314 23.5 23.490234 C 23.5 23.159468 23.396687 22.911878 23.185547 22.748047 C 22.974416 22.581095 22.652456 22.5 22.228516 22.5 L 21 22.5 z"/>
 </g>
</svg>
