<svg xmlns="http://www.w3.org/2000/svg" width="32" height="32" version="1.1">
 <g id="qbittorrent-tray">
  <rect  style="opacity:0.001" width="32" height="32" x="0" y="0"/>
  <path  style="opacity:1;fill:#232627" d="M 16 4 A 12 12 0 0 0 4 16 A 12 12 0 0 0 16 28 A 12 12 0 0 0 28 16 A 12 12 0 0 0 16 4 z M 16 5 A 11 11 0 0 1 27 16 A 11 11 0 0 1 16 27 A 11 11 0 0 1 5 16 A 11 11 0 0 1 16 5 z M 17 8 L 17 16.5 L 17 20 L 17 21 L 18 21 L 18 20 L 20.5 20 C 22.432997 20 24 18.432997 24 16.5 C 24 14.567003 22.432997 13 20.5 13 C 19.519013 13 18.635483 13.406451 18 14.056641 L 18 8.4003906 L 17 8 z M 14 12 L 14 13 L 11.5 13 C 9.5670034 13 8 14.567003 8 16.5 C 8 18.432997 9.5670034 20 11.5 20 C 12.480987 20 13.364517 19.593549 14 18.943359 L 14 24.599609 L 15 25 L 15 16.5 L 15 13 L 15 12 L 14 12 z M 11.5 14 L 14 14 L 14 16.5 C 14 17.892557 12.892557 19 11.5 19 C 10.107443 19 9 17.892557 9 16.5 C 9 15.107443 10.107443 14 11.5 14 z M 20.5 14 C 21.892557 14 23 15.107443 23 16.5 C 23 17.892557 21.892557 19 20.5 19 L 18 19 L 18 16.5 C 18 15.107443 19.107443 14 20.5 14 z"/>
 </g>
 <g id="22-22-qbittorrent-tray" transform="translate(32.000001,10.000001)">
  <rect  style="opacity:0.001" width="22" height="22" x="0" y="0"/>
  <path  style="opacity:1;fill:#232627" d="m 11,3 c -4.418278,0 -8,3.581722 -8,8 0,4.418278 3.581722,8 8,8 4.418278,0 8,-3.581722 8,-8 0,-4.418278 -3.581722,-8 -8,-8 z m 0,1 a 7,7 0 0 1 2,0.2988281 v -0.00391 c 0.01963,0.00585 0.03709,0.015471 0.05664,0.021484 A 7,7 0 0 1 14,4.6835938 c 0.03081,0.014613 0.06321,0.02598 0.09375,0.041016 a 7,7 0 0 1 0.880859,0.5234375 c 0.04049,0.027975 0.07931,0.057157 0.119141,0.085937 a 7,7 0 0 1 0.791016,0.6542968 7,7 0 0 1 0.666015,0.7597657 c 0.03342,0.043601 0.06722,0.086486 0.09961,0.1308593 a 7,7 0 0 1 0.529297,0.8417969 c 0.01943,0.036539 0.0359,0.074428 0.05469,0.1113281 a 7,7 0 0 1 0.361328,0.8476563 c 0.01664,0.047195 0.03513,0.09301 0.05078,0.140625 a 7,7 0 0 1 0.240235,0.9648437 c 0.01089,0.061658 0.02004,0.1234152 0.0293,0.1855469 A 7,7 0 0 1 18,11 7,7 0 0 1 17.96875,11.613281 c -0.0097,0.111262 -0.02618,0.220369 -0.04102,0.330078 A 7,7 0 0 1 17.875,12.291016 c -0.02599,0.139134 -0.05771,0.276003 -0.0918,0.412109 a 7,7 0 0 1 -0.06055,0.236328 c -0.04394,0.152554 -0.09654,0.301135 -0.15039,0.449219 a 7,7 0 0 1 -0.07813,0.214844 c -0.05256,0.130968 -0.111768,0.25785 -0.171875,0.384765 a 7,7 0 0 1 -0.126954,0.259766 c -0.06258,0.119115 -0.130095,0.234667 -0.199218,0.349609 a 7,7 0 0 1 -0.142578,0.234375 c -0.08574,0.130712 -0.177423,0.256432 -0.271485,0.38086 a 7,7 0 0 1 -0.128906,0.171875 c -0.08867,0.110129 -0.184243,0.213859 -0.279297,0.318359 a 7,7 0 0 1 -0.193359,0.212891 c -0.09872,0.100001 -0.204046,0.193167 -0.308594,0.287109 a 7,7 0 0 1 -0.181641,0.164063 c -0.133884,0.112136 -0.273895,0.21633 -0.416015,0.318359 a 7,7 0 0 1 -0.134766,0.09961 c -0.183571,0.125246 -0.374775,0.239993 -0.570312,0.347656 a 7,7 0 0 1 -0.01367,0.0098 c -0.203894,0.111626 -0.413327,0.213409 -0.628907,0.304688 -8.04e-4,3.4e-4 -0.0011,0.0016 -0.002,0.002 -0.418734,0.177109 -0.85877,0.314957 -1.314453,0.408203 a 7,7 0 0 1 -0.01953,0.0039 c -0.221617,0.0447 -0.447119,0.07834 -0.675781,0.101563 a 7,7 0 0 1 -0.0039,0 A 7,7 0 0 1 11,18 7,7 0 0 1 9,17.701172 v 0.0039 c -0.019629,-0.0059 -0.037094,-0.01547 -0.056641,-0.02148 A 7,7 0 0 1 8,17.316406 C 7.969193,17.301796 7.936785,17.290426 7.90625,17.275386 A 7,7 0 0 1 7.0253906,16.751953 C 6.9849015,16.723979 6.9460781,16.694796 6.90625,16.666016 A 7,7 0 0 1 6.1152344,16.011719 7,7 0 0 1 5.4492188,15.251953 c -0.033419,-0.0436 -0.067223,-0.08649 -0.099609,-0.130859 A 7,7 0 0 1 4.8203125,14.279297 c -0.019426,-0.03654 -0.035901,-0.07443 -0.054687,-0.111328 A 7,7 0 0 1 4.4042969,13.320312 c -0.016642,-0.04719 -0.035134,-0.09301 -0.050781,-0.140624 A 7,7 0 0 1 4.1132812,12.214844 c -0.010888,-0.06166 -0.020043,-0.123415 -0.029297,-0.185547 A 7,7 0 0 1 4,11 7,7 0 0 1 4.03125,10.386719 C 4.04094,10.275457 4.057434,10.16635 4.072266,10.056641 A 7,7 0 0 1 4.125,9.7089844 C 4.1509899,9.5698499 4.1827064,9.4329807 4.2167969,9.296875 A 7,7 0 0 1 4.2773438,9.0605469 C 4.3212866,8.9079928 4.3738867,8.7594117 4.4277344,8.6113281 A 7,7 0 0 1 4.5058594,8.3964844 C 4.558418,8.2655156 4.617627,8.1386339 4.6777344,8.0117188 A 7,7 0 0 1 4.8046875,7.7519531 C 4.8672717,7.6328379 4.9347827,7.5172865 5.0039062,7.4023438 A 7,7 0 0 1 5.1464844,7.1679688 C 5.2322279,7.0372574 5.3239074,6.911537 5.4179688,6.7871094 A 7,7 0 0 1 5.546875,6.6152344 C 5.6355433,6.5051052 5.7311178,6.4013754 5.8261719,6.296875 A 7,7 0 0 1 6.0195312,6.0839844 C 6.1182468,5.9839828 6.2235767,5.8908168 6.328125,5.796875 A 7,7 0 0 1 6.5097656,5.6328125 C 6.6436497,5.5206758 6.7836611,5.4164824 6.9257812,5.3144531 A 7,7 0 0 1 7.0605469,5.2148438 C 7.244118,5.0895984 7.4353216,4.9748508 7.6308594,4.8671875 a 7,7 0 0 1 0.013672,-0.00977 C 7.8484245,4.7457958 8.0578576,4.6440127 8.2734375,4.5527344 a 7,7 0 0 1 0.00195,-0.00195 c 0.4187342,-0.1771096 0.85877,-0.3149568 1.3144532,-0.4082031 0.00322,-6.595e-4 0.00654,-0.0013 0.00977,-0.00195 a 7,7 0 0 1 0.4902343,-0.074219 c 0.06553,-0.00854 0.129228,-0.022586 0.195312,-0.029297 a 7,7 0 0 1 0.0039,0 A 7,7 0 0 1 11,4 Z m 1,1.0898438 V 11.5 15 h 1 v -1 c 0,0 0.958852,-5.63e-4 1.5,0 1.076562,0 1.985852,-0.684372 2.337891,-1.638672 a 6,6 0 0 0 0.146484,-1.02539 C 16.898386,10.03315 15.824551,9 14.5,9 13.958629,9.0011264 13.432251,9.1779563 13,9.5039062 V 5.3515625 A 6,6 0 0 0 12,5.0898438 Z M 9,8 V 9 C 9,9 8.0411484,9.0005633 7.5,9 6.1654487,9 5.0850841,10.048506 5.0136719,11.365234 a 6,6 0 0 0 0.1542969,1.015625 C 5.525125,13.325169 6.4306034,14 7.5,14 8.0413714,13.998874 8.567749,13.822044 9,13.496094 v 3.152344 a 6,6 0 0 0 1,0.261718 V 11.5 8 Z M 7.5,10 H 9 v 1.5 C 9,12.328427 8.3284271,13 7.5,13 6.6715729,13 6,12.328427 6,11.5 6,10.671573 6.6715729,10 7.5,10 Z m 7,0 c 0.828427,0 1.5,0.671573 1.5,1.5 0,0.828427 -0.671573,1.5 -1.5,1.5 H 13 V 11.5 C 13,10.671573 13.671572,10 14.5,10 Z"/>
 </g>
</svg>
