<svg xmlns="http://www.w3.org/2000/svg"  width="32" height="32" version="1.1">
 <g id="22-22-veracrypt" transform="translate(32,10)">
  <rect  style="opacity:0.001" width="22" height="22" x="0" y="0"/>
  <path  style="opacity:0.5;fill:#232627" d="M 4.4941406,2.9941406 A 0.50005,0.50005 0 0 0 4.0214844,3.6445312 l 4.5,14.9999998 a 0.50005,0.50005 0 0 0 0.9570312,0 L 13.978516,3.6445312 A 0.50005,0.50005 0 1 0 13.021484,3.3554688 L 9,16.759766 4.9785156,3.3554688 A 0.50005,0.50005 0 0 0 4.4941406,2.9941406 Z"/>
  <path  style="opacity:1;fill:#232627" d="m 13.5,3 c -0.222217,-2.729e-4 -0.417955,0.1461325 -0.480469,0.359375 l -2.199219,7.5 c -0.03249,0.110873 -0.02559,0.229577 0.01953,0.335937 l 3.201172,7.5 C 14.119226,18.879595 14.299808,18.99947 14.5,19 h 5 c 0.676161,0.0096 0.676161,-1.009563 0,-1 h -4.669922 l -3,-7.03125 L 13.875,4 H 18.5 c 0.676161,0.00956 0.676161,-1.0095626 0,-1 z"/>
 </g>
 <g id="veracrypt">
  <rect  style="opacity:0.001" width="32" height="32" x="0" y="0"/>
  <path  style="opacity:0.5;fill:#232627" d="M 4.5019531,3.9941406 A 0.50005,0.50005 0 0 0 4.0195312,4.6367188 L 10.519531,27.636719 a 0.50005,0.50005 0 0 0 0.958985,0.0098 l 7,-22.9999996 A 0.50043505,0.50043505 0 1 0 17.521484,4.3535156 L 11.017578,25.724609 4.9804688,4.3632812 A 0.50005,0.50005 0 0 0 4.5019531,3.9941406 Z"/>
  <path  style="opacity:1;fill:#232627" d="m 18,4 a 0.50005,0.50005 0 0 0 -0.478516,0.3535156 l -3.5,11.5000004 a 0.50005,0.50005 0 0 0 0.02734,0.361328 l 5.5,11.5 A 0.50005,0.50005 0 0 0 20,28 h 7.5 a 0.50005,0.50005 0 1 0 0,-1 H 20.314453 L 15.035156,15.958984 18.371094,5 H 25.5 a 0.50005,0.50005 0 1 0 0,-1 z"/>
 </g>
</svg>
