<svg xmlns="http://www.w3.org/2000/svg"  width="32" height="32" version="1.1">
 <g id="22-22-virt-manager" transform="translate(32.000001,10.000001)">
  <rect  style="opacity:0.001" width="22" height="22" x="0" y="0"/>
  <path  style="opacity:0.5;fill:#232627" d="m 0,7 3.225,8 h 2.3 L 8.7,7 H 6.525 L 4.35,12.275 2.2,7 Z"/>
  <path  style="opacity:1;fill:#232627" d="M 9.825,7 C 8.7419,9.6805 7.6411,12.3442 6.5,15 H 8.8 L 10.95,9.75 13.075,15 h 2.3 L 17.5,9.6 19.7,15 H 22 C 20.8589,12.3442 19.7331,9.6805 18.65,7 h -2.3 L 14.225,12.275 12.05,7 Z"/>
 </g>
 <g id="virt-manager">
  <rect  style="opacity:0.001" width="32" height="32" x="0" y="0"/>
  <path  style="opacity:0.5;fill:#232627" d="M -5e-7,9.9999997 4.6909087,22 H 8.0363634 L 12.654545,9.9999997 H 9.4909089 L 6.3272724,17.9125 3.1999996,9.9999997 Z"/>
  <path  style="opacity:1;fill:#232627" d="M 14.29091,9.9999997 C 12.715491,14.02075 11.114328,18.016301 9.4545453,22 H 12.8 L 15.927273,14.125 19.018182,22 h 3.345455 l 3.090909,-8.1 3.2,8.1 h 3.345455 C 30.340219,18.016301 28.702691,14.02075 27.127273,9.9999997 H 23.781818 L 20.690909,17.9125 17.527272,9.9999997 Z"/>
 </g>
</svg>
