<?xml version="1.0" encoding="UTF-8" standalone="no"?>
<svg
   xmlns:dc="http://purl.org/dc/elements/1.1/"
   xmlns:cc="http://creativecommons.org/ns#"
   xmlns:rdf="http://www.w3.org/1999/02/22-rdf-syntax-ns#"
   xmlns:svg="http://www.w3.org/2000/svg"
   xmlns="http://www.w3.org/2000/svg"
   width="500"
   height="300"
   version="1.1"
   id="svg127">
  <metadata
     id="metadata133">
    <rdf:RDF>
      <cc:Work
         rdf:about="">
        <dc:format>image/svg+xml</dc:format>
        <dc:type
           rdf:resource="http://purl.org/dc/dcmitype/StillImage" />
        <dc:title></dc:title>
      </cc:Work>
    </rdf:RDF>
  </metadata>
  <defs
     id="defs131" />
  <g
     id="north-active-tab-top"
     transform="matrix(0.8125,0,0,0.83332808,290.56,-685.62854)">
    <rect
       class="ColorScheme-Background"
       transform="matrix(0,-1,-1,0,0,0)"
       x="-916.35999"
       y="-51"
       width="6"
       height="32"
       color="#eff0f1"
       fill="#ffffff"
       opacity="0.3"
       id="rect2" />
  </g>
  <g
     id="north-active-tab-topleft"
     transform="matrix(0.41666667,0,0,0.41666667,294.58333,-306.31667)">
    <path
       d="m 25,910.36 c -6.648,0 -12,5.352 -12,12 h 12 v -10 z"
       fill="#ffffff"
       opacity="0.3"
       id="path5" />
  </g>
  <g
     id="north-active-tab-topright"
     transform="matrix(0.41666667,0,0,0.41666667,314.25,-306.31667)">
    <path
       d="m 45,910.36 v 12 h 12 c 0,-6.648 -5.352,-12 -12,-12 z"
       fill="#ffffff"
       opacity="0.3"
       id="path8" />
  </g>
  <g
     id="north-active-tab-bottom"
     transform="matrix(0.8125,0,0,0.82943854,290.5625,-686.60635)">
    <rect
       class="ColorScheme-Background"
       transform="rotate(90)"
       x="948.35999"
       y="-51"
       width="6"
       height="32"
       color="#eff0f1"
       fill="#ffffff"
       opacity="0.3"
       id="rect11" />
  </g>
  <g
     id="north-active-tab-bottomleft"
     transform="matrix(0.41666667,0,0,0.41666667,294.58333,-292.65)">
    <path
       d="m 13,942.36 c 0,6.648 5.352,12 12,12 v -12 H 15 Z"
       fill="#ffffff"
       opacity="0.3"
       id="path14" />
  </g>
  <g
     id="north-active-tab-bottomright"
     transform="matrix(0.41666667,0,0,0.41666667,314.25,-292.65)">
    <path
       d="m 45,942.36 v 12 c 6.648,0 12,-5.352 12,-12 H 47 Z"
       fill="#ffffff"
       opacity="0.3"
       id="path17" />
  </g>
  <g
     id="north-active-tab-left"
     transform="matrix(0.83333333,0,0,0.625,289.16667,-493.73)">
    <rect
       class="ColorScheme-Background"
       transform="scale(-1,1)"
       x="-19"
       y="916.35999"
       width="6"
       height="32"
       color="#eff0f1"
       fill="#ffffff"
       opacity="0.3"
       id="rect20" />
  </g>
  <g
     id="north-active-tab-right"
     transform="matrix(0.83333391,0,0,0.625,290.49997,-493.73)">
    <rect
       class="ColorScheme-Background"
       x="51"
       y="916.35999"
       width="6"
       height="32"
       color="#eff0f1"
       fill="#ffffff"
       opacity="0.3"
       id="rect23" />
  </g>
  <rect
     id="north-active-tab-center"
     class="ColorScheme-Background"
     x="306"
     y="79"
     width="26"
     height="20"
     color="#eff0f1"
     fill="#fff"
     opacity=".3" />
  <rect
     id="hint-tile-center"
     x="45"
     y="120"
     width="42"
     height="42"
     fill="#008000"
     opacity="0.875"
     style="stroke-width:1.01838" />
  <rect
     style="fill:#4e9a06"
     stroke-width="0.577326"
     height="2"
     width="5"
     y="-90"
     x="-338"
     transform="scale(-1)"
     id="north-focus-hint-right-margin" />
  <rect
     style="fill:#4e9a06"
     stroke-width="0.577326"
     height="2"
     width="5"
     y="-90"
     x="-305"
     transform="scale(-1)"
     id="north-focus-hint-left-margin" />
  <rect
     style="fill:#4e9a06"
     stroke-width="0.500002"
     height="5"
     width="2"
     y="-105"
     x="-320"
     transform="scale(-1)"
     id="north-focus-hint-bottom-margin" />
  <rect
     style="fill:#4e9a06"
     stroke-width="0.707078"
     height="5"
     width="2"
     y="-78"
     x="-320"
     transform="scale(-1)"
     id="north-focus-hint-top-margin" />
  <g
     id="south-active-tab-top"
     transform="matrix(0.81257816,0,0,0.83333333,290.55851,-575.63332)">
    <rect
       class="ColorScheme-Background"
       transform="matrix(0,-1,-1,0,0,0)"
       x="-916.35999"
       y="-51"
       width="6"
       height="32"
       color="#eff0f1"
       fill="#ffffff"
       opacity="0.3"
       id="rect34" />
  </g>
  <g
     id="south-active-tab-topleft"
     transform="matrix(0.41666667,0,0,0.41666667,294.58333,-196.31667)">
    <path
       d="m 25,910.36 c -6.648,0 -12,5.352 -12,12 h 12 v -10 z"
       fill="#ffffff"
       opacity="0.3"
       id="path37" />
  </g>
  <g
     id="south-active-tab-topright"
     transform="matrix(0.41666667,0,0,0.41666667,314.25,-196.31667)">
    <path
       d="m 45,910.36 v 12 h 12 c 0,-6.648 -5.352,-12 -12,-12 z"
       fill="#ffffff"
       opacity="0.3"
       id="path40" />
  </g>
  <g
     id="south-active-tab-bottom"
     transform="matrix(0.8125,0,0,0.83333333,290.56,-580.30002)">
    <rect
       class="ColorScheme-Background"
       transform="rotate(90)"
       x="948.35999"
       y="-51"
       width="6"
       height="32"
       color="#eff0f1"
       fill="#ffffff"
       opacity="0.3"
       id="rect43" />
  </g>
  <g
     id="south-active-tab-bottomleft"
     transform="matrix(0.41666667,0,0,0.41666667,294.58333,-182.65)">
    <path
       d="m 13,942.36 c 0,6.648 5.352,12 12,12 v -12 H 15 Z"
       fill="#ffffff"
       opacity="0.3"
       id="path46" />
  </g>
  <g
     id="south-active-tab-bottomright"
     transform="matrix(0.41666667,0,0,0.41666667,314.25,-182.65)">
    <path
       d="m 45,942.36 v 12 c 6.648,0 12,-5.352 12,-12 H 47 Z"
       fill="#ffffff"
       opacity="0.3"
       id="path49" />
  </g>
  <g
     id="south-active-tab-left"
     transform="matrix(0.83333333,0,0,0.625,289.16667,-383.73)">
    <rect
       class="ColorScheme-Background"
       transform="scale(-1,1)"
       x="-19"
       y="916.35999"
       width="6"
       height="32"
       color="#eff0f1"
       fill="#ffffff"
       opacity="0.3"
       id="rect52" />
  </g>
  <g
     id="south-active-tab-right"
     transform="matrix(0.83333333,0,0,0.625,290.5,-383.73)">
    <rect
       class="ColorScheme-Background"
       x="51"
       y="916.35999"
       width="6"
       height="32"
       color="#eff0f1"
       fill="#ffffff"
       opacity="0.3"
       id="rect55" />
  </g>
  <rect
     id="south-active-tab-center"
     class="ColorScheme-Background"
     x="306"
     y="189"
     width="26"
     height="20"
     color="#eff0f1"
     fill="#fff"
     opacity=".3" />
  <rect
     style="fill:#4e9a06"
     stroke-width="0.577326"
     height="2"
     width="5"
     y="-200"
     x="-338"
     transform="scale(-1)"
     id="south-focus-hint-right-margin" />
  <rect
     style="fill:#4e9a06"
     stroke-width="0.577326"
     height="2"
     width="5"
     y="-200"
     x="-305"
     transform="scale(-1)"
     id="south-focus-hint-left-margin" />
  <rect
     style="fill:#4e9a06"
     stroke-width="0.500002"
     height="5"
     width="2"
     y="-215"
     x="-320"
     transform="scale(-1)"
     id="south-focus-hint-bottom-margin" />
  <rect
     style="fill:#4e9a06"
     stroke-width="0.707078"
     height="5"
     width="2"
     y="-188"
     x="-320"
     transform="scale(-1)"
     id="south-focus-hint-top-margin" />
  <g
     id="west-active-tab-top"
     transform="matrix(0.8125,0,0,0.83332808,209.56,-627.62854)">
    <rect
       class="ColorScheme-Background"
       transform="matrix(0,-1,-1,0,0,0)"
       x="-916.35999"
       y="-51"
       width="6"
       height="32"
       color="#eff0f1"
       fill="#ffffff"
       opacity="0.3"
       id="rect65" />
  </g>
  <g
     id="west-active-tab-topleft"
     transform="matrix(0.41666667,0,0,0.41666667,213.58333,-248.31667)">
    <path
       d="m 25,910.36 c -6.648,0 -12,5.352 -12,12 h 12 v -10 z"
       fill="#ffffff"
       opacity="0.3"
       id="path68" />
  </g>
  <g
     id="west-active-tab-topright"
     transform="matrix(0.41666667,0,0,0.41666667,233.25,-248.31667)">
    <path
       d="m 45,910.36 v 12 h 12 c 0,-6.648 -5.352,-12 -12,-12 z"
       fill="#ffffff"
       opacity="0.3"
       id="path71" />
  </g>
  <g
     id="west-active-tab-bottom"
     transform="matrix(0.8125,0,0,0.83333859,209.56,-632.305)">
    <rect
       class="ColorScheme-Background"
       transform="rotate(90)"
       x="948.35999"
       y="-51"
       width="6"
       height="32"
       color="#eff0f1"
       fill="#ffffff"
       opacity="0.3"
       id="rect74" />
  </g>
  <g
     id="west-active-tab-bottomleft"
     transform="matrix(0.41666667,0,0,0.41666042,213.58333,-234.64411)">
    <path
       d="m 13,942.36 c 0,6.648 5.352,12 12,12 v -12 H 15 Z"
       fill="#ffffff"
       opacity="0.3"
       id="path77" />
  </g>
  <g
     id="west-active-tab-bottomright"
     transform="matrix(0.41666667,0,0,0.41666667,233.25,-234.65)">
    <path
       d="m 45,942.36 v 12 c 6.648,0 12,-5.352 12,-12 H 47 Z"
       fill="#ffffff"
       opacity="0.3"
       id="path80" />
  </g>
  <g
     id="west-active-tab-left"
     transform="matrix(0.83333333,0,0,0.625,208.16667,-435.73)">
    <rect
       class="ColorScheme-Background"
       transform="scale(-1,1)"
       x="-19"
       y="916.35999"
       width="6"
       height="32"
       color="#eff0f1"
       fill="#ffffff"
       opacity="0.3"
       id="rect83" />
  </g>
  <g
     id="west-active-tab-right"
     transform="matrix(0.83333333,0,0,0.625,209.5,-435.73)">
    <rect
       class="ColorScheme-Background"
       x="51"
       y="916.35999"
       width="6"
       height="32"
       color="#eff0f1"
       fill="#ffffff"
       opacity="0.3"
       id="rect86" />
  </g>
  <rect
     id="west-active-tab-center"
     class="ColorScheme-Background"
     x="225"
     y="137"
     width="26"
     height="20"
     color="#eff0f1"
     fill="#fff"
     opacity=".3" />
  <rect
     style="fill:#4e9a06"
     stroke-width="0.577352"
     height="2"
     width="5"
     y="-148"
     x="-257"
     transform="scale(-1)"
     id="west-focus-hint-right-margin" />
  <rect
     style="fill:#4e9a06"
     stroke-width="0.577352"
     height="2"
     width="5"
     y="-148"
     x="-224"
     transform="scale(-1)"
     id="west-focus-hint-left-margin" />
  <rect
     style="fill:#4e9a06"
     stroke-width="0.500002"
     height="5"
     width="2"
     y="-163"
     x="-239"
     transform="scale(-1)"
     id="west-focus-hint-bottom-margin" />
  <rect
     style="fill:#4e9a06"
     stroke-width="0.707078"
     height="5"
     width="2"
     y="-136"
     x="-239"
     transform="scale(-1)"
     id="west-focus-hint-top-margin" />
  <g
     id="east-active-tab-top"
     transform="matrix(0.8125,0,0,0.83332808,373.5625,-629.62854)">
    <rect
       class="ColorScheme-Background"
       transform="matrix(0,-1,-1,0,0,0)"
       x="-916.35999"
       y="-51"
       width="6"
       height="32"
       color="#eff0f1"
       fill="#ffffff"
       opacity="0.3"
       id="rect96" />
  </g>
  <g
     id="east-active-tab-topleft"
     transform="matrix(0.41666667,0,0,0.41666667,377.58333,-250.31667)">
    <path
       d="m 25,910.36 c -6.648,0 -12,5.352 -12,12 h 12 v -10 z"
       fill="#ffffff"
       opacity="0.3"
       id="path99" />
  </g>
  <g
     id="east-active-tab-topright"
     transform="matrix(0.41666667,0,0,0.41666667,397.25,-250.31667)">
    <path
       d="m 45,910.36 v 12 h 12 c 0,-6.648 -5.352,-12 -12,-12 z"
       fill="#ffffff"
       opacity="0.3"
       id="path102" />
  </g>
  <g
     id="east-active-tab-bottom"
     transform="matrix(0.8125,0,0,0.83333859,373.5625,-634.305)">
    <rect
       class="ColorScheme-Background"
       transform="rotate(90)"
       x="948.35999"
       y="-51"
       width="6"
       height="32"
       color="#eff0f1"
       fill="#ffffff"
       opacity="0.3"
       id="rect105" />
  </g>
  <g
     id="east-active-tab-bottomleft"
     transform="matrix(0.41666667,0,0,0.41667292,377.58333,-236.65589)">
    <path
       d="m 13,942.36 c 0,6.648 5.352,12 12,12 v -12 H 15 Z"
       fill="#ffffff"
       opacity="0.3"
       id="path108" />
  </g>
  <g
     id="east-active-tab-bottomright"
     transform="matrix(0.41666667,0,0,0.41667292,397.25,-236.65589)">
    <path
       d="m 45,942.36 v 12 c 6.648,0 12,-5.352 12,-12 H 47 Z"
       fill="#ffffff"
       opacity="0.3"
       id="path111" />
  </g>
  <g
     id="east-active-tab-left"
     transform="matrix(0.83333333,0,0,0.625,372.16667,-437.72499)">
    <rect
       class="ColorScheme-Background"
       transform="scale(-1,1)"
       x="-19"
       y="916.35999"
       width="6"
       height="32"
       color="#eff0f1"
       fill="#ffffff"
       opacity="0.3"
       id="rect114" />
  </g>
  <g
     id="east-active-tab-right"
     transform="matrix(0.83333333,0,0,0.625,373.5,-437.72499)">
    <rect
       class="ColorScheme-Background"
       x="51"
       y="916.35999"
       width="6"
       height="32"
       color="#eff0f1"
       fill="#ffffff"
       opacity="0.3"
       id="rect117" />
  </g>
  <rect
     id="east-active-tab-center"
     class="ColorScheme-Background"
     x="389"
     y="135"
     width="26"
     height="20"
     color="#eff0f1"
     fill="#fff"
     opacity=".3" />
  <rect
     style="fill:#4e9a06"
     stroke-width="0.577352"
     height="2"
     width="5"
     y="-146"
     x="-421"
     transform="scale(-1)"
     id="east-focus-hint-right-margin" />
  <rect
     style="fill:#4e9a06"
     stroke-width="0.577352"
     height="2"
     width="5"
     y="-146"
     x="-388"
     transform="scale(-1)"
     id="east-focus-hint-left-margin" />
  <rect
     style="fill:#4e9a06"
     stroke-width="0.500002"
     height="5.0000048"
     width="2"
     y="-161"
     x="-403"
     transform="scale(-1)"
     id="east-focus-hint-bottom-margin" />
  <rect
     style="fill:#4e9a06"
     stroke-width="0.707078"
     height="5.0000014"
     width="2"
     y="-134"
     x="-403"
     transform="scale(-1)"
     id="east-focus-hint-top-margin" />
</svg>
