<?xml version="1.0" encoding="UTF-8" standalone="no"?>
<svg
   xmlns:dc="http://purl.org/dc/elements/1.1/"
   xmlns:cc="http://creativecommons.org/ns#"
   xmlns:rdf="http://www.w3.org/1999/02/22-rdf-syntax-ns#"
   xmlns:svg="http://www.w3.org/2000/svg"
   xmlns="http://www.w3.org/2000/svg"
   xmlns:sodipodi="http://sodipodi.sourceforge.net/DTD/sodipodi-0.dtd"
   xmlns:inkscape="http://www.inkscape.org/namespaces/inkscape"
   width="17"
   height="57"
   version="1.0"
   id="svg17"
   sodipodi:docname="toolbar.svg"
   inkscape:version="0.92.4 (5da689c313, 2019-01-14)">
  <metadata
     id="metadata21">
    <rdf:RDF>
      <cc:Work
         rdf:about="">
        <dc:format>image/svg+xml</dc:format>
        <dc:type
           rdf:resource="http://purl.org/dc/dcmitype/StillImage" />
      </cc:Work>
    </rdf:RDF>
  </metadata>
  <sodipodi:namedview
     pagecolor="#ffffff"
     bordercolor="#666666"
     borderopacity="1"
     objecttolerance="10"
     gridtolerance="10"
     guidetolerance="10"
     inkscape:pageopacity="0"
     inkscape:pageshadow="2"
     inkscape:window-width="1366"
     inkscape:window-height="701"
     id="namedview19"
     showgrid="false"
     inkscape:zoom="16.561403"
     inkscape:cx="-1.2371242"
     inkscape:cy="44.081117"
     inkscape:window-x="0"
     inkscape:window-y="36"
     inkscape:window-maximized="1"
     inkscape:current-layer="svg17" />
  <defs
     id="defs3">
    <style
       id="current-color-scheme"
       type="text/css">.ColorScheme-Text {
        color:#31363b;
        stop-color:#31363b;
      }
      .ColorScheme-Background {
        color:#eff0f1;
        stop-color:#eff0f1;
      }
      .ColorScheme-Highlight {
        color:#3daee9;
        stop-color:#3daee9;
      }
      .ColorScheme-ViewText {
        color:#31363b;
        stop-color:#31363b;
      }
      .ColorScheme-ViewBackground {
        color:#fcfcfc;
        stop-color:#fcfcfc;
      }
      .ColorScheme-ViewHover {
        color:#93cee9;
        stop-color:#93cee9;
      }
      .ColorScheme-ViewFocus{
        color:#3daee9;
        stop-color:#3daee9;
      }
      .ColorScheme-ButtonText {
        color:#31363b;
        stop-color:#31363b;
      }
      .ColorScheme-ButtonBackground {
        color:#eff0f1;
        stop-color:#eff0f1;
      }
      .ColorScheme-ButtonHover {
        color:#93cee9;
        stop-color:#93cee9;
      }
      .ColorScheme-ButtonFocus{
        color:#3daee9;
        stop-color:#3daee9;
      }</style>
  </defs>
  <rect
     id="hint-tile-center"
     x="-2.74"
     y="-1.3406"
     width="2.0329"
     height="2.0771"
     rx="0"
     ry="2.0771"
     fill="#4e9a06" />
  <path
     style="color:#fcfcfc;opacity:0.4;fill:#313338"
     inkscape:connector-curvature="0"
     d="m 2.9997,6 v 11 h 11 V 6 Z"
     class="ColorScheme-ViewBackground"
     id="center" />
  <path
     style="color:#fcfcfc;opacity:0.4;fill:#313338"
     inkscape:connector-curvature="0"
     d="m 14,6 v 11 h 2 c 6.68e-4,-0.0183 0,-0.0344 0,-0.0529 V 6.0531 c 0,-0.0185 6.68e-4,-0.03453 0,-0.05288 h -2 z"
     class="ColorScheme-ViewBackground"
     id="right" />
  <path
     style="color:#fcfcfc;opacity:0.4;fill:#313338"
     inkscape:connector-curvature="0"
     d="m 2.9997,4 v 2 h 11 V 4 c -0.0041,-6.7e-4 0.0042,0 10e-7,0 h -10.988 c -0.004,0 -0.008,-6.7e-4 -0.0119,0 z"
     class="ColorScheme-ViewBackground"
     id="top" />
  <path
     style="color:#fcfcfc;opacity:0.4;fill:#313338"
     inkscape:connector-curvature="0"
     d="m 1,6 c -6.7e-4,0.01835 0,0.03439 0,0.05288 v 10.894 c 0,0.0185 -6.7e-4,0.0345 0,0.0529 h 2 v -11 H 1 Z"
     class="ColorScheme-ViewBackground"
     id="left" />
  <path
     style="color:#fcfcfc;opacity:0.4;fill:#313338"
     inkscape:connector-curvature="0"
     d="m 2.9997,17 v 2 h 11 v -1.9997 z"
     class="ColorScheme-ViewBackground"
     id="bottom" />
  <path
     style="color:#fcfcfc;opacity:0.4;fill:#313338"
     inkscape:connector-curvature="0"
     d="m 0.99967,4 v 2 h 1.9998 V 4 c -7.46e-4,-6.7e-4 7.63e-4,0 0,0 h -1.9976 c -7.28e-4,0 -0.0015,-6.7e-4 -0.0022,0 z"
     class="ColorScheme-ViewBackground"
     id="topleft" />
  <path
     style="color:#fcfcfc;opacity:0.4;fill:#313338"
     inkscape:connector-curvature="0"
     d="M 14,4.0003 V 6 h 1.9998 V 4.0003 c -7.46e-4,-6.7e-4 7.63e-4,0 0,0 h -1.9976 c -7.28e-4,0 -0.0015,-6.7e-4 -0.0022,0 z"
     class="ColorScheme-ViewBackground"
     id="topright" />
  <path
     style="color:#fcfcfc;opacity:0.4;fill:#313338"
     inkscape:connector-curvature="0"
     d="m 14,17 v 1.9997 h 1.9998 V 17 c -7.46e-4,-6.7e-4 7.63e-4,0 0,0 H 14.0022 C 14.001472,17 14.0007,16.99933 14,17 Z"
     class="ColorScheme-ViewBackground"
     id="bottomright" />
  <path
     style="color:#fcfcfc;opacity:0.4;fill:#313338"
     inkscape:connector-curvature="0"
     d="m 0.99971,17 v 1.9997 h 1.9998 V 17 c -7.46e-4,-6.7e-4 7.63e-4,0 0,0 h -1.9976 c -7.28e-4,0 -0.0015,-6.7e-4 -0.0022,0 z"
     class="ColorScheme-ViewBackground"
     id="bottomleft" />
</svg>
