<?xml version="1.0" encoding="UTF-8" standalone="no"?>
<svg
   xmlns:dc="http://purl.org/dc/elements/1.1/"
   xmlns:cc="http://creativecommons.org/ns#"
   xmlns:rdf="http://www.w3.org/1999/02/22-rdf-syntax-ns#"
   xmlns:svg="http://www.w3.org/2000/svg"
   xmlns="http://www.w3.org/2000/svg"
   id="svg25"
   viewBox="0 0 12 12"
   version="1.1"
   height="44"
   width="44">
  <metadata
     id="metadata29">
    <rdf:RDF>
      <cc:Work
         rdf:about="">
        <dc:format>image/svg+xml</dc:format>
        <dc:type
           rdf:resource="http://purl.org/dc/dcmitype/StillImage" />
        <dc:title></dc:title>
      </cc:Work>
    </rdf:RDF>
  </metadata>
  <defs
     id="defs3">
    <style
       id="current-color-scheme"
       type="text/css"> .ColorScheme-Text { color:#363636; } </style>
  </defs>
  <g
     fill="currentColor"
     class="ColorScheme-Text"
     transform="translate(-11.642 -254.94)"
     id="up-arrow">
    <rect
       id="rect5"
       fill="none"
       height="3.704"
       width="3.704"
       y="15.61"
       x="254.93"
       transform="matrix(0,1,1,0,0,0)" />
    <path
       id="path7"
       d="m17.462 256.25-1.0583 1.0583h2.1167l-1.0583-1.0583z" />
  </g>
  <g
     fill="currentColor"
     class="ColorScheme-Text"
     transform="matrix(1 0 0 -1 -11.642 266.57)"
     id="down-arrow">
    <rect
       id="rect10"
       fill="none"
       height="3.704"
       width="3.704"
       y="15.61"
       x="254.93"
       transform="matrix(0,1,1,0,0,0)" />
    <path
       id="path12"
       d="m17.462 256.25-1.0583 1.0583h2.1167l-1.0583-1.0583z" />
  </g>
  <g
     fill="currentColor"
     class="ColorScheme-Text"
     transform="rotate(90 139.11 127.46)"
     id="right-arrow">
    <rect
       id="rect15"
       fill="none"
       height="3.704"
       width="3.704"
       y="15.61"
       x="254.93"
       transform="matrix(0,1,1,0,0,0)" />
    <path
       id="path17"
       d="m17.462 256.25-1.0583 1.0583h2.1167l-1.0583-1.0583z" />
  </g>
  <g
     fill="currentColor"
     class="ColorScheme-Text"
     transform="matrix(0 1 1 0 -254.93 -11.65)"
     id="left-arrow">
    <rect
       id="rect20"
       fill="none"
       height="3.704"
       width="3.704"
       y="15.61"
       x="254.93"
       transform="matrix(0,1,1,0,0,0)" />
    <path
       id="path22"
       d="m17.462 256.25-1.0583 1.0583h2.1167l-1.0583-1.0583z" />
  </g>
</svg>
