<?xml version="1.0" encoding="UTF-8" standalone="no"?>
<svg
   xmlns:dc="http://purl.org/dc/elements/1.1/"
   xmlns:cc="http://creativecommons.org/ns#"
   xmlns:rdf="http://www.w3.org/1999/02/22-rdf-syntax-ns#"
   xmlns:svg="http://www.w3.org/2000/svg"
   xmlns="http://www.w3.org/2000/svg"
   id="svg137"
   viewBox="0 0 32 14"
   version="1.1"
   height="52"
   width="124">
  <metadata
     id="metadata141">
    <rdf:RDF>
      <cc:Work
         rdf:about="">
        <dc:format>image/svg+xml</dc:format>
        <dc:type
           rdf:resource="http://purl.org/dc/dcmitype/StillImage" />
        <dc:title></dc:title>
      </cc:Work>
    </rdf:RDF>
  </metadata>
  <defs
     id="defs3">
    <style
       type="text/css"
       id="current-color-scheme">.ColorScheme-Text { color:#363636; } .ColorScheme-Highlight { color:#5294e2; }</style>
  </defs>
  <g
     transform="translate(.52917 -249.37)"
     id="menu">
    <rect
       id="rect5"
       fill="none"
       height="4.2333"
       width="4.2333"
       y="249.37"
       x="-.52917" />
    <rect
       id="rect7"
       fill="none"
       height="3.175"
       width="3.175"
       y="249.9"
       x="-1.0174e-6" />
    <path
       id="path9"
       fill="currentColor"
       d="m4.5328e-8 250.17v0.52917h3.175v-0.52917zm0 1.0583v0.52917h3.175v-0.52917zm0 1.0583v0.52916h3.175v-0.52916z"
       class="ColorScheme-Text" />
  </g>
  <g
     transform="translate(.52917 -249.37)"
     id="collapse">
    <rect
       id="rect12"
       fill="none"
       height="4.2333"
       width="4.2333"
       y="254.14"
       x="23.283" />
    <rect
       id="rect14"
       fill="none"
       height="3.175"
       width="3.175"
       y="254.67"
       x="23.813" />
    <path
       id="path16"
       fill="currentColor"
       d="m24.606 254.67 0.79375 0.79375 0.79375-0.79375zm-1.0583 1.3229v0.52917h3.7042v-0.52917zm1.8521 1.0583-0.79375 0.79375h1.5875z"
       class="ColorScheme-Text" />
  </g>
  <g
     transform="translate(.52917 -249.63)"
     id="return-to-source">
    <rect
       id="rect19"
       fill="none"
       height="4.2333"
       width="4.2333"
       y="254.14"
       x="18.521" />
    <path
       id="path21"
       fill="currentColor"
       d="m74 19c-0.554 0-1 0.44599-1 1v12c0 0.55401 0.446 1 1 1h12c0.554 0 1-0.44599 1-1v-12c0-0.55401-0.446-1-1-1zm4 2h4l-2 2zm-3 4h10v2h-10zm5 4 2 2h-4z"
       transform="matrix(.26458 0 0 .26458 -.52917 249.37)"
       class="ColorScheme-Text" />
  </g>
  <g
     transform="translate(.52917 -249.37)"
     id="restore">
    <rect
       id="rect24"
       fill="none"
       height="4.2333"
       width="4.2333"
       y="254.14"
       x="28.046" />
    <rect
       id="rect26"
       fill="none"
       height="3.175"
       width="3.175"
       y="254.67"
       x="28.575" />
    <path
       id="path28"
       fill="currentColor"
       d="m29.369 255.46 0.79376-0.79375 0.79374 0.79375zm-1.0583 0.52917v0.52917h3.7042v-0.52917zm1.8521 1.8521-0.79376-0.79375h1.5875z"
       class="ColorScheme-Text" />
  </g>
  <g
     transform="matrix(.26458 0 0 .26458 -102.39 10.33)"
     id="rotate">
    <path
       id="path31"
       fill="currentColor"
       d="m192 435c-3.866 0-7 3.134-7 7s3.134 7 7 7c3.1748 0 5.8615-2.1032 6.7188-5h-2.1562c-0.77427 1.7595-2.5168 3-4.5625 3-2.7614 0-5-2.2386-5-5s2.2386-5 5-5c2.0457 0 3.7882 1.2405 4.5625 3h2.1562c-0.85721-2.8968-3.5439-5-6.7188-5z"
       transform="translate(241,-473)"
       class="ColorScheme-Text" />
    <rect
       id="rect33"
       fill="none"
       height="16"
       width="16"
       y="23.016"
       x="-441"
       transform="scale(-1)" />
    <path
       id="path35"
       fill="currentColor"
       d="m193 441 6-6v6z"
       transform="translate(241,-473)"
       class="ColorScheme-Text" />
  </g>
  <g
     transform="matrix(.26458 0 0 .26458 -49.478 5.3)"
     id="move">
    <path
       id="path38"
       fill="currentColor"
       d="m253-4.5-3-3.5h2v-2h2v2h2z"
       class="ColorScheme-Text" />
    <rect
       id="rect40"
       fill="none"
       height="16"
       width="16"
       y="245"
       x="-20.019"
       transform="matrix(0,1,1,0,0,0)" />
    <g
       id="g48"
       fill="currentColor"
       class="ColorScheme-Text">
      <path
         id="path42"
         d="m253-19.5-3 3.5h2v2h2v-2h2z" />
      <path
         id="path44"
         d="m260.5-12-3.5-3v2h-2v2h2l-4e-5 2z" />
      <path
         id="path46"
         d="m245.5-12 3.5-3v2h2v2h-2l-4e-5 2z" />
    </g>
  </g>
  <g
     transform="matrix(.26458 0 0 .26458 -49.213 -208.49)"
     id="size-vertical">
    <path
       id="path51"
       fill="currentColor"
       d="m252 474-3 5h2v6h-2l3 5 3-5h-2v-6h2z"
       transform="translate(17,313)"
       class="ColorScheme-Text" />
    <rect
       id="rect53"
       fill="none"
       height="16"
       width="16"
       y="-803"
       x="-277"
       transform="scale(-1)" />
  </g>
  <g
     transform="matrix(.26458 0 0 .26458 -39.158 -209.02)"
     id="size-horizontal">
    <path
       id="path56"
       fill="currentColor"
       d="m229 479-5 3 5 3v-2h6v2l5-3-5-3v2h-6z"
       transform="translate(17,313)"
       class="ColorScheme-Text" />
    <rect
       id="rect58"
       fill="none"
       height="16"
       width="16"
       y="-803"
       x="-257"
       transform="scale(-1)" />
  </g>
  <g
     transform="matrix(.26458 0 0 .26458 -77.258 -7.67)"
     id="size-diagonal-tr2bl">
    <path
       id="path61"
       fill="currentColor"
       d="m403 31.003c-1 0-1 1-1 1v4h2v-3h3v-2zm8 0v2h3v3h2v-4c0-1-1-1-1-1zm-9 7v4c0 1 1 1 1 1h4v-2h-3v-3zm12 0v3h-3v2h4s1 0 1-1v-4z"
       class="ColorScheme-Text" />
    <rect
       id="rect63"
       fill="none"
       ry="0"
       rx="0"
       height="16"
       width="15.982"
       y="29"
       x="401" />
  </g>
  <g
     transform="matrix(.26458 0 0 .26458 -105.83 -3.17)"
     id="size-diagonal-tl2br">
    <path
       id="path66"
       fill="currentColor"
       d="m403 31.003c-1 0-1 1-1 1v4h2v-3h3v-2zm8 0v2h3v3h2v-4c0-1-1-1-1-1zm-9 7v4c0 1 1 1 1 1h4v-2h-3v-3zm12 0v3h-3v2h4s1 0 1-1v-4z"
       class="ColorScheme-Text" />
    <rect
       id="rect68"
       fill="none"
       ry="0"
       rx="0"
       height="16"
       width="15.982"
       y="29"
       x="401" />
  </g>
  <g
     transform="matrix(.26458 0 0 .26458 -101.07 -2.91)"
     id="maximize">
    <path
       id="path71"
       fill="currentColor"
       d="m403 31.003c-1 0-1 1-1 1v4h2v-3h3v-2zm8 0v2h3v3h2v-4c0-1-1-1-1-1zm-9 7v4c0 1 1 1 1 1h4v-2h-3v-3zm12 0v3h-3v2h4s1 0 1-1v-4z"
       class="ColorScheme-Text" />
    <rect
       id="rect73"
       fill="none"
       ry="0"
       rx="0"
       height="16"
       width="15.982"
       y="29"
       x="401" />
  </g>
  <g
     transform="matrix(.26458 0 0 .26458 -96.042 -3.43)"
     id="unmaximize">
    <path
       id="path76"
       fill="currentColor"
       d="m412 38.003s-1 0-1 1v4h2v-3h3v-2zm-10 0v2h3v3h2v-4s0-1-1-1zm9-7v4s0 1 1 1h4v-2h-3v-3zm-6 0v3h-3v2h4c1 0 1-1 1-1v-4z"
       class="ColorScheme-Text" />
    <rect
       id="rect78"
       fill="none"
       ry="0"
       rx="0"
       height="16"
       width="15.982"
       y="29"
       x="401" />
  </g>
  <g
     transform="matrix(-.26458 0 0 .26458 88.9 35.72)"
     id="status">
    <rect
       id="rect81"
       opacity="0"
       height="16"
       width="16"
       y="103.03"
       x="265"
       transform="scale(1,-1)" />
    <path
       id="path83"
       fill="currentColor"
       d="m146 600c-0.554 0-1 0.446-1 1v10c0 0.554 0.446 1 1 1h12c0.554 0 1-0.446 1-1v-10c0-0.554-0.446-1-1-1zm1 8h10v2h-10z"
       transform="matrix(-1,0,0,1,425,-717)"
       class="ColorScheme-Text" />
  </g>
  <g
     transform="matrix(.26458 0 0 .26458 -112.18 -57.68)"
     id="delete">
    <rect
       id="rect86"
       fill="none"
       height="16"
       width="16"
       y="255.01"
       x="441" />
    <path
       id="path88"
       fill="currentColor"
       d="m429 86v9c5e-5 0.52358 0.47642 0.99995 1 1h9c0.52358-5e-5 0.99995-0.47642 1-1v-9z"
       transform="translate(14,174)"
       class="ColorScheme-Text" />
    <path
       id="path90"
       fill="currentColor"
       d="m442 258v1l13-3e-3 -2e-4 -0.99664c0-1-0.9998-1.0034-0.9998-1.0034h-3s0-1-1-1h-3c-1 0-1 1-1 1h-3s-1.0002 3e-3 -1.0002 1.0034z"
       class="ColorScheme-Text" />
  </g>
  <g
     transform="matrix(.26458 0 0 .26458 -6.3501 -214.31)"
     id="add">
    <rect
       id="rect93"
       fill="none"
       height="16"
       width="16"
       y="847"
       x="61" />
    <path
       id="path95"
       fill="currentColor"
       d="m68 850v4h-4v2h4v4h2v-4h4v-2h-4v-4z"
       class="ColorScheme-Text" />
  </g>
  <g
     transform="matrix(.26458 0 0 .26458 9.2605 -63.76)"
     id="remove">
    <rect
       id="rect98"
       fill="none"
       height="16"
       width="16"
       y="276"
       x="20" />
    <rect
       id="rect100"
       fill="currentColor"
       height="2"
       width="10"
       y="283"
       x="23"
       class="ColorScheme-Text" />
  </g>
  <g
     transform="translate(-.26465 -248.84)"
     id="filter">
    <rect
       id="rect103"
       fill="none"
       height="4.233"
       width="4.233"
       y="258.9"
       x="18.52" />
    <rect
       id="rect105"
       fill="none"
       height="3.175"
       width="3.175"
       y="259.43"
       x="19.05" />
    <path
       id="path107"
       fill="currentColor"
       d="m76.305 57.787-1 1v1l3 5.2598v2.7422l3 1.9961v2e-3h1v-4.7402l3-5.2598v-1l-1-1h-8zm1 2h3l-1 1v1z"
       transform="matrix(.26458 0 0 .26458 -.60971 244.14)"
       class="ColorScheme-Text" />
  </g>
  <g
     transform="translate(-.26466 -248.84)"
     id="help">
    <rect
       id="rect110"
       opacity="0"
       height="4.233"
       width="4.233"
       y="258.9"
       x="-.53" />
    <g
       id="g114"
       transform="matrix(.26458 0 0 .26458 -118 149.89)">
      <path
         id="path112"
         fill="currentColor"
         d="m453 427h-2v-2h2zm2.07-7.75-0.9 0.92c-0.72 0.73-1.17 1.33-1.17 2.83h-2v-0.5c0-1.1 0.45-2.1 1.17-2.83l1.24-1.26c0.37-0.36 0.59-0.86 0.59-1.41 0-1.1-0.9-2-2-2s-2 0.9-2 2h-2c0-2.21 1.79-4 4-4s4 1.79 4 4c0 0.88-0.36 1.68-0.93 2.25z"
         class="ColorScheme-Text" />
    </g>
  </g>
  <g
     transform="matrix(.26458 0 0 .26458 -11.377 -4.76)"
     id="close">
    <rect
       id="rect117"
       opacity="0"
       height="16"
       width="16"
       y="55.99"
       x="130" />
    <g
       id="g123"
       transform="matrix(1.4994,0,0,1.5,36.042,-724.98)">
      <g
         id="g121"
         transform="translate(19,-242)">
        <path
           id="path119"
           fill="currentColor"
           d="m45 764h1c0.01037-1.2e-4 0.02079-4.6e-4 0.03125 0 0.25495 0.0112 0.50987 0.12858 0.6875 0.3125l2.2812 2.2812 2.3125-2.2812c0.26562-0.2305 0.44667-0.3055 0.6875-0.3125h1v1c0 0.28647-0.03434 0.55065-0.25 0.75l-2.2812 2.2812 2.25 2.25c0.18819 0.18817 0.28124 0.45345 0.28125 0.71875v1h-1c-0.2653-1e-5 -0.53059-0.0931-0.71875-0.28125l-2.2812-2.2812-2.2812 2.2812c-0.18816 0.18819-0.45346 0.28125-0.71875 0.28125h-1v-1c-3e-6 -0.26529 0.09306-0.53058 0.28125-0.71875l2.2812-2.25-2.2812-2.2812c-0.21074-0.19463-0.30316-0.46925-0.28125-0.75z"
           class="ColorScheme-Text" />
      </g>
    </g>
  </g>
  <g
     transform="translate(.26923 7.2692)"
     id="configure">
    <rect
       id="rect126"
       fill="none"
       height="4.8462"
       width="4.8462"
       y="-8.0769"
       x="4.6923" />
    <g
       id="g134"
       fill="currentColor"
       transform="translate(.53846 3.5)"
       class="ColorScheme-Text">
      <path
         id="path128"
         d="m22-42c-2.216 0-4 1.784-4 4s1.784 4 4 4h10c2.216 0 4-1.784 4-4s-1.784-4-4-4zm0 1h10c1.662 0 3 1.338 3 3s-1.338 3-3 3h-10c-1.662 0-3-1.338-3-3s1.338-3 3-3z"
         transform="matrix(.26923 0 0 .26923 -.69231 0)" />
      <path
         id="path130"
         d="m22-33c-2.216 0-4 1.784-4 4s1.784 4 4 4h10c2.216 0 4-1.784 4-4s-1.784-4-4-4zm9.9512 2a2 2 0 0 1 0.048828 0 2 2 0 0 1 2 2 2 2 0 0 1-2 2 2 2 0 0 1-2-2 2 2 0 0 1 1.9512-2z"
         transform="matrix(.26923 0 0 .26923 -.69231 0)" />
      <circle
         id="circle132"
         r=".53846"
         cy="-10.231"
         cx="5.2308" />
    </g>
  </g>
  <g
     transform="matrix(1.0175651,0,0,1.0175651,-0.1794665,-253.90135)"
     id="showbackground">
    <g
       id="g942">
      <rect
         class="ColorScheme-Background"
         ry="0.12427091"
         y="259.69373"
         x="28.574997"
         height="2.6458437"
         width="2.6458342"
         id="rect929"
         style="opacity:0.8;fill:currentColor" />
      <rect
         y="258.89993"
         x="27.858765"
         height="4.2333322"
         width="4.2333336"
         id="rect908"
         style="opacity:1;fill:none;fill-opacity:1;stroke:none" />
      <path
         class="ColorScheme-Text"
         style="opacity:0.4;fill:currentColor"
         d="m 110,38 c -0.55407,0 -1,0.445928 -1,1 v 10 c 0,0.554072 0.44593,1 1,1 h 10 c 0.55407,0 1,-0.445928 1,-1 V 39 c 0,-0.554072 -0.44593,-1 -1,-1 z m 0.46875,1 h 9.0625 C 119.79146,39 120,39.210497 120,39.470703 V 48.53125 C 120,48.791456 119.79146,49 119.53125,49 h -9.0625 C 110.20854,49 110,48.791456 110,48.53125 V 39.470703 C 110,39.210497 110.20854,39 110.46875,39 Z"
         transform="matrix(0.26458332,0,0,0.26458332,-0.5291667,249.37493)"
         id="rect910" />
      <g
         aria-label="a"
         transform="scale(0.92487808,1.0812236)"
         style="font-style:normal;font-variant:normal;font-weight:normal;font-stretch:normal;font-size:2.64862px;line-height:125%;font-family:'Noto Sans';-inkscape-font-specification:'Noto Sans';letter-spacing:0px;word-spacing:0px;fill:#000000;fill-opacity:1;stroke:none;stroke-width:0.264583px;stroke-linecap:butt;stroke-linejoin:miter;stroke-opacity:1"
         id="text927">
        <path
           class="ColorScheme-Text"
           d="m 32.390856,240.67151 c 0.173043,0 0.30106,0.038 0.38405,0.11389 0.08299,0.0759 0.124486,0.19688 0.124486,0.36286 v 0.99379 H 32.72988 l -0.04503,-0.22834 h -0.01059 c -0.0618,0.0777 -0.127133,0.13508 -0.195998,0.17216 -0.06886,0.0371 -0.162449,0.0556 -0.280754,0.0556 -0.1289,0 -0.235727,-0.0335 -0.320483,-0.10065 -0.08476,-0.0689 -0.122393,-0.17569 -0.122393,-0.32048 0,-0.14126 0.05088,-0.28618 0.162122,-0.3621 0.111242,-0.0777 0.282519,-0.11816 0.513833,-0.12522 l 0.241024,-0.008 v -0.0504 c 0,-0.11831 -0.0256,-0.20042 -0.07681,-0.24633 -0.05121,-0.0459 -0.123603,-0.0689 -0.217187,-0.0689 -0.07416,0 -0.144791,0.0115 -0.211889,0.0344 -0.0671,0.0212 -0.129783,0.0459 -0.188052,0.0742 l -0.07151,-0.17481 c 0.0618,-0.0335 0.135078,-0.0618 0.219835,-0.0848 0.08476,-0.0247 0.173043,-0.0371 0.264862,-0.0371 z m 0.278106,0.73618 -0.209242,0.008 c -0.176575,0.007 -0.299294,0.0334 -0.368158,0.0829 -0.0671,0.0495 -0.100647,0.1345 -0.100647,0.22453 0,0.0795 0.02384,0.13773 0.07151,0.17481 0.04944,0.0371 0.112124,0.0556 0.188052,0.0556 0.118305,0 0.217187,-0.0327 0.296646,-0.098 0.08122,-0.0671 0.121837,-0.16951 0.121837,-0.30724 z"
           style="fill:#ffffff"
           id="path934" />
      </g>
    </g>
  </g>
</svg>
