<svg xmlns="http://www.w3.org/2000/svg" width="128" height="128" version="1">
 <g>
  <g id="border-top" transform="matrix(0.1444413,0,0,1,7.6889401,-99.922096)">
   <rect style="opacity:0.01" width="747.709" height="1" x="16" y="-109" transform="scale(1,-1)"/>
   <rect style="opacity:0" width="747.709" height="1" x="16" y="-110" transform="scale(1,-1)"/>
  </g>
  <rect id="border-center" style="opacity:0.6;fill:#ffffff;fill-opacity:0" width="64.25" height="61.5" x="33.5" y="33.5"/>
  <rect id="border-topleft" style="opacity:0.6;fill:#ffffff;fill-opacity:0" width="8.582" height="9.211" x="-10.87" y="-11.23" transform="scale(-1,-1)"/>
  <rect id="border-bottomleft" style="opacity:0.59999999999999998;fill:#8b8b8b;fill-opacity:0" width="8.582" height="9.211" x="-10.87" y="-126.84" transform="scale(-1,-1)"/>
  <rect id="border-topright" style="opacity:0.6;fill:#ffffff;fill-opacity:0" width="8.582" height="9.211" x="-126.13" y="-11.23" transform="scale(-1,-1)"/>
  <rect id="border-bottomright" style="opacity:0.59999999999999998;fill:#8b8b8b;fill-opacity:0" width="8.582" height="9.211" x="-126.13" y="-126.84" transform="scale(-1,-1)"/>
  <g id="border-left" transform="matrix(0,-0.1444413,1,0,-100.15432,123.01818)">
   <rect style="opacity:0.01" width="747.709" height="1" x="16" y="-109" transform="scale(1,-1)"/>
   <rect style="opacity:0" width="747.709" height="1" x="16" y="-110" transform="scale(1,-1)"/>
  </g>
  <g id="border-bottom" transform="matrix(-0.1444413,0,0,-1,118.89686,231.56855)">
   <rect style="opacity:0.01" width="747.709" height="1" x="16" y="-109" transform="scale(1,-1)"/>
   <rect style="opacity:0" width="747.709" height="1" x="16" y="-110" transform="scale(1,-1)"/>
  </g>
  <g id="border-right" transform="matrix(0,0.1444413,-1,0,227.80078,12.163813)">
   <rect style="opacity:0.01" width="747.709" height="1" x="16" y="-109" transform="scale(1,-1)"/>
   <rect style="opacity:0" width="747.709" height="1" x="16" y="-110" transform="scale(1,-1)"/>
  </g>
 </g>
</svg>
