<?xml version="1.0" encoding="UTF-8" standalone="no"?>
<svg
   xmlns:dc="http://purl.org/dc/elements/1.1/"
   xmlns:cc="http://creativecommons.org/ns#"
   xmlns:rdf="http://www.w3.org/1999/02/22-rdf-syntax-ns#"
   xmlns:svg="http://www.w3.org/2000/svg"
   xmlns="http://www.w3.org/2000/svg"
   xmlns:xlink="http://www.w3.org/1999/xlink"
   xmlns:sodipodi="http://sodipodi.sourceforge.net/DTD/sodipodi-0.dtd"
   xmlns:inkscape="http://www.inkscape.org/namespaces/inkscape"
   inkscape:version="1.0.1 (3bc2e813f5, 2020-09-07)"
   sodipodi:docname="tooltip.svg"
   id="svg202"
   viewBox="0 0 173 56"
   version="1.1"
   height="56"
   width="173">
  <metadata
     id="metadata206">
    <rdf:RDF>
      <cc:Work
         rdf:about="">
        <dc:format>image/svg+xml</dc:format>
        <dc:type
           rdf:resource="http://purl.org/dc/dcmitype/StillImage" />
        <dc:title />
      </cc:Work>
    </rdf:RDF>
  </metadata>
  <sodipodi:namedview
     inkscape:document-rotation="0"
     inkscape:current-layer="svg202"
     inkscape:window-maximized="1"
     inkscape:window-y="24"
     inkscape:window-x="0"
     inkscape:cy="26.976732"
     inkscape:cx="81.432216"
     inkscape:zoom="9.8126396"
     showgrid="true"
     id="namedview204"
     inkscape:window-height="958"
     inkscape:window-width="1920"
     inkscape:pageshadow="2"
     inkscape:pageopacity="0"
     guidetolerance="10"
     gridtolerance="10"
     objecttolerance="10"
     borderopacity="1"
     bordercolor="#666666"
     pagecolor="#d4d4d4"
     inkscape:snap-bbox="true"
     inkscape:bbox-nodes="true"
     inkscape:snap-bbox-edge-midpoints="true">
    <inkscape:grid
       id="grid1300"
       type="xygrid" />
  </sodipodi:namedview>
  <style
     type="text/css"
     id="current-color-scheme">.ColorScheme-Text {
        color:#31363b;
        stop-color:#31363b;
      }
      .ColorScheme-Background {
        color:#eff0f1;
        stop-color:#eff0f1;
      }
      .ColorScheme-Highlight {
        color:#3daee9;
        stop-color:#3daee9;
      }
      .ColorScheme-ViewText {
        color:#31363b;
        stop-color:#31363b;
      }
      .ColorScheme-ViewBackground {
        color:#fcfcfc;
        stop-color:#fcfcfc;
      }
      .ColorScheme-ViewHover {
        color:#93cee9;
        stop-color:#93cee9;
      }
      .ColorScheme-ViewFocus{
        color:#3daee9;
        stop-color:#3daee9;
      }
      .ColorScheme-ButtonText {
        color:#31363b;
        stop-color:#31363b;
      }
      .ColorScheme-ButtonBackground {
        color:#eff0f1;
        stop-color:#eff0f1;
      }
      .ColorScheme-ButtonHover {
        color:#93cee9;
        stop-color:#93cee9;
      }
      .ColorScheme-ButtonFocus{
        color:#3daee9;
        stop-color:#3daee9;
      }</style>
  <defs
     id="defs26">
    <linearGradient
       id="a">
      <stop
         id="stop3"
         offset="0"
         stop-opacity=".66663" />
      <stop
         id="stop5"
         offset="1"
         stop-opacity="0" />
    </linearGradient>
    <linearGradient
       xlink:href="#a"
       gradientUnits="userSpaceOnUse"
       y2="-35"
       y1="-35"
       x2="-906.36"
       x1="-912.36"
       id="q" />
    <linearGradient
       xlink:href="#a"
       gradientUnits="userSpaceOnUse"
       y2="12"
       y1="12"
       x2="9"
       x1="15"
       id="p" />
    <radialGradient
       xlink:href="#a"
       gradientUnits="userSpaceOnUse"
       gradientTransform="rotate(-90.000005,-405.39,435.58996)"
       r="6"
       cy="913.97"
       cx="22.2"
       id="e" />
    <linearGradient
       xlink:href="#a"
       gradientUnits="userSpaceOnUse"
       gradientTransform="translate(58)"
       y2="2"
       y1="8"
       x2="19"
       x1="19"
       id="o" />
    <linearGradient
       xlink:href="#a"
       gradientUnits="userSpaceOnUse"
       y2="12"
       y1="12"
       x2="61"
       x1="55"
       id="n" />
    <radialGradient
       xlink:href="#a"
       gradientUnits="userSpaceOnUse"
       gradientTransform="translate(59.107,-903.77)"
       r="6"
       cy="911.76"
       cx="53.893"
       id="d" />
    <linearGradient
       xlink:href="#a"
       gradientUnits="userSpaceOnUse"
       gradientTransform="translate(58)"
       y2="2"
       y1="8"
       x2="51"
       x1="51"
       id="m" />
    <linearGradient
       xlink:href="#a"
       gradientUnits="userSpaceOnUse"
       y2="-35"
       y1="-35"
       x2="958.36"
       x1="952.36"
       id="l" />
    <linearGradient
       xlink:href="#a"
       gradientUnits="userSpaceOnUse"
       gradientTransform="translate(58)"
       y2="54"
       y1="48"
       x2="19"
       x1="19"
       id="k" />
    <radialGradient
       xlink:href="#a"
       gradientUnits="userSpaceOnUse"
       gradientTransform="rotate(-179.99991,40.320895,499.17997)"
       r="6"
       cy="950.36"
       cx="7.6429"
       id="c" />
    <linearGradient
       xlink:href="#a"
       gradientUnits="userSpaceOnUse"
       y2="44"
       y1="44"
       x2="9"
       x1="15"
       id="j" />
    <linearGradient
       xlink:href="#a"
       gradientUnits="userSpaceOnUse"
       gradientTransform="translate(58)"
       y2="54"
       y1="48"
       x2="51"
       x1="51"
       id="i" />
    <radialGradient
       xlink:href="#a"
       gradientUnits="userSpaceOnUse"
       gradientTransform="matrix(2.1666e-7,1,-0.99999,2.1665e-7,1058.1,-6.2502)"
       r="6"
       cy="945.11"
       cx="54.25"
       id="b" />
    <linearGradient
       xlink:href="#a"
       gradientUnits="userSpaceOnUse"
       y2="44"
       y1="44"
       x2="61"
       x1="55"
       id="h" />
    <linearGradient
       xlink:href="#a"
       gradientUnits="userSpaceOnUse"
       y2="932.36"
       y1="932.36"
       x2="-9"
       x1="-15"
       id="g" />
    <linearGradient
       xlink:href="#a"
       gradientUnits="userSpaceOnUse"
       y2="932.36"
       y1="932.36"
       x2="61"
       x1="55"
       id="f" />
    <style
       id="style24"
       type="text/css">.ColorScheme-Text {
        color:#31363b;
      }
      .ColorScheme-Background {
        color:#eff0f1;
      }
      .ColorScheme-Highlight {
        color:#3daee9;
      }
      .ColorScheme-ViewText {
        color:#31363b;
      }
      .ColorScheme-ViewBackground {
        color:#fcfcfc;
      }
      .ColorScheme-ViewHover {
        color:#93cee9;
      }
      .ColorScheme-ViewFocus{
        color:#3daee9;
      }
      .ColorScheme-ButtonText {
        color:#31363b;
      }
      .ColorScheme-ButtonBackground {
        color:#eff0f1;
      }
      .ColorScheme-ButtonHover {
        color:#93cee9;
      }
      .ColorScheme-ButtonFocus{
        color:#3daee9;
      }</style>
    <linearGradient
       id="linearGradient919">
      <stop
         style="stop-color:#000000;stop-opacity:0.66663194"
         offset="0"
         id="stop913" />
      <stop
         id="stop915"
         offset="0.5625"
         style="stop-color:#000000;stop-opacity:0.15" />
      <stop
         style="stop-color:#000000;stop-opacity:0;"
         offset="1"
         id="stop917" />
    </linearGradient>
    <radialGradient
       inkscape:collect="always"
       xlink:href="#linearGradient919"
       id="radialGradient954"
       gradientUnits="userSpaceOnUse"
       gradientTransform="matrix(1.1636765e-7,-2.6666664,2.6666668,1.1636731e-7,11.333332,221.35746)"
       cx="78.509056"
       cy="9.9999962"
       fx="78.509056"
       fy="9.9999962"
       r="6" />
    <radialGradient
       inkscape:collect="always"
       xlink:href="#linearGradient919"
       id="radialGradient1003"
       gradientUnits="userSpaceOnUse"
       gradientTransform="matrix(1.1636765e-7,-2.6666664,2.6666668,1.1636731e-7,11.333332,221.35746)"
       cx="78.509056"
       cy="9.9999962"
       fx="78.509056"
       fy="9.9999962"
       r="6" />
    <radialGradient
       inkscape:collect="always"
       xlink:href="#linearGradient919"
       id="radialGradient1043"
       gradientUnits="userSpaceOnUse"
       gradientTransform="matrix(1.1636765e-7,-2.6666664,2.6666668,1.1636731e-7,11.333332,221.35746)"
       cx="78.509056"
       cy="9.9999962"
       fx="78.509056"
       fy="9.9999962"
       r="6" />
    <radialGradient
       inkscape:collect="always"
       xlink:href="#linearGradient919"
       id="radialGradient1083"
       gradientUnits="userSpaceOnUse"
       gradientTransform="matrix(1.1636765e-7,-2.6666664,2.6666668,1.1636731e-7,11.333332,221.35746)"
       cx="78.509056"
       cy="9.9999962"
       fx="78.509056"
       fy="9.9999962"
       r="6" />
    <linearGradient
       inkscape:collect="always"
       xlink:href="#linearGradient4270"
       id="linearGradient4920"
       gradientUnits="userSpaceOnUse"
       x1="-916.36218"
       y1="-35"
       x2="-905.36218"
       y2="-35"
       gradientTransform="matrix(1.5000033,0,0,1,458.1841,0)" />
    <linearGradient
       id="linearGradient4270"
       inkscape:collect="always">
      <stop
         id="stop4272"
         offset="0"
         style="stop-color:#000000;stop-opacity:0.66663194" />
      <stop
         id="stop4274"
         offset="1"
         style="stop-color:#000000;stop-opacity:0;" />
    </linearGradient>
    <radialGradient
       inkscape:collect="always"
       xlink:href="#linearGradient4270"
       id="radialGradient994"
       gradientUnits="userSpaceOnUse"
       gradientTransform="matrix(-1.8522317e-5,-3.6666615,3.6666637,-1.8522329e-5,12.001518,300.33308)"
       cx="77"
       cy="11.99998"
       fx="77"
       fy="11.99998"
       r="6" />
    <radialGradient
       inkscape:collect="always"
       xlink:href="#linearGradient4270"
       id="radialGradient997"
       gradientUnits="userSpaceOnUse"
       gradientTransform="matrix(-1.8522317e-5,-3.6666615,3.6666637,-1.8522329e-5,12.001518,300.33308)"
       cx="77"
       cy="11.99998"
       fx="77"
       fy="11.99998"
       r="6" />
    <radialGradient
       inkscape:collect="always"
       xlink:href="#linearGradient4270"
       id="radialGradient1005"
       gradientUnits="userSpaceOnUse"
       gradientTransform="matrix(-1.8522317e-5,-3.6666615,3.6666637,-1.8522329e-5,12.001518,300.33308)"
       cx="77"
       cy="11.99998"
       fx="77"
       fy="11.99998"
       r="6" />
    <radialGradient
       inkscape:collect="always"
       xlink:href="#linearGradient4270"
       id="radialGradient1013"
       gradientUnits="userSpaceOnUse"
       gradientTransform="matrix(-1.8522317e-5,-3.6666615,3.6666637,-1.8522329e-5,12.001518,300.33308)"
       cx="77"
       cy="11.99998"
       fx="77"
       fy="11.99998"
       r="6" />
    <radialGradient
       inkscape:collect="always"
       xlink:href="#linearGradient4270"
       id="radialGradient1021"
       gradientUnits="userSpaceOnUse"
       gradientTransform="matrix(-1.8522317e-5,-3.6666615,3.6666637,-1.8522329e-5,12.001518,300.33308)"
       cx="77"
       cy="11.99998"
       fx="77"
       fy="11.99998"
       r="6" />
    <radialGradient
       inkscape:collect="always"
       xlink:href="#linearGradient4270"
       id="radialGradient931"
       gradientUnits="userSpaceOnUse"
       gradientTransform="matrix(-1.8522317e-5,-3.6666615,3.6666637,-1.8522329e-5,12.001518,300.33308)"
       cx="77"
       cy="11.99998"
       fx="77"
       fy="11.99998"
       r="6" />
    <linearGradient
       inkscape:collect="always"
       xlink:href="#linearGradient4270"
       id="linearGradient943"
       gradientUnits="userSpaceOnUse"
       gradientTransform="matrix(1.5000033,0,0,1,458.1841,0)"
       x1="-916.36218"
       y1="-35"
       x2="-905.36218"
       y2="-35" />
    <radialGradient
       inkscape:collect="always"
       xlink:href="#linearGradient4270"
       id="radialGradient951"
       gradientUnits="userSpaceOnUse"
       gradientTransform="matrix(-1.8522317e-5,-3.6666615,3.6666637,-1.8522329e-5,12.001518,300.33308)"
       cx="77"
       cy="11.99998"
       fx="77"
       fy="11.99998"
       r="6" />
    <linearGradient
       inkscape:collect="always"
       xlink:href="#linearGradient4270"
       id="linearGradient964"
       gradientUnits="userSpaceOnUse"
       gradientTransform="matrix(1.5000033,0,0,1,458.1841,0)"
       x1="-916.36218"
       y1="-35"
       x2="-905.36218"
       y2="-35" />
    <radialGradient
       inkscape:collect="always"
       xlink:href="#linearGradient4270"
       id="radialGradient972"
       gradientUnits="userSpaceOnUse"
       gradientTransform="matrix(-1.8522317e-5,-3.6666615,3.6666637,-1.8522329e-5,12.001518,300.33308)"
       cx="77"
       cy="11.99998"
       fx="77"
       fy="11.99998"
       r="6" />
    <linearGradient
       inkscape:collect="always"
       xlink:href="#linearGradient4270"
       id="linearGradient984"
       gradientUnits="userSpaceOnUse"
       gradientTransform="matrix(1.5000033,0,0,1,458.1841,0)"
       x1="-916.36218"
       y1="-35"
       x2="-905.36218"
       y2="-35" />
  </defs>
  <rect
     id="hint-tile-center"
     y="-1.4648437e-05"
     width="5"
     height="5"
     x="0"
     style="fill:#ff6600" />
  <g
     id="shadow-bottom"
     transform="matrix(0.62500001,0,0,-1.3333333,44.125063,1259.8163)">
    <rect
       transform="matrix(0,-1,-1,0,0,0)"
       style="opacity:1;fill:none;fill-opacity:1;stroke:none"
       id="rect953"
       width="6"
       height="32"
       x="-916.36218"
       y="-50.999985" />
    <rect
       transform="matrix(0,-1,-1,0,0,0)"
       style="opacity:0.25;fill:url(#linearGradient964);fill-opacity:1;stroke:none;stroke-width:1.22475"
       id="rect955"
       width="9.00002"
       height="32"
       x="-907.36218"
       y="-50.999985" />
    <rect
       y="-50.999985"
       x="-911.36218"
       height="32"
       width="0.99997741"
       id="rect958"
       style="opacity:1;fill:none;fill-opacity:1;stroke:none"
       transform="matrix(0,-1,-1,0,0,0)" />
    <rect
       y="-50.999985"
       x="-907.36218"
       height="32"
       width="0.74994695"
       id="rect960"
       style="opacity:0.25;fill:#000000;fill-opacity:1;stroke:none;stroke-width:0.353541"
       transform="matrix(0,-1,-1,0,0,0)" />
  </g>
  <g
     id="shadow-left"
     transform="matrix(0,0.62500001,1.3333333,0,-1165.8163,6.12501)">
    <rect
       transform="matrix(0,-1,-1,0,0,0)"
       style="opacity:1;fill:none;fill-opacity:1;stroke:none"
       id="rect974"
       width="6"
       height="32"
       x="-916.36218"
       y="-50.999985" />
    <rect
       transform="matrix(0,-1,-1,0,0,0)"
       style="opacity:0.25;fill:url(#linearGradient984);fill-opacity:1;stroke:none;stroke-width:1.22475"
       id="rect976"
       width="9.00002"
       height="32"
       x="-907.36218"
       y="-50.999985" />
    <rect
       y="-50.999985"
       x="-911.36218"
       height="32"
       width="0.99997741"
       id="rect978"
       style="opacity:1;fill:none;fill-opacity:1;stroke:none"
       transform="matrix(0,-1,-1,0,0,0)" />
    <rect
       y="-50.999985"
       x="-907.36218"
       height="32"
       width="0.74994695"
       id="rect980"
       style="opacity:0.25;fill:#000000;fill-opacity:1;stroke:none;stroke-width:0.353541"
       transform="matrix(0,-1,-1,0,0,0)" />
  </g>
  <g
     id="shadow-right"
     transform="matrix(0,0.62500001,-1.3333333,0,1297.8163,6.125031)">
    <rect
       transform="matrix(0,-1,-1,0,0,0)"
       style="opacity:1;fill:none;fill-opacity:1;stroke:none"
       id="rect933"
       width="6"
       height="32"
       x="-916.36218"
       y="-50.999985" />
    <rect
       transform="matrix(0,-1,-1,0,0,0)"
       style="opacity:0.25;fill:url(#linearGradient943);fill-opacity:1;stroke:none;stroke-width:1.22475"
       id="rect935"
       width="9.00002"
       height="32"
       x="-907.36218"
       y="-50.999985" />
    <rect
       y="-50.999985"
       x="-911.36218"
       height="32"
       width="0.99997741"
       id="rect937"
       style="opacity:1;fill:none;fill-opacity:1;stroke:none"
       transform="matrix(0,-1,-1,0,0,0)" />
    <rect
       y="-50.999985"
       x="-907.36218"
       height="32"
       width="0.74994695"
       id="rect939"
       style="opacity:0.25;fill:#000000;fill-opacity:1;stroke:none;stroke-width:0.353541"
       transform="matrix(0,-1,-1,0,0,0)" />
  </g>
  <g
     id="shadow-topleft"
     transform="translate(60.000079,-932.36216)"
     style="opacity:1">
    <path
       id="path4828"
       style="opacity:0.25;fill:url(#radialGradient994);fill-opacity:1;fill-rule:evenodd;stroke:none;stroke-width:2px;stroke-linecap:butt;stroke-linejoin:miter;stroke-opacity:1"
       d="M 32,-6 V 18 H 44 V 17 C 44,10.90603 48.906024,6 55,6 h 1 V -6 Z"
       transform="translate(-60.000026,932.36216)" />
    <path
       id="path962"
       style="opacity:0.25;fill:#000000;fill-opacity:1;fill-rule:evenodd;stroke:none;stroke-width:2px;stroke-linecap:butt;stroke-linejoin:miter;stroke-opacity:1"
       d="M 55,5 C 48.351988,5 43,10.35199 43,17 v 1 h 1 V 17 C 44,10.90603 48.906024,6 55,6 h 1 V 5 Z"
       transform="translate(-60.000026,932.36216)" />
  </g>
  <g
     id="top"
     transform="matrix(0.62500095,0,0,1.9999962,44.125014,-1814.7209)">
    <rect
       y="-50.999985"
       x="-916.36218"
       height="32"
       width="6"
       id="rect4152"
       style="color:#eff0f1;opacity:0.25;fill:#000000;fill-opacity:1;stroke:none"
       transform="matrix(0,-1,-1,0,0,0)"
       class="ColorScheme-Background" />
    <rect
       class="ColorScheme-Background"
       transform="matrix(0,-1,-1,0,0,0)"
       style="color:#eff0f1;opacity:0.05;fill:#ffffff;fill-opacity:1;stroke:none;stroke-width:0.288687"
       id="rect946"
       width="0.50004047"
       height="32"
       x="-910.86218"
       y="-50.999985" />
  </g>
  <g
     id="topleft"
     transform="translate(31.000053,-904.36218)">
    <path
       style="opacity:0.25;fill:#000000;fill-opacity:1;stroke:none;stroke-width:2"
       d="M 55,6 C 48.906024,6 44,10.90603 44,17 v 1 H 56 V 6 Z"
       transform="translate(-31,904.36218)"
       id="rect4159"
       inkscape:connector-curvature="0"
       sodipodi:nodetypes="sscccs" />
    <path
       transform="translate(-31,904.36218)"
       d="M 55,6 C 48.906024,6 44,10.90603 44,17 v 1 h 1 V 17.083984 C 45,11.497854 49.497852,7 55.083984,7 H 56 V 6 Z"
       style="opacity:0.05;fill:#ffffff;fill-opacity:1;stroke:none;stroke-width:2"
       id="path948" />
  </g>
  <g
     id="bottom"
     transform="matrix(0.62500095,0,0,2.0000038,44.125014,-1858.728)">
    <rect
       transform="rotate(90)"
       style="color:#eff0f1;opacity:0.25;fill:#000000;fill-opacity:1;stroke:none"
       id="rect4148"
       width="6"
       height="32"
       x="948.36218"
       y="-50.999985"
       class="ColorScheme-Background" />
    <rect
       class="ColorScheme-Background"
       y="-50.999985"
       x="953.86218"
       height="32"
       width="0.49999982"
       id="rect961"
       style="color:#eff0f1;opacity:0.05;fill:#ffffff;fill-opacity:1;stroke:none;stroke-width:0.288675"
       transform="rotate(90)" />
  </g>
  <g
     id="left"
     transform="matrix(1.9999994,0,0,0.62499857,18.000056,-554.72503)">
    <rect
       transform="scale(-1,1)"
       style="color:#eff0f1;opacity:0.25;fill:#000000;fill-opacity:1;stroke:none"
       id="rect4144"
       width="5.9999995"
       height="32"
       x="-19.000004"
       y="916.36218"
       class="ColorScheme-Background" />
    <rect
       class="ColorScheme-Background"
       y="916.36218"
       x="-13.500003"
       height="32"
       width="0.49999827"
       id="rect957"
       style="color:#eff0f1;opacity:0.05;fill:#ffffff;fill-opacity:1;stroke:none;stroke-width:0.288675"
       transform="scale(-1,1)" />
  </g>
  <g
     id="right"
     transform="matrix(1.9999975,0,0,0.62499857,-25.999791,-554.72503)">
    <rect
       y="916.36218"
       x="50.999985"
       height="32"
       width="5.9999995"
       id="rect4140"
       style="color:#eff0f1;opacity:0.25;fill:#000000;fill-opacity:1;stroke:none"
       class="ColorScheme-Background" />
    <rect
       class="ColorScheme-Background"
       style="color:#eff0f1;opacity:0.05;fill:#ffffff;fill-opacity:1;stroke:none;stroke-width:0.288673"
       id="rect959"
       width="0.49999163"
       height="32"
       x="56.499992"
       y="916.36218" />
  </g>
  <rect
     class="ColorScheme-Background"
     y="18.000004"
     x="56.000061"
     height="19.999992"
     width="19.999992"
     id="center"
     style="color:#eff0f1;opacity:0.25;fill:#000000;fill-opacity:1;stroke:none;stroke-width:0.625;stop-color:#eff0f1" />
  <rect
     style="fill:#ff00ff;fill-opacity:1;stroke:none;stroke-width:1.1547"
     id="hint-top-margin"
     width="4"
     height="7.9999771"
     x="64.000053"
     y="6.0000038" />
  <rect
     y="42.000004"
     x="64.000053"
     height="8.0001125"
     width="4"
     id="hint-bottom-margin"
     style="fill:#ff00ff;fill-opacity:1;stroke:none;stroke-width:1.15471" />
  <rect
     y="-88.000069"
     x="26.000002"
     height="8.0000153"
     width="4"
     id="hint-right-margin"
     style="fill:#ff00ff;fill-opacity:1;stroke:none;stroke-width:1.1547"
     transform="rotate(90)" />
  <rect
     style="fill:#ff00ff;fill-opacity:1;stroke:none;stroke-width:1.1547"
     id="hint-left-margin"
     width="4"
     height="8"
     x="26.000002"
     y="-52.000053"
     transform="rotate(90)" />
  <g
     id="shadow-top"
     transform="matrix(0.62500001,0,0,1.3333333,44.125062,-1203.8163)"
     style="opacity:1">
    <rect
       transform="matrix(0,-1,-1,0,0,0)"
       style="opacity:1;fill:none;fill-opacity:1;stroke:none"
       id="rect4820"
       width="6"
       height="32"
       x="-916.36218"
       y="-50.999985" />
    <rect
       transform="matrix(0,-1,-1,0,0,0)"
       style="opacity:0.25;fill:url(#linearGradient4920);fill-opacity:1;stroke:none;stroke-width:1.22475"
       id="rect4822"
       width="9.00002"
       height="32"
       x="-907.36218"
       y="-50.999985" />
    <rect
       y="-50.999985"
       x="-911.36218"
       height="32"
       width="0.99997741"
       id="rect4824"
       style="opacity:1;fill:none;fill-opacity:1;stroke:none"
       transform="matrix(0,-1,-1,0,0,0)" />
    <rect
       y="-50.999985"
       x="-907.36218"
       height="32"
       width="0.74994695"
       id="rect986"
       style="opacity:0.25;fill:#000000;fill-opacity:1;stroke:none;stroke-width:0.353541"
       transform="matrix(0,-1,-1,0,0,0)" />
  </g>
  <rect
     y="-5.9999962"
     x="64.000053"
     height="12"
     width="4"
     id="shadow-hint-top-margin"
     style="fill:#ff6600;fill-opacity:1;stroke:none;stroke-width:1.41422" />
  <rect
     style="fill:#ff6600;fill-opacity:1;stroke:none;stroke-width:1.41421"
     id="shadow-hint-bottom-margin"
     width="4"
     height="11.999977"
     x="64.000053"
     y="50.000004" />
  <rect
     transform="rotate(90)"
     style="fill:#ff6600;fill-opacity:1;stroke:none;stroke-width:1.41422"
     id="shadow-hint-right-margin"
     width="3.9999769"
     height="12"
     x="26.000002"
     y="-100.00005" />
  <rect
     transform="rotate(90)"
     y="-44.000053"
     x="26.000002"
     height="12"
     width="4.0000229"
     id="shadow-hint-left-margin"
     style="fill:#ff6600;fill-opacity:1;stroke:none;stroke-width:1.41421" />
  <g
     id="mask-top"
     transform="matrix(0.62500018,0,0,1.0000017,114.12504,-904.36377)">
    <rect
       transform="matrix(0,-1,-1,0,0,0)"
       style="opacity:1;fill:#000000;fill-opacity:1;stroke:none;stroke-width:1.54919"
       id="rect4265"
       width="11.999931"
       height="32.000015"
       x="-922.36218"
       y="-51" />
  </g>
  <g
     id="mask-bottom"
     transform="matrix(0.62500018,0,0,1.2000051,114.12504,-1095.2395)">
    <rect
       y="-51"
       x="944.36224"
       height="32.000015"
       width="9.9999723"
       id="rect4291"
       style="opacity:1;fill:#000000;fill-opacity:1;stroke:none;stroke-width:1.41421"
       transform="rotate(90)" />
  </g>
  <g
     id="mask-left"
     transform="matrix(1.0909091,0,0,1,99.818234,-904.36218)">
    <rect
       y="922.36218"
       x="-24"
       height="20.000069"
       width="10.999996"
       id="rect4317"
       style="opacity:1;fill:#000000;fill-opacity:1;stroke:none;stroke-width:1.17261"
       transform="scale(-1,1)" />
  </g>
  <g
     id="mask-right"
     transform="matrix(1.2000003,0,0,0.62500169,89.600038,-554.72794)">
    <rect
       style="opacity:1;fill:#000000;fill-opacity:1;stroke:none;stroke-width:1.41421"
       id="rect4323"
       width="9.9999828"
       height="32.000023"
       x="47"
       y="916.36218" />
  </g>
  <rect
     style="opacity:1;fill:#000000;fill-opacity:1;stroke:none;stroke-width:0.625001"
     id="mask-center"
     width="20.00004"
     height="20.00004"
     x="126.00003"
     y="17.999943" />
  <use
     x="0"
     y="0"
     xlink:href="#topleft"
     id="topright"
     transform="rotate(90,66.000063,27.999991)"
     width="100%"
     height="100%" />
  <use
     x="0"
     y="0"
     xlink:href="#topleft"
     id="bottomleft"
     transform="matrix(1,0,0,-1,-1.1740562e-7,55.999942)"
     width="100%"
     height="100%" />
  <use
     x="0"
     y="0"
     xlink:href="#topleft"
     id="bottomright"
     transform="rotate(180,66.000054,27.999992)"
     width="100%"
     height="100%" />
  <g
     transform="matrix(1.0000023,0,0,1.0000023,101.00002,-904.36428)"
     id="mask-topleft">
    <path
       style="opacity:1;fill:#000000;fill-opacity:1;stroke:none;stroke-width:1.83333"
       d="m 140,6 c -6.09399,0 -11,4.906013 -11,11 h 11 z"
       transform="matrix(1.0909091,0,0,1.0909091,-127.72727,903.81674)"
       id="path972"
       inkscape:connector-curvature="0" />
  </g>
  <use
     x="0"
     y="0"
     xlink:href="#mask-topleft"
     id="mask-topright"
     transform="matrix(-1,0,0,1,272.0001,-8.8476689e-8)"
     width="100%"
     height="100%" />
  <use
     x="0"
     y="0"
     xlink:href="#mask-topleft"
     id="mask-bottomleft"
     transform="matrix(1,0,0,-1,-1.1740562e-7,55.999942)"
     width="100%"
     height="100%" />
  <use
     x="0"
     y="0"
     xlink:href="#mask-topleft"
     id="mask-bottomright"
     transform="rotate(180,136.00006,27.999982)"
     width="100%"
     height="100%" />
  <rect
     style="color:#eff0f1;opacity:0;fill:#000000;fill-opacity:1;stroke:none;stroke-width:0.625;stop-color:#eff0f1"
     id="shadow-center"
     width="19.999992"
     height="19.999992"
     x="56.000061"
     y="72"
     class="ColorScheme-Background" />
  <g
     id="shadow-topright"
     transform="matrix(-1,0,0,1,72.000021,-932.36214)">
    <path
       id="path925"
       style="opacity:0.25;fill:url(#radialGradient931);fill-opacity:1;fill-rule:evenodd;stroke:none;stroke-width:2px;stroke-linecap:butt;stroke-linejoin:miter;stroke-opacity:1"
       d="M 32,-6 V 18 H 44 V 17 C 44,10.90603 48.906024,6 55,6 h 1 V -6 Z"
       transform="translate(-60.000026,932.36216)" />
    <path
       id="path927"
       style="opacity:0.25;fill:#000000;fill-opacity:1;fill-rule:evenodd;stroke:none;stroke-width:2px;stroke-linecap:butt;stroke-linejoin:miter;stroke-opacity:1"
       d="M 55,5 C 48.351988,5 43,10.35199 43,17 v 1 h 1 V 17 C 44,10.90603 48.906024,6 55,6 h 1 V 5 Z"
       transform="translate(-60.000026,932.36216)" />
  </g>
  <g
     id="shadow-bottomleft"
     transform="matrix(1,0,0,-1,60.000079,988.3622)">
    <path
       id="path966"
       style="opacity:0.25;fill:url(#radialGradient972);fill-opacity:1;fill-rule:evenodd;stroke:none;stroke-width:2px;stroke-linecap:butt;stroke-linejoin:miter;stroke-opacity:1"
       d="M 32,-6 V 18 H 44 V 17 C 44,10.90603 48.906024,6 55,6 h 1 V -6 Z"
       transform="translate(-60.000026,932.36216)" />
    <path
       id="path968"
       style="opacity:0.25;fill:#000000;fill-opacity:1;fill-rule:evenodd;stroke:none;stroke-width:2px;stroke-linecap:butt;stroke-linejoin:miter;stroke-opacity:1"
       d="M 55,5 C 48.351988,5 43,10.35199 43,17 v 1 h 1 V 17 C 44,10.90603 48.906024,6 55,6 h 1 V 5 Z"
       transform="translate(-60.000026,932.36216)" />
  </g>
  <g
     id="shadow-bottomright"
     transform="rotate(180,36.000015,494.18109)">
    <path
       id="path945"
       style="opacity:0.25;fill:url(#radialGradient951);fill-opacity:1;fill-rule:evenodd;stroke:none;stroke-width:2px;stroke-linecap:butt;stroke-linejoin:miter;stroke-opacity:1"
       d="M 32,-6 V 18 H 44 V 17 C 44,10.90603 48.906024,6 55,6 h 1 V -6 Z"
       transform="translate(-60.000026,932.36216)" />
    <path
       id="path947"
       style="opacity:0.25;fill:#000000;fill-opacity:1;fill-rule:evenodd;stroke:none;stroke-width:2px;stroke-linecap:butt;stroke-linejoin:miter;stroke-opacity:1"
       d="M 55,5 C 48.351988,5 43,10.35199 43,17 v 1 h 1 V 17 C 44,10.90603 48.906024,6 55,6 h 1 V 5 Z"
       transform="translate(-60.000026,932.36216)" />
  </g>
</svg>
