<svg xmlns="http://www.w3.org/2000/svg" width="32" height="32" version="1">
 <g id="22-22-cadence" transform="translate(27,5)">
  <rect style="opacity:0.001" width="22" height="22" x="5" y="5"/>
  <path style="fill:#232627" d="m 15.999999,8.0001308 c -0.904957,0.015 -2.28497,0.225514 -2.642578,0.615235 -0.381363,0.415605 -0.46397,0.999909 -0.357422,1.6464842 0.203127,1.232663 1.905361,2.743927 2.914062,4.103516 -0.007,0.0088 -0.01442,0.01857 -0.02148,0.02734 -0.508075,0.632274 -1.56773,1.212279 -2.0625,1.703125 0.07975,-0.359236 0.137175,-1.149442 0.150391,-1.398438 0.01132,-0.213292 0.0056,-0.378794 -0.06055,-0.513671 -0.03308,-0.06744 -0.09243,-0.132099 -0.173828,-0.158204 -0.0814,-0.02611 -0.165398,-0.0087 -0.238282,0.02539 -0.196786,0.504927 -0.522267,1.184166 -0.787109,1.81836 -0.243544,0.404481 -0.415716,1.128721 -0.527344,1.386718 -0.05748,0.132851 -0.100289,0.248703 -0.126953,0.34961 -0.02512,0.09506 -0.03744,0.178583 -0.0332,0.255859 0.13912,0.187597 0.364068,0.160151 0.546875,0.171875 0.07935,-8.32e-4 0.162269,-0.01488 0.253906,-0.07031 0.215049,-0.130093 0.478403,-0.335675 0.759766,-0.576172 -0.200672,0.664198 -0.234613,0.875986 -0.554688,1.61914 -0.0044,0.01036 -0.01114,0.0209 -0.01563,0.03125 -1.688895,-0.229902 -3.4501608,-0.0842 -4.6425778,0.326172 -0.625464,0.215252 -1.107127,0.69495 -1.294922,1.22461 -0.187794,0.529662 -0.07342,1.202608 0.398438,2.037109 0.471855,0.834501 0.992354,1.217025 1.546875,1.335938 0.554521,0.118912 1.1083228,-0.0366 1.6210938,-0.451172 0.97757,-0.790357 1.859026,-2.624004 2.544921,-4.167969 0.01126,0.0017 0.02391,0.0023 0.03516,0.0039 0.807741,0.119162 1.582568,1.20627 2.259767,1.384766 -0.354601,0.11134 -0.769443,0.226614 -0.994142,0.339843 -0.192386,0.09695 -0.334923,0.184475 -0.419921,0.308594 -0.0425,0.06206 -0.07058,0.145725 -0.05273,0.228516 0.01785,0.08279 0.07626,0.146031 0.142578,0.191406 0.132645,0.09075 0.320905,0.140705 0.601562,0.181641 0.280656,0.04093 0.750689,0.06587 1.226563,0.07227 0.0014,1.9e-5 0.0025,-1.9e-5 0.0039,0 0.0014,-1.9e-5 0.0025,1.9e-5 0.0039,0 0.475874,-0.0064 0.945907,-0.03134 1.226563,-0.07227 0.280657,-0.04094 0.468917,-0.09089 0.601562,-0.181641 0.06632,-0.04537 0.124728,-0.108616 0.142578,-0.191406 0.01785,-0.08279 -0.01023,-0.166456 -0.05273,-0.228516 -0.085,-0.124119 -0.227536,-0.211644 -0.419922,-0.308594 -0.224699,-0.113228 -0.639541,-0.228503 -0.994141,-0.339843 0.677199,-0.178496 1.452025,-1.265604 2.259766,-1.384766 0.01125,-0.0016 0.0239,-0.0022 0.03516,-0.0039 0.685895,1.543965 1.567352,3.377612 2.544922,4.167969 0.51277,0.414572 1.066573,0.570084 1.621094,0.451172 0.554521,-0.118913 1.07502,-0.501437 1.546875,-1.335938 0.471858,-0.834501 0.586232,-1.507447 0.398437,-2.037109 -0.187795,-0.52966 -0.669457,-1.009358 -1.294921,-1.22461 -1.192417,-0.410372 -2.953685,-0.556074 -4.642579,-0.326172 -0.0045,-0.01035 -0.01122,-0.02089 -0.01562,-0.03125 -0.320077,-0.743154 -0.354016,-0.954942 -0.554688,-1.61914 0.281363,0.240497 0.544717,0.446079 0.759766,0.576172 0.09164,0.05543 0.174556,0.06948 0.253906,0.07031 0.182807,-0.01172 0.407755,0.01572 0.546875,-0.171875 0.0042,-0.07728 -0.0081,-0.160799 -0.0332,-0.255859 -0.02666,-0.100907 -0.06947,-0.216759 -0.126953,-0.34961 -0.111628,-0.257997 -0.2838,-0.982237 -0.527344,-1.386718 -0.264842,-0.634194 -0.590324,-1.313433 -0.787109,-1.81836 -0.07289,-0.03408 -0.156882,-0.0515 -0.238282,-0.02539 -0.0814,0.0261 -0.140748,0.09076 -0.173828,0.158204 -0.06615,0.134878 -0.07187,0.300379 -0.06055,0.513671 0.01322,0.248996 0.07064,1.039202 0.150391,1.398438 -0.49477,-0.490842 -1.554425,-1.070847 -2.0625,-1.703121 -0.0071,-0.0088 -0.01449,-0.01854 -0.02148,-0.02734 1.008693,-1.359589 2.710927,-2.870853 2.914054,-4.103516 0.106548,-0.6465752 0.02394,-1.2308792 -0.357422,-1.6464842 -0.357608,-0.389721 -1.737621,-0.600235 -2.642578,-0.615235 z"/>
 </g>
 <g id="cadence">
  <rect style="opacity:0.001" width="32" height="32" x="0" y="0"/>
  <path style="fill:#232627" d="m 16.499945,3.9999996 c -1.35743,0.0225 -3.427441,0.3382764 -3.96385,0.9228673 -0.572043,0.6234175 -0.695953,1.4998876 -0.536131,2.469766 0.304689,1.8490243 2.858029,4.1159571 4.371075,6.1553731 -0.0105,0.0132 -0.02163,0.02785 -0.03222,0.04101 -0.762109,0.948426 -2.351585,1.818448 -3.093737,2.554729 0.119624,-0.538863 0.20576,-1.724191 0.225585,-2.097691 0.01699,-0.319943 0.0084,-0.5682 -0.09082,-0.770519 -0.04963,-0.101157 -0.138645,-0.198152 -0.260742,-0.23731 -0.122099,-0.03917 -0.248096,-0.01304 -0.357422,0.03809 -0.295177,0.757402 -0.783397,1.776277 -1.180658,2.727583 -0.365315,0.606731 -0.623572,1.693109 -0.791013,2.080111 -0.08622,0.19928 -0.150432,0.373061 -0.190428,0.524423 -0.03768,0.142593 -0.05616,0.26788 -0.0498,0.383795 0.208678,0.2814 0.5461,0.240231 0.820309,0.257817 0.119024,-0.0012 0.243402,-0.02232 0.380858,-0.105467 0.322572,-0.195142 0.717601,-0.503521 1.139644,-0.864271 -0.301006,0.996313 -0.351918,1.313999 -0.832029,2.428748 -0.0066,0.01554 -0.01671,0.03135 -0.02344,0.04688 -2.5333328,-0.344858 -5.1752212,-0.126302 -6.9638395,0.489266 -0.9381923,0.322884 -1.660684,1.042442 -1.9423753,1.836945 -0.2816899,0.794505 -0.1101297,1.803941 0.5976546,3.055713 0.7077796,1.251771 1.4885251,1.825566 2.3203032,2.003938 0.8317783,0.178371 1.6624777,-0.0549 2.4316312,-0.676768 1.4663492,-1.185555 2.7885278,-3.936069 3.8173668,-6.252055 0.01689,0.0026 0.03587,0.0034 0.05274,0.0059 1.211606,0.178747 2.373842,1.809435 3.389637,2.077183 -0.531899,0.167012 -1.15416,0.339927 -1.491207,0.509772 -0.288578,0.145428 -0.502382,0.276718 -0.629879,0.462899 -0.06375,0.09309 -0.10587,0.218591 -0.0791,0.342779 0.02677,0.124187 0.114389,0.219051 0.213865,0.287114 0.198966,0.136127 0.481356,0.211061 0.90234,0.272466 0.420983,0.0614 1.126029,0.09881 1.839836,0.108407 0.0021,2.8e-5 0.0037,-2.8e-5 0.0059,0 0.0021,-2.8e-5 0.0037,2.8e-5 0.0059,0 0.713808,-0.0096 1.418854,-0.04701 1.839836,-0.108407 0.420985,-0.06141 0.703374,-0.136337 0.90234,-0.272466 0.09948,-0.06805 0.187092,-0.162927 0.213867,-0.287114 0.02677,-0.124186 -0.01535,-0.249687 -0.0791,-0.342779 -0.127501,-0.186181 -0.341304,-0.317471 -0.629882,-0.462899 -0.337047,-0.169844 -0.959307,-0.34276 -1.491205,-0.509772 1.015795,-0.267748 2.178028,-1.898436 3.389635,-2.077183 0.01687,-0.0024 0.03585,-0.0033 0.05274,-0.0059 1.028839,2.315986 2.351019,5.0665 3.817369,6.252055 0.769151,0.621868 1.599852,0.855139 2.431631,0.676768 0.831777,-0.178372 1.612522,-0.752167 2.320302,-2.003938 0.707785,-1.251772 0.879345,-2.261208 0.597654,-3.055713 -0.281692,-0.794503 -1.004182,-1.514061 -1.942374,-1.836945 -1.788619,-0.615568 -4.43051,-0.834124 -6.963841,-0.489266 -0.0067,-0.01553 -0.01683,-0.03134 -0.02343,-0.04688 -0.480114,-1.114749 -0.531022,-1.432435 -0.832028,-2.428748 0.422043,0.36075 0.817072,0.669129 1.139644,0.864271 0.137459,0.08315 0.261833,0.104222 0.380858,0.105467 0.274209,-0.01758 0.611629,0.02357 0.820308,-0.257817 0.0063,-0.115921 -0.01215,-0.241202 -0.0498,-0.383795 -0.03999,-0.151362 -0.104205,-0.325143 -0.190428,-0.524423 -0.167442,-0.387002 -0.425699,-1.47338 -0.791013,-2.080111 -0.397262,-0.951306 -0.885483,-1.970181 -1.18066,-2.727583 -0.109334,-0.05112 -0.235322,-0.07725 -0.357421,-0.03809 -0.1221,0.03915 -0.211121,0.136143 -0.260741,0.23731 -0.09923,0.20232 -0.107805,0.450576 -0.09082,0.770519 0.01983,0.3735 0.105961,1.558828 0.225586,2.097691 -0.742152,-0.736275 -2.331628,-1.606297 -3.093738,-2.554723 -0.01065,-0.0132 -0.02174,-0.02781 -0.03222,-0.04101 1.513033,-2.039416 4.066375,-4.3063488 4.371064,-6.155373 0.159832,-0.9698785 0.03592,-1.8463485 -0.53612,-2.4697661 C 19.927503,4.3382819 17.857491,4.022506 16.500061,4.0000056 Z"/>
 </g>
</svg>
