<svg xmlns="http://www.w3.org/2000/svg" width="32" height="32" version="1.1">
 <g id="22-22-document-encrypt" transform="translate(32,-22)">
  <rect  style="opacity:0.001" width="22" height="22" x="0" y="0"/>
  <path  style="opacity:1;fill:#232627" d="M 11,3 C 8.784,3 7,4.784 7,7 V 9 C 5.892,9 5,9.892 5,11 v 6 c 0,1.108 0.892,2 2,2 h 8 c 1.108,0 2,-0.892 2,-2 V 11 C 17,9.892 16.108,9 15,9 V 7 C 15,4.784 13.216,3 11,3 Z m 0,1 c 1.662,0 3,1.561 3,3.5 V 9 H 8 V 7.5 C 8,5.561 9.338,4 11,4 Z m 0,7 a 2,2 0 0 1 2,2 2,2 0 0 1 -1,1.728516 V 17 H 10 V 14.730469 A 2,2 0 0 1 9,13 2,2 0 0 1 11,11 Z"/>
 </g>
 <g id="22-22-document-open-recent" transform="translate(-5e-7,-54)">
  <rect  style="opacity:0.001" width="22" height="22" x="0" y="32"/>
  <path  style="opacity:1;fill:#232627" d="m 6,35 c -1.108,0 -2,0.892 -2,2 v 12 c 0,1.108 0.892,2 2,2 h 5.677734 A 4.5,4.5 0 0 1 10.761719,50 H 6 C 5.428703,50 5,49.571297 5,49 V 37 c 0,-0.571297 0.428703,-1 1,-1 h 10 c 0.571297,0 1,0.428703 1,1 v 6.759766 a 4.5,4.5 0 0 1 1,0.914062 V 37 c 0,-1.108 -0.892,-2 -2,-2 z m 8.5,9 C 12.561004,44 11,45.561004 11,47.5 11,49.438996 12.561004,51 14.5,51 16.438996,51 18,49.438996 18,47.5 18,45.561004 16.438996,44 14.5,44 Z M 14,45 h 0.900391 v 2 H 17 v 1 H 14.900391 14 v -1 z"/>
 </g>
 <g id="22-22-document-decrypt" transform="translate(64,-22)">
  <rect  style="opacity:0.001" width="22" height="22" x="0" y="0"/>
  <path  style="opacity:1;fill:#232627" transform="translate(-22)" d="m 33,3 c -1.86855,0 -3.417636,1.2737034 -3.861328,3 h 1.171875 C 30.788834,4.8196149 31.801919,4 33,4 c 1.662,0 3,1.561 3,3.5 V 9 h -4 -2 -1 c -1.108,0 -2,0.892 -2,2 v 6 c 0,1.108 0.892,2 2,2 h 8 c 1.108,0 2,-0.892 2,-2 V 11 C 39,9.892 38.108,9 37,9 V 7 C 37,4.784 35.216,3 33,3 Z m 0,8 a 2,2 0 0 1 2,2 2,2 0 0 1 -1,1.728516 V 17 H 32 V 14.730469 A 2,2 0 0 1 31,13 2,2 0 0 1 33,11 Z"/>
 </g>
 <g id="document-open-recent">
  <rect  style="opacity:0.001" width="32" height="32" x="0" y="0"/>
  <path  style="opacity:1;fill:#232627" d="M 9,4 C 7.338,4 6,5.3379999 6,7 v 18 c 0,1.662001 1.338,3 3,3 h 9.039062 C 17.58889,27.71692 17.176832,27.3817 16.810547,27 H 9 C 7.8747024,26.99993 7,26.125299 7,25 V 7 C 7,5.8747027 7.8747028,5 9,5 h 15 c 1.125297,0 2,0.8747026 2,2 v 10.810547 c 0.3817,0.366285 0.716919,0.778343 1,1.228515 V 7 C 27,5.3379999 25.662,4 24,4 Z M 21.5,17 C 18.453007,17 16,19.453007 16,22.5 16,25.546993 18.453007,28 21.5,28 24.546993,28 27,25.546993 27,22.5 27,19.453007 24.546993,17 21.5,17 Z M 21,19 h 1 v 3 h 3 v 1 h -3 -1 v -1 z"/>
 </g>
 <g id="document-encrypt" transform="translate(32)">
  <rect  style="opacity:0.001" width="32" height="32" x="0" y="0"/>
  <path  style="opacity:1;fill:#232627" d="m 16,4 c -3.323999,0 -6,2.6759991 -6,6 v 3 c -1.6620002,0 -3,1.338 -3,3 v 9 c 0,1.662 1.3379997,3 3,3 h 12 c 1.662001,0 3,-1.338 3,-3 v -9 c 0,-1.662 -1.337999,-3 -3,-3 V 10 C 22,6.6759991 19.324,4 16,4 Z m 0,1 c 2.787297,0 5,2.2127017 5,5 v 3 H 11 v -3 c 0,-2.7872983 2.212704,-5 5,-5 z m 0,11 a 3,3 0 0 1 3,3 3,3 0 0 1 -2,2.826172 V 25 H 15 V 21.824219 A 3,3 0 0 1 13,19 3,3 0 0 1 16,16 Z"/>
 </g>
 <g id="document-decrypt" transform="translate(64)">
  <rect  style="opacity:0.001" width="32" height="32" x="0" y="0"/>
  <path  style="opacity:1;fill:#232627" d="m 16,4 c -2.620655,0 -4.831093,1.6671332 -5.652344,4 h 1.064453 C 12.175669,6.2262991 13.927187,5 16,5 c 2.787297,0 5,2.2127017 5,5 v 3 H 15.402344 11 10 c -1.6620002,0 -3,1.338 -3,3 v 9 c 0,1.662 1.3379997,3 3,3 h 12 c 1.662001,0 3,-1.338 3,-3 v -9 c 0,-1.662 -1.337999,-3 -3,-3 V 10 C 22,6.6759991 19.324,4 16,4 Z m 0,12 a 3,3 0 0 1 3,3 3,3 0 0 1 -2,2.826172 V 25 H 15 V 21.824219 A 3,3 0 0 1 13,19 3,3 0 0 1 16,16 Z"/>
 </g>
</svg>
