<svg xmlns="http://www.w3.org/2000/svg" width="32" height="32" version="1.1">
 <g id="22-22-drive-harddisk" transform="translate(32.000001,10.000001)">
  <rect  style="opacity:0.001" width="22" height="22" x="0" y="0"/>
  <path  style="opacity:1;fill:#232627" d="M 6,3 C 4.892,3 4,3.892 4,5 v 9 3 c 0,1.108 0.892,2 2,2 h 10 c 1.108,0 2,-0.892 2,-2 V 14 5 C 18,3.892 17.108,3 16,3 Z m 0,1 h 10 c 0.571297,0 1,0.4287028 1,1 V 15.724609 C 16.704999,15.895709 16.36693,16 16,16 H 6 C 5.6330699,16 5.2950013,15.895709 5,15.724609 V 5 C 5,4.4287028 5.4287028,4 6,4 Z m 5,2 C 8.7908565,6 7,7.7908575 7,10 v 4 h 4 c 2.209143,0 4,-1.790857 4,-4 0,-2.2091425 -1.790857,-4 -4,-4 z m 0,2 a 1.9999987,1.9999987 0 0 1 2,2 1.9999987,1.9999987 0 0 1 -2,2 1.9999987,1.9999987 0 0 1 -2,-2 1.9999987,1.9999987 0 0 1 2,-2 z m -4,9 h 4 v 1 H 7 Z m 5,0 h 3 v 1 h -3 z"/>
 </g>
 <g id="drive-harddisk">
  <rect  style="opacity:0.001" width="32" height="32" x="0" y="0"/>
  <path  style="opacity:1;fill:#232627" d="M 9 4 C 7.338 4 6 5.338 6 7 L 6 20.5 L 6 21 L 6 25 C 6 26.662 7.338 28 9 28 L 24 28 C 25.661999 28 27 26.662 27 25 L 27 21 L 27 20.5 L 27 7 C 27 5.338 25.661999 4 24 4 L 9 4 z M 9 5 L 24 5 C 25.125296 5 26 5.8747032 26 7 L 26 20.5 L 26 23.224609 C 25.469123 23.70179 24.773297 24 24 24 L 9 24 C 8.226703 24 7.5308766 23.70179 7 23.224609 L 7 20.5 L 7 7 C 7 5.8747028 7.8747028 5 9 5 z M 16.5 8 C 12.910142 8 10 10.910144 10 14.5 L 10 21 L 16.5 21 C 20.089858 21 23 18.089858 23 14.5 C 23 10.910144 20.089858 8 16.5 8 z M 16.5 11 A 3.4999974 3.4999974 0 0 1 20 14.5 A 3.4999974 3.4999974 0 0 1 16.5 18 A 3.4999974 3.4999974 0 0 1 13 14.5 A 3.4999974 3.4999974 0 0 1 16.5 11 z M 10 25 L 16 25 L 16 26 L 10 26 L 10 25 z M 18 25 L 22 25 L 22 26 L 18 26 L 18 25 z"/>
 </g>
</svg>
