<svg xmlns="http://www.w3.org/2000/svg" width="32" height="32" version="1.1">
 <g id="22-22-emblem-shared-symbolic" transform="translate(32.000001,10.000001)">
  <rect  style="opacity:0.001" width="22" height="22" x="0" y="0"/>
  <path  style="opacity:1;fill:#232627" d="m 15,3 a 3,3 0 0 0 -3,3 3,3 0 0 0 0.228516,1.1425781 L 9.2402344,9.0097656 A 3,3 0 0 0 7,8 3,3 0 0 0 4,11 3,3 0 0 0 7,14 3,3 0 0 0 9.2421875,12.990234 l 2.9843745,1.867188 A 3,3 0 0 0 12,16 a 3,3 0 0 0 3,3 3,3 0 0 0 3,-3 3,3 0 0 0 -3,-3 3,3 0 0 0 -2.242188,1.009766 L 9.7734375,12.142578 A 3,3 0 0 0 10,11 3,3 0 0 0 9.7714844,9.8574219 L 12.759766,7.9902344 A 3,3 0 0 0 15,9 3,3 0 0 0 18,6 3,3 0 0 0 15,3 Z"/>
 </g>
 <g id="emblem-shared-symbolic">
  <rect  style="opacity:0.001" width="32" height="32" x="0" y="0"/>
  <path  style="opacity:1;fill:#232627" d="M 22.5 4 A 4.5 4.5 0 0 0 18 8.5 A 4.5 4.5 0 0 0 18.390625 10.318359 L 14.107422 12.816406 A 4.5 4.5 0 0 0 10.5 11 A 4.5 4.5 0 0 0 6 15.5 A 4.5 4.5 0 0 0 10.5 20 A 4.5 4.5 0 0 0 14.107422 18.181641 L 18.388672 20.679688 A 4.5 4.5 0 0 0 18 22.5 A 4.5 4.5 0 0 0 22.5 27 A 4.5 4.5 0 0 0 27 22.5 A 4.5 4.5 0 0 0 22.5 18 A 4.5 4.5 0 0 0 18.892578 19.818359 L 14.611328 17.320312 A 4.5 4.5 0 0 0 15 15.5 A 4.5 4.5 0 0 0 14.609375 13.681641 L 18.892578 11.183594 A 4.5 4.5 0 0 0 22.5 13 A 4.5 4.5 0 0 0 27 8.5 A 4.5 4.5 0 0 0 22.5 4 z"/>
 </g>
</svg>
