<svg xmlns="http://www.w3.org/2000/svg" width="32" height="32" version="1.1">
 <g id="22-22-face-laughing" transform="translate(32,10)">
  <rect  style="opacity:0.001" width="22" height="22" x="0" y="0"/>
  <path  style="opacity:1;fill:#232627" d="m 11,2.9999997 c -4.418278,0 -8,3.5817217 -8,8.0000003 0,4.418278 3.581722,8 8,8 4.418278,0 8,-3.581722 8,-8 0,-4.4182786 -3.581722,-8.0000003 -8,-8.0000003 z m 0,1 c 3.865993,0 7,3.1340067 7,7.0000003 0,3.865993 -3.134007,7 -7,7 C 7.134007,18 4,14.865993 4,11 4,7.1340064 7.134007,3.9999998 11,3.9999997 Z M 8,6.9999994 c -0.554,0 -1,0.446 -1,1 0,0.554 0.446,1 1,1 0.554,0 1,-0.446 1,-1 0,-0.554 -0.446,-1 -1,-1 z m 6,0 c -0.554,0 -1,0.446 -1,1 0,0.554 0.446,1 1,1 0.554,0 1,-0.446 1,-1 0,-0.554 -0.446,-1 -1,-1 z M 7.15625,13 c 0.443289,1.72689 1.974792,3 3.84375,3 1.868958,0 3.400461,-1.27311 3.84375,-3 z"/>
 </g>
 <g id="face-laughing">
  <rect  style="opacity:0.001" width="32" height="32" x="0" y="0"/>
  <path  style="opacity:1;fill:#232627" d="M 16 4 C 9.3725833 4 4 9.3725825 4 16 C 4 22.627418 9.3725833 28 16 28 C 22.627418 28 28 22.627418 28 16 C 28 9.3725825 22.627418 4 16 4 z M 16 5 C 22.075132 5 27 9.9248683 27 16 C 27 22.075132 22.075132 27 16 27 C 9.9248679 27 5 22.075132 5 16 C 5 9.9248683 9.9248679 5.0000001 16 5 z M 11.5 10 C 10.669 10 10 10.669001 10 11.5 C 10 12.331 10.669 13 11.5 13 C 12.330999 13 13 12.331 13 11.5 C 13 10.669001 12.330999 10 11.5 10 z M 20.5 10 C 19.669 10 19 10.669001 19 11.5 C 19 12.331 19.669 13 20.5 13 C 21.330999 13 22 12.331 22 11.5 C 22 10.669001 21.330999 10 20.5 10 z M 9.59375 18 C 10.332566 20.878151 12.88507 23 16 23 C 19.114932 23 21.667434 20.878151 22.40625 18 L 9.59375 18 z"/>
 </g>
</svg>
