<svg xmlns="http://www.w3.org/2000/svg" width="32" height="32" version="1.1">
 <g id="22-22-jami" transform="translate(32,10)">
  <rect  style="opacity:0.001" width="22" height="22" x="0" y="0"/>
  <path  style="opacity:1;fill:#232627" d="M 8.0917969,3.5859375 C 7.9133141,3.5957848 7.738011,3.645971 7.578125,3.7382812 L 6.421875,4.40625 C 5.7823311,4.7754908 5.6251594,5.6893863 6.0683594,6.4570312 L 7.5371094,9 h -2.9375 C 3.7132094,9 3,9.5935495 3,10.332031 v 1.335938 C 3,12.406451 3.7132094,13 4.5996094,13 h 2.9394531 l -1.4707031,2.546875 c -0.4432,0.767645 -0.2840754,1.683493 0.3554687,2.052734 l 1.1542969,0.667969 c 0.6395441,0.369241 1.5118781,0.04694 1.9550781,-0.720703 l 1.4687499,-2.544922 1.466797,2.541016 c 0.4432,0.767645 1.313581,1.087991 1.953125,0.71875 l 1.15625,-0.667969 c 0.639544,-0.369241 0.796716,-1.283136 0.353516,-2.050781 L 14.462891,13 h 2.9375 C 18.286791,13 19,12.406451 19,11.667969 V 10.332031 C 19,9.5935495 18.286791,9 17.400391,9 H 14.46875 l 1.464844,-2.5371094 c 0.4432,-0.7676449 0.284075,-1.6834934 -0.355469,-2.0527344 L 14.423828,3.7441406 C 14.263942,3.6518304 14.088736,3.6016579 13.910156,3.5917969 13.374417,3.5622139 12.80115,3.8871569 12.46875,4.4628906 L 11.001953,7.0039062 9.53125,4.4570312 C 9.19885,3.8812976 8.6272451,3.5563955 8.0917969,3.5859375 Z m 0.082031,1 c 0.1251985,0.00357 0.3274654,0.085787 0.4921875,0.3710937 L 10.423828,8.0039062 9.8496094,9 H 8.6894531 L 6.9335938,5.9570312 C 6.7139643,5.5766218 6.8402287,5.3186229 6.921875,5.2714844 l 1.15625,-0.6679688 c 0.020411,-0.011785 0.05397,-0.018767 0.095703,-0.017578 z m 5.6542971,0.00586 c 0.04198,-0.00126 0.07529,0.00579 0.0957,0.017578 l 1.15625,0.6660156 c 0.08165,0.047138 0.205957,0.30709 -0.01367,0.6875 L 13.3125,9 H 12.152344 L 11.578125,8.0039062 13.333984,4.9628906 C 13.498707,4.6775828 13.702176,4.5955653 13.828125,4.5917975 Z M 4.5996094,10 h 3.515625 L 8.6933594,11.001953 8.1171875,12 H 4.5996094 C 4.1603498,12 4,11.762246 4,11.667969 V 10.332031 C 4,10.237754 4.1603498,10 4.5996094,10 Z m 4.6679687,0 h 0.00391 l -0.00195,0.0039 z m 1.1582029,0 h 1.152344 L 12.15625,11.001953 11.580078,12 h -1.15625 L 9.8476562,11.003906 Z m 2.304688,0 h 0.0039 l -0.002,0.0039 z m 1.160156,0 h 3.509766 C 17.83965,10 18,10.237754 18,10.332031 v 1.335938 C 18,11.762246 17.83965,12 17.400391,12 h -3.513672 l -0.576172,-0.996094 z m -5.1972656,3 h 1.1523437 l 0.5781249,1.001953 -1.7578124,3.044922 c -0.2196295,0.380411 -0.5042915,0.400656 -0.5859375,0.353516 l -1.15625,-0.667969 c -0.081646,-0.04714 -0.2079107,-0.305137 0.011719,-0.685547 z M 11,13 h 0.0039 l -0.002,0.002 z m 1.160156,0 h 1.148438 l 1.757812,3.042969 c 0.21963,0.38041 0.09336,0.638409 0.01172,0.685547 l -1.15625,0.667968 c -0.08165,0.04714 -0.368261,0.0269 -0.587891,-0.353515 l -1.753906,-3.039063 z"/>
 </g>
 <g id="jami">
  <rect  style="opacity:0.001" width="32" height="32" x="0" y="0"/>
  <path  style="opacity:1;fill:#232627" d="M 12.005859 4.84375 C 11.621896 4.8169091 11.225068 4.8996719 10.865234 5.1074219 L 9.1347656 6.1074219 C 8.1752086 6.6614219 7.8483437 7.8802876 8.4023438 8.8398438 L 10.804688 13 L 6 13 C 4.892 13 4 13.892 4 15 L 4 17 C 4 18.108 4.892 19 6 19 L 10.804688 19 L 8.4023438 23.160156 C 7.8483437 24.119712 8.1752094 25.338578 9.1347656 25.892578 L 10.865234 26.892578 C 11.824791 27.446578 13.043656 27.119712 13.597656 26.160156 L 16 22 L 18.402344 26.160156 C 18.956344 27.119712 20.175209 27.446578 21.134766 26.892578 L 22.865234 25.892578 C 23.824791 25.338578 24.151656 24.119712 23.597656 23.160156 L 21.195312 19 L 26 19 C 27.108 19 28 18.108 28 17 L 28 15 C 28 13.892 27.108 13 26 13 L 21.195312 13 L 23.597656 8.8398438 C 24.151656 7.8802876 23.824791 6.6614219 22.865234 6.1074219 L 21.134766 5.1074219 C 20.175209 4.5534219 18.956344 4.8802876 18.402344 5.8398438 L 16 10 L 13.597656 5.8398438 C 13.251406 5.2401211 12.645798 4.8884848 12.005859 4.84375 z M 11.748047 5.8417969 C 12.134868 5.7886133 12.518185 5.9687754 12.732422 6.3398438 L 15.421875 11 L 14.267578 13 L 11.958984 13 L 9.2675781 8.3398438 C 8.9819301 7.8450859 9.1400076 7.2602579 9.6347656 6.9746094 L 11.365234 5.9746094 C 11.488924 5.9031972 11.619106 5.8595247 11.748047 5.8417969 z M 20.251953 5.8417969 C 20.380894 5.8595247 20.511076 5.9031972 20.634766 5.9746094 L 22.365234 6.9746094 C 22.859992 7.2602579 23.01807 7.8450859 22.732422 8.3398438 L 20.041016 13 L 17.732422 13 L 16.576172 11 L 19.267578 6.3398438 C 19.481815 5.9687754 19.865132 5.7886133 20.251953 5.8417969 z M 16 12 L 16.578125 13 L 15.421875 13 L 16 12 z M 6 14 L 11.380859 14 L 12.537109 16 L 11.380859 18 L 6 18 C 5.4287028 18 5 17.571297 5 17 L 5 15 C 5 14.428703 5.4287028 14 6 14 z M 12.535156 14 L 13.691406 14 L 13.113281 15 L 12.535156 14 z M 14.845703 14 L 17.154297 14 L 18.310547 16 L 17.154297 18 L 14.845703 18 L 13.689453 16 L 14.845703 14 z M 18.308594 14 L 19.464844 14 L 18.886719 15 L 18.308594 14 z M 20.619141 14 L 26 14 C 26.571297 14 27 14.428703 27 15 L 27 17 C 27 17.571297 26.571297 18 26 18 L 20.619141 18 L 19.462891 16 L 20.619141 14 z M 13.113281 17 L 13.691406 18 L 12.535156 18 L 13.113281 17 z M 18.886719 17 L 19.464844 18 L 18.308594 18 L 18.886719 17 z M 11.958984 19 L 14.267578 19 L 15.423828 21 L 12.732422 25.660156 C 12.446773 26.154914 11.859992 26.31104 11.365234 26.025391 L 9.6347656 25.025391 C 9.1400079 24.739743 8.9819295 24.154914 9.2675781 23.660156 L 11.958984 19 z M 15.421875 19 L 16.578125 19 L 16 20 L 15.421875 19 z M 17.732422 19 L 20.041016 19 L 22.732422 23.660156 C 23.01807 24.154914 22.859992 24.739743 22.365234 25.025391 L 20.634766 26.025391 C 20.140008 26.31104 19.553227 26.154914 19.267578 25.660156 L 16.578125 21 L 17.732422 19 z"/>
 </g>
</svg>
