<svg xmlns="http://www.w3.org/2000/svg" width="32" height="32" version="1.1">
 <g id="22-22-kdf" transform="translate(32,10)">
  <rect  style="opacity:0.001" width="22" height="22" x="0" y="0"/>
  <path  style="opacity:1;fill:#232627" d="m 11.482427,3.0000842 a 0.50005,0.50005 0 0 0 -0.205078,0.05273 l -3.9277348,1.962891 a 0.50005,0.50005 0 0 0 -0.00391,0.002 0.50005,0.50005 0 0 0 -0.3359375,0.378906 0.50005,0.50005 0 0 0 -0.00781,0.04687 0.50005,0.50005 0 0 0 0,0.0059 0.50005,0.50005 0 0 0 -0.00195,0.04688 0.50005,0.50005 0 0 0 0,0.0039 v 2.691403 L 3.3496142,10.015783 a 0.50005,0.50005 0 0 0 -0.00391,0.002 0.50005,0.50005 0 0 0 -0.3359375,0.378906 0.50005,0.50005 0 0 0 -0.00781,0.04687 0.50005,0.50005 0 0 0 0,0.0059 0.50005,0.50005 0 0 0 -0.00195,0.04679 0.50005,0.50005 0 0 0 0,0.0039 v 4.160152 a 0.50005,0.50005 0 0 0 0.2109375,0.40625 l 3.9785156,2.826172 0.021484,0.01563 a 0.50005,0.50005 0 0 0 0.019531,0.01172 0.50005,0.50005 0 0 0 0.035156,0.02148 0.50005,0.50005 0 0 0 0.019531,0.0098 0.50005,0.50005 0 0 0 0.017578,0.0078 0.50005,0.50005 0 0 0 0.041016,0.01563 0.50005,0.50005 0 0 0 0.039063,0.01172 0.50005,0.50005 0 0 0 0.085937,0.01172 0.50005,0.50005 0 0 0 0.046875,0.002 0.50005,0.50005 0 0 0 0.023437,-0.002 0.50005,0.50005 0 0 0 0.00195,0 0.50005,0.50005 0 0 0 0.033203,-0.0039 0.50005,0.50005 0 0 0 0.064453,-0.01367 0.50005,0.50005 0 0 0 0.023437,-0.0078 0.50005,0.50005 0 0 0 0.025391,-0.0098 0.50005,0.50005 0 0 0 0.035156,-0.01563 0.50005,0.50005 0 0 0 0.00977,-0.0039 0.50005,0.50005 0 0 0 0.019531,-0.01172 0.50005,0.50005 0 0 0 0.015625,-0.0098 l 0.00781,-0.0039 a 0.50005,0.50005 0 0 0 0.013672,-0.0098 L 9.908207,16.5626 l 3.28125,2.330078 0.02149,0.01563 a 0.50005,0.50005 0 0 0 0.01953,0.01172 0.50005,0.50005 0 0 0 0.03516,0.02148 0.50005,0.50005 0 0 0 0.01953,0.0098 0.50005,0.50005 0 0 0 0.01758,0.0078 0.50005,0.50005 0 0 0 0.04102,0.01563 0.50005,0.50005 0 0 0 0.03906,0.01172 0.50005,0.50005 0 0 0 0.08594,0.01172 0.50005,0.50005 0 0 0 0.04687,0.002 0.50005,0.50005 0 0 0 0.02344,-0.002 0.50005,0.50005 0 0 0 0.002,0 0.50005,0.50005 0 0 0 0.0332,-0.0039 0.50005,0.50005 0 0 0 0.06445,-0.01367 0.50005,0.50005 0 0 0 0.02344,-0.0078 0.50005,0.50005 0 0 0 0.02539,-0.0098 0.50005,0.50005 0 0 0 0.03516,-0.01563 0.50005,0.50005 0 0 0 0.0098,-0.0039 0.50005,0.50005 0 0 0 0.01953,-0.01172 0.50005,0.50005 0 0 0 0.01563,-0.0098 l 0.0078,-0.0039 a 0.50005,0.50005 0 0 0 0.01367,-0.0098 l 3.978516,-2.527344 a 0.50005,0.50005 0 0 0 0.232344,-0.421785 v -4.453125 a 0.50005,0.50005 0 0 0 0,-0.0059 0.50005,0.50005 0 0 0 -0.002,-0.04492 0.50005,0.50005 0 0 0 0,-0.0059 0.50005,0.50005 0 0 0 -0.345703,-0.431641 l -1.699172,-0.849529 a 0.50005,0.50005 0 0 0 0.04687,-0.2089838 v -4.453125 a 0.50005,0.50005 0 0 0 0,-0.0059 0.50005,0.50005 0 0 0 -0.002,-0.04492 0.50005,0.50005 0 0 0 0,-0.0059 0.50005,0.50005 0 0 0 -0.345703,-0.431641 l -3.929638,-1.964825 a 0.50005,0.50005 0 0 0 -0.240234,-0.05274 z m 0.01758,1.058594 2.978516,1.490234 -2.978516,1.861328 -2.9785158,-1.861328 z m -3.5000002,2.34375 3.0000002,1.875 v 0.1875 a 0.50005,0.50005 0 0 0 0,0.03516 V 11.531338 L 8.0000048,9.4024322 Z m 7.0000002,0 v 3.28125 l -3,1.9062498 V 8.5000842 8.2774282 Z m -8.0000002,2.90625 v 0.351562 A 0.50005,0.50005 0 0 0 7.2109443,10.06649 L 9.021491,11.3536 a 0.50005,0.50005 0 0 0 -0.01172,0.04297 0.50005,0.50005 0 0 0 -0.0078,0.04687 0.50005,0.50005 0 0 0 0,0.0059 0.50005,0.50005 0 0 0 -0.002,0.0234 l -1.4999998,0.9375 -2.9785156,-1.861328 z m 8.0527342,1.5273438 1.425782,0.71289 -2.978516,1.861328 -1.261719,-0.787109 z m -11.0527342,0.566406 3,1.875 v 0.1875 a 0.50005,0.50005 0 0 0 0,0.03516 v 3.03125 l -3,-2.128906 z m 6.0000002,1 3,1.875 v 0.1875 a 0.50005,0.50005 0 0 0 0,0.03516 v 3.03125 l -3,-2.128906 z m 7,0 v 3.28125 l -3,1.90625 v -3.089844 -0.222656 z m -8,0.25 v 3.007812 a 0.50005,0.50005 0 0 0 0.06836,0.25 l -1.0683592,0.679688 v -3.089844 -0.222656 z"/>
 </g>
 <g id="kdf">
  <rect  style="opacity:0.001" width="32" height="32" x="0" y="0"/>
  <path  style="opacity:1;fill:#232627" d="m 17.521484,4 c -0.170498,-0.00413 -0.3388,0.039809 -0.486328,0.1269531 L 11.462891,7.40625 C 11.177042,7.5742605 11.000671,7.8845831 11,8.2207031 V 12.148438 L 5.4628906,15.40625 C 5.1770418,15.574261 5.0006714,15.884583 5,16.220703 v 6.558594 c 6.714e-4,0.33612 0.1770418,0.646442 0.4628906,0.814453 l 5.5722654,3.279297 c 0.287414,0.170016 0.642274,0.170016 0.929688,0 l 3.185547,-1.875 4.884765,2.875 c 0.287414,0.170016 0.642274,0.170016 0.929688,0 L 26.537109,24.59375 C 26.822958,24.42574 26.999328,24.115417 27,23.779297 v -6.558594 c -6.72e-4,-0.33612 -0.177042,-0.646443 -0.462891,-0.814453 l -2.546875,-1.498047 c 0.0061,-0.04269 0.0094,-0.08576 0.0098,-0.128906 V 8.2207031 C 23.999329,7.8845831 23.822958,7.5742605 23.537109,7.40625 L 17.964844,4.1269531 C 17.829922,4.0472648 17.677413,4.003595 17.521484,4 Z M 17.5,5.0136719 22.410156,7.9042969 17.5,10.914062 12.589844,7.9042969 Z M 12,8.7148438 17,11.779297 v 5.912109 l -5,-2.943359 z m 11,0 v 6.0332032 l -5,2.943359 V 11.779297 Z M 11,13.308594 v 1.470703 c 6.72e-4,0.33612 0.177042,0.646443 0.462891,0.814453 l 2.546875,1.498047 c -0.0061,0.04269 -0.0094,0.08576 -0.0098,0.128906 v 0.160156 l -2.5,1.533203 -4.9101562,-3.009765 z m 12.361328,2.388672 2.048828,1.207031 L 20.5,19.914062 18.392578,18.621094 Z M 6,16.714844 l 5,3.064453 v 5.912109 L 6,22.748047 Z m 9,1 5,3.064453 v 5.912109 l -5,-2.943359 z m 11,0 v 6.033203 l -5,2.943359 v -5.912109 z m -12,0.83789 v 5.226563 c 7.15e-4,0.221745 0.07817,0.436135 0.21875,0.605469 -10e-7,6.51e-4 -10e-7,0.0013 0,0.002 L 12,25.691406 v -5.912109 z"/>
 </g>
</svg>
