<svg xmlns="http://www.w3.org/2000/svg" width="32" height="32" version="1.1">
 <g id="22-22-kgpg" transform="translate(32.000001,10.000001)">
  <rect  style="opacity:0.001" width="22" height="22" x="0" y="0"/>
  <path  style="opacity:1;fill:#232627" d="M 11,3 C 8.784,3 7,4.784 7,7 V 9 C 5.892,9 5,9.892 5,11 v 6 c 0,1.108 0.892,2 2,2 h 8 c 1.108,0 2,-0.892 2,-2 V 11 C 17,9.892 16.108,9 15,9 V 7 C 15,4.784 13.216,3 11,3 Z m 0,1 c 1.662,0 3,1.561 3,3.5 V 9 H 8 V 7.5 C 8,5.561 9.338,4 11,4 Z m -4,6 h 1 6 1 c 0.5713,0 1,0.4287 1,1 v 6 c 0,0.5713 -0.4287,1 -1,1 H 7 C 6.4287,18 6,17.5713 6,17 v -6 c 0,-0.5713 0.4287,-1 1,-1 z"/>
 </g>
 <g id="kgpg">
  <rect  style="opacity:0.001" width="32" height="32" x="0" y="0"/>
  <path  style="opacity:1;fill:#232627" d="M 16 4 C 12.676001 4 10 6.6759991 10 10 L 10 13 C 8.3379998 13 7 14.338 7 16 L 7 25 C 7 26.662 8.3379997 28 10 28 L 22 28 C 23.662001 28 25 26.662 25 25 L 25 16 C 25 14.338 23.662001 13 22 13 L 22 10 C 22 6.6759991 19.324 4 16 4 z M 16 5 C 18.787297 5 21 7.2127017 21 10 L 21 13 L 11 13 L 11 10 C 11 7.2127019 13.212704 5 16 5 z M 10 14 L 22 14 C 23.125299 14 24 14.874702 24 16 L 24 25 C 24 26.125298 23.125299 27 22 27 L 10 27 C 8.8747024 27 8 26.125297 8 25 L 8 16 C 8 14.874703 8.8747025 14 10 14 z"/>
 </g>
</svg>
