<?xml version="1.0" encoding="UTF-8" standalone="no"?>
<svg
   xmlns:dc="http://purl.org/dc/elements/1.1/"
   xmlns:cc="http://creativecommons.org/ns#"
   xmlns:rdf="http://www.w3.org/1999/02/22-rdf-syntax-ns#"
   xmlns:svg="http://www.w3.org/2000/svg"
   xmlns="http://www.w3.org/2000/svg"
   width="22"
   height="22"
   id="svg3869"
   version="1.1"
   viewBox="0 0 22 22">
  <defs
     id="defs3871">
    <style
       type="text/css"
       id="current-color-scheme">
      .ColorScheme-Text {
        color:#31363b;
      }
      .ColorScheme-Background {
        color:#eff0f1;
      }
      .ColorScheme-Highlight {
        color:#3daee9;
      }
      .ColorScheme-ViewText {
        color:#31363b;
      }
      .ColorScheme-ViewBackground {
        color:#fcfcfc;
      }
      .ColorScheme-ViewHover {
        color:#93cee9;
      }
      .ColorScheme-ViewFocus{
        color:#3daee9;
      }
      .ColorScheme-ButtonText {
        color:#31363b;
      }
      .ColorScheme-ButtonBackground {
        color:#eff0f1;
      }
      .ColorScheme-ButtonHover {
        color:#93cee9;
      }
      .ColorScheme-ButtonFocus{
        color:#3daee9;
      }
      </style>
  </defs>
  <metadata
     id="metadata3874">
    <rdf:RDF>
      <cc:Work
         rdf:about="">
        <dc:format>image/svg+xml</dc:format>
        <dc:type
           rdf:resource="http://purl.org/dc/dcmitype/StillImage" />
        <dc:title></dc:title>
      </cc:Work>
    </rdf:RDF>
  </metadata>
  <g
     id="layer1"
     transform="translate(-326,-534.3622)">
    <g
       style="clip-rule:evenodd;fill-rule:evenodd;stroke-linejoin:round;stroke-miterlimit:1.41420996"
       id="konversation"
       transform="translate(326,534.3622)">
      <path
         id="path2"
         d="M 7.3215799,4.8343917 C 6.0560177,4.8343917 4.62,6.0952722 4.62,7.4456062 v 6.7355948 c 0,1.340501 1.3187161,2.610184 2.397799,2.610184 h 1.2007746 l -4.397e-4,3.161888 1.5031965,4.11e-4 v -0.0023 l 3.5898636,-3.160032 h 6.069344 c 1.319964,0 2.501,-1.374425 2.501,-2.709902 V 7.4455539 c 0,-1.4729852 -1.300794,-2.6111622 -2.501,-2.6111622 z m 0,1.2540597 H 19.380538 c 0.495335,0 1.101,0.8354435 1.101,1.3570503 v 6.6240003 c 0,0.521607 -0.605665,1.468346 -1.101,1.468346 H 12.63639 l -3.2178313,3.079222 1.29e-5,-3.079222 H 7.3215799 c -0.4953335,0 -1.3012858,-0.83504 -1.3012858,-1.356647 V 7.4456062 c 0,-0.5216068 0.8059523,-1.3571548 1.3012858,-1.3571548 z"
         style="fill:#363636;stroke-width:0.920834;fill-opacity:1" />
      <rect
         y="0"
         x="0"
         height="22"
         width="22"
         id="rect822"
         style="fill:#ffffff;fill-opacity:0;stroke-width:0.90256649" />
    </g>
  </g>
</svg>
