<svg xmlns="http://www.w3.org/2000/svg" width="32" height="32" version="1.1">
 <g id="22-22-ktorrent" transform="translate(32.000001,10.000001)">
  <rect  style="opacity:0.001" width="22" height="22" x="0" y="0"/>
  <path  style="opacity:1;fill:#232627" d="M 8.8300781,2 C 8.3568681,2.00005 8.00005,2.3972687 8,2.8867188 V 10.000094 H 5.859375 c -0.77705,-0.002 -1.1558037,0.984436 -0.5898438,1.535156 l 5.1406248,5.222656 c 0.33045,0.323522 0.849238,0.323522 1.179688,0 l 5.140625,-5.222656 c 0.56596,-0.55072 0.187206,-1.536936 -0.589844,-1.535156 H 14 V 2.8867188 C 13.99995,2.3972687 13.643132,2.00005 13.169922,2 Z M 9,3 h 4 v 7.000094 c 5.5e-5,0.552262 0.447738,0.999945 1,1 h 1.855469 L 11,15.931735 6.1445312,11.000094 H 8 c 0.5522619,-5.5e-5 0.9999448,-0.447738 1,-1 z M 5.5,18 c -0.6761613,-0.0096 -0.6761613,1.009563 0,1 H 10.982422 16.5 c 0.676161,0.0096 0.676161,-1.009563 0,-1 z"/>
 </g>
 <g id="ktorrent">
  <rect  style="opacity:0.001" width="32" height="32" x="0" y="0"/>
  <path  style="opacity:1;fill:#232627" d="M 13.226562 4 C 12.556381 4.0000699 12.000071 4.5569824 12 5.2421875 L 12 15 L 9.21875 15 C 8.1182541 14.9972 7.5832257 16.377458 8.3847656 17.148438 L 15.664062 24.660156 C 16.132063 25.11307 16.867939 25.11307 17.335938 24.660156 L 24.615234 17.148438 C 25.416775 16.377458 24.881745 14.997508 23.78125 15 L 21 15 L 21 5.2421875 C 20.999928 4.5569824 20.443619 4.0000699 19.773438 4 L 13.226562 4 z M 13.226562 5 L 19.773438 5 C 19.890508 5.0000122 19.999985 5.0984121 20 5.2421875 L 20 15 A 1.0001 1.0001 0 0 0 21 16 L 23.78125 16 A 1.0001 1.0001 0 0 0 23.783203 16 C 23.915067 15.999701 23.938037 16.04236 23.978516 16.146484 C 24.018996 16.250609 24.027465 16.326171 23.921875 16.427734 A 1.0001 1.0001 0 0 0 23.898438 16.453125 L 16.640625 23.941406 C 16.548475 24.030586 16.451526 24.030586 16.359375 23.941406 L 9.1015625 16.453125 A 1.0001 1.0001 0 0 0 9.078125 16.427734 C 8.9725837 16.326217 8.9809927 16.250651 9.0214844 16.146484 C 9.0619761 16.042317 9.0850701 15.999665 9.2167969 16 A 1.0001 1.0001 0 0 0 9.21875 16 L 12 16 A 1.0001 1.0001 0 0 0 13 15 L 13 5.2421875 C 13.000015 5.0984138 13.109492 5.0000122 13.226562 5 z M 8.5 27 A 0.50005 0.50005 0 1 0 8.5 28 L 24.400391 28 A 0.50005 0.50005 0 1 0 24.400391 27 L 8.5 27 z"/>
 </g>
</svg>
