<svg xmlns="http://www.w3.org/2000/svg" width="32" height="32" version="1">
 <g id="22-22-manjaro-settings-manager" transform="translate(32,10)">
  <rect  style="opacity:0.001" width="22" height="22" x="0" y="0"/>
  <path  style="opacity:1;fill:#232627" d="M 3.8574219,3 C 3.3825647,3 3,3.3825647 3,3.8574219 V 18.142578 C 3,18.617435 3.4035636,18.860351 3.8574219,19 H 8 V 8 h 6 V 3 Z M 15,3 v 16 h 4.142578 C 19.617436,19 20,18.617435 20,18.142578 V 3.8574219 C 20,3.3825647 19.617436,3 19.142578,3 Z M 4,4 h 9 V 7 H 8 A 1.0001,1.0001 0 0 0 7,8 V 18 H 4.046875 C 4.0287751,17.991406 4.0116887,17.986687 4,17.980469 Z m 12,0 h 3 V 18 H 16 Z M 9,9 v 10 h 5 V 9 Z m 1,1 h 3 v 8 h -3 z"/>
 </g>
 <g id="manjaro-settings-manager">
  <rect  style="opacity:0.001" width="32" height="32" x="0" y="0"/>
  <path  style="opacity:1;fill:#232627" d="M 4.2871094 4 C 3.5748236 4 3 4.5748236 3 5.2871094 L 3 26.712891 C 3 27.425177 3.6063219 27.790527 4.2871094 28 L 10 28 L 10 11 L 19 11 L 19 4 L 4.2871094 4 z M 21 4 L 21 28 L 26.712891 28 C 27.425178 28 28 27.425177 28 26.712891 L 28 5.2871094 C 28 4.5748236 27.425178 4 26.712891 4 L 21 4 z M 4.2871094 5 L 18 5 L 18 10 L 10 10 A 1.0001 1.0001 0 0 0 9 11 L 9 27 L 4.4863281 27 C 4.2897467 26.927036 4.1036949 26.842309 4.0449219 26.791016 C 3.973426 26.728619 4 26.785289 4 26.712891 L 4 5.2871094 C 4 5.112832 4.112832 5 4.2871094 5 z M 22 5 L 26.712891 5 C 26.88717 5 27 5.1128305 27 5.2871094 L 27 26.712891 C 27 26.88717 26.887171 27 26.712891 27 L 22 27 L 22 5 z M 12 13 L 12 28 L 19 28 L 19 13 L 12 13 z M 13 14 L 18 14 L 18 27 L 13 27 L 13 14 z"/>
 </g>
</svg>
