<svg version="1.1" viewBox="0 0 22 22" xmlns="http://www.w3.org/2000/svg">
 <defs>
  <style id="current-color-scheme" type="text/css">.ColorScheme-Text { color:#363636; }</style>
 </defs>
 <g id="notification-disabled" class="ColorScheme-Text" transform="translate(-.089057 -65.674)" fill="currentColor">
  <path class="ColorScheme-Text" d="m2.6582 66.829 18.276 18.276c0.42187 0.42187 0.44613 1.0769 0.05439 1.4686-0.39174 0.39174-1.0467 0.36748-1.4686-0.05439l-18.276-18.276c-0.42187-0.42187-0.44613-1.0769-0.054393-1.4686 0.39174-0.39174 1.0467-0.36748 1.4686 0.05439z"/>
  <rect class="ColorScheme-Text" x=".089057" y="65.674" width="22" height="22" ry="0" opacity="0"/>
  <path class="ColorScheme-Text" d="m10.994 67.684c-1.2263 0.0072-2.1578 1.1054-1.9648 2.3164l-0.042969 0.01367c-2.3258 0.82764-3.9902 3.0482-3.9902 5.6582v2.002h0.00391c-1.888e-4 0.84085-0.32954 1.642-0.75781 2.3418-0.47964 0.78375-1.4188 1.4875-1.9492 1.9492-0.356 0.30992-0.39174 1.0243 0 1.416 0.19841 0.19841 0.45742 0.29359 0.7168 0.29102h15.98c0.25938 0.0026 0.51839-0.09261 0.7168-0.29102 0.39174-0.39174 0.356-1.1061 0-1.416-0.5304-0.46174-1.4696-1.1655-1.9492-1.9492-0.42827-0.69981-0.75762-1.501-0.75781-2.3418h0.0039v-2.002c0-2.61-1.6644-4.8306-3.9902-5.6582l-0.04297-0.01367c0.19293-1.211-0.73858-2.3092-1.9648-2.3164-2e-3 -1.2e-5 -0.0039 6e-6 -0.0059 0-2e-3 6e-6 -0.0039-1.2e-5 -0.0059 0zm0.0059 3.9883c2.2107 0 4.0039 1.7912 4.0039 4.002v2.0001h-0.0039c4.68e-4 1.3712 0.45966 2.7259 1.3418 3.7578l0.20703 0.24219h-11.098l0.20703-0.24219c0.79483-1.1006 1.3413-2.3866 1.3418-3.7578h-0.00391v-2.0001c3.8e-6 -2.2107 1.7932-4.002 4.0039-4.002zm-2.002 13c0 1.3346 1.001 2.002 2.002 2.002s2.002-0.66732 2.002-2.002z" opacity=".35"/>
 </g>
</svg>
