<svg xmlns="http://www.w3.org/2000/svg" width="32" height="32" version="1">
 <g id="22-22-plasma-browser-integration" transform="translate(32,10)">
  <rect  style="opacity:0.001" width="22" height="22" x="0" y="0"/>
  <path  style="opacity:1;fill:#232627" d="M 7.5,2 C 6.669,2 6,2.669 6,3.5 6,4.331 6.669,5 7.5,5 8.331,5 9,4.331 9,3.5 9,2.669 8.331,2 7.5,2 Z m 7.5,0 -2,2 3,3 -3,3 2,2 3,-3 2,-2 z M 4,7 C 3.446,7 3,7.446 3,8 3,8.554 3.446,9 4,9 4.554,9 5,8.554 5,8 5,7.446 4.554,7 4,7 Z m 4,2 c -1.827884,2.125e-4 -3.6280671,1.057223 -4.4394531,2.708984 -0.823336,1.531972 -0.726962,3.47899 0.203125,4.941407 1.104925,1.80616 3.4344708,2.751716 5.4824219,2.185547 1.8200872,-0.43672 3.2703942,-2.001376 3.6386722,-3.826172 0.322777,-1.405713 -0.05219,-2.924376 -0.929688,-4.060547 C 11.035198,9.7347071 9.5209619,8.9949703 7.9980469,9.0019531 Z M 7.99805,9.6269531 c 0.711424,0.00404 1.4158287,0.1912063 2.050781,0.5078129 -0.3218443,0.105672 0.151395,0.414071 -0.089844,0.576172 0.249926,0.163187 0.584127,-0.149676 0.238282,-0.3125 -0.3054573,-0.4822143 0.780133,0.14252 0.216796,0.314453 -0.191843,0.174339 -0.6600313,0.104936 -0.279296,0.421875 0.03071,0.307778 -0.6654128,-0.06126 -0.5781258,0.445312 0.03371,0.227834 0.1272845,0.303263 -0.2109375,0.507813 -0.266741,0.370107 -0.7645126,0.677874 -0.6816406,1.238281 -0.133942,0.443166 0.3390581,0.670129 0.7207031,0.765625 0.395592,-0.02601 1.3379598,-0.282341 1.5000008,0.212891 -0.168326,0.438382 0.737898,0.873246 0.355468,1.308593 -0.248208,0.407382 0.04821,0.549547 -0.03125,0.96875 0.306018,0.440462 -0.793693,1.084353 -1.128906,1.28125 -1.0121998,0.594545 -2.3101034,0.673417 -3.4238284,0.289063 -0.437759,-0.265342 0.098089,-0.473597 0.2363281,-0.607422 -0.191371,-0.365472 0.106487,-0.145099 0.109375,-0.533203 0.0039,-0.586971 0.7836976,-0.48951 0.7285157,-1.09961 C 7.7467787,15.548441 8.312766,15.051866 7.6875,14.904297 7.220081,14.815197 6.838564,14.845913 6.59375,14.441406 6.167906,14.384776 6.1621975,13.9367 5.6640625,14.017578 c -0.351527,-0.209261 -0.8304569,0.530679 -1.0449219,-0.002 0.08081,-0.272812 -0.079221,-0.699436 -0.3164062,-0.644531 0.113692,-0.204408 0.1127254,-0.608151 -0.1503906,-0.279297 -0.4274681,0.378946 -0.5245577,-0.26161 -0.3066407,-0.535156 0.274504,-0.357876 0.934486,-0.335736 1.15625,-0.01367 -0.02252,-0.521467 0.5390811,-0.598609 0.7832031,-1 0.2774081,-0.142914 0.5610992,-0.472165 0.8300782,-0.31836 0.187122,-0.02733 0.3833068,-0.24264 0.076172,-0.132812 -0.147152,-0.07179 0.1452306,-0.318785 -0.1171874,-0.253906 0.219087,-0.05648 0.4486018,-0.09653 0.6699218,-0.105469 -0.485294,0.287205 0.5478714,0.378352 0.1152344,0.06055 C 7.488758,10.459945 7.2380567,10.366768 7.1523438,10.085938 6.9164758,10.095237 6.89669,10.171001 6.765625,9.9355469 6.302686,9.6704022 7.2105135,10.012252 7.2734375,9.78125 7.4517525,9.5833032 7.762002,9.6507267 8,9.6289062 Z M 6.43555,9.9199219 H 6.4375 C 6.334625,10.273922 6.0355641,10.532096 5.7988281,10.642578 5.7324081,10.445836 5.8169263,10.388148 5.6132812,10.341797 5.8417923,10.134211 6.1611709,10.052005 6.4355469,9.9199219 Z m 3.359375,0.4687501 c -0.378058,0.107026 0.032529,0.449491 0.1132812,0.07422 10e-4,-0.05696 -0.067371,-0.0789 -0.1132812,-0.07227 z M 11.125,11.111328 c 0.320469,0.164006 0.859731,0.792853 0.705078,1.007813 -0.275257,-0.06699 -0.18249,0.288742 -0.488281,0.07226 -0.410019,-0.06315 -0.413798,-0.661916 -0.912109,-0.414062 -0.178293,0.125414 -0.8860278,0.173833 -0.355469,-0.03516 0.232213,-0.251398 0.592921,-0.705821 0.998047,-0.390626 0.121564,0.141254 0.361917,0.421412 0.375,0.123047 -0.09132,-0.08435 -0.491579,-0.197021 -0.322266,-0.363281 z m -7.3222656,2.261719 h 0.00195 c 0.3976507,0.122321 0.6659545,0.835864 1.0117187,0.902344 0.461675,-0.13924 0.044212,0.626941 -0.054687,0.820312 0.0891,0.478598 0.4076473,0.692333 0.8339843,0.945313 0.230836,0.527904 0.099535,1.144022 0.2050781,1.699218 C 5.2557823,17.489172 4.770516,16.979126 4.40625,16.478516 3.841743,15.678445 3.5711688,14.675011 3.6367188,13.701172 c 0.03349,-0.107549 0.031266,-0.297044 0.1660156,-0.328125 z"/>
 </g>
 <g id="plasma-browser-integration">
  <rect  style="opacity:0.001" width="32" height="32" x="0" y="0"/>
  <path  style="opacity:1;fill:#232627" d="M 21.060547 3.9394531 L 18.939453 6.0605469 L 23.878906 11 L 18.939453 15.939453 L 21.060547 18.060547 L 28.121094 11 L 21.060547 3.9394531 z M 10 4 C 8.8919989 4 8 4.8920001 8 6 C 8 7.1079998 8.8919989 8 10 8 C 11.107999 8 12 7.1079998 12 6 C 12 4.8920001 11.107999 4 10 4 z M 5.5 11 C 4.669 11 4 11.669001 4 12.5 C 4 13.331 4.669 14 5.5 14 C 6.3309999 14 7 13.331 7 12.5 C 7 11.669001 6.3309999 11 5.5 11 z M 11 14 C 8.4408407 14.000297 5.9211505 15.480393 4.7851562 17.792969 C 3.6324311 19.937831 3.7661758 22.663456 5.0683594 24.710938 C 6.6153278 27.239683 9.8768716 28.564158 12.744141 27.771484 C 15.292385 27.160047 17.324231 24.968898 17.839844 22.414062 C 18.291753 20.445971 17.765664 18.319233 16.537109 16.728516 C 15.249216 15.028119 13.13023 13.992178 10.998047 14.001953 L 11 14 z M 11.056641 14.767578 C 12.061032 14.773278 13.054744 15.03739 13.951172 15.484375 C 13.496791 15.633564 14.164801 16.069972 13.824219 16.298828 C 14.177065 16.529216 14.648422 16.087297 14.160156 15.857422 C 13.72891 15.17663 15.262119 16.058046 14.466797 16.300781 C 14.195953 16.546914 13.534742 16.449028 14.072266 16.896484 C 14.115626 17.331006 13.132626 16.810208 13.255859 17.525391 C 13.303449 17.847048 13.436487 17.953404 12.958984 18.242188 C 12.582398 18.764706 11.879095 19.199049 11.996094 19.990234 C 11.806994 20.615898 12.474864 20.935492 13.013672 21.070312 C 13.572171 21.033593 14.902089 20.671923 15.130859 21.371094 C 14.893215 21.990003 16.172731 22.604125 15.632812 23.21875 C 15.282394 23.793893 15.702014 23.996058 15.589844 24.587891 C 16.021881 25.209737 14.46935 26.118503 13.996094 26.396484 C 12.567067 27.235865 10.734471 27.34732 9.1621094 26.804688 C 8.5440795 26.430076 9.3009272 26.136201 9.4960938 25.947266 C 9.2259152 25.431292 9.6463136 25.741286 9.6503906 25.193359 C 9.6558906 24.364671 10.75564 24.501966 10.677734 23.640625 C 10.700754 23.127196 11.499929 22.427089 10.617188 22.21875 C 9.957254 22.092958 9.419848 22.13554 9.0742188 21.564453 C 8.4729684 21.484503 8.4649877 20.852613 7.7617188 20.966797 C 7.2654315 20.671362 6.5879389 21.714929 6.2851562 20.962891 C 6.3992442 20.577733 6.1747027 19.975219 5.8398438 20.052734 C 6.0003544 19.764151 5.9984213 19.195878 5.6269531 19.660156 C 5.0234519 20.195153 4.8857033 19.29049 5.1933594 18.904297 C 5.5809053 18.399046 6.5130845 18.430073 6.8261719 18.884766 C 6.7943779 18.148556 7.5869882 18.039342 7.9316406 17.472656 C 8.3232865 17.270889 8.7237699 16.806296 9.1035156 17.023438 C 9.3676952 16.984858 9.6445524 16.680883 9.2109375 16.835938 C 9.0031877 16.734585 9.4173578 16.384967 9.046875 16.476562 C 9.3561829 16.396822 9.6797275 16.340745 9.9921875 16.328125 C 9.3070482 16.733601 10.765096 16.86274 10.154297 16.414062 C 10.33696 15.943957 9.9823381 15.812493 9.8613281 15.416016 C 9.5283293 15.429156 9.501444 15.535541 9.3164062 15.203125 C 8.6628274 14.828793 9.944367 15.312458 10.033203 14.986328 C 10.284949 14.706867 10.722587 14.80229 11.058594 14.771484 L 11.056641 14.767578 z M 8.8496094 15.181641 L 8.8535156 15.181641 C 8.7082762 15.68142 8.2853967 16.045193 7.9511719 16.201172 C 7.8573999 15.923411 7.97696 15.842782 7.6894531 15.777344 C 8.012066 15.484273 8.4622433 15.368117 8.8496094 15.181641 z M 13.59375 15.84375 C 13.060007 15.99485 13.637952 16.477075 13.751953 15.947266 C 13.753453 15.866846 13.658571 15.836343 13.59375 15.845703 L 13.59375 15.84375 z M 15.470703 16.863281 C 15.923142 17.094825 16.685137 17.983628 16.466797 18.287109 C 16.078188 18.192529 16.209061 18.694302 15.777344 18.388672 C 15.198476 18.299522 15.191799 17.452814 14.488281 17.802734 C 14.236566 17.979795 13.237283 18.048965 13.986328 17.753906 C 14.314167 17.398981 14.824524 16.758132 15.396484 17.203125 C 15.568108 17.402549 15.90731 17.798185 15.925781 17.376953 C 15.796837 17.25787 15.231666 17.098008 15.470703 16.863281 z M 5.1328125 20.056641 L 5.1367188 20.056641 C 5.6981236 20.229334 6.0763018 21.236222 6.5644531 21.330078 C 7.2162477 21.133498 6.6259541 22.215279 6.4863281 22.488281 C 6.6121199 23.163967 7.0621582 23.465108 7.6640625 23.822266 C 7.9899577 24.567563 7.8041187 25.438828 7.953125 26.222656 C 7.1836907 25.868205 6.4986472 25.148169 5.984375 24.441406 C 5.1874017 23.311863 4.8058937 21.894401 4.8984375 20.519531 C 4.9457195 20.367693 4.942573 20.100521 5.1328125 20.056641 z"/>
 </g>
</svg>
