<?xml version="1.0" encoding="UTF-8" standalone="no"?>
<svg
   xmlns:dc="http://purl.org/dc/elements/1.1/"
   xmlns:cc="http://creativecommons.org/ns#"
   xmlns:rdf="http://www.w3.org/1999/02/22-rdf-syntax-ns#"
   xmlns:svg="http://www.w3.org/2000/svg"
   xmlns="http://www.w3.org/2000/svg"
   xmlns:sodipodi="http://sodipodi.sourceforge.net/DTD/sodipodi-0.dtd"
   xmlns:inkscape="http://www.inkscape.org/namespaces/inkscape"
   viewBox="0 0 22 22"
   version="1.1"
   id="svg"
   sodipodi:docname="slc.svg"
   inkscape:version="1.0.1 (3bc2e813f5, 2020-09-07)">
  <sodipodi:namedview
     pagecolor="#ffffff"
     bordercolor="#666666"
     borderopacity="1"
     objecttolerance="10"
     gridtolerance="10"
     guidetolerance="10"
     inkscape:pageopacity="0"
     inkscape:pageshadow="2"
     inkscape:window-width="1920"
     inkscape:window-height="1031"
     id="namedview15"
     showgrid="false"
     inkscape:zoom="19.886201"
     inkscape:cx="11.054187"
     inkscape:cy="11"
     inkscape:window-x="0"
     inkscape:window-y="24"
     inkscape:window-maximized="1"
     inkscape:current-layer="slc-connect" />
  <metadata
     id="metadata23">
    <rdf:RDF>
      <cc:Work
         rdf:about="">
        <dc:format>image/svg+xml</dc:format>
        <dc:type
           rdf:resource="http://purl.org/dc/dcmitype/StillImage" />
        <dc:title />
      </cc:Work>
    </rdf:RDF>
  </metadata>
  <defs
     id="defs3">
    <style
       type="text/css"
       id="current-color-scheme">.ColorScheme-Text {
        color:#363636;
      }</style>
  </defs>
  <g
     transform="translate(-1,-41)"
     id="slc-like">
    <rect
       id="rect5"
       fill-opacity="0"
       height="22"
       width="22"
       y="1"
       x="1" />
    <path
       id="path7"
       d="M 8,4 C 5.2386,4 3,6.2386 3,9 c 0,5 7,9 9,11 2,-2 9,-6 9,-11 C 21,6.2386 18.7614,4 16,4 14.3604,4 12.9118,4.78077 12,6 11.08819,4.7808 9.6396,4 8,4 Z m 0,2 c 3,0 4,2 4,2 0,0 1,-2 4,-2 1.6569,0 3,1.3431 3,3 0,4 -5,7 -7,9 C 10,16 5,13 5,9 5,7.3431 6.3431,6 8,6 Z"
       fill="currentColor"
       class="ColorScheme-Text" />
  </g>
  <g
     transform="translate(39,-1)"
     id="slc-share">
    <rect
       id="rect10"
       fill-opacity="0"
       height="22"
       width="22"
       y="1"
       x="1" />
    <path
       id="path12"
       d="m18 4c-1.6569 0-3 1.3431-3 3 0 0.087382 0.02393 0.16451 0.03125 0.25l-6.75 2.8125c-0.55028-0.64728-1.3651-1.0625-2.2812-1.0625-1.6569 0-3 1.3431-3 3s1.3431 3 3 3c0.91614 0 1.731-0.41522 2.2812-1.0625l6.75 2.8125c-0.007321 0.085486-0.03125 0.16262-0.03125 0.25 0 1.6569 1.3431 3 3 3s3-1.3431 3-3-1.3431-3-3-3c-0.91614 0-1.731 0.41522-2.2812 1.0625l-6.75-2.8125c0.0073208-0.085486 0.03125-0.16262 0.03125-0.25s-0.023929-0.16451-0.03125-0.25l6.75-2.8125c0.55028 0.64728 1.3651 1.0625 2.2812 1.0625 1.6569 0 3-1.3431 3-3s-1.3431-3-3-3zm0 2c0.55228 0 1 0.44772 1 1s-0.44772 1-1 1-1-0.44772-1-1 0.44772-1 1-1zm-12 5c0.55228 0 1 0.44772 1 1s-0.44772 1-1 1-1-0.44772-1-1 0.44772-1 1-1zm12 5c0.55228 0 1 0.44772 1 1s-0.44772 1-1 1-1-0.44772-1-1 0.44772-1 1-1z"
       fill="currentColor"
       class="ColorScheme-Text" />
  </g>
  <g
     transform="translate(-1,-1)"
     id="slc-connect">
    <rect
       id="rect15"
       fill-opacity="0"
       height="22"
       width="22"
       y="1"
       x="1" />
    <path
       id="path17"
       d="m14 4c-0.7785 0.7785-0.93671 2.1687-0.03125 3.6875l-4.25 2.8438c-0.52841-0.21321-1.0956-0.37218-1.6562-0.375-0.72876-0.0037-1.4375 0.21875-2.0625 0.84375l3 3-4 4-1 2 2-1 4-4 3 3c1.107-1.107 0.96475-2.5078 0.46875-3.7188l2.8438-4.25c1.5188 0.90546 2.909 0.74725 3.6875-0.03125l-6-6z"
       fill="currentColor"
       class="ColorScheme-Text" />
  </g>
</svg>
