<svg version="1.1" viewBox="0 0 54 128" xmlns="http://www.w3.org/2000/svg">
 <defs>
  <style id="current-color-scheme" type="text/css">.ColorScheme-Text { color:#363636; }</style>
 </defs>
 <g id="22-22-system-save-session" transform="translate(112,32)">
  <path class="ColorScheme-Text" d="m3 13.004v16h16v-12.699h-7e-3l7e-3 -0.015-3.293-3.293-8e-3 0.015v-0.015h-12.699zm1 1.0018h3v5h8v-5h0.29298l2.707 2.707v11.293h-2v-7h-10v7h-2v-14zm4 0h3.9004v4h-3.9004v-4zm-1 8.0001h8v6h-8v-6z" fill="currentColor"/>
  <path d="m0 10v22h22v-22h-22z" fill="none"/>
 </g>
 <g id="system-save-session" transform="translate(112,32)">
  <path class="ColorScheme-Text" d="m26 4v24h24v-18l-6-6h-18zm1 1h5v8h11v-8h0.58594l5.4141 5.4141v16.586h-4v-8h-14v8h-4v-22zm6 0h6v7h-6v-7zm-1 15h12v7h-12v-7z" fill="currentColor"/>
  <path d="m22 0v32h32v-32h-32z" fill="none"/>
 </g>
 <g id="22-22-system-users" transform="translate(54,32)">
  <path class="ColorScheme-Text" d="m14 13c-1.662 0-3 1.338-3 3s1.338 3 3 3 3-1.338 3-3-1.338-3-3-3zm-6 3c-1.662 0-3 1.338-3 3s1.338 3 3 3 3-1.338 3-3-1.338-3-3-3zm6 4c-0.64635 0-1.256 0.13409-1.8184 0.36133l0.45508 0.91406c0.42782-0.1605 0.87776-0.27539 1.3633-0.27539 2.216 0 4 1.784 4 4h-3.5l0.5 1h4v-1c0-2.77-2.23-5-5-5zm-6 3c-2.77 0-5 2.23-5 5v1h10v-1c0-2.77-2.23-5-5-5zm0 1c2.216 0 4 1.784 4 4h-8c0-2.216 1.784-4 4-4z" fill="currentColor"/>
  <path d="m0 10v22h22v-22h-22z" fill="none"/>
 </g>
 <g id="system-users" transform="translate(54,32)">
  <path class="ColorScheme-Text" d="m42.5 4a4.5 4.5 0 0 0-4.5 4.5 4.5 4.5 0 0 0 4.5 4.5 4.5 4.5 0 0 0 4.5-4.5 4.5 4.5 0 0 0-4.5-4.5zm0 1a3.5 3.5 0 0 1 3.5 3.5 3.5 3.5 0 0 1-3.5 3.5 3.5 3.5 0 0 1-3.5-3.5 3.5 3.5 0 0 1 3.5-3.5zm-9 4c-2.4853 0-4.5 2.0147-4.5 4.5s2.0147 4.5 4.5 4.5 4.5-2.0147 4.5-4.5-2.0147-4.5-4.5-4.5zm0 1a3.5 3.5 0 0 1 3.5 3.5 3.5 3.5 0 0 1-3.5 3.5 3.5 3.5 0 0 1-3.5-3.5 3.5 3.5 0 0 1 3.5-3.5zm9 4c-0.88285 3e-3 -1.7583 0.17228-2.5859 0.5-0.06618 0.42368-0.17413 0.83977-0.32226 1.2422 0.90271-0.48731 1.8984-0.74142 2.9082-0.74219 3.5899 0 6.5 3.134 6.5 7h-8.3418c0.17032 0.32329 0.3255 0.65711 0.46484 1h8.877v-1c0-4.4183-3.3579-8-7.5-8zm-9 5c-4.1421 0-7.5 3.5817-7.5 8v1h15v-1c0-4.4183-3.3579-8-7.5-8zm0 1c3.5899 0 6.5 3.134 6.5 7h-13c0-3.866 2.9101-7 6.5-7z" fill="currentColor"/>
  <path d="m22 0v32h32v-32h-32z" fill="none"/>
 </g>
 <g id="22-22-system-search" transform="translate(0,-32)">
  <path class="ColorScheme-Text" d="m9 13c-3.324 0-6 2.676-6 6s2.676 6 6 6c1.4812 0 2.8306-0.53468 3.875-1.418l5.418 5.418 0.70703-0.70703-5.418-5.418c0.88329-1.0444 1.418-2.3938 1.418-3.875 0-3.324-2.676-6-6-6zm0 1c2.77 0 5 2.23 5 5s-2.23 5-5 5-5-2.23-5-5 2.23-5 5-5z" fill="currentColor"/>
  <path d="m0 10v22h22v-22h-22z" fill="none"/>
 </g>
 <g id="system-search" transform="translate(0,-32)">
  <path class="ColorScheme-Text" d="m35 4a9 9 0 0 0-9 9 9 9 0 0 0 9 9 9 9 0 0 0 5.9941-2.2988l8.2988 8.2988 0.70703-0.70703-8.3008-8.3008a9 9 0 0 0 2.3008-5.9922 9 9 0 0 0-9-9zm0 1a8 8 0 0 1 8 8 8 8 0 0 1-8 8 8 8 0 0 1-8-8 8 8 0 0 1 8-8z" fill="currentColor"/>
  <path d="m22 0v32h32v-32h-32z" fill="none"/>
 </g>
 <g id="system-user-list" transform="translate(108)">
  <path class="ColorScheme-Text" d="m45 9c-0.58947 0-1.133 0.17457-1.5938 0.46875 0.04318 0.46425 0.0075 0.92267-8e-3 1.3359 0.37711-0.50585 0.9708-0.80409 1.6018-0.80463 1.1046 0 2 0.89543 2 2s-0.89543 2-2 2c-1.0405-5.56e-4 -1.9068-0.7989-1.9922-1.8359-0.18434 0.41948-0.46466 0.77032-0.6956 1.0996-1e-3 0.0013-3e-3 0.0026-4e-3 0.0039 0.476 1.0197 1.4888 1.7324 2.6918 1.7324 1.6612 0 2.998-1.338 2.998-3s-1.3369-3-2.998-3zm-7 9c4.432 0 8 3.568 8 8h-16c0-4.432 3.568-8 8-8zm1e-5 -1c-4.9856 0-9 3.7166-9 8.3333v1.6667h18v-1.6667c0-4.6167-4.0144-8.3333-9-8.3333zm6.9765-1c-1.2619 4.88e-4 -2.3962 0.47884-3.2754 1.2402 0.38003 0.15615 0.76608 0.33575 1.1424 0.50783 5e-3 0.0025 9e-3 0.0052 0.0137 0.0078 0.61531-0.44993 1.3332-0.75586 2.1173-0.75586 2.2269 5e-5 4.0234 2.338 4.0234 4h-2.7285c0.19616 0.3391 0.30158 0.64811 0.449 1h3.2815v-1c0-2.7694-2.2402-4.9989-5.0215-5zm-6.9766-10c2.2092 0 4 1.7909 4 4s-1.7908 4-4 4-4-1.7909-4-4 1.7908-4 4-4zm0-1c-2.7614 0-5 2.2386-5 5s2.2386 5 5 5c2.3508 0 4.3227-1.6223 4.8571-3.8084 0.093361-0.38187 0.14286-0.78094 0.14286-1.1916 0-2.7614-2.2386-5-5-5zm-6.9766 11c1.2619 4.88e-4 2.3962 0.47884 3.2754 1.2402-0.40446 0.16292-0.80548 0.35541-1.1561 0.51561-0.61531-0.44991-1.3332-0.75584-2.1173-0.75584-2.2269 5e-5 -4.0234 2.338-4.0234 4h2.7285c-0.18697 0.33326-0.31833 0.6897-0.449 1h-3.2815v-1c0-2.7694 2.2402-4.9989 5.0215-5zm-0.02539-7c0.58947 0 1.133 0.17457 1.5938 0.46875-0.04841 0.46007-0.0093 0.92754 8e-3 1.3359-0.37711-0.50585-0.9708-0.80409-1.6018-0.80463-1.1046 0-2 0.89543-2 2s0.89543 2 2 2c1.0405-5.56e-4 1.9068-0.7989 1.9922-1.8359 0.18831 0.40268 0.47165 0.77011 0.6956 1.0996 1e-3 0.0013 3e-3 0.0026 4e-3 0.0039-0.476 1.0197-1.4888 1.7324-2.6918 1.7324-1.6612 0-2.998-1.338-2.998-3s1.3369-3 2.998-3z" fill="currentColor"/>
  <path d="m22 0v32h32v-32z" fill="none"/>
 </g>
 <g id="system-user-prompt" transform="translate(112,64)">
  <path d="m22 0v32h32v-32z" fill="none"/>
  <path class="ColorScheme-Text" d="m37 10.75v1.5h5v-1.5zm-4 0v1.5h3v-1.5zm-6 0v1.5h5v-1.5zm-1-1.75h24v5h-24zm-1-1v7h26v-7zm1 10h24v5h-24zm-1-1v7h26v-7zm3.5 2c-0.82843 0-1.5 0.67157-1.5 1.5s0.67157 1.5 1.5 1.5 1.5-0.67157 1.5-1.5-0.67157-1.5-1.5-1.5zm4 0c-0.82843 0-1.5 0.67157-1.5 1.5s0.67157 1.5 1.5 1.5 1.5-0.67157 1.5-1.5-0.67157-1.5-1.5-1.5zm4 0c-0.82843 0-1.5 0.67157-1.5 1.5s0.67157 1.5 1.5 1.5 1.5-0.67157 1.5-1.5-0.67157-1.5-1.5-1.5zm4 0c-0.82843 0-1.5 0.67157-1.5 1.5s0.67157 1.5 1.5 1.5 1.5-0.67157 1.5-1.5-0.67157-1.5-1.5-1.5z" fill="currentColor"/>
 </g>
 <g id="22-22-system-user-prompt" transform="matrix(.6875 0 0 .6875 96.875 74)">
  <path class="ColorScheme-Text" d="m35.818 21.091a0.72727 0.72727 0 0 1-0.72727 0.72727 0.72727 0.72727 0 0 1-0.72727-0.72727 0.72727 0.72727 0 0 1 0.72727-0.72727 0.72727 0.72727 0 0 1 0.72727 0.72727zm-2.1818 0a0.72727 0.72727 0 0 1-0.72727 0.72727 0.72727 0.72727 0 0 1-0.72727-0.72727 0.72727 0.72727 0 0 1 0.72727-0.72727 0.72727 0.72727 0 0 1 0.72727 0.72727zm-2.1818 0a0.72727 0.72727 0 0 1-0.72727 0.72727 0.72727 0.72727 0 0 1-0.72727-0.72727 0.72727 0.72727 0 0 1 0.72727-0.72727 0.72727 0.72727 0 0 1 0.72727 0.72727zm-2.1818 0a0.72727 0.72727 0 0 1-0.72727 0.72727 0.72727 0.72727 0 0 1-0.72727-0.72727 0.72727 0.72727 0 0 1 0.72727-0.72727 0.72727 0.72727 0 0 1 0.72727 0.72727zm5.8182-10.909h2.9091v1.4545h-2.9091zm-2.9091 0h1.4545v1.4545h-1.4545zm-4.3636 0h2.9091v1.4545h-2.9091zm-2.9091 7.2727v7.2727h26.182v-7.2727zm1.4545 1.4545h23.273v4.3636h-23.273zm-1.4545-11.636v7.2727h26.182v-7.2727zm1.4545 1.4545h23.273v4.3636h-23.273z" fill="currentColor"/>
  <path d="m22 0v32h32v-32z" fill="none"/>
 </g>
 <g id="22-22-system-user-list" transform="matrix(.6875 0 0 .6875 92.875 10)">
  <path class="ColorScheme-Text" d="m44.552 10.182c-0.37453 0-0.72044 0.10364-1.0284 0.26989 1.89e-4 0.0019-0.09527 0.05843-0.09498 0.06047 0.11476 1.4527-0.24945 2.3769-0.66509 3.0986 0.39606 0.5635 1.0484 0.93468 1.7885 0.93468 1.0258 0 1.8861-0.70799 2.1193-1.6619 0.04073-0.16664 0.06255-0.3407 0.06255-0.51989-1.4e-5 -1.205-0.97684-2.1818-2.1818-2.1818zm-13.098 0c0.37453 0 0.72044 0.10364 1.0284 0.26989-1.89e-4 0.0019 0.09527 0.05843 0.09498 0.06047-0.11476 1.4527 0.24946 2.3769 0.66509 3.0986-0.39606 0.5635-1.0484 0.93468-1.7885 0.93468-1.0258 0-1.8861-0.70799-2.1193-1.6619-0.04073-0.16664-0.06254-0.3407-0.06254-0.51989 1.4e-5 -1.205 0.97684-2.1818 2.1818-2.1818zm-4.4e-5 5.8182c1.2265 0 2.3022 0.56552 2.9602 1.4773-0.36926 0.19574-0.745 0.43622-1.071 0.63066-0.35836-0.42266-1.025-0.65339-1.8893-0.65339-1.3095 0-2.1818 0.9608-2.1818 2.9091h1.8182l-0.72727 1.4545h-2.5455l1e-6 -2.2102c1e-6 -2.093 1.622-3.608 3.6364-3.608zm13.091 1.4e-5c-1.2265 0-2.3022 0.56552-2.9602 1.4773 0.36926 0.19574 0.745 0.43622 1.071 0.63066 0.35836-0.42266 1.025-0.65339 1.8893-0.65339 1.3095 0 2.1818 0.99389 2.1818 2.9091h-1.8182l0.72727 1.4545h2.5455l2e-6 -2.2102c2e-6 -2.093-1.622-3.608-3.6364-3.608zm-6.5455 2.9091c2.9091 0 5.8182 1.4545 5.8182 5.8182h-11.636c0-4.3636 2.9091-5.8182 5.8182-5.8182zm0-1.4545c-4.2302 0-7.2612 2.9743-7.2698 7.2727l-0.0029 1.4545h14.545l-0.0029-1.4545c-0.00866-4.3213-3.0396-7.2727-7.2698-7.2727zm7.5e-5 -11.636c-2.8117 0-5.091 2.2793-5.091 5.0909s2.2793 5.0909 5.091 5.0909c2.3936 0 4.4013-1.6518 4.9455-3.8777 0.09498-0.38881 0.14547-0.79514 0.14547-1.2133 0-2.8116-2.2793-5.0909-5.091-5.0909z" fill="currentColor"/>
  <path d="m22 0v32h32v-32z" fill="none"/>
 </g>
 <g id="system-lock-screen">
  <path d="m184-73c-8.8276 0-16 7.1724-16 16s7.1724 16 16 16 16-7.1724 16-16-7.1724-16-16-16z" opacity="0"/>
  <path d="m184-72c-8.2759 0-15 6.7241-15 15s6.7241 15 15 15 15-6.7241 15-15-6.7241-15-15-15zm0 1c7.7242 0 14 6.2758 14 14s-6.2758 14-14 14-14-6.2758-14-14 6.2758-14 14-14z" class="ColorScheme-Text" fill="currentColor"/>
  <path d="m184-67c-2.216 0-4 1.784-4 4v4h-1c-1.662 0-3 1.338-3 3v4c0 1.662 1.338 3 3 3h10c1.662 0 3-1.338 3-3v-4c0-1.662-1.338-3-3-3h-1v-4c0-2.216-1.784-4-4-4zm0 1c1.662 0 3 1.338 3 3v4h-6v-4c0-1.662 1.338-3 3-3zm-5 8h10c1.108 0 2 0.892 2 2v4c0 1.108-0.892 2-2 2h-10c-1.108 0-2-0.892-2-2v-4c0-1.108 0.892-2 2-2z" class="ColorScheme-Text" fill="currentColor"/>
 </g>
 <g id="22-22-system-log-out" transform="matrix(-1,0,0,1,22,0)">
  <path d="m0 10v22h22v-22z" fill="none"/>
  <path class="ColorScheme-Text" d="m10.99 12a9 9 0 0 0-8.9902 9 9 9 0 0 0 9 9 9 9 0 0 0 9-9 9 9 0 0 0-9-9 9 9 0 0 0-0.0098 0zm-0.08594 2a7 7 0 0 1 2e-3 0 7 7 0 0 1 0.09375 0 7 7 0 0 1 7 7 7 7 0 0 1-7 7 7 7 0 0 1-7-7 7 7 0 0 1 6.9043-7zm1.6309 2.4629c-0.25562 0-0.51116 0.09905-0.70703 0.29492l-3.5352 3.5352v2e-3c-0.19507 0.19566-0.29297 0.44993-0.29297 0.70503v2e-3c2.45e-4 0.12717 0.023544 0.25331 0.072266 0.37305v2e-3c0.048966 0.11979 0.12317 0.23254 0.2207 0.33008v2e-3l3.5352 3.5352c0.39174 0.39174 1.0223 0.39174 1.4141 0 0.39174-0.39174 0.39174-1.0223 0-1.4141l-2.8281-2.8302 2.8281-2.8281c0.39174-0.39174 0.39174-1.0223 0-1.4141-0.19587-0.19587-0.45141-0.29492-0.70703-0.29492z" fill="currentColor"/>
 </g>
 <g id="22-22-system-suspend-hibernate">
  <path d="m0 74v22h22v-22z" fill="none"/>
  <path class="ColorScheme-Text" d="m10.99 76c-4.9667 0.0054-8.9902 4.0332-8.9902 9 0 4.9706 4.0294 9 9 9 4.9706 1e-6 9-4.0294 9-9s-4.0294-9-9-9h-0.009766zm-0.083984 2c0.03125-2.09e-4 0.0625-2.09e-4 0.09375 0 3.5253-1e-6 6.4332 2.6094 6.9199 6h-13.842c0.48136-3.3573 3.3391-5.9533 6.8281-6zm-6.8262 8h13.84c-0.4867 3.3906-3.3946 6-6.9199 6-3.5253-1e-6 -6.4332-2.6094-6.9199-6z" fill="currentColor"/>
 </g>
 <g id="22-22-system-switch-user">
  <path d="m54 10v22h22v-22z" fill="none"/>
  <g class="ColorScheme-Text" transform="translate(-3 19)" fill="currentColor">
   <rect x="60" y="-2" width="16" height="2" ry="1"/>
   <rect transform="rotate(45)" x="45.325" y="-54.74" width="8" height="2" ry="1"/>
   <rect transform="scale(-1)" x="-76" y="-6" width="16" height="2" ry="1"/>
   <rect transform="rotate(225)" x="-53.67" y="38.598" width="8" height="2" ry="1"/>
  </g>
 </g>
 <g id="22-22-system-reboot">
  <path d="m54 74v22h22v-22z" fill="none"/>
  <path class="ColorScheme-Text" d="m64.975 76c-4.0939 5e-3 -7.6686 2.7723-8.6992 6.7344l0.01563 0.01563c-0.02148 0.08177-0.05078 0.16131-0.05078 0.25 0 0.554 0.446 1 1 1h4.7441c0.554 0 1-0.446 1-1s-0.446-1-1-1h-3.3184c1.13-2.3826 3.5268-3.9633 6.2246-4 0.03125-2.09e-4 0.0625-2.09e-4 0.09375 0 3.0952 5.19e-4 5.8227 2.0338 6.707 5h2.0684c-0.93337-4.0952-4.5752-7.0002-8.7754-7zm3.041 10c-0.554 0-1 0.446-1 1s0.446 1 1 1h3.3184c-1.13 2.3826-3.5268 3.9633-6.2246 4-0.03125 2.09e-4 -0.0625 2.09e-4 -0.09375 0-3.0952-5.19e-4 -5.8227-2.0338-6.707-5h-2.0684c0.93337 4.0952 4.5752 7.0002 8.7754 7h0.0098c4.0939-5e-3 7.6686-2.7723 8.6992-6.7344l-0.01566-0.015625c0.02148-0.08177 0.05078-0.16131 0.05078-0.25 0-0.554-0.446-1-1-1z" fill="currentColor"/>
 </g>
 <g id="22-22-system-suspend">
  <path d="m0.048275 105.97v22h22v-22z" fill="none"/>
  <path class="ColorScheme-Text" d="m12.71 114.1h1.715l-0.032 0.9h-3.397l1.714-2.7h-1.714v-0.9h3.429zm4.573-2.4h1.717l-0.032 0.9h-3.401l1.716-2.7h-1.716v-0.9h3.433z" fill="currentColor"/>
  <path class="ColorScheme-Text" d="m4.6298 110.64c-3.5063 3.5063-3.5063 9.2216 0 12.728 3.5063 3.5063 9.2216 3.5063 12.728 0 0.53741-0.53708 1.0048-1.1396 1.3907-1.794a1.0001 1.0001 0 0 0-1.37-1.37c-2.754 1.6246-6.2449 1.1823-8.506-1.0786-2.2605-2.2601-2.7041-5.7492-1.0814-8.5032a1.0001 1.0001 0 0 0-1.37-1.37c-0.65321 0.38517-1.2549 0.85187-1.7912 1.388zm0.32455 3.0535c-0.13155 2.4894 0.6528 4.9952 2.5039 6.846 1.8512 1.851 4.3564 2.6359 6.846 2.5039-2.6584 1.4597-6.0026 1.1679-8.2602-1.0897-2.2575-2.2575-2.5494-5.6018-1.0897-8.2602z" fill="currentColor"/>
 </g>
 <g id="22-22-system-shutdown">
  <path d="m0 42v22h22v-22z" fill="none"/>
  <path class="ColorScheme-Text" d="m5.3431 47.343a8 8 0 0 0 0 11.314 8 8 0 0 0 11.314 0 8 8 0 0 0 0-11.314 1 1 0 0 0-1.4142 0 1 1 0 0 0 0 1.4142 6 6 0 0 1 0 8.4853 6 6 0 0 1-8.4853 0 6 6 0 0 1 0-8.4853 1 1 0 0 0 0-1.4142 1 1 0 0 0-1.4142 0z" fill="currentColor"/>
  <rect class="ColorScheme-Text" x="10" y="44" width="2" height="8" ry="1" fill="currentColor"/>
 </g>
 <g id="22-22-system-lock-screen">
  <path d="m54 106v22h22v-22z" fill="none"/>
  <path class="ColorScheme-Text" d="m59 117c-1.108 0-2 0.892-2 2v5c0 1.108 0.892 2 2 2h12c1.108 0 2-0.892 2-2v-5c0-1.108-0.892-2-2-2zm0 2h12v5h-12z" fill="currentColor"/>
  <path class="ColorScheme-Text" d="m65 108c-2.216 0-4 1.784-4 4v5h2v-5c0-1.108 0.892-2 2-2s2 0.892 2 2v5h2v-5c0-2.216-1.784-4-4-4z" fill="currentColor"/>
 </g>
 <g id="system-suspend-hibernate">
  <path d="m-52-73c-8.8276 0-16 7.1724-16 16s7.1724 16 16 16 16-7.1724 16-16-7.1724-16-16-16z" opacity="0"/>
  <g class="ColorScheme-Text" fill="currentColor">
   <path d="m-52-72c-8.2759 0-15 6.7241-15 15s6.7241 15 15 15 15-6.7241 15-15-6.7241-15-15-15zm0 1c7.7242 0 14 6.2758 14 14s-6.2758 14-14 14-14-6.2758-14-14 6.2758-14 14-14z"/>
   <path d="m-52.02-67a10 10 0 0 0-9.9805 10 10 10 0 0 0 10 10 10 10 0 0 0 10-10 10 10 0 0 0-10-10 10 10 0 0 0-0.019531 0zm0.009765 1a9 9 0 0 1 0.009766 0 9 9 0 0 1 9 9 9 9 0 0 1-9 9 9 9 0 0 1-9-9 9 9 0 0 1 8.9902-9z"/>
   <rect x="-61" y="-56" width="18" height="1"/>
  </g>
 </g>
 <g id="system-reboot">
  <path d="m-5-73c-8.8286 0-16 7.1714-16 16s7.1714 16 16 16c8.8275 0 16-7.1714 16-16 0-8.8275-7.1714-16-16-16z" opacity="0"/>
  <g class="ColorScheme-Text" fill="currentColor">
   <path d="m-5-72c-8.2768 0-15 6.7232-15 15s6.7232 15 15 15c8.2758 0 15-6.7232 15-15 0-8.2758-6.7232-15-15-15zm0 1c7.725 0 14 6.2759 14 14 0 7.725-6.2759 14-14 14-7.725 0-14-6.275-14-14s6.275-14 14-14z"/>
   <g>
    <path d="m-5.0098-67a10 10 0 0 0-9.7773 8h1.0215a9 9 0 0 1 8.7656-7 9 9 0 0 1 0.0097656 0 9 9 0 0 1 8.7734 7h1.0254a10 10 0 0 0-9.7988-8 10 10 0 0 0-0.019531 0zm-9.7793 12a10 10 0 0 0 9.7988 8 10 10 0 0 0 9.7969-8h-1.0215a9 9 0 0 1-8.7754 7 9 9 0 0 1-8.7734-7h-1.0254z"/>
    <rect x="-14.494" y="-60" width="6.4941" height="1" ry="0"/>
    <rect x="-2" y="-55" width="6.4941" height="1" ry="0"/>
   </g>
  </g>
 </g>
 <g id="system-shutdown">
  <path d="m42-73c-8.8286 0-16 7.1714-16 16s7.1714 16 16 16 16-7.1714 16-16-7.1714-16-16-16z" opacity="0"/>
  <g class="ColorScheme-Text" fill="currentColor">
   <path d="m42-72c-8.2768 0-15 6.7232-15 15s6.7232 15 15 15 15-6.7232 15-15-6.7232-15-15-15zm0 1c7.725 0 14 6.275 14 14s-6.275 14-14 14-14-6.275-14-14 6.275-14 14-14z"/>
   <path d="m49.184-63.977-0.70703 0.70703a9 9 0 0 1 2.543 6.2695 9 9 0 0 1-9 9 9 9 0 0 1-9-9 9 9 0 0 1 2.5234-6.25l-0.70703-0.70703a10 10 0 0 0-2.8164 6.957 10 10 0 0 0 10 10 10 10 0 0 0 10-10 10 10 0 0 0-2.8359-6.9766z"/>
   <rect x="41" y="-68" width="2" height="10" rx="1" ry="1"/>
  </g>
 </g>
 <g id="system-suspend">
  <circle cx="89" cy="-57" r="16" opacity="0"/>
  <g class="ColorScheme-Text" fill="currentColor">
   <path d="m88.887-72a15 15 0 0 0-14.887 15 15 15 0 0 0 15 15 15 15 0 0 0 15-15 15 15 0 0 0-15-15 15 15 0 0 0-0.11328 0zm0.11328 1a14 14 0 0 1 14 14 14 14 0 0 1-14 14 14 14 0 0 1-14-14 14 14 0 0 1 14-14z"/>
   <g>
    <rect x="81" y="-57" width="6" height="1" ry=".5"/>
    <rect x="81" y="-52" width="6" height="1" ry=".5"/>
    <rect transform="rotate(-45)" x="93.546" y="20.713" width="8.07" height="1" ry=".5"/>
    <rect x="89" y="-56" width="8" height="1" ry=".5"/>
    <rect x="89" y="-63" width="8" height="1" ry=".5"/>
    <rect transform="rotate(-45)" x="102.03" y="23.542" width="10.898" height="1" ry=".5"/>
   </g>
  </g>
 </g>
 <g id="system-log-out">
  <path d="m137-73c-8.8276 0-16 7.1724-16 16s7.1724 16 16 16 16-7.1724 16-16-7.1724-16-16-16z" opacity="0"/>
  <g class="ColorScheme-Text" fill="currentColor">
   <path d="m137-72c-8.2759 0-15 6.7241-15 15s6.7241 15 15 15 15-6.7241 15-15-6.7241-15-15-15zm0 1c7.7242 0 14 6.2758 14 14s-6.2758 14-14 14-14-6.2758-14-14 6.2758-14 14-14z"/>
   <rect transform="rotate(45)" x="47.25" y="-140.86" width="13" height="1" ry=".5"/>
   <rect transform="matrix(.70711 -.70711 -.70711 -.70711 0 0)" x="127.86" y="-60.251" width="13" height="1" ry=".5"/>
  </g>
 </g>
 <g id="system-switch-user">
  <circle transform="scale(1,-1)" cx="231" cy="57" r="16" opacity="0"/>
  <g class="ColorScheme-Text" fill="currentColor">
   <path d="m231-72a15 15 0 0 0-15 15 15 15 0 0 0 15 15 15 15 0 0 0 15-15 15 15 0 0 0-15-15zm0 1a14 14 0 0 1 14 14 14 14 0 0 1-14 14 14 14 0 0 1-14-14 14 14 0 0 1 14-14z"/>
   <g>
    <rect x="222" y="-60" width="18" height="1" ry=".5"/>
    <rect x="222" y="-55" width="18" height="1" ry=".5"/>
    <rect transform="rotate(45)" x="120.78" y="-211.92" width="7" height="1" ry=".5"/>
    <rect transform="rotate(45)" x="118.29" y="-196.37" width="7" height="1" ry=".5"/>
   </g>
  </g>
 </g>
</svg>
