<svg xmlns="http://www.w3.org/2000/svg"  width="32" height="32" version="1.1">
 <g id="22-22-TeamViewer" transform="translate(32.000001,10.000001)">
  <rect  style="opacity:0.001" width="22" height="22" x="0" y="0"/>
  <path  style="opacity:1;fill:#232627" d="M 11,2.9999999 C 6.582082,2.9999998 3,6.5820814 3,11 c 0,4.417918 3.582082,8 8,8 4.417918,0 8,-3.582082 8,-8 0,-4.4179186 -3.582082,-8.0000002 -8,-8.0000001 z m 0,1 c 3.865678,-1e-7 7,3.1343213 7,7.0000001 0,3.865678 -3.134322,7 -7,7 C 7.134322,18 4,14.865678 4,11 4,7.1343212 7.134322,3.9999998 11,3.9999999 Z m -2,4 L 6,11 9,14 v -2 h 4 v 2 l 3,-3 -3,-3.0000001 v 2 H 9 Z"/>
 </g>
 <g id="TeamViewer">
  <rect  style="opacity:0.001" width="32" height="32" x="0" y="0"/>
  <path  style="opacity:1;fill:#232627" d="M 16,4 C 9.3731235,3.9999998 4,9.3731223 4,16 4,22.626877 9.3731235,28 16,28 22.626878,28 28,22.626877 28,16 28,9.3731223 22.626878,3.9999998 16,4 Z m 0,1 c 6.074637,-2e-7 11,4.9253624 11,11 0,6.074637 -4.925363,11 -11,11 C 9.9253639,27 5,22.074637 5,16 5,9.9253624 9.9253639,4.9999998 16,5 Z m -4,7 -4,4 4,4 v -3 h 8 v 3 l 4,-4 -4,-4 v 3 h -8 z"/>
 </g>
</svg>
