<svg xmlns="http://www.w3.org/2000/svg"  width="32" height="32" x="0" y="0" version="1.1" xml:space="preserve">
 <g id="22-22-thunderbird" transform="translate(32,10)">
  <rect  style="opacity:0.001" width="22" height="22" x="0" y="0"/>
  <path  style="opacity:0.5;fill:#232627" d="m 12.818359,8.310582 c -0.567804,0.231761 -1.10149,0.484375 -1.824218,0.484375 -0.02606,3.7e-4 -0.05212,-2.84e-4 -0.07813,-0.002 -1.291809,-0.101243 -1.894597,-0.02099 -2.837886,0.898434 -0.07581,0.07372 -0.162828,0.13518 -0.257812,0.181641 -0.05975,0.02922 -0.11626,0.05116 -0.173828,0.07617 -0.06556,0.04068 -0.135855,0.07308 -0.208985,0.09766 l 1.556641,1.748047 4.914062,-1.544922 c 0.04003,-0.147765 0.07825,-0.316126 0.08399,-0.300781 -0.2267,-0.922367 -0.496956,-1.302578 -1.173829,-1.638672 z m -5.673828,1.90625 c -0.208772,0.439056 -0.699741,0.675018 -1.173828,0.537109 -4e-5,0.262589 -0.07252,0.548361 -0.0098,0.783203 0.102689,0.390092 -0.03903,0.803687 -0.359375,1.048829 0.191507,0.669017 0.438161,1.310166 0.761719,1.921874 l 6.205078,1.902344 c 0.03813,-0.04568 0.07765,-0.08161 0.115235,-0.128906 0.389406,-0.490041 0.754454,-1.068637 1.054687,-1.724609 -0.0088,0.0042 -0.0247,0.01162 -0.0332,0.01563 -0.09192,0.04338 -0.167699,0.07808 -0.224609,0.103515 -0.02846,0.01272 -0.05156,0.02165 -0.07422,0.03125 -0.01133,0.0048 -0.02051,0.01028 -0.03906,0.01758 -0.0093,0.0037 -0.01904,0.0067 -0.04492,0.01563 -0.01294,0.0045 -0.06611,0.01945 -0.06641,0.01953 -1.5e-4,4e-5 -0.08975,0.02147 -0.08984,0.02148 -9.2e-5,10e-5 -0.257733,0.0053 -0.289063,0.0059 -0.774371,-0.09183 -1.15041,-0.995198 -0.669922,-1.609375 0.0027,-0.0034 0.01097,-0.01603 0.01367,-0.01953 0.243167,-0.313175 0.751662,-1.042657 1.158203,-1.765625 0.112572,-0.200191 0.181438,-0.37224 0.271485,-0.560547 L 8.99411,12.295005 Z"/>
  <path  style="opacity:1;fill:#232627" d="M 9.396657,2.7953428 C 8.191897,2.8274978 7.537105,3.9221139 7.029469,4.9183897 6.844264,5.0118297 6.656105,5.094152 6.472829,5.195733 5.478149,5.864471 4.6625594,6.791863 4.0333756,7.805108 3.4799235,8.782014 3.1443692,9.86733 3.0197037,10.98089 c -0.074085,1.128995 0.055332,2.279708 0.4804688,3.335937 0.3295182,0.928332 0.9097504,1.947786 1.6523435,2.583262 0.985875,0.657857 1.769874,1.133727 2.845703,1.087891 -2.239841,-1.791482 -3.4216124,-3.939763 -3.7949215,-6.468027 -0.011789,-0.189405 -0.035038,-0.394238 0.033203,-0.34375 0.2552755,0.40459 0.3146666,0.389425 0.7578125,0.61914 C 4.6122779,10.365561 5.122448,8.774929 5.746266,7.613702 5.824316,7.524352 5.909067,7.438628 5.99236,7.351983 l 0.03906,0.0059 C 6.04544,7.581153 6.07185,7.80592 6.09783,8.021946 6.09303,8.126028 6.15943,8.303795 6.17986,8.41843 6.16449,8.45866 6.08109,8.699283 6.049001,9.000461 c -0.01935,0.119286 -0.02002,0.236507 -0.002,0.351563 0.0032,0.02268 0.005,0.0441 0.0098,0.06641 0.0097,0.04048 0.02065,0.08136 0.03711,0.121094 0.03475,0.09384 0.08104,0.182539 0.156242,0.255859 0.02782,-0.125426 0.08458,-0.226611 0.16211,-0.310547 0.01936,-0.02096 0.04863,-0.03376 0.07031,-0.05273 0.07025,-0.05953 0.143598,-0.116958 0.222656,-0.160156 0.01556,-0.0085 0.01582,-0.0058 0.03125,-0.01367 0.196357,-0.100226 0.389587,-0.16211 0.390625,-0.16211 l 0.01563,-0.01563 c 0.08124,-0.03308 0.163188,-0.06874 0.238282,-0.105469 1.127185,-1.098669 2.193155,-1.290982 3.613281,-1.179687 0.781587,0 1.226582,-0.203004 2,-0.550781 1.186546,0.49605 1.695811,1.270693 2,2.550781 0.114559,0.962125 -1.431114,3.269495 -2,3.998047 -6.8e-5,1.1e-5 -0.0039,0.002 -0.0039,0.002 1.2e-5,0 0.0039,-10e-6 0.0039,0 0.01173,0.0016 1.717869,-0.760302 2.398438,-1.40625 -0.485567,3.754421 -3.186124,6.081862 -4.398438,6.606168 0.936965,0.06306 2.220246,-0.52096 3.103516,-1.060547 -0.403265,0.43212 -0.834566,0.89984 -1.103516,1.060547 1.054554,-0.295286 2.053274,-0.403114 2.71875,-0.888672 -2.49e-4,0 0.539372,-0.493939 1.103516,-1.137418 0.07505,-0.08561 0.203986,-0.203291 0.28125,-0.300781 0.04803,-0.06061 0.09368,-0.122701 0.140625,-0.183594 0.0083,-0.01001 0.01744,-0.02109 0.02539,-0.03125 1.187377,-1.452539 1.765529,-3.257976 1.722657,-4.894531 C 18.994785,9.575189 18.188677,7.853834 16.836094,6.430153 15.857921,5.400564 14.746711,4.7690828 13.74625,4.4282003 12.71093,4.1309001 11.492766,3.980078 10.457188,4.0375753 c -0.103696,0.00127 -0.391212,0.00968 -0.783203,0.042969 -0.04584,-0.086358 0.0112,-0.4068056 0.123047,-0.4863281 -0.245162,0.02295 -0.471027,0.3418588 -0.679688,0.5625 -0.03512,0.00685 -0.07117,0.013798 -0.103516,0.021484 C 9.201758,3.8530657 9.39337,3.4873076 9.617344,3.1957784 8.923484,3.3252983 8.620684,3.8708309 8.281406,4.3735128 8.183486,4.4057468 8.088439,4.4448798 7.992344,4.4809347 8.244012,3.7547471 8.717265,3.3572967 9.396641,2.7953878 Z M 7.597829,6.995542 c 0.194105,-0.0038 0.369394,0.0293 0.371094,0.0293 0.0033,0 0.08755,0.340058 -0.07227,0.63086 C 7.736835,7.947613 7.364665,8.064413 7.158373,7.95453 6.947548,7.844647 6.948297,7.476911 7.111503,7.184999 7.190283,7.039043 7.403725,6.999291 7.597831,6.995545 Z"/>
 </g>
 <g id="thunderbird">
  <rect  style="opacity:0.001" width="32" height="32" x="0" y="0"/>
  <path  style="opacity:0.5;fill:#232627" d="M 18.761719 12.404297 C 17.789189 12.870519 16.709815 13.394531 15.429688 13.394531 C 14.596725 13.394531 13.951845 13.141949 13.519531 13.027344 C 13.087218 12.912734 12.995445 12.902683 12.822266 13.001953 A 1.0001 1.0001 0 0 1 12.742188 13.042969 C 12.170229 13.306344 11.578425 13.783208 10.712891 14.166016 C 10.358981 14.338968 10.016685 14.496471 9.796875 14.646484 C 9.7826819 14.656171 9.7822796 14.660779 9.7695312 14.669922 L 12.402344 18.390625 L 20.335938 15.349609 C 20.171149 14.594174 19.661582 13.659053 19.117188 12.789062 A 1.0001 1.0001 0 0 0 19.115234 12.787109 C 19.085385 12.742596 18.891719 12.54404 18.761719 12.404297 z M 9.5253906 14.925781 A 1.0001 1.0001 0 0 1 8.1914062 15.630859 C 8.239288 16.199046 8.1824124 16.842679 8.4453125 17.255859 A 1.0001 1.0001 0 0 1 7.140625 18.679688 L 7.1386719 18.679688 C 7.2558245 19.28884 7.3201823 19.923184 7.5039062 20.503906 A 1.0001 1.0001 0 0 1 7.5507812 20.769531 A 1.0001 1.0001 0 0 1 7.5507812 20.773438 C 7.5544603 20.792088 7.55781 20.806075 7.5625 20.828125 C 7.578075 20.901299 7.616407 21.027917 7.6484375 21.140625 L 19.027344 24.628906 C 19.087423 24.552236 19.149708 24.492188 19.208984 24.412109 C 19.966457 23.388816 20.578745 21.982307 21.050781 20.396484 C 20.927712 20.435019 20.78099 20.488239 20.6875 20.511719 C 20.597797 20.534249 20.523754 20.548957 20.464844 20.560547 C 20.435384 20.566377 20.410616 20.571972 20.384766 20.576172 C 20.378066 20.577308 20.368928 20.577025 20.361328 20.578125 C 20.354318 20.579125 20.349644 20.580731 20.339844 20.582031 C 20.329694 20.583431 20.318132 20.585891 20.294922 20.587891 C 20.283322 20.588952 20.268238 20.588894 20.242188 20.589844 C 20.221658 20.590544 20.149298 20.586284 20.111328 20.583984 A 1.0001 1.0001 0 0 1 20.203125 20.591797 A 1.0001 1.0001 0 0 1 20.078125 20.582031 L 20.076172 20.582031 A 1.0001 1.0001 0 0 1 19.427734 18.958984 C 20.032431 18.177716 20.414743 16.981922 20.392578 15.927734 L 12.402344 18.990234 L 9.5253906 14.925781 z"/>
  <path  style="opacity:1;fill:#232627" d="M 13.601562 4 C 11.7221 4.0501257 10.468724 5.8278413 9.65625 7.3652344 C 9.5082084 7.4436815 9.3583706 7.5199089 9.2109375 7.6015625 C 7.7177926 8.6046695 6.4952692 9.9938031 5.5507812 11.513672 C 4.7199772 12.97903 4.2164365 14.608957 4.0292969 16.279297 C 3.9180861 17.97279 4.1118146 19.698859 4.75 21.283203 C 5.2446502 22.675701 6.115738 23.902254 7.2304688 24.855469 C 8.7103966 25.842255 10.187773 26.855865 11.802734 26.787109 C 10.266882 26.550473 8.8390706 25.142349 7.796875 23.644531 C 6.6582332 22.044226 6.5621145 20.841774 6.5351562 20.800781 L 6.5507812 20.804688 C 6.1703531 19.602215 5.9432941 18.359328 5.8046875 17.087891 C 5.7869905 16.803784 5.7530298 16.494581 5.8554688 16.570312 C 6.2386712 17.177198 6.9363419 17.448397 7.6015625 17.792969 C 6.9706942 16.80148 6.9138723 15.586788 7.0175781 14.408203 C 7.1216373 13.225601 7.3877511 12.078092 8.1210938 11.228516 C 8.1651657 11.178096 8.2167311 11.132004 8.2617188 11.082031 C 8.2882378 11.337716 8.3198324 11.592387 8.3496094 11.839844 C 8.3390774 12.067557 8.5644183 12.545592 8.4550781 12.59375 C 8.2344989 13.259589 8.023333 14.119791 8.5507812 14.701172 C 8.7178446 13.948619 9.6276778 13.584109 10.275391 13.267578 C 11.007584 12.949937 11.599243 12.468603 12.324219 12.134766 C 13.279544 11.587163 14.202496 12.394531 15.429688 12.394531 C 16.602953 12.394531 17.842904 11.716979 19.003906 11.195312 C 19.274111 11.474619 19.757457 11.928336 19.96875 12.259766 L 19.964844 12.259766 C 20.570007 13.226867 21.246955 14.351719 21.384766 15.455078 C 21.556734 16.898264 21.061004 18.497016 20.207031 19.589844 C 20.206929 19.58986 20.199119 19.591797 20.199219 19.591797 C 20.199239 19.591797 20.204978 19.591781 20.205078 19.591797 C 20.222678 19.594097 21.581892 19.361499 22.603516 18.392578 C 21.874616 24.024209 18.423359 27.199869 16.603516 27.986328 C 19.026082 28.149241 20.79939 26.787109 20.802734 26.787109 C 20.805934 26.787109 20.467526 27.470441 19.603516 27.986328 C 21.18654 27.543398 22.083065 27.396307 23.082031 26.667969 C 23.081658 26.667969 23.89338 26.226939 24.740234 25.261719 C 24.852895 25.133311 25.046125 24.95483 25.162109 24.808594 C 25.234209 24.717684 25.30258 24.624543 25.373047 24.533203 C 25.385467 24.518183 25.398206 24.503511 25.410156 24.488281 C 27.192566 22.309472 28.06045 19.599364 27.996094 17.144531 C 28.008511 14.168725 26.799936 11.586692 24.769531 9.4511719 C 23.301165 7.906788 21.634637 6.9605426 20.132812 6.4492188 C 18.442836 5.9642945 16.409792 5.7217822 14.779297 5.8789062 C 14.523437 5.8870463 14.359737 5.8991415 14.003906 5.9296875 C 13.949516 5.778806 14.041601 5.3139713 14.203125 5.1992188 C 13.842851 5.2329197 13.510795 5.6954555 13.203125 6.0253906 C 13.141705 6.0367186 13.087501 6.049565 13.03125 6.0625 C 13.311472 5.5773166 13.599822 5.0337268 13.933594 4.5996094 C 12.892609 4.7937793 12.438639 5.6135158 11.929688 6.3671875 C 11.770551 6.4195015 11.614932 6.4820124 11.458984 6.5410156 C 11.832396 5.4241527 12.568744 4.8535951 13.601562 4 z M 10.603516 11 C 10.797619 10.996254 10.972909 11.029297 10.974609 11.029297 C 10.977909 11.029297 11.062164 11.369353 10.902344 11.660156 C 10.742527 11.952068 10.370353 12.068868 10.164062 11.958984 C 9.9532401 11.849101 9.9539886 11.481364 10.117188 11.189453 C 10.195963 11.043497 10.409412 11.003746 10.603516 11 z"/>
 </g>
</svg>
