<?xml version="1.0" encoding="UTF-8" standalone="no"?>
<!-- Created with Inkscape (http://www.inkscape.org/) -->

<svg
   xmlns:dc="http://purl.org/dc/elements/1.1/"
   xmlns:cc="http://creativecommons.org/ns#"
   xmlns:rdf="http://www.w3.org/1999/02/22-rdf-syntax-ns#"
   xmlns:svg="http://www.w3.org/2000/svg"
   xmlns="http://www.w3.org/2000/svg"
   xmlns:sodipodi="http://sodipodi.sourceforge.net/DTD/sodipodi-0.dtd"
   xmlns:inkscape="http://www.inkscape.org/namespaces/inkscape"
   width="744.09448819"
   height="1052.3622047"
   id="svg2"
   version="1.1"
   inkscape:version="0.91 r13725"
   sodipodi:docname="wrap_logo.svg">
  <defs
     id="defs4" />
  <sodipodi:namedview
     id="base"
     pagecolor="#ffffff"
     bordercolor="#666666"
     borderopacity="1.0"
     inkscape:pageopacity="0.0"
     inkscape:pageshadow="2"
     inkscape:zoom="0.49497475"
     inkscape:cx="357.33594"
     inkscape:cy="840.95374"
     inkscape:document-units="px"
     inkscape:current-layer="layer1"
     showgrid="false"
     inkscape:window-width="901"
     inkscape:window-height="504"
     inkscape:window-x="196"
     inkscape:window-y="73"
     inkscape:window-maximized="0"
     showguides="true"
     inkscape:guide-bbox="true">
    <inkscape:grid
       type="xygrid"
       id="grid3755" />
  </sodipodi:namedview>
  <metadata
     id="metadata7">
    <rdf:RDF>
      <cc:Work
         rdf:about="">
        <dc:format>image/svg+xml</dc:format>
        <dc:type
           rdf:resource="http://purl.org/dc/dcmitype/StillImage" />
        <dc:title />
      </cc:Work>
    </rdf:RDF>
  </metadata>
  <g
     inkscape:label="Layer 1"
     inkscape:groupmode="layer"
     id="layer1">
    <path
       style="fill:#d0c719;fill-opacity:1;stroke:none;stroke-opacity:1"
       d="m 434.2897,70.235258 c 17.21481,0 47.14006,0.84934 60.97457,13.17571 13.83451,12.32637 16.84556,17.452272 19.09172,35.519332 2.08905,16.80337 2.6481,33.71944 1.49162,50.37795 -3.07225,20.81514 -5.13462,47.62599 -12.05413,67.63597 -6.23548,30.42038 -13.58284,55.16492 -25.9691,83.71647 -5.06527,13.28778 -16.76769,22.55743 -30.27757,25.94896 -15.50334,3.30801 -29.68022,2.91134 -46.74465,1.2459 -14.78626,-1.27468 -30.83798,-17.06625 -32.88238,-34.59782 -2.02303,-17.34845 -1.73385,-22.0552 -3.2728,-37.6258 0.19443,-8.76313 -6.34424,-22.76616 -16.45974,-22.40304 -9.56867,0.34349 -16.48036,12.71843 -17.51509,20.93495 -2.35599,18.70837 0.6551,19.81684 -2.94334,37.3491 -3.59844,17.53227 -14.18885,33.04354 -30.48873,36.54073 -16.26809,2.12031 -28.63094,2.71731 -46.02053,-0.49697 -18.07396,-3.34079 -26.93793,-12.81813 -33.62878,-26.59299 -6.73685,-13.86957 -10.49571,-27.84178 -16.21017,-43.09018 -4.88864,-13.04479 -8.56125,-29.18305 -10.94268,-42.92889 -3.32552,-15.18288 -3.65237,-21.38717 -6.77781,-36.57323 -0.77923,-16.65538 -4.45192,-19.80725 -5.02299,-35.71533 -0.35582,-9.91195 0.29524,-39.12315 2.43742,-46.76046 2.93782,-13.52423 7.12707,-26.026872 16.79636,-33.209232 12.64781,-8.53102 33.08952,-11.60259 47.55104,-12.32486 18.33849,-0.12627 30.65715,-1.24014 48.96624,1.08017 14.10098,2.78518 21.50029,13.82094 20.71192,29.392272 -1.06365,21.00843 -21.00671,22.03777 -35.65227,22.0668 -14.64556,0.029 -35.24942,0.73393 -37.06929,19.42192 -2.88023,18.22229 -0.38467,36.76259 2.58508,54.95764 2.30841,16.30474 8.74904,35.18114 15.47418,50.2434 1.96378,11.35395 19.50871,15.47996 23.80866,4.84187 5.41476,-8.88335 4.61169,-19.77502 7.41008,-29.84512 2.83889,-10.21585 1.44479,-19.7209 5.44492,-32.54371 4.76333,-15.2693 4.62217,-18.45204 20.66557,-24.86079 15.69676,-2.99362 39.52174,-2.95141 55.28152,-0.43903 14.06764,2.44948 22.74154,14.03686 24.98313,27.54206 3.16922,11.4823 2.40407,23.59284 4.92263,35.45854 2.5605,12.06331 6.37931,35.47294 22.0005,29.70058 11.4991,-4.24916 17.39709,-28.66089 22.07262,-43.97384 4.41,-20.15236 9.59637,-40.99697 6.08472,-61.67032 2.34204,-29.06652 -17.85275,-26.14283 -32.49264,-29.17728 -12.50724,0 -38.93213,-0.75389 -40.84562,-17.16664 -1.14528,-9.823532 -1.53864,-23.623812 11.36782,-30.993272 9.67605,-5.54646 25.93319,-4.16152 43.14799,-4.16152 z M 261.22203,247.09904 c 1.14992,1.69089 -1.64273,-0.31937 0,0 z"
       id="path3783-1"
       inkscape:connector-curvature="0"
       sodipodi:nodetypes="zzscccccscsszcsssccsccccszccccsscccsscccsczcc"
       inkscape:export-filename="/home/jpakkane/workspace/meson/graphics/meson_logo_big.png"
       inkscape:export-xdpi="300"
       inkscape:export-ydpi="300" />
  </g>
</svg>
