<?xml version="1.0" encoding="UTF-8" standalone="no"?>
<svg
   xmlns:dc="http://purl.org/dc/elements/1.1/"
   xmlns:cc="http://creativecommons.org/ns#"
   xmlns:rdf="http://www.w3.org/1999/02/22-rdf-syntax-ns#"
   xmlns:svg="http://www.w3.org/2000/svg"
   xmlns="http://www.w3.org/2000/svg"
   xmlns:sodipodi="http://sodipodi.sourceforge.net/DTD/sodipodi-0.dtd"
   xmlns:inkscape="http://www.inkscape.org/namespaces/inkscape"
   version="1.1"
   id="svg44"
   width="389.97214"
   height="625.76294"
   viewBox="0 0 389.97214 625.76294"
   sodipodi:docname="usbsuccess.svg"
   inkscape:version="1.0 (4035a4fb49, 2020-05-01)">
  <metadata
     id="metadata50">
    <rdf:RDF>
      <cc:Work
         rdf:about="">
        <dc:format>image/svg+xml</dc:format>
        <dc:type
           rdf:resource="http://purl.org/dc/dcmitype/StillImage" />
        <dc:title />
        <cc:license
           rdf:resource="" />
      </cc:Work>
    </rdf:RDF>
  </metadata>
  <defs
     id="defs48" />
  <sodipodi:namedview
     inkscape:document-rotation="0"
     pagecolor="#ffffff"
     bordercolor="#666666"
     borderopacity="1"
     objecttolerance="10"
     gridtolerance="10"
     guidetolerance="10"
     inkscape:pageopacity="0"
     inkscape:pageshadow="2"
     inkscape:window-width="1920"
     inkscape:window-height="1056"
     id="namedview46"
     showgrid="false"
     showguides="false"
     inkscape:pagecheckerboard="true"
     fit-margin-top="0"
     fit-margin-left="0"
     fit-margin-right="0"
     fit-margin-bottom="0"
     inkscape:zoom="1.2108626"
     inkscape:cx="536.78986"
     inkscape:cy="311.55469"
     inkscape:window-x="0"
     inkscape:window-y="0"
     inkscape:window-maximized="1"
     inkscape:current-layer="g52" />
  <g
     inkscape:groupmode="layer"
     inkscape:label="Image"
     id="g52"
     transform="translate(-19.012249,-1.4453125)">
    <path
       id="path71"
       style="fill:#808080"
       d="M 61.019531,1.4453125 V 77.945312 154.44531 h 84.499999 84.5 V 77.945312 1.4453125 h -84.5 z m 22,65.9999995 h 18.499999 18.5 v 18.5 18.499998 h -18.5 -18.499999 V 85.945312 Z m 86.999999,0 h 18.5 18.5 v 18.5 18.499998 h -18.5 -18.5 V 85.945312 Z" />
    <path
       id="path65"
       style="fill:#4bd37b;fill-opacity:1"
       d="m 272.15039,285.44531 c -15.92193,0 -25.67733,1.28007 -38.36328,5.03321 -59.67591,17.65514 -98.88262,69.92881 -98.97852,131.96679 -0.023,14.8833 1.34693,24.98932 5.2168,38.5 4.60411,16.07407 9.63876,25.9786 23.64063,46.5 5.5622,8.15207 26.00422,26.38239 36.08593,32.18164 20.61001,11.85539 39.89521,18.0752 61.26758,19.75782 9.2341,0.72699 12.78881,0.67299 25.68555,-0.38672 22.52291,-1.85069 47.87935,-11.7539 67.69531,-26.4375 7.21785,-5.34842 23.4534,-21.86172 28.71094,-29.20313 17.50943,-24.44948 25.87305,-50.60692 25.87305,-80.91211 0,-34.32335 -10.66236,-63.39059 -32.77149,-89.34179 -17.69064,-20.76487 -39.90862,-35.0304 -66.24219,-42.53125 -14.03087,-3.99656 -22.37136,-5.12696 -37.82031,-5.12696 z M 341.38086,323.5 c 1.57278,-0.10109 43.63867,30.21846 43.63867,31.45312 0,0.66709 -6.21665,9.93936 -13.81445,20.60352 -7.59779,10.66416 -23.86718,33.56367 -36.1543,50.88867 -12.28712,17.325 -29.35796,41.31975 -37.93555,53.32227 -8.57759,12.00252 -16.25099,22.80252 -17.05273,24 -0.80173,1.19748 -4.11729,5.89023 -7.36719,10.42773 -3.2499,4.5375 -5.96957,8.22722 -6.04297,8.19922 -0.0734,-0.028 -2.8741,-2.39053 -6.22461,-5.25 -3.35051,-2.85947 -16.17551,-13.57531 -28.5,-23.8125 -37.96024,-31.53121 -67.2484,-55.94803 -70.75195,-58.98437 l -3.3457,-2.89844 4.31836,-5.25195 c 2.37466,-2.88841 10.14375,-12.22696 17.26562,-20.75196 7.12186,-8.525 13.08282,-15.67276 13.2461,-15.88476 0.51056,-0.66289 4.53722,2.37044 13.96093,10.51757 5.00552,4.32747 10.78897,9.21719 12.85157,10.86719 2.0626,1.65 4.26656,3.45074 4.89843,4.00196 4.24668,3.70459 30.36845,25.23492 31.30079,25.79882 0.68178,0.41236 1.98495,-0.63034 3.19335,-2.55273 1.1231,-1.78668 4.00686,-5.94805 6.40821,-9.24805 2.40135,-3.3 19.37646,-27.15 37.72265,-53 C 340.01226,323.78906 340.16728,323.578 341.38086,323.5 Z" />
    <path
       style="fill:#808080"
       d="m 129.51977,626.82289 c -13.80339,-2.09681 -23.58899,-4.70093 -46.999998,-12.50752 -26.96325,-8.99111 -34.96564,-12.4934 -41.42848,-18.13141 -5.63513,-4.91592 -12.60693,-13.84357 -15.86724,-20.31855 -6.6182,-13.1438 -6.20428,-0.19207 -6.20428,-194.13288 0,-195.54238 -0.50355,-181.1686 6.72853,-192.06507 6.3278,-9.534 17.45187,-16.67761 28.44585,-18.26725 8.20073,-1.18575 173.376408,-1.19655 181.567258,-0.0119 17.19172,2.48652 31.15448,15.63341 34.78102,32.74872 0.9999,4.71896 1.44794,13.483 1.45998,28.55831 l 0.0174,21.75003 -6.25,0.006 c -7.71423,0.007 -23.53297,2.32727 -34.45514,5.05322 -53.34774,13.31445 -97.50606,52.80188 -116.79497,104.44078 -18.673278,49.99079 -12.11306,107.41173 17.22159,150.73866 19.7105,29.11217 48.57591,52.06647 80.77852,64.23652 9.44247,3.56851 28.32073,8.3483 36.13416,9.14881 3.50121,0.35871 6.36584,0.94447 6.36584,1.3017 0,1.35174 -9.7051,9.88726 -14.5143,12.76514 -5.97706,3.57675 -53.98632,19.71089 -66.90135,22.48307 -8.84656,1.8989 -36.86916,3.29965 -44.08435,2.20362 z"
       id="path56" />
  </g>
</svg>
