<svg width="80" height="80" version="1.1" viewBox="0 0 80 80" xmlns="http://www.w3.org/2000/svg" xmlns:xlink="http://www.w3.org/1999/xlink">
 <defs>
  <style id="current-color-scheme" type="text/css">.ColorScheme-Text {
        color:#31363b;
        stop-color:#31363b;
      }
      .ColorScheme-Background {
        color:#eff0f1;
        stop-color:#eff0f1;
      }
      .ColorScheme-Highlight {
        color:#3daee9;
        stop-color:#3daee9;
      }
      .ColorScheme-ViewText {
        color:#31363b;
        stop-color:#31363b;
      }
      .ColorScheme-ViewBackground {
        color:#fcfcfc;
        stop-color:#fcfcfc;
      }
      .ColorScheme-ViewHover {
        color:#93cee9;
        stop-color:#93cee9;
      }
      .ColorScheme-ViewFocus{
        color:#3daee9;
        stop-color:#3daee9;
      }
      .ColorScheme-ButtonText {
        color:#31363b;
        stop-color:#31363b;
      }
      .ColorScheme-ButtonBackground {
        color:#eff0f1;
        stop-color:#eff0f1;
      }
      .ColorScheme-ButtonHover {
        color:#93cee9;
        stop-color:#93cee9;
      }
      .ColorScheme-ButtonFocus{
        color:#3daee9;
        stop-color:#3daee9;
      }</style>
  <linearGradient id="a">
   <stop offset="0"/>
   <stop stop-opacity="0" offset="1"/>
  </linearGradient>
  <linearGradient id="linearGradient1037" x1="-916.36" x2="-904.36" y1="-35" y2="-35" gradientTransform="matrix(2 0 0 1 910.36 0)" gradientUnits="userSpaceOnUse" xlink:href="#a"/>
  <linearGradient id="linearGradient1043" x1="948.36" x2="960.36" y1="-35" y2="-35" gradientTransform="matrix(2 0 0 1 -954.36 0)" gradientUnits="userSpaceOnUse" xlink:href="#a"/>
  <linearGradient id="linearGradient1045" x1="-19" x2="-7" y1="932.36" y2="932.36" gradientTransform="matrix(2,0,0,1,13,0)" gradientUnits="userSpaceOnUse" xlink:href="#a"/>
  <linearGradient id="linearGradient1047" x1="51" x2="63" y1="932.36" y2="932.36" gradientTransform="matrix(2,0,0,1,-57,0)" gradientUnits="userSpaceOnUse" xlink:href="#a"/>
  <radialGradient id="radialGradient1112" cx="19" cy="12" r="6" gradientTransform="matrix(1.2619e-6 -4 4 1.2619e-6 104 94)" gradientUnits="userSpaceOnUse" xlink:href="#a"/>
  <radialGradient id="radialGradient1011" cx="19" cy="12" r="6" gradientTransform="matrix(1.2619e-6 -4 4 1.2619e-6 -23 94)" gradientUnits="userSpaceOnUse" xlink:href="#a"/>
  <linearGradient id="linearGradient1013" x1="-19" x2="-7" y1="932.36" y2="932.36" gradientTransform="matrix(1.5 0 0 1 -198.5 -904.36)" gradientUnits="userSpaceOnUse" xlink:href="#a"/>
  <radialGradient id="radialGradient1129" cx="19" cy="12" r="6" gradientTransform="matrix(4.3179e-7 -3 3 4.3179e-7 -11 75)" gradientUnits="userSpaceOnUse" xlink:href="#a"/>
  <linearGradient id="linearGradient1133" x1="-916.36" x2="-907.36" y1="-35" y2="-35" gradientTransform="matrix(2 0 0 1 910.36 0)" gradientUnits="userSpaceOnUse" xlink:href="#a"/>
  <linearGradient id="linearGradient1135" x1="-19" x2="-10" y1="932.36" y2="932.36" gradientTransform="matrix(2,0,0,1,13,0)" gradientUnits="userSpaceOnUse" xlink:href="#a"/>
  <linearGradient id="linearGradient1137" x1="51" x2="60" y1="932.36" y2="932.36" gradientTransform="matrix(2,0,0,1,-57,0)" gradientUnits="userSpaceOnUse" xlink:href="#a"/>
  <linearGradient id="linearGradient1141" x1="948.36" x2="957.36" y1="-35" y2="-35" gradientTransform="matrix(2 0 0 1 -954.36 0)" gradientUnits="userSpaceOnUse" xlink:href="#a"/>
 </defs>
 <use id="shadow-bottom" transform="rotate(-90 165 39)" width="100%" height="100%" xlink:href="#shadow-left"/>
 <use id="shadow-right" transform="rotate(180 165 39)" width="100%" height="100%" xlink:href="#shadow-left"/>
 <use id="shadow-top" transform="rotate(90 165 39)" width="100%" height="100%" xlink:href="#shadow-left"/>
 <g id="shadow-left" transform="matrix(1.3333 0 0 .625 -147.67 21.5)">
  <rect transform="scale(-1,1)" x="-218" y="12" width="9" height="32" fill="url(#linearGradient1013)" opacity=".05" stroke-width="1.2247"/>
  <rect transform="scale(-1,1)" x="-227" y="12" width="18" height="32" opacity="0" stroke-width="1.7321"/>
 </g>
 <g id="shadow-topleft" transform="matrix(1.3333 0 0 1.3333 129.67 -1192.8)">
  <g fill-rule="evenodd">
   <path transform="matrix(.75 0 0 .75 -95 902.86)" d="m128-6v24h12c0-6.648 5.352-12 12-12v-12z" fill="url(#radialGradient1112)" opacity=".05" stroke-width="2"/>
  </g>
 </g>
 <g id="top" transform="matrix(.625 0 0 1 16.125 -893.36)">
  <rect class="ColorScheme-Background" transform="matrix(0,-1,-1,0,0,0)" x="-922.36" y="-51" width="12" height="32" color="#eff0f1" fill="#2e2e2e" opacity=".95" stroke-width="1.4142"/>
  <rect transform="matrix(0,-1,-1,0,0,0)" x="-910.36" y="-51" width="12" height="32" fill="url(#linearGradient1037)" opacity=".15" stroke-width="1.4142"/>
  <rect transform="matrix(0,-1,-1,0,0,0)" x="-910.36" y="-51" width="12" height="32" fill="url(#linearGradient1133)" opacity=".25" stroke-width="1.4142"/>
 </g>
 <g id="topleft" transform="matrix(1.3333 0 0 1.3333 2.6667 -1192.8)">
  <g fill-rule="evenodd" stroke-width="2">
   <path transform="matrix(.75 0 0 .75 .25 902.86)" d="m1-6v24h12c0-6.648 5.352-12 12-12v-12z" fill="url(#radialGradient1011)" opacity=".15"/>
   <path transform="matrix(.75 0 0 .75 .25 902.86)" d="m1-6v24h12c0-6.648 5.352-12 12-12v-12z" fill="url(#radialGradient1129)" opacity=".25"/>
  </g>
  <path d="m19 907.36c-4.986 0-9 4.014-9 9h9v-7.5z" color="#eff0f1" fill="#2e2e2e" opacity=".95" stroke-width="1.5"/>
 </g>
 <g id="bottom" transform="matrix(.625 0 0 1 16.125 -893.36)">
  <rect class="ColorScheme-Background" transform="rotate(90)" x="942.36" y="-51" width="12" height="32" color="#eff0f1" fill="#2e2e2e" opacity=".95" stroke-width="1.4142"/>
  <rect transform="rotate(90)" x="954.36" y="-51" width="12" height="32" fill="url(#linearGradient1043)" opacity=".15" stroke-width="1.4142"/>
  <rect transform="rotate(90)" x="954.36" y="-51" width="12" height="32" fill="url(#linearGradient1141)" opacity=".25" stroke-width="1.4142"/>
 </g>
 <g id="left" transform="matrix(1 0 0 .625 3 -543.72)">
  <rect class="ColorScheme-Background" transform="scale(-1,1)" x="-25" y="916.36" width="12" height="32" color="#eff0f1" fill="#2e2e2e" opacity=".95" stroke-width="1.4142"/>
  <rect transform="scale(-1,1)" x="-13" y="916.36" width="12" height="32" fill="url(#linearGradient1045)" opacity=".15" stroke-width="1.4142"/>
  <rect transform="scale(-1,1)" x="-13" y="916.36" width="12" height="32" fill="url(#linearGradient1135)" opacity=".25" stroke-width="1.4142"/>
 </g>
 <g id="right" transform="matrix(1 0 0 .625 3 -543.72)" stroke-width="1.4142">
  <rect class="ColorScheme-Background" x="45" y="916.36" width="12" height="32" color="#eff0f1" fill="#2e2e2e" opacity=".95"/>
  <rect x="57" y="916.36" width="12" height="32" fill="url(#linearGradient1047)" opacity=".15"/>
  <rect x="57" y="916.36" width="12" height="32" fill="url(#linearGradient1137)" opacity=".25"/>
 </g>
 <g id="center" transform="matrix(.625 0 0 .625 16.125 -543.72)">
  <rect x="19" y="916.36" width="32" height="32" fill="none"/>
  <rect class="ColorScheme-Background" x="19" y="916.36" width="32" height="32" color="#eff0f1" fill="#2e2e2e" opacity=".95"/>
 </g>
 <rect id="hint-top-margin" x="36" y="5" width="4" height="24" fill="#f0f" stroke-width="1.4142"/>
 <rect id="hint-bottom-margin" x="36" y="49" width="4" height="24" fill="#f0f" stroke-width="1.4142"/>
 <rect id="hint-right-margin" transform="rotate(90)" x="37" y="-72" width="4" height="24" fill="#f0f" stroke-width="1.4142"/>
 <rect id="hint-left-margin" transform="rotate(90)" x="37" y="-28" width="4" height="24" fill="#f0f" stroke-width="1.4142"/>
 <g id="shadow-center" transform="matrix(.625 0 0 .625 143.12 -543.73)" fill="none" opacity="0">
  <rect x="19" y="916.36" width="32" height="32"/>
  <rect x="19" y="916.36" width="32" height="32"/>
 </g>
 <rect id="shadow-hint-top-margin" x="163" y="5" width="4" height="24" fill="#f0f" stroke-width="1.4142"/>
 <rect id="shadow-hint-bottom-margin" x="163" y="49" width="4" height="24" fill="#f0f" stroke-width="1.4142"/>
 <rect id="shadow-hint-right-margin" transform="rotate(90)" x="37" y="-199" width="4" height="24" fill="#f0f" stroke-width="1.4142"/>
 <rect id="shadow-hint-left-margin" transform="rotate(90)" x="37" y="-155" width="4" height="24" fill="#f0f" stroke-width="1.4142"/>
 <use id="topright" transform="matrix(-1 0 0 1 76 -2.0646e-7)" width="100%" height="100%" xlink:href="#topleft"/>
 <use id="bottomleft" transform="rotate(-90 38 39)" width="100%" height="100%" xlink:href="#topleft"/>
 <use id="bottomright" transform="rotate(180 38 39)" width="100%" height="100%" xlink:href="#topleft"/>
 <g id="shadow-topright" transform="matrix(-1.3333 0 0 1.3333 200.33 -1192.8)">
  <g fill-rule="evenodd">
   <path transform="matrix(.75 0 0 .75 -95 902.86)" d="m128-6v24h12c0-6.648 5.352-12 12-12v-12z" fill="url(#radialGradient1112)" opacity=".05" stroke-width="2"/>
  </g>
 </g>
 <g id="shadow-bottomright" transform="matrix(-1.3333 0 0 -1.3333 200.33 1270.8)">
  <g fill-rule="evenodd">
   <path transform="matrix(.75 0 0 .75 -95 902.86)" d="m128-6v24h12c0-6.648 5.352-12 12-12v-12z" fill="url(#radialGradient1112)" opacity=".05" stroke-width="2"/>
  </g>
 </g>
 <g id="shadow-bottomleft" transform="matrix(1.3333 0 0 -1.3333 129.67 1270.8)">
  <g fill-rule="evenodd">
   <path transform="matrix(.75 0 0 .75 -95 902.86)" d="m128-6v24h12c0-6.648 5.352-12 12-12v-12z" fill="url(#radialGradient1112)" opacity=".05" stroke-width="2"/>
  </g>
 </g>
 <rect id="hint-tile-center" x="5" y="5" width="5" height="5" fill="#f60"/>
</svg>
