<?xml version="1.0" encoding="UTF-8" standalone="no"?>
<svg
   xmlns:dc="http://purl.org/dc/elements/1.1/"
   xmlns:cc="http://creativecommons.org/ns#"
   xmlns:rdf="http://www.w3.org/1999/02/22-rdf-syntax-ns#"
   xmlns:svg="http://www.w3.org/2000/svg"
   xmlns="http://www.w3.org/2000/svg"
   xmlns:xlink="http://www.w3.org/1999/xlink"
   xmlns:sodipodi="http://sodipodi.sourceforge.net/DTD/sodipodi-0.dtd"
   xmlns:inkscape="http://www.inkscape.org/namespaces/inkscape"
   width="128"
   height="128"
   version="1"
   id="svg132"
   sodipodi:docname="containment-controls.svg"
   inkscape:version="0.92.4 5da689c313, 2019-01-14">
  <metadata
     id="metadata136">
    <rdf:RDF>
      <cc:Work
         rdf:about="">
        <dc:format>image/svg+xml</dc:format>
        <dc:type
           rdf:resource="http://purl.org/dc/dcmitype/StillImage" />
        <dc:title></dc:title>
      </cc:Work>
    </rdf:RDF>
  </metadata>
  <sodipodi:namedview
     pagecolor="#a9a9a9"
     bordercolor="#666666"
     borderopacity="1"
     objecttolerance="10"
     gridtolerance="10"
     guidetolerance="10"
     inkscape:pageopacity="0"
     inkscape:pageshadow="2"
     inkscape:window-width="1366"
     inkscape:window-height="704"
     id="namedview134"
     showgrid="true"
     inkscape:zoom="10.755757"
     inkscape:cx="23.409603"
     inkscape:cy="83.07517"
     inkscape:window-x="0"
     inkscape:window-y="34"
     inkscape:window-maximized="1"
     inkscape:current-layer="svg132">
    <inkscape:grid
       type="xygrid"
       id="grid943" />
  </sodipodi:namedview>
  <defs
     id="defs19">
    <linearGradient
       id="linearGradient4303">
      <stop
         style="stop-color:#00626d"
         offset="0"
         id="stop2" />
      <stop
         style="stop-color:#4285f4"
         offset="1"
         id="stop4" />
    </linearGradient>
    <linearGradient
       id="linearGradient4291">
      <stop
         style="stop-color:#007584"
         offset="0"
         id="stop7" />
      <stop
         style="stop-color:#4285f4"
         offset="1"
         id="stop9" />
    </linearGradient>
    <linearGradient
       id="linearGradient4297"
       x1="266"
       x2="266"
       y1="108"
       y2="112"
       gradientUnits="userSpaceOnUse"
       xlink:href="#linearGradient4291" />
    <linearGradient
       id="linearGradient4301"
       x1="115"
       x2="115"
       y1="103"
       y2="107"
       gradientUnits="userSpaceOnUse"
       xlink:href="#linearGradient4303" />
    <linearGradient
       id="linearGradient4315"
       x1="266"
       x2="266"
       y1="121"
       y2="118"
       gradientUnits="userSpaceOnUse"
       xlink:href="#linearGradient4291" />
    <linearGradient
       id="linearGradient4317"
       x1="101"
       x2="101"
       y1="118"
       y2="114"
       gradientUnits="userSpaceOnUse"
       xlink:href="#linearGradient4303" />
    <linearGradient
       id="linearGradient4325"
       x1="268"
       x2="268"
       y1="112"
       y2="108"
       gradientUnits="userSpaceOnUse"
       xlink:href="#linearGradient4303" />
    <linearGradient
       id="linearGradient4333"
       x1="91"
       x2="95"
       y1="80.5"
       y2="80.5"
       gradientUnits="userSpaceOnUse"
       xlink:href="#linearGradient4303" />
    <linearGradient
       id="linearGradient4341"
       x1="106"
       x2="102"
       y1="67"
       y2="67"
       gradientUnits="userSpaceOnUse"
       xlink:href="#linearGradient4303" />
  </defs>
  <rect
     id="hint-stretch-borders"
     style="opacity:0.65;fill:#023812"
     width="5.221"
     height="5.403"
     x="-10"
     y="0" />
  <g
     id="north-center"
     transform="matrix(1,0,0,1.2,-152,-29.4)"
     style="stroke-width:0.91287088">
    <path
       style="fill:#4285f4;stroke-width:0.91287088;fill-opacity:1"
       d="m 264,112 v 5 h 5 v -5 z"
       id="path22"
       inkscape:connector-curvature="0" />
  </g>
  <g
     id="north-top"
     style="fill:url(#linearGradient4297)"
     transform="translate(-152,-8)">
    <path
       style="fill:#4285f4;fill-opacity:1"
       transform="translate(152,5)"
       d="m 112,103 v 1 1 2 h 5 v -2 -1 -1 z"
       id="path25"
       inkscape:connector-curvature="0" />
  </g>
  <g
     id="north-bottom"
     transform="matrix(1,0,0,1.5,-152,-63.5)"
     style="stroke-width:0.81649661">
    <path
       style="fill:#4285f4;stroke-width:0.81649661;fill-opacity:1"
       transform="translate(152,3)"
       d="m 112,114 v 3 1 h 5 v -1 -3 z"
       id="path28"
       inkscape:connector-curvature="0" />
  </g>
  <g
     id="south-center"
     transform="matrix(1,0,0,1.2,-165,-27.4)"
     style="stroke-width:0.91287088">
    <path
       style="fill:#4285f4;stroke-width:0.91287088;fill-opacity:1"
       d="m 264,112 v 5 h 5 v -5 z"
       id="path31"
       inkscape:connector-curvature="0" />
  </g>
  <g
     id="south-top"
     transform="matrix(1,0,0,1.5,-165,-62)"
     style="stroke-width:0.81649661">
    <path
       style="fill:#4285f4;stroke-width:0.81649661;fill-opacity:1"
       transform="translate(165,5)"
       d="m 99,103 v 1 1 2 h 5 v -2 -1 -1 z"
       id="path34"
       inkscape:connector-curvature="0" />
  </g>
  <g
     id="south-bottom"
     style="fill:url(#linearGradient4315)"
     transform="translate(-165,-3)">
    <path
       style="fill:#4285f4;fill-opacity:1"
       transform="translate(165,3)"
       d="m 99,114 0,3 0,1 5,0 0,-1 0,-3 -5,0 z"
       id="path37" />
  </g>
  <g
     id="east-center"
     transform="matrix(0,-1,1.4,0,-62.8,334)"
     style="stroke-width:0.84515423">
    <path
       style="fill:#4285f4;stroke-width:0.84515423;fill-opacity:1"
       d="m 264,112 v 5 h 5 v -5 z"
       id="path40"
       inkscape:connector-curvature="0" />
  </g>
  <g
     id="east-left"
     transform="matrix(0,-1,1.5,0,-75,334)"
     style="stroke-width:0.81649661">
    <path
       style="fill:#4285f4;stroke-width:0.81649661;fill-opacity:1"
       transform="rotate(90,158.5,175.5)"
       d="m 91,65 v 5 h 1 3 v -5 h -3 z"
       id="path43"
       inkscape:connector-curvature="0" />
  </g>
  <g
     id="east-right"
     transform="matrix(0,-1,1,0,-15,334)">
    <path
       style="fill:#4285f4;fill-opacity:1"
       transform="matrix(0,1,-1,0,334,15)"
       d="m 102,65 0,5 3,0 1,0 0,-5 -1,0 -3,0 z"
       id="path46" />
  </g>
  <g
     id="west-center"
     transform="matrix(0,-1,1.2,0,-38.4,347)"
     style="stroke-width:0.91287094">
    <path
       style="fill:#4285f4;stroke-width:0.91287094;fill-opacity:1"
       d="m 264,112 v 5 h 5 v -5 z"
       id="path49"
       inkscape:connector-curvature="0" />
  </g>
  <g
     id="west-left"
     style="fill:url(#linearGradient4325)"
     transform="matrix(0,-1,1,0,-17,347)">
    <path
       style="fill:#4285f4;fill-opacity:1"
       transform="matrix(0,1,-1,0,347,17)"
       d="m 91,78 0,5 1,0 3,0 0,-5 -3,0 -1,0 z"
       id="path52" />
  </g>
  <g
     id="west-right"
     transform="matrix(0,-1,1.5,0,-72.5,347)"
     style="stroke-width:0.81649661">
    <path
       style="fill:#4285f4;stroke-width:0.81649661;fill-opacity:1"
       transform="rotate(90,166,181)"
       d="m 102,78 v 5 h 3 1 v -5 h -1 z"
       id="path55"
       inkscape:connector-curvature="0" />
  </g>
  <g
     id="vertical-centerindicator"
     transform="translate(1,15)">
    <rect
       style="opacity:0.35;fill:#ffffff"
       width="42"
       height="1"
       x="11"
       y="32"
       id="rect58" />
    <rect
       style="fill:none"
       width="42"
       height="1"
       x="11"
       y="33"
       id="rect60" />
    <rect
       style="fill:none"
       width="42"
       height="1"
       x="11"
       y="31"
       id="rect62" />
  </g>
  <g
     id="horizontal-centerindicator"
     transform="translate(-4,17)">
    <rect
       style="opacity:0.35;fill:#ffffff"
       width="42"
       height="1"
       x="-31"
       y="8"
       transform="matrix(0,-1,1,0,0,0)"
       id="rect65" />
    <rect
       style="fill:none"
       width="42"
       height="1"
       x="-31"
       y="9"
       transform="matrix(0,-1,1,0,0,0)"
       id="rect67" />
    <rect
       style="fill:none"
       width="42"
       height="1"
       x="-31"
       y="7"
       transform="matrix(0,-1,1,0,0,0)"
       id="rect69" />
  </g>
  <g
     id="west-minslider"
     style="enable-background:new"
     transform="translate(5.0312,68.003199)">
    <g
       transform="translate(-405,100)"
       id="g74">
      <path
         style="fill:#ffffff"
         d="m 419,-89.222 -1.375,1.4062 -3.6562,-3.6562 0.0312,7.4688 -2,0 -0.0312,-7.4688 -3.625,3.6562 -1.375,-1.4062 6.0312,-6 6,6 z m -4,-8.7812 c 0,1.1046 -0.89543,2 -2,2 -1.10457,0 -2,-0.89543 -2,-2 0,-1.10457 0.89543,-2 2,-2 1.10457,0 2,0.89543 2,2 z"
         id="path72" />
    </g>
  </g>
  <g
     id="north-offsetslider"
     style="enable-background:new"
     transform="translate(37,108.0004)">
    <g
       transform="translate(-385,98.003)"
       id="g79">
      <path
         style="fill:#ffffff"
         d="m 387,-90.215 1.3858,1.3851 3.6348,-3.6349 -0.0211,8.4614 2,0 0.0211,-8.4614 3.6344,3.6349 1.3851,-1.3851 -6.0406,-6.0009 z"
         id="path77" />
    </g>
  </g>
  <g
     id="north-maxslider"
     style="enable-background:new"
     transform="translate(6.9988,89.968849)">
    <g
       transform="translate(-325,99.003)"
       id="g84">
      <path
         style="fill:#ffffff"
         d="m 330.22,-97.003 -1.4062,1.375 3.6562,3.6562 -7.4688,-0.03125 0,2 7.4688,0.0312 -3.6562,3.625 1.4062,1.375 6,-6.0312 -6,-6 z m 8.7812,4 c -1.1046,0 -2,0.89543 -2,2 0,1.10457 0.89543,2 2,2 1.10457,0 2,-0.89543 2,-2 0,-1.10457 -0.89543,-2 -2,-2 z"
         id="path82" />
    </g>
  </g>
  <g
     id="east-offsetslider"
     style="enable-background:new"
     transform="translate(5.0016,107.9598)">
    <g
       transform="translate(-305,99.003)"
       id="g89">
      <path
         style="fill:#ffffff"
         d="m 313.21,-97.003 -1.3851,1.3859 3.6349,3.6348 -8.4614,-0.0211 0,2 8.4614,0.0211 -3.6349,3.6344 1.3851,1.3851 6.0009,-6.0406 z"
         id="path87" />
    </g>
  </g>
  <g
     id="east-minslider"
     style="enable-background:new"
     transform="translate(22.0312,68.003199)">
    <g
       transform="translate(-405,100)"
       id="g94">
      <path
         style="fill:#ffffff"
         d="m 419,-89.222 -1.375,1.4062 -3.6562,-3.6562 0.0312,7.4688 -2,0 -0.0312,-7.4688 -3.625,3.6562 -1.375,-1.4062 6.0312,-6 6,6 z m -4,-8.7812 c 0,1.1046 -0.89543,2 -2,2 -1.10457,0 -2,-0.89543 -2,-2 0,-1.10457 0.89543,-2 2,-2 1.10457,0 2,0.89543 2,2 z"
         id="path92" />
    </g>
  </g>
  <g
     id="west-maxslider"
     style="enable-background:new"
     transform="matrix(1,0,0,-1,38.0312,83.996799)">
    <g
       transform="translate(-405,100)"
       id="g99">
      <path
         style="fill:#ffffff"
         d="m 419,-89.222 -1.375,1.4062 -3.6562,-3.6562 0.0312,7.4688 -2,0 -0.0312,-7.4688 -3.625,3.6562 -1.375,-1.4062 6.0312,-6 6,6 z m -4,-8.7812 c 0,1.1046 -0.89543,2 -2,2 -1.10457,0 -2,-0.89543 -2,-2 0,-1.10457 0.89543,-2 2,-2 1.10457,0 2,0.89543 2,2 z"
         id="path97" />
    </g>
  </g>
  <g
     id="east-maxslider"
     style="enable-background:new"
     transform="matrix(1,0,0,-1,55.0312,83.996799)">
    <g
       transform="translate(-405,100)"
       id="g104">
      <path
         style="fill:#ffffff"
         d="m 419,-89.222 -1.375,1.4062 -3.6562,-3.6562 0.0312,7.4688 -2,0 -0.0312,-7.4688 -3.625,3.6562 -1.375,-1.4062 6.0312,-6 6,6 z m -4,-8.7812 c 0,1.1046 -0.89543,2 -2,2 -1.10457,0 -2,-0.89543 -2,-2 0,-1.10457 0.89543,-2 2,-2 1.10457,0 2,0.89543 2,2 z"
         id="path102" />
    </g>
  </g>
  <g
     id="south-maxslider"
     style="enable-background:new"
     transform="translate(25.9988,89.968849)">
    <g
       transform="translate(-325,99.003)"
       id="g109">
      <path
         style="fill:#ffffff"
         d="m 330.22,-97.003 -1.4062,1.375 3.6562,3.6562 -7.4688,-0.03125 0,2 7.4688,0.0312 -3.6562,3.625 1.4062,1.375 6,-6.0312 -6,-6 z m 8.7812,4 c -1.1046,0 -2,0.89543 -2,2 0,1.10457 0.89543,2 2,2 1.10457,0 2,-0.89543 2,-2 0,-1.10457 -0.89543,-2 -2,-2 z"
         id="path107" />
    </g>
  </g>
  <g
     id="north-minslider"
     style="enable-background:new"
     transform="matrix(-1,0,0,1,61.0012,89.968849)">
    <g
       transform="translate(-325,99.003)"
       id="g114">
      <path
         style="fill:#ffffff"
         d="m 330.22,-97.003 -1.4062,1.375 3.6562,3.6562 -7.4688,-0.03125 0,2 7.4688,0.0312 -3.6562,3.625 1.4062,1.375 6,-6.0312 -6,-6 z m 8.7812,4 c -1.1046,0 -2,0.89543 -2,2 0,1.10457 0.89543,2 2,2 1.10457,0 2,-0.89543 2,-2 0,-1.10457 -0.89543,-2 -2,-2 z"
         id="path112" />
    </g>
  </g>
  <g
     id="south-minslider"
     style="enable-background:new"
     transform="matrix(-1,0,0,1,80.0012,89.968849)">
    <g
       transform="translate(-325,99.003)"
       id="g119">
      <path
         style="fill:#ffffff"
         d="m 330.22,-97.003 -1.4062,1.375 3.6562,3.6562 -7.4688,-0.03125 0,2 7.4688,0.0312 -3.6562,3.625 1.4062,1.375 6,-6.0312 -6,-6 z m 8.7812,4 c -1.1046,0 -2,0.89543 -2,2 0,1.10457 0.89543,2 2,2 1.10457,0 2,-0.89543 2,-2 0,-1.10457 -0.89543,-2 -2,-2 z"
         id="path117" />
    </g>
  </g>
  <g
     id="west-offsetslider"
     style="enable-background:new"
     transform="matrix(-1,0,0,1,37.2109,107.9598)">
    <g
       transform="translate(-305,99.003)"
       id="g124">
      <path
         style="fill:#ffffff"
         d="m 313.21,-97.003 -1.3851,1.3859 3.6349,3.6348 -8.4614,-0.0211 0,2 8.4614,0.0211 -3.6349,3.6344 1.3851,1.3851 6.0009,-6.0406 z"
         id="path122" />
    </g>
  </g>
  <g
     id="south-offsetslider"
     style="enable-background:new"
     transform="matrix(1,0,0,-1,52,123.7871)">
    <g
       transform="translate(-385,98.003)"
       id="g129">
      <path
         style="fill:#ffffff"
         d="m 387,-90.215 1.3858,1.3851 3.6348,-3.6349 -0.0211,8.4614 2,0 0.0211,-8.4614 3.6344,3.6349 1.3851,-1.3851 -6.0406,-6.0009 z"
         id="path127" />
    </g>
  </g>
</svg>
