<?xml version="1.0" encoding="UTF-8" standalone="no"?>
<svg
   xmlns:dc="http://purl.org/dc/elements/1.1/"
   xmlns:cc="http://creativecommons.org/ns#"
   xmlns:rdf="http://www.w3.org/1999/02/22-rdf-syntax-ns#"
   xmlns:svg="http://www.w3.org/2000/svg"
   xmlns="http://www.w3.org/2000/svg"
   xmlns:sodipodi="http://sodipodi.sourceforge.net/DTD/sodipodi-0.dtd"
   xmlns:inkscape="http://www.inkscape.org/namespaces/inkscape"
   width="514"
   height="514"
   version="1"
   id="svg138"
   sodipodi:docname="notes.svg"
   inkscape:version="0.92.4 (5da689c313, 2019-01-14)">
  <metadata
     id="metadata144">
    <rdf:RDF>
      <cc:Work
         rdf:about="">
        <dc:format>image/svg+xml</dc:format>
        <dc:type
           rdf:resource="http://purl.org/dc/dcmitype/StillImage" />
      </cc:Work>
    </rdf:RDF>
  </metadata>
  <defs
     id="defs142" />
  <sodipodi:namedview
     pagecolor="#ffffff"
     bordercolor="#666666"
     borderopacity="1"
     objecttolerance="10"
     gridtolerance="10"
     guidetolerance="10"
     inkscape:pageopacity="0"
     inkscape:pageshadow="2"
     inkscape:window-width="1366"
     inkscape:window-height="706"
     id="namedview140"
     showgrid="false"
     inkscape:zoom="0.45914397"
     inkscape:cx="257"
     inkscape:cy="257"
     inkscape:window-x="0"
     inkscape:window-y="0"
     inkscape:window-maximized="1"
     inkscape:current-layer="svg138" />
  <g
     id="black-notes"
     transform="translate(-1703,-29)">
    <rect
       style="opacity:0.001"
       width="514"
       height="514"
       x="1703"
       y="29"
       id="rect2" />
    <path
       style="opacity:0.02"
       d="m 1748.2188,35.000019 c -21.7272,0 -39.2188,17.491563 -39.2188,39.218746 V 89.906261 482.09371 497.78125 C 1709,519.50843 1726.4916,537 1748.2188,537 h 15.6874 392.1875 15.6875 C 2193.5084,537 2211,519.50843 2211,497.78125 V 482.09371 89.906261 74.218765 c 0,-21.727183 -17.4916,-39.218746 -39.2188,-39.218746 h -15.6875 -392.1875 z"
       id="path4" />
    <path
       style="opacity:0.02"
       d="m 1747.375,34.000019 c -21.8138,0 -39.375,17.561251 -39.375,39.374996 V 89.125011 482.87496 498.625 c 0,21.81374 17.5612,39.375 39.375,39.375 h 15.75 393.75 15.75 C 2194.4387,538 2212,520.43874 2212,498.625 V 482.87496 89.125011 73.375015 c 0,-21.813745 -17.5613,-39.374996 -39.375,-39.374996 h -15.75 -393.75 z"
       id="path6" />
    <path
       style="opacity:0.02"
       d="m 1746.5313,33.000019 c -21.9004,0 -39.5313,17.630939 -39.5313,39.531246 V 88.343761 483.65621 499.46875 C 1707,521.36905 1724.6309,539 1746.5313,539 h 15.8124 395.3125 15.8125 C 2195.3691,539 2213,521.36905 2213,499.46875 V 483.65621 88.343761 72.531265 c 0,-21.900307 -17.6309,-39.531246 -39.5313,-39.531246 h -15.8125 -395.3125 z"
       id="path8" />
    <path
       style="opacity:0.02"
       d="m 1745.6875,32.000019 c -21.9869,0 -39.6875,17.700627 -39.6875,39.687496 V 87.562511 484.43746 500.3125 c 0,21.98686 17.7006,39.6875 39.6875,39.6875 h 15.875 396.875 15.875 C 2196.2994,540 2214,522.29936 2214,500.3125 V 484.43746 87.562511 71.687515 c 0,-21.986869 -17.7006,-39.687496 -39.6875,-39.687496 h -15.875 -396.875 z"
       id="path10" />
    <path
       style="opacity:0.02"
       d="m 1744.8438,31.000019 c -22.0735,0 -39.8438,17.770315 -39.8438,39.843746 V 86.781261 485.21871 501.15625 C 1705,523.22967 1722.7703,541 1744.8438,541 h 15.9374 398.4375 15.9375 C 2197.2297,541 2215,523.22967 2215,501.15625 V 485.21871 86.781261 70.843765 c 0,-22.073431 -17.7703,-39.843746 -39.8438,-39.843746 h -15.9375 -398.4375 z"
       id="path12" />
    <path
       style="opacity:0.02"
       d="m 1744,30.000019 c -22.16,0 -40,17.840003 -40,39.999996 V 86.000011 485.99996 502 c 0,22.15998 17.84,40 40,40 h 16 400 16 c 22.16,0 40,-17.84002 40,-40 V 485.99996 86.000011 70.000015 c 0,-22.159993 -17.84,-39.999996 -40,-39.999996 h -16 -400 z"
       id="path14" />
    <path
       style="fill:#36393e;fill-opacity:1"
       d="m 1749.0625,30.00001 c -21.6406,0 -39.0625,17.42187 -39.0625,39.0625 v 15.625 390.62494 15.62504 c 0,21.64062 17.4219,39.0625 39.0625,39.0625 h 15.625 390.625 15.625 c 21.6406,0 39.0625,-17.42188 39.0625,-39.0625 V 475.31245 84.68751 69.06251 c 0,-21.64063 -17.4219,-39.0625 -39.0625,-39.0625 h -15.625 -390.625 z"
       id="path16" />
  </g>
  <g
     id="white-notes"
     transform="translate(-1189,-29)">
    <rect
       style="opacity:0.001"
       width="514"
       height="514"
       x="1703"
       y="29"
       id="rect19" />
    <path
       style="opacity:0.02"
       d="m 1748.2188,35.000019 c -21.7272,0 -39.2188,17.491563 -39.2188,39.218746 V 89.906261 482.09371 497.78125 C 1709,519.50843 1726.4916,537 1748.2188,537 h 15.6874 392.1875 15.6875 C 2193.5084,537 2211,519.50843 2211,497.78125 V 482.09371 89.906261 74.218765 c 0,-21.727183 -17.4916,-39.218746 -39.2188,-39.218746 h -15.6875 -392.1875 z"
       id="path21" />
    <path
       style="opacity:0.02"
       d="m 1747.375,34.000019 c -21.8138,0 -39.375,17.561251 -39.375,39.374996 V 89.125011 482.87496 498.625 c 0,21.81374 17.5612,39.375 39.375,39.375 h 15.75 393.75 15.75 C 2194.4387,538 2212,520.43874 2212,498.625 V 482.87496 89.125011 73.375015 c 0,-21.813745 -17.5613,-39.374996 -39.375,-39.374996 h -15.75 -393.75 z"
       id="path23" />
    <path
       style="opacity:0.02"
       d="m 1746.5313,33.000019 c -21.9004,0 -39.5313,17.630939 -39.5313,39.531246 V 88.343761 483.65621 499.46875 C 1707,521.36905 1724.6309,539 1746.5313,539 h 15.8124 395.3125 15.8125 C 2195.3691,539 2213,521.36905 2213,499.46875 V 483.65621 88.343761 72.531265 c 0,-21.900307 -17.6309,-39.531246 -39.5313,-39.531246 h -15.8125 -395.3125 z"
       id="path25" />
    <path
       style="opacity:0.02"
       d="m 1745.6875,32.000019 c -21.9869,0 -39.6875,17.700627 -39.6875,39.687496 V 87.562511 484.43746 500.3125 c 0,21.98686 17.7006,39.6875 39.6875,39.6875 h 15.875 396.875 15.875 C 2196.2994,540 2214,522.29936 2214,500.3125 V 484.43746 87.562511 71.687515 c 0,-21.986869 -17.7006,-39.687496 -39.6875,-39.687496 h -15.875 -396.875 z"
       id="path27" />
    <path
       style="opacity:0.02"
       d="m 1744.8438,31.000019 c -22.0735,0 -39.8438,17.770315 -39.8438,39.843746 V 86.781261 485.21871 501.15625 C 1705,523.22967 1722.7703,541 1744.8438,541 h 15.9374 398.4375 15.9375 C 2197.2297,541 2215,523.22967 2215,501.15625 V 485.21871 86.781261 70.843765 c 0,-22.073431 -17.7703,-39.843746 -39.8438,-39.843746 h -15.9375 -398.4375 z"
       id="path29" />
    <path
       style="opacity:0.02"
       d="m 1744,30.000019 c -22.16,0 -40,17.840003 -40,39.999996 V 86.000011 485.99996 502 c 0,22.15998 17.84,40 40,40 h 16 400 16 c 22.16,0 40,-17.84002 40,-40 V 485.99996 86.000011 70.000015 c 0,-22.159993 -17.84,-39.999996 -40,-39.999996 h -16 -400 z"
       id="path31" />
    <path
       style="fill:#dfdfdf"
       d="m 1749.0625,30.00001 c -21.6406,0 -39.0625,17.42187 -39.0625,39.0625 v 15.625 390.62494 15.62504 c 0,21.64062 17.4219,39.0625 39.0625,39.0625 h 15.625 390.625 15.625 c 21.6406,0 39.0625,-17.42188 39.0625,-39.0625 V 475.31245 84.68751 69.06251 c 0,-21.64063 -17.4219,-39.0625 -39.0625,-39.0625 h -15.625 -390.625 z"
       id="path33" />
  </g>
  <g
     id="yellow-notes"
     transform="translate(-675,-29.000019)">
    <rect
       style="opacity:0.001"
       width="514"
       height="514"
       x="1703"
       y="29"
       id="rect36" />
    <path
       style="opacity:0.02"
       d="m 1748.2188,35.000019 c -21.7272,0 -39.2188,17.491563 -39.2188,39.218746 V 89.906261 482.09371 497.78125 C 1709,519.50843 1726.4916,537 1748.2188,537 h 15.6874 392.1875 15.6875 C 2193.5084,537 2211,519.50843 2211,497.78125 V 482.09371 89.906261 74.218765 c 0,-21.727183 -17.4916,-39.218746 -39.2188,-39.218746 h -15.6875 -392.1875 z"
       id="path38" />
    <path
       style="opacity:0.02"
       d="m 1747.375,34.000019 c -21.8138,0 -39.375,17.561251 -39.375,39.374996 V 89.125011 482.87496 498.625 c 0,21.81374 17.5612,39.375 39.375,39.375 h 15.75 393.75 15.75 C 2194.4387,538 2212,520.43874 2212,498.625 V 482.87496 89.125011 73.375015 c 0,-21.813745 -17.5613,-39.374996 -39.375,-39.374996 h -15.75 -393.75 z"
       id="path40" />
    <path
       style="opacity:0.02"
       d="m 1746.5313,33.000019 c -21.9004,0 -39.5313,17.630939 -39.5313,39.531246 V 88.343761 483.65621 499.46875 C 1707,521.36905 1724.6309,539 1746.5313,539 h 15.8124 395.3125 15.8125 C 2195.3691,539 2213,521.36905 2213,499.46875 V 483.65621 88.343761 72.531265 c 0,-21.900307 -17.6309,-39.531246 -39.5313,-39.531246 h -15.8125 -395.3125 z"
       id="path42" />
    <path
       style="opacity:0.02"
       d="m 1745.6875,32.000019 c -21.9869,0 -39.6875,17.700627 -39.6875,39.687496 V 87.562511 484.43746 500.3125 c 0,21.98686 17.7006,39.6875 39.6875,39.6875 h 15.875 396.875 15.875 C 2196.2994,540 2214,522.29936 2214,500.3125 V 484.43746 87.562511 71.687515 c 0,-21.986869 -17.7006,-39.687496 -39.6875,-39.687496 h -15.875 -396.875 z"
       id="path44" />
    <path
       style="opacity:0.02"
       d="m 1744.8438,31.000019 c -22.0735,0 -39.8438,17.770315 -39.8438,39.843746 V 86.781261 485.21871 501.15625 C 1705,523.22967 1722.7703,541 1744.8438,541 h 15.9374 398.4375 15.9375 C 2197.2297,541 2215,523.22967 2215,501.15625 V 485.21871 86.781261 70.843765 c 0,-22.073431 -17.7703,-39.843746 -39.8438,-39.843746 h -15.9375 -398.4375 z"
       id="path46" />
    <path
       style="opacity:0.02"
       d="m 1744,30.000019 c -22.16,0 -40,17.840003 -40,39.999996 V 86.000011 485.99996 502 c 0,22.15998 17.84,40 40,40 h 16 400 16 c 22.16,0 40,-17.84002 40,-40 V 485.99996 86.000011 70.000015 c 0,-22.159993 -17.84,-39.999996 -40,-39.999996 h -16 -400 z"
       id="path48" />
    <path
       style="fill:#ffca28"
       d="m 1749.0625,30.00001 c -21.6406,0 -39.0625,17.42187 -39.0625,39.0625 v 15.625 390.62494 15.62504 c 0,21.64062 17.4219,39.0625 39.0625,39.0625 h 15.625 390.625 15.625 c 21.6406,0 39.0625,-17.42188 39.0625,-39.0625 V 475.31245 84.68751 69.06251 c 0,-21.64063 -17.4219,-39.0625 -39.0625,-39.0625 h -15.625 -390.625 z"
       id="path50" />
  </g>
  <g
     id="red-notes"
     transform="translate(-161,-29.000019)">
    <rect
       style="opacity:0.001"
       width="514"
       height="514"
       x="1703"
       y="29"
       id="rect53" />
    <path
       style="opacity:0.02"
       d="m 1748.2188,35.000019 c -21.7272,0 -39.2188,17.491563 -39.2188,39.218746 V 89.906261 482.09371 497.78125 C 1709,519.50843 1726.4916,537 1748.2188,537 h 15.6874 392.1875 15.6875 C 2193.5084,537 2211,519.50843 2211,497.78125 V 482.09371 89.906261 74.218765 c 0,-21.727183 -17.4916,-39.218746 -39.2188,-39.218746 h -15.6875 -392.1875 z"
       id="path55" />
    <path
       style="opacity:0.02"
       d="m 1747.375,34.000019 c -21.8138,0 -39.375,17.561251 -39.375,39.374996 V 89.125011 482.87496 498.625 c 0,21.81374 17.5612,39.375 39.375,39.375 h 15.75 393.75 15.75 C 2194.4387,538 2212,520.43874 2212,498.625 V 482.87496 89.125011 73.375015 c 0,-21.813745 -17.5613,-39.374996 -39.375,-39.374996 h -15.75 -393.75 z"
       id="path57" />
    <path
       style="opacity:0.02"
       d="m 1746.5313,33.000019 c -21.9004,0 -39.5313,17.630939 -39.5313,39.531246 V 88.343761 483.65621 499.46875 C 1707,521.36905 1724.6309,539 1746.5313,539 h 15.8124 395.3125 15.8125 C 2195.3691,539 2213,521.36905 2213,499.46875 V 483.65621 88.343761 72.531265 c 0,-21.900307 -17.6309,-39.531246 -39.5313,-39.531246 h -15.8125 -395.3125 z"
       id="path59" />
    <path
       style="opacity:0.02"
       d="m 1745.6875,32.000019 c -21.9869,0 -39.6875,17.700627 -39.6875,39.687496 V 87.562511 484.43746 500.3125 c 0,21.98686 17.7006,39.6875 39.6875,39.6875 h 15.875 396.875 15.875 C 2196.2994,540 2214,522.29936 2214,500.3125 V 484.43746 87.562511 71.687515 c 0,-21.986869 -17.7006,-39.687496 -39.6875,-39.687496 h -15.875 -396.875 z"
       id="path61" />
    <path
       style="opacity:0.02"
       d="m 1744.8438,31.000019 c -22.0735,0 -39.8438,17.770315 -39.8438,39.843746 V 86.781261 485.21871 501.15625 C 1705,523.22967 1722.7703,541 1744.8438,541 h 15.9374 398.4375 15.9375 C 2197.2297,541 2215,523.22967 2215,501.15625 V 485.21871 86.781261 70.843765 c 0,-22.073431 -17.7703,-39.843746 -39.8438,-39.843746 h -15.9375 -398.4375 z"
       id="path63" />
    <path
       style="opacity:0.02"
       d="m 1744,30.000019 c -22.16,0 -40,17.840003 -40,39.999996 V 86.000011 485.99996 502 c 0,22.15998 17.84,40 40,40 h 16 400 16 c 22.16,0 40,-17.84002 40,-40 V 485.99996 86.000011 70.000015 c 0,-22.159993 -17.84,-39.999996 -40,-39.999996 h -16 -400 z"
       id="path65" />
    <path
       style="fill:#ef5350"
       d="m 1749.0625,30.00001 c -21.6406,0 -39.0625,17.42187 -39.0625,39.0625 v 15.625 390.62494 15.62504 c 0,21.64062 17.4219,39.0625 39.0625,39.0625 h 15.625 390.625 15.625 c 21.6406,0 39.0625,-17.42188 39.0625,-39.0625 V 475.31245 84.68751 69.06251 c 0,-21.64063 -17.4219,-39.0625 -39.0625,-39.0625 h -15.625 -390.625 z"
       id="path67" />
  </g>
  <g
     id="orange-notes"
     transform="translate(353,-29.000019)">
    <rect
       style="opacity:0.001"
       width="514"
       height="514"
       x="1703"
       y="29"
       id="rect70" />
    <path
       style="opacity:0.02"
       d="m 1748.2188,35.000019 c -21.7272,0 -39.2188,17.491563 -39.2188,39.218746 V 89.906261 482.09371 497.78125 C 1709,519.50843 1726.4916,537 1748.2188,537 h 15.6874 392.1875 15.6875 C 2193.5084,537 2211,519.50843 2211,497.78125 V 482.09371 89.906261 74.218765 c 0,-21.727183 -17.4916,-39.218746 -39.2188,-39.218746 h -15.6875 -392.1875 z"
       id="path72" />
    <path
       style="opacity:0.02"
       d="m 1747.375,34.000019 c -21.8138,0 -39.375,17.561251 -39.375,39.374996 V 89.125011 482.87496 498.625 c 0,21.81374 17.5612,39.375 39.375,39.375 h 15.75 393.75 15.75 C 2194.4387,538 2212,520.43874 2212,498.625 V 482.87496 89.125011 73.375015 c 0,-21.813745 -17.5613,-39.374996 -39.375,-39.374996 h -15.75 -393.75 z"
       id="path74" />
    <path
       style="opacity:0.02"
       d="m 1746.5313,33.000019 c -21.9004,0 -39.5313,17.630939 -39.5313,39.531246 V 88.343761 483.65621 499.46875 C 1707,521.36905 1724.6309,539 1746.5313,539 h 15.8124 395.3125 15.8125 C 2195.3691,539 2213,521.36905 2213,499.46875 V 483.65621 88.343761 72.531265 c 0,-21.900307 -17.6309,-39.531246 -39.5313,-39.531246 h -15.8125 -395.3125 z"
       id="path76" />
    <path
       style="opacity:0.02"
       d="m 1745.6875,32.000019 c -21.9869,0 -39.6875,17.700627 -39.6875,39.687496 V 87.562511 484.43746 500.3125 c 0,21.98686 17.7006,39.6875 39.6875,39.6875 h 15.875 396.875 15.875 C 2196.2994,540 2214,522.29936 2214,500.3125 V 484.43746 87.562511 71.687515 c 0,-21.986869 -17.7006,-39.687496 -39.6875,-39.687496 h -15.875 -396.875 z"
       id="path78" />
    <path
       style="opacity:0.02"
       d="m 1744.8438,31.000019 c -22.0735,0 -39.8438,17.770315 -39.8438,39.843746 V 86.781261 485.21871 501.15625 C 1705,523.22967 1722.7703,541 1744.8438,541 h 15.9374 398.4375 15.9375 C 2197.2297,541 2215,523.22967 2215,501.15625 V 485.21871 86.781261 70.843765 c 0,-22.073431 -17.7703,-39.843746 -39.8438,-39.843746 h -15.9375 -398.4375 z"
       id="path80" />
    <path
       style="opacity:0.02"
       d="m 1744,30.000019 c -22.16,0 -40,17.840003 -40,39.999996 V 86.000011 485.99996 502 c 0,22.15998 17.84,40 40,40 h 16 400 16 c 22.16,0 40,-17.84002 40,-40 V 485.99996 86.000011 70.000015 c 0,-22.159993 -17.84,-39.999996 -40,-39.999996 h -16 -400 z"
       id="path82" />
    <path
       style="fill:#ff9800"
       d="m 1749.0625,30.00001 c -21.6406,0 -39.0625,17.42187 -39.0625,39.0625 v 15.625 390.62494 15.62504 c 0,21.64062 17.4219,39.0625 39.0625,39.0625 h 15.625 390.625 15.625 c 21.6406,0 39.0625,-17.42188 39.0625,-39.0625 V 475.31245 84.68751 69.06251 c 0,-21.64063 -17.4219,-39.0625 -39.0625,-39.0625 h -15.625 -390.625 z"
       id="path84" />
  </g>
  <g
     id="green-notes"
     transform="translate(867,-29.000038)">
    <rect
       style="opacity:0.001"
       width="514"
       height="514"
       x="1703"
       y="29"
       id="rect87" />
    <path
       style="opacity:0.02"
       d="m 1748.2188,35.000019 c -21.7272,0 -39.2188,17.491563 -39.2188,39.218746 V 89.906261 482.09371 497.78125 C 1709,519.50843 1726.4916,537 1748.2188,537 h 15.6874 392.1875 15.6875 C 2193.5084,537 2211,519.50843 2211,497.78125 V 482.09371 89.906261 74.218765 c 0,-21.727183 -17.4916,-39.218746 -39.2188,-39.218746 h -15.6875 -392.1875 z"
       id="path89" />
    <path
       style="opacity:0.02"
       d="m 1747.375,34.000019 c -21.8138,0 -39.375,17.561251 -39.375,39.374996 V 89.125011 482.87496 498.625 c 0,21.81374 17.5612,39.375 39.375,39.375 h 15.75 393.75 15.75 C 2194.4387,538 2212,520.43874 2212,498.625 V 482.87496 89.125011 73.375015 c 0,-21.813745 -17.5613,-39.374996 -39.375,-39.374996 h -15.75 -393.75 z"
       id="path91" />
    <path
       style="opacity:0.02"
       d="m 1746.5313,33.000019 c -21.9004,0 -39.5313,17.630939 -39.5313,39.531246 V 88.343761 483.65621 499.46875 C 1707,521.36905 1724.6309,539 1746.5313,539 h 15.8124 395.3125 15.8125 C 2195.3691,539 2213,521.36905 2213,499.46875 V 483.65621 88.343761 72.531265 c 0,-21.900307 -17.6309,-39.531246 -39.5313,-39.531246 h -15.8125 -395.3125 z"
       id="path93" />
    <path
       style="opacity:0.02"
       d="m 1745.6875,32.000019 c -21.9869,0 -39.6875,17.700627 -39.6875,39.687496 V 87.562511 484.43746 500.3125 c 0,21.98686 17.7006,39.6875 39.6875,39.6875 h 15.875 396.875 15.875 C 2196.2994,540 2214,522.29936 2214,500.3125 V 484.43746 87.562511 71.687515 c 0,-21.986869 -17.7006,-39.687496 -39.6875,-39.687496 h -15.875 -396.875 z"
       id="path95" />
    <path
       style="opacity:0.02"
       d="m 1744.8438,31.000019 c -22.0735,0 -39.8438,17.770315 -39.8438,39.843746 V 86.781261 485.21871 501.15625 C 1705,523.22967 1722.7703,541 1744.8438,541 h 15.9374 398.4375 15.9375 C 2197.2297,541 2215,523.22967 2215,501.15625 V 485.21871 86.781261 70.843765 c 0,-22.073431 -17.7703,-39.843746 -39.8438,-39.843746 h -15.9375 -398.4375 z"
       id="path97" />
    <path
       style="opacity:0.02"
       d="m 1744,30.000019 c -22.16,0 -40,17.840003 -40,39.999996 V 86.000011 485.99996 502 c 0,22.15998 17.84,40 40,40 h 16 400 16 c 22.16,0 40,-17.84002 40,-40 V 485.99996 86.000011 70.000015 c 0,-22.159993 -17.84,-39.999996 -40,-39.999996 h -16 -400 z"
       id="path99" />
    <path
       style="fill:#4caf50"
       d="m 1749.0625,30.00001 c -21.6406,0 -39.0625,17.42187 -39.0625,39.0625 v 15.625 390.62494 15.62504 c 0,21.64062 17.4219,39.0625 39.0625,39.0625 h 15.625 390.625 15.625 c 21.6406,0 39.0625,-17.42188 39.0625,-39.0625 V 475.31245 84.68751 69.06251 c 0,-21.64063 -17.4219,-39.0625 -39.0625,-39.0625 h -15.625 -390.625 z"
       id="path101" />
  </g>
  <g
     id="blue-notes"
     transform="translate(1381,-29.000038)">
    <rect
       style="opacity:0.001"
       width="514"
       height="514"
       x="1703"
       y="29"
       id="rect104" />
    <path
       style="opacity:0.02"
       d="m 1748.2188,35.000019 c -21.7272,0 -39.2188,17.491563 -39.2188,39.218746 V 89.906261 482.09371 497.78125 C 1709,519.50843 1726.4916,537 1748.2188,537 h 15.6874 392.1875 15.6875 C 2193.5084,537 2211,519.50843 2211,497.78125 V 482.09371 89.906261 74.218765 c 0,-21.727183 -17.4916,-39.218746 -39.2188,-39.218746 h -15.6875 -392.1875 z"
       id="path106" />
    <path
       style="opacity:0.02"
       d="m 1747.375,34.000019 c -21.8138,0 -39.375,17.561251 -39.375,39.374996 V 89.125011 482.87496 498.625 c 0,21.81374 17.5612,39.375 39.375,39.375 h 15.75 393.75 15.75 C 2194.4387,538 2212,520.43874 2212,498.625 V 482.87496 89.125011 73.375015 c 0,-21.813745 -17.5613,-39.374996 -39.375,-39.374996 h -15.75 -393.75 z"
       id="path108" />
    <path
       style="opacity:0.02"
       d="m 1746.5313,33.000019 c -21.9004,0 -39.5313,17.630939 -39.5313,39.531246 V 88.343761 483.65621 499.46875 C 1707,521.36905 1724.6309,539 1746.5313,539 h 15.8124 395.3125 15.8125 C 2195.3691,539 2213,521.36905 2213,499.46875 V 483.65621 88.343761 72.531265 c 0,-21.900307 -17.6309,-39.531246 -39.5313,-39.531246 h -15.8125 -395.3125 z"
       id="path110" />
    <path
       style="opacity:0.02"
       d="m 1745.6875,32.000019 c -21.9869,0 -39.6875,17.700627 -39.6875,39.687496 V 87.562511 484.43746 500.3125 c 0,21.98686 17.7006,39.6875 39.6875,39.6875 h 15.875 396.875 15.875 C 2196.2994,540 2214,522.29936 2214,500.3125 V 484.43746 87.562511 71.687515 c 0,-21.986869 -17.7006,-39.687496 -39.6875,-39.687496 h -15.875 -396.875 z"
       id="path112" />
    <path
       style="opacity:0.02"
       d="m 1744.8438,31.000019 c -22.0735,0 -39.8438,17.770315 -39.8438,39.843746 V 86.781261 485.21871 501.15625 C 1705,523.22967 1722.7703,541 1744.8438,541 h 15.9374 398.4375 15.9375 C 2197.2297,541 2215,523.22967 2215,501.15625 V 485.21871 86.781261 70.843765 c 0,-22.073431 -17.7703,-39.843746 -39.8438,-39.843746 h -15.9375 -398.4375 z"
       id="path114" />
    <path
       style="opacity:0.02"
       d="m 1744,30.000019 c -22.16,0 -40,17.840003 -40,39.999996 V 86.000011 485.99996 502 c 0,22.15998 17.84,40 40,40 h 16 400 16 c 22.16,0 40,-17.84002 40,-40 V 485.99996 86.000011 70.000015 c 0,-22.159993 -17.84,-39.999996 -40,-39.999996 h -16 -400 z"
       id="path116" />
    <path
       style="fill:#4285f4"
       d="m 1749.0625,30.00001 c -21.6406,0 -39.0625,17.42187 -39.0625,39.0625 v 15.625 390.62494 15.62504 c 0,21.64062 17.4219,39.0625 39.0625,39.0625 h 15.625 390.625 15.625 c 21.6406,0 39.0625,-17.42188 39.0625,-39.0625 V 475.31245 84.68751 69.06251 c 0,-21.64063 -17.4219,-39.0625 -39.0625,-39.0625 h -15.625 -390.625 z"
       id="path118" />
  </g>
  <g
     id="pink-notes"
     transform="translate(1895,-29.000038)">
    <rect
       style="opacity:0.001"
       width="514"
       height="514"
       x="1703"
       y="29"
       id="rect121" />
    <path
       style="opacity:0.02"
       d="m 1748.2188,35.000019 c -21.7272,0 -39.2188,17.491563 -39.2188,39.218746 V 89.906261 482.09371 497.78125 C 1709,519.50843 1726.4916,537 1748.2188,537 h 15.6874 392.1875 15.6875 C 2193.5084,537 2211,519.50843 2211,497.78125 V 482.09371 89.906261 74.218765 c 0,-21.727183 -17.4916,-39.218746 -39.2188,-39.218746 h -15.6875 -392.1875 z"
       id="path123" />
    <path
       style="opacity:0.02"
       d="m 1747.375,34.000019 c -21.8138,0 -39.375,17.561251 -39.375,39.374996 V 89.125011 482.87496 498.625 c 0,21.81374 17.5612,39.375 39.375,39.375 h 15.75 393.75 15.75 C 2194.4387,538 2212,520.43874 2212,498.625 V 482.87496 89.125011 73.375015 c 0,-21.813745 -17.5613,-39.374996 -39.375,-39.374996 h -15.75 -393.75 z"
       id="path125" />
    <path
       style="opacity:0.02"
       d="m 1746.5313,33.000019 c -21.9004,0 -39.5313,17.630939 -39.5313,39.531246 V 88.343761 483.65621 499.46875 C 1707,521.36905 1724.6309,539 1746.5313,539 h 15.8124 395.3125 15.8125 C 2195.3691,539 2213,521.36905 2213,499.46875 V 483.65621 88.343761 72.531265 c 0,-21.900307 -17.6309,-39.531246 -39.5313,-39.531246 h -15.8125 -395.3125 z"
       id="path127" />
    <path
       style="opacity:0.02"
       d="m 1745.6875,32.000019 c -21.9869,0 -39.6875,17.700627 -39.6875,39.687496 V 87.562511 484.43746 500.3125 c 0,21.98686 17.7006,39.6875 39.6875,39.6875 h 15.875 396.875 15.875 C 2196.2994,540 2214,522.29936 2214,500.3125 V 484.43746 87.562511 71.687515 c 0,-21.986869 -17.7006,-39.687496 -39.6875,-39.687496 h -15.875 -396.875 z"
       id="path129" />
    <path
       style="opacity:0.02"
       d="m 1744.8438,31.000019 c -22.0735,0 -39.8438,17.770315 -39.8438,39.843746 V 86.781261 485.21871 501.15625 C 1705,523.22967 1722.7703,541 1744.8438,541 h 15.9374 398.4375 15.9375 C 2197.2297,541 2215,523.22967 2215,501.15625 V 485.21871 86.781261 70.843765 c 0,-22.073431 -17.7703,-39.843746 -39.8438,-39.843746 h -15.9375 -398.4375 z"
       id="path131" />
    <path
       style="opacity:0.02"
       d="m 1744,30.000019 c -22.16,0 -40,17.840003 -40,39.999996 V 86.000011 485.99996 502 c 0,22.15998 17.84,40 40,40 h 16 400 16 c 22.16,0 40,-17.84002 40,-40 V 485.99996 86.000011 70.000015 c 0,-22.159993 -17.84,-39.999996 -40,-39.999996 h -16 -400 z"
       id="path133" />
    <path
       style="fill:#ec407a"
       d="m 1749.0625,30.00001 c -21.6406,0 -39.0625,17.42187 -39.0625,39.0625 v 15.625 390.62494 15.62504 c 0,21.64062 17.4219,39.0625 39.0625,39.0625 h 15.625 390.625 15.625 c 21.6406,0 39.0625,-17.42188 39.0625,-39.0625 V 475.31245 84.68751 69.06251 c 0,-21.64063 -17.4219,-39.0625 -39.0625,-39.0625 h -15.625 -390.625 z"
       id="path135" />
  </g>
</svg>
