<svg width="56" height="56" version="1.1" viewBox="0 0 56 56" xmlns="http://www.w3.org/2000/svg" xmlns:xlink="http://www.w3.org/1999/xlink">
 <defs>
  <linearGradient id="a">
   <stop class="ColorScheme-Highlight" stop-color="#4285f4" offset="0"/>
   <stop class="ColorScheme-Highlight" stop-color="#4285f4" stop-opacity=".62745" offset=".5"/>
   <stop class="ColorScheme-Highlight" stop-color="#4285f4" stop-opacity="0" offset="1"/>
  </linearGradient>
  <linearGradient id="i" x1="28" x2="28" y1="926.36" y2="914.36" gradientTransform="translate(0,-2.8217e-5)" gradientUnits="userSpaceOnUse" xlink:href="#a"/>
  <linearGradient id="h" x1="28" x2="28" y1="926.36" y2="914.36" gradientTransform="translate(904.36,-960.36)" gradientUnits="userSpaceOnUse" xlink:href="#a"/>
  <linearGradient id="f" x1="28" x2="28" y1="926.36" y2="914.36" gradientTransform="translate(0 -1864.7)" gradientUnits="userSpaceOnUse" xlink:href="#a"/>
  <linearGradient id="g" x1="28" x2="28" y1="926.36" y2="914.36" gradientTransform="translate(-960.36,-904.36)" gradientUnits="userSpaceOnUse" xlink:href="#a"/>
  <radialGradient id="e" cx="22" cy="22" r="6" gradientTransform="matrix(-7.6817e-8,-2,2,-7.6817e-8,-22,970.36)" gradientUnits="userSpaceOnUse" xlink:href="#a"/>
  <radialGradient id="d" cx="22" cy="22" r="6" gradientTransform="matrix(7.6817e-8,-2,-2,-7.6817e-8,78,970.36)" gradientUnits="userSpaceOnUse" xlink:href="#a"/>
  <radialGradient id="b" cx="22" cy="22" r="6" gradientTransform="matrix(7.6817e-8,2,-2,7.6817e-8,78,894.36)" gradientUnits="userSpaceOnUse" xlink:href="#a"/>
  <radialGradient id="c" cx="22" cy="22" r="6" gradientTransform="matrix(-7.6817e-8,2,2,7.6817e-8,-22,894.36)" gradientUnits="userSpaceOnUse" xlink:href="#a"/>
 </defs>
 <rect id="hint-glow-radius" y="2.6172e-6" width="5" height="5" fill="#f60"/>
 <rect id="hint-tile-center" y="6" width="5" height="5" fill="#f60"/>
 <g id="top" transform="translate(0 -904.36)">
  <rect x="22" y="914.36" width="12" height="12" rx="0" ry="0" fill="url(#i)" fill-rule="evenodd"/>
  <rect x="22" y="914.36" width="12" height="12" fill="none"/>
 </g>
 <g id="left" transform="translate(0 -904.36)">
  <rect x="10" y="926.36" width="12" height="12" fill="none"/>
  <rect transform="rotate(-90)" x="-938.36" y="10" width="12" height="12" rx="0" ry="0" fill="url(#g)" fill-rule="evenodd"/>
 </g>
 <g id="right" transform="translate(0 -904.36)">
  <rect transform="rotate(90)" x="926.36" y="-46" width="12" height="12" rx="0" ry="0" fill="url(#h)" fill-rule="evenodd"/>
 </g>
 <g id="center" transform="translate(0 -904.36)">
  <rect x="22" y="926.36" width="12" height="12" fill="none"/>
  <rect x="22" y="926.36" width="12" height="12" fill="#4285f4" fill-rule="evenodd"/>
 </g>
 <g id="bottom" transform="translate(0 -904.36)">
  <rect x="22" y="938.36" width="12" height="12" fill="none"/>
  <rect transform="scale(1,-1)" x="22" y="-950.36" width="12" height="12" rx="0" ry="0" fill="url(#f)" fill-rule="evenodd"/>
 </g>
 <g id="bottomright" transform="translate(0 -904.36)">
  <rect x="34" y="938.36" width="12" height="12" fill="none"/>
  <path d="m34 950.36a12 12 0 0 0 12-12h-12z" fill="url(#b)" fill-rule="evenodd"/>
 </g>
 <g id="topright" transform="translate(0 -904.36)">
  <rect x="34" y="914.36" width="12" height="12" fill="none"/>
  <path d="m34 914.36a12 12 0 0 1 12 12h-12z" fill="url(#d)" fill-rule="evenodd"/>
 </g>
 <g id="bottomleft" transform="translate(0 -904.36)">
  <rect x="10" y="938.36" width="12" height="12" fill="none"/>
  <path d="m22 950.36a12 12 0 0 1-12-12h12z" fill="url(#c)" fill-rule="evenodd"/>
 </g>
 <g id="topleft" transform="translate(0 -904.36)">
  <rect x="10" y="914.36" width="12" height="12" fill="none"/>
  <path d="m22 914.36a12 12 0 0 0-12 12h12z" fill="url(#e)" fill-rule="evenodd"/>
 </g>
</svg>
