<?xml version="1.0" encoding="UTF-8" standalone="no"?>
<svg
   xmlns:dc="http://purl.org/dc/elements/1.1/"
   xmlns:cc="http://creativecommons.org/ns#"
   xmlns:rdf="http://www.w3.org/1999/02/22-rdf-syntax-ns#"
   xmlns:svg="http://www.w3.org/2000/svg"
   xmlns="http://www.w3.org/2000/svg"
   xmlns:xlink="http://www.w3.org/1999/xlink"
   xmlns:sodipodi="http://sodipodi.sourceforge.net/DTD/sodipodi-0.dtd"
   xmlns:inkscape="http://www.inkscape.org/namespaces/inkscape"
   inkscape:version="1.0.1 (3bc2e813f5, 2020-09-07)"
   sodipodi:docname="panel-background.svg"
   id="svg200"
   viewBox="0 0 173 56"
   version="1.1"
   height="56"
   width="173">
  <metadata
     id="metadata204">
    <rdf:RDF>
      <cc:Work
         rdf:about="">
        <dc:format>image/svg+xml</dc:format>
        <dc:type
           rdf:resource="http://purl.org/dc/dcmitype/StillImage" />
        <dc:title />
      </cc:Work>
    </rdf:RDF>
  </metadata>
  <sodipodi:namedview
     inkscape:document-rotation="0"
     inkscape:guide-bbox="true"
     showguides="true"
     inkscape:current-layer="svg200"
     inkscape:window-maximized="1"
     inkscape:window-y="24"
     inkscape:window-x="0"
     inkscape:cy="26.721935"
     inkscape:cx="71.914248"
     inkscape:zoom="13.30064"
     showgrid="true"
     id="namedview202"
     inkscape:window-height="954"
     inkscape:window-width="1920"
     inkscape:pageshadow="2"
     inkscape:pageopacity="0"
     guidetolerance="10"
     gridtolerance="10"
     objecttolerance="10"
     borderopacity="1"
     bordercolor="#666666"
     pagecolor="#cbcbcb">
    <inkscape:grid
       id="grid914"
       type="xygrid" />
  </sodipodi:namedview>
  <defs
     id="defs24">
    <style
       type="text/css"
       id="current-color-scheme">.ColorScheme-Text {
        color:#31363b;
        stop-color:#31363b;
      }
      .ColorScheme-Background {
        color:#eff0f1;
        stop-color:#eff0f1;
      }
      .ColorScheme-Highlight {
        color:#3daee9;
        stop-color:#3daee9;
      }
      .ColorScheme-ViewText {
        color:#31363b;
        stop-color:#31363b;
      }
      .ColorScheme-ViewBackground {
        color:#fcfcfc;
        stop-color:#fcfcfc;
      }
      .ColorScheme-ViewHover {
        color:#93cee9;
        stop-color:#93cee9;
      }
      .ColorScheme-ViewFocus{
        color:#3daee9;
        stop-color:#3daee9;
      }
      .ColorScheme-ButtonText {
        color:#31363b;
        stop-color:#31363b;
      }
      .ColorScheme-ButtonBackground {
        color:#eff0f1;
        stop-color:#eff0f1;
      }
      .ColorScheme-ButtonHover {
        color:#93cee9;
        stop-color:#93cee9;
      }
      .ColorScheme-ButtonFocus{
        color:#3daee9;
        stop-color:#3daee9;
      }</style>
    <linearGradient
       inkscape:collect="always"
       id="linearGradient4270">
      <stop
         style="stop-color:#000000;stop-opacity:0.66663194"
         offset="0"
         id="stop4272" />
      <stop
         style="stop-color:#000000;stop-opacity:0;"
         offset="1"
         id="stop4274" />
    </linearGradient>
    <radialGradient
       r="6"
       fy="11.99998"
       fx="77"
       cy="11.99998"
       cx="77"
       gradientTransform="matrix(1.6289431e-5,-4.6666397,4.6666504,1.6289464e-5,3.9989368,381.3309)"
       gradientUnits="userSpaceOnUse"
       id="radialGradient994"
       xlink:href="#linearGradient4270"
       inkscape:collect="always" />
    <linearGradient
       gradientTransform="matrix(1.1020538,0,0,1,98.293668,0)"
       y2="-34.999985"
       x2="-904.3623"
       y1="-34.999985"
       x1="-920.69537"
       gradientUnits="userSpaceOnUse"
       id="linearGradient4920"
       xlink:href="#linearGradient4270"
       inkscape:collect="always" />
  </defs>
  <use
     x="0"
     y="0"
     xlink:href="#top"
     id="bottom"
     transform="matrix(1,0,0,-1,-2.3793946e-7,55.999963)"
     width="100%"
     height="100%" />
  <use
     height="100%"
     width="100%"
     transform="matrix(0,1,1,0,38.000037,-37.99997)"
     id="left"
     xlink:href="#top"
     y="0"
     x="0" />
  <use
     x="0"
     y="0"
     xlink:href="#shadow-top"
     id="shadow-right"
     transform="rotate(90,65.99996,28.000016)"
     width="100%"
     height="100%" />
  <use
     x="0"
     y="0"
     xlink:href="#top"
     id="right"
     transform="rotate(90,65.999966,27.999997)"
     width="100%"
     height="100%" />
  <use
     x="0"
     y="0"
     xlink:href="#shadow-top"
     id="shadow-left"
     transform="rotate(-90,66.000007,27.999995)"
     width="100%"
     height="100%" />
  <use
     x="0"
     y="0"
     xlink:href="#shadow-top"
     id="shadow-bottom"
     transform="matrix(1,0,0,-1,5.6942917e-7,56.000033)"
     width="100%"
     height="100%" />
  <g
     style="opacity:0.2"
     transform="matrix(1.1666637,0,0,1.1666637,64.666611,-1086.7531)"
     id="shadow-topleft">
    <path
       id="path4828"
       style="opacity:0.9;fill:url(#radialGradient994);fill-opacity:1;fill-rule:evenodd;stroke:none;stroke-width:2.33332px;stroke-linecap:butt;stroke-linejoin:miter;stroke-opacity:1"
       d="M 32 -6 L 32 22 L 44 22 C 44 13.13604 51.136035 6 60 6 L 60 -6 L 32 -6 z "
       transform="matrix(0.85714504,0,0,0.85714504,-55.428665,931.50503)" />
  </g>
  <rect
     id="hint-tile-center"
     y="-1.4648437e-05"
     width="5"
     height="5"
     x="0"
     style="fill:#ff6600" />
  <g
     transform="matrix(0.37500096,0,0,1.9999988,52.874957,-1814.7233)"
     id="top">
    <rect
       class="ColorScheme-Background"
       transform="matrix(0,-1,-1,0,0,0)"
       style="color:#eff0f1;opacity:0.9;fill:#ffffff;fill-opacity:0.89999998;stroke:none;stroke-width:1.1547"
       id="rect4152"
       width="8.0000181"
       height="32"
       x="-918.36218"
       y="-50.999985" />
    <rect
       y="-50.999985"
       x="-910.86218"
       height="32"
       width="0.50003201"
       id="rect76"
       style="color:#eff0f1;opacity:0.1;fill:#f5f5f5;fill-opacity:1;stroke:none;stroke-width:0.288684"
       transform="matrix(0,-1,-1,0,0,0)"
       class="ColorScheme-Background" />
  </g>
  <g
     transform="translate(31,-904.36218)"
     id="topleft">
    <path
       inkscape:connector-curvature="0"
       id="rect4159"
       d="m 29,910.36218 c -8.863965,0 -16,7.13604 -16,16 h 16 z"
       style="opacity:0.9;fill:#ffffff;fill-opacity:0.89999998;stroke:none;stroke-width:2.66667"
       sodipodi:nodetypes="cccc" />
    <path
       id="path71"
       style="opacity:0.1;fill:#ffffff;fill-opacity:1;stroke:none;stroke-width:2.66667"
       d="M 60 6 C 51.136035 6 44 13.13604 44 22 L 45 22 C 45 13.69004 51.690033 7 60 7 L 60 6 z "
       transform="translate(-31,904.36218)" />
  </g>
  <rect
     style="color:#eff0f1;opacity:0.9;fill:#ffffff;fill-opacity:0.89999998;stroke:none;stroke-width:0.375003"
     id="center"
     width="12.000099"
     height="12.000099"
     x="59.999954"
     y="22"
     class="ColorScheme-Background" />
  <rect
     y="6.0000515"
     x="64"
     height="2.9999487"
     width="4"
     id="hint-top-margin"
     style="fill:#ff00ff;fill-opacity:1;stroke:none;stroke-width:0.7070992" />
  <rect
     style="fill:#ff00ff;fill-opacity:1;stroke:none;stroke-width:0.70711386"
     id="hint-bottom-margin"
     width="4"
     height="3.0000477"
     x="64"
     y="47" />
  <rect
     transform="rotate(90)"
     style="fill:#ff00ff;fill-opacity:1;stroke:none;stroke-width:0.70710778"
     id="hint-right-margin"
     width="4"
     height="3.0000153"
     x="26.000051"
     y="-88.000015" />
  <rect
     transform="rotate(90)"
     y="-47"
     x="26.000051"
     height="3"
     width="4"
     id="hint-left-margin"
     style="fill:#ff00ff;fill-opacity:1;stroke:none;stroke-width:0.70710653" />
  <g
     style="opacity:0.2"
     transform="matrix(0.37500332,0,0,1.5555643,52.874889,-1403.4603)"
     id="shadow-top">
    <rect
       y="-50.999985"
       x="-916.36218"
       height="32"
       width="6"
       id="rect4820"
       style="opacity:1;fill:none;fill-opacity:1;stroke:none"
       transform="matrix(0,-1,-1,0,0,0)" />
    <rect
       y="-50.999844"
       x="-906.07654"
       height="31.999859"
       width="7.7143521"
       id="rect4822"
       style="opacity:0.9;fill:url(#linearGradient4920);fill-opacity:1;stroke:none;stroke-width:1.04979"
       transform="matrix(0,-1,-1,0,0,0)" />
    <rect
       transform="matrix(0,-1,-1,0,0,0)"
       style="opacity:1;fill:none;fill-opacity:1;stroke:none"
       id="rect4824"
       width="0.99997741"
       height="32"
       x="-911.36218"
       y="-50.999985" />
  </g>
  <rect
     style="fill:#ff6600;fill-opacity:1;stroke:none;stroke-width:1.41421628"
     id="shadow-hint-top-margin"
     width="4"
     height="12"
     x="64"
     y="-5.999948" />
  <rect
     y="50.00005"
     x="64"
     height="11.999977"
     width="4"
     id="shadow-hint-bottom-margin"
     style="fill:#ff6600;fill-opacity:1;stroke:none;stroke-width:1.41420949" />
  <rect
     y="-100"
     x="26.000051"
     height="12"
     width="3.9999769"
     id="shadow-hint-right-margin"
     style="fill:#ff6600;fill-opacity:1;stroke:none;stroke-width:1.41421628"
     transform="rotate(90)" />
  <rect
     style="fill:#ff6600;fill-opacity:1;stroke:none;stroke-width:1.41421354"
     id="shadow-hint-left-margin"
     width="4.0000229"
     height="12"
     x="26.000051"
     y="-44"
     transform="rotate(90)" />
  <g
     transform="matrix(0.37500035,0,0,1.3333275,128.87498,-1207.8108)"
     id="mask-top">
    <rect
       y="-51"
       x="-922.36218"
       height="32.000015"
       width="11.999931"
       id="rect4265"
       style="opacity:0.97;fill:#000000;fill-opacity:1;stroke:none;stroke-width:1.54919"
       transform="matrix(0,-1,-1,0,0,0)" />
  </g>
  <g
     transform="matrix(1.5999977,0,0,1.5999942,99.200029,-1450.5741)"
     id="mask-topleft">
    <path
       inkscape:connector-curvature="0"
       id="path4277"
       d="m 23,910.36218 c -5.539984,0 -10,4.46002 -10,10 h 10 z"
       style="opacity:0.97;fill:#000000;fill-opacity:1;stroke-width:2" />
  </g>
  <g
     transform="matrix(2.0000036,0,0,2.0000159,49.999796,-1814.7389)"
     id="mask-topright">
    <path
       inkscape:connector-curvature="0"
       id="path4287"
       d="m 49.000013,910.36218 v 7.99999 H 57 c 0,-4.43198 -3.568007,-7.99999 -7.999987,-7.99999 z"
       style="opacity:0.97;fill:#000000;fill-opacity:1;stroke-width:1.6" />
  </g>
  <g
     transform="matrix(0.37500035,0,0,1.600003,128.87498,-1476.9825)"
     id="mask-bottom">
    <rect
       transform="rotate(90)"
       style="opacity:0.97;fill:#000000;fill-opacity:1;stroke:none;stroke-width:1.41421"
       id="rect4291"
       width="9.9999723"
       height="32.000015"
       x="944.36224"
       y="-51" />
  </g>
  <g
     transform="matrix(1.3333288,0,0,1.3333268,102.66673,-1222.4767)"
     id="mask-bottomleft">
    <path
       inkscape:connector-curvature="0"
       id="path4303"
       d="m 13,942.36218 c 0,6.64797 5.35202,12 12,12 v -12 z"
       style="opacity:0.97;fill:#000000;fill-opacity:1;stroke-width:2.40001" />
  </g>
  <g
     transform="matrix(1.3333336,0,0,1.3333316,87.999988,-1222.4813)"
     id="mask-bottomright">
    <path
       inkscape:connector-curvature="0"
       id="path4313"
       d="m 45,942.36218 v 12 c 6.64798,0 12,-5.35203 12,-12 z"
       style="opacity:0.97;fill:#000000;fill-opacity:1;stroke-width:2.40001" />
  </g>
  <g
     transform="matrix(1.3333341,0,0,0.60000604,102.66665,-531.42288)"
     id="mask-left">
    <rect
       transform="scale(-1,1)"
       style="opacity:0.97;fill:#000000;fill-opacity:1;stroke:none;stroke-width:1.22475"
       id="rect4317"
       width="11.999996"
       height="20.000069"
       x="-25"
       y="922.36218" />
  </g>
  <g
     transform="matrix(1.6000014,0,0,0.37500479,72.799936,-321.64022)"
     id="mask-right">
    <rect
       y="916.36218"
       x="47"
       height="32.000023"
       width="9.9999828"
       id="rect4323"
       style="opacity:0.97;fill:#000000;fill-opacity:1;stroke:none;stroke-width:1.41421" />
  </g>
  <rect
     y="22"
     x="135.99997"
     height="12.000025"
     width="12.000025"
     id="mask-center"
     style="opacity:0.97;fill:#000000;fill-opacity:1;stroke:none;stroke-width:0.375001" />
  <rect
     inkscape:label="#shadow-center"
     class="ColorScheme-Background"
     y="80"
     x="59.999954"
     height="12.000099"
     width="12.000099"
     id="shadow-center"
     style="color:#eff0f1;opacity:0;fill:#ffffff;fill-opacity:1;stroke:none;stroke-width:0.375003" />
  <use
     x="0"
     y="0"
     xlink:href="#topleft"
     id="topright"
     transform="matrix(-1,0,0,1,132,0)"
     width="100%"
     height="100%" />
  <use
     x="0"
     y="0"
     xlink:href="#topleft"
     id="bottomleft"
     transform="matrix(1,0,0,-1,0,56)"
     width="100%"
     height="100%" />
  <use
     x="0"
     y="0"
     xlink:href="#topleft"
     id="bottomright"
     transform="rotate(180,66,28)"
     width="100%"
     height="100%" />
  <use
     x="0"
     y="0"
     xlink:href="#shadow-topleft"
     id="shadow-topright"
     transform="matrix(-1,0,0,1,132,0)"
     width="100%"
     height="100%" />
  <use
     x="0"
     y="0"
     xlink:href="#shadow-topleft"
     id="shadow-bottomleft"
     transform="matrix(1,0,0,-1,-9.5996635e-7,55.999998)"
     width="100%"
     height="100%" />
  <use
     x="0"
     y="0"
     xlink:href="#shadow-topleft"
     id="shadow-bottomright"
     transform="rotate(180,65.999999,27.999999)"
     width="100%"
     height="100%" />
</svg>
