<?xml version="1.0" encoding="UTF-8" standalone="no"?>
<svg
   xmlns:dc="http://purl.org/dc/elements/1.1/"
   xmlns:cc="http://creativecommons.org/ns#"
   xmlns:rdf="http://www.w3.org/1999/02/22-rdf-syntax-ns#"
   xmlns:svg="http://www.w3.org/2000/svg"
   xmlns="http://www.w3.org/2000/svg"
   xmlns:sodipodi="http://sodipodi.sourceforge.net/DTD/sodipodi-0.dtd"
   xmlns:inkscape="http://www.inkscape.org/namespaces/inkscape"
   inkscape:version="1.0 (4035a4fb49, 2020-05-01)"
   sodipodi:docname="scrollbar.svg"
   id="svg254"
   version="1.0"
   height="98"
   width="48">
  <metadata
     id="metadata258">
    <rdf:RDF>
      <cc:Work
         rdf:about="">
        <dc:format>image/svg+xml</dc:format>
        <dc:type
           rdf:resource="http://purl.org/dc/dcmitype/StillImage" />
        <dc:title></dc:title>
      </cc:Work>
    </rdf:RDF>
  </metadata>
  <sodipodi:namedview
     inkscape:document-rotation="0"
     inkscape:current-layer="svg254"
     inkscape:window-maximized="0"
     inkscape:window-y="88"
     inkscape:window-x="380"
     inkscape:cy="46.092792"
     inkscape:cx="36.609222"
     inkscape:zoom="7.024168"
     showgrid="false"
     id="namedview256"
     inkscape:window-height="862"
     inkscape:window-width="1412"
     inkscape:pageshadow="2"
     inkscape:pageopacity="0"
     guidetolerance="10"
     gridtolerance="10"
     objecttolerance="10"
     borderopacity="1"
     bordercolor="#666666"
     pagecolor="#494949" />
  <defs
     id="defs3">
    <style
       type="text/css"
       id="current-color-scheme">.ColorScheme-Text {
        color:#31363b;
        stop-color:#31363b;
      }
      .ColorScheme-Background {
        color:#eff0f1;
        stop-color:#eff0f1;
      }
      .ColorScheme-Highlight {
        color:#3daee9;
        stop-color:#3daee9;
      }
      .ColorScheme-ViewText {
        color:#31363b;
        stop-color:#31363b;
      }
      .ColorScheme-ViewBackground {
        color:#fcfcfc;
        stop-color:#fcfcfc;
      }
      .ColorScheme-ViewHover {
        color:#93cee9;
        stop-color:#93cee9;
      }
      .ColorScheme-ViewFocus{
        color:#3daee9;
        stop-color:#3daee9;
      }
      .ColorScheme-ButtonText {
        color:#31363b;
        stop-color:#31363b;
      }
      .ColorScheme-ButtonBackground {
        color:#eff0f1;
        stop-color:#eff0f1;
      }
      .ColorScheme-ButtonHover {
        color:#93cee9;
        stop-color:#93cee9;
      }
      .ColorScheme-ButtonFocus{
        color:#3daee9;
        stop-color:#3daee9;
      }</style>
  </defs>
  <rect
     id="slider-center"
     class="ColorScheme-Text"
     x="24"
     y="20"
     width="1"
     height="10"
     style="color:#31363b;opacity:0.45;fill:#ffffff;fill-rule:evenodd" />
  <g
     id="slider-right"
     transform="matrix(0.75,0,0,1,19.25,13)">
    <path
       class="ColorScheme-Text"
       d="m 9,7 v 10 h 4 V 7 Z"
       id="path6"
       inkscape:connector-curvature="0"
       style="color:#31363b;opacity:0.45;fill:#ffffff;fill-rule:evenodd" />
    <rect
       transform="matrix(1.3333,0,0,1,-25.667,-13)"
       x="29"
       y="20"
       width="1"
       height="10"
       id="rect8"
       style="opacity:0.01000001;fill:#e4e6e8" />
  </g>
  <g
     id="slider-topright"
     transform="matrix(0.75,0,0,0.75,19.25,13.75)">
    <rect
       transform="matrix(1.3333,0,0,1.3333,-25.667,-18.333)"
       x="26"
       y="15"
       width="4"
       height="4"
       id="rect11"
       style="opacity:0.01000001;fill:#e4e6e8" />
    <path
       class="ColorScheme-Text"
       d="m 9,3 v 4 h 4 C 13,4.784 11.216,3 9,3 Z"
       id="path13"
       inkscape:connector-curvature="0"
       style="color:#31363b;opacity:0.45;fill:#ffffff;fill-rule:evenodd" />
  </g>
  <g
     id="slider-bottomright"
     transform="matrix(0.75,0,0,0.75,19.25,18.25)">
    <rect
       transform="matrix(1.3333,0,0,1.3333,-25.667,-24.333)"
       x="26"
       y="31"
       width="4"
       height="4"
       id="rect16"
       style="opacity:0.01000001;fill:#e4e6e8" />
    <path
       class="ColorScheme-Text"
       d="m 9,21 v -4 h 4 c 0,2.216 -1.784,4 -4,4 z"
       id="path18"
       inkscape:connector-curvature="0"
       style="color:#31363b;opacity:0.45;fill:#ffffff;fill-rule:evenodd" />
  </g>
  <g
     id="slider-left"
     transform="matrix(-0.75,0,0,1,29.75,13)">
    <path
       class="ColorScheme-Text"
       d="m 9,7 v 10 h 4 V 7 Z"
       id="path21"
       inkscape:connector-curvature="0"
       style="color:#31363b;opacity:0.45;fill:#ffffff;fill-rule:evenodd" />
    <rect
       transform="matrix(-1.3333,0,0,1,39.667,-13)"
       x="19"
       y="20"
       width="1"
       height="10"
       id="rect23"
       style="opacity:0.01000001;fill:#e4e6e8" />
  </g>
  <g
     id="slider-topleft"
     transform="matrix(-0.75,0,0,0.75,29.75,13.75)">
    <rect
       transform="matrix(-1.3333,0,0,1.3333,39.667,-18.333)"
       x="19"
       y="15"
       width="4"
       height="4"
       id="rect26"
       style="opacity:0.01000001;fill:#e4e6e8" />
    <path
       class="ColorScheme-Text"
       d="m 9,3 v 4 h 4 C 13,4.784 11.216,3 9,3 Z"
       id="path28"
       inkscape:connector-curvature="0"
       style="color:#31363b;opacity:0.45;fill:#ffffff;fill-rule:evenodd" />
  </g>
  <g
     id="slider-bottomleft"
     transform="matrix(-0.75,0,0,0.75,29.75,18.25)">
    <rect
       transform="matrix(-1.3333,0,0,1.3333,39.667,-24.333)"
       x="19"
       y="31"
       width="4"
       height="4"
       id="rect31"
       style="opacity:0.01000001;fill:#e4e6e8" />
    <path
       class="ColorScheme-Text"
       d="m 9,21 v -4 h 4 c 0,2.216 -1.784,4 -4,4 z"
       id="path33"
       inkscape:connector-curvature="0"
       style="color:#31363b;opacity:0.45;fill:#ffffff;fill-rule:evenodd" />
  </g>
  <g
     id="slider-top"
     transform="matrix(0,-0.75,-0.1,0,25.7,25.75)">
    <rect
       transform="matrix(0,-10,-1.3333,0,34.333,257)"
       x="24"
       y="15"
       width="1"
       height="4"
       id="rect36"
       style="opacity:0.01000001;fill:#e4e6e8" />
    <path
       class="ColorScheme-Text"
       d="m 9,7 v 10 h 4 V 7 Z"
       id="path38"
       inkscape:connector-curvature="0"
       style="color:#31363b;opacity:0.45;fill:#ffffff;fill-rule:evenodd" />
  </g>
  <g
     id="slider-bottom"
     transform="matrix(0,0.75,-0.1,0,25.7,24.25)">
    <rect
       transform="matrix(0,-10,1.3333,0,-32.333,257)"
       x="24"
       y="31"
       width="1"
       height="4"
       id="rect41"
       style="opacity:0.01000001;fill:#e4e6e8" />
    <path
       class="ColorScheme-Text"
       d="m 9,7 v 10 h 4 V 7 Z"
       id="path43"
       inkscape:connector-curvature="0"
       style="color:#31363b;opacity:0.45;fill:#ffffff;fill-rule:evenodd" />
  </g>
  <rect
     id="hint-scrollbar-size"
     x="4"
     y="25"
     width="8"
     height="8"
     rx="0"
     ry="8"
     style="fill:#4e9a06" />
  <rect
     id="hint-tile-center"
     x="4.1975002"
     y="12.743516"
     width="8"
     height="8"
     rx="0"
     ry="8"
     style="fill:#4e9a06;stroke-width:3.89316869" />
  <g
     id="background-vertical-right"
     transform="matrix(0.75,0,0,1,33.25,13)">
    <path
       class="ColorScheme-Text"
       d="m 9,7 v 10 h 4 V 7 Z"
       id="path48"
       inkscape:connector-curvature="0"
       style="color:#31363b;opacity:0.15;fill:#000000;fill-rule:evenodd" />
    <rect
       transform="matrix(1.3333,0,0,1,-44.333,-13)"
       x="43"
       y="20"
       width="1"
       height="10"
       id="rect50"
       style="opacity:0.01000001;fill:#e4e6e8" />
  </g>
  <g
     id="background-vertical-topright"
     transform="matrix(0.75,0,0,0.75,33.25,13.75)">
    <rect
       transform="matrix(1.3333,0,0,1.3333,-44.333,-18.333)"
       x="40"
       y="15"
       width="4"
       height="4"
       id="rect55"
       style="opacity:0.01000001;fill:#e4e6e8" />
    <path
       class="ColorScheme-Text"
       d="m 9,3 v 4 h 4 C 13,4.784 11.216,3 9,3 Z"
       id="path57"
       inkscape:connector-curvature="0"
       style="color:#31363b;opacity:0.15;fill:#000000;fill-rule:evenodd" />
  </g>
  <g
     id="background-vertical-bottomright"
     transform="matrix(0.75,0,0,0.75,33.25,18.25)">
    <rect
       transform="matrix(1.3333,0,0,1.3333,-44.333,-24.333)"
       x="40"
       y="31"
       width="4"
       height="4"
       id="rect62"
       style="opacity:0.01000001;fill:#e4e6e8" />
    <path
       class="ColorScheme-Text"
       d="m 9,21 v -4 h 4 c 0,2.216 -1.784,4 -4,4 z"
       id="path64"
       inkscape:connector-curvature="0"
       style="color:#31363b;opacity:0.15;fill:#000000;fill-rule:evenodd" />
  </g>
  <g
     id="background-vertical-left"
     transform="matrix(-0.75,0,0,1,43.75,13)">
    <path
       class="ColorScheme-Text"
       d="m 9,7 v 10 h 4 V 7 Z"
       id="path69"
       inkscape:connector-curvature="0"
       style="color:#31363b;opacity:0.15;fill:#000000;fill-rule:evenodd" />
    <rect
       transform="matrix(-1.3333,0,0,1,58.333,-13)"
       x="33"
       y="20"
       width="1"
       height="10"
       id="rect71"
       style="opacity:0.01000001;fill:#e4e6e8" />
  </g>
  <g
     id="background-vertical-topleft"
     transform="matrix(-0.75,0,0,0.75,43.75,13.75)">
    <rect
       transform="matrix(-1.3333,0,0,1.3333,58.333,-18.333)"
       x="33"
       y="15"
       width="4"
       height="4"
       id="rect76"
       style="opacity:0.01000001;fill:#e4e6e8" />
    <path
       class="ColorScheme-Text"
       d="m 9,3 v 4 h 4 C 13,4.784 11.216,3 9,3 Z"
       id="path78"
       inkscape:connector-curvature="0"
       style="color:#31363b;opacity:0.15;fill:#000000;fill-rule:evenodd" />
  </g>
  <g
     id="background-vertical-bottomleft"
     transform="matrix(-0.75,0,0,0.75,43.75,18.25)">
    <rect
       transform="matrix(-1.3333,0,0,1.3333,58.333,-24.333)"
       x="33"
       y="31"
       width="4"
       height="4"
       id="rect83"
       style="opacity:0.01000001;fill:#e4e6e8" />
    <path
       class="ColorScheme-Text"
       d="m 9,21 v -4 h 4 c 0,2.216 -1.784,4 -4,4 z"
       id="path85"
       inkscape:connector-curvature="0"
       style="color:#31363b;opacity:0.15;fill:#000000;fill-rule:evenodd" />
  </g>
  <g
     id="background-vertical-top"
     transform="matrix(0,-0.75,-0.1,0,39.7,25.75)">
    <rect
       transform="matrix(0,-10,-1.3333,0,34.333,397)"
       x="38"
       y="15"
       width="1"
       height="4"
       id="rect90"
       style="opacity:0.01000001;fill:#e4e6e8" />
    <path
       class="ColorScheme-Text"
       d="m 9,7 v 10 h 4 V 7 Z"
       id="path92"
       inkscape:connector-curvature="0"
       style="color:#31363b;opacity:0.15;fill:#000000;fill-rule:evenodd" />
  </g>
  <g
     id="background-vertical-bottom"
     transform="matrix(0,0.75,-0.1,0,39.7,24.25)">
    <rect
       transform="matrix(0,-10,1.3333,0,-32.333,397)"
       x="38"
       y="31"
       width="1"
       height="4"
       id="rect97"
       style="opacity:0.01000001;fill:#e4e6e8" />
    <path
       class="ColorScheme-Text"
       d="m 9,7 v 10 h 4 V 7 Z"
       id="path99"
       inkscape:connector-curvature="0"
       style="color:#31363b;opacity:0.15;fill:#000000;fill-rule:evenodd" />
  </g>
  <rect
     id="sunken-slider-center"
     class="ColorScheme-ButtonHover"
     x="24"
     y="64"
     width="1"
     height="10"
     style="color:#93cee9;fill:#ffffff;fill-rule:evenodd;opacity:0.75" />
  <g
     id="sunken-slider-right"
     transform="matrix(0.75,0,0,1,19.25,57)">
    <path
       class="ColorScheme-ButtonHover"
       d="m 9,7 v 10 h 4 V 7 Z"
       id="path105"
       inkscape:connector-curvature="0"
       style="color:#93cee9;fill:#ffffff;fill-rule:evenodd;opacity:0.75" />
    <rect
       transform="matrix(1.3333,0,0,1,-25.667,-57)"
       x="29"
       y="64"
       width="1"
       height="10"
       id="rect107"
       style="opacity:0.01000001;fill:#e4e6e8" />
  </g>
  <g
     id="sunken-slider-topright"
     transform="matrix(0.75,0,0,0.75,19.25,57.75)">
    <rect
       transform="matrix(1.3333,0,0,1.3333,-25.667,-77)"
       x="26"
       y="59"
       width="4"
       height="4"
       id="rect110"
       style="opacity:0.01000001;fill:#e4e6e8" />
    <path
       class="ColorScheme-ButtonHover"
       d="m 9,3 v 4 h 4 C 13,4.784 11.216,3 9,3 Z"
       id="path112"
       inkscape:connector-curvature="0"
       style="color:#93cee9;fill:#ffffff;fill-rule:evenodd;opacity:0.75" />
  </g>
  <g
     id="sunken-slider-bottomright"
     transform="matrix(0.75,0,0,0.75,19.25,62.25)">
    <rect
       transform="matrix(1.3333,0,0,1.3333,-25.667,-83)"
       x="26"
       y="75"
       width="4"
       height="4"
       id="rect115"
       style="opacity:0.01000001;fill:#e4e6e8" />
    <path
       class="ColorScheme-ButtonHover"
       d="m 9,21 v -4 h 4 c 0,2.216 -1.784,4 -4,4 z"
       id="path117"
       inkscape:connector-curvature="0"
       style="color:#93cee9;fill:#ffffff;fill-rule:evenodd;opacity:0.75" />
  </g>
  <g
     id="sunken-slider-left"
     transform="matrix(-0.75,0,0,1,29.75,57)">
    <path
       class="ColorScheme-ButtonHover"
       d="m 9,7 v 10 h 4 V 7 Z"
       id="path120"
       inkscape:connector-curvature="0"
       style="color:#93cee9;fill:#ffffff;fill-rule:evenodd;opacity:0.75" />
    <rect
       transform="matrix(-1.3333,0,0,1,39.667,-57)"
       x="19"
       y="64"
       width="1"
       height="10"
       id="rect122"
       style="opacity:0.01000001;fill:#e4e6e8" />
  </g>
  <g
     id="sunken-slider-topleft"
     transform="matrix(-0.75,0,0,0.75,29.75,57.75)">
    <rect
       transform="matrix(-1.3333,0,0,1.3333,39.667,-77)"
       x="19"
       y="59"
       width="4"
       height="4"
       id="rect125"
       style="opacity:0.01000001;fill:#e4e6e8" />
    <path
       class="ColorScheme-ButtonHover"
       d="m 9,3 v 4 h 4 C 13,4.784 11.216,3 9,3 Z"
       id="path127"
       inkscape:connector-curvature="0"
       style="color:#93cee9;fill:#ffffff;fill-rule:evenodd;opacity:0.75" />
  </g>
  <g
     id="sunken-slider-bottomleft"
     transform="matrix(-0.75,0,0,0.75,29.75,62.25)">
    <rect
       transform="matrix(-1.3333,0,0,1.3333,39.667,-83)"
       x="19"
       y="75"
       width="4"
       height="4"
       id="rect130"
       style="opacity:0.01000001;fill:#e4e6e8" />
    <path
       class="ColorScheme-ButtonHover"
       d="m 9,21 v -4 h 4 c 0,2.216 -1.784,4 -4,4 z"
       id="path132"
       inkscape:connector-curvature="0"
       style="color:#93cee9;fill:#ffffff;fill-rule:evenodd;opacity:0.75" />
  </g>
  <g
     id="sunken-slider-top"
     transform="matrix(0,-0.75,-0.1,0,25.7,69.75)">
    <rect
       transform="matrix(0,-10,-1.3333,0,93,257)"
       x="24"
       y="59"
       width="1"
       height="4"
       id="rect135"
       style="opacity:0.01000001;fill:#e4e6e8" />
    <path
       class="ColorScheme-ButtonHover"
       d="m 9,7 v 10 h 4 V 7 Z"
       id="path137"
       inkscape:connector-curvature="0"
       style="color:#93cee9;fill:#ffffff;fill-rule:evenodd;opacity:0.75" />
  </g>
  <g
     id="sunken-slider-bottom"
     transform="matrix(0,0.75,-0.1,0,25.7,68.25)">
    <rect
       transform="matrix(0,-10,1.3333,0,-91,257)"
       x="24"
       y="75"
       width="1"
       height="4"
       id="rect140"
       style="opacity:0.01000001;fill:#e4e6e8" />
    <path
       class="ColorScheme-ButtonHover"
       d="m 9,7 v 10 h 4 V 7 Z"
       id="path142"
       inkscape:connector-curvature="0"
       style="color:#93cee9;fill:#ffffff;fill-rule:evenodd;opacity:0.75" />
  </g>
  <rect
     id="mouseover-slider-center"
     class="ColorScheme-ButtonHover"
     x="24"
     y="42"
     width="1"
     height="10"
     style="color:#93cee9;opacity:0.6;fill:#ffffff;fill-rule:evenodd" />
  <g
     id="mouseover-slider-right"
     transform="matrix(0.75,0,0,1,19.25,35)">
    <path
       class="ColorScheme-ButtonHover"
       d="m 9,7 v 10 h 4 V 7 Z"
       id="path146"
       inkscape:connector-curvature="0"
       style="color:#93cee9;opacity:0.6;fill:#ffffff;fill-rule:evenodd" />
    <rect
       transform="matrix(1.3333,0,0,1,-25.667,-57)"
       x="29"
       y="64"
       width="1"
       height="10"
       id="rect148"
       style="opacity:0.01000001;fill:#e4e6e8" />
  </g>
  <g
     id="mouseover-slider-topright"
     transform="matrix(0.75,0,0,0.75,19.25,35.75)">
    <rect
       transform="matrix(1.3333,0,0,1.3333,-25.667,-77)"
       x="26"
       y="59"
       width="4"
       height="4"
       id="rect151"
       style="opacity:0.01000001;fill:#e4e6e8" />
    <path
       class="ColorScheme-ButtonHover"
       d="m 9,3 v 4 h 4 C 13,4.784 11.216,3 9,3 Z"
       id="path153"
       inkscape:connector-curvature="0"
       style="color:#93cee9;opacity:0.6;fill:#ffffff;fill-rule:evenodd" />
  </g>
  <g
     id="mouseover-slider-bottomright"
     transform="matrix(0.75,0,0,0.75,19.25,40.25)">
    <rect
       transform="matrix(1.3333,0,0,1.3333,-25.667,-83)"
       x="26"
       y="75"
       width="4"
       height="4"
       id="rect156"
       style="opacity:0.01000001;fill:#e4e6e8" />
    <path
       class="ColorScheme-ButtonHover"
       d="m 9,21 v -4 h 4 c 0,2.216 -1.784,4 -4,4 z"
       id="path158"
       inkscape:connector-curvature="0"
       style="color:#93cee9;opacity:0.6;fill:#ffffff;fill-rule:evenodd" />
  </g>
  <g
     id="mouseover-slider-left"
     transform="matrix(-0.75,0,0,1,29.75,35)">
    <path
       class="ColorScheme-ButtonHover"
       d="m 9,7 v 10 h 4 V 7 Z"
       id="path161"
       inkscape:connector-curvature="0"
       style="color:#93cee9;opacity:0.6;fill:#ffffff;fill-rule:evenodd" />
    <rect
       transform="matrix(-1.3333,0,0,1,39.667,-57)"
       x="19"
       y="64"
       width="1"
       height="10"
       id="rect163"
       style="opacity:0.01000001;fill:#e4e6e8" />
  </g>
  <g
     id="mouseover-slider-topleft"
     transform="matrix(-0.75,0,0,0.75,29.75,35.75)">
    <rect
       transform="matrix(-1.3333,0,0,1.3333,39.667,-77)"
       x="19"
       y="59"
       width="4"
       height="4"
       id="rect166"
       style="opacity:0.01000001;fill:#e4e6e8" />
    <path
       class="ColorScheme-ButtonHover"
       d="m 9,3 v 4 h 4 C 13,4.784 11.216,3 9,3 Z"
       id="path168"
       inkscape:connector-curvature="0"
       style="color:#93cee9;opacity:0.6;fill:#ffffff;fill-rule:evenodd" />
  </g>
  <g
     id="mouseover-slider-bottomleft"
     transform="matrix(-0.75,0,0,0.75,29.75,40.25)">
    <rect
       transform="matrix(-1.3333,0,0,1.3333,39.667,-83)"
       x="19"
       y="75"
       width="4"
       height="4"
       id="rect171"
       style="opacity:0.01000001;fill:#e4e6e8" />
    <path
       class="ColorScheme-ButtonHover"
       d="m 9,21 v -4 h 4 c 0,2.216 -1.784,4 -4,4 z"
       id="path173"
       inkscape:connector-curvature="0"
       style="color:#93cee9;opacity:0.6;fill:#ffffff;fill-rule:evenodd" />
  </g>
  <g
     id="mouseover-slider-top"
     transform="matrix(0,-0.75,-0.1,0,25.7,47.75)">
    <rect
       transform="matrix(0,-10,-1.3333,0,93,257)"
       x="24"
       y="59"
       width="1"
       height="4"
       id="rect176"
       style="opacity:0.01000001;fill:#e4e6e8" />
    <path
       class="ColorScheme-ButtonHover"
       d="m 9,7 v 10 h 4 V 7 Z"
       id="path178"
       inkscape:connector-curvature="0"
       style="color:#93cee9;opacity:0.6;fill:#ffffff;fill-rule:evenodd" />
  </g>
  <g
     id="mouseover-slider-bottom"
     transform="matrix(0,0.75,-0.1,0,25.7,46.25)">
    <rect
       transform="matrix(0,-10,1.3333,0,-91,257)"
       x="24"
       y="75"
       width="1"
       height="4"
       id="rect181"
       style="opacity:0.01000001;fill:#e4e6e8" />
    <path
       class="ColorScheme-ButtonHover"
       d="m 9,7 v 10 h 4 V 7 Z"
       id="path183"
       inkscape:connector-curvature="0"
       style="color:#93cee9;opacity:0.6;fill:#ffffff;fill-rule:evenodd" />
  </g>
  <g
     id="background-vertical-center"
     style="fill-rule:evenodd">
    <rect
       class="ColorScheme-Text"
       x="38"
       y="20"
       width="1"
       height="10"
       id="rect186"
       style="color:#31363b;opacity:0.15;fill:#000000" />
  </g>
  <g
     id="background-horizontal-right"
     transform="matrix(0.75,0,0,1,33.25,35)">
    <path
       class="ColorScheme-Text"
       d="m 9,7 v 10 h 4 V 7 Z"
       id="path191"
       inkscape:connector-curvature="0"
       style="color:#31363b;opacity:0.15;fill:#000000;fill-rule:evenodd" />
    <rect
       transform="matrix(1.3333,0,0,1,-44.333,-13)"
       x="43"
       y="20"
       width="1"
       height="10"
       id="rect193"
       style="opacity:0.01000001;fill:#e4e6e8" />
  </g>
  <g
     id="background-horizontal-topright"
     transform="matrix(0.75,0,0,0.75,33.25,35.75)">
    <rect
       transform="matrix(1.3333,0,0,1.3333,-44.333,-18.333)"
       x="40"
       y="15"
       width="4"
       height="4"
       id="rect198"
       style="opacity:0.01000001;fill:#e4e6e8" />
    <path
       class="ColorScheme-Text"
       d="m 9,3 v 4 h 4 C 13,4.784 11.216,3 9,3 Z"
       id="path200"
       inkscape:connector-curvature="0"
       style="color:#31363b;opacity:0.15;fill:#000000;fill-rule:evenodd" />
  </g>
  <g
     id="background-horizontal-bottomright"
     transform="matrix(0.75,0,0,0.75,33.25,40.25)">
    <rect
       transform="matrix(1.3333,0,0,1.3333,-44.333,-24.333)"
       x="40"
       y="31"
       width="4"
       height="4"
       id="rect205"
       style="opacity:0.01000001;fill:#e4e6e8" />
    <path
       class="ColorScheme-Text"
       d="m 9,21 v -4 h 4 c 0,2.216 -1.784,4 -4,4 z"
       id="path207"
       inkscape:connector-curvature="0"
       style="color:#31363b;opacity:0.15;fill:#000000;fill-rule:evenodd" />
  </g>
  <g
     id="background-horizontal-left"
     transform="matrix(-0.75,0,0,1,43.75,35)">
    <path
       class="ColorScheme-Text"
       d="m 9,7 v 10 h 4 V 7 Z"
       id="path212"
       inkscape:connector-curvature="0"
       style="color:#31363b;opacity:0.15;fill:#000000;fill-rule:evenodd" />
    <rect
       transform="matrix(-1.3333,0,0,1,58.333,-13)"
       x="33"
       y="20"
       width="1"
       height="10"
       id="rect214"
       style="opacity:0.01000001;fill:#e4e6e8" />
  </g>
  <g
     id="background-horizontal-topleft"
     transform="matrix(-0.75,0,0,0.75,43.75,35.75)">
    <rect
       transform="matrix(-1.3333,0,0,1.3333,58.333,-18.333)"
       x="33"
       y="15"
       width="4"
       height="4"
       id="rect219"
       style="opacity:0.01000001;fill:#e4e6e8" />
    <path
       class="ColorScheme-Text"
       d="m 9,3 v 4 h 4 C 13,4.784 11.216,3 9,3 Z"
       id="path221"
       inkscape:connector-curvature="0"
       style="color:#31363b;opacity:0.15;fill:#000000;fill-rule:evenodd" />
  </g>
  <g
     id="background-horizontal-bottomleft"
     transform="matrix(-0.75,0,0,0.75,43.75,40.25)">
    <rect
       transform="matrix(-1.3333,0,0,1.3333,58.333,-24.333)"
       x="33"
       y="31"
       width="4"
       height="4"
       id="rect226"
       style="opacity:0.01000001;fill:#e4e6e8" />
    <path
       class="ColorScheme-Text"
       d="m 9,21 v -4 h 4 c 0,2.216 -1.784,4 -4,4 z"
       id="path228"
       inkscape:connector-curvature="0"
       style="color:#31363b;opacity:0.15;fill:#000000;fill-rule:evenodd" />
  </g>
  <g
     id="background-horizontal-top"
     transform="matrix(0,-0.75,-0.1,0,39.7,47.75)">
    <rect
       transform="matrix(0,-10,-1.3333,0,34.333,397)"
       x="38"
       y="15"
       width="1"
       height="4"
       id="rect233"
       style="opacity:0.01000001;fill:#e4e6e8" />
    <path
       class="ColorScheme-Text"
       d="m 9,7 v 10 h 4 V 7 Z"
       id="path235"
       inkscape:connector-curvature="0"
       style="color:#31363b;opacity:0.15;fill:#000000;fill-rule:evenodd" />
  </g>
  <g
     id="background-horizontal-bottom"
     transform="matrix(0,0.75,-0.1,0,39.7,46.25)">
    <rect
       transform="matrix(0,-10,1.3333,0,-32.333,397)"
       x="38"
       y="31"
       width="1"
       height="4"
       id="rect240"
       style="opacity:0.01000001;fill:#e4e6e8" />
    <path
       class="ColorScheme-Text"
       d="m 9,7 v 10 h 4 V 7 Z"
       id="path242"
       inkscape:connector-curvature="0"
       style="color:#31363b;opacity:0.15;fill:#000000;fill-rule:evenodd" />
  </g>
  <g
     id="background-horizontal-center"
     transform="translate(9.35e-7,22)"
     style="fill-rule:evenodd">
    <rect
       class="ColorScheme-Text"
       x="38"
       y="20"
       width="1"
       height="10"
       id="rect247"
       style="color:#31363b;opacity:0.15;fill:#000000" />
  </g>
</svg>
