<?xml version="1.0" encoding="UTF-8" standalone="no"?>
<!-- Created with Inkscape (http://www.inkscape.org/) -->

<svg
   xmlns:dc="http://purl.org/dc/elements/1.1/"
   xmlns:cc="http://creativecommons.org/ns#"
   xmlns:rdf="http://www.w3.org/1999/02/22-rdf-syntax-ns#"
   xmlns:svg="http://www.w3.org/2000/svg"
   xmlns="http://www.w3.org/2000/svg"
   xmlns:sodipodi="http://sodipodi.sourceforge.net/DTD/sodipodi-0.dtd"
   xmlns:inkscape="http://www.inkscape.org/namespaces/inkscape"
   width="210.95885mm"
   height="65.170769mm"
   viewBox="0 0 747.49199 230.92005"
   id="svg4313"
   version="1.1"
   inkscape:version="0.91 r13725"
   sodipodi:docname="gesture-2fg-ambiguity.svg">
  <defs
     id="defs4315">
    <marker
       inkscape:stockid="Arrow2Lend"
       orient="auto"
       refY="0"
       refX="0"
       id="Arrow2Lend"
       style="overflow:visible"
       inkscape:isstock="true">
      <path
         id="path4506"
         style="fill:#000000;fill-opacity:1;fill-rule:evenodd;stroke:#000000;stroke-width:0.625;stroke-linejoin:round;stroke-opacity:1"
         d="M 8.7185878,4.0337352 -2.2072895,0.01601326 8.7185884,-4.0017078 c -1.7454984,2.3720609 -1.7354408,5.6174519 -6e-7,8.035443 z"
         transform="matrix(-1.1,0,0,-1.1,-1.1,0)"
         inkscape:connector-curvature="0" />
    </marker>
    <marker
       inkscape:stockid="Arrow1Mend"
       orient="auto"
       refY="0"
       refX="0"
       id="Arrow1Mend"
       style="overflow:visible"
       inkscape:isstock="true">
      <path
         id="path4494"
         d="M 0,0 5,-5 -12.5,0 5,5 0,0 Z"
         style="fill-rule:evenodd;stroke:#000000;stroke-width:1pt"
         transform="matrix(-0.4,0,0,-0.4,-4,0)"
         inkscape:connector-curvature="0" />
    </marker>
    <marker
       inkscape:stockid="Arrow1Mstart"
       orient="auto"
       refY="0"
       refX="0"
       id="Arrow1Mstart"
       style="overflow:visible"
       inkscape:isstock="true">
      <path
         id="path4491"
         d="M 0,0 5,-5 -12.5,0 5,5 0,0 Z"
         style="fill-rule:evenodd;stroke:#000000;stroke-width:1pt"
         transform="matrix(0.4,0,0,0.4,4,0)"
         inkscape:connector-curvature="0" />
    </marker>
    <marker
       inkscape:stockid="Arrow2Lend"
       orient="auto"
       refY="0"
       refX="0"
       id="marker7694"
       style="overflow:visible"
       inkscape:isstock="true">
      <path
         inkscape:connector-curvature="0"
         id="path7696"
         style="fill:#000000;fill-opacity:1;fill-rule:evenodd;stroke:#000000;stroke-width:0.625;stroke-linejoin:round;stroke-opacity:1"
         d="M 8.7185878,4.0337352 -2.2072895,0.01601326 8.7185884,-4.0017078 c -1.7454984,2.3720609 -1.7354408,5.6174519 -6e-7,8.035443 z"
         transform="matrix(-1.1,0,0,-1.1,-1.1,0)" />
    </marker>
    <marker
       inkscape:stockid="Arrow1Mend"
       orient="auto"
       refY="0"
       refX="0"
       id="marker7562"
       style="overflow:visible"
       inkscape:isstock="true">
      <path
         id="path7564"
         d="M 0,0 5,-5 -12.5,0 5,5 0,0 Z"
         style="fill:#000000;fill-opacity:1;fill-rule:evenodd;stroke:#000000;stroke-width:1pt;stroke-opacity:1"
         transform="matrix(-0.4,0,0,-0.4,-4,0)"
         inkscape:connector-curvature="0" />
    </marker>
    <marker
       inkscape:stockid="Arrow2Lstart"
       orient="auto"
       refY="0"
       refX="0"
       id="Arrow2Lstart"
       style="overflow:visible"
       inkscape:isstock="true">
      <path
         id="path4995"
         style="fill:#000000;fill-opacity:1;fill-rule:evenodd;stroke:#000000;stroke-width:0.625;stroke-linejoin:round;stroke-opacity:1"
         d="M 8.7185878,4.0337352 -2.2072895,0.01601326 8.7185884,-4.0017078 c -1.7454984,2.3720609 -1.7354408,5.6174519 -6e-7,8.035443 z"
         transform="matrix(1.1,0,0,1.1,1.1,0)"
         inkscape:connector-curvature="0" />
    </marker>
    <marker
       inkscape:isstock="true"
       style="overflow:visible"
       id="marker7356"
       refX="0"
       refY="0"
       orient="auto"
       inkscape:stockid="Arrow1Mstart">
      <path
         transform="matrix(0.4,0,0,0.4,4,0)"
         style="fill:#000000;fill-opacity:1;fill-rule:evenodd;stroke:#000000;stroke-width:1pt;stroke-opacity:1"
         d="M 0,0 5,-5 -12.5,0 5,5 0,0 Z"
         id="path7358"
         inkscape:connector-curvature="0" />
    </marker>
    <marker
       inkscape:stockid="Arrow1Send"
       orient="auto"
       refY="0"
       refX="0"
       id="Arrow1Send"
       style="overflow:visible"
       inkscape:isstock="true">
      <path
         id="path4992"
         d="M 0,0 5,-5 -12.5,0 5,5 0,0 Z"
         style="fill:#000000;fill-opacity:1;fill-rule:evenodd;stroke:#000000;stroke-width:1pt;stroke-opacity:1"
         transform="matrix(-0.2,0,0,-0.2,-1.2,0)"
         inkscape:connector-curvature="0" />
    </marker>
    <marker
       inkscape:stockid="Arrow2Sstart"
       orient="auto"
       refY="0"
       refX="0"
       id="Arrow2Sstart"
       style="overflow:visible"
       inkscape:isstock="true">
      <path
         id="path5007"
         style="fill:#000000;fill-opacity:1;fill-rule:evenodd;stroke:#000000;stroke-width:0.625;stroke-linejoin:round;stroke-opacity:1"
         d="M 8.7185878,4.0337352 -2.2072895,0.01601326 8.7185884,-4.0017078 c -1.7454984,2.3720609 -1.7354408,5.6174519 -6e-7,8.035443 z"
         transform="matrix(0.3,0,0,0.3,-0.69,0)"
         inkscape:connector-curvature="0" />
    </marker>
    <marker
       inkscape:isstock="true"
       style="overflow:visible"
       id="marker6499"
       refX="0"
       refY="0"
       orient="auto"
       inkscape:stockid="Arrow2Lstart">
      <path
         transform="matrix(1.1,0,0,1.1,1.1,0)"
         d="M 8.7185878,4.0337352 -2.2072895,0.01601326 8.7185884,-4.0017078 c -1.7454984,2.3720609 -1.7354408,5.6174519 -6e-7,8.035443 z"
         style="fill:#000000;fill-opacity:1;fill-rule:evenodd;stroke:#000000;stroke-width:0.625;stroke-linejoin:round;stroke-opacity:1"
         id="path6501"
         inkscape:connector-curvature="0" />
    </marker>
    <marker
       inkscape:stockid="Arrow1Lstart"
       orient="auto"
       refY="0"
       refX="0"
       id="marker5837"
       style="overflow:visible"
       inkscape:isstock="true">
      <path
         id="path5839"
         d="M 0,0 5,-5 -12.5,0 5,5 0,0 Z"
         style="fill:#000000;fill-opacity:1;fill-rule:evenodd;stroke:#000000;stroke-width:1pt;stroke-opacity:1"
         transform="matrix(0.8,0,0,0.8,10,0)"
         inkscape:connector-curvature="0" />
    </marker>
    <marker
       inkscape:isstock="true"
       style="overflow:visible"
       id="marker5365"
       refX="0"
       refY="0"
       orient="auto"
       inkscape:stockid="Arrow2Lend">
      <path
         transform="matrix(-1.1,0,0,-1.1,-1.1,0)"
         d="M 8.7185878,4.0337352 -2.2072895,0.01601326 8.7185884,-4.0017078 c -1.7454984,2.3720609 -1.7354408,5.6174519 -6e-7,8.035443 z"
         style="fill:#000000;fill-opacity:1;fill-rule:evenodd;stroke:#000000;stroke-width:0.625;stroke-linejoin:round;stroke-opacity:1"
         id="path5367"
         inkscape:connector-curvature="0" />
    </marker>
    <marker
       inkscape:stockid="Arrow1Lend"
       orient="auto"
       refY="0"
       refX="0"
       id="marker5291"
       style="overflow:visible"
       inkscape:isstock="true">
      <path
         id="path5293"
         d="M 0,0 5,-5 -12.5,0 5,5 0,0 Z"
         style="fill:#000000;fill-opacity:1;fill-rule:evenodd;stroke:#000000;stroke-width:1pt;stroke-opacity:1"
         transform="matrix(-0.8,0,0,-0.8,-10,0)"
         inkscape:connector-curvature="0" />
    </marker>
    <marker
       inkscape:stockid="Arrow1Lend"
       orient="auto"
       refY="0"
       refX="0"
       id="Arrow1Lend"
       style="overflow:visible"
       inkscape:isstock="true">
      <path
         id="path4980"
         d="M 0,0 5,-5 -12.5,0 5,5 0,0 Z"
         style="fill:#000000;fill-opacity:1;fill-rule:evenodd;stroke:#000000;stroke-width:1pt;stroke-opacity:1"
         transform="matrix(-0.8,0,0,-0.8,-10,0)"
         inkscape:connector-curvature="0" />
    </marker>
    <marker
       inkscape:stockid="Arrow1Lstart"
       orient="auto"
       refY="0"
       refX="0"
       id="Arrow1Lstart"
       style="overflow:visible"
       inkscape:isstock="true">
      <path
         id="path4977"
         d="M 0,0 5,-5 -12.5,0 5,5 0,0 Z"
         style="fill:#000000;fill-opacity:1;fill-rule:evenodd;stroke:#000000;stroke-width:1pt;stroke-opacity:1"
         transform="matrix(0.8,0,0,0.8,10,0)"
         inkscape:connector-curvature="0" />
    </marker>
  </defs>
  <sodipodi:namedview
     id="base"
     pagecolor="#ffffff"
     bordercolor="#666666"
     borderopacity="1.0"
     inkscape:pageopacity="0.0"
     inkscape:pageshadow="2"
     inkscape:zoom="1.8735525"
     inkscape:cx="423.84385"
     inkscape:cy="193.39486"
     inkscape:document-units="px"
     inkscape:current-layer="layer1"
     showgrid="false"
     inkscape:window-width="1920"
     inkscape:window-height="1136"
     inkscape:window-x="0"
     inkscape:window-y="27"
     inkscape:window-maximized="1"
     fit-margin-top="0"
     fit-margin-left="0"
     fit-margin-right="0"
     fit-margin-bottom="0" />
  <metadata
     id="metadata4318">
    <rdf:RDF>
      <cc:Work
         rdf:about="">
        <dc:format>image/svg+xml</dc:format>
        <dc:type
           rdf:resource="http://purl.org/dc/dcmitype/StillImage" />
        <dc:title></dc:title>
      </cc:Work>
    </rdf:RDF>
  </metadata>
  <g
     inkscape:label="Layer 1"
     inkscape:groupmode="layer"
     id="layer1"
     transform="translate(-1.110285,-124.21518)">
    <rect
       style="color:#000000;display:inline;overflow:visible;visibility:visible;fill:#b3b3b3;fill-opacity:1;fill-rule:nonzero;stroke:#000000;stroke-width:5.76355982;stroke-miterlimit:4;stroke-dasharray:none;stroke-opacity:1;marker:none;enable-background:accumulate"
       id="rect2858-0"
       y="127.09696"
       x="3.992065"
       height="209.27208"
       width="309.33386" />
    <g
       id="g4897"
       transform="matrix(0.64785166,-0.12161418,0.12161418,0.64785166,-136.33634,-258.03322)">
      <path
         inkscape:connector-curvature="0"
         style="fill:none;stroke:#000000;stroke-width:1px;stroke-linecap:butt;stroke-linejoin:miter;stroke-opacity:1"
         id="path4899"
         d="m 388.57143,893.79076 -57.14285,-130 c 0,0 -30.0247,-58.84827 4.28571,-70.00001 27.07438,-8.79984 37.32196,9.59496 40,14.64286 27.54455,51.91936 84.64285,173.21429 84.64285,173.21429 l -0.71428,0 -71.07143,12.14286 z" />
      <path
         inkscape:connector-curvature="0"
         style="color:#000000;display:inline;overflow:visible;visibility:visible;fill:#ffccaa;fill-opacity:1;fill-rule:nonzero;stroke:#000000;stroke-width:0.002;stroke-miterlimit:4;stroke-dasharray:none;stroke-opacity:1;marker:none;enable-background:accumulate"
         id="path4901"
         d="m 360.32021,827.78041 c -15.74169,-35.7991 -29.44655,-66.92657 -30.45523,-69.17214 -7.08929,-15.78239 -10.8761,-32.88254 -9.6176,-43.43026 1.39575,-11.69796 7.19746,-18.50389 18.22574,-21.38044 5.18218,-1.35169 8.54724,-1.76827 12.41155,-1.53649 4.43642,0.26609 6.95929,0.93715 11.03011,2.93391 3.93491,1.9301 8.0085,5.56248 10.68932,9.53159 3.68818,5.46055 26.56068,50.9623 49.57778,98.62829 16.60192,34.38082 37.06388,77.41994 36.89013,77.59369 -0.13286,0.13286 -69.01932,11.92114 -69.66286,11.92114 -0.27909,0 -12.00972,-26.24842 -29.08894,-65.08929 z" />
      <path
         inkscape:connector-curvature="0"
         style="color:#000000;display:inline;overflow:visible;visibility:visible;opacity:0.92000002;fill:#ffe6d5;fill-opacity:1;fill-rule:nonzero;stroke:none;stroke-width:0.2;marker:none;enable-background:accumulate"
         id="path4903"
         d="m 334.75785,756.75053 c -7.08929,-15.78239 -10.28437,-26.89033 -9.02587,-37.43805 1.39575,-11.69796 5.8085,-16.73613 16.83678,-19.61268 12.44766,-3.59459 20.03902,-1.91353 27.39013,8.75815 11.42622,25.66382 13.40166,29.05484 15.06365,35.48866 -0.13286,0.13286 -42.89663,15.49027 -44.57776,16.18518 -1.72922,0.71479 -4.94789,-2.09377 -5.68693,-3.38126 z" />
    </g>
    <g
       transform="matrix(0.64785166,-0.12161418,0.12161418,0.64785166,-167.25783,-222.59332)"
       id="g5039">
      <path
         d="m 388.57143,893.79076 -57.14285,-130 c 0,0 -30.0247,-58.84827 4.28571,-70.00001 27.07438,-8.79984 37.32196,9.59496 40,14.64286 27.54455,51.91936 84.64285,173.21429 84.64285,173.21429 l -0.71428,0 -71.07143,12.14286 z"
         id="path5041"
         style="fill:none;stroke:#000000;stroke-width:1px;stroke-linecap:butt;stroke-linejoin:miter;stroke-opacity:1"
         inkscape:connector-curvature="0" />
      <path
         d="m 360.32021,827.78041 c -15.74169,-35.7991 -29.44655,-66.92657 -30.45523,-69.17214 -7.08929,-15.78239 -10.8761,-32.88254 -9.6176,-43.43026 1.39575,-11.69796 7.19746,-18.50389 18.22574,-21.38044 5.18218,-1.35169 8.54724,-1.76827 12.41155,-1.53649 4.43642,0.26609 6.95929,0.93715 11.03011,2.93391 3.93491,1.9301 8.0085,5.56248 10.68932,9.53159 3.68818,5.46055 26.56068,50.9623 49.57778,98.62829 16.60192,34.38082 37.06388,77.41994 36.89013,77.59369 -0.13286,0.13286 -69.01932,11.92114 -69.66286,11.92114 -0.27909,0 -12.00972,-26.24842 -29.08894,-65.08929 z"
         id="path5043"
         style="color:#000000;display:inline;overflow:visible;visibility:visible;fill:#ffccaa;fill-opacity:1;fill-rule:nonzero;stroke:#000000;stroke-width:0.002;stroke-miterlimit:4;stroke-dasharray:none;stroke-opacity:1;marker:none;enable-background:accumulate"
         inkscape:connector-curvature="0" />
      <path
         d="m 334.75785,756.75053 c -7.08929,-15.78239 -10.28437,-26.89033 -9.02587,-37.43805 1.39575,-11.69796 5.8085,-16.73613 16.83678,-19.61268 12.44766,-3.59459 20.03902,-1.91353 27.39013,8.75815 11.42622,25.66382 13.40166,29.05484 15.06365,35.48866 -0.13286,0.13286 -42.89663,15.49027 -44.57776,16.18518 -1.72922,0.71479 -4.94789,-2.09377 -5.68693,-3.38126 z"
         id="path5045"
         style="color:#000000;display:inline;overflow:visible;visibility:visible;opacity:0.92000002;fill:#ffe6d5;fill-opacity:1;fill-rule:nonzero;stroke:none;stroke-width:0.2;marker:none;enable-background:accumulate"
         inkscape:connector-curvature="0" />
    </g>
    <g
       id="g7665"
       transform="matrix(0.98639446,-0.16439576,0.16439576,0.98639446,-43.838837,-4.728819)">
      <path
         sodipodi:nodetypes="sszzzcss"
         d="m 136.26948,381.29633 c -24.01774,-7.29937 -29.0012,-10.10221 -30.51977,-10.54973 -10.672936,-3.14527 -18.270506,-5.54063 -23.777576,-13.4704 -5.50707,-7.92977 -5.34967,-20.78347 8.87612,-26.31603 14.225796,-5.53258 39.343506,8.79596 60.130606,16.16341 20.7871,7.36743 33.04562,11.44544 39.33421,13.8755 -8.10021,18.05041 -7.22128,21.15857 -10.11054,33.34117 -0.0481,0.20261 -17.87458,-5.12433 -43.93305,-13.04392 z"
         id="path2824-1-1-3"
         style="color:#000000;display:inline;overflow:visible;visibility:visible;fill:#ffccaa;fill-opacity:1;fill-rule:nonzero;stroke:#000000;stroke-width:1.00100005;stroke-miterlimit:4;stroke-dasharray:none;stroke-opacity:1;marker:none;enable-background:accumulate"
         inkscape:connector-curvature="0" />
      <path
         sodipodi:nodetypes="ccccc"
         d="m 107.01743,369.53232 c -10.672936,-1.94747 -17.884406,-5.64477 -21.626906,-8.75386 -8.11652,-9.03765 -6.31775,-15.03428 -3.3272,-13.99784 8.90495,-0.9097 30.203836,9.01528 33.860416,10.17935 -5.80268,11.37909 -1.08919,13.70271 -8.90631,12.57235 z"
         id="path2824-7-1-4-3"
         style="color:#000000;display:inline;overflow:visible;visibility:visible;opacity:0.92000002;fill:#ffe6d5;fill-opacity:1;fill-rule:nonzero;stroke:none;stroke-width:0.2;marker:none;enable-background:accumulate"
         inkscape:connector-curvature="0" />
    </g>
    <g
       id="g9940"
       transform="matrix(0.64785166,-0.12161418,0.12161418,0.64785166,-167.25783,-222.59332)">
      <path
         inkscape:connector-curvature="0"
         style="fill:none;stroke:#000000;stroke-width:1px;stroke-linecap:butt;stroke-linejoin:miter;stroke-opacity:1"
         id="path9942"
         d="m 388.57143,893.79076 -57.14285,-130 c 0,0 -30.0247,-58.84827 4.28571,-70.00001 27.07438,-8.79984 37.32196,9.59496 40,14.64286 27.54455,51.91936 84.64285,173.21429 84.64285,173.21429 l -0.71428,0 -71.07143,12.14286 z" />
      <path
         inkscape:connector-curvature="0"
         style="color:#000000;display:inline;overflow:visible;visibility:visible;fill:#ffccaa;fill-opacity:1;fill-rule:nonzero;stroke:#000000;stroke-width:0.002;stroke-miterlimit:4;stroke-dasharray:none;stroke-opacity:1;marker:none;enable-background:accumulate"
         id="path9944"
         d="m 360.32021,827.78041 c -15.74169,-35.7991 -29.44655,-66.92657 -30.45523,-69.17214 -7.08929,-15.78239 -10.8761,-32.88254 -9.6176,-43.43026 1.39575,-11.69796 7.19746,-18.50389 18.22574,-21.38044 5.18218,-1.35169 8.54724,-1.76827 12.41155,-1.53649 4.43642,0.26609 6.95929,0.93715 11.03011,2.93391 3.93491,1.9301 8.0085,5.56248 10.68932,9.53159 3.68818,5.46055 26.56068,50.9623 49.57778,98.62829 16.60192,34.38082 37.06388,77.41994 36.89013,77.59369 -0.13286,0.13286 -69.01932,11.92114 -69.66286,11.92114 -0.27909,0 -12.00972,-26.24842 -29.08894,-65.08929 z" />
      <path
         inkscape:connector-curvature="0"
         style="color:#000000;display:inline;overflow:visible;visibility:visible;opacity:0.92000002;fill:#ffe6d5;fill-opacity:1;fill-rule:nonzero;stroke:none;stroke-width:0.2;marker:none;enable-background:accumulate"
         id="path9946"
         d="m 334.75785,756.75053 c -7.08929,-15.78239 -10.28437,-26.89033 -9.02587,-37.43805 1.39575,-11.69796 5.8085,-16.73613 16.83678,-19.61268 12.44766,-3.59459 20.03902,-1.91353 27.39013,8.75815 11.42622,25.66382 13.40166,29.05484 15.06365,35.48866 -0.13286,0.13286 -42.89663,15.49027 -44.57776,16.18518 -1.72922,0.71479 -4.94789,-2.09377 -5.68693,-3.38126 z" />
    </g>
    <rect
       width="309.33386"
       height="209.27208"
       x="423.99207"
       y="127.09696"
       id="rect9948"
       style="color:#000000;display:inline;overflow:visible;visibility:visible;fill:#b3b3b3;fill-opacity:1;fill-rule:nonzero;stroke:#000000;stroke-width:5.76355982;stroke-miterlimit:4;stroke-dasharray:none;stroke-opacity:1;marker:none;enable-background:accumulate" />
    <g
       transform="matrix(0.64785166,-0.12161418,0.12161418,0.64785166,283.66366,-258.03322)"
       id="g9950">
      <path
         d="m 388.57143,893.79076 -57.14285,-130 c 0,0 -30.0247,-58.84827 4.28571,-70.00001 27.07438,-8.79984 37.32196,9.59496 40,14.64286 27.54455,51.91936 84.64285,173.21429 84.64285,173.21429 l -0.71428,0 -71.07143,12.14286 z"
         id="path9952"
         style="fill:none;stroke:#000000;stroke-width:1px;stroke-linecap:butt;stroke-linejoin:miter;stroke-opacity:1"
         inkscape:connector-curvature="0" />
      <path
         d="m 360.32021,827.78041 c -15.74169,-35.7991 -29.44655,-66.92657 -30.45523,-69.17214 -7.08929,-15.78239 -10.8761,-32.88254 -9.6176,-43.43026 1.39575,-11.69796 7.19746,-18.50389 18.22574,-21.38044 5.18218,-1.35169 8.54724,-1.76827 12.41155,-1.53649 4.43642,0.26609 6.95929,0.93715 11.03011,2.93391 3.93491,1.9301 8.0085,5.56248 10.68932,9.53159 3.68818,5.46055 26.56068,50.9623 49.57778,98.62829 16.60192,34.38082 37.06388,77.41994 36.89013,77.59369 -0.13286,0.13286 -69.01932,11.92114 -69.66286,11.92114 -0.27909,0 -12.00972,-26.24842 -29.08894,-65.08929 z"
         id="path9954"
         style="color:#000000;display:inline;overflow:visible;visibility:visible;fill:#ffccaa;fill-opacity:1;fill-rule:nonzero;stroke:#000000;stroke-width:0.002;stroke-miterlimit:4;stroke-dasharray:none;stroke-opacity:1;marker:none;enable-background:accumulate"
         inkscape:connector-curvature="0" />
      <path
         d="m 334.75785,756.75053 c -7.08929,-15.78239 -10.28437,-26.89033 -9.02587,-37.43805 1.39575,-11.69796 5.8085,-16.73613 16.83678,-19.61268 12.44766,-3.59459 20.03902,-1.91353 27.39013,8.75815 11.42622,25.66382 13.40166,29.05484 15.06365,35.48866 -0.13286,0.13286 -42.89663,15.49027 -44.57776,16.18518 -1.72922,0.71479 -4.94789,-2.09377 -5.68693,-3.38126 z"
         id="path9956"
         style="color:#000000;display:inline;overflow:visible;visibility:visible;opacity:0.92000002;fill:#ffe6d5;fill-opacity:1;fill-rule:nonzero;stroke:none;stroke-width:0.2;marker:none;enable-background:accumulate"
         inkscape:connector-curvature="0" />
    </g>
    <g
       id="g9958"
       transform="matrix(0.64785166,-0.12161418,0.12161418,0.64785166,252.74217,-222.59332)">
      <path
         inkscape:connector-curvature="0"
         style="fill:none;stroke:#000000;stroke-width:1px;stroke-linecap:butt;stroke-linejoin:miter;stroke-opacity:1"
         id="path9960"
         d="m 388.57143,893.79076 -57.14285,-130 c 0,0 -30.0247,-58.84827 4.28571,-70.00001 27.07438,-8.79984 37.32196,9.59496 40,14.64286 27.54455,51.91936 84.64285,173.21429 84.64285,173.21429 l -0.71428,0 -71.07143,12.14286 z" />
      <path
         inkscape:connector-curvature="0"
         style="color:#000000;display:inline;overflow:visible;visibility:visible;fill:#ffccaa;fill-opacity:1;fill-rule:nonzero;stroke:#000000;stroke-width:0.002;stroke-miterlimit:4;stroke-dasharray:none;stroke-opacity:1;marker:none;enable-background:accumulate"
         id="path9962"
         d="m 360.32021,827.78041 c -15.74169,-35.7991 -29.44655,-66.92657 -30.45523,-69.17214 -7.08929,-15.78239 -10.8761,-32.88254 -9.6176,-43.43026 1.39575,-11.69796 7.19746,-18.50389 18.22574,-21.38044 5.18218,-1.35169 8.54724,-1.76827 12.41155,-1.53649 4.43642,0.26609 6.95929,0.93715 11.03011,2.93391 3.93491,1.9301 8.0085,5.56248 10.68932,9.53159 3.68818,5.46055 26.56068,50.9623 49.57778,98.62829 16.60192,34.38082 37.06388,77.41994 36.89013,77.59369 -0.13286,0.13286 -69.01932,11.92114 -69.66286,11.92114 -0.27909,0 -12.00972,-26.24842 -29.08894,-65.08929 z" />
      <path
         inkscape:connector-curvature="0"
         style="color:#000000;display:inline;overflow:visible;visibility:visible;opacity:0.92000002;fill:#ffe6d5;fill-opacity:1;fill-rule:nonzero;stroke:none;stroke-width:0.2;marker:none;enable-background:accumulate"
         id="path9964"
         d="m 334.75785,756.75053 c -7.08929,-15.78239 -10.28437,-26.89033 -9.02587,-37.43805 1.39575,-11.69796 5.8085,-16.73613 16.83678,-19.61268 12.44766,-3.59459 20.03902,-1.91353 27.39013,8.75815 11.42622,25.66382 13.40166,29.05484 15.06365,35.48866 -0.13286,0.13286 -42.89663,15.49027 -44.57776,16.18518 -1.72922,0.71479 -4.94789,-2.09377 -5.68693,-3.38126 z" />
    </g>
    <g
       transform="matrix(0.64785166,-0.12161418,0.12161418,0.64785166,252.74217,-222.59332)"
       id="g9972">
      <path
         d="m 388.57143,893.79076 -57.14285,-130 c 0,0 -30.0247,-58.84827 4.28571,-70.00001 27.07438,-8.79984 37.32196,9.59496 40,14.64286 27.54455,51.91936 84.64285,173.21429 84.64285,173.21429 l -0.71428,0 -71.07143,12.14286 z"
         id="path9974"
         style="fill:none;stroke:#000000;stroke-width:1px;stroke-linecap:butt;stroke-linejoin:miter;stroke-opacity:1"
         inkscape:connector-curvature="0" />
      <path
         d="m 360.32021,827.78041 c -15.74169,-35.7991 -29.44655,-66.92657 -30.45523,-69.17214 -7.08929,-15.78239 -10.8761,-32.88254 -9.6176,-43.43026 1.39575,-11.69796 7.19746,-18.50389 18.22574,-21.38044 5.18218,-1.35169 8.54724,-1.76827 12.41155,-1.53649 4.43642,0.26609 6.95929,0.93715 11.03011,2.93391 3.93491,1.9301 8.0085,5.56248 10.68932,9.53159 3.68818,5.46055 26.56068,50.9623 49.57778,98.62829 16.60192,34.38082 37.06388,77.41994 36.89013,77.59369 -0.13286,0.13286 -69.01932,11.92114 -69.66286,11.92114 -0.27909,0 -12.00972,-26.24842 -29.08894,-65.08929 z"
         id="path9976"
         style="color:#000000;display:inline;overflow:visible;visibility:visible;fill:#ffccaa;fill-opacity:1;fill-rule:nonzero;stroke:#000000;stroke-width:0.002;stroke-miterlimit:4;stroke-dasharray:none;stroke-opacity:1;marker:none;enable-background:accumulate"
         inkscape:connector-curvature="0" />
      <path
         d="m 334.75785,756.75053 c -7.08929,-15.78239 -10.28437,-26.89033 -9.02587,-37.43805 1.39575,-11.69796 5.8085,-16.73613 16.83678,-19.61268 12.44766,-3.59459 20.03902,-1.91353 27.39013,8.75815 11.42622,25.66382 13.40166,29.05484 15.06365,35.48866 -0.13286,0.13286 -42.89663,15.49027 -44.57776,16.18518 -1.72922,0.71479 -4.94789,-2.09377 -5.68693,-3.38126 z"
         id="path9978"
         style="color:#000000;display:inline;overflow:visible;visibility:visible;opacity:0.92000002;fill:#ffe6d5;fill-opacity:1;fill-rule:nonzero;stroke:none;stroke-width:0.2;marker:none;enable-background:accumulate"
         inkscape:connector-curvature="0" />
    </g>
    <g
       id="g9980"
       transform="matrix(0.64785166,-0.12161418,0.12161418,0.64785166,342.56693,-256.56067)">
      <path
         inkscape:connector-curvature="0"
         style="fill:none;stroke:#000000;stroke-width:1px;stroke-linecap:butt;stroke-linejoin:miter;stroke-opacity:1"
         id="path9982"
         d="m 388.57143,893.79076 -57.14285,-130 c 0,0 -30.0247,-58.84827 4.28571,-70.00001 27.07438,-8.79984 37.32196,9.59496 40,14.64286 27.54455,51.91936 84.64285,173.21429 84.64285,173.21429 l -0.71428,0 -71.07143,12.14286 z" />
      <path
         inkscape:connector-curvature="0"
         style="color:#000000;display:inline;overflow:visible;visibility:visible;fill:#ffccaa;fill-opacity:1;fill-rule:nonzero;stroke:#000000;stroke-width:0.002;stroke-miterlimit:4;stroke-dasharray:none;stroke-opacity:1;marker:none;enable-background:accumulate"
         id="path9984"
         d="m 360.32021,827.78041 c -15.74169,-35.7991 -29.44655,-66.92657 -30.45523,-69.17214 -7.08929,-15.78239 -10.8761,-32.88254 -9.6176,-43.43026 1.39575,-11.69796 7.19746,-18.50389 18.22574,-21.38044 5.18218,-1.35169 8.54724,-1.76827 12.41155,-1.53649 4.43642,0.26609 6.95929,0.93715 11.03011,2.93391 3.93491,1.9301 8.0085,5.56248 10.68932,9.53159 3.68818,5.46055 26.56068,50.9623 49.57778,98.62829 16.60192,34.38082 37.06388,77.41994 36.89013,77.59369 -0.13286,0.13286 -69.01932,11.92114 -69.66286,11.92114 -0.27909,0 -12.00972,-26.24842 -29.08894,-65.08929 z" />
      <path
         inkscape:connector-curvature="0"
         style="color:#000000;display:inline;overflow:visible;visibility:visible;opacity:0.92000002;fill:#ffe6d5;fill-opacity:1;fill-rule:nonzero;stroke:none;stroke-width:0.2;marker:none;enable-background:accumulate"
         id="path9986"
         d="m 334.75785,756.75053 c -7.08929,-15.78239 -10.28437,-26.89033 -9.02587,-37.43805 1.39575,-11.69796 5.8085,-16.73613 16.83678,-19.61268 12.44766,-3.59459 20.03902,-1.91353 27.39013,8.75815 11.42622,25.66382 13.40166,29.05484 15.06365,35.48866 -0.13286,0.13286 -42.89663,15.49027 -44.57776,16.18518 -1.72922,0.71479 -4.94789,-2.09377 -5.68693,-3.38126 z" />
    </g>
    <path
       style="fill:none;fill-rule:evenodd;stroke:#000000;stroke-width:1px;stroke-linecap:butt;stroke-linejoin:miter;stroke-opacity:1"
       d="m 146.82277,201.01077 419.52386,-1.0675"
       id="path9992"
       inkscape:connector-curvature="0" />
    <rect
       y="188.0482"
       x="330.96494"
       height="22.417305"
       width="77.393082"
       id="rect10086"
       style="opacity:1;fill:#ffffff;fill-opacity:1;stroke:none;stroke-width:0.97799999;stroke-linecap:round;stroke-miterlimit:4;stroke-dasharray:none;stroke-dashoffset:0;stroke-opacity:0.78531075" />
    <text
       xml:space="preserve"
       style="font-style:normal;font-weight:normal;font-size:17.5px;line-height:125%;font-family:Sans;letter-spacing:0px;word-spacing:0px;fill:#000000;fill-opacity:1;stroke:none;stroke-width:1px;stroke-linecap:butt;stroke-linejoin:miter;stroke-opacity:1"
       x="336.83612"
       y="205.01161"
       id="text10074"
       sodipodi:linespacing="125%"><tspan
         sodipodi:role="line"
         id="tspan10076"
         x="336.83612"
         y="205.01161">Touch 1</tspan></text>
    <path
       inkscape:connector-curvature="0"
       id="path10082"
       d="m 180.82277,169.01077 419.52386,-1.0675"
       style="fill:none;fill-rule:evenodd;stroke:#000000;stroke-width:1px;stroke-linecap:butt;stroke-linejoin:miter;stroke-opacity:1" />
    <rect
       style="opacity:1;fill:#ffffff;fill-opacity:1;stroke:none;stroke-width:0.97799999;stroke-linecap:round;stroke-miterlimit:4;stroke-dasharray:none;stroke-dashoffset:0;stroke-opacity:0.78531075"
       id="rect10084"
       width="77.393082"
       height="22.417305"
       x="330.96494"
       y="156.0482" />
    <text
       xml:space="preserve"
       style="font-style:normal;font-weight:normal;font-size:17.5px;line-height:125%;font-family:Sans;letter-spacing:0px;word-spacing:0px;fill:#000000;fill-opacity:1;stroke:none;stroke-width:1px;stroke-linecap:butt;stroke-linejoin:miter;stroke-opacity:1"
       x="335.76865"
       y="173.66182"
       id="text10078"
       sodipodi:linespacing="125%"><tspan
         sodipodi:role="line"
         id="tspan10080"
         x="335.76865"
         y="173.66182">Touch 2</tspan></text>
  </g>
</svg>
