<?xml version="1.0" encoding="UTF-8" standalone="no"?>
<!-- Created with Inkscape (http://www.inkscape.org/) -->

<svg
   xmlns:dc="http://purl.org/dc/elements/1.1/"
   xmlns:cc="http://creativecommons.org/ns#"
   xmlns:rdf="http://www.w3.org/1999/02/22-rdf-syntax-ns#"
   xmlns:svg="http://www.w3.org/2000/svg"
   xmlns="http://www.w3.org/2000/svg"
   xmlns:xlink="http://www.w3.org/1999/xlink"
   xmlns:sodipodi="http://sodipodi.sourceforge.net/DTD/sodipodi-0.dtd"
   xmlns:inkscape="http://www.inkscape.org/namespaces/inkscape"
   width="251.43713mm"
   height="65.496956mm"
   viewBox="0 0 890.91894 232.07583"
   id="svg2"
   version="1.1"
   inkscape:version="0.91 r13725"
   sodipodi:docname="tablet-left-handed.svg">
  <defs
     id="defs4">
    <marker
       inkscape:stockid="Arrow1Lend"
       orient="auto"
       refY="0"
       refX="0"
       id="marker5778"
       style="overflow:visible"
       inkscape:isstock="true">
      <path
         id="path5780"
         d="M 0,0 5,-5 -12.5,0 5,5 0,0 Z"
         style="fill:#ff0000;fill-opacity:1;fill-rule:evenodd;stroke:#ff0000;stroke-width:1pt;stroke-opacity:1"
         transform="matrix(-0.8,0,0,-0.8,-10,0)"
         inkscape:connector-curvature="0" />
    </marker>
    <marker
       inkscape:isstock="true"
       style="overflow:visible"
       id="marker5774"
       refX="0"
       refY="0"
       orient="auto"
       inkscape:stockid="Arrow1Lend">
      <path
         transform="matrix(-0.8,0,0,-0.8,-10,0)"
         style="fill:#ff0000;fill-opacity:1;fill-rule:evenodd;stroke:#ff0000;stroke-width:1pt;stroke-opacity:1"
         d="M 0,0 5,-5 -12.5,0 5,5 0,0 Z"
         id="path5776"
         inkscape:connector-curvature="0" />
    </marker>
    <marker
       inkscape:isstock="true"
       style="overflow:visible"
       id="marker5732"
       refX="0"
       refY="0"
       orient="auto"
       inkscape:stockid="Arrow1Lend"
       inkscape:collect="always">
      <path
         transform="matrix(-0.8,0,0,-0.8,-10,0)"
         style="fill:#ff0000;fill-opacity:1;fill-rule:evenodd;stroke:#ff0000;stroke-width:1pt;stroke-opacity:1"
         d="M 0,0 5,-5 -12.5,0 5,5 0,0 Z"
         id="path5734"
         inkscape:connector-curvature="0" />
    </marker>
    <marker
       inkscape:stockid="Arrow1Lend"
       orient="auto"
       refY="0"
       refX="0"
       id="Arrow1Lend"
       style="overflow:visible"
       inkscape:isstock="true"
       inkscape:collect="always">
      <path
         id="path5471"
         d="M 0,0 5,-5 -12.5,0 5,5 0,0 Z"
         style="fill:#ff0000;fill-opacity:1;fill-rule:evenodd;stroke:#ff0000;stroke-width:1pt;stroke-opacity:1"
         transform="matrix(-0.8,0,0,-0.8,-10,0)"
         inkscape:connector-curvature="0" />
    </marker>
    <linearGradient
       inkscape:collect="always"
       id="linearGradient4294">
      <stop
         style="stop-color:#1a1a1a;stop-opacity:1;"
         offset="0"
         id="stop4296" />
      <stop
         style="stop-color:#808080;stop-opacity:1"
         offset="1"
         id="stop4298" />
    </linearGradient>
    <linearGradient
       inkscape:collect="always"
       xlink:href="#linearGradient4294"
       id="linearGradient4300"
       x1="465.81339"
       y1="666.13727"
       x2="454.82117"
       y2="658.65521"
       gradientUnits="userSpaceOnUse" />
    <linearGradient
       inkscape:collect="always"
       xlink:href="#linearGradient4294"
       id="linearGradient5445"
       gradientUnits="userSpaceOnUse"
       x1="465.81339"
       y1="666.13727"
       x2="454.82117"
       y2="658.65521" />
  </defs>
  <sodipodi:namedview
     id="base"
     pagecolor="#ffffff"
     bordercolor="#666666"
     borderopacity="1.0"
     inkscape:pageopacity="0.0"
     inkscape:pageshadow="2"
     inkscape:zoom="1.4"
     inkscape:cx="395.90581"
     inkscape:cy="178.07552"
     inkscape:document-units="px"
     inkscape:current-layer="layer3"
     showgrid="false"
     showguides="true"
     inkscape:guide-bbox="true"
     inkscape:window-width="1920"
     inkscape:window-height="1016"
     inkscape:window-x="0"
     inkscape:window-y="27"
     inkscape:window-maximized="1"
     fit-margin-top="0"
     fit-margin-left="0"
     fit-margin-right="0"
     fit-margin-bottom="0">
    <sodipodi:guide
       position="127.77902,266.16995"
       orientation="0,1"
       id="guide4164" />
    <sodipodi:guide
       position="125.25364,38.38054"
       orientation="0,1"
       id="guide4166" />
  </sodipodi:namedview>
  <metadata
     id="metadata7">
    <rdf:RDF>
      <cc:Work
         rdf:about="">
        <dc:format>image/svg+xml</dc:format>
        <dc:type
           rdf:resource="http://purl.org/dc/dcmitype/StillImage" />
        <dc:title></dc:title>
      </cc:Work>
    </rdf:RDF>
  </metadata>
  <g
     inkscape:label="tablet"
     inkscape:groupmode="layer"
     id="layer1"
     style="display:inline"
     transform="translate(-75.261626,-208.63373)" />
  <g
     inkscape:groupmode="layer"
     id="layer3"
     inkscape:label="stylus"
     style="display:inline"
     transform="translate(-75.261626,-208.63373)">
    <g
       id="g5394"
       transform="matrix(0.75576066,0,0,0.75576066,18.38185,107.63861)">
      <g
         inkscape:export-ydpi="90"
         inkscape:export-xdpi="90"
         id="g4309"
         style="display:inline">
        <rect
           style="opacity:0.92000002;fill:#4d4d4d;fill-opacity:1;stroke:#4d4d4d;stroke-width:1.05118144;stroke-linecap:round;stroke-miterlimit:4;stroke-dasharray:4.20472551, 1.05118138;stroke-dashoffset:0;stroke-opacity:1"
           id="rect4136"
           width="522.19733"
           height="306.02466"
           x="75.787216"
           y="134.15933" />
        <rect
           y="175.42407"
           x="199.33878"
           height="226.52563"
           width="357.34042"
           id="rect4140"
           style="opacity:0.92000002;fill:#4d4d4d;fill-opacity:1;stroke:#4d4d4d;stroke-width:0.74813837;stroke-linecap:round;stroke-miterlimit:4;stroke-dasharray:2.99255325, 0.74813831;stroke-dashoffset:0;stroke-opacity:1" />
        <rect
           style="opacity:0.92000002;fill:#4d4d4d;fill-opacity:1;stroke:#4d4d4d;stroke-width:0.98900002;stroke-linecap:round;stroke-miterlimit:4;stroke-dasharray:3.956, 0.989;stroke-dashoffset:0;stroke-opacity:1"
           id="rect4142"
           width="65"
           height="22.142857"
           x="103.10225"
           y="175.72914" />
        <rect
           y="203.72914"
           x="103.10225"
           height="22.142857"
           width="65"
           id="rect4148"
           style="opacity:0.92000002;fill:#4d4d4d;fill-opacity:1;stroke:#4d4d4d;stroke-width:0.98900002;stroke-linecap:round;stroke-miterlimit:4;stroke-dasharray:3.956, 0.989;stroke-dashoffset:0;stroke-opacity:1" />
        <rect
           style="opacity:0.92000002;fill:#4d4d4d;fill-opacity:1;stroke:#4d4d4d;stroke-width:0.98900002;stroke-linecap:round;stroke-miterlimit:4;stroke-dasharray:3.956, 0.989;stroke-dashoffset:0;stroke-opacity:1"
           id="rect4150"
           width="65"
           height="22.142857"
           x="103.10225"
           y="231.72913" />
        <rect
           style="opacity:0.92000002;fill:#4d4d4d;fill-opacity:1;stroke:#4d4d4d;stroke-width:0.98900002;stroke-linecap:round;stroke-miterlimit:4;stroke-dasharray:3.956, 0.989;stroke-dashoffset:0;stroke-opacity:1"
           id="rect4154"
           width="65"
           height="22.142857"
           x="103.10225"
           y="323.72913" />
        <rect
           y="351.72913"
           x="103.10225"
           height="22.142857"
           width="65"
           id="rect4156"
           style="opacity:0.92000002;fill:#4d4d4d;fill-opacity:1;stroke:#4d4d4d;stroke-width:0.98900002;stroke-linecap:round;stroke-miterlimit:4;stroke-dasharray:3.956, 0.989;stroke-dashoffset:0;stroke-opacity:1" />
        <circle
           style="opacity:0.92000002;fill:#4d4d4d;fill-opacity:1;stroke:#4d4d4d;stroke-width:0.98900002;stroke-linecap:round;stroke-miterlimit:4;stroke-dasharray:3.956, 0.989;stroke-dashoffset:0;stroke-opacity:1"
           id="path4158"
           cx="135.61298"
           cy="287.06125"
           r="22.98097" />
        <ellipse
           cy="287.06125"
           cx="135.61298"
           id="circle4160"
           style="opacity:0.92000002;fill:#4d4d4d;fill-opacity:1;stroke:#4d4d4d;stroke-width:0.52043104;stroke-linecap:round;stroke-miterlimit:4;stroke-dasharray:2.08172421, 0.52043105;stroke-dashoffset:0;stroke-opacity:1"
           rx="11.5985"
           ry="12.608653" />
        <rect
           style="opacity:0.92000002;fill:#4d4d4d;fill-opacity:1;stroke:#4d4d4d;stroke-width:0.98900002;stroke-linecap:round;stroke-miterlimit:4;stroke-dasharray:3.956, 0.989;stroke-dashoffset:0;stroke-opacity:1"
           id="rect4162"
           width="65"
           height="22.142857"
           x="103.10225"
           y="379.72913" />
      </g>
      <g
         transform="matrix(0.37129971,0.09948946,-0.09618892,0.35898192,295.60339,7.6883643)"
         id="g4304">
        <path
           style="display:inline;fill:#cccccc;fill-rule:evenodd;stroke:none;stroke-width:1px;stroke-linecap:butt;stroke-linejoin:miter;stroke-opacity:1"
           d="m 387.83544,799.76093 c -1.1128,3.61694 -3.2211,13.05163 -1.08543,14.07769 2.13567,1.02606 7.81039,-3.72162 10.99756,-6.69095 z"
           id="path4286"
           inkscape:connector-curvature="0"
           sodipodi:nodetypes="czcc" />
        <path
           style="display:inline;fill:#000000"
           d="m 392.64431,804.79039 c -8.52094,-5.90399 -8.49394,-11.01546 0.22879,-43.30647 1.03999,-3.85 2.46829,-9.67602 3.17399,-12.9467 0.99731,-4.62219 2.39455,-7.29497 6.27321,-12 2.74456,-3.32932 5.25157,-6.2783 5.57113,-6.5533 40.78433,-60.97488 80.48307,-125.1652 118.27253,-184 9.86283,-15.675 26.59424,-42.225 37.18089,-59 10.58666,-16.775 34.01422,-53.9 52.06125,-82.5 18.04703,-28.6 35.04505,-55.31677 37.77338,-59.37059 l 4.9606,-7.3706 4.1828,0.57332 c 4.16371,0.5707 4.19706,0.54958 7.30887,-4.62941 3.75631,-6.2516 8.82067,-11.57582 12.2516,-12.88026 5.99391,-2.27888 14.03303,2.9506 14.03303,9.12854 0,3.90203 -2.51704,10.62127 -6.02878,16.09385 -1.63417,2.54664 -2.97122,4.85949 -2.97122,5.13969 0,0.28019 0.9,1.54715 2,2.81546 2.28453,2.63408 2.47267,4.21918 0.86833,7.31574 -1.28218,2.47476 -26.61383,45.18798 -55.85724,94.18426 -10.83283,18.15 -25.72943,43.1137 -33.10357,55.47489 -7.37413,12.3612 -13.69273,23.17153 -14.04131,24.02297 -0.34859,0.85144 -7.50972,12.78774 -15.91363,26.52511 -15.54138,25.40455 -32.24417,52.9052 -70.74345,116.47703 -40.26028,66.47968 -43.66308,72.46026 -49.21634,86.5 -1.74036,4.4 -3.92035,8.675 -4.8444,9.5 -0.92405,0.825 -4.36246,3.75 -7.6409,6.5 -3.27845,2.75 -9.57132,8.3067 -13.98415,12.34823 -10.62726,9.73304 -16.99729,13.87361 -22.52334,14.64034 -3.99187,0.55386 -5.03885,0.251 -9.27207,-2.6821 z"
           id="path4283"
           inkscape:connector-curvature="0"
           sodipodi:nodetypes="ssssccssscsssssssssssssssssss" />
        <path
           style="fill:url(#linearGradient4300);fill-opacity:1;fill-rule:evenodd;stroke:none;stroke-width:1px;stroke-linecap:butt;stroke-linejoin:miter;stroke-opacity:1"
           d="m 450.89044,688.88586 c 8.71518,5.62513 45.74035,-59.18436 43.57923,-75.43494 l -7.07107,-6.56599 c -29.93081,25.86352 -47.78438,74.72281 -47.78438,74.72281 0,0 0,0 11.27622,7.27812 z"
           id="path4292"
           inkscape:connector-curvature="0"
           sodipodi:nodetypes="scccs" />
      </g>
    </g>
    <g
       inkscape:export-ydpi="90"
       inkscape:export-xdpi="90"
       id="g5413"
       style="display:inline"
       transform="matrix(-0.75576066,0,0,-0.75576066,1023.0604,541.7047)">
      <rect
         style="opacity:0.92000002;fill:#4d4d4d;fill-opacity:1;stroke:#4d4d4d;stroke-width:1.05118144;stroke-linecap:round;stroke-miterlimit:4;stroke-dasharray:4.20472551, 1.05118138;stroke-dashoffset:0;stroke-opacity:1"
         id="rect5415"
         width="522.19733"
         height="306.02466"
         x="75.787216"
         y="134.15933" />
      <rect
         y="175.42407"
         x="199.33878"
         height="226.52563"
         width="357.34042"
         id="rect5417"
         style="opacity:0.92000002;fill:#4d4d4d;fill-opacity:1;stroke:#4d4d4d;stroke-width:0.74813837;stroke-linecap:round;stroke-miterlimit:4;stroke-dasharray:2.99255325, 0.74813831;stroke-dashoffset:0;stroke-opacity:1" />
      <rect
         style="opacity:0.92000002;fill:#4d4d4d;fill-opacity:1;stroke:#4d4d4d;stroke-width:0.98900002;stroke-linecap:round;stroke-miterlimit:4;stroke-dasharray:3.956, 0.989;stroke-dashoffset:0;stroke-opacity:1"
         id="rect5419"
         width="65"
         height="22.142857"
         x="103.10225"
         y="175.72914" />
      <rect
         y="203.72914"
         x="103.10225"
         height="22.142857"
         width="65"
         id="rect5421"
         style="opacity:0.92000002;fill:#4d4d4d;fill-opacity:1;stroke:#4d4d4d;stroke-width:0.98900002;stroke-linecap:round;stroke-miterlimit:4;stroke-dasharray:3.956, 0.989;stroke-dashoffset:0;stroke-opacity:1" />
      <rect
         style="opacity:0.92000002;fill:#4d4d4d;fill-opacity:1;stroke:#4d4d4d;stroke-width:0.98900002;stroke-linecap:round;stroke-miterlimit:4;stroke-dasharray:3.956, 0.989;stroke-dashoffset:0;stroke-opacity:1"
         id="rect5423"
         width="65"
         height="22.142857"
         x="103.10225"
         y="231.72913" />
      <rect
         style="opacity:0.92000002;fill:#4d4d4d;fill-opacity:1;stroke:#4d4d4d;stroke-width:0.98900002;stroke-linecap:round;stroke-miterlimit:4;stroke-dasharray:3.956, 0.989;stroke-dashoffset:0;stroke-opacity:1"
         id="rect5425"
         width="65"
         height="22.142857"
         x="103.10225"
         y="323.72913" />
      <rect
         y="351.72913"
         x="103.10225"
         height="22.142857"
         width="65"
         id="rect5427"
         style="opacity:0.92000002;fill:#4d4d4d;fill-opacity:1;stroke:#4d4d4d;stroke-width:0.98900002;stroke-linecap:round;stroke-miterlimit:4;stroke-dasharray:3.956, 0.989;stroke-dashoffset:0;stroke-opacity:1" />
      <circle
         style="opacity:0.92000002;fill:#4d4d4d;fill-opacity:1;stroke:#4d4d4d;stroke-width:0.98900002;stroke-linecap:round;stroke-miterlimit:4;stroke-dasharray:3.956, 0.989;stroke-dashoffset:0;stroke-opacity:1"
         id="circle5429"
         cx="135.61298"
         cy="287.06125"
         r="22.98097" />
      <ellipse
         cy="287.06125"
         cx="135.61298"
         id="ellipse5431"
         style="opacity:0.92000002;fill:#4d4d4d;fill-opacity:1;stroke:#4d4d4d;stroke-width:0.52043104;stroke-linecap:round;stroke-miterlimit:4;stroke-dasharray:2.08172421, 0.52043105;stroke-dashoffset:0;stroke-opacity:1"
         rx="11.5985"
         ry="12.608653" />
      <rect
         style="opacity:0.92000002;fill:#4d4d4d;fill-opacity:1;stroke:#4d4d4d;stroke-width:0.98900002;stroke-linecap:round;stroke-miterlimit:4;stroke-dasharray:3.956, 0.989;stroke-dashoffset:0;stroke-opacity:1"
         id="rect5433"
         width="65"
         height="22.142857"
         x="103.10225"
         y="379.72913" />
    </g>
    <g
       transform="matrix(0.28061371,0.07519022,-0.0726958,0.27130441,737.25564,113.44918)"
       id="g5435">
      <path
         style="display:inline;fill:#cccccc;fill-rule:evenodd;stroke:none;stroke-width:1px;stroke-linecap:butt;stroke-linejoin:miter;stroke-opacity:1"
         d="m 387.83544,799.76093 c -1.1128,3.61694 -3.2211,13.05163 -1.08543,14.07769 2.13567,1.02606 7.81039,-3.72162 10.99756,-6.69095 z"
         id="path5437"
         inkscape:connector-curvature="0"
         sodipodi:nodetypes="czcc" />
      <path
         style="display:inline;fill:#000000"
         d="m 392.64431,804.79039 c -8.52094,-5.90399 -8.49394,-11.01546 0.22879,-43.30647 1.03999,-3.85 2.46829,-9.67602 3.17399,-12.9467 0.99731,-4.62219 2.39455,-7.29497 6.27321,-12 2.74456,-3.32932 5.25157,-6.2783 5.57113,-6.5533 40.78433,-60.97488 80.48307,-125.1652 118.27253,-184 9.86283,-15.675 26.59424,-42.225 37.18089,-59 10.58666,-16.775 34.01422,-53.9 52.06125,-82.5 18.04703,-28.6 35.04505,-55.31677 37.77338,-59.37059 l 4.9606,-7.3706 4.1828,0.57332 c 4.16371,0.5707 4.19706,0.54958 7.30887,-4.62941 3.75631,-6.2516 8.82067,-11.57582 12.2516,-12.88026 5.99391,-2.27888 14.03303,2.9506 14.03303,9.12854 0,3.90203 -2.51704,10.62127 -6.02878,16.09385 -1.63417,2.54664 -2.97122,4.85949 -2.97122,5.13969 0,0.28019 0.9,1.54715 2,2.81546 2.28453,2.63408 2.47267,4.21918 0.86833,7.31574 -1.28218,2.47476 -26.61383,45.18798 -55.85724,94.18426 -10.83283,18.15 -25.72943,43.1137 -33.10357,55.47489 -7.37413,12.3612 -13.69273,23.17153 -14.04131,24.02297 -0.34859,0.85144 -7.50972,12.78774 -15.91363,26.52511 -15.54138,25.40455 -32.24417,52.9052 -70.74345,116.47703 -40.26028,66.47968 -43.66308,72.46026 -49.21634,86.5 -1.74036,4.4 -3.92035,8.675 -4.8444,9.5 -0.92405,0.825 -4.36246,3.75 -7.6409,6.5 -3.27845,2.75 -9.57132,8.3067 -13.98415,12.34823 -10.62726,9.73304 -16.99729,13.87361 -22.52334,14.64034 -3.99187,0.55386 -5.03885,0.251 -9.27207,-2.6821 z"
         id="path5439"
         inkscape:connector-curvature="0"
         sodipodi:nodetypes="ssssccssscsssssssssssssssssss" />
      <path
         style="fill:url(#linearGradient5445);fill-opacity:1;fill-rule:evenodd;stroke:none;stroke-width:1px;stroke-linecap:butt;stroke-linejoin:miter;stroke-opacity:1"
         d="m 450.89044,688.88586 c 8.71518,5.62513 45.74035,-59.18436 43.57923,-75.43494 l -7.07107,-6.56599 c -29.93081,25.86352 -47.78438,74.72281 -47.78438,74.72281 0,0 0,0 11.27622,7.27812 z"
         id="path5441"
         inkscape:connector-curvature="0"
         sodipodi:nodetypes="scccs" />
    </g>
    <g
       id="g5742"
       transform="matrix(0.75576066,0,0,0.75576066,18.38185,107.63861)">
      <path
         style="fill:#ff0000;fill-opacity:1;fill-rule:evenodd;stroke:#ff0000;stroke-width:1px;stroke-linecap:butt;stroke-linejoin:miter;stroke-opacity:1;marker-end:url(#marker5732)"
         d="m 198.52376,174.60605 173.3128,0"
         id="path5730"
         inkscape:connector-curvature="0" />
      <path
         inkscape:connector-curvature="0"
         id="path5462"
         d="m 199.04066,174.53964 0,173.3128"
         style="fill:#ff0000;fill-opacity:1;fill-rule:evenodd;stroke:#ff0000;stroke-width:1px;stroke-linecap:butt;stroke-linejoin:miter;stroke-opacity:1;marker-end:url(#Arrow1Lend)" />
    </g>
    <g
       style="display:inline"
       id="g5746"
       transform="matrix(0.75576066,0,0,0.75576066,452.18847,107.63861)">
      <path
         inkscape:connector-curvature="0"
         id="path5748"
         d="m 198.52376,174.60605 173.3128,0"
         style="fill:#ff0000;fill-opacity:1;fill-rule:evenodd;stroke:#ff0000;stroke-width:1px;stroke-linecap:butt;stroke-linejoin:miter;stroke-opacity:1;marker-end:url(#marker5732)" />
      <path
         style="fill:#ff0000;fill-opacity:1;fill-rule:evenodd;stroke:#ff0000;stroke-width:1px;stroke-linecap:butt;stroke-linejoin:miter;stroke-opacity:1;marker-end:url(#Arrow1Lend)"
         d="m 199.04066,174.53964 0,173.3128"
         id="path5750"
         inkscape:connector-curvature="0" />
    </g>
    <text
       xml:space="preserve"
       style="font-style:normal;font-weight:normal;font-size:13.22581196px;line-height:125%;font-family:Sans;letter-spacing:0px;word-spacing:0px;fill:#000000;fill-opacity:1;stroke:none;stroke-width:1px;stroke-linecap:butt;stroke-linejoin:miter;stroke-opacity:1"
       x="152.45718"
       y="228.55676"
       id="text5758"
       sodipodi:linespacing="125%"><tspan
         sodipodi:role="line"
         id="tspan5760"
         x="152.45718"
         y="228.55676"
         style="fill:#ff0000">origin</tspan></text>
    <text
       sodipodi:linespacing="125%"
       id="text5762"
       y="228.55676"
       x="587.55939"
       style="font-style:normal;font-weight:normal;font-size:13.22581196px;line-height:125%;font-family:Sans;letter-spacing:0px;word-spacing:0px;fill:#000000;fill-opacity:1;stroke:none;stroke-width:1px;stroke-linecap:butt;stroke-linejoin:miter;stroke-opacity:1"
       xml:space="preserve"><tspan
         style="fill:#ff0000"
         y="228.55676"
         x="587.55939"
         id="tspan5764"
         sodipodi:role="line">origin</tspan></text>
    <g
       id="g5786"
       transform="matrix(0.75576066,0,0,0.75576066,18.366504,109.15014)">
      <path
         sodipodi:nodetypes="cc"
         style="fill:#ff0000;fill-opacity:1;fill-rule:evenodd;stroke:#ff0000;stroke-width:1px;stroke-linecap:butt;stroke-linejoin:miter;stroke-opacity:1;marker-end:url(#marker5774)"
         d="m 135.40105,167.16145 0,93.31279"
         id="path5770"
         inkscape:connector-curvature="0" />
      <text
         xml:space="preserve"
         style="font-style:normal;font-weight:normal;font-size:17.5px;line-height:125%;font-family:Sans;letter-spacing:0px;word-spacing:0px;fill:#000000;fill-opacity:1;stroke:none;stroke-width:1px;stroke-linecap:butt;stroke-linejoin:miter;stroke-opacity:1"
         x="116.75471"
         y="156.13232"
         id="text5782"
         sodipodi:linespacing="125%"><tspan
           sodipodi:role="line"
           id="tspan5784"
           x="116.75471"
           y="156.13232"
           style="fill:#ff0000">zero</tspan></text>
    </g>
    <g
       transform="matrix(0.75576066,0,0,0.75576066,817.96129,109.15014)"
       id="g5791">
      <path
         inkscape:connector-curvature="0"
         id="path5793"
         d="m 135.40105,167.16145 0,93.31279"
         style="fill:#ff0000;fill-opacity:1;fill-rule:evenodd;stroke:#ff0000;stroke-width:1px;stroke-linecap:butt;stroke-linejoin:miter;stroke-opacity:1;marker-end:url(#marker5774)"
         sodipodi:nodetypes="cc" />
      <text
         sodipodi:linespacing="125%"
         id="text5795"
         y="156.13232"
         x="116.75471"
         style="font-style:normal;font-weight:normal;font-size:17.5px;line-height:125%;font-family:Sans;letter-spacing:0px;word-spacing:0px;fill:#000000;fill-opacity:1;stroke:none;stroke-width:1px;stroke-linecap:butt;stroke-linejoin:miter;stroke-opacity:1"
         xml:space="preserve"><tspan
           style="fill:#ff0000"
           y="156.13232"
           x="116.75471"
           id="tspan5797"
           sodipodi:role="line">zero</tspan></text>
    </g>
  </g>
</svg>
