<?xml version="1.0" encoding="UTF-8" standalone="no"?>
<!-- Created with Inkscape (http://www.inkscape.org/) -->

<svg
   xmlns:dc="http://purl.org/dc/elements/1.1/"
   xmlns:cc="http://creativecommons.org/ns#"
   xmlns:rdf="http://www.w3.org/1999/02/22-rdf-syntax-ns#"
   xmlns:svg="http://www.w3.org/2000/svg"
   xmlns="http://www.w3.org/2000/svg"
   xmlns:sodipodi="http://sodipodi.sourceforge.net/DTD/sodipodi-0.dtd"
   xmlns:inkscape="http://www.inkscape.org/namespaces/inkscape"
   version="1.1"
   width="753.05255"
   height="737.14532"
   id="svg2"
   inkscape:version="0.91 r13725"
   sodipodi:docname="tap-n-drag.svg">
  <metadata
     id="metadata4314">
    <rdf:RDF>
      <cc:Work
         rdf:about="">
        <dc:format>image/svg+xml</dc:format>
        <dc:type
           rdf:resource="http://purl.org/dc/dcmitype/StillImage" />
        <dc:title></dc:title>
      </cc:Work>
    </rdf:RDF>
  </metadata>
  <sodipodi:namedview
     pagecolor="#ffffff"
     bordercolor="#666666"
     borderopacity="1"
     objecttolerance="10"
     gridtolerance="10"
     guidetolerance="10"
     inkscape:pageopacity="0"
     inkscape:pageshadow="2"
     inkscape:window-width="1920"
     inkscape:window-height="1136"
     id="namedview4312"
     showgrid="false"
     inkscape:zoom="0.57798582"
     inkscape:cx="926.00645"
     inkscape:cy="627.63785"
     inkscape:window-x="0"
     inkscape:window-y="27"
     inkscape:window-maximized="1"
     inkscape:current-layer="svg2"
     showguides="true"
     inkscape:guide-bbox="true"
     inkscape:snap-page="false"
     fit-margin-top="0"
     fit-margin-left="0"
     fit-margin-right="0"
     fit-margin-bottom="0">
    <sodipodi:guide
       position="600.67806,858.83692"
       orientation="0,1"
       id="guide4473" />
  </sodipodi:namedview>
  <defs
     id="defs4">
    <marker
       inkscape:isstock="true"
       style="overflow:visible"
       id="marker6136"
       refX="0"
       refY="0"
       orient="auto"
       inkscape:stockid="Arrow1Lend">
      <path
         inkscape:connector-curvature="0"
         transform="matrix(-0.8,0,0,-0.8,-10,0)"
         style="fill:#000000;fill-opacity:1;fill-rule:evenodd;stroke:#000000;stroke-width:1pt;stroke-opacity:1"
         d="M 0,0 5,-5 -12.5,0 5,5 0,0 Z"
         id="path6138" />
    </marker>
    <marker
       inkscape:stockid="Arrow1Lend"
       orient="auto"
       refY="0"
       refX="0"
       id="marker6132"
       style="overflow:visible"
       inkscape:isstock="true">
      <path
         inkscape:connector-curvature="0"
         id="path6134"
         d="M 0,0 5,-5 -12.5,0 5,5 0,0 Z"
         style="fill:#000000;fill-opacity:1;fill-rule:evenodd;stroke:#000000;stroke-width:1pt;stroke-opacity:1"
         transform="matrix(-0.8,0,0,-0.8,-10,0)" />
    </marker>
    <marker
       inkscape:isstock="true"
       style="overflow:visible"
       id="marker6111"
       refX="0"
       refY="0"
       orient="auto"
       inkscape:stockid="Arrow2Lend">
      <path
         inkscape:connector-curvature="0"
         transform="matrix(-1.1,0,0,-1.1,-1.1,0)"
         d="M 8.7185878,4.0337352 -2.2072895,0.01601326 8.7185884,-4.0017078 c -1.7454984,2.3720609 -1.7354408,5.6174519 -6e-7,8.035443 z"
         style="fill:#000000;fill-opacity:1;fill-rule:evenodd;stroke:#000000;stroke-width:0.625;stroke-linejoin:round;stroke-opacity:1"
         id="path6113" />
    </marker>
    <marker
       inkscape:stockid="Arrow2Lend"
       orient="auto"
       refY="0"
       refX="0"
       id="marker5983"
       style="overflow:visible"
       inkscape:isstock="true"
       inkscape:collect="always">
      <path
         id="path5985"
         style="fill:#000000;fill-opacity:1;fill-rule:evenodd;stroke:#000000;stroke-width:0.625;stroke-linejoin:round;stroke-opacity:1"
         d="M 8.7185878,4.0337352 -2.2072895,0.01601326 8.7185884,-4.0017078 c -1.7454984,2.3720609 -1.7354408,5.6174519 -6e-7,8.035443 z"
         transform="matrix(-1.1,0,0,-1.1,-1.1,0)"
         inkscape:connector-curvature="0" />
    </marker>
    <marker
       inkscape:stockid="Arrow1Lend"
       orient="auto"
       refY="0"
       refX="0"
       id="marker5979"
       style="overflow:visible"
       inkscape:isstock="true">
      <path
         id="path5981"
         d="M 0,0 5,-5 -12.5,0 5,5 0,0 Z"
         style="fill:#000000;fill-opacity:1;fill-rule:evenodd;stroke:#000000;stroke-width:1pt;stroke-opacity:1"
         transform="matrix(-0.8,0,0,-0.8,-10,0)"
         inkscape:connector-curvature="0" />
    </marker>
    <marker
       inkscape:stockid="Arrow2Lend"
       orient="auto"
       refY="0"
       refX="0"
       id="Arrow2Lend"
       style="overflow:visible"
       inkscape:isstock="true">
      <path
         id="path5429"
         style="fill:#000000;fill-opacity:1;fill-rule:evenodd;stroke:#000000;stroke-width:0.625;stroke-linejoin:round;stroke-opacity:1"
         d="M 8.7185878,4.0337352 -2.2072895,0.01601326 8.7185884,-4.0017078 c -1.7454984,2.3720609 -1.7354408,5.6174519 -6e-7,8.035443 z"
         transform="matrix(-1.1,0,0,-1.1,-1.1,0)"
         inkscape:connector-curvature="0" />
    </marker>
    <marker
       inkscape:stockid="Arrow1Mstart"
       orient="auto"
       refY="0"
       refX="0"
       id="Arrow1Mstart"
       style="overflow:visible"
       inkscape:isstock="true">
      <path
         id="path5414"
         d="M 0,0 5,-5 -12.5,0 5,5 0,0 Z"
         style="fill:#000000;fill-opacity:1;fill-rule:evenodd;stroke:#000000;stroke-width:1pt;stroke-opacity:1"
         transform="matrix(0.4,0,0,0.4,4,0)"
         inkscape:connector-curvature="0" />
    </marker>
    <marker
       inkscape:stockid="Arrow1Lstart"
       orient="auto"
       refY="0"
       refX="0"
       id="marker5963"
       style="overflow:visible"
       inkscape:isstock="true">
      <path
         id="path5965"
         d="M 0,0 5,-5 -12.5,0 5,5 0,0 Z"
         style="fill:#000000;fill-opacity:1;fill-rule:evenodd;stroke:#000000;stroke-width:1pt;stroke-opacity:1"
         transform="matrix(0.8,0,0,0.8,10,0)"
         inkscape:connector-curvature="0" />
    </marker>
    <marker
       inkscape:stockid="Arrow1Lend"
       orient="auto"
       refY="0"
       refX="0"
       id="marker5954"
       style="overflow:visible"
       inkscape:isstock="true">
      <path
         id="path5956"
         d="M 0,0 5,-5 -12.5,0 5,5 0,0 Z"
         style="fill:#000000;fill-opacity:1;fill-rule:evenodd;stroke:#000000;stroke-width:1pt;stroke-opacity:1"
         transform="matrix(-0.8,0,0,-0.8,-10,0)"
         inkscape:connector-curvature="0" />
    </marker>
    <marker
       inkscape:isstock="true"
       style="overflow:visible"
       id="marker5950"
       refX="0"
       refY="0"
       orient="auto"
       inkscape:stockid="Arrow1Lend"
       inkscape:collect="always">
      <path
         transform="matrix(-0.8,0,0,-0.8,-10,0)"
         style="fill:#000000;fill-opacity:1;fill-rule:evenodd;stroke:#000000;stroke-width:1pt;stroke-opacity:1"
         d="M 0,0 5,-5 -12.5,0 5,5 0,0 Z"
         id="path5952"
         inkscape:connector-curvature="0" />
    </marker>
    <marker
       inkscape:stockid="Arrow1Lstart"
       orient="auto"
       refY="0"
       refX="0"
       id="marker5935"
       style="overflow:visible"
       inkscape:isstock="true">
      <path
         id="path5937"
         d="M 0,0 5,-5 -12.5,0 5,5 0,0 Z"
         style="fill:#000000;fill-opacity:1;fill-rule:evenodd;stroke:#000000;stroke-width:1pt;stroke-opacity:1"
         transform="matrix(0.8,0,0,0.8,10,0)"
         inkscape:connector-curvature="0" />
    </marker>
    <marker
       inkscape:isstock="true"
       style="overflow:visible"
       id="marker5931"
       refX="0"
       refY="0"
       orient="auto"
       inkscape:stockid="Arrow1Lend">
      <path
         transform="matrix(-0.8,0,0,-0.8,-10,0)"
         style="fill:#000000;fill-opacity:1;fill-rule:evenodd;stroke:#000000;stroke-width:1pt;stroke-opacity:1"
         d="M 0,0 5,-5 -12.5,0 5,5 0,0 Z"
         id="path5933"
         inkscape:connector-curvature="0" />
    </marker>
    <marker
       inkscape:isstock="true"
       style="overflow:visible"
       id="marker5873"
       refX="0"
       refY="0"
       orient="auto"
       inkscape:stockid="Arrow1Lend">
      <path
         transform="matrix(-0.8,0,0,-0.8,-10,0)"
         style="fill:#000000;fill-opacity:1;fill-rule:evenodd;stroke:#000000;stroke-width:1pt;stroke-opacity:1"
         d="M 0,0 5,-5 -12.5,0 5,5 0,0 Z"
         id="path5875"
         inkscape:connector-curvature="0" />
    </marker>
    <marker
       inkscape:isstock="true"
       style="overflow:visible"
       id="marker5869"
       refX="0"
       refY="0"
       orient="auto"
       inkscape:stockid="Arrow1Lstart">
      <path
         transform="matrix(0.8,0,0,0.8,10,0)"
         style="fill:#000000;fill-opacity:1;fill-rule:evenodd;stroke:#000000;stroke-width:1pt;stroke-opacity:1"
         d="M 0,0 5,-5 -12.5,0 5,5 0,0 Z"
         id="path5871"
         inkscape:connector-curvature="0" />
    </marker>
    <marker
       inkscape:stockid="Arrow1Lend"
       orient="auto"
       refY="0"
       refX="0"
       id="marker5772"
       style="overflow:visible"
       inkscape:isstock="true"
       inkscape:collect="always">
      <path
         id="path5774"
         d="M 0,0 5,-5 -12.5,0 5,5 0,0 Z"
         style="fill:#000000;fill-opacity:1;fill-rule:evenodd;stroke:#000000;stroke-width:1pt;stroke-opacity:1"
         transform="matrix(-0.8,0,0,-0.8,-10,0)"
         inkscape:connector-curvature="0" />
    </marker>
    <marker
       inkscape:isstock="true"
       style="overflow:visible"
       id="marker5743"
       refX="0"
       refY="0"
       orient="auto"
       inkscape:stockid="Arrow1Lend"
       inkscape:collect="always">
      <path
         transform="matrix(-0.8,0,0,-0.8,-10,0)"
         style="fill:#000000;fill-opacity:1;fill-rule:evenodd;stroke:#000000;stroke-width:1pt;stroke-opacity:1"
         d="M 0,0 5,-5 -12.5,0 5,5 0,0 Z"
         id="path5745"
         inkscape:connector-curvature="0" />
    </marker>
    <marker
       inkscape:isstock="true"
       style="overflow:visible"
       id="marker5739"
       refX="0"
       refY="0"
       orient="auto"
       inkscape:stockid="Arrow1Lstart">
      <path
         transform="matrix(0.8,0,0,0.8,10,0)"
         style="fill:#000000;fill-opacity:1;fill-rule:evenodd;stroke:#000000;stroke-width:1pt;stroke-opacity:1"
         d="M 0,0 5,-5 -12.5,0 5,5 0,0 Z"
         id="path5741"
         inkscape:connector-curvature="0" />
    </marker>
    <marker
       inkscape:stockid="Arrow1Lstart"
       orient="auto"
       refY="0"
       refX="0"
       id="marker5682"
       style="overflow:visible"
       inkscape:isstock="true"
       inkscape:collect="always">
      <path
         id="path5684"
         d="M 0,0 5,-5 -12.5,0 5,5 0,0 Z"
         style="fill:#000000;fill-opacity:1;fill-rule:evenodd;stroke:#000000;stroke-width:1pt;stroke-opacity:1"
         transform="matrix(0.8,0,0,0.8,10,0)"
         inkscape:connector-curvature="0" />
    </marker>
    <marker
       inkscape:stockid="Arrow1Lend"
       orient="auto"
       refY="0"
       refX="0"
       id="marker5678"
       style="overflow:visible"
       inkscape:isstock="true">
      <path
         id="path5680"
         d="M 0,0 5,-5 -12.5,0 5,5 0,0 Z"
         style="fill:#000000;fill-opacity:1;fill-rule:evenodd;stroke:#000000;stroke-width:1pt;stroke-opacity:1"
         transform="matrix(-0.8,0,0,-0.8,-10,0)"
         inkscape:connector-curvature="0" />
    </marker>
    <marker
       inkscape:stockid="Arrow1Lend"
       orient="auto"
       refY="0"
       refX="0"
       id="marker5674"
       style="overflow:visible"
       inkscape:isstock="true"
       inkscape:collect="always">
      <path
         id="path5676"
         d="M 0,0 5,-5 -12.5,0 5,5 0,0 Z"
         style="fill:#000000;fill-opacity:1;fill-rule:evenodd;stroke:#000000;stroke-width:1pt;stroke-opacity:1"
         transform="matrix(-0.8,0,0,-0.8,-10,0)"
         inkscape:connector-curvature="0" />
    </marker>
    <marker
       inkscape:stockid="Arrow1Lend"
       orient="auto"
       refY="0"
       refX="0"
       id="marker5668"
       style="overflow:visible"
       inkscape:isstock="true">
      <path
         id="path5670"
         d="M 0,0 5,-5 -12.5,0 5,5 0,0 Z"
         style="fill:#000000;fill-opacity:1;fill-rule:evenodd;stroke:#000000;stroke-width:1pt;stroke-opacity:1"
         transform="matrix(-0.8,0,0,-0.8,-10,0)"
         inkscape:connector-curvature="0" />
    </marker>
    <marker
       inkscape:stockid="Arrow1Lend"
       orient="auto"
       refY="0"
       refX="0"
       id="Arrow1Lend"
       style="overflow:visible"
       inkscape:isstock="true">
      <path
         id="path5411"
         d="M 0,0 5,-5 -12.5,0 5,5 0,0 Z"
         style="fill:#000000;fill-opacity:1;fill-rule:evenodd;stroke:#000000;stroke-width:1pt;stroke-opacity:1"
         transform="matrix(-0.8,0,0,-0.8,-10,0)"
         inkscape:connector-curvature="0" />
    </marker>
    <marker
       inkscape:stockid="Arrow1Lstart"
       orient="auto"
       refY="0"
       refX="0"
       id="Arrow1Lstart"
       style="overflow:visible"
       inkscape:isstock="true">
      <path
         id="path5408"
         d="M 0,0 5,-5 -12.5,0 5,5 0,0 Z"
         style="fill:#000000;fill-opacity:1;fill-rule:evenodd;stroke:#000000;stroke-width:1pt;stroke-opacity:1"
         transform="matrix(0.8,0,0,0.8,10,0)"
         inkscape:connector-curvature="0" />
    </marker>
  </defs>
  <g
     id="g6226"
     transform="translate(5.049491e-5,0)">
    <rect
       transform="matrix(1,0,-0.3959173,0.91828617,0,0)"
       style="color:#000000;display:inline;overflow:visible;visibility:visible;fill:#b3b3b3;fill-opacity:1;fill-rule:nonzero;stroke:#000000;stroke-width:5.41992331;stroke-miterlimit:4;stroke-dasharray:none;stroke-opacity:1;marker:none;enable-background:accumulate"
       id="rect2858-0"
       y="2.7099617"
       x="77.243813"
       height="182.83618"
       width="313.09872" />
    <path
       inkscape:connector-curvature="0"
       style="color:#000000;display:inline;overflow:visible;visibility:visible;fill:#000000;fill-opacity:0.2983426;fill-rule:nonzero;stroke:none;stroke-width:0.002;stroke-miterlimit:4;stroke-dasharray:none;stroke-opacity:1;marker:none;enable-background:accumulate"
       id="path5690"
       d="m 187.13717,141.62175 c -7.23616,-20.04776 -13.54188,-37.48106 -14.01271,-38.74063 -3.30915,-8.852639 -3.7924,-18.06951 -1.22734,-23.40863 2.84478,-5.921356 8.47454,-8.88606 17.68557,-9.313448 4.32826,-0.20083 7.07051,-0.09252 10.1144,0.399498 3.49454,0.564856 5.4048,1.155131 8.35172,2.580712 2.84854,1.377989 5.55537,3.650555 7.10286,5.96335 2.12899,3.181858 13.60803,28.938928 24.88164,55.830298 8.13151,19.39637 18.05518,43.64654 17.89104,43.71977 -0.12552,0.056 -56.74536,-0.47345 -57.25799,-0.53541 -0.22232,-0.0269 -5.6782,-14.74433 -13.52919,-36.49551 z" />
    <g
       id="g3663-9-5"
       transform="matrix(0.79657897,0.11742288,-0.14814182,0.631399,28.295757,-432.54234)">
      <path
         inkscape:connector-curvature="0"
         style="fill:none;stroke:#000000;stroke-width:1px;stroke-linecap:butt;stroke-linejoin:miter;stroke-opacity:1"
         id="path2820-6-6"
         d="m 388.57143,893.79076 -57.14285,-130 c 0,0 -30.0247,-58.84827 4.28571,-70.00001 27.07438,-8.79984 37.32196,9.59496 40,14.64286 27.54455,51.91936 84.64285,173.21429 84.64285,173.21429 l -0.71428,0 -71.07143,12.14286 z" />
      <path
         inkscape:connector-curvature="0"
         style="color:#000000;display:inline;overflow:visible;visibility:visible;fill:#ffccaa;fill-opacity:1;fill-rule:nonzero;stroke:#000000;stroke-width:0.002;stroke-miterlimit:4;stroke-dasharray:none;stroke-opacity:1;marker:none;enable-background:accumulate"
         id="path2824-1-1"
         d="m 360.32021,827.78041 c -15.74169,-35.7991 -29.44655,-66.92657 -30.45523,-69.17214 -7.08929,-15.78239 -10.8761,-32.88254 -9.6176,-43.43026 1.39575,-11.69796 7.19746,-18.50389 18.22574,-21.38044 5.18218,-1.35169 8.54724,-1.76827 12.41155,-1.53649 4.43642,0.26609 6.95929,0.93715 11.03011,2.93391 3.93491,1.9301 8.0085,5.56248 10.68932,9.53159 3.68818,5.46055 26.56068,50.9623 49.57778,98.62829 16.60192,34.38082 37.06388,77.41994 36.89013,77.59369 -0.13286,0.13286 -69.01932,11.92114 -69.66286,11.92114 -0.27909,0 -12.00972,-26.24842 -29.08894,-65.08929 z" />
      <path
         inkscape:connector-curvature="0"
         style="color:#000000;display:inline;overflow:visible;visibility:visible;opacity:0.92000002;fill:#ffe6d5;fill-opacity:1;fill-rule:nonzero;stroke:none;stroke-width:0.2;marker:none;enable-background:accumulate"
         id="path2824-7-1-4"
         d="m 334.75785,756.75053 c -7.08929,-15.78239 -10.28437,-26.89033 -9.02587,-37.43805 1.39575,-11.69796 5.8085,-16.73613 16.83678,-19.61268 12.44766,-3.59459 20.03902,-1.91353 27.39013,8.75815 11.42622,25.66382 13.40166,29.05484 15.06365,35.48866 -0.13286,0.13286 -42.89663,15.49027 -44.57776,16.18518 -1.72922,0.71479 -4.94789,-2.09377 -5.68693,-3.38126 z" />
    </g>
    <path
       sodipodi:nodetypes="cc"
       inkscape:connector-curvature="0"
       id="path5672"
       d="m 166.69233,71.697127 0,37.313633"
       style="fill:none;fill-rule:evenodd;stroke:#000000;stroke-width:1px;stroke-linecap:butt;stroke-linejoin:miter;stroke-opacity:1;marker-start:url(#marker5682);marker-end:url(#marker5674)" />
  </g>
  <g
     id="g5747"
     transform="translate(37.060081,-0.29412562)">
    <rect
       width="313.09872"
       height="182.83618"
       x="400.31058"
       y="3.0302601"
       id="rect5718"
       style="color:#000000;display:inline;overflow:visible;visibility:visible;fill:#b3b3b3;fill-opacity:1;fill-rule:nonzero;stroke:#000000;stroke-width:5.41992331;stroke-miterlimit:4;stroke-dasharray:none;stroke-opacity:1;marker:none;enable-background:accumulate"
       transform="matrix(1,0,-0.3959173,0.91828617,0,0)" />
    <path
       d="m 510.07714,141.91588 c -7.23616,-20.04776 -13.54188,-37.48106 -14.01271,-38.74063 -3.30915,-8.852643 -3.7924,-18.069514 -1.22734,-23.408634 2.84478,-5.921356 8.47454,-8.88606 17.68557,-9.313448 4.32826,-0.20083 7.07051,-0.09252 10.1144,0.399498 3.49454,0.564856 5.4048,1.155131 8.35172,2.580712 2.84854,1.377989 5.55537,3.650555 7.10286,5.96335 2.12899,3.181858 13.60803,28.938932 24.88164,55.830302 8.13151,19.39637 18.05518,43.64654 17.89104,43.71977 -0.12552,0.056 -56.74536,-0.47345 -57.25799,-0.53541 -0.22232,-0.0269 -5.6782,-14.74433 -13.52919,-36.49551 z"
       id="path5720"
       style="color:#000000;display:inline;overflow:visible;visibility:visible;fill:#000000;fill-opacity:0.2983426;fill-rule:nonzero;stroke:none;stroke-width:0.002;stroke-miterlimit:4;stroke-dasharray:none;stroke-opacity:1;marker:none;enable-background:accumulate"
       inkscape:connector-curvature="0" />
    <g
       transform="matrix(0.79717939,0.09917984,-0.14825348,0.53330368,349.25624,-338.55557)"
       id="g5722">
      <path
         d="m 388.57143,893.79076 -57.14285,-130 c 0,0 -30.0247,-58.84827 4.28571,-70.00001 27.07438,-8.79984 37.32196,9.59496 40,14.64286 27.54455,51.91936 84.64285,173.21429 84.64285,173.21429 l -0.71428,0 -71.07143,12.14286 z"
         id="path5724"
         style="fill:none;stroke:#000000;stroke-width:1px;stroke-linecap:butt;stroke-linejoin:miter;stroke-opacity:1"
         inkscape:connector-curvature="0" />
      <path
         d="m 360.32021,827.78041 c -15.74169,-35.7991 -29.44655,-66.92657 -30.45523,-69.17214 -7.08929,-15.78239 -10.8761,-32.88254 -9.6176,-43.43026 1.39575,-11.69796 7.19746,-18.50389 18.22574,-21.38044 5.18218,-1.35169 8.54724,-1.76827 12.41155,-1.53649 4.43642,0.26609 6.95929,0.93715 11.03011,2.93391 3.93491,1.9301 8.0085,5.56248 10.68932,9.53159 3.68818,5.46055 26.56068,50.9623 49.57778,98.62829 16.60192,34.38082 37.06388,77.41994 36.89013,77.59369 -0.13286,0.13286 -69.01932,11.92114 -69.66286,11.92114 -0.27909,0 -12.00972,-26.24842 -29.08894,-65.08929 z"
         id="path5726"
         style="color:#000000;display:inline;overflow:visible;visibility:visible;fill:#ffccaa;fill-opacity:1;fill-rule:nonzero;stroke:#000000;stroke-width:0.002;stroke-miterlimit:4;stroke-dasharray:none;stroke-opacity:1;marker:none;enable-background:accumulate"
         inkscape:connector-curvature="0" />
      <path
         d="m 334.75785,756.75053 c -7.08929,-15.78239 -10.28437,-26.89033 -9.02587,-37.43805 1.39575,-11.69796 5.8085,-16.73613 16.83678,-19.61268 12.44766,-3.59459 20.03902,-1.91353 27.39013,8.75815 11.42622,25.66382 13.40166,29.05484 15.06365,35.48866 -0.13286,0.13286 -42.89663,15.49027 -44.57776,16.18518 -1.72922,0.71479 -4.94789,-2.09377 -5.68693,-3.38126 z"
         id="path5728"
         style="color:#000000;display:inline;overflow:visible;visibility:visible;opacity:0.92000002;fill:#ffe6d5;fill-opacity:1;fill-rule:nonzero;stroke:none;stroke-width:0.2;marker:none;enable-background:accumulate"
         inkscape:connector-curvature="0" />
    </g>
    <path
       style="fill:none;fill-rule:evenodd;stroke:#000000;stroke-width:1px;stroke-linecap:butt;stroke-linejoin:miter;stroke-opacity:1;marker-end:url(#marker5743)"
       d="m 489.6323,71.991253 0,37.313637"
       id="path5730"
       inkscape:connector-curvature="0"
       sodipodi:nodetypes="cc" />
  </g>
  <g
     id="g6193"
     transform="translate(-719.99994,240)">
    <rect
       width="313.09872"
       height="182.83618"
       x="1157.2438"
       y="2.7099617"
       id="rect6064"
       style="color:#000000;display:inline;overflow:visible;visibility:visible;fill:#b3b3b3;fill-opacity:1;fill-rule:nonzero;stroke:#000000;stroke-width:5.41992331;stroke-miterlimit:4;stroke-dasharray:none;stroke-opacity:1;marker:none;enable-background:accumulate"
       transform="matrix(1,0,-0.3959173,0.91828617,0,0)" />
    <path
       d="m 1204.1322,161.80782 c -7.2362,-20.04776 -13.5419,-37.48106 -14.0127,-38.74063 -3.3092,-8.85264 -3.7925,-18.06951 -1.2274,-23.40863 2.8448,-5.921356 8.4746,-8.88606 17.6856,-9.313448 4.3282,-0.20083 7.0705,-0.09252 10.1144,0.399498 3.4945,0.564856 5.4048,1.155131 8.3517,2.580712 2.8485,1.377989 5.5554,3.650555 7.1029,5.96335 2.129,3.181858 13.608,28.938928 24.8816,55.830298 8.1315,19.39637 18.0552,43.64654 17.891,43.71977 -0.1255,0.056 -56.7453,-0.47345 -57.258,-0.53541 -0.2223,-0.0269 -5.6781,-14.74433 -13.5291,-36.49551 z"
       id="path6066"
       style="color:#000000;display:inline;overflow:visible;visibility:visible;fill:#000000;fill-opacity:0.2983426;fill-rule:nonzero;stroke:none;stroke-width:0.002;stroke-miterlimit:4;stroke-dasharray:none;stroke-opacity:1;marker:none;enable-background:accumulate"
       inkscape:connector-curvature="0" />
    <g
       transform="matrix(0.79717939,0.09917984,-0.14825348,0.53330368,1043.3113,-318.66363)"
       id="g6068">
      <path
         d="m 388.57143,893.79076 -57.14285,-130 c 0,0 -30.0247,-58.84827 4.28571,-70.00001 27.07438,-8.79984 37.32196,9.59496 40,14.64286 27.54455,51.91936 84.64285,173.21429 84.64285,173.21429 l -0.71428,0 -71.07143,12.14286 z"
         id="path6070"
         style="fill:none;stroke:#000000;stroke-width:1px;stroke-linecap:butt;stroke-linejoin:miter;stroke-opacity:1"
         inkscape:connector-curvature="0" />
      <path
         d="m 360.32021,827.78041 c -15.74169,-35.7991 -29.44655,-66.92657 -30.45523,-69.17214 -7.08929,-15.78239 -10.8761,-32.88254 -9.6176,-43.43026 1.39575,-11.69796 7.19746,-18.50389 18.22574,-21.38044 5.18218,-1.35169 8.54724,-1.76827 12.41155,-1.53649 4.43642,0.26609 6.95929,0.93715 11.03011,2.93391 3.93491,1.9301 8.0085,5.56248 10.68932,9.53159 3.68818,5.46055 26.56068,50.9623 49.57778,98.62829 16.60192,34.38082 37.06388,77.41994 36.89013,77.59369 -0.13286,0.13286 -69.01932,11.92114 -69.66286,11.92114 -0.27909,0 -12.00972,-26.24842 -29.08894,-65.08929 z"
         id="path6072"
         style="color:#000000;display:inline;overflow:visible;visibility:visible;fill:#ffccaa;fill-opacity:1;fill-rule:nonzero;stroke:#000000;stroke-width:0.002;stroke-miterlimit:4;stroke-dasharray:none;stroke-opacity:1;marker:none;enable-background:accumulate"
         inkscape:connector-curvature="0" />
      <path
         d="m 334.75785,756.75053 c -7.08929,-15.78239 -10.28437,-26.89033 -9.02587,-37.43805 1.39575,-11.69796 5.8085,-16.73613 16.83678,-19.61268 12.44766,-3.59459 20.03902,-1.91353 27.39013,8.75815 11.42622,25.66382 13.40166,29.05484 15.06365,35.48866 -0.13286,0.13286 -42.89663,15.49027 -44.57776,16.18518 -1.72922,0.71479 -4.94789,-2.09377 -5.68693,-3.38126 z"
         id="path6074"
         style="color:#000000;display:inline;overflow:visible;visibility:visible;opacity:0.92000002;fill:#ffe6d5;fill-opacity:1;fill-rule:nonzero;stroke:none;stroke-width:0.2;marker:none;enable-background:accumulate"
         inkscape:connector-curvature="0" />
    </g>
    <path
       style="fill:none;fill-rule:evenodd;stroke:#000000;stroke-width:1px;stroke-linecap:butt;stroke-linejoin:miter;stroke-opacity:1;marker-end:url(#marker6136)"
       d="m 1360.3559,35.196081 -121.004,62.192402"
       id="path6076"
       inkscape:connector-curvature="0"
       sodipodi:nodetypes="cc" />
    <path
       inkscape:connector-curvature="0"
       style="color:#000000;display:inline;overflow:visible;visibility:visible;fill:#000000;fill-opacity:0.2983426;fill-rule:nonzero;stroke:none;stroke-width:0.002;stroke-miterlimit:4;stroke-dasharray:none;stroke-opacity:1;marker:none;enable-background:accumulate"
       id="path6080"
       d="m 1204.1322,161.80782 c -7.2362,-20.04776 -13.5419,-37.48106 -14.0127,-38.74063 -3.3092,-8.85264 -3.7925,-18.06951 -1.2274,-23.40863 2.8448,-5.921356 8.4746,-8.88606 17.6856,-9.313448 4.3282,-0.20083 7.0705,-0.09252 10.1144,0.399498 3.4945,0.564856 5.4048,1.155131 8.3517,2.580712 2.8485,1.377989 5.5554,3.650555 7.1029,5.96335 2.129,3.181858 13.608,28.938928 24.8816,55.830298 8.1315,19.39637 18.0552,43.64654 17.891,43.71977 -0.1255,0.056 -56.7453,-0.47345 -57.258,-0.53541 -0.2223,-0.0269 -5.6781,-14.74433 -13.5291,-36.49551 z" />
    <g
       id="g6082"
       transform="matrix(0.79717939,0.09917984,-0.14825348,0.53330368,1043.3113,-318.66363)">
      <path
         inkscape:connector-curvature="0"
         style="fill:none;stroke:#000000;stroke-width:1px;stroke-linecap:butt;stroke-linejoin:miter;stroke-opacity:1"
         id="path6084"
         d="m 388.57143,893.79076 -57.14285,-130 c 0,0 -30.0247,-58.84827 4.28571,-70.00001 27.07438,-8.79984 37.32196,9.59496 40,14.64286 27.54455,51.91936 84.64285,173.21429 84.64285,173.21429 l -0.71428,0 -71.07143,12.14286 z" />
      <path
         inkscape:connector-curvature="0"
         style="color:#000000;display:inline;overflow:visible;visibility:visible;fill:#ffccaa;fill-opacity:1;fill-rule:nonzero;stroke:#000000;stroke-width:0.002;stroke-miterlimit:4;stroke-dasharray:none;stroke-opacity:1;marker:none;enable-background:accumulate"
         id="path6086"
         d="m 360.32021,827.78041 c -15.74169,-35.7991 -29.44655,-66.92657 -30.45523,-69.17214 -7.08929,-15.78239 -10.8761,-32.88254 -9.6176,-43.43026 1.39575,-11.69796 7.19746,-18.50389 18.22574,-21.38044 5.18218,-1.35169 8.54724,-1.76827 12.41155,-1.53649 4.43642,0.26609 6.95929,0.93715 11.03011,2.93391 3.93491,1.9301 8.0085,5.56248 10.68932,9.53159 3.68818,5.46055 26.56068,50.9623 49.57778,98.62829 16.60192,34.38082 37.06388,77.41994 36.89013,77.59369 -0.13286,0.13286 -69.01932,11.92114 -69.66286,11.92114 -0.27909,0 -12.00972,-26.24842 -29.08894,-65.08929 z" />
      <path
         inkscape:connector-curvature="0"
         style="color:#000000;display:inline;overflow:visible;visibility:visible;opacity:0.92000002;fill:#ffe6d5;fill-opacity:1;fill-rule:nonzero;stroke:none;stroke-width:0.2;marker:none;enable-background:accumulate"
         id="path6088"
         d="m 334.75785,756.75053 c -7.08929,-15.78239 -10.28437,-26.89033 -9.02587,-37.43805 1.39575,-11.69796 5.8085,-16.73613 16.83678,-19.61268 12.44766,-3.59459 20.03902,-1.91353 27.39013,8.75815 11.42622,25.66382 13.40166,29.05484 15.06365,35.48866 -0.13286,0.13286 -42.89663,15.49027 -44.57776,16.18518 -1.72922,0.71479 -4.94789,-2.09377 -5.68693,-3.38126 z" />
    </g>
    <path
       sodipodi:nodetypes="cc"
       inkscape:connector-curvature="0"
       id="path6092"
       d="M 1238.5753,97.34219 C 1220.4088,41.977511 1322.8368,-6.8249094 1359.1699,33.833528"
       style="fill:none;fill-rule:evenodd;stroke:#000000;stroke-width:1;stroke-linecap:butt;stroke-linejoin:miter;stroke-miterlimit:4;stroke-dasharray:1, 2;stroke-dashoffset:0;stroke-opacity:1;marker-end:url(#marker5983)" />
    <g
       transform="translate(397.06003,-0.29412562)"
       id="g5801">
      <g
         id="g5776">
        <rect
           transform="matrix(1,0,-0.3959173,0.91828617,0,0)"
           style="color:#000000;display:inline;overflow:visible;visibility:visible;fill:#b3b3b3;fill-opacity:1;fill-rule:nonzero;stroke:#000000;stroke-width:5.41992331;stroke-miterlimit:4;stroke-dasharray:none;stroke-opacity:1;marker:none;enable-background:accumulate"
           id="rect5758"
           y="3.0302601"
           x="400.31058"
           height="182.83618"
           width="313.09872" />
        <path
           inkscape:connector-curvature="0"
           style="color:#000000;display:inline;overflow:visible;visibility:visible;fill:#000000;fill-opacity:0.2983426;fill-rule:nonzero;stroke:none;stroke-width:0.002;stroke-miterlimit:4;stroke-dasharray:none;stroke-opacity:1;marker:none;enable-background:accumulate"
           id="path5760"
           d="m 447.07213,162.10195 c -7.23616,-20.04776 -13.54188,-37.48106 -14.01271,-38.74063 -3.30915,-8.85264 -3.7924,-18.06951 -1.22734,-23.408634 2.84478,-5.921356 8.47454,-8.88606 17.68557,-9.313448 4.32826,-0.20083 7.07051,-0.09252 10.1144,0.399498 3.49454,0.564856 5.4048,1.155131 8.35172,2.580712 2.84854,1.377989 5.55537,3.650555 7.10286,5.96335 2.12899,3.181862 13.60803,28.938932 24.88164,55.830302 8.13151,19.39637 18.05518,43.64654 17.89104,43.71977 -0.12552,0.056 -56.74536,-0.47345 -57.25799,-0.53541 -0.22232,-0.0269 -5.6782,-14.74433 -13.52919,-36.49551 z" />
        <g
           id="g5762"
           transform="matrix(0.79717939,0.09917984,-0.14825348,0.53330368,286.25123,-318.3695)">
          <path
             inkscape:connector-curvature="0"
             style="fill:none;stroke:#000000;stroke-width:1px;stroke-linecap:butt;stroke-linejoin:miter;stroke-opacity:1"
             id="path5764"
             d="m 388.57143,893.79076 -57.14285,-130 c 0,0 -30.0247,-58.84827 4.28571,-70.00001 27.07438,-8.79984 37.32196,9.59496 40,14.64286 27.54455,51.91936 84.64285,173.21429 84.64285,173.21429 l -0.71428,0 -71.07143,12.14286 z" />
          <path
             inkscape:connector-curvature="0"
             style="color:#000000;display:inline;overflow:visible;visibility:visible;fill:#ffccaa;fill-opacity:1;fill-rule:nonzero;stroke:#000000;stroke-width:0.002;stroke-miterlimit:4;stroke-dasharray:none;stroke-opacity:1;marker:none;enable-background:accumulate"
             id="path5766"
             d="m 360.32021,827.78041 c -15.74169,-35.7991 -29.44655,-66.92657 -30.45523,-69.17214 -7.08929,-15.78239 -10.8761,-32.88254 -9.6176,-43.43026 1.39575,-11.69796 7.19746,-18.50389 18.22574,-21.38044 5.18218,-1.35169 8.54724,-1.76827 12.41155,-1.53649 4.43642,0.26609 6.95929,0.93715 11.03011,2.93391 3.93491,1.9301 8.0085,5.56248 10.68932,9.53159 3.68818,5.46055 26.56068,50.9623 49.57778,98.62829 16.60192,34.38082 37.06388,77.41994 36.89013,77.59369 -0.13286,0.13286 -69.01932,11.92114 -69.66286,11.92114 -0.27909,0 -12.00972,-26.24842 -29.08894,-65.08929 z" />
          <path
             inkscape:connector-curvature="0"
             style="color:#000000;display:inline;overflow:visible;visibility:visible;opacity:0.92000002;fill:#ffe6d5;fill-opacity:1;fill-rule:nonzero;stroke:none;stroke-width:0.2;marker:none;enable-background:accumulate"
             id="path5768"
             d="m 334.75785,756.75053 c -7.08929,-15.78239 -10.28437,-26.89033 -9.02587,-37.43805 1.39575,-11.69796 5.8085,-16.73613 16.83678,-19.61268 12.44766,-3.59459 20.03902,-1.91353 27.39013,8.75815 11.42622,25.66382 13.40166,29.05484 15.06365,35.48866 -0.13286,0.13286 -42.89663,15.49027 -44.57776,16.18518 -1.72922,0.71479 -4.94789,-2.09377 -5.68693,-3.38126 z" />
        </g>
        <path
           sodipodi:nodetypes="cc"
           inkscape:connector-curvature="0"
           id="path5770"
           d="M 534.17392,70.357054 482.29191,97.682609"
           style="fill:none;fill-rule:evenodd;stroke:#000000;stroke-width:1px;stroke-linecap:butt;stroke-linejoin:miter;stroke-opacity:1;marker-end:url(#marker5772)" />
      </g>
      <g
         id="g5785">
        <path
           d="m 447.07213,162.10195 c -7.23616,-20.04776 -13.54188,-37.48106 -14.01271,-38.74063 -3.30915,-8.85264 -3.7924,-18.06951 -1.22734,-23.408634 2.84478,-5.921356 8.47454,-8.88606 17.68557,-9.313448 4.32826,-0.20083 7.07051,-0.09252 10.1144,0.399498 3.49454,0.564856 5.4048,1.155131 8.35172,2.580712 2.84854,1.377989 5.55537,3.650555 7.10286,5.96335 2.12899,3.181862 13.60803,28.938932 24.88164,55.830302 8.13151,19.39637 18.05518,43.64654 17.89104,43.71977 -0.12552,0.056 -56.74536,-0.47345 -57.25799,-0.53541 -0.22232,-0.0269 -5.6782,-14.74433 -13.52919,-36.49551 z"
           id="path5789"
           style="color:#000000;display:inline;overflow:visible;visibility:visible;fill:#000000;fill-opacity:0.2983426;fill-rule:nonzero;stroke:none;stroke-width:0.002;stroke-miterlimit:4;stroke-dasharray:none;stroke-opacity:1;marker:none;enable-background:accumulate"
           inkscape:connector-curvature="0" />
        <g
           transform="matrix(0.79717939,0.09917984,-0.14825348,0.53330368,286.25123,-318.3695)"
           id="g5791">
          <path
             d="m 388.57143,893.79076 -57.14285,-130 c 0,0 -30.0247,-58.84827 4.28571,-70.00001 27.07438,-8.79984 37.32196,9.59496 40,14.64286 27.54455,51.91936 84.64285,173.21429 84.64285,173.21429 l -0.71428,0 -71.07143,12.14286 z"
             id="path5793"
             style="fill:none;stroke:#000000;stroke-width:1px;stroke-linecap:butt;stroke-linejoin:miter;stroke-opacity:1"
             inkscape:connector-curvature="0" />
          <path
             d="m 360.32021,827.78041 c -15.74169,-35.7991 -29.44655,-66.92657 -30.45523,-69.17214 -7.08929,-15.78239 -10.8761,-32.88254 -9.6176,-43.43026 1.39575,-11.69796 7.19746,-18.50389 18.22574,-21.38044 5.18218,-1.35169 8.54724,-1.76827 12.41155,-1.53649 4.43642,0.26609 6.95929,0.93715 11.03011,2.93391 3.93491,1.9301 8.0085,5.56248 10.68932,9.53159 3.68818,5.46055 26.56068,50.9623 49.57778,98.62829 16.60192,34.38082 37.06388,77.41994 36.89013,77.59369 -0.13286,0.13286 -69.01932,11.92114 -69.66286,11.92114 -0.27909,0 -12.00972,-26.24842 -29.08894,-65.08929 z"
             id="path5795"
             style="color:#000000;display:inline;overflow:visible;visibility:visible;fill:#ffccaa;fill-opacity:1;fill-rule:nonzero;stroke:#000000;stroke-width:0.002;stroke-miterlimit:4;stroke-dasharray:none;stroke-opacity:1;marker:none;enable-background:accumulate"
             inkscape:connector-curvature="0" />
          <path
             d="m 334.75785,756.75053 c -7.08929,-15.78239 -10.28437,-26.89033 -9.02587,-37.43805 1.39575,-11.69796 5.8085,-16.73613 16.83678,-19.61268 12.44766,-3.59459 20.03902,-1.91353 27.39013,8.75815 11.42622,25.66382 13.40166,29.05484 15.06365,35.48866 -0.13286,0.13286 -42.89663,15.49027 -44.57776,16.18518 -1.72922,0.71479 -4.94789,-2.09377 -5.68693,-3.38126 z"
             id="path5797"
             style="color:#000000;display:inline;overflow:visible;visibility:visible;opacity:0.92000002;fill:#ffe6d5;fill-opacity:1;fill-rule:nonzero;stroke:none;stroke-width:0.2;marker:none;enable-background:accumulate"
             inkscape:connector-curvature="0" />
        </g>
        <path
           style="fill:none;fill-rule:evenodd;stroke:#000000;stroke-width:1px;stroke-linecap:butt;stroke-linejoin:miter;stroke-opacity:1;marker-end:url(#marker5950)"
           d="M 534.17392,70.357054 482.29191,97.682609"
           id="path5799"
           inkscape:connector-curvature="0"
           sodipodi:nodetypes="cc" />
      </g>
    </g>
  </g>
  <g
     id="g6251"
     transform="translate(-2.4752545e-5,40)">
    <g
       id="g6042"
       transform="translate(-1042.9399,459.70587)">
      <rect
         width="313.09872"
         height="182.83618"
         x="1120.3105"
         y="3.0302601"
         id="rect6044"
         style="color:#000000;display:inline;overflow:visible;visibility:visible;fill:#b3b3b3;fill-opacity:1;fill-rule:nonzero;stroke:#000000;stroke-width:5.41992331;stroke-miterlimit:4;stroke-dasharray:none;stroke-opacity:1;marker:none;enable-background:accumulate"
         transform="matrix(1,0,-0.3959173,0.91828617,0,0)" />
      <path
         d="m 1167.0721,162.10195 c -7.2361,-20.04776 -13.5418,-37.48106 -14.0127,-38.74063 -3.3091,-8.85264 -3.7924,-18.06951 -1.2273,-23.408634 2.8448,-5.921356 8.4745,-8.88606 17.6856,-9.313448 4.3282,-0.20083 7.0705,-0.09252 10.1144,0.399498 3.4945,0.564856 5.4048,1.155131 8.3517,2.580712 2.8485,1.377989 5.5553,3.650555 7.1028,5.96335 2.129,3.181862 13.6081,28.938932 24.8817,55.830302 8.1315,19.39637 18.0552,43.64654 17.891,43.71977 -0.1255,0.056 -56.7453,-0.47345 -57.258,-0.53541 -0.2223,-0.0269 -5.6782,-14.74433 -13.5292,-36.49551 z"
         id="path6046"
         style="color:#000000;display:inline;overflow:visible;visibility:visible;fill:#000000;fill-opacity:0.2983426;fill-rule:nonzero;stroke:none;stroke-width:0.002;stroke-miterlimit:4;stroke-dasharray:none;stroke-opacity:1;marker:none;enable-background:accumulate"
         inkscape:connector-curvature="0" />
      <g
         transform="matrix(0.79657897,0.11742288,-0.14814182,0.631399,1011.2357,-412.24821)"
         id="g6048">
        <path
           d="m 388.57143,893.79076 -57.14285,-130 c 0,0 -30.0247,-58.84827 4.28571,-70.00001 27.07438,-8.79984 37.32196,9.59496 40,14.64286 27.54455,51.91936 84.64285,173.21429 84.64285,173.21429 l -0.71428,0 -71.07143,12.14286 z"
           id="path6050"
           style="fill:none;stroke:#000000;stroke-width:1px;stroke-linecap:butt;stroke-linejoin:miter;stroke-opacity:1"
           inkscape:connector-curvature="0" />
        <path
           d="m 360.32021,827.78041 c -15.74169,-35.7991 -29.44655,-66.92657 -30.45523,-69.17214 -7.08929,-15.78239 -10.8761,-32.88254 -9.6176,-43.43026 1.39575,-11.69796 7.19746,-18.50389 18.22574,-21.38044 5.18218,-1.35169 8.54724,-1.76827 12.41155,-1.53649 4.43642,0.26609 6.95929,0.93715 11.03011,2.93391 3.93491,1.9301 8.0085,5.56248 10.68932,9.53159 3.68818,5.46055 26.56068,50.9623 49.57778,98.62829 16.60192,34.38082 37.06388,77.41994 36.89013,77.59369 -0.13286,0.13286 -69.01932,11.92114 -69.66286,11.92114 -0.27909,0 -12.00972,-26.24842 -29.08894,-65.08929 z"
           id="path6052"
           style="color:#000000;display:inline;overflow:visible;visibility:visible;fill:#ffccaa;fill-opacity:1;fill-rule:nonzero;stroke:#000000;stroke-width:0.002;stroke-miterlimit:4;stroke-dasharray:none;stroke-opacity:1;marker:none;enable-background:accumulate"
           inkscape:connector-curvature="0" />
        <path
           d="m 334.75785,756.75053 c -7.08929,-15.78239 -10.28437,-26.89033 -9.02587,-37.43805 1.39575,-11.69796 5.8085,-16.73613 16.83678,-19.61268 12.44766,-3.59459 20.03902,-1.91353 27.39013,8.75815 11.42622,25.66382 13.40166,29.05484 15.06365,35.48866 -0.13286,0.13286 -42.89663,15.49027 -44.57776,16.18518 -1.72922,0.71479 -4.94789,-2.09377 -5.68693,-3.38126 z"
           id="path6054"
           style="color:#000000;display:inline;overflow:visible;visibility:visible;opacity:0.92000002;fill:#ffe6d5;fill-opacity:1;fill-rule:nonzero;stroke:none;stroke-width:0.2;marker:none;enable-background:accumulate"
           inkscape:connector-curvature="0" />
      </g>
      <path
         style="fill:none;fill-rule:evenodd;stroke:#000000;stroke-width:1px;stroke-linecap:butt;stroke-linejoin:miter;stroke-opacity:1;marker-start:url(#marker5935)"
         d="m 1149.6323,91.991253 0,37.313637"
         id="path6056"
         inkscape:connector-curvature="0"
         sodipodi:nodetypes="cc" />
    </g>
    <g
       transform="translate(360.00008,460)"
       id="g6235">
      <rect
         transform="matrix(1,0,-0.3959173,0.91828617,0,0)"
         style="color:#000000;display:inline;overflow:visible;visibility:visible;fill:#b3b3b3;fill-opacity:1;fill-rule:nonzero;stroke:#000000;stroke-width:5.41992331;stroke-miterlimit:4;stroke-dasharray:none;stroke-opacity:1;marker:none;enable-background:accumulate"
         id="rect6237"
         y="2.7099617"
         x="77.243813"
         height="182.83618"
         width="313.09872" />
      <path
         inkscape:connector-curvature="0"
         style="color:#000000;display:inline;overflow:visible;visibility:visible;fill:#000000;fill-opacity:0.2983426;fill-rule:nonzero;stroke:none;stroke-width:0.002;stroke-miterlimit:4;stroke-dasharray:none;stroke-opacity:1;marker:none;enable-background:accumulate"
         id="path6239"
         d="m 187.13717,141.62175 c -7.23616,-20.04776 -13.54188,-37.48106 -14.01271,-38.74063 -3.30915,-8.852639 -3.7924,-18.06951 -1.22734,-23.40863 2.84478,-5.921356 8.47454,-8.88606 17.68557,-9.313448 4.32826,-0.20083 7.07051,-0.09252 10.1144,0.399498 3.49454,0.564856 5.4048,1.155131 8.35172,2.580712 2.84854,1.377989 5.55537,3.650555 7.10286,5.96335 2.12899,3.181858 13.60803,28.938928 24.88164,55.830298 8.13151,19.39637 18.05518,43.64654 17.89104,43.71977 -0.12552,0.056 -56.74536,-0.47345 -57.25799,-0.53541 -0.22232,-0.0269 -5.6782,-14.74433 -13.52919,-36.49551 z" />
      <g
         id="g6241"
         transform="matrix(0.79657897,0.11742288,-0.14814182,0.631399,28.295757,-432.54234)">
        <path
           inkscape:connector-curvature="0"
           style="fill:none;stroke:#000000;stroke-width:1px;stroke-linecap:butt;stroke-linejoin:miter;stroke-opacity:1"
           id="path6243"
           d="m 388.57143,893.79076 -57.14285,-130 c 0,0 -30.0247,-58.84827 4.28571,-70.00001 27.07438,-8.79984 37.32196,9.59496 40,14.64286 27.54455,51.91936 84.64285,173.21429 84.64285,173.21429 l -0.71428,0 -71.07143,12.14286 z" />
        <path
           inkscape:connector-curvature="0"
           style="color:#000000;display:inline;overflow:visible;visibility:visible;fill:#ffccaa;fill-opacity:1;fill-rule:nonzero;stroke:#000000;stroke-width:0.002;stroke-miterlimit:4;stroke-dasharray:none;stroke-opacity:1;marker:none;enable-background:accumulate"
           id="path6245"
           d="m 360.32021,827.78041 c -15.74169,-35.7991 -29.44655,-66.92657 -30.45523,-69.17214 -7.08929,-15.78239 -10.8761,-32.88254 -9.6176,-43.43026 1.39575,-11.69796 7.19746,-18.50389 18.22574,-21.38044 5.18218,-1.35169 8.54724,-1.76827 12.41155,-1.53649 4.43642,0.26609 6.95929,0.93715 11.03011,2.93391 3.93491,1.9301 8.0085,5.56248 10.68932,9.53159 3.68818,5.46055 26.56068,50.9623 49.57778,98.62829 16.60192,34.38082 37.06388,77.41994 36.89013,77.59369 -0.13286,0.13286 -69.01932,11.92114 -69.66286,11.92114 -0.27909,0 -12.00972,-26.24842 -29.08894,-65.08929 z" />
        <path
           inkscape:connector-curvature="0"
           style="color:#000000;display:inline;overflow:visible;visibility:visible;opacity:0.92000002;fill:#ffe6d5;fill-opacity:1;fill-rule:nonzero;stroke:none;stroke-width:0.2;marker:none;enable-background:accumulate"
           id="path6247"
           d="m 334.75785,756.75053 c -7.08929,-15.78239 -10.28437,-26.89033 -9.02587,-37.43805 1.39575,-11.69796 5.8085,-16.73613 16.83678,-19.61268 12.44766,-3.59459 20.03902,-1.91353 27.39013,8.75815 11.42622,25.66382 13.40166,29.05484 15.06365,35.48866 -0.13286,0.13286 -42.89663,15.49027 -44.57776,16.18518 -1.72922,0.71479 -4.94789,-2.09377 -5.68693,-3.38126 z" />
      </g>
      <path
         sodipodi:nodetypes="cc"
         inkscape:connector-curvature="0"
         id="path6249"
         d="m 166.69233,71.697127 0,37.313633"
         style="fill:none;fill-rule:evenodd;stroke:#000000;stroke-width:1px;stroke-linecap:butt;stroke-linejoin:miter;stroke-opacity:1;marker-start:url(#marker5682);marker-end:url(#marker5674)" />
    </g>
  </g>
  <text
     xml:space="preserve"
     style="font-style:normal;font-weight:normal;font-size:40px;line-height:125%;font-family:Sans;letter-spacing:0px;word-spacing:0px;fill:#000000;fill-opacity:1;stroke:none;stroke-width:1px;stroke-linecap:butt;stroke-linejoin:miter;stroke-opacity:1"
     x="138.85577"
     y="212.46516"
     id="text6269"
     sodipodi:linespacing="125%"><tspan
       sodipodi:role="line"
       id="tspan6271"
       x="138.85577"
       y="212.46516"
       style="font-size:22.5px">a) Tap</tspan></text>
  <text
     sodipodi:linespacing="125%"
     id="text6273"
     y="212.46516"
     x="462.85577"
     style="font-style:normal;font-weight:normal;font-size:40px;line-height:125%;font-family:Sans;letter-spacing:0px;word-spacing:0px;fill:#000000;fill-opacity:1;stroke:none;stroke-width:1px;stroke-linecap:butt;stroke-linejoin:miter;stroke-opacity:1"
     xml:space="preserve"><tspan
       style="font-size:22.5px"
       y="212.46516"
       x="462.85577"
       id="tspan6275"
       sodipodi:role="line">b) Hold down</tspan></text>
  <text
     sodipodi:linespacing="125%"
     id="text6277"
     y="472.46515"
     x="136.85577"
     style="font-style:normal;font-weight:normal;font-size:40px;line-height:125%;font-family:Sans;letter-spacing:0px;word-spacing:0px;fill:#000000;fill-opacity:1;stroke:none;stroke-width:1px;stroke-linecap:butt;stroke-linejoin:miter;stroke-opacity:1"
     xml:space="preserve"><tspan
       style="font-size:22.5px"
       y="472.46515"
       x="136.85577"
       id="tspan6279"
       sodipodi:role="line">c) Move</tspan></text>
  <text
     xml:space="preserve"
     style="font-style:normal;font-weight:normal;font-size:40px;line-height:125%;font-family:Sans;letter-spacing:0px;word-spacing:0px;fill:#000000;fill-opacity:1;stroke:none;stroke-width:1px;stroke-linecap:butt;stroke-linejoin:miter;stroke-opacity:1"
     x="378.85577"
     y="472.46515"
     id="text6281"
     sodipodi:linespacing="125%"><tspan
       sodipodi:role="line"
       id="tspan6283"
       x="378.85577"
       y="472.46515"
       style="font-size:22.5px">d) Reset finger, move (optional)</tspan></text>
  <text
     sodipodi:linespacing="125%"
     id="text6285"
     y="732.46515"
     x="436.85577"
     style="font-style:normal;font-weight:normal;font-size:40px;line-height:125%;font-family:Sans;letter-spacing:0px;word-spacing:0px;fill:#000000;fill-opacity:1;stroke:none;stroke-width:1px;stroke-linecap:butt;stroke-linejoin:miter;stroke-opacity:1"
     xml:space="preserve"><tspan
       style="font-size:22.5px"
       y="732.46515"
       x="436.85577"
       id="tspan6287"
       sodipodi:role="line">f) Tap to end (optional)</tspan></text>
  <text
     xml:space="preserve"
     style="font-style:normal;font-weight:normal;font-size:40px;line-height:125%;font-family:Sans;letter-spacing:0px;word-spacing:0px;fill:#000000;fill-opacity:1;stroke:none;stroke-width:1px;stroke-linecap:butt;stroke-linejoin:miter;stroke-opacity:1"
     x="122.85577"
     y="732.46515"
     id="text6289"
     sodipodi:linespacing="125%"><tspan
       sodipodi:role="line"
       id="tspan6291"
       x="122.85577"
       y="732.46515"
       style="font-size:22.5px">e) Release</tspan></text>
</svg>
