<?xml version="1.0" encoding="UTF-8" standalone="no"?>
<!-- Created with Inkscape (http://www.inkscape.org/) -->

<svg
   xmlns:dc="http://purl.org/dc/elements/1.1/"
   xmlns:cc="http://creativecommons.org/ns#"
   xmlns:rdf="http://www.w3.org/1999/02/22-rdf-syntax-ns#"
   xmlns:svg="http://www.w3.org/2000/svg"
   xmlns="http://www.w3.org/2000/svg"
   xmlns:sodipodi="http://sodipodi.sourceforge.net/DTD/sodipodi-0.dtd"
   xmlns:inkscape="http://www.inkscape.org/namespaces/inkscape"
   width="198.41673mm"
   height="68.753075mm"
   viewBox="0 0 703.05143 243.61326"
   id="svg4313"
   version="1.1"
   inkscape:version="0.91 r13725"
   sodipodi:docname="touchscreen-gestures.svg">
  <defs
     id="defs4315">
    <marker
       inkscape:isstock="true"
       style="overflow:visible"
       id="marker6499"
       refX="0"
       refY="0"
       orient="auto"
       inkscape:stockid="Arrow2Lstart">
      <path
         transform="matrix(1.1,0,0,1.1,1.1,0)"
         d="M 8.7185878,4.0337352 -2.2072895,0.01601326 8.7185884,-4.0017078 c -1.7454984,2.3720609 -1.7354408,5.6174519 -6e-7,8.035443 z"
         style="fill:#000000;fill-opacity:1;fill-rule:evenodd;stroke:#000000;stroke-width:0.625;stroke-linejoin:round;stroke-opacity:1"
         id="path6501"
         inkscape:connector-curvature="0" />
    </marker>
    <marker
       inkscape:isstock="true"
       style="overflow:visible"
       id="marker6261"
       refX="0"
       refY="0"
       orient="auto"
       inkscape:stockid="Arrow2Lend">
      <path
         transform="matrix(-1.1,0,0,-1.1,-1.1,0)"
         d="M 8.7185878,4.0337352 -2.2072895,0.01601326 8.7185884,-4.0017078 c -1.7454984,2.3720609 -1.7354408,5.6174519 -6e-7,8.035443 z"
         style="fill:#000000;fill-opacity:1;fill-rule:evenodd;stroke:#000000;stroke-width:0.625;stroke-linejoin:round;stroke-opacity:1"
         id="path6263"
         inkscape:connector-curvature="0" />
    </marker>
    <marker
       inkscape:stockid="Arrow2Lstart"
       orient="auto"
       refY="0"
       refX="0"
       id="Arrow2Lstart"
       style="overflow:visible"
       inkscape:isstock="true"
       inkscape:collect="always">
      <path
         id="path4995"
         style="fill:#000000;fill-opacity:1;fill-rule:evenodd;stroke:#000000;stroke-width:0.625;stroke-linejoin:round;stroke-opacity:1"
         d="M 8.7185878,4.0337352 -2.2072895,0.01601326 8.7185884,-4.0017078 c -1.7454984,2.3720609 -1.7354408,5.6174519 -6e-7,8.035443 z"
         transform="matrix(1.1,0,0,1.1,1.1,0)"
         inkscape:connector-curvature="0" />
    </marker>
    <marker
       inkscape:stockid="Arrow1Lstart"
       orient="auto"
       refY="0"
       refX="0"
       id="marker5837"
       style="overflow:visible"
       inkscape:isstock="true">
      <path
         id="path5839"
         d="M 0,0 5,-5 -12.5,0 5,5 0,0 Z"
         style="fill:#000000;fill-opacity:1;fill-rule:evenodd;stroke:#000000;stroke-width:1pt;stroke-opacity:1"
         transform="matrix(0.8,0,0,0.8,10,0)"
         inkscape:connector-curvature="0" />
    </marker>
    <marker
       inkscape:isstock="true"
       style="overflow:visible"
       id="marker5365"
       refX="0"
       refY="0"
       orient="auto"
       inkscape:stockid="Arrow2Lend">
      <path
         transform="matrix(-1.1,0,0,-1.1,-1.1,0)"
         d="M 8.7185878,4.0337352 -2.2072895,0.01601326 8.7185884,-4.0017078 c -1.7454984,2.3720609 -1.7354408,5.6174519 -6e-7,8.035443 z"
         style="fill:#000000;fill-opacity:1;fill-rule:evenodd;stroke:#000000;stroke-width:0.625;stroke-linejoin:round;stroke-opacity:1"
         id="path5367"
         inkscape:connector-curvature="0" />
    </marker>
    <marker
       inkscape:stockid="Arrow2Lend"
       orient="auto"
       refY="0"
       refX="0"
       id="Arrow2Lend"
       style="overflow:visible"
       inkscape:isstock="true"
       inkscape:collect="always">
      <path
         id="path4998"
         style="fill:#000000;fill-opacity:1;fill-rule:evenodd;stroke:#000000;stroke-width:0.625;stroke-linejoin:round;stroke-opacity:1"
         d="M 8.7185878,4.0337352 -2.2072895,0.01601326 8.7185884,-4.0017078 c -1.7454984,2.3720609 -1.7354408,5.6174519 -6e-7,8.035443 z"
         transform="matrix(-1.1,0,0,-1.1,-1.1,0)"
         inkscape:connector-curvature="0" />
    </marker>
    <marker
       inkscape:stockid="Arrow1Lend"
       orient="auto"
       refY="0"
       refX="0"
       id="marker5291"
       style="overflow:visible"
       inkscape:isstock="true">
      <path
         id="path5293"
         d="M 0,0 5,-5 -12.5,0 5,5 0,0 Z"
         style="fill:#000000;fill-opacity:1;fill-rule:evenodd;stroke:#000000;stroke-width:1pt;stroke-opacity:1"
         transform="matrix(-0.8,0,0,-0.8,-10,0)"
         inkscape:connector-curvature="0" />
    </marker>
    <marker
       inkscape:stockid="Arrow1Lend"
       orient="auto"
       refY="0"
       refX="0"
       id="Arrow1Lend"
       style="overflow:visible"
       inkscape:isstock="true">
      <path
         id="path4980"
         d="M 0,0 5,-5 -12.5,0 5,5 0,0 Z"
         style="fill:#000000;fill-opacity:1;fill-rule:evenodd;stroke:#000000;stroke-width:1pt;stroke-opacity:1"
         transform="matrix(-0.8,0,0,-0.8,-10,0)"
         inkscape:connector-curvature="0" />
    </marker>
    <marker
       inkscape:stockid="Arrow1Lstart"
       orient="auto"
       refY="0"
       refX="0"
       id="Arrow1Lstart"
       style="overflow:visible"
       inkscape:isstock="true">
      <path
         id="path4977"
         d="M 0,0 5,-5 -12.5,0 5,5 0,0 Z"
         style="fill:#000000;fill-opacity:1;fill-rule:evenodd;stroke:#000000;stroke-width:1pt;stroke-opacity:1"
         transform="matrix(0.8,0,0,0.8,10,0)"
         inkscape:connector-curvature="0" />
    </marker>
  </defs>
  <sodipodi:namedview
     id="base"
     pagecolor="#ffffff"
     bordercolor="#666666"
     borderopacity="1.0"
     inkscape:pageopacity="0.0"
     inkscape:pageshadow="2"
     inkscape:zoom="0.93677625"
     inkscape:cx="610.35826"
     inkscape:cy="81.237892"
     inkscape:document-units="px"
     inkscape:current-layer="layer1"
     showgrid="false"
     inkscape:window-width="1920"
     inkscape:window-height="1136"
     inkscape:window-x="0"
     inkscape:window-y="27"
     inkscape:window-maximized="1"
     fit-margin-top="0"
     fit-margin-left="0"
     fit-margin-right="0"
     fit-margin-bottom="0" />
  <metadata
     id="metadata4318">
    <rdf:RDF>
      <cc:Work
         rdf:about="">
        <dc:format>image/svg+xml</dc:format>
        <dc:type
           rdf:resource="http://purl.org/dc/dcmitype/StillImage" />
        <dc:title></dc:title>
      </cc:Work>
    </rdf:RDF>
  </metadata>
  <g
     inkscape:label="Layer 1"
     inkscape:groupmode="layer"
     id="layer1"
     transform="translate(-21.856644,-132.29226)">
    <rect
       style="opacity:0.92000002;fill:#000000;fill-opacity:0.07734806;stroke:#000000;stroke-width:1.22726846;stroke-linecap:round;stroke-miterlimit:4;stroke-dasharray:none;stroke-dashoffset:0;stroke-opacity:1"
       id="rect4905"
       width="333.6037"
       height="240.70985"
       x="22.470278"
       y="132.9059" />
    <g
       id="g4885"
       style="fill:#ffeeaa"
       transform="matrix(0.65916749,0,0,0.65916749,7.4494548,128.12082)">
      <rect
         y="53.624214"
         x="49.833439"
         height="221.76169"
         width="360.3331"
         id="rect4873"
         style="opacity:0.92000002;fill:#ffeeaa;fill-opacity:0.2983426;stroke:#000000;stroke-width:0.66787815;stroke-linecap:round;stroke-miterlimit:4;stroke-dasharray:none;stroke-dashoffset:0;stroke-opacity:1" />
      <rect
         style="opacity:0.92000002;fill:#ffeeaa;fill-opacity:0.2983426;stroke:#000000;stroke-width:0.70335335;stroke-linecap:round;stroke-miterlimit:4;stroke-dasharray:none;stroke-dashoffset:0;stroke-opacity:1"
         id="rect4875"
         width="360.29761"
         height="245.96988"
         x="49.851177"
         y="29.398293" />
    </g>
    <g
       id="g3663-9-5"
       transform="matrix(0.64805599,0.12052062,-0.12052062,0.64805599,-40.638425,-251.35321)">
      <path
         inkscape:connector-curvature="0"
         style="fill:none;stroke:#000000;stroke-width:1px;stroke-linecap:butt;stroke-linejoin:miter;stroke-opacity:1"
         id="path2820-6-6"
         d="m 388.57143,893.79076 -57.14285,-130 c 0,0 -30.0247,-58.84827 4.28571,-70.00001 27.07438,-8.79984 37.32196,9.59496 40,14.64286 27.54455,51.91936 84.64285,173.21429 84.64285,173.21429 l -0.71428,0 -71.07143,12.14286 z" />
      <path
         inkscape:connector-curvature="0"
         style="color:#000000;display:inline;overflow:visible;visibility:visible;fill:#ffccaa;fill-opacity:1;fill-rule:nonzero;stroke:#000000;stroke-width:0.002;stroke-miterlimit:4;stroke-dasharray:none;stroke-opacity:1;marker:none;enable-background:accumulate"
         id="path2824-1-1"
         d="m 360.32021,827.78041 c -15.74169,-35.7991 -29.44655,-66.92657 -30.45523,-69.17214 -7.08929,-15.78239 -10.8761,-32.88254 -9.6176,-43.43026 1.39575,-11.69796 7.19746,-18.50389 18.22574,-21.38044 5.18218,-1.35169 8.54724,-1.76827 12.41155,-1.53649 4.43642,0.26609 6.95929,0.93715 11.03011,2.93391 3.93491,1.9301 8.0085,5.56248 10.68932,9.53159 3.68818,5.46055 26.56068,50.9623 49.57778,98.62829 16.60192,34.38082 37.06388,77.41994 36.89013,77.59369 -0.13286,0.13286 -69.01932,11.92114 -69.66286,11.92114 -0.27909,0 -12.00972,-26.24842 -29.08894,-65.08929 z" />
      <path
         inkscape:connector-curvature="0"
         style="color:#000000;display:inline;overflow:visible;visibility:visible;opacity:0.92000002;fill:#ffe6d5;fill-opacity:1;fill-rule:nonzero;stroke:none;stroke-width:0.2;marker:none;enable-background:accumulate"
         id="path2824-7-1-4"
         d="m 334.75785,756.75053 c -7.08929,-15.78239 -10.28437,-26.89033 -9.02587,-37.43805 1.39575,-11.69796 5.8085,-16.73613 16.83678,-19.61268 12.44766,-3.59459 20.03902,-1.91353 27.39013,8.75815 11.42622,25.66382 13.40166,29.05484 15.06365,35.48866 -0.13286,0.13286 -42.89663,15.49027 -44.57776,16.18518 -1.72922,0.71479 -4.94789,-2.09377 -5.68693,-3.38126 z" />
    </g>
    <g
       transform="matrix(0.64805599,0.12052062,-0.12052062,0.64805599,87.872503,-305.95371)"
       id="g4877">
      <path
         d="m 388.57143,893.79076 -57.14285,-130 c 0,0 -30.0247,-58.84827 4.28571,-70.00001 27.07438,-8.79984 37.32196,9.59496 40,14.64286 27.54455,51.91936 84.64285,173.21429 84.64285,173.21429 l -0.71428,0 -71.07143,12.14286 z"
         id="path4879"
         style="fill:none;stroke:#000000;stroke-width:1px;stroke-linecap:butt;stroke-linejoin:miter;stroke-opacity:1"
         inkscape:connector-curvature="0" />
      <path
         d="m 360.32021,827.78041 c -15.74169,-35.7991 -29.44655,-66.92657 -30.45523,-69.17214 -7.08929,-15.78239 -10.8761,-32.88254 -9.6176,-43.43026 1.39575,-11.69796 7.19746,-18.50389 18.22574,-21.38044 5.18218,-1.35169 8.54724,-1.76827 12.41155,-1.53649 4.43642,0.26609 6.95929,0.93715 11.03011,2.93391 3.93491,1.9301 8.0085,5.56248 10.68932,9.53159 3.68818,5.46055 26.56068,50.9623 49.57778,98.62829 16.60192,34.38082 37.06388,77.41994 36.89013,77.59369 -0.13286,0.13286 -69.01932,11.92114 -69.66286,11.92114 -0.27909,0 -12.00972,-26.24842 -29.08894,-65.08929 z"
         id="path4881"
         style="color:#000000;display:inline;overflow:visible;visibility:visible;fill:#ffccaa;fill-opacity:1;fill-rule:nonzero;stroke:#000000;stroke-width:0.002;stroke-miterlimit:4;stroke-dasharray:none;stroke-opacity:1;marker:none;enable-background:accumulate"
         inkscape:connector-curvature="0" />
      <path
         d="m 334.75785,756.75053 c -7.08929,-15.78239 -10.28437,-26.89033 -9.02587,-37.43805 1.39575,-11.69796 5.8085,-16.73613 16.83678,-19.61268 12.44766,-3.59459 20.03902,-1.91353 27.39013,8.75815 11.42622,25.66382 13.40166,29.05484 15.06365,35.48866 -0.13286,0.13286 -42.89663,15.49027 -44.57776,16.18518 -1.72922,0.71479 -4.94789,-2.09377 -5.68693,-3.38126 z"
         id="path4883"
         style="color:#000000;display:inline;overflow:visible;visibility:visible;opacity:0.92000002;fill:#ffe6d5;fill-opacity:1;fill-rule:nonzero;stroke:none;stroke-width:0.2;marker:none;enable-background:accumulate"
         inkscape:connector-curvature="0" />
    </g>
    <g
       transform="matrix(0.64805599,0.12052062,-0.12052062,0.64805599,-40.638425,-251.35321)"
       id="g4889">
      <path
         d="m 388.57143,893.79076 -57.14285,-130 c 0,0 -30.0247,-58.84827 4.28571,-70.00001 27.07438,-8.79984 37.32196,9.59496 40,14.64286 27.54455,51.91936 84.64285,173.21429 84.64285,173.21429 l -0.71428,0 -71.07143,12.14286 z"
         id="path4891"
         style="fill:none;stroke:#000000;stroke-width:1px;stroke-linecap:butt;stroke-linejoin:miter;stroke-opacity:1"
         inkscape:connector-curvature="0" />
      <path
         d="m 360.32021,827.78041 c -15.74169,-35.7991 -29.44655,-66.92657 -30.45523,-69.17214 -7.08929,-15.78239 -10.8761,-32.88254 -9.6176,-43.43026 1.39575,-11.69796 7.19746,-18.50389 18.22574,-21.38044 5.18218,-1.35169 8.54724,-1.76827 12.41155,-1.53649 4.43642,0.26609 6.95929,0.93715 11.03011,2.93391 3.93491,1.9301 8.0085,5.56248 10.68932,9.53159 3.68818,5.46055 26.56068,50.9623 49.57778,98.62829 16.60192,34.38082 37.06388,77.41994 36.89013,77.59369 -0.13286,0.13286 -69.01932,11.92114 -69.66286,11.92114 -0.27909,0 -12.00972,-26.24842 -29.08894,-65.08929 z"
         id="path4893"
         style="color:#000000;display:inline;overflow:visible;visibility:visible;fill:#ffccaa;fill-opacity:1;fill-rule:nonzero;stroke:#000000;stroke-width:0.002;stroke-miterlimit:4;stroke-dasharray:none;stroke-opacity:1;marker:none;enable-background:accumulate"
         inkscape:connector-curvature="0" />
      <path
         d="m 334.75785,756.75053 c -7.08929,-15.78239 -10.28437,-26.89033 -9.02587,-37.43805 1.39575,-11.69796 5.8085,-16.73613 16.83678,-19.61268 12.44766,-3.59459 20.03902,-1.91353 27.39013,8.75815 11.42622,25.66382 13.40166,29.05484 15.06365,35.48866 -0.13286,0.13286 -42.89663,15.49027 -44.57776,16.18518 -1.72922,0.71479 -4.94789,-2.09377 -5.68693,-3.38126 z"
         id="path4895"
         style="color:#000000;display:inline;overflow:visible;visibility:visible;opacity:0.92000002;fill:#ffe6d5;fill-opacity:1;fill-rule:nonzero;stroke:none;stroke-width:0.2;marker:none;enable-background:accumulate"
         inkscape:connector-curvature="0" />
    </g>
    <g
       id="g4897"
       transform="matrix(0.64805599,0.12052062,-0.12052062,0.64805599,87.872503,-305.95371)">
      <path
         inkscape:connector-curvature="0"
         style="fill:none;stroke:#000000;stroke-width:1px;stroke-linecap:butt;stroke-linejoin:miter;stroke-opacity:1"
         id="path4899"
         d="m 388.57143,893.79076 -57.14285,-130 c 0,0 -30.0247,-58.84827 4.28571,-70.00001 27.07438,-8.79984 37.32196,9.59496 40,14.64286 27.54455,51.91936 84.64285,173.21429 84.64285,173.21429 l -0.71428,0 -71.07143,12.14286 z" />
      <path
         inkscape:connector-curvature="0"
         style="color:#000000;display:inline;overflow:visible;visibility:visible;fill:#ffccaa;fill-opacity:1;fill-rule:nonzero;stroke:#000000;stroke-width:0.002;stroke-miterlimit:4;stroke-dasharray:none;stroke-opacity:1;marker:none;enable-background:accumulate"
         id="path4901"
         d="m 360.32021,827.78041 c -15.74169,-35.7991 -29.44655,-66.92657 -30.45523,-69.17214 -7.08929,-15.78239 -10.8761,-32.88254 -9.6176,-43.43026 1.39575,-11.69796 7.19746,-18.50389 18.22574,-21.38044 5.18218,-1.35169 8.54724,-1.76827 12.41155,-1.53649 4.43642,0.26609 6.95929,0.93715 11.03011,2.93391 3.93491,1.9301 8.0085,5.56248 10.68932,9.53159 3.68818,5.46055 26.56068,50.9623 49.57778,98.62829 16.60192,34.38082 37.06388,77.41994 36.89013,77.59369 -0.13286,0.13286 -69.01932,11.92114 -69.66286,11.92114 -0.27909,0 -12.00972,-26.24842 -29.08894,-65.08929 z" />
      <path
         inkscape:connector-curvature="0"
         style="color:#000000;display:inline;overflow:visible;visibility:visible;opacity:0.92000002;fill:#ffe6d5;fill-opacity:1;fill-rule:nonzero;stroke:none;stroke-width:0.2;marker:none;enable-background:accumulate"
         id="path4903"
         d="m 334.75785,756.75053 c -7.08929,-15.78239 -10.28437,-26.89033 -9.02587,-37.43805 1.39575,-11.69796 5.8085,-16.73613 16.83678,-19.61268 12.44766,-3.59459 20.03902,-1.91353 27.39013,8.75815 11.42622,25.66382 13.40166,29.05484 15.06365,35.48866 -0.13286,0.13286 -42.89663,15.49027 -44.57776,16.18518 -1.72922,0.71479 -4.94789,-2.09377 -5.68693,-3.38126 z" />
    </g>
    <rect
       y="132.9059"
       x="390.6907"
       height="240.70985"
       width="333.6037"
       id="rect4907"
       style="opacity:0.92000002;fill:#000000;fill-opacity:0.07734806;stroke:#000000;stroke-width:1.22726846;stroke-linecap:round;stroke-miterlimit:4;stroke-dasharray:none;stroke-dashoffset:0;stroke-opacity:1" />
    <g
       id="g4951"
       transform="matrix(0.65916749,0,0,0.65916749,136.45794,-94.79591)">
      <rect
         style="opacity:0.92000002;fill:#ffeeaa;fill-opacity:0.2983426;stroke:#000000;stroke-width:0.39509788;stroke-linecap:round;stroke-miterlimit:4;stroke-dasharray:none;stroke-dashoffset:0;stroke-opacity:1"
         id="rect4911"
         width="240.39772"
         height="116.3256"
         x="390.11847"
         y="546.44226" />
      <rect
         y="522.21863"
         x="390.13852"
         height="141.18213"
         width="240.35757"
         id="rect4913"
         style="opacity:0.92000002;fill:#ffeeaa;fill-opacity:0.2983426;stroke:#000000;stroke-width:0.43523186;stroke-linecap:round;stroke-miterlimit:4;stroke-dasharray:none;stroke-dashoffset:0;stroke-opacity:1" />
    </g>
    <g
       transform="matrix(0.64805599,0.12052062,-0.12052062,0.64805599,327.582,-251.35321)"
       id="g4915">
      <path
         d="m 388.57143,893.79076 -57.14285,-130 c 0,0 -30.0247,-58.84827 4.28571,-70.00001 27.07438,-8.79984 37.32196,9.59496 40,14.64286 27.54455,51.91936 84.64285,173.21429 84.64285,173.21429 l -0.71428,0 -71.07143,12.14286 z"
         id="path4917"
         style="fill:none;stroke:#000000;stroke-width:1px;stroke-linecap:butt;stroke-linejoin:miter;stroke-opacity:1"
         inkscape:connector-curvature="0" />
      <path
         d="m 360.32021,827.78041 c -15.74169,-35.7991 -29.44655,-66.92657 -30.45523,-69.17214 -7.08929,-15.78239 -10.8761,-32.88254 -9.6176,-43.43026 1.39575,-11.69796 7.19746,-18.50389 18.22574,-21.38044 5.18218,-1.35169 8.54724,-1.76827 12.41155,-1.53649 4.43642,0.26609 6.95929,0.93715 11.03011,2.93391 3.93491,1.9301 8.0085,5.56248 10.68932,9.53159 3.68818,5.46055 26.56068,50.9623 49.57778,98.62829 16.60192,34.38082 37.06388,77.41994 36.89013,77.59369 -0.13286,0.13286 -69.01932,11.92114 -69.66286,11.92114 -0.27909,0 -12.00972,-26.24842 -29.08894,-65.08929 z"
         id="path4919"
         style="color:#000000;display:inline;overflow:visible;visibility:visible;fill:#ffccaa;fill-opacity:1;fill-rule:nonzero;stroke:#000000;stroke-width:0.002;stroke-miterlimit:4;stroke-dasharray:none;stroke-opacity:1;marker:none;enable-background:accumulate"
         inkscape:connector-curvature="0" />
      <path
         d="m 334.75785,756.75053 c -7.08929,-15.78239 -10.28437,-26.89033 -9.02587,-37.43805 1.39575,-11.69796 5.8085,-16.73613 16.83678,-19.61268 12.44766,-3.59459 20.03902,-1.91353 27.39013,8.75815 11.42622,25.66382 13.40166,29.05484 15.06365,35.48866 -0.13286,0.13286 -42.89663,15.49027 -44.57776,16.18518 -1.72922,0.71479 -4.94789,-2.09377 -5.68693,-3.38126 z"
         id="path4921"
         style="color:#000000;display:inline;overflow:visible;visibility:visible;opacity:0.92000002;fill:#ffe6d5;fill-opacity:1;fill-rule:nonzero;stroke:none;stroke-width:0.2;marker:none;enable-background:accumulate"
         inkscape:connector-curvature="0" />
    </g>
    <g
       id="g4923"
       transform="matrix(0.64805599,0.12052062,-0.12052062,0.64805599,456.09293,-305.95371)">
      <path
         inkscape:connector-curvature="0"
         style="fill:none;stroke:#000000;stroke-width:1px;stroke-linecap:butt;stroke-linejoin:miter;stroke-opacity:1"
         id="path4925"
         d="m 388.57143,893.79076 -57.14285,-130 c 0,0 -30.0247,-58.84827 4.28571,-70.00001 27.07438,-8.79984 37.32196,9.59496 40,14.64286 27.54455,51.91936 84.64285,173.21429 84.64285,173.21429 l -0.71428,0 -71.07143,12.14286 z" />
      <path
         inkscape:connector-curvature="0"
         style="color:#000000;display:inline;overflow:visible;visibility:visible;fill:#ffccaa;fill-opacity:1;fill-rule:nonzero;stroke:#000000;stroke-width:0.002;stroke-miterlimit:4;stroke-dasharray:none;stroke-opacity:1;marker:none;enable-background:accumulate"
         id="path4927"
         d="m 360.32021,827.78041 c -15.74169,-35.7991 -29.44655,-66.92657 -30.45523,-69.17214 -7.08929,-15.78239 -10.8761,-32.88254 -9.6176,-43.43026 1.39575,-11.69796 7.19746,-18.50389 18.22574,-21.38044 5.18218,-1.35169 8.54724,-1.76827 12.41155,-1.53649 4.43642,0.26609 6.95929,0.93715 11.03011,2.93391 3.93491,1.9301 8.0085,5.56248 10.68932,9.53159 3.68818,5.46055 26.56068,50.9623 49.57778,98.62829 16.60192,34.38082 37.06388,77.41994 36.89013,77.59369 -0.13286,0.13286 -69.01932,11.92114 -69.66286,11.92114 -0.27909,0 -12.00972,-26.24842 -29.08894,-65.08929 z" />
      <path
         inkscape:connector-curvature="0"
         style="color:#000000;display:inline;overflow:visible;visibility:visible;opacity:0.92000002;fill:#ffe6d5;fill-opacity:1;fill-rule:nonzero;stroke:none;stroke-width:0.2;marker:none;enable-background:accumulate"
         id="path4929"
         d="m 334.75785,756.75053 c -7.08929,-15.78239 -10.28437,-26.89033 -9.02587,-37.43805 1.39575,-11.69796 5.8085,-16.73613 16.83678,-19.61268 12.44766,-3.59459 20.03902,-1.91353 27.39013,8.75815 11.42622,25.66382 13.40166,29.05484 15.06365,35.48866 -0.13286,0.13286 -42.89663,15.49027 -44.57776,16.18518 -1.72922,0.71479 -4.94789,-2.09377 -5.68693,-3.38126 z" />
    </g>
    <g
       id="g4931"
       transform="matrix(0.64805599,0.12052062,-0.12052062,0.64805599,327.582,-251.35321)">
      <path
         inkscape:connector-curvature="0"
         style="fill:none;stroke:#000000;stroke-width:1px;stroke-linecap:butt;stroke-linejoin:miter;stroke-opacity:1"
         id="path4933"
         d="m 388.57143,893.79076 -57.14285,-130 c 0,0 -30.0247,-58.84827 4.28571,-70.00001 27.07438,-8.79984 37.32196,9.59496 40,14.64286 27.54455,51.91936 84.64285,173.21429 84.64285,173.21429 l -0.71428,0 -71.07143,12.14286 z" />
      <path
         inkscape:connector-curvature="0"
         style="color:#000000;display:inline;overflow:visible;visibility:visible;fill:#ffccaa;fill-opacity:1;fill-rule:nonzero;stroke:#000000;stroke-width:0.002;stroke-miterlimit:4;stroke-dasharray:none;stroke-opacity:1;marker:none;enable-background:accumulate"
         id="path4935"
         d="m 360.32021,827.78041 c -15.74169,-35.7991 -29.44655,-66.92657 -30.45523,-69.17214 -7.08929,-15.78239 -10.8761,-32.88254 -9.6176,-43.43026 1.39575,-11.69796 7.19746,-18.50389 18.22574,-21.38044 5.18218,-1.35169 8.54724,-1.76827 12.41155,-1.53649 4.43642,0.26609 6.95929,0.93715 11.03011,2.93391 3.93491,1.9301 8.0085,5.56248 10.68932,9.53159 3.68818,5.46055 26.56068,50.9623 49.57778,98.62829 16.60192,34.38082 37.06388,77.41994 36.89013,77.59369 -0.13286,0.13286 -69.01932,11.92114 -69.66286,11.92114 -0.27909,0 -12.00972,-26.24842 -29.08894,-65.08929 z" />
      <path
         inkscape:connector-curvature="0"
         style="color:#000000;display:inline;overflow:visible;visibility:visible;opacity:0.92000002;fill:#ffe6d5;fill-opacity:1;fill-rule:nonzero;stroke:none;stroke-width:0.2;marker:none;enable-background:accumulate"
         id="path4937"
         d="m 334.75785,756.75053 c -7.08929,-15.78239 -10.28437,-26.89033 -9.02587,-37.43805 1.39575,-11.69796 5.8085,-16.73613 16.83678,-19.61268 12.44766,-3.59459 20.03902,-1.91353 27.39013,8.75815 11.42622,25.66382 13.40166,29.05484 15.06365,35.48866 -0.13286,0.13286 -42.89663,15.49027 -44.57776,16.18518 -1.72922,0.71479 -4.94789,-2.09377 -5.68693,-3.38126 z" />
    </g>
    <g
       id="g4955"
       transform="matrix(0.65916749,0,0,0.65916749,296.60088,-154.71595)">
      <rect
         y="546.44226"
         x="390.11847"
         height="116.3256"
         width="240.39772"
         id="rect4957"
         style="opacity:0.92000002;fill:#ffeeaa;fill-opacity:0.2983426;stroke:#000000;stroke-width:0.39509788;stroke-linecap:round;stroke-miterlimit:4;stroke-dasharray:none;stroke-dashoffset:0;stroke-opacity:1" />
      <rect
         style="opacity:0.92000002;fill:#ffeeaa;fill-opacity:0.2983426;stroke:#000000;stroke-width:0.43523186;stroke-linecap:round;stroke-miterlimit:4;stroke-dasharray:none;stroke-dashoffset:0;stroke-opacity:1"
         id="rect4959"
         width="240.35757"
         height="141.18213"
         x="390.13852"
         y="522.21863" />
    </g>
    <g
       transform="matrix(0.64805599,0.12052062,-0.12052062,0.64805599,456.09293,-305.95371)"
       id="g4939">
      <path
         d="m 388.57143,893.79076 -57.14285,-130 c 0,0 -30.0247,-58.84827 4.28571,-70.00001 27.07438,-8.79984 37.32196,9.59496 40,14.64286 27.54455,51.91936 84.64285,173.21429 84.64285,173.21429 l -0.71428,0 -71.07143,12.14286 z"
         id="path4941"
         style="fill:none;stroke:#000000;stroke-width:1px;stroke-linecap:butt;stroke-linejoin:miter;stroke-opacity:1"
         inkscape:connector-curvature="0" />
      <path
         d="m 360.32021,827.78041 c -15.74169,-35.7991 -29.44655,-66.92657 -30.45523,-69.17214 -7.08929,-15.78239 -10.8761,-32.88254 -9.6176,-43.43026 1.39575,-11.69796 7.19746,-18.50389 18.22574,-21.38044 5.18218,-1.35169 8.54724,-1.76827 12.41155,-1.53649 4.43642,0.26609 6.95929,0.93715 11.03011,2.93391 3.93491,1.9301 8.0085,5.56248 10.68932,9.53159 3.68818,5.46055 26.56068,50.9623 49.57778,98.62829 16.60192,34.38082 37.06388,77.41994 36.89013,77.59369 -0.13286,0.13286 -69.01932,11.92114 -69.66286,11.92114 -0.27909,0 -12.00972,-26.24842 -29.08894,-65.08929 z"
         id="path4943"
         style="color:#000000;display:inline;overflow:visible;visibility:visible;fill:#ffccaa;fill-opacity:1;fill-rule:nonzero;stroke:#000000;stroke-width:0.002;stroke-miterlimit:4;stroke-dasharray:none;stroke-opacity:1;marker:none;enable-background:accumulate"
         inkscape:connector-curvature="0" />
      <path
         d="m 334.75785,756.75053 c -7.08929,-15.78239 -10.28437,-26.89033 -9.02587,-37.43805 1.39575,-11.69796 5.8085,-16.73613 16.83678,-19.61268 12.44766,-3.59459 20.03902,-1.91353 27.39013,8.75815 11.42622,25.66382 13.40166,29.05484 15.06365,35.48866 -0.13286,0.13286 -42.89663,15.49027 -44.57776,16.18518 -1.72922,0.71479 -4.94789,-2.09377 -5.68693,-3.38126 z"
         id="path4945"
         style="color:#000000;display:inline;overflow:visible;visibility:visible;opacity:0.92000002;fill:#ffe6d5;fill-opacity:1;fill-rule:nonzero;stroke:none;stroke-width:0.2;marker:none;enable-background:accumulate"
         inkscape:connector-curvature="0" />
    </g>
    <path
       style="fill:none;fill-rule:evenodd;stroke:#000000;stroke-width:1.31833494;stroke-linecap:butt;stroke-linejoin:miter;stroke-miterlimit:4;stroke-dasharray:none;stroke-opacity:1;marker-end:url(#Arrow2Lend)"
       d="m 113.99435,244.83266 34.62471,-17.97821"
       id="path4971"
       inkscape:connector-curvature="0" />
    <path
       inkscape:connector-curvature="0"
       id="path5363"
       d="m 173.52713,216.96933 34.62471,-17.97821"
       style="fill:none;fill-rule:evenodd;stroke:#000000;stroke-width:1.31833494;stroke-linecap:butt;stroke-linejoin:miter;stroke-miterlimit:4;stroke-dasharray:none;stroke-opacity:1;marker-start:url(#marker6499)" />
    <path
       inkscape:connector-curvature="0"
       id="path6257"
       d="m 481.80981,244.83266 34.62471,-17.97821"
       style="fill:none;fill-rule:evenodd;stroke:#000000;stroke-width:1.31833494;stroke-linecap:butt;stroke-linejoin:miter;stroke-miterlimit:4;stroke-dasharray:none;stroke-opacity:1;marker-end:url(#marker6261)" />
    <path
       style="fill:none;fill-rule:evenodd;stroke:#000000;stroke-width:1.31833494;stroke-linecap:butt;stroke-linejoin:miter;stroke-miterlimit:4;stroke-dasharray:none;stroke-opacity:1;marker-start:url(#Arrow2Lstart)"
       d="M 541.34259,216.96933 575.9673,198.99112"
       id="path6259"
       inkscape:connector-curvature="0" />
  </g>
</svg>
