<?xml version="1.0" encoding="UTF-8" standalone="no"?>
<svg viewBox="0 0 50 50"
 xmlns="http://www.w3.org/2000/svg" xmlns:xlink="http://www.w3.org/1999/xlink"  version="1.2" baseProfile="tiny">
<title>Qt SVG Document</title>
<desc>Generated with Qt</desc>
<defs>
</defs>
<g fill="none" stroke="black" stroke-width="1" fill-rule="evenodd" stroke-linecap="square" stroke-linejoin="bevel" >

<g fill="#000000" fill-opacity="1" stroke="none" transform="matrix(3.125,0,0,3.125,-853.125,595.743)"
font-family="Nimbus Sans" font-size="10" font-weight="400" font-style="normal" 
opacity="0" >
<rect x="273" y="-190.638" width="16" height="16"/>
</g>

<g fill="#20a932" fill-opacity="1" stroke="none" transform="matrix(3.125,0,0,3.125,-12.5,-3226.13)"
font-family="Nimbus Sans" font-size="10" font-weight="400" font-style="normal" 
>
<path vector-effect="none" fill-rule="evenodd" d="M12.0001,1047.36 C15.866,1047.36 19,1044.23 19,1040.36 C19,1036.5 15.866,1033.36 12.0001,1033.36 C8.13402,1033.36 5,1036.5 5,1040.36 C5,1044.23 8.13402,1047.36 12.0001,1047.36 "/>
</g>

<g fill="#000000" fill-opacity="1" stroke="none" transform="matrix(3.125,0,0,3.125,-12.5,-3226.13)"
font-family="Nimbus Sans" font-size="10" font-weight="400" font-style="normal" 
opacity="0.5" >
<path vector-effect="none" fill-rule="nonzero" d="M10.4141,1037.36 L15,1041.95 L15,1038.36 C15,1037.95 14.4155,1037.36 14,1037.36 L10.4141,1037.36 M9,1038.78 L9,1042.36 C9,1042.78 9.5845,1043.36 10,1043.36 L13.5859,1043.36 L9,1038.78"/>
</g>

<g fill="none" stroke="#000000" stroke-opacity="1" stroke-width="1" stroke-linecap="square" stroke-linejoin="bevel" transform="matrix(1,0,0,1,0,0)"
font-family="Nimbus Sans" font-size="10" font-weight="400" font-style="normal" 
>
</g>
</g>
</svg>
